<svg style="background-color:#dddddd" width="457.625" height="248.07500000000002"><path stroke="black" fill="white" fill-opacity="1.0" d="M 0, 248.07500000000002 L 457.625, 248.07500000000002 L 457.625, 0 L 0, 0 Z"/><path stroke="black" fill="white" fill-opacity="0.0" d="M 209.5, 10.050000000000011 L 181.5, 10.050000000000011 L 181.5, 38.04999999999998 L 209.5, 38.04999999999998 Z"/><path stroke="black" fill="white" fill-opacity="0.0" d="M 247.6, 10.050000000000011 L 219.6, 10.050000000000011 L 219.6, 38.04999999999998 L 247.6, 38.04999999999998 Z"/><path stroke="black" fill="white" fill-opacity="0.0" d="M 285.7, 10.050000000000011 L 257.7, 10.050000000000011 L 257.7, 38.04999999999998 L 285.7, 38.04999999999998 Z"/><path stroke="black" fill="white" fill-opacity="0.0" d="M 323.8, 10.050000000000011 L 295.8, 10.050000000000011 L 295.8, 38.04999999999998 L 323.8, 38.04999999999998 Z"/><path stroke="black" fill="white" fill-opacity="0.0" d="M 361.9, 10.050000000000011 L 333.9, 10.050000000000011 L 333.9, 38.04999999999998 L 361.9, 38.04999999999998 Z"/><path stroke="black" fill="white" fill-opacity="0.0" d="M 400, 10.050000000000011 L 372, 10.050000000000011 L 372, 38.04999999999998 L 400, 38.04999999999998 Z"/><path stroke="black" fill="white" fill-opacity="0.0" d="M 438.1, 10.050000000000011 L 410.1, 10.050000000000011 L 410.1, 38.04999999999998 L 438.1, 38.04999999999998 Z"/><path stroke="black" fill="white" fill-opacity="0.0" d="M 38.05, 57.67400000000001 L 10.05, 57.67400000000001 L 10.05, 85.674 L 38.05, 85.674 Z"/><path stroke="black" fill="white" fill-opacity="0.0" d="M 76.15, 57.67400000000001 L 48.15, 57.67400000000001 L 48.15, 85.674 L 76.15, 85.674 Z"/><path stroke="black" fill="white" fill-opacity="0.0" d="M 114.25, 57.67400000000001 L 86.25, 57.67400000000001 L 86.25, 85.674 L 114.25, 85.674 Z"/><path stroke="black" fill="white" fill-opacity="0.0" d="M 152.35, 57.67400000000001 L 124.35, 57.67400000000001 L 124.35, 85.674 L 152.35, 85.674 Z"/><path stroke="black" fill="white" fill-opacity="0.0" d="M 209.5, 57.67400000000001 L 181.5, 57.67400000000001 L 181.5, 85.674 L 209.5, 85.674 Z"/><path stroke="black" fill="white" fill-opacity="0.0" d="M 247.6, 57.67400000000001 L 219.6, 57.67400000000001 L 219.6, 85.674 L 247.6, 85.674 Z"/><path stroke="black" fill="white" fill-opacity="0.0" d="M 285.7, 57.67400000000001 L 257.7, 57.67400000000001 L 257.7, 85.674 L 285.7, 85.674 Z"/><path stroke="black" fill="white" fill-opacity="0.0" d="M 323.8, 57.67400000000001 L 295.8, 57.67400000000001 L 295.8, 85.674 L 323.8, 85.674 Z"/><path stroke="black" fill="white" fill-opacity="0.0" d="M 361.9, 57.67400000000001 L 333.9, 57.67400000000001 L 333.9, 85.674 L 361.9, 85.674 Z"/><path stroke="black" fill="white" fill-opacity="0.0" d="M 400, 57.67400000000001 L 372, 57.67400000000001 L 372, 85.674 L 400, 85.674 Z"/><path stroke="black" fill="white" fill-opacity="0.0" d="M 438.1, 57.67400000000001 L 410.1, 57.67400000000001 L 410.1, 85.674 L 438.1, 85.674 Z"/><path stroke="black" fill="white" fill-opacity="0.0" d="M 38.05, 95.774 L 10.05, 95.774 L 10.05, 123.774 L 38.05, 123.774 Z"/><path stroke="black" fill="white" fill-opacity="0.0" d="M 76.15, 95.774 L 48.15, 95.774 L 48.15, 123.774 L 76.15, 123.774 Z"/><path stroke="black" fill="white" fill-opacity="0.0" d="M 114.25, 95.774 L 86.25, 95.774 L 86.25, 123.774 L 114.25, 123.774 Z"/><path stroke="black" fill="white" fill-opacity="0.0" d="M 124.80900000000003, 108.025 L 124.80900000000003, 111.67499999999998 L 137.34900000000005, 111.67499999999998 L 137.34900000000005, 114.82499999999999 L 124.34900000000005, 114.82499999999999 L 124.34900000000005, 142.825 L 137.34900000000005, 142.825 L 137.34900000000005, 145.975 L 124.80900000000003, 145.975 L 124.80900000000003, 149.625 L 122.40900000000005, 149.625 L 122.40900000000005, 155.625 L 124.80900000000003, 155.625 L 124.80900000000003, 159.275 L 137.34900000000005, 159.275 L 137.34900000000005, 161.025 L 142.94900000000004, 161.025 L 142.94900000000004, 159.275 L 149.40900000000005, 159.275 L 149.40900000000005, 145.975 L 142.94900000000004, 145.975 L 142.94900000000004, 142.825 L 152.34900000000005, 142.825 L 152.34900000000005, 114.82499999999999 L 142.94900000000004, 114.82499999999999 L 142.94900000000004, 111.67499999999998 L 149.40900000000002, 111.67499999999998 L 149.40900000000002, 98.375 L 142.94900000000004, 98.375 L 142.94900000000004, 96.625 L 137.34900000000005, 96.625 L 137.34900000000005, 98.375 L 124.80900000000003, 98.375 L 124.80900000000003, 102.025 L 122.40900000000005, 102.025 L 122.40900000000005, 108.025 Z"/><path stroke="black" fill="white" fill-opacity="0.0" d="M 219.026, 95.774 L 191.026, 95.774 L 191.026, 123.774 L 219.026, 123.774 Z"/><path stroke="black" fill="white" fill-opacity="0.0" d="M 266.65, 95.774 L 238.65, 95.774 L 238.65, 123.774 L 266.65, 123.774 Z"/><path stroke="black" fill="white" fill-opacity="0.0" d="M 304.75, 95.774 L 276.75, 95.774 L 276.75, 123.774 L 304.75, 123.774 Z"/><path stroke="black" fill="white" fill-opacity="0.0" d="M 342.85, 95.774 L 314.85, 95.774 L 314.85, 123.774 L 342.85, 123.774 Z"/><path stroke="black" fill="white" fill-opacity="0.0" d="M 380.95, 95.774 L 352.95, 95.774 L 352.95, 123.774 L 380.95, 123.774 Z"/><path stroke="black" fill="white" fill-opacity="0.0" d="M 419.05, 95.774 L 391.05, 95.774 L 391.05, 123.774 L 419.05, 123.774 Z"/><path stroke="black" fill="white" fill-opacity="0.0" d="M 38.05, 133.874 L 10.05, 133.874 L 10.05, 161.874 L 38.05, 161.874 Z"/><path stroke="black" fill="white" fill-opacity="0.0" d="M 76.15, 133.874 L 48.15, 133.874 L 48.15, 161.874 L 76.15, 161.874 Z"/><path stroke="black" fill="white" fill-opacity="0.0" d="M 114.25, 133.874 L 86.25, 133.874 L 86.25, 161.874 L 114.25, 161.874 Z"/><path stroke="black" fill="white" fill-opacity="0.0" d="M 223.788, 133.874 L 195.788, 133.874 L 195.788, 161.874 L 223.788, 161.874 Z"/><path stroke="black" fill="white" fill-opacity="0.0" d="M 276.176, 133.874 L 248.176, 133.874 L 248.176, 161.874 L 276.176, 161.874 Z"/><path stroke="black" fill="white" fill-opacity="0.0" d="M 314.276, 133.874 L 286.276, 133.874 L 286.276, 161.874 L 314.276, 161.874 Z"/><path stroke="black" fill="white" fill-opacity="0.0" d="M 352.376, 133.874 L 324.376, 133.874 L 324.376, 161.874 L 352.376, 161.874 Z"/><path stroke="black" fill="white" fill-opacity="0.0" d="M 390.476, 133.874 L 362.476, 133.874 L 362.476, 161.874 L 390.476, 161.874 Z"/><path stroke="black" fill="white" fill-opacity="0.0" d="M 428.576, 133.874 L 400.576, 133.874 L 400.576, 161.874 L 428.576, 161.874 Z"/><path stroke="black" fill="white" fill-opacity="0.0" d="M 38.05, 171.976 L 10.05, 171.976 L 10.05, 199.976 L 38.05, 199.976 Z"/><path stroke="black" fill="white" fill-opacity="0.0" d="M 76.15, 171.976 L 48.15, 171.976 L 48.15, 199.976 L 76.15, 199.976 Z"/><path stroke="black" fill="white" fill-opacity="0.0" d="M 114.25, 171.976 L 86.25, 171.976 L 86.25, 199.976 L 114.25, 199.976 Z"/><path stroke="black" fill="white" fill-opacity="0.0" d="M 124.80900000000003, 184.22499999999997 L 124.80900000000003, 187.875 L 137.35100000000003, 187.875 L 137.35100000000003, 191.02499999999998 L 124.35100000000003, 191.02499999999998 L 124.35100000000003, 219.02499999999998 L 137.35100000000003, 219.02499999999998 L 137.35100000000003, 222.17499999999998 L 124.80900000000003, 222.17499999999998 L 124.80900000000003, 225.825 L 122.41100000000003, 225.825 L 122.41100000000003, 231.825 L 124.80900000000003, 231.825 L 124.80900000000003, 235.475 L 137.35100000000003, 235.475 L 137.35100000000003, 237.225 L 142.95100000000002, 237.225 L 142.95100000000002, 235.475 L 149.41100000000003, 235.475 L 149.41100000000003, 222.17499999999998 L 142.95100000000002, 222.17499999999998 L 142.95100000000002, 219.02499999999998 L 152.35100000000003, 219.02499999999998 L 152.35100000000003, 191.02499999999998 L 142.95100000000002, 191.02499999999998 L 142.95100000000002, 187.875 L 149.41100000000003, 187.875 L 149.41100000000003, 174.575 L 142.95100000000002, 174.575 L 142.95100000000002, 172.825 L 137.35100000000003, 172.825 L 137.35100000000003, 174.575 L 124.80900000000003, 174.575 L 124.80900000000003, 178.22499999999997 L 122.41100000000003, 178.22499999999997 L 122.41100000000003, 184.22499999999997 Z"/><path stroke="black" fill="white" fill-opacity="0.0" d="M 198.512, 199.516 L 202.162, 199.516 L 202.162, 186.976 L 205.312, 186.976 L 205.312, 199.976 L 233.312, 199.976 L 233.312, 186.976 L 236.462, 186.976 L 236.462, 199.516 L 240.112, 199.516 L 240.112, 201.916 L 246.112, 201.916 L 246.112, 199.516 L 249.762, 199.516 L 249.762, 186.976 L 251.512, 186.976 L 251.512, 181.374 L 249.762, 181.374 L 249.762, 174.916 L 236.462, 174.916 L 236.462, 181.374 L 233.312, 181.374 L 233.312, 171.976 L 205.312, 171.976 L 205.312, 181.374 L 202.162, 181.374 L 202.162, 174.916 L 188.862, 174.916 L 188.862, 181.374 L 187.112, 181.374 L 187.112, 186.976 L 188.862, 186.976 L 188.862, 199.516 L 192.512, 199.516 L 192.512, 201.916 L 198.512, 201.916 Z"/><path stroke="black" fill="white" fill-opacity="0.0" d="M 295.226, 171.976 L 267.226, 171.976 L 267.226, 199.976 L 295.226, 199.976 Z"/><path stroke="black" fill="white" fill-opacity="0.0" d="M 333.326, 171.976 L 305.326, 171.976 L 305.326, 199.976 L 333.326, 199.976 Z"/><path stroke="black" fill="white" fill-opacity="0.0" d="M 371.426, 171.976 L 343.426, 171.976 L 343.426, 199.976 L 371.426, 199.976 Z"/><path stroke="black" fill="white" fill-opacity="0.0" d="M 409.526, 171.976 L 381.526, 171.976 L 381.526, 199.976 L 409.526, 199.976 Z"/><path stroke="black" fill="white" fill-opacity="0.0" d="M 447.626, 171.976 L 419.626, 171.976 L 419.626, 199.976 L 447.626, 199.976 Z"/><path stroke="black" fill="white" fill-opacity="0.0" d="M 22.3, 237.616 L 25.95, 237.616 L 25.95, 225.076 L 29.1, 225.076 L 29.1, 238.076 L 57.1, 238.076 L 57.1, 225.076 L 60.25, 225.076 L 60.25, 237.616 L 63.9, 237.616 L 63.9, 240.016 L 69.9, 240.016 L 69.9, 237.616 L 73.55, 237.616 L 73.55, 225.076 L 75.3, 225.076 L 75.3, 219.474 L 73.55, 219.474 L 73.55, 213.016 L 60.25, 213.016 L 60.25, 219.474 L 57.1, 219.474 L 57.1, 210.076 L 29.1, 210.076 L 29.1, 219.474 L 25.95, 219.474 L 25.95, 213.016 L 12.65, 213.016 L 12.65, 219.474 L 10.9, 219.474 L 10.9, 225.076 L 12.65, 225.076 L 12.65, 237.616 L 16.3, 237.616 L 16.3, 240.016 L 22.3, 240.016 Z"/><path stroke="black" fill="white" fill-opacity="0.0" d="M 114.25, 210.076 L 86.25, 210.076 L 86.25, 238.076 L 114.25, 238.076 Z"/><path stroke="black" fill="white" fill-opacity="0.0" d="M 214.262, 210.076 L 186.262, 210.076 L 186.262, 238.076 L 214.262, 238.076 Z"/><path stroke="black" fill="white" fill-opacity="0.0" d="M 261.888, 210.076 L 233.888, 210.076 L 233.888, 238.076 L 261.888, 238.076 Z"/><path stroke="black" fill="white" fill-opacity="0.0" d="M 309.512, 210.076 L 281.512, 210.076 L 281.512, 238.076 L 309.512, 238.076 Z"/><path stroke="black" fill="white" fill-opacity="0.0" d="M 357.138, 210.076 L 329.138, 210.076 L 329.138, 238.076 L 357.138, 238.076 Z"/><path stroke="black" fill="white" fill-opacity="0.0" d="M 389.012, 237.616 L 392.662, 237.616 L 392.662, 225.076 L 395.812, 225.076 L 395.812, 238.076 L 423.812, 238.076 L 423.812, 225.076 L 426.962, 225.076 L 426.962, 237.616 L 430.612, 237.616 L 430.612, 240.016 L 436.612, 240.016 L 436.612, 237.616 L 440.262, 237.616 L 440.262, 225.076 L 442.012, 225.076 L 442.012, 219.474 L 440.262, 219.474 L 440.262, 213.016 L 426.962, 213.016 L 426.962, 219.474 L 423.812, 219.474 L 423.812, 210.076 L 395.812, 210.076 L 395.812, 219.474 L 392.662, 219.474 L 392.662, 213.016 L 379.362, 213.016 L 379.362, 219.474 L 377.612, 219.474 L 377.612, 225.076 L 379.362, 225.076 L 379.362, 237.616 L 383.012, 237.616 L 383.012, 240.016 L 389.012, 240.016 Z"/></svg>