0
SECTION
2
HEADER
9
$INSUNITS
70
4
9
$INSBASE
10
0.0
20
0.0
30
0.0
9
$EXTMIN
10
0
20
0
9
$EXTMAX
10
233.3375
20
119.03750000000001
0
ENDSEC
0
SECTION
2
TABLES
0
TABLE
2
LTYPE
70
1
0
LTYPE
2
CONTINUOUS
70
64
3
Solid line
72
65
73
0
40
0.0
0
ENDTAB
0
TABLE
2
LAYER
70
1
0
LAYER
2
Layer1
70
64
62
7
6
CONTINUOUS
0
ENDTAB
0
TABLE
2
STYLE
70
0
0
ENDTAB
0
TABLE
2
VIEW
70
0
0
ENDTAB
0
ENDSEC
0
SECTION
2
BLOCKS
0
ENDSEC
0
SECTION
2
ENTITIES
0
POLYLINE
5
10
8
Layer1
66
1
10
0.0
20
0.0
30
0.0
70
1
0
VERTEX
5
11
8
Layer1
10
0.0000
20
0.0000
30
0.0
0
VERTEX
5
12
8
Layer1
10
233.3375
20
0.0000
30
0.0
0
VERTEX
5
13
8
Layer1
10
233.3375
20
119.0375
30
0.0
0
VERTEX
5
14
8
Layer1
10
0.0000
20
119.0375
30
0.0
0
VERTEX
5
15
8
Layer1
10
0.0000
20
0.0000
30
0.0
0
SEQEND
5
16
8
Layer1
0
POLYLINE
5
17
8
Layer1
66
1
10
0.0
20
0.0
30
0.0
70
1
0
VERTEX
5
18
8
Layer1
10
30.8130
20
116.5125
30
0.0
0
VERTEX
5
19
8
Layer1
10
16.8130
20
116.5125
30
0.0
0
VERTEX
5
1a
8
Layer1
10
16.8130
20
102.5125
30
0.0
0
VERTEX
5
1b
8
Layer1
10
30.8130
20
102.5125
30
0.0
0
VERTEX
5
1c
8
Layer1
10
30.8130
20
116.5125
30
0.0
0
SEQEND
5
1d
8
Layer1
0
POLYLINE
5
1e
8
Layer1
66
1
10
0.0
20
0.0
30
0.0
70
1
0
VERTEX
5
1f
8
Layer1
10
49.8630
20
116.5125
30
0.0
0
VERTEX
5
20
8
Layer1
10
35.8630
20
116.5125
30
0.0
0
VERTEX
5
21
8
Layer1
10
35.8630
20
102.5125
30
0.0
0
VERTEX
5
22
8
Layer1
10
49.8630
20
102.5125
30
0.0
0
VERTEX
5
23
8
Layer1
10
49.8630
20
116.5125
30
0.0
0
SEQEND
5
24
8
Layer1
0
POLYLINE
5
25
8
Layer1
66
1
10
0.0
20
0.0
30
0.0
70
1
0
VERTEX
5
26
8
Layer1
10
68.9130
20
116.5125
30
0.0
0
VERTEX
5
27
8
Layer1
10
54.9130
20
116.5125
30
0.0
0
VERTEX
5
28
8
Layer1
10
54.9130
20
102.5125
30
0.0
0
VERTEX
5
29
8
Layer1
10
68.9130
20
102.5125
30
0.0
0
VERTEX
5
2a
8
Layer1
10
68.9130
20
116.5125
30
0.0
0
SEQEND
5
2b
8
Layer1
0
POLYLINE
5
2c
8
Layer1
66
1
10
0.0
20
0.0
30
0.0
70
1
0
VERTEX
5
2d
8
Layer1
10
87.9630
20
116.5125
30
0.0
0
VERTEX
5
2e
8
Layer1
10
73.9630
20
116.5125
30
0.0
0
VERTEX
5
2f
8
Layer1
10
73.9630
20
102.5125
30
0.0
0
VERTEX
5
30
8
Layer1
10
87.9630
20
102.5125
30
0.0
0
VERTEX
5
31
8
Layer1
10
87.9630
20
116.5125
30
0.0
0
SEQEND
5
32
8
Layer1
0
POLYLINE
5
33
8
Layer1
66
1
10
0.0
20
0.0
30
0.0
70
1
0
VERTEX
5
34
8
Layer1
10
107.0130
20
116.5125
30
0.0
0
VERTEX
5
35
8
Layer1
10
93.0130
20
116.5125
30
0.0
0
VERTEX
5
36
8
Layer1
10
93.0130
20
102.5125
30
0.0
0
VERTEX
5
37
8
Layer1
10
107.0130
20
102.5125
30
0.0
0
VERTEX
5
38
8
Layer1
10
107.0130
20
116.5125
30
0.0
0
SEQEND
5
39
8
Layer1
0
POLYLINE
5
3a
8
Layer1
66
1
10
0.0
20
0.0
30
0.0
70
1
0
VERTEX
5
3b
8
Layer1
10
126.0630
20
116.5125
30
0.0
0
VERTEX
5
3c
8
Layer1
10
112.0630
20
116.5125
30
0.0
0
VERTEX
5
3d
8
Layer1
10
112.0630
20
102.5125
30
0.0
0
VERTEX
5
3e
8
Layer1
10
126.0630
20
102.5125
30
0.0
0
VERTEX
5
3f
8
Layer1
10
126.0630
20
116.5125
30
0.0
0
SEQEND
5
40
8
Layer1
0
POLYLINE
5
41
8
Layer1
66
1
10
0.0
20
0.0
30
0.0
70
1
0
VERTEX
5
42
8
Layer1
10
30.8130
20
92.7005
30
0.0
0
VERTEX
5
43
8
Layer1
10
16.8130
20
92.7005
30
0.0
0
VERTEX
5
44
8
Layer1
10
16.8130
20
78.7005
30
0.0
0
VERTEX
5
45
8
Layer1
10
30.8130
20
78.7005
30
0.0
0
VERTEX
5
46
8
Layer1
10
30.8130
20
92.7005
30
0.0
0
SEQEND
5
47
8
Layer1
0
POLYLINE
5
48
8
Layer1
66
1
10
0.0
20
0.0
30
0.0
70
1
0
VERTEX
5
49
8
Layer1
10
49.8630
20
92.7005
30
0.0
0
VERTEX
5
4a
8
Layer1
10
35.8630
20
92.7005
30
0.0
0
VERTEX
5
4b
8
Layer1
10
35.8630
20
78.7005
30
0.0
0
VERTEX
5
4c
8
Layer1
10
49.8630
20
78.7005
30
0.0
0
VERTEX
5
4d
8
Layer1
10
49.8630
20
92.7005
30
0.0
0
SEQEND
5
4e
8
Layer1
0
POLYLINE
5
4f
8
Layer1
66
1
10
0.0
20
0.0
30
0.0
70
1
0
VERTEX
5
50
8
Layer1
10
68.9130
20
92.7005
30
0.0
0
VERTEX
5
51
8
Layer1
10
54.9130
20
92.7005
30
0.0
0
VERTEX
5
52
8
Layer1
10
54.9130
20
78.7005
30
0.0
0
VERTEX
5
53
8
Layer1
10
68.9130
20
78.7005
30
0.0
0
VERTEX
5
54
8
Layer1
10
68.9130
20
92.7005
30
0.0
0
SEQEND
5
55
8
Layer1
0
POLYLINE
5
56
8
Layer1
66
1
10
0.0
20
0.0
30
0.0
70
1
0
VERTEX
5
57
8
Layer1
10
87.9630
20
92.7005
30
0.0
0
VERTEX
5
58
8
Layer1
10
73.9630
20
92.7005
30
0.0
0
VERTEX
5
59
8
Layer1
10
73.9630
20
78.7005
30
0.0
0
VERTEX
5
5a
8
Layer1
10
87.9630
20
78.7005
30
0.0
0
VERTEX
5
5b
8
Layer1
10
87.9630
20
92.7005
30
0.0
0
SEQEND
5
5c
8
Layer1
0
POLYLINE
5
5d
8
Layer1
66
1
10
0.0
20
0.0
30
0.0
70
1
0
VERTEX
5
5e
8
Layer1
10
107.0130
20
92.7005
30
0.0
0
VERTEX
5
5f
8
Layer1
10
93.0130
20
92.7005
30
0.0
0
VERTEX
5
60
8
Layer1
10
93.0130
20
78.7005
30
0.0
0
VERTEX
5
61
8
Layer1
10
107.0130
20
78.7005
30
0.0
0
VERTEX
5
62
8
Layer1
10
107.0130
20
92.7005
30
0.0
0
SEQEND
5
63
8
Layer1
0
POLYLINE
5
64
8
Layer1
66
1
10
0.0
20
0.0
30
0.0
70
1
0
VERTEX
5
65
8
Layer1
10
126.0630
20
92.7005
30
0.0
0
VERTEX
5
66
8
Layer1
10
112.0630
20
92.7005
30
0.0
0
VERTEX
5
67
8
Layer1
10
112.0630
20
78.7005
30
0.0
0
VERTEX
5
68
8
Layer1
10
126.0630
20
78.7005
30
0.0
0
VERTEX
5
69
8
Layer1
10
126.0630
20
92.7005
30
0.0
0
SEQEND
5
6a
8
Layer1
0
POLYLINE
5
6b
8
Layer1
66
1
10
0.0
20
0.0
30
0.0
70
1
0
VERTEX
5
6c
8
Layer1
10
137.2380
20
78.9305
30
0.0
0
VERTEX
5
6d
8
Layer1
10
139.0630
20
78.9305
30
0.0
0
VERTEX
5
6e
8
Layer1
10
139.0630
20
85.2005
30
0.0
0
VERTEX
5
6f
8
Layer1
10
140.6380
20
85.2005
30
0.0
0
VERTEX
5
70
8
Layer1
10
140.6380
20
78.7005
30
0.0
0
VERTEX
5
71
8
Layer1
10
154.6380
20
78.7005
30
0.0
0
VERTEX
5
72
8
Layer1
10
154.6380
20
85.2005
30
0.0
0
VERTEX
5
73
8
Layer1
10
156.2130
20
85.2005
30
0.0
0
VERTEX
5
74
8
Layer1
10
156.2130
20
78.9305
30
0.0
0
VERTEX
5
75
8
Layer1
10
158.0380
20
78.9305
30
0.0
0
VERTEX
5
76
8
Layer1
10
158.0380
20
77.7295
30
0.0
0
VERTEX
5
77
8
Layer1
10
161.0380
20
77.7295
30
0.0
0
VERTEX
5
78
8
Layer1
10
161.0380
20
78.9305
30
0.0
0
VERTEX
5
79
8
Layer1
10
162.8630
20
78.9305
30
0.0
0
VERTEX
5
7a
8
Layer1
10
162.8630
20
85.2005
30
0.0
0
VERTEX
5
7b
8
Layer1
10
163.7380
20
85.2005
30
0.0
0
VERTEX
5
7c
8
Layer1
10
163.7380
20
88.0005
30
0.0
0
VERTEX
5
7d
8
Layer1
10
162.8630
20
88.0005
30
0.0
0
VERTEX
5
7e
8
Layer1
10
162.8630
20
91.2305
30
0.0
0
VERTEX
5
7f
8
Layer1
10
156.2130
20
91.2305
30
0.0
0
VERTEX
5
80
8
Layer1
10
156.2130
20
88.0005
30
0.0
0
VERTEX
5
81
8
Layer1
10
154.6380
20
88.0005
30
0.0
0
VERTEX
5
82
8
Layer1
10
154.6380
20
92.7005
30
0.0
0
VERTEX
5
83
8
Layer1
10
140.6380
20
92.7005
30
0.0
0
VERTEX
5
84
8
Layer1
10
140.6380
20
88.0005
30
0.0
0
VERTEX
5
85
8
Layer1
10
139.0630
20
88.0005
30
0.0
0
VERTEX
5
86
8
Layer1
10
139.0630
20
91.2305
30
0.0
0
VERTEX
5
87
8
Layer1
10
132.4130
20
91.2305
30
0.0
0
VERTEX
5
88
8
Layer1
10
132.4130
20
88.0005
30
0.0
0
VERTEX
5
89
8
Layer1
10
131.5380
20
88.0005
30
0.0
0
VERTEX
5
8a
8
Layer1
10
131.5380
20
85.2005
30
0.0
0
VERTEX
5
8b
8
Layer1
10
132.4130
20
85.2005
30
0.0
0
VERTEX
5
8c
8
Layer1
10
132.4130
20
78.9305
30
0.0
0
VERTEX
5
8d
8
Layer1
10
134.2380
20
78.9305
30
0.0
0
VERTEX
5
8e
8
Layer1
10
134.2380
20
77.7295
30
0.0
0
VERTEX
5
8f
8
Layer1
10
137.2380
20
77.7295
30
0.0
0
VERTEX
5
90
8
Layer1
10
137.2380
20
78.9305
30
0.0
0
SEQEND
5
91
8
Layer1
0
POLYLINE
5
92
8
Layer1
66
1
10
0.0
20
0.0
30
0.0
70
1
0
VERTEX
5
93
8
Layer1
10
192.7380
20
92.7005
30
0.0
0
VERTEX
5
94
8
Layer1
10
178.7380
20
92.7005
30
0.0
0
VERTEX
5
95
8
Layer1
10
178.7380
20
78.7005
30
0.0
0
VERTEX
5
96
8
Layer1
10
192.7380
20
78.7005
30
0.0
0
VERTEX
5
97
8
Layer1
10
192.7380
20
92.7005
30
0.0
0
SEQEND
5
98
8
Layer1
0
POLYLINE
5
99
8
Layer1
66
1
10
0.0
20
0.0
30
0.0
70
1
0
VERTEX
5
9a
8
Layer1
10
211.7880
20
92.7005
30
0.0
0
VERTEX
5
9b
8
Layer1
10
197.7880
20
92.7005
30
0.0
0
VERTEX
5
9c
8
Layer1
10
197.7880
20
78.7005
30
0.0
0
VERTEX
5
9d
8
Layer1
10
211.7880
20
78.7005
30
0.0
0
VERTEX
5
9e
8
Layer1
10
211.7880
20
92.7005
30
0.0
0
SEQEND
5
9f
8
Layer1
0
POLYLINE
5
a0
8
Layer1
66
1
10
0.0
20
0.0
30
0.0
70
1
0
VERTEX
5
a1
8
Layer1
10
230.8380
20
92.7005
30
0.0
0
VERTEX
5
a2
8
Layer1
10
216.8380
20
92.7005
30
0.0
0
VERTEX
5
a3
8
Layer1
10
216.8380
20
78.7005
30
0.0
0
VERTEX
5
a4
8
Layer1
10
230.8380
20
78.7005
30
0.0
0
VERTEX
5
a5
8
Layer1
10
230.8380
20
92.7005
30
0.0
0
SEQEND
5
a6
8
Layer1
0
POLYLINE
5
a7
8
Layer1
66
1
10
0.0
20
0.0
30
0.0
70
1
0
VERTEX
5
a8
8
Layer1
10
21.2880
20
73.6505
30
0.0
0
VERTEX
5
a9
8
Layer1
10
7.2880
20
73.6505
30
0.0
0
VERTEX
5
aa
8
Layer1
10
7.2880
20
59.6505
30
0.0
0
VERTEX
5
ab
8
Layer1
10
21.2880
20
59.6505
30
0.0
0
VERTEX
5
ac
8
Layer1
10
21.2880
20
73.6505
30
0.0
0
SEQEND
5
ad
8
Layer1
0
POLYLINE
5
ae
8
Layer1
66
1
10
0.0
20
0.0
30
0.0
70
1
0
VERTEX
5
af
8
Layer1
10
40.3380
20
73.6505
30
0.0
0
VERTEX
5
b0
8
Layer1
10
26.3380
20
73.6505
30
0.0
0
VERTEX
5
b1
8
Layer1
10
26.3380
20
59.6505
30
0.0
0
VERTEX
5
b2
8
Layer1
10
40.3380
20
59.6505
30
0.0
0
VERTEX
5
b3
8
Layer1
10
40.3380
20
73.6505
30
0.0
0
SEQEND
5
b4
8
Layer1
0
POLYLINE
5
b5
8
Layer1
66
1
10
0.0
20
0.0
30
0.0
70
1
0
VERTEX
5
b6
8
Layer1
10
59.3880
20
73.6505
30
0.0
0
VERTEX
5
b7
8
Layer1
10
45.3880
20
73.6505
30
0.0
0
VERTEX
5
b8
8
Layer1
10
45.3880
20
59.6505
30
0.0
0
VERTEX
5
b9
8
Layer1
10
59.3880
20
59.6505
30
0.0
0
VERTEX
5
ba
8
Layer1
10
59.3880
20
73.6505
30
0.0
0
SEQEND
5
bb
8
Layer1
0
POLYLINE
5
bc
8
Layer1
66
1
10
0.0
20
0.0
30
0.0
70
1
0
VERTEX
5
bd
8
Layer1
10
78.4380
20
73.6505
30
0.0
0
VERTEX
5
be
8
Layer1
10
64.4380
20
73.6505
30
0.0
0
VERTEX
5
bf
8
Layer1
10
64.4380
20
59.6505
30
0.0
0
VERTEX
5
c0
8
Layer1
10
78.4380
20
59.6505
30
0.0
0
VERTEX
5
c1
8
Layer1
10
78.4380
20
73.6505
30
0.0
0
SEQEND
5
c2
8
Layer1
0
POLYLINE
5
c3
8
Layer1
66
1
10
0.0
20
0.0
30
0.0
70
1
0
VERTEX
5
c4
8
Layer1
10
97.4880
20
73.6505
30
0.0
0
VERTEX
5
c5
8
Layer1
10
83.4880
20
73.6505
30
0.0
0
VERTEX
5
c6
8
Layer1
10
83.4880
20
59.6505
30
0.0
0
VERTEX
5
c7
8
Layer1
10
97.4880
20
59.6505
30
0.0
0
VERTEX
5
c8
8
Layer1
10
97.4880
20
73.6505
30
0.0
0
SEQEND
5
c9
8
Layer1
0
POLYLINE
5
ca
8
Layer1
66
1
10
0.0
20
0.0
30
0.0
70
1
0
VERTEX
5
cb
8
Layer1
10
116.5380
20
73.6505
30
0.0
0
VERTEX
5
cc
8
Layer1
10
102.5380
20
73.6505
30
0.0
0
VERTEX
5
cd
8
Layer1
10
102.5380
20
59.6505
30
0.0
0
VERTEX
5
ce
8
Layer1
10
116.5380
20
59.6505
30
0.0
0
VERTEX
5
cf
8
Layer1
10
116.5380
20
73.6505
30
0.0
0
SEQEND
5
d0
8
Layer1
0
POLYLINE
5
d1
8
Layer1
66
1
10
0.0
20
0.0
30
0.0
70
1
0
VERTEX
5
d2
8
Layer1
10
135.5880
20
73.6505
30
0.0
0
VERTEX
5
d3
8
Layer1
10
121.5880
20
73.6505
30
0.0
0
VERTEX
5
d4
8
Layer1
10
121.5880
20
59.6505
30
0.0
0
VERTEX
5
d5
8
Layer1
10
135.5880
20
59.6505
30
0.0
0
VERTEX
5
d6
8
Layer1
10
135.5880
20
73.6505
30
0.0
0
SEQEND
5
d7
8
Layer1
0
POLYLINE
5
d8
8
Layer1
66
1
10
0.0
20
0.0
30
0.0
70
1
0
VERTEX
5
d9
8
Layer1
10
159.4000
20
73.6505
30
0.0
0
VERTEX
5
da
8
Layer1
10
145.4000
20
73.6505
30
0.0
0
VERTEX
5
db
8
Layer1
10
145.4000
20
59.6505
30
0.0
0
VERTEX
5
dc
8
Layer1
10
159.4000
20
59.6505
30
0.0
0
VERTEX
5
dd
8
Layer1
10
159.4000
20
73.6505
30
0.0
0
SEQEND
5
de
8
Layer1
0
POLYLINE
5
df
8
Layer1
66
1
10
0.0
20
0.0
30
0.0
70
1
0
VERTEX
5
e0
8
Layer1
10
192.7380
20
73.6505
30
0.0
0
VERTEX
5
e1
8
Layer1
10
178.7380
20
73.6505
30
0.0
0
VERTEX
5
e2
8
Layer1
10
178.7380
20
59.6505
30
0.0
0
VERTEX
5
e3
8
Layer1
10
192.7380
20
59.6505
30
0.0
0
VERTEX
5
e4
8
Layer1
10
192.7380
20
73.6505
30
0.0
0
SEQEND
5
e5
8
Layer1
0
POLYLINE
5
e6
8
Layer1
66
1
10
0.0
20
0.0
30
0.0
70
1
0
VERTEX
5
e7
8
Layer1
10
211.7880
20
73.6505
30
0.0
0
VERTEX
5
e8
8
Layer1
10
197.7880
20
73.6505
30
0.0
0
VERTEX
5
e9
8
Layer1
10
197.7880
20
59.6505
30
0.0
0
VERTEX
5
ea
8
Layer1
10
211.7880
20
59.6505
30
0.0
0
VERTEX
5
eb
8
Layer1
10
211.7880
20
73.6505
30
0.0
0
SEQEND
5
ec
8
Layer1
0
POLYLINE
5
ed
8
Layer1
66
1
10
0.0
20
0.0
30
0.0
70
1
0
VERTEX
5
ee
8
Layer1
10
230.8380
20
73.6505
30
0.0
0
VERTEX
5
ef
8
Layer1
10
216.8380
20
73.6505
30
0.0
0
VERTEX
5
f0
8
Layer1
10
216.8380
20
59.6505
30
0.0
0
VERTEX
5
f1
8
Layer1
10
230.8380
20
59.6505
30
0.0
0
VERTEX
5
f2
8
Layer1
10
230.8380
20
73.6505
30
0.0
0
SEQEND
5
f3
8
Layer1
0
POLYLINE
5
f4
8
Layer1
66
1
10
0.0
20
0.0
30
0.0
70
1
0
VERTEX
5
f5
8
Layer1
10
26.0500
20
54.6005
30
0.0
0
VERTEX
5
f6
8
Layer1
10
12.0500
20
54.6005
30
0.0
0
VERTEX
5
f7
8
Layer1
10
12.0500
20
40.6005
30
0.0
0
VERTEX
5
f8
8
Layer1
10
26.0500
20
40.6005
30
0.0
0
VERTEX
5
f9
8
Layer1
10
26.0500
20
54.6005
30
0.0
0
SEQEND
5
fa
8
Layer1
0
POLYLINE
5
fb
8
Layer1
66
1
10
0.0
20
0.0
30
0.0
70
1
0
VERTEX
5
fc
8
Layer1
10
45.1000
20
54.6005
30
0.0
0
VERTEX
5
fd
8
Layer1
10
31.1000
20
54.6005
30
0.0
0
VERTEX
5
fe
8
Layer1
10
31.1000
20
40.6005
30
0.0
0
VERTEX
5
ff
8
Layer1
10
45.1000
20
40.6005
30
0.0
0
VERTEX
5
100
8
Layer1
10
45.1000
20
54.6005
30
0.0
0
SEQEND
5
101
8
Layer1
0
POLYLINE
5
102
8
Layer1
66
1
10
0.0
20
0.0
30
0.0
70
1
0
VERTEX
5
103
8
Layer1
10
64.1500
20
54.6005
30
0.0
0
VERTEX
5
104
8
Layer1
10
50.1500
20
54.6005
30
0.0
0
VERTEX
5
105
8
Layer1
10
50.1500
20
40.6005
30
0.0
0
VERTEX
5
106
8
Layer1
10
64.1500
20
40.6005
30
0.0
0
VERTEX
5
107
8
Layer1
10
64.1500
20
54.6005
30
0.0
0
SEQEND
5
108
8
Layer1
0
POLYLINE
5
109
8
Layer1
66
1
10
0.0
20
0.0
30
0.0
70
1
0
VERTEX
5
10a
8
Layer1
10
83.2000
20
54.6005
30
0.0
0
VERTEX
5
10b
8
Layer1
10
69.2000
20
54.6005
30
0.0
0
VERTEX
5
10c
8
Layer1
10
69.2000
20
40.6005
30
0.0
0
VERTEX
5
10d
8
Layer1
10
83.2000
20
40.6005
30
0.0
0
VERTEX
5
10e
8
Layer1
10
83.2000
20
54.6005
30
0.0
0
SEQEND
5
10f
8
Layer1
0
POLYLINE
5
110
8
Layer1
66
1
10
0.0
20
0.0
30
0.0
70
1
0
VERTEX
5
111
8
Layer1
10
102.2500
20
54.6005
30
0.0
0
VERTEX
5
112
8
Layer1
10
88.2500
20
54.6005
30
0.0
0
VERTEX
5
113
8
Layer1
10
88.2500
20
40.6005
30
0.0
0
VERTEX
5
114
8
Layer1
10
102.2500
20
40.6005
30
0.0
0
VERTEX
5
115
8
Layer1
10
102.2500
20
54.6005
30
0.0
0
SEQEND
5
116
8
Layer1
0
POLYLINE
5
117
8
Layer1
66
1
10
0.0
20
0.0
30
0.0
70
1
0
VERTEX
5
118
8
Layer1
10
121.3000
20
54.6005
30
0.0
0
VERTEX
5
119
8
Layer1
10
107.3000
20
54.6005
30
0.0
0
VERTEX
5
11a
8
Layer1
10
107.3000
20
40.6005
30
0.0
0
VERTEX
5
11b
8
Layer1
10
121.3000
20
40.6005
30
0.0
0
VERTEX
5
11c
8
Layer1
10
121.3000
20
54.6005
30
0.0
0
SEQEND
5
11d
8
Layer1
0
POLYLINE
5
11e
8
Layer1
66
1
10
0.0
20
0.0
30
0.0
70
1
0
VERTEX
5
11f
8
Layer1
10
134.8560
20
40.8295
30
0.0
0
VERTEX
5
120
8
Layer1
10
136.6810
20
40.8295
30
0.0
0
VERTEX
5
121
8
Layer1
10
136.6810
20
47.1005
30
0.0
0
VERTEX
5
122
8
Layer1
10
138.2560
20
47.1005
30
0.0
0
VERTEX
5
123
8
Layer1
10
138.2560
20
40.6005
30
0.0
0
VERTEX
5
124
8
Layer1
10
152.2560
20
40.6005
30
0.0
0
VERTEX
5
125
8
Layer1
10
152.2560
20
47.1005
30
0.0
0
VERTEX
5
126
8
Layer1
10
153.8310
20
47.1005
30
0.0
0
VERTEX
5
127
8
Layer1
10
153.8310
20
40.8295
30
0.0
0
VERTEX
5
128
8
Layer1
10
155.6560
20
40.8295
30
0.0
0
VERTEX
5
129
8
Layer1
10
155.6560
20
39.6305
30
0.0
0
VERTEX
5
12a
8
Layer1
10
158.6560
20
39.6305
30
0.0
0
VERTEX
5
12b
8
Layer1
10
158.6560
20
40.8295
30
0.0
0
VERTEX
5
12c
8
Layer1
10
160.4810
20
40.8295
30
0.0
0
VERTEX
5
12d
8
Layer1
10
160.4810
20
47.1005
30
0.0
0
VERTEX
5
12e
8
Layer1
10
161.3560
20
47.1005
30
0.0
0
VERTEX
5
12f
8
Layer1
10
161.3560
20
49.9005
30
0.0
0
VERTEX
5
130
8
Layer1
10
160.4810
20
49.9005
30
0.0
0
VERTEX
5
131
8
Layer1
10
160.4810
20
53.1305
30
0.0
0
VERTEX
5
132
8
Layer1
10
153.8310
20
53.1305
30
0.0
0
VERTEX
5
133
8
Layer1
10
153.8310
20
49.9005
30
0.0
0
VERTEX
5
134
8
Layer1
10
152.2560
20
49.9005
30
0.0
0
VERTEX
5
135
8
Layer1
10
152.2560
20
54.6005
30
0.0
0
VERTEX
5
136
8
Layer1
10
138.2560
20
54.6005
30
0.0
0
VERTEX
5
137
8
Layer1
10
138.2560
20
49.9005
30
0.0
0
VERTEX
5
138
8
Layer1
10
136.6810
20
49.9005
30
0.0
0
VERTEX
5
139
8
Layer1
10
136.6810
20
53.1305
30
0.0
0
VERTEX
5
13a
8
Layer1
10
130.0310
20
53.1305
30
0.0
0
VERTEX
5
13b
8
Layer1
10
130.0310
20
49.9005
30
0.0
0
VERTEX
5
13c
8
Layer1
10
129.1560
20
49.9005
30
0.0
0
VERTEX
5
13d
8
Layer1
10
129.1560
20
47.1005
30
0.0
0
VERTEX
5
13e
8
Layer1
10
130.0310
20
47.1005
30
0.0
0
VERTEX
5
13f
8
Layer1
10
130.0310
20
40.8295
30
0.0
0
VERTEX
5
140
8
Layer1
10
131.8560
20
40.8295
30
0.0
0
VERTEX
5
141
8
Layer1
10
131.8560
20
39.6305
30
0.0
0
VERTEX
5
142
8
Layer1
10
134.8560
20
39.6305
30
0.0
0
VERTEX
5
143
8
Layer1
10
134.8560
20
40.8295
30
0.0
0
SEQEND
5
144
8
Layer1
0
POLYLINE
5
145
8
Layer1
66
1
10
0.0
20
0.0
30
0.0
70
1
0
VERTEX
5
146
8
Layer1
10
16.5250
20
35.5495
30
0.0
0
VERTEX
5
147
8
Layer1
10
2.5250
20
35.5495
30
0.0
0
VERTEX
5
148
8
Layer1
10
2.5250
20
21.5495
30
0.0
0
VERTEX
5
149
8
Layer1
10
16.5250
20
21.5495
30
0.0
0
VERTEX
5
14a
8
Layer1
10
16.5250
20
35.5495
30
0.0
0
SEQEND
5
14b
8
Layer1
0
POLYLINE
5
14c
8
Layer1
66
1
10
0.0
20
0.0
30
0.0
70
1
0
VERTEX
5
14d
8
Layer1
10
35.5750
20
35.5495
30
0.0
0
VERTEX
5
14e
8
Layer1
10
21.5750
20
35.5495
30
0.0
0
VERTEX
5
14f
8
Layer1
10
21.5750
20
21.5495
30
0.0
0
VERTEX
5
150
8
Layer1
10
35.5750
20
21.5495
30
0.0
0
VERTEX
5
151
8
Layer1
10
35.5750
20
35.5495
30
0.0
0
SEQEND
5
152
8
Layer1
0
POLYLINE
5
153
8
Layer1
66
1
10
0.0
20
0.0
30
0.0
70
1
0
VERTEX
5
154
8
Layer1
10
54.6250
20
35.5495
30
0.0
0
VERTEX
5
155
8
Layer1
10
40.6250
20
35.5495
30
0.0
0
VERTEX
5
156
8
Layer1
10
40.6250
20
21.5495
30
0.0
0
VERTEX
5
157
8
Layer1
10
54.6250
20
21.5495
30
0.0
0
VERTEX
5
158
8
Layer1
10
54.6250
20
35.5495
30
0.0
0
SEQEND
5
159
8
Layer1
0
POLYLINE
5
15a
8
Layer1
66
1
10
0.0
20
0.0
30
0.0
70
1
0
VERTEX
5
15b
8
Layer1
10
73.6750
20
35.5495
30
0.0
0
VERTEX
5
15c
8
Layer1
10
59.6750
20
35.5495
30
0.0
0
VERTEX
5
15d
8
Layer1
10
59.6750
20
21.5495
30
0.0
0
VERTEX
5
15e
8
Layer1
10
73.6750
20
21.5495
30
0.0
0
VERTEX
5
15f
8
Layer1
10
73.6750
20
35.5495
30
0.0
0
SEQEND
5
160
8
Layer1
0
POLYLINE
5
161
8
Layer1
66
1
10
0.0
20
0.0
30
0.0
70
1
0
VERTEX
5
162
8
Layer1
10
92.7250
20
35.5495
30
0.0
0
VERTEX
5
163
8
Layer1
10
78.7250
20
35.5495
30
0.0
0
VERTEX
5
164
8
Layer1
10
78.7250
20
21.5495
30
0.0
0
VERTEX
5
165
8
Layer1
10
92.7250
20
21.5495
30
0.0
0
VERTEX
5
166
8
Layer1
10
92.7250
20
35.5495
30
0.0
0
SEQEND
5
167
8
Layer1
0
POLYLINE
5
168
8
Layer1
66
1
10
0.0
20
0.0
30
0.0
70
1
0
VERTEX
5
169
8
Layer1
10
111.7750
20
35.5495
30
0.0
0
VERTEX
5
16a
8
Layer1
10
97.7750
20
35.5495
30
0.0
0
VERTEX
5
16b
8
Layer1
10
97.7750
20
21.5495
30
0.0
0
VERTEX
5
16c
8
Layer1
10
111.7750
20
21.5495
30
0.0
0
VERTEX
5
16d
8
Layer1
10
111.7750
20
35.5495
30
0.0
0
SEQEND
5
16e
8
Layer1
0
POLYLINE
5
16f
8
Layer1
66
1
10
0.0
20
0.0
30
0.0
70
1
0
VERTEX
5
170
8
Layer1
10
130.0940
20
21.7795
30
0.0
0
VERTEX
5
171
8
Layer1
10
131.9190
20
21.7795
30
0.0
0
VERTEX
5
172
8
Layer1
10
131.9190
20
28.0495
30
0.0
0
VERTEX
5
173
8
Layer1
10
133.4940
20
28.0495
30
0.0
0
VERTEX
5
174
8
Layer1
10
133.4940
20
21.5495
30
0.0
0
VERTEX
5
175
8
Layer1
10
147.4940
20
21.5495
30
0.0
0
VERTEX
5
176
8
Layer1
10
147.4940
20
28.0495
30
0.0
0
VERTEX
5
177
8
Layer1
10
149.0690
20
28.0495
30
0.0
0
VERTEX
5
178
8
Layer1
10
149.0690
20
21.7795
30
0.0
0
VERTEX
5
179
8
Layer1
10
150.8940
20
21.7795
30
0.0
0
VERTEX
5
17a
8
Layer1
10
150.8940
20
20.5795
30
0.0
0
VERTEX
5
17b
8
Layer1
10
153.8940
20
20.5795
30
0.0
0
VERTEX
5
17c
8
Layer1
10
153.8940
20
21.7795
30
0.0
0
VERTEX
5
17d
8
Layer1
10
155.7190
20
21.7795
30
0.0
0
VERTEX
5
17e
8
Layer1
10
155.7190
20
28.0495
30
0.0
0
VERTEX
5
17f
8
Layer1
10
156.5940
20
28.0495
30
0.0
0
VERTEX
5
180
8
Layer1
10
156.5940
20
30.8505
30
0.0
0
VERTEX
5
181
8
Layer1
10
155.7190
20
30.8505
30
0.0
0
VERTEX
5
182
8
Layer1
10
155.7190
20
34.0795
30
0.0
0
VERTEX
5
183
8
Layer1
10
149.0690
20
34.0795
30
0.0
0
VERTEX
5
184
8
Layer1
10
149.0690
20
30.8505
30
0.0
0
VERTEX
5
185
8
Layer1
10
147.4940
20
30.8505
30
0.0
0
VERTEX
5
186
8
Layer1
10
147.4940
20
35.5495
30
0.0
0
VERTEX
5
187
8
Layer1
10
133.4940
20
35.5495
30
0.0
0
VERTEX
5
188
8
Layer1
10
133.4940
20
30.8505
30
0.0
0
VERTEX
5
189
8
Layer1
10
131.9190
20
30.8505
30
0.0
0
VERTEX
5
18a
8
Layer1
10
131.9190
20
34.0795
30
0.0
0
VERTEX
5
18b
8
Layer1
10
125.2690
20
34.0795
30
0.0
0
VERTEX
5
18c
8
Layer1
10
125.2690
20
30.8505
30
0.0
0
VERTEX
5
18d
8
Layer1
10
124.3940
20
30.8505
30
0.0
0
VERTEX
5
18e
8
Layer1
10
124.3940
20
28.0495
30
0.0
0
VERTEX
5
18f
8
Layer1
10
125.2690
20
28.0495
30
0.0
0
VERTEX
5
190
8
Layer1
10
125.2690
20
21.7795
30
0.0
0
VERTEX
5
191
8
Layer1
10
127.0940
20
21.7795
30
0.0
0
VERTEX
5
192
8
Layer1
10
127.0940
20
20.5795
30
0.0
0
VERTEX
5
193
8
Layer1
10
130.0940
20
20.5795
30
0.0
0
VERTEX
5
194
8
Layer1
10
130.0940
20
21.7795
30
0.0
0
SEQEND
5
195
8
Layer1
0
POLYLINE
5
196
8
Layer1
66
1
10
0.0
20
0.0
30
0.0
70
1
0
VERTEX
5
197
8
Layer1
10
211.7880
20
35.5495
30
0.0
0
VERTEX
5
198
8
Layer1
10
197.7880
20
35.5495
30
0.0
0
VERTEX
5
199
8
Layer1
10
197.7880
20
21.5495
30
0.0
0
VERTEX
5
19a
8
Layer1
10
211.7880
20
21.5495
30
0.0
0
VERTEX
5
19b
8
Layer1
10
211.7880
20
35.5495
30
0.0
0
SEQEND
5
19c
8
Layer1
0
POLYLINE
5
19d
8
Layer1
66
1
10
0.0
20
0.0
30
0.0
70
1
0
VERTEX
5
19e
8
Layer1
10
8.6500
20
2.7295
30
0.0
0
VERTEX
5
19f
8
Layer1
10
10.4750
20
2.7295
30
0.0
0
VERTEX
5
1a0
8
Layer1
10
10.4750
20
8.9995
30
0.0
0
VERTEX
5
1a1
8
Layer1
10
12.0500
20
8.9995
30
0.0
0
VERTEX
5
1a2
8
Layer1
10
12.0500
20
2.4995
30
0.0
0
VERTEX
5
1a3
8
Layer1
10
26.0500
20
2.4995
30
0.0
0
VERTEX
5
1a4
8
Layer1
10
26.0500
20
8.9995
30
0.0
0
VERTEX
5
1a5
8
Layer1
10
27.6250
20
8.9995
30
0.0
0
VERTEX
5
1a6
8
Layer1
10
27.6250
20
2.7295
30
0.0
0
VERTEX
5
1a7
8
Layer1
10
29.4500
20
2.7295
30
0.0
0
VERTEX
5
1a8
8
Layer1
10
29.4500
20
1.5295
30
0.0
0
VERTEX
5
1a9
8
Layer1
10
32.4500
20
1.5295
30
0.0
0
VERTEX
5
1aa
8
Layer1
10
32.4500
20
2.7295
30
0.0
0
VERTEX
5
1ab
8
Layer1
10
34.2750
20
2.7295
30
0.0
0
VERTEX
5
1ac
8
Layer1
10
34.2750
20
8.9995
30
0.0
0
VERTEX
5
1ad
8
Layer1
10
35.1500
20
8.9995
30
0.0
0
VERTEX
5
1ae
8
Layer1
10
35.1500
20
11.8005
30
0.0
0
VERTEX
5
1af
8
Layer1
10
34.2750
20
11.8005
30
0.0
0
VERTEX
5
1b0
8
Layer1
10
34.2750
20
15.0295
30
0.0
0
VERTEX
5
1b1
8
Layer1
10
27.6250
20
15.0295
30
0.0
0
VERTEX
5
1b2
8
Layer1
10
27.6250
20
11.8005
30
0.0
0
VERTEX
5
1b3
8
Layer1
10
26.0500
20
11.8005
30
0.0
0
VERTEX
5
1b4
8
Layer1
10
26.0500
20
16.4995
30
0.0
0
VERTEX
5
1b5
8
Layer1
10
12.0500
20
16.4995
30
0.0
0
VERTEX
5
1b6
8
Layer1
10
12.0500
20
11.8005
30
0.0
0
VERTEX
5
1b7
8
Layer1
10
10.4750
20
11.8005
30
0.0
0
VERTEX
5
1b8
8
Layer1
10
10.4750
20
15.0295
30
0.0
0
VERTEX
5
1b9
8
Layer1
10
3.8250
20
15.0295
30
0.0
0
VERTEX
5
1ba
8
Layer1
10
3.8250
20
11.8005
30
0.0
0
VERTEX
5
1bb
8
Layer1
10
2.9500
20
11.8005
30
0.0
0
VERTEX
5
1bc
8
Layer1
10
2.9500
20
8.9995
30
0.0
0
VERTEX
5
1bd
8
Layer1
10
3.8250
20
8.9995
30
0.0
0
VERTEX
5
1be
8
Layer1
10
3.8250
20
2.7295
30
0.0
0
VERTEX
5
1bf
8
Layer1
10
5.6500
20
2.7295
30
0.0
0
VERTEX
5
1c0
8
Layer1
10
5.6500
20
1.5295
30
0.0
0
VERTEX
5
1c1
8
Layer1
10
8.6500
20
1.5295
30
0.0
0
VERTEX
5
1c2
8
Layer1
10
8.6500
20
2.7295
30
0.0
0
SEQEND
5
1c3
8
Layer1
0
POLYLINE
5
1c4
8
Layer1
66
1
10
0.0
20
0.0
30
0.0
70
1
0
VERTEX
5
1c5
8
Layer1
10
54.6250
20
16.4995
30
0.0
0
VERTEX
5
1c6
8
Layer1
10
40.6250
20
16.4995
30
0.0
0
VERTEX
5
1c7
8
Layer1
10
40.6250
20
2.4995
30
0.0
0
VERTEX
5
1c8
8
Layer1
10
54.6250
20
2.4995
30
0.0
0
VERTEX
5
1c9
8
Layer1
10
54.6250
20
16.4995
30
0.0
0
SEQEND
5
1ca
8
Layer1
0
POLYLINE
5
1cb
8
Layer1
66
1
10
0.0
20
0.0
30
0.0
70
1
0
VERTEX
5
1cc
8
Layer1
10
114.1560
20
16.4995
30
0.0
0
VERTEX
5
1cd
8
Layer1
10
100.1560
20
16.4995
30
0.0
0
VERTEX
5
1ce
8
Layer1
10
100.1560
20
2.4995
30
0.0
0
VERTEX
5
1cf
8
Layer1
10
114.1560
20
2.4995
30
0.0
0
VERTEX
5
1d0
8
Layer1
10
114.1560
20
16.4995
30
0.0
0
SEQEND
5
1d1
8
Layer1
0
POLYLINE
5
1d2
8
Layer1
66
1
10
0.0
20
0.0
30
0.0
70
1
0
VERTEX
5
1d3
8
Layer1
10
137.9690
20
16.4995
30
0.0
0
VERTEX
5
1d4
8
Layer1
10
123.9690
20
16.4995
30
0.0
0
VERTEX
5
1d5
8
Layer1
10
123.9690
20
2.4995
30
0.0
0
VERTEX
5
1d6
8
Layer1
10
137.9690
20
2.4995
30
0.0
0
VERTEX
5
1d7
8
Layer1
10
137.9690
20
16.4995
30
0.0
0
SEQEND
5
1d8
8
Layer1
0
POLYLINE
5
1d9
8
Layer1
66
1
10
0.0
20
0.0
30
0.0
70
1
0
VERTEX
5
1da
8
Layer1
10
161.7810
20
16.4995
30
0.0
0
VERTEX
5
1db
8
Layer1
10
147.7810
20
16.4995
30
0.0
0
VERTEX
5
1dc
8
Layer1
10
147.7810
20
2.4995
30
0.0
0
VERTEX
5
1dd
8
Layer1
10
161.7810
20
2.4995
30
0.0
0
VERTEX
5
1de
8
Layer1
10
161.7810
20
16.4995
30
0.0
0
SEQEND
5
1df
8
Layer1
0
POLYLINE
5
1e0
8
Layer1
66
1
10
0.0
20
0.0
30
0.0
70
1
0
VERTEX
5
1e1
8
Layer1
10
192.7380
20
16.4995
30
0.0
0
VERTEX
5
1e2
8
Layer1
10
178.7380
20
16.4995
30
0.0
0
VERTEX
5
1e3
8
Layer1
10
178.7380
20
2.4995
30
0.0
0
VERTEX
5
1e4
8
Layer1
10
192.7380
20
2.4995
30
0.0
0
VERTEX
5
1e5
8
Layer1
10
192.7380
20
16.4995
30
0.0
0
SEQEND
5
1e6
8
Layer1
0
POLYLINE
5
1e7
8
Layer1
66
1
10
0.0
20
0.0
30
0.0
70
1
0
VERTEX
5
1e8
8
Layer1
10
211.7880
20
16.4995
30
0.0
0
VERTEX
5
1e9
8
Layer1
10
197.7880
20
16.4995
30
0.0
0
VERTEX
5
1ea
8
Layer1
10
197.7880
20
2.4995
30
0.0
0
VERTEX
5
1eb
8
Layer1
10
211.7880
20
2.4995
30
0.0
0
VERTEX
5
1ec
8
Layer1
10
211.7880
20
16.4995
30
0.0
0
SEQEND
5
1ed
8
Layer1
0
POLYLINE
5
1ee
8
Layer1
66
1
10
0.0
20
0.0
30
0.0
70
1
0
VERTEX
5
1ef
8
Layer1
10
230.8380
20
16.4995
30
0.0
0
VERTEX
5
1f0
8
Layer1
10
216.8380
20
16.4995
30
0.0
0
VERTEX
5
1f1
8
Layer1
10
216.8380
20
2.4995
30
0.0
0
VERTEX
5
1f2
8
Layer1
10
230.8380
20
2.4995
30
0.0
0
VERTEX
5
1f3
8
Layer1
10
230.8380
20
16.4995
30
0.0
0
SEQEND
5
1f4
8
Layer1
0
ENDSEC
0
EOF
