%TF.GenerationSoftware,KiCad,Pcbnew,7.0.5*%
%TF.CreationDate,2023-06-22T07:55:22+00:00*%
%TF.ProjectId,Entry-left,456e7472-792d-46c6-9566-742e6b696361,rev?*%
%TF.SameCoordinates,Original*%
%TF.FileFunction,Copper,L1,Top*%
%TF.FilePolarity,Positive*%
%FSLAX46Y46*%
G04 Gerber Fmt 4.6, Leading zero omitted, Abs format (unit mm)*
G04 Created by KiCad (PCBNEW 7.0.5) date 2023-06-22 07:55:22*
%MOMM*%
%LPD*%
G01*
G04 APERTURE LIST*
%TA.AperFunction,ComponentPad*%
%ADD10C,2.000000*%
%TD*%
%TA.AperFunction,ComponentPad*%
%ADD11O,2.000000X1.600000*%
%TD*%
%TA.AperFunction,ComponentPad*%
%ADD12R,1.600000X1.600000*%
%TD*%
%TA.AperFunction,ComponentPad*%
%ADD13C,1.600000*%
%TD*%
%TA.AperFunction,ComponentPad*%
%ADD14O,1.600000X1.600000*%
%TD*%
%TA.AperFunction,ViaPad*%
%ADD15C,0.600000*%
%TD*%
%TA.AperFunction,Conductor*%
%ADD16C,0.200000*%
%TD*%
G04 APERTURE END LIST*
D10*
%TO.P,RESET1,1,1*%
%TO.N,RESET*%
X80769250Y-42829500D03*
X87269250Y-42829500D03*
%TO.P,RESET1,2,2*%
%TO.N,GND*%
X80769250Y-47329500D03*
X87269250Y-47329500D03*
%TD*%
D11*
%TO.P,U2,1,SLEEVE*%
%TO.N,GND*%
X241906750Y-48210750D03*
%TO.P,U2,2,TIP*%
%TO.N,VCC*%
X243006750Y-52810750D03*
%TO.P,U2,3,RING1*%
%TO.N,SCL*%
X247006750Y-52810750D03*
%TO.P,U2,4,RING2*%
%TO.N,unconnected-(U2-RING2-Pad4)*%
X250006750Y-52810750D03*
%TD*%
D12*
%TO.P,U1,1,TX*%
%TO.N,col1*%
X29780000Y-48320000D03*
D13*
%TO.P,U1,2,RX*%
%TO.N,col2*%
X32320000Y-48320000D03*
%TO.P,U1,3,GND*%
%TO.N,unconnected-(U1-GND-Pad3)*%
X34860000Y-48320000D03*
%TO.P,U1,4,GND*%
%TO.N,unconnected-(U1-GND-Pad4)*%
X37400000Y-48320000D03*
%TO.P,U1,5,SDA*%
%TO.N,col3*%
X39940000Y-48320000D03*
%TO.P,U1,6,SCL*%
%TO.N,SCL*%
X42480000Y-48320000D03*
%TO.P,U1,7,D4*%
%TO.N,col4*%
X45020000Y-48320000D03*
%TO.P,U1,8,C6*%
%TO.N,row2*%
X47560000Y-48320000D03*
%TO.P,U1,9,D7*%
%TO.N,row3*%
X50100000Y-48320000D03*
%TO.P,U1,10,E6*%
%TO.N,row4*%
X52640000Y-48320000D03*
%TO.P,U1,11,B4*%
%TO.N,row5*%
X55180000Y-48320000D03*
%TO.P,U1,12,B5*%
%TO.N,row6*%
X57720000Y-48320000D03*
%TO.P,U1,13,B6*%
%TO.N,row1*%
X57720000Y-33080000D03*
%TO.P,U1,14,B2*%
%TO.N,col5*%
X55180000Y-33080000D03*
%TO.P,U1,15,B3*%
%TO.N,col6*%
X52640000Y-33080000D03*
%TO.P,U1,16,B1*%
%TO.N,col7*%
X50100000Y-33080000D03*
%TO.P,U1,17,F7*%
%TO.N,col8*%
X47560000Y-33080000D03*
%TO.P,U1,18,F6*%
%TO.N,col9*%
X45020000Y-33080000D03*
%TO.P,U1,19,F5*%
%TO.N,col10*%
X42480000Y-33080000D03*
%TO.P,U1,20,F4*%
%TO.N,col11*%
X39940000Y-33080000D03*
%TO.P,U1,21,VCC*%
%TO.N,VCC*%
X37400000Y-33080000D03*
%TO.P,U1,22,RST*%
%TO.N,RESET*%
X34860000Y-33080000D03*
%TO.P,U1,23,GND*%
%TO.N,GND*%
X32320000Y-33080000D03*
%TO.P,U1,24,RAW*%
%TO.N,unconnected-(U1-RAW-Pad24)*%
X29780000Y-33080000D03*
%TD*%
D12*
%TO.P,D33,1,K*%
%TO.N,row3*%
X158628500Y-89187000D03*
D14*
%TO.P,D33,2,A*%
%TO.N,Net-(D33-A)*%
X158628500Y-81567000D03*
%TD*%
D12*
%TO.P,D38,1,K*%
%TO.N,row4*%
X137997500Y-108073500D03*
D14*
%TO.P,D38,2,A*%
%TO.N,Net-(D38-A)*%
X137997500Y-100453500D03*
%TD*%
D12*
%TO.P,D22,1,K*%
%TO.N,row1*%
X206238500Y-45702000D03*
D14*
%TO.P,D22,2,A*%
%TO.N,Net-(D22-A)*%
X206238500Y-38082000D03*
%TD*%
D12*
%TO.P,D30,1,K*%
%TO.N,row2*%
X225282500Y-69985500D03*
D14*
%TO.P,D30,2,A*%
%TO.N,Net-(D30-A)*%
X225282500Y-62365500D03*
%TD*%
D12*
%TO.P,D12,1,K*%
%TO.N,row5*%
X63408500Y-127117500D03*
D14*
%TO.P,D12,2,A*%
%TO.N,Net-(D12-A)*%
X63408500Y-119497500D03*
%TD*%
D12*
%TO.P,D48,1,K*%
%TO.N,row5*%
X230043500Y-127117500D03*
D14*
%TO.P,D48,2,A*%
%TO.N,Net-(D48-A)*%
X230043500Y-119497500D03*
%TD*%
D12*
%TO.P,D54,1,K*%
%TO.N,row6*%
X249087500Y-142250000D03*
D14*
%TO.P,D54,2,A*%
%TO.N,Net-(D54-A)*%
X249087500Y-134630000D03*
%TD*%
D12*
%TO.P,D52,1,K*%
%TO.N,row6*%
X180846500Y-146319000D03*
D14*
%TO.P,D52,2,A*%
%TO.N,Net-(D52-A)*%
X180846500Y-138699000D03*
%TD*%
D12*
%TO.P,D53,1,K*%
%TO.N,row6*%
X204651500Y-146319000D03*
D14*
%TO.P,D53,2,A*%
%TO.N,Net-(D53-A)*%
X204651500Y-138699000D03*
%TD*%
D12*
%TO.P,D23,1,K*%
%TO.N,row1*%
X225282500Y-45702000D03*
D14*
%TO.P,D23,2,A*%
%TO.N,Net-(D23-A)*%
X225282500Y-38082000D03*
%TD*%
D12*
%TO.P,D25,1,K*%
%TO.N,row2*%
X130062500Y-69985500D03*
D14*
%TO.P,D25,2,A*%
%TO.N,Net-(D25-A)*%
X130062500Y-62365500D03*
%TD*%
D12*
%TO.P,D50,1,K*%
%TO.N,row6*%
X133236500Y-146319000D03*
D14*
%TO.P,D50,2,A*%
%TO.N,Net-(D50-A)*%
X133236500Y-138699000D03*
%TD*%
D12*
%TO.P,D31,1,K*%
%TO.N,row2*%
X244326500Y-69985500D03*
D14*
%TO.P,D31,2,A*%
%TO.N,Net-(D31-A)*%
X244326500Y-62365500D03*
%TD*%
D12*
%TO.P,D26,1,K*%
%TO.N,row2*%
X149106500Y-69985500D03*
D14*
%TO.P,D26,2,A*%
%TO.N,Net-(D26-A)*%
X149106500Y-62365500D03*
%TD*%
D12*
%TO.P,D2,1,K*%
%TO.N,row2*%
X63408500Y-69985500D03*
D14*
%TO.P,D2,2,A*%
%TO.N,Net-(D2-A)*%
X63408500Y-62365500D03*
%TD*%
D12*
%TO.P,D46,1,K*%
%TO.N,row5*%
X191955500Y-127117500D03*
D14*
%TO.P,D46,2,A*%
%TO.N,Net-(D46-A)*%
X191955500Y-119497500D03*
%TD*%
D12*
%TO.P,D40,1,K*%
%TO.N,row4*%
X182433500Y-108073500D03*
D14*
%TO.P,D40,2,A*%
%TO.N,Net-(D40-A)*%
X182433500Y-100453500D03*
%TD*%
D12*
%TO.P,D13,1,K*%
%TO.N,row5*%
X82452500Y-127117500D03*
D14*
%TO.P,D13,2,A*%
%TO.N,Net-(D13-A)*%
X82452500Y-119497500D03*
%TD*%
D12*
%TO.P,D35,1,K*%
%TO.N,row3*%
X196716500Y-89187000D03*
D14*
%TO.P,D35,2,A*%
%TO.N,Net-(D35-A)*%
X196716500Y-81567000D03*
%TD*%
D12*
%TO.P,D36,1,K*%
%TO.N,row3*%
X215760500Y-89187000D03*
D14*
%TO.P,D36,2,A*%
%TO.N,Net-(D36-A)*%
X215760500Y-81567000D03*
%TD*%
D12*
%TO.P,D4,1,K*%
%TO.N,row2*%
X101496500Y-69985500D03*
D14*
%TO.P,D4,2,A*%
%TO.N,Net-(D4-A)*%
X101496500Y-62365500D03*
%TD*%
D12*
%TO.P,D45,1,K*%
%TO.N,row5*%
X172911500Y-127117500D03*
D14*
%TO.P,D45,2,A*%
%TO.N,Net-(D45-A)*%
X172911500Y-119497500D03*
%TD*%
D12*
%TO.P,D18,1,K*%
%TO.N,row1*%
X130062500Y-45702000D03*
D14*
%TO.P,D18,2,A*%
%TO.N,Net-(D18-A)*%
X130062500Y-38082000D03*
%TD*%
D12*
%TO.P,D51,1,K*%
%TO.N,row6*%
X157041500Y-146319000D03*
D14*
%TO.P,D51,2,A*%
%TO.N,Net-(D51-A)*%
X157041500Y-138699000D03*
%TD*%
D12*
%TO.P,D28,1,K*%
%TO.N,row2*%
X187194500Y-69985500D03*
D14*
%TO.P,D28,2,A*%
%TO.N,Net-(D28-A)*%
X187194500Y-62365500D03*
%TD*%
D12*
%TO.P,D42,1,K*%
%TO.N,row4*%
X220521500Y-108073500D03*
D14*
%TO.P,D42,2,A*%
%TO.N,Net-(D42-A)*%
X220521500Y-100453500D03*
%TD*%
D12*
%TO.P,D3,1,K*%
%TO.N,row2*%
X82452500Y-69985500D03*
D14*
%TO.P,D3,2,A*%
%TO.N,Net-(D3-A)*%
X82452500Y-62365500D03*
%TD*%
D12*
%TO.P,D24,1,K*%
%TO.N,row1*%
X234670000Y-43670000D03*
D14*
%TO.P,D24,2,A*%
%TO.N,Net-(D24-A)*%
X242290000Y-43670000D03*
%TD*%
D12*
%TO.P,D44,1,K*%
%TO.N,row5*%
X153867500Y-127117500D03*
D14*
%TO.P,D44,2,A*%
%TO.N,Net-(D44-A)*%
X153867500Y-119497500D03*
%TD*%
D12*
%TO.P,D8,1,K*%
%TO.N,row4*%
X44364500Y-95768750D03*
D14*
%TO.P,D8,2,A*%
%TO.N,Net-(D8-A)*%
X44364500Y-88148750D03*
%TD*%
D12*
%TO.P,D47,1,K*%
%TO.N,row5*%
X210999500Y-127117500D03*
D14*
%TO.P,D47,2,A*%
%TO.N,Net-(D47-A)*%
X210999500Y-119497500D03*
%TD*%
D12*
%TO.P,D37,1,K*%
%TO.N,row3*%
X234804500Y-89187000D03*
D14*
%TO.P,D37,2,A*%
%TO.N,Net-(D37-A)*%
X234804500Y-81567000D03*
%TD*%
D12*
%TO.P,D14,1,K*%
%TO.N,row5*%
X101496500Y-127117500D03*
D14*
%TO.P,D14,2,A*%
%TO.N,Net-(D14-A)*%
X101496500Y-119497500D03*
%TD*%
D12*
%TO.P,D20,1,K*%
%TO.N,row1*%
X168150500Y-45702000D03*
D14*
%TO.P,D20,2,A*%
%TO.N,Net-(D20-A)*%
X168150500Y-38082000D03*
%TD*%
D12*
%TO.P,D19,1,K*%
%TO.N,row1*%
X149106500Y-45702000D03*
D14*
%TO.P,D19,2,A*%
%TO.N,Net-(D19-A)*%
X149106500Y-38082000D03*
%TD*%
D12*
%TO.P,D21,1,K*%
%TO.N,row1*%
X187194500Y-45702000D03*
D14*
%TO.P,D21,2,A*%
%TO.N,Net-(D21-A)*%
X187194500Y-38082000D03*
%TD*%
D12*
%TO.P,D7,1,K*%
%TO.N,row3*%
X101496500Y-89187000D03*
D14*
%TO.P,D7,2,A*%
%TO.N,Net-(D7-A)*%
X101496500Y-81567000D03*
%TD*%
D12*
%TO.P,D39,1,K*%
%TO.N,row4*%
X163389500Y-108073500D03*
D14*
%TO.P,D39,2,A*%
%TO.N,Net-(D39-A)*%
X163389500Y-100453500D03*
%TD*%
D12*
%TO.P,D49,1,K*%
%TO.N,row5*%
X249087500Y-127117500D03*
D14*
%TO.P,D49,2,A*%
%TO.N,Net-(D49-A)*%
X249087500Y-119497500D03*
%TD*%
D12*
%TO.P,D10,1,K*%
%TO.N,row4*%
X82452500Y-108073500D03*
D14*
%TO.P,D10,2,A*%
%TO.N,Net-(D10-A)*%
X82452500Y-100453500D03*
%TD*%
D12*
%TO.P,D29,1,K*%
%TO.N,row2*%
X206238500Y-69985500D03*
D14*
%TO.P,D29,2,A*%
%TO.N,Net-(D29-A)*%
X206238500Y-62365500D03*
%TD*%
D12*
%TO.P,D32,1,K*%
%TO.N,row3*%
X135617000Y-89187000D03*
D14*
%TO.P,D32,2,A*%
%TO.N,Net-(D32-A)*%
X135617000Y-81567000D03*
%TD*%
D12*
%TO.P,D41,1,K*%
%TO.N,row4*%
X201477500Y-108073500D03*
D14*
%TO.P,D41,2,A*%
%TO.N,Net-(D41-A)*%
X201477500Y-100453500D03*
%TD*%
D12*
%TO.P,D17,1,K*%
%TO.N,row6*%
X101496500Y-141319000D03*
D14*
%TO.P,D17,2,A*%
%TO.N,Net-(D17-A)*%
X101496500Y-133699000D03*
%TD*%
D12*
%TO.P,D34,1,K*%
%TO.N,row3*%
X177672500Y-89187000D03*
D14*
%TO.P,D34,2,A*%
%TO.N,Net-(D34-A)*%
X177672500Y-81567000D03*
%TD*%
D12*
%TO.P,D5,1,K*%
%TO.N,row3*%
X63408500Y-89187000D03*
D14*
%TO.P,D5,2,A*%
%TO.N,Net-(D5-A)*%
X63408500Y-81567000D03*
%TD*%
D12*
%TO.P,D16,1,K*%
%TO.N,row6*%
X63408500Y-146319000D03*
D14*
%TO.P,D16,2,A*%
%TO.N,Net-(D16-A)*%
X63408500Y-138699000D03*
%TD*%
D12*
%TO.P,D15,1,K*%
%TO.N,row6*%
X39059250Y-146319000D03*
D14*
%TO.P,D15,2,A*%
%TO.N,Net-(D15-A)*%
X39059250Y-138699000D03*
%TD*%
D12*
%TO.P,D9,1,K*%
%TO.N,row4*%
X63408500Y-108073500D03*
D14*
%TO.P,D9,2,A*%
%TO.N,Net-(D9-A)*%
X63408500Y-100453500D03*
%TD*%
D12*
%TO.P,D27,1,K*%
%TO.N,row2*%
X168150500Y-69985500D03*
D14*
%TO.P,D27,2,A*%
%TO.N,Net-(D27-A)*%
X168150500Y-62365500D03*
%TD*%
D12*
%TO.P,D6,1,K*%
%TO.N,row3*%
X82452500Y-89187000D03*
D14*
%TO.P,D6,2,A*%
%TO.N,Net-(D6-A)*%
X82452500Y-81567000D03*
%TD*%
D12*
%TO.P,D43,1,K*%
%TO.N,row4*%
X239565500Y-108073500D03*
D14*
%TO.P,D43,2,A*%
%TO.N,Net-(D43-A)*%
X239565500Y-100453500D03*
%TD*%
D12*
%TO.P,D1,1,K*%
%TO.N,row2*%
X44364500Y-69985500D03*
D14*
%TO.P,D1,2,A*%
%TO.N,Net-(D1-A)*%
X44364500Y-62365500D03*
%TD*%
D12*
%TO.P,D11,1,K*%
%TO.N,row4*%
X101496500Y-108073500D03*
D14*
%TO.P,D11,2,A*%
%TO.N,Net-(D11-A)*%
X101496500Y-100453500D03*
%TD*%
D15*
%TO.N,row2*%
X109809250Y-67108750D03*
%TO.N,row3*%
X110109250Y-86048750D03*
%TO.N,row4*%
X110909250Y-104658750D03*
%TO.N,row5*%
X111479250Y-123488750D03*
%TO.N,row6*%
X111879250Y-142738750D03*
%TO.N,col5*%
X115034250Y-47500000D03*
%TO.N,col10*%
X210284250Y-47500000D03*
%TO.N,col11*%
X229334250Y-47500000D03*
%TO.N,col6*%
X134084250Y-47500000D03*
%TO.N,col7*%
X153134250Y-47500000D03*
%TO.N,col8*%
X172184250Y-47500000D03*
%TO.N,col9*%
X191234250Y-47500000D03*
%TO.N,GND*%
X64500000Y-46500000D03*
%TD*%
D16*
%TO.N,row2*%
X44364500Y-69985500D02*
X44364500Y-70300500D01*
X44364500Y-69985500D02*
X111449250Y-69985500D01*
X109809250Y-67108750D02*
X109809250Y-68345500D01*
X109809250Y-68345500D02*
X111449250Y-69985500D01*
X44364500Y-70300500D02*
X44679500Y-69985500D01*
X111449250Y-69985500D02*
X244326500Y-69985500D01*
%TO.N,row3*%
X110109250Y-86967000D02*
X112329250Y-89187000D01*
X110109250Y-86048750D02*
X110109250Y-86967000D01*
X234804500Y-89187000D02*
X112329250Y-89187000D01*
X112329250Y-89187000D02*
X63408500Y-89187000D01*
%TO.N,row4*%
X39839250Y-105028750D02*
X42884000Y-108073500D01*
X110909250Y-104658750D02*
X110909250Y-105933500D01*
X43549250Y-95768750D02*
X39839250Y-99478750D01*
X239565500Y-108073500D02*
X113049250Y-108073500D01*
X42884000Y-108073500D02*
X63408500Y-108073500D01*
X113049250Y-108073500D02*
X63408500Y-108073500D01*
X44364500Y-95768750D02*
X43549250Y-95768750D01*
X39839250Y-99478750D02*
X39839250Y-105028750D01*
X110909250Y-105933500D02*
X113049250Y-108073500D01*
%TO.N,row5*%
X111479250Y-123488750D02*
X111479250Y-125867500D01*
X118653000Y-123465000D02*
X115000500Y-127117500D01*
X101496500Y-127117500D02*
X63408500Y-127117500D01*
X115000500Y-127117500D02*
X112729250Y-127117500D01*
X149900000Y-123465000D02*
X118653000Y-123465000D01*
X153552500Y-127117500D02*
X149900000Y-123465000D01*
X153867500Y-127117500D02*
X153552500Y-127117500D01*
X112729250Y-127117500D02*
X101496500Y-127117500D01*
X249087500Y-127117500D02*
X153867500Y-127117500D01*
X111479250Y-125867500D02*
X112729250Y-127117500D01*
%TO.N,row6*%
X106506250Y-146328750D02*
X101496500Y-141319000D01*
X111879250Y-142738750D02*
X111879250Y-144459000D01*
X206396000Y-146319000D02*
X204651500Y-146319000D01*
X210465000Y-142250000D02*
X206396000Y-146319000D01*
X70389000Y-141319000D02*
X65389000Y-146319000D01*
X106506250Y-146328750D02*
X106516000Y-146319000D01*
X101496500Y-141319000D02*
X70389000Y-141319000D01*
X65389000Y-146319000D02*
X63408500Y-146319000D01*
X106516000Y-146319000D02*
X113739250Y-146319000D01*
X249250000Y-142250000D02*
X210465000Y-142250000D01*
X39059250Y-146319000D02*
X63408500Y-146319000D01*
X111879250Y-144459000D02*
X113739250Y-146319000D01*
X113739250Y-146319000D02*
X204651500Y-146319000D01*
%TO.N,row1*%
X108847486Y-45702000D02*
X98645486Y-35500000D01*
X58920000Y-33080000D02*
X57720000Y-33080000D01*
X130062500Y-45702000D02*
X108847486Y-45702000D01*
X130062500Y-45702000D02*
X232638000Y-45702000D01*
X61340000Y-35500000D02*
X58920000Y-33080000D01*
X232638000Y-45702000D02*
X234670000Y-43670000D01*
X98645486Y-35500000D02*
X61340000Y-35500000D01*
%TO.N,col5*%
X57300000Y-35900000D02*
X55180000Y-33780000D01*
X55180000Y-33780000D02*
X55180000Y-33080000D01*
X113300000Y-49200000D02*
X111779802Y-49200000D01*
X115000000Y-47500000D02*
X113300000Y-49200000D01*
X115034250Y-47500000D02*
X115000000Y-47500000D01*
X111779802Y-49200000D02*
X98479802Y-35900000D01*
X98479802Y-35900000D02*
X57300000Y-35900000D01*
%TO.N,col10*%
X42480000Y-35380000D02*
X42480000Y-33080000D01*
X206584250Y-51200000D02*
X110951372Y-51200000D01*
X97651372Y-37900000D02*
X45000000Y-37900000D01*
X45000000Y-37900000D02*
X42480000Y-35380000D01*
X210284250Y-47500000D02*
X206584250Y-51200000D01*
X110951372Y-51200000D02*
X97651372Y-37900000D01*
%TO.N,col11*%
X42400000Y-38300000D02*
X39940000Y-35840000D01*
X225234250Y-51600000D02*
X110785686Y-51600000D01*
X39940000Y-35840000D02*
X39940000Y-33080000D01*
X229334250Y-47500000D02*
X225234250Y-51600000D01*
X110785686Y-51600000D02*
X97485686Y-38300000D01*
X97485686Y-38300000D02*
X42400000Y-38300000D01*
%TO.N,VCC*%
X110620000Y-52000000D02*
X97320000Y-38700000D01*
X37400000Y-36200000D02*
X37400000Y-33080000D01*
X237810750Y-52810750D02*
X237000000Y-52000000D01*
X39900000Y-38700000D02*
X37400000Y-36200000D01*
X97320000Y-38700000D02*
X39900000Y-38700000D01*
X243006750Y-52810750D02*
X237810750Y-52810750D01*
X237000000Y-52000000D02*
X110620000Y-52000000D01*
%TO.N,RESET*%
X34860000Y-33080000D02*
X34860000Y-36560000D01*
X72829500Y-42829500D02*
X80769250Y-42829500D01*
X37400000Y-39100000D02*
X69100000Y-39100000D01*
X69100000Y-39100000D02*
X72829500Y-42829500D01*
X34860000Y-36560000D02*
X37400000Y-39100000D01*
%TO.N,col6*%
X52640000Y-35140000D02*
X52640000Y-33080000D01*
X98314116Y-36300000D02*
X53800000Y-36300000D01*
X111614116Y-49600000D02*
X98314116Y-36300000D01*
X134084250Y-47500000D02*
X131984250Y-49600000D01*
X131984250Y-49600000D02*
X111614116Y-49600000D01*
X53800000Y-36300000D02*
X52640000Y-35140000D01*
%TO.N,col7*%
X111448430Y-50000000D02*
X98148430Y-36700000D01*
X50100000Y-35400000D02*
X50100000Y-33080000D01*
X153134250Y-47500000D02*
X150634250Y-50000000D01*
X98148430Y-36700000D02*
X51400000Y-36700000D01*
X51400000Y-36700000D02*
X50100000Y-35400000D01*
X150634250Y-50000000D02*
X111448430Y-50000000D01*
%TO.N,col8*%
X97982744Y-37100000D02*
X48500000Y-37100000D01*
X48500000Y-37100000D02*
X47560000Y-36160000D01*
X172184250Y-47500000D02*
X169284250Y-50400000D01*
X47560000Y-36160000D02*
X47560000Y-33080000D01*
X169284250Y-50400000D02*
X111282744Y-50400000D01*
X111282744Y-50400000D02*
X97982744Y-37100000D01*
%TO.N,col9*%
X46800000Y-37500000D02*
X45020000Y-35720000D01*
X187934250Y-50800000D02*
X111117058Y-50800000D01*
X191234250Y-47500000D02*
X187934250Y-50800000D01*
X45020000Y-35720000D02*
X45020000Y-33080000D01*
X97817058Y-37500000D02*
X46800000Y-37500000D01*
X111117058Y-50800000D02*
X97817058Y-37500000D01*
%TO.N,GND*%
X65000000Y-39500000D02*
X72829500Y-47329500D01*
X34800000Y-39500000D02*
X65000000Y-39500000D01*
X64500000Y-44100000D02*
X64500000Y-46500000D01*
X32320000Y-37020000D02*
X34800000Y-39500000D01*
X32320000Y-33080000D02*
X32320000Y-37020000D01*
X72829500Y-47329500D02*
X80769250Y-47329500D01*
X59900000Y-39500000D02*
X64500000Y-44100000D01*
%TD*%
M02*
