%TF.GenerationSoftware,KiCad,Pcbnew,7.0.5*%
%TF.CreationDate,2023-06-22T07:55:22+00:00*%
%TF.ProjectId,Entry-left,456e7472-792d-46c6-9566-742e6b696361,rev?*%
%TF.SameCoordinates,Original*%
%TF.FileFunction,Legend,Bot*%
%TF.FilePolarity,Positive*%
%FSLAX46Y46*%
G04 Gerber Fmt 4.6, Leading zero omitted, Abs format (unit mm)*
G04 Created by KiCad (PCBNEW 7.0.5) date 2023-06-22 07:55:22*
%MOMM*%
%LPD*%
G01*
G04 APERTURE LIST*
%ADD10C,0.150000*%
%ADD11C,0.120000*%
G04 APERTURE END LIST*
D10*
%TO.C,D33*%
X161203319Y-84162714D02*
X160203319Y-84162714D01*
X160203319Y-84162714D02*
X160203319Y-84400809D01*
X160203319Y-84400809D02*
X160250938Y-84543666D01*
X160250938Y-84543666D02*
X160346176Y-84638904D01*
X160346176Y-84638904D02*
X160441414Y-84686523D01*
X160441414Y-84686523D02*
X160631890Y-84734142D01*
X160631890Y-84734142D02*
X160774747Y-84734142D01*
X160774747Y-84734142D02*
X160965223Y-84686523D01*
X160965223Y-84686523D02*
X161060461Y-84638904D01*
X161060461Y-84638904D02*
X161155700Y-84543666D01*
X161155700Y-84543666D02*
X161203319Y-84400809D01*
X161203319Y-84400809D02*
X161203319Y-84162714D01*
X160203319Y-85067476D02*
X160203319Y-85686523D01*
X160203319Y-85686523D02*
X160584271Y-85353190D01*
X160584271Y-85353190D02*
X160584271Y-85496047D01*
X160584271Y-85496047D02*
X160631890Y-85591285D01*
X160631890Y-85591285D02*
X160679509Y-85638904D01*
X160679509Y-85638904D02*
X160774747Y-85686523D01*
X160774747Y-85686523D02*
X161012842Y-85686523D01*
X161012842Y-85686523D02*
X161108080Y-85638904D01*
X161108080Y-85638904D02*
X161155700Y-85591285D01*
X161155700Y-85591285D02*
X161203319Y-85496047D01*
X161203319Y-85496047D02*
X161203319Y-85210333D01*
X161203319Y-85210333D02*
X161155700Y-85115095D01*
X161155700Y-85115095D02*
X161108080Y-85067476D01*
X160203319Y-86019857D02*
X160203319Y-86638904D01*
X160203319Y-86638904D02*
X160584271Y-86305571D01*
X160584271Y-86305571D02*
X160584271Y-86448428D01*
X160584271Y-86448428D02*
X160631890Y-86543666D01*
X160631890Y-86543666D02*
X160679509Y-86591285D01*
X160679509Y-86591285D02*
X160774747Y-86638904D01*
X160774747Y-86638904D02*
X161012842Y-86638904D01*
X161012842Y-86638904D02*
X161108080Y-86591285D01*
X161108080Y-86591285D02*
X161155700Y-86543666D01*
X161155700Y-86543666D02*
X161203319Y-86448428D01*
X161203319Y-86448428D02*
X161203319Y-86162714D01*
X161203319Y-86162714D02*
X161155700Y-86067476D01*
X161155700Y-86067476D02*
X161108080Y-86019857D01*
X160883319Y-88925095D02*
X159883319Y-88925095D01*
X160883319Y-89496523D02*
X160311890Y-89067952D01*
X159883319Y-89496523D02*
X160454747Y-88925095D01*
%TO.C,D38*%
X140572319Y-103049214D02*
X139572319Y-103049214D01*
X139572319Y-103049214D02*
X139572319Y-103287309D01*
X139572319Y-103287309D02*
X139619938Y-103430166D01*
X139619938Y-103430166D02*
X139715176Y-103525404D01*
X139715176Y-103525404D02*
X139810414Y-103573023D01*
X139810414Y-103573023D02*
X140000890Y-103620642D01*
X140000890Y-103620642D02*
X140143747Y-103620642D01*
X140143747Y-103620642D02*
X140334223Y-103573023D01*
X140334223Y-103573023D02*
X140429461Y-103525404D01*
X140429461Y-103525404D02*
X140524700Y-103430166D01*
X140524700Y-103430166D02*
X140572319Y-103287309D01*
X140572319Y-103287309D02*
X140572319Y-103049214D01*
X139572319Y-103953976D02*
X139572319Y-104573023D01*
X139572319Y-104573023D02*
X139953271Y-104239690D01*
X139953271Y-104239690D02*
X139953271Y-104382547D01*
X139953271Y-104382547D02*
X140000890Y-104477785D01*
X140000890Y-104477785D02*
X140048509Y-104525404D01*
X140048509Y-104525404D02*
X140143747Y-104573023D01*
X140143747Y-104573023D02*
X140381842Y-104573023D01*
X140381842Y-104573023D02*
X140477080Y-104525404D01*
X140477080Y-104525404D02*
X140524700Y-104477785D01*
X140524700Y-104477785D02*
X140572319Y-104382547D01*
X140572319Y-104382547D02*
X140572319Y-104096833D01*
X140572319Y-104096833D02*
X140524700Y-104001595D01*
X140524700Y-104001595D02*
X140477080Y-103953976D01*
X140000890Y-105144452D02*
X139953271Y-105049214D01*
X139953271Y-105049214D02*
X139905652Y-105001595D01*
X139905652Y-105001595D02*
X139810414Y-104953976D01*
X139810414Y-104953976D02*
X139762795Y-104953976D01*
X139762795Y-104953976D02*
X139667557Y-105001595D01*
X139667557Y-105001595D02*
X139619938Y-105049214D01*
X139619938Y-105049214D02*
X139572319Y-105144452D01*
X139572319Y-105144452D02*
X139572319Y-105334928D01*
X139572319Y-105334928D02*
X139619938Y-105430166D01*
X139619938Y-105430166D02*
X139667557Y-105477785D01*
X139667557Y-105477785D02*
X139762795Y-105525404D01*
X139762795Y-105525404D02*
X139810414Y-105525404D01*
X139810414Y-105525404D02*
X139905652Y-105477785D01*
X139905652Y-105477785D02*
X139953271Y-105430166D01*
X139953271Y-105430166D02*
X140000890Y-105334928D01*
X140000890Y-105334928D02*
X140000890Y-105144452D01*
X140000890Y-105144452D02*
X140048509Y-105049214D01*
X140048509Y-105049214D02*
X140096128Y-105001595D01*
X140096128Y-105001595D02*
X140191366Y-104953976D01*
X140191366Y-104953976D02*
X140381842Y-104953976D01*
X140381842Y-104953976D02*
X140477080Y-105001595D01*
X140477080Y-105001595D02*
X140524700Y-105049214D01*
X140524700Y-105049214D02*
X140572319Y-105144452D01*
X140572319Y-105144452D02*
X140572319Y-105334928D01*
X140572319Y-105334928D02*
X140524700Y-105430166D01*
X140524700Y-105430166D02*
X140477080Y-105477785D01*
X140477080Y-105477785D02*
X140381842Y-105525404D01*
X140381842Y-105525404D02*
X140191366Y-105525404D01*
X140191366Y-105525404D02*
X140096128Y-105477785D01*
X140096128Y-105477785D02*
X140048509Y-105430166D01*
X140048509Y-105430166D02*
X140000890Y-105334928D01*
X140252319Y-107811595D02*
X139252319Y-107811595D01*
X140252319Y-108383023D02*
X139680890Y-107954452D01*
X139252319Y-108383023D02*
X139823747Y-107811595D01*
%TO.C,D22*%
X208813319Y-40677714D02*
X207813319Y-40677714D01*
X207813319Y-40677714D02*
X207813319Y-40915809D01*
X207813319Y-40915809D02*
X207860938Y-41058666D01*
X207860938Y-41058666D02*
X207956176Y-41153904D01*
X207956176Y-41153904D02*
X208051414Y-41201523D01*
X208051414Y-41201523D02*
X208241890Y-41249142D01*
X208241890Y-41249142D02*
X208384747Y-41249142D01*
X208384747Y-41249142D02*
X208575223Y-41201523D01*
X208575223Y-41201523D02*
X208670461Y-41153904D01*
X208670461Y-41153904D02*
X208765700Y-41058666D01*
X208765700Y-41058666D02*
X208813319Y-40915809D01*
X208813319Y-40915809D02*
X208813319Y-40677714D01*
X207908557Y-41630095D02*
X207860938Y-41677714D01*
X207860938Y-41677714D02*
X207813319Y-41772952D01*
X207813319Y-41772952D02*
X207813319Y-42011047D01*
X207813319Y-42011047D02*
X207860938Y-42106285D01*
X207860938Y-42106285D02*
X207908557Y-42153904D01*
X207908557Y-42153904D02*
X208003795Y-42201523D01*
X208003795Y-42201523D02*
X208099033Y-42201523D01*
X208099033Y-42201523D02*
X208241890Y-42153904D01*
X208241890Y-42153904D02*
X208813319Y-41582476D01*
X208813319Y-41582476D02*
X208813319Y-42201523D01*
X207908557Y-42582476D02*
X207860938Y-42630095D01*
X207860938Y-42630095D02*
X207813319Y-42725333D01*
X207813319Y-42725333D02*
X207813319Y-42963428D01*
X207813319Y-42963428D02*
X207860938Y-43058666D01*
X207860938Y-43058666D02*
X207908557Y-43106285D01*
X207908557Y-43106285D02*
X208003795Y-43153904D01*
X208003795Y-43153904D02*
X208099033Y-43153904D01*
X208099033Y-43153904D02*
X208241890Y-43106285D01*
X208241890Y-43106285D02*
X208813319Y-42534857D01*
X208813319Y-42534857D02*
X208813319Y-43153904D01*
X208493319Y-45440095D02*
X207493319Y-45440095D01*
X208493319Y-46011523D02*
X207921890Y-45582952D01*
X207493319Y-46011523D02*
X208064747Y-45440095D01*
%TO.C,D30*%
X227857319Y-64961214D02*
X226857319Y-64961214D01*
X226857319Y-64961214D02*
X226857319Y-65199309D01*
X226857319Y-65199309D02*
X226904938Y-65342166D01*
X226904938Y-65342166D02*
X227000176Y-65437404D01*
X227000176Y-65437404D02*
X227095414Y-65485023D01*
X227095414Y-65485023D02*
X227285890Y-65532642D01*
X227285890Y-65532642D02*
X227428747Y-65532642D01*
X227428747Y-65532642D02*
X227619223Y-65485023D01*
X227619223Y-65485023D02*
X227714461Y-65437404D01*
X227714461Y-65437404D02*
X227809700Y-65342166D01*
X227809700Y-65342166D02*
X227857319Y-65199309D01*
X227857319Y-65199309D02*
X227857319Y-64961214D01*
X226857319Y-65865976D02*
X226857319Y-66485023D01*
X226857319Y-66485023D02*
X227238271Y-66151690D01*
X227238271Y-66151690D02*
X227238271Y-66294547D01*
X227238271Y-66294547D02*
X227285890Y-66389785D01*
X227285890Y-66389785D02*
X227333509Y-66437404D01*
X227333509Y-66437404D02*
X227428747Y-66485023D01*
X227428747Y-66485023D02*
X227666842Y-66485023D01*
X227666842Y-66485023D02*
X227762080Y-66437404D01*
X227762080Y-66437404D02*
X227809700Y-66389785D01*
X227809700Y-66389785D02*
X227857319Y-66294547D01*
X227857319Y-66294547D02*
X227857319Y-66008833D01*
X227857319Y-66008833D02*
X227809700Y-65913595D01*
X227809700Y-65913595D02*
X227762080Y-65865976D01*
X226857319Y-67104071D02*
X226857319Y-67199309D01*
X226857319Y-67199309D02*
X226904938Y-67294547D01*
X226904938Y-67294547D02*
X226952557Y-67342166D01*
X226952557Y-67342166D02*
X227047795Y-67389785D01*
X227047795Y-67389785D02*
X227238271Y-67437404D01*
X227238271Y-67437404D02*
X227476366Y-67437404D01*
X227476366Y-67437404D02*
X227666842Y-67389785D01*
X227666842Y-67389785D02*
X227762080Y-67342166D01*
X227762080Y-67342166D02*
X227809700Y-67294547D01*
X227809700Y-67294547D02*
X227857319Y-67199309D01*
X227857319Y-67199309D02*
X227857319Y-67104071D01*
X227857319Y-67104071D02*
X227809700Y-67008833D01*
X227809700Y-67008833D02*
X227762080Y-66961214D01*
X227762080Y-66961214D02*
X227666842Y-66913595D01*
X227666842Y-66913595D02*
X227476366Y-66865976D01*
X227476366Y-66865976D02*
X227238271Y-66865976D01*
X227238271Y-66865976D02*
X227047795Y-66913595D01*
X227047795Y-66913595D02*
X226952557Y-66961214D01*
X226952557Y-66961214D02*
X226904938Y-67008833D01*
X226904938Y-67008833D02*
X226857319Y-67104071D01*
X227537319Y-69723595D02*
X226537319Y-69723595D01*
X227537319Y-70295023D02*
X226965890Y-69866452D01*
X226537319Y-70295023D02*
X227108747Y-69723595D01*
%TO.C,D12*%
X65983319Y-122093214D02*
X64983319Y-122093214D01*
X64983319Y-122093214D02*
X64983319Y-122331309D01*
X64983319Y-122331309D02*
X65030938Y-122474166D01*
X65030938Y-122474166D02*
X65126176Y-122569404D01*
X65126176Y-122569404D02*
X65221414Y-122617023D01*
X65221414Y-122617023D02*
X65411890Y-122664642D01*
X65411890Y-122664642D02*
X65554747Y-122664642D01*
X65554747Y-122664642D02*
X65745223Y-122617023D01*
X65745223Y-122617023D02*
X65840461Y-122569404D01*
X65840461Y-122569404D02*
X65935700Y-122474166D01*
X65935700Y-122474166D02*
X65983319Y-122331309D01*
X65983319Y-122331309D02*
X65983319Y-122093214D01*
X65983319Y-123617023D02*
X65983319Y-123045595D01*
X65983319Y-123331309D02*
X64983319Y-123331309D01*
X64983319Y-123331309D02*
X65126176Y-123236071D01*
X65126176Y-123236071D02*
X65221414Y-123140833D01*
X65221414Y-123140833D02*
X65269033Y-123045595D01*
X65078557Y-123997976D02*
X65030938Y-124045595D01*
X65030938Y-124045595D02*
X64983319Y-124140833D01*
X64983319Y-124140833D02*
X64983319Y-124378928D01*
X64983319Y-124378928D02*
X65030938Y-124474166D01*
X65030938Y-124474166D02*
X65078557Y-124521785D01*
X65078557Y-124521785D02*
X65173795Y-124569404D01*
X65173795Y-124569404D02*
X65269033Y-124569404D01*
X65269033Y-124569404D02*
X65411890Y-124521785D01*
X65411890Y-124521785D02*
X65983319Y-123950357D01*
X65983319Y-123950357D02*
X65983319Y-124569404D01*
X65663319Y-126855595D02*
X64663319Y-126855595D01*
X65663319Y-127427023D02*
X65091890Y-126998452D01*
X64663319Y-127427023D02*
X65234747Y-126855595D01*
%TO.C,D48*%
X232618319Y-122093214D02*
X231618319Y-122093214D01*
X231618319Y-122093214D02*
X231618319Y-122331309D01*
X231618319Y-122331309D02*
X231665938Y-122474166D01*
X231665938Y-122474166D02*
X231761176Y-122569404D01*
X231761176Y-122569404D02*
X231856414Y-122617023D01*
X231856414Y-122617023D02*
X232046890Y-122664642D01*
X232046890Y-122664642D02*
X232189747Y-122664642D01*
X232189747Y-122664642D02*
X232380223Y-122617023D01*
X232380223Y-122617023D02*
X232475461Y-122569404D01*
X232475461Y-122569404D02*
X232570700Y-122474166D01*
X232570700Y-122474166D02*
X232618319Y-122331309D01*
X232618319Y-122331309D02*
X232618319Y-122093214D01*
X231951652Y-123521785D02*
X232618319Y-123521785D01*
X231570700Y-123283690D02*
X232284985Y-123045595D01*
X232284985Y-123045595D02*
X232284985Y-123664642D01*
X232046890Y-124188452D02*
X231999271Y-124093214D01*
X231999271Y-124093214D02*
X231951652Y-124045595D01*
X231951652Y-124045595D02*
X231856414Y-123997976D01*
X231856414Y-123997976D02*
X231808795Y-123997976D01*
X231808795Y-123997976D02*
X231713557Y-124045595D01*
X231713557Y-124045595D02*
X231665938Y-124093214D01*
X231665938Y-124093214D02*
X231618319Y-124188452D01*
X231618319Y-124188452D02*
X231618319Y-124378928D01*
X231618319Y-124378928D02*
X231665938Y-124474166D01*
X231665938Y-124474166D02*
X231713557Y-124521785D01*
X231713557Y-124521785D02*
X231808795Y-124569404D01*
X231808795Y-124569404D02*
X231856414Y-124569404D01*
X231856414Y-124569404D02*
X231951652Y-124521785D01*
X231951652Y-124521785D02*
X231999271Y-124474166D01*
X231999271Y-124474166D02*
X232046890Y-124378928D01*
X232046890Y-124378928D02*
X232046890Y-124188452D01*
X232046890Y-124188452D02*
X232094509Y-124093214D01*
X232094509Y-124093214D02*
X232142128Y-124045595D01*
X232142128Y-124045595D02*
X232237366Y-123997976D01*
X232237366Y-123997976D02*
X232427842Y-123997976D01*
X232427842Y-123997976D02*
X232523080Y-124045595D01*
X232523080Y-124045595D02*
X232570700Y-124093214D01*
X232570700Y-124093214D02*
X232618319Y-124188452D01*
X232618319Y-124188452D02*
X232618319Y-124378928D01*
X232618319Y-124378928D02*
X232570700Y-124474166D01*
X232570700Y-124474166D02*
X232523080Y-124521785D01*
X232523080Y-124521785D02*
X232427842Y-124569404D01*
X232427842Y-124569404D02*
X232237366Y-124569404D01*
X232237366Y-124569404D02*
X232142128Y-124521785D01*
X232142128Y-124521785D02*
X232094509Y-124474166D01*
X232094509Y-124474166D02*
X232046890Y-124378928D01*
X232298319Y-126855595D02*
X231298319Y-126855595D01*
X232298319Y-127427023D02*
X231726890Y-126998452D01*
X231298319Y-127427023D02*
X231869747Y-126855595D01*
%TO.C,D54*%
X251662319Y-137225714D02*
X250662319Y-137225714D01*
X250662319Y-137225714D02*
X250662319Y-137463809D01*
X250662319Y-137463809D02*
X250709938Y-137606666D01*
X250709938Y-137606666D02*
X250805176Y-137701904D01*
X250805176Y-137701904D02*
X250900414Y-137749523D01*
X250900414Y-137749523D02*
X251090890Y-137797142D01*
X251090890Y-137797142D02*
X251233747Y-137797142D01*
X251233747Y-137797142D02*
X251424223Y-137749523D01*
X251424223Y-137749523D02*
X251519461Y-137701904D01*
X251519461Y-137701904D02*
X251614700Y-137606666D01*
X251614700Y-137606666D02*
X251662319Y-137463809D01*
X251662319Y-137463809D02*
X251662319Y-137225714D01*
X250662319Y-138701904D02*
X250662319Y-138225714D01*
X250662319Y-138225714D02*
X251138509Y-138178095D01*
X251138509Y-138178095D02*
X251090890Y-138225714D01*
X251090890Y-138225714D02*
X251043271Y-138320952D01*
X251043271Y-138320952D02*
X251043271Y-138559047D01*
X251043271Y-138559047D02*
X251090890Y-138654285D01*
X251090890Y-138654285D02*
X251138509Y-138701904D01*
X251138509Y-138701904D02*
X251233747Y-138749523D01*
X251233747Y-138749523D02*
X251471842Y-138749523D01*
X251471842Y-138749523D02*
X251567080Y-138701904D01*
X251567080Y-138701904D02*
X251614700Y-138654285D01*
X251614700Y-138654285D02*
X251662319Y-138559047D01*
X251662319Y-138559047D02*
X251662319Y-138320952D01*
X251662319Y-138320952D02*
X251614700Y-138225714D01*
X251614700Y-138225714D02*
X251567080Y-138178095D01*
X250995652Y-139606666D02*
X251662319Y-139606666D01*
X250614700Y-139368571D02*
X251328985Y-139130476D01*
X251328985Y-139130476D02*
X251328985Y-139749523D01*
X251342319Y-141988095D02*
X250342319Y-141988095D01*
X251342319Y-142559523D02*
X250770890Y-142130952D01*
X250342319Y-142559523D02*
X250913747Y-141988095D01*
%TO.C,D52*%
X183421319Y-141294714D02*
X182421319Y-141294714D01*
X182421319Y-141294714D02*
X182421319Y-141532809D01*
X182421319Y-141532809D02*
X182468938Y-141675666D01*
X182468938Y-141675666D02*
X182564176Y-141770904D01*
X182564176Y-141770904D02*
X182659414Y-141818523D01*
X182659414Y-141818523D02*
X182849890Y-141866142D01*
X182849890Y-141866142D02*
X182992747Y-141866142D01*
X182992747Y-141866142D02*
X183183223Y-141818523D01*
X183183223Y-141818523D02*
X183278461Y-141770904D01*
X183278461Y-141770904D02*
X183373700Y-141675666D01*
X183373700Y-141675666D02*
X183421319Y-141532809D01*
X183421319Y-141532809D02*
X183421319Y-141294714D01*
X182421319Y-142770904D02*
X182421319Y-142294714D01*
X182421319Y-142294714D02*
X182897509Y-142247095D01*
X182897509Y-142247095D02*
X182849890Y-142294714D01*
X182849890Y-142294714D02*
X182802271Y-142389952D01*
X182802271Y-142389952D02*
X182802271Y-142628047D01*
X182802271Y-142628047D02*
X182849890Y-142723285D01*
X182849890Y-142723285D02*
X182897509Y-142770904D01*
X182897509Y-142770904D02*
X182992747Y-142818523D01*
X182992747Y-142818523D02*
X183230842Y-142818523D01*
X183230842Y-142818523D02*
X183326080Y-142770904D01*
X183326080Y-142770904D02*
X183373700Y-142723285D01*
X183373700Y-142723285D02*
X183421319Y-142628047D01*
X183421319Y-142628047D02*
X183421319Y-142389952D01*
X183421319Y-142389952D02*
X183373700Y-142294714D01*
X183373700Y-142294714D02*
X183326080Y-142247095D01*
X182516557Y-143199476D02*
X182468938Y-143247095D01*
X182468938Y-143247095D02*
X182421319Y-143342333D01*
X182421319Y-143342333D02*
X182421319Y-143580428D01*
X182421319Y-143580428D02*
X182468938Y-143675666D01*
X182468938Y-143675666D02*
X182516557Y-143723285D01*
X182516557Y-143723285D02*
X182611795Y-143770904D01*
X182611795Y-143770904D02*
X182707033Y-143770904D01*
X182707033Y-143770904D02*
X182849890Y-143723285D01*
X182849890Y-143723285D02*
X183421319Y-143151857D01*
X183421319Y-143151857D02*
X183421319Y-143770904D01*
X183101319Y-146057095D02*
X182101319Y-146057095D01*
X183101319Y-146628523D02*
X182529890Y-146199952D01*
X182101319Y-146628523D02*
X182672747Y-146057095D01*
%TO.C,D53*%
X207226319Y-141294714D02*
X206226319Y-141294714D01*
X206226319Y-141294714D02*
X206226319Y-141532809D01*
X206226319Y-141532809D02*
X206273938Y-141675666D01*
X206273938Y-141675666D02*
X206369176Y-141770904D01*
X206369176Y-141770904D02*
X206464414Y-141818523D01*
X206464414Y-141818523D02*
X206654890Y-141866142D01*
X206654890Y-141866142D02*
X206797747Y-141866142D01*
X206797747Y-141866142D02*
X206988223Y-141818523D01*
X206988223Y-141818523D02*
X207083461Y-141770904D01*
X207083461Y-141770904D02*
X207178700Y-141675666D01*
X207178700Y-141675666D02*
X207226319Y-141532809D01*
X207226319Y-141532809D02*
X207226319Y-141294714D01*
X206226319Y-142770904D02*
X206226319Y-142294714D01*
X206226319Y-142294714D02*
X206702509Y-142247095D01*
X206702509Y-142247095D02*
X206654890Y-142294714D01*
X206654890Y-142294714D02*
X206607271Y-142389952D01*
X206607271Y-142389952D02*
X206607271Y-142628047D01*
X206607271Y-142628047D02*
X206654890Y-142723285D01*
X206654890Y-142723285D02*
X206702509Y-142770904D01*
X206702509Y-142770904D02*
X206797747Y-142818523D01*
X206797747Y-142818523D02*
X207035842Y-142818523D01*
X207035842Y-142818523D02*
X207131080Y-142770904D01*
X207131080Y-142770904D02*
X207178700Y-142723285D01*
X207178700Y-142723285D02*
X207226319Y-142628047D01*
X207226319Y-142628047D02*
X207226319Y-142389952D01*
X207226319Y-142389952D02*
X207178700Y-142294714D01*
X207178700Y-142294714D02*
X207131080Y-142247095D01*
X206226319Y-143151857D02*
X206226319Y-143770904D01*
X206226319Y-143770904D02*
X206607271Y-143437571D01*
X206607271Y-143437571D02*
X206607271Y-143580428D01*
X206607271Y-143580428D02*
X206654890Y-143675666D01*
X206654890Y-143675666D02*
X206702509Y-143723285D01*
X206702509Y-143723285D02*
X206797747Y-143770904D01*
X206797747Y-143770904D02*
X207035842Y-143770904D01*
X207035842Y-143770904D02*
X207131080Y-143723285D01*
X207131080Y-143723285D02*
X207178700Y-143675666D01*
X207178700Y-143675666D02*
X207226319Y-143580428D01*
X207226319Y-143580428D02*
X207226319Y-143294714D01*
X207226319Y-143294714D02*
X207178700Y-143199476D01*
X207178700Y-143199476D02*
X207131080Y-143151857D01*
X206906319Y-146057095D02*
X205906319Y-146057095D01*
X206906319Y-146628523D02*
X206334890Y-146199952D01*
X205906319Y-146628523D02*
X206477747Y-146057095D01*
%TO.C,D23*%
X227857319Y-40677714D02*
X226857319Y-40677714D01*
X226857319Y-40677714D02*
X226857319Y-40915809D01*
X226857319Y-40915809D02*
X226904938Y-41058666D01*
X226904938Y-41058666D02*
X227000176Y-41153904D01*
X227000176Y-41153904D02*
X227095414Y-41201523D01*
X227095414Y-41201523D02*
X227285890Y-41249142D01*
X227285890Y-41249142D02*
X227428747Y-41249142D01*
X227428747Y-41249142D02*
X227619223Y-41201523D01*
X227619223Y-41201523D02*
X227714461Y-41153904D01*
X227714461Y-41153904D02*
X227809700Y-41058666D01*
X227809700Y-41058666D02*
X227857319Y-40915809D01*
X227857319Y-40915809D02*
X227857319Y-40677714D01*
X226952557Y-41630095D02*
X226904938Y-41677714D01*
X226904938Y-41677714D02*
X226857319Y-41772952D01*
X226857319Y-41772952D02*
X226857319Y-42011047D01*
X226857319Y-42011047D02*
X226904938Y-42106285D01*
X226904938Y-42106285D02*
X226952557Y-42153904D01*
X226952557Y-42153904D02*
X227047795Y-42201523D01*
X227047795Y-42201523D02*
X227143033Y-42201523D01*
X227143033Y-42201523D02*
X227285890Y-42153904D01*
X227285890Y-42153904D02*
X227857319Y-41582476D01*
X227857319Y-41582476D02*
X227857319Y-42201523D01*
X226857319Y-42534857D02*
X226857319Y-43153904D01*
X226857319Y-43153904D02*
X227238271Y-42820571D01*
X227238271Y-42820571D02*
X227238271Y-42963428D01*
X227238271Y-42963428D02*
X227285890Y-43058666D01*
X227285890Y-43058666D02*
X227333509Y-43106285D01*
X227333509Y-43106285D02*
X227428747Y-43153904D01*
X227428747Y-43153904D02*
X227666842Y-43153904D01*
X227666842Y-43153904D02*
X227762080Y-43106285D01*
X227762080Y-43106285D02*
X227809700Y-43058666D01*
X227809700Y-43058666D02*
X227857319Y-42963428D01*
X227857319Y-42963428D02*
X227857319Y-42677714D01*
X227857319Y-42677714D02*
X227809700Y-42582476D01*
X227809700Y-42582476D02*
X227762080Y-42534857D01*
X227537319Y-45440095D02*
X226537319Y-45440095D01*
X227537319Y-46011523D02*
X226965890Y-45582952D01*
X226537319Y-46011523D02*
X227108747Y-45440095D01*
%TO.C,D25*%
X132637319Y-64961214D02*
X131637319Y-64961214D01*
X131637319Y-64961214D02*
X131637319Y-65199309D01*
X131637319Y-65199309D02*
X131684938Y-65342166D01*
X131684938Y-65342166D02*
X131780176Y-65437404D01*
X131780176Y-65437404D02*
X131875414Y-65485023D01*
X131875414Y-65485023D02*
X132065890Y-65532642D01*
X132065890Y-65532642D02*
X132208747Y-65532642D01*
X132208747Y-65532642D02*
X132399223Y-65485023D01*
X132399223Y-65485023D02*
X132494461Y-65437404D01*
X132494461Y-65437404D02*
X132589700Y-65342166D01*
X132589700Y-65342166D02*
X132637319Y-65199309D01*
X132637319Y-65199309D02*
X132637319Y-64961214D01*
X131732557Y-65913595D02*
X131684938Y-65961214D01*
X131684938Y-65961214D02*
X131637319Y-66056452D01*
X131637319Y-66056452D02*
X131637319Y-66294547D01*
X131637319Y-66294547D02*
X131684938Y-66389785D01*
X131684938Y-66389785D02*
X131732557Y-66437404D01*
X131732557Y-66437404D02*
X131827795Y-66485023D01*
X131827795Y-66485023D02*
X131923033Y-66485023D01*
X131923033Y-66485023D02*
X132065890Y-66437404D01*
X132065890Y-66437404D02*
X132637319Y-65865976D01*
X132637319Y-65865976D02*
X132637319Y-66485023D01*
X131637319Y-67389785D02*
X131637319Y-66913595D01*
X131637319Y-66913595D02*
X132113509Y-66865976D01*
X132113509Y-66865976D02*
X132065890Y-66913595D01*
X132065890Y-66913595D02*
X132018271Y-67008833D01*
X132018271Y-67008833D02*
X132018271Y-67246928D01*
X132018271Y-67246928D02*
X132065890Y-67342166D01*
X132065890Y-67342166D02*
X132113509Y-67389785D01*
X132113509Y-67389785D02*
X132208747Y-67437404D01*
X132208747Y-67437404D02*
X132446842Y-67437404D01*
X132446842Y-67437404D02*
X132542080Y-67389785D01*
X132542080Y-67389785D02*
X132589700Y-67342166D01*
X132589700Y-67342166D02*
X132637319Y-67246928D01*
X132637319Y-67246928D02*
X132637319Y-67008833D01*
X132637319Y-67008833D02*
X132589700Y-66913595D01*
X132589700Y-66913595D02*
X132542080Y-66865976D01*
X132317319Y-69723595D02*
X131317319Y-69723595D01*
X132317319Y-70295023D02*
X131745890Y-69866452D01*
X131317319Y-70295023D02*
X131888747Y-69723595D01*
%TO.C,D50*%
X135811319Y-141294714D02*
X134811319Y-141294714D01*
X134811319Y-141294714D02*
X134811319Y-141532809D01*
X134811319Y-141532809D02*
X134858938Y-141675666D01*
X134858938Y-141675666D02*
X134954176Y-141770904D01*
X134954176Y-141770904D02*
X135049414Y-141818523D01*
X135049414Y-141818523D02*
X135239890Y-141866142D01*
X135239890Y-141866142D02*
X135382747Y-141866142D01*
X135382747Y-141866142D02*
X135573223Y-141818523D01*
X135573223Y-141818523D02*
X135668461Y-141770904D01*
X135668461Y-141770904D02*
X135763700Y-141675666D01*
X135763700Y-141675666D02*
X135811319Y-141532809D01*
X135811319Y-141532809D02*
X135811319Y-141294714D01*
X134811319Y-142770904D02*
X134811319Y-142294714D01*
X134811319Y-142294714D02*
X135287509Y-142247095D01*
X135287509Y-142247095D02*
X135239890Y-142294714D01*
X135239890Y-142294714D02*
X135192271Y-142389952D01*
X135192271Y-142389952D02*
X135192271Y-142628047D01*
X135192271Y-142628047D02*
X135239890Y-142723285D01*
X135239890Y-142723285D02*
X135287509Y-142770904D01*
X135287509Y-142770904D02*
X135382747Y-142818523D01*
X135382747Y-142818523D02*
X135620842Y-142818523D01*
X135620842Y-142818523D02*
X135716080Y-142770904D01*
X135716080Y-142770904D02*
X135763700Y-142723285D01*
X135763700Y-142723285D02*
X135811319Y-142628047D01*
X135811319Y-142628047D02*
X135811319Y-142389952D01*
X135811319Y-142389952D02*
X135763700Y-142294714D01*
X135763700Y-142294714D02*
X135716080Y-142247095D01*
X134811319Y-143437571D02*
X134811319Y-143532809D01*
X134811319Y-143532809D02*
X134858938Y-143628047D01*
X134858938Y-143628047D02*
X134906557Y-143675666D01*
X134906557Y-143675666D02*
X135001795Y-143723285D01*
X135001795Y-143723285D02*
X135192271Y-143770904D01*
X135192271Y-143770904D02*
X135430366Y-143770904D01*
X135430366Y-143770904D02*
X135620842Y-143723285D01*
X135620842Y-143723285D02*
X135716080Y-143675666D01*
X135716080Y-143675666D02*
X135763700Y-143628047D01*
X135763700Y-143628047D02*
X135811319Y-143532809D01*
X135811319Y-143532809D02*
X135811319Y-143437571D01*
X135811319Y-143437571D02*
X135763700Y-143342333D01*
X135763700Y-143342333D02*
X135716080Y-143294714D01*
X135716080Y-143294714D02*
X135620842Y-143247095D01*
X135620842Y-143247095D02*
X135430366Y-143199476D01*
X135430366Y-143199476D02*
X135192271Y-143199476D01*
X135192271Y-143199476D02*
X135001795Y-143247095D01*
X135001795Y-143247095D02*
X134906557Y-143294714D01*
X134906557Y-143294714D02*
X134858938Y-143342333D01*
X134858938Y-143342333D02*
X134811319Y-143437571D01*
X135491319Y-146057095D02*
X134491319Y-146057095D01*
X135491319Y-146628523D02*
X134919890Y-146199952D01*
X134491319Y-146628523D02*
X135062747Y-146057095D01*
%TO.C,D31*%
X246901319Y-64961214D02*
X245901319Y-64961214D01*
X245901319Y-64961214D02*
X245901319Y-65199309D01*
X245901319Y-65199309D02*
X245948938Y-65342166D01*
X245948938Y-65342166D02*
X246044176Y-65437404D01*
X246044176Y-65437404D02*
X246139414Y-65485023D01*
X246139414Y-65485023D02*
X246329890Y-65532642D01*
X246329890Y-65532642D02*
X246472747Y-65532642D01*
X246472747Y-65532642D02*
X246663223Y-65485023D01*
X246663223Y-65485023D02*
X246758461Y-65437404D01*
X246758461Y-65437404D02*
X246853700Y-65342166D01*
X246853700Y-65342166D02*
X246901319Y-65199309D01*
X246901319Y-65199309D02*
X246901319Y-64961214D01*
X245901319Y-65865976D02*
X245901319Y-66485023D01*
X245901319Y-66485023D02*
X246282271Y-66151690D01*
X246282271Y-66151690D02*
X246282271Y-66294547D01*
X246282271Y-66294547D02*
X246329890Y-66389785D01*
X246329890Y-66389785D02*
X246377509Y-66437404D01*
X246377509Y-66437404D02*
X246472747Y-66485023D01*
X246472747Y-66485023D02*
X246710842Y-66485023D01*
X246710842Y-66485023D02*
X246806080Y-66437404D01*
X246806080Y-66437404D02*
X246853700Y-66389785D01*
X246853700Y-66389785D02*
X246901319Y-66294547D01*
X246901319Y-66294547D02*
X246901319Y-66008833D01*
X246901319Y-66008833D02*
X246853700Y-65913595D01*
X246853700Y-65913595D02*
X246806080Y-65865976D01*
X246901319Y-67437404D02*
X246901319Y-66865976D01*
X246901319Y-67151690D02*
X245901319Y-67151690D01*
X245901319Y-67151690D02*
X246044176Y-67056452D01*
X246044176Y-67056452D02*
X246139414Y-66961214D01*
X246139414Y-66961214D02*
X246187033Y-66865976D01*
X246581319Y-69723595D02*
X245581319Y-69723595D01*
X246581319Y-70295023D02*
X246009890Y-69866452D01*
X245581319Y-70295023D02*
X246152747Y-69723595D01*
%TO.C,D26*%
X151681319Y-64961214D02*
X150681319Y-64961214D01*
X150681319Y-64961214D02*
X150681319Y-65199309D01*
X150681319Y-65199309D02*
X150728938Y-65342166D01*
X150728938Y-65342166D02*
X150824176Y-65437404D01*
X150824176Y-65437404D02*
X150919414Y-65485023D01*
X150919414Y-65485023D02*
X151109890Y-65532642D01*
X151109890Y-65532642D02*
X151252747Y-65532642D01*
X151252747Y-65532642D02*
X151443223Y-65485023D01*
X151443223Y-65485023D02*
X151538461Y-65437404D01*
X151538461Y-65437404D02*
X151633700Y-65342166D01*
X151633700Y-65342166D02*
X151681319Y-65199309D01*
X151681319Y-65199309D02*
X151681319Y-64961214D01*
X150776557Y-65913595D02*
X150728938Y-65961214D01*
X150728938Y-65961214D02*
X150681319Y-66056452D01*
X150681319Y-66056452D02*
X150681319Y-66294547D01*
X150681319Y-66294547D02*
X150728938Y-66389785D01*
X150728938Y-66389785D02*
X150776557Y-66437404D01*
X150776557Y-66437404D02*
X150871795Y-66485023D01*
X150871795Y-66485023D02*
X150967033Y-66485023D01*
X150967033Y-66485023D02*
X151109890Y-66437404D01*
X151109890Y-66437404D02*
X151681319Y-65865976D01*
X151681319Y-65865976D02*
X151681319Y-66485023D01*
X150681319Y-67342166D02*
X150681319Y-67151690D01*
X150681319Y-67151690D02*
X150728938Y-67056452D01*
X150728938Y-67056452D02*
X150776557Y-67008833D01*
X150776557Y-67008833D02*
X150919414Y-66913595D01*
X150919414Y-66913595D02*
X151109890Y-66865976D01*
X151109890Y-66865976D02*
X151490842Y-66865976D01*
X151490842Y-66865976D02*
X151586080Y-66913595D01*
X151586080Y-66913595D02*
X151633700Y-66961214D01*
X151633700Y-66961214D02*
X151681319Y-67056452D01*
X151681319Y-67056452D02*
X151681319Y-67246928D01*
X151681319Y-67246928D02*
X151633700Y-67342166D01*
X151633700Y-67342166D02*
X151586080Y-67389785D01*
X151586080Y-67389785D02*
X151490842Y-67437404D01*
X151490842Y-67437404D02*
X151252747Y-67437404D01*
X151252747Y-67437404D02*
X151157509Y-67389785D01*
X151157509Y-67389785D02*
X151109890Y-67342166D01*
X151109890Y-67342166D02*
X151062271Y-67246928D01*
X151062271Y-67246928D02*
X151062271Y-67056452D01*
X151062271Y-67056452D02*
X151109890Y-66961214D01*
X151109890Y-66961214D02*
X151157509Y-66913595D01*
X151157509Y-66913595D02*
X151252747Y-66865976D01*
X151361319Y-69723595D02*
X150361319Y-69723595D01*
X151361319Y-70295023D02*
X150789890Y-69866452D01*
X150361319Y-70295023D02*
X150932747Y-69723595D01*
%TO.C,D2*%
X65983319Y-65437405D02*
X64983319Y-65437405D01*
X64983319Y-65437405D02*
X64983319Y-65675500D01*
X64983319Y-65675500D02*
X65030938Y-65818357D01*
X65030938Y-65818357D02*
X65126176Y-65913595D01*
X65126176Y-65913595D02*
X65221414Y-65961214D01*
X65221414Y-65961214D02*
X65411890Y-66008833D01*
X65411890Y-66008833D02*
X65554747Y-66008833D01*
X65554747Y-66008833D02*
X65745223Y-65961214D01*
X65745223Y-65961214D02*
X65840461Y-65913595D01*
X65840461Y-65913595D02*
X65935700Y-65818357D01*
X65935700Y-65818357D02*
X65983319Y-65675500D01*
X65983319Y-65675500D02*
X65983319Y-65437405D01*
X65078557Y-66389786D02*
X65030938Y-66437405D01*
X65030938Y-66437405D02*
X64983319Y-66532643D01*
X64983319Y-66532643D02*
X64983319Y-66770738D01*
X64983319Y-66770738D02*
X65030938Y-66865976D01*
X65030938Y-66865976D02*
X65078557Y-66913595D01*
X65078557Y-66913595D02*
X65173795Y-66961214D01*
X65173795Y-66961214D02*
X65269033Y-66961214D01*
X65269033Y-66961214D02*
X65411890Y-66913595D01*
X65411890Y-66913595D02*
X65983319Y-66342167D01*
X65983319Y-66342167D02*
X65983319Y-66961214D01*
X65663319Y-69723595D02*
X64663319Y-69723595D01*
X65663319Y-70295023D02*
X65091890Y-69866452D01*
X64663319Y-70295023D02*
X65234747Y-69723595D01*
%TO.C,D46*%
X194530319Y-122093214D02*
X193530319Y-122093214D01*
X193530319Y-122093214D02*
X193530319Y-122331309D01*
X193530319Y-122331309D02*
X193577938Y-122474166D01*
X193577938Y-122474166D02*
X193673176Y-122569404D01*
X193673176Y-122569404D02*
X193768414Y-122617023D01*
X193768414Y-122617023D02*
X193958890Y-122664642D01*
X193958890Y-122664642D02*
X194101747Y-122664642D01*
X194101747Y-122664642D02*
X194292223Y-122617023D01*
X194292223Y-122617023D02*
X194387461Y-122569404D01*
X194387461Y-122569404D02*
X194482700Y-122474166D01*
X194482700Y-122474166D02*
X194530319Y-122331309D01*
X194530319Y-122331309D02*
X194530319Y-122093214D01*
X193863652Y-123521785D02*
X194530319Y-123521785D01*
X193482700Y-123283690D02*
X194196985Y-123045595D01*
X194196985Y-123045595D02*
X194196985Y-123664642D01*
X193530319Y-124474166D02*
X193530319Y-124283690D01*
X193530319Y-124283690D02*
X193577938Y-124188452D01*
X193577938Y-124188452D02*
X193625557Y-124140833D01*
X193625557Y-124140833D02*
X193768414Y-124045595D01*
X193768414Y-124045595D02*
X193958890Y-123997976D01*
X193958890Y-123997976D02*
X194339842Y-123997976D01*
X194339842Y-123997976D02*
X194435080Y-124045595D01*
X194435080Y-124045595D02*
X194482700Y-124093214D01*
X194482700Y-124093214D02*
X194530319Y-124188452D01*
X194530319Y-124188452D02*
X194530319Y-124378928D01*
X194530319Y-124378928D02*
X194482700Y-124474166D01*
X194482700Y-124474166D02*
X194435080Y-124521785D01*
X194435080Y-124521785D02*
X194339842Y-124569404D01*
X194339842Y-124569404D02*
X194101747Y-124569404D01*
X194101747Y-124569404D02*
X194006509Y-124521785D01*
X194006509Y-124521785D02*
X193958890Y-124474166D01*
X193958890Y-124474166D02*
X193911271Y-124378928D01*
X193911271Y-124378928D02*
X193911271Y-124188452D01*
X193911271Y-124188452D02*
X193958890Y-124093214D01*
X193958890Y-124093214D02*
X194006509Y-124045595D01*
X194006509Y-124045595D02*
X194101747Y-123997976D01*
X194210319Y-126855595D02*
X193210319Y-126855595D01*
X194210319Y-127427023D02*
X193638890Y-126998452D01*
X193210319Y-127427023D02*
X193781747Y-126855595D01*
%TO.C,D40*%
X185008319Y-103049214D02*
X184008319Y-103049214D01*
X184008319Y-103049214D02*
X184008319Y-103287309D01*
X184008319Y-103287309D02*
X184055938Y-103430166D01*
X184055938Y-103430166D02*
X184151176Y-103525404D01*
X184151176Y-103525404D02*
X184246414Y-103573023D01*
X184246414Y-103573023D02*
X184436890Y-103620642D01*
X184436890Y-103620642D02*
X184579747Y-103620642D01*
X184579747Y-103620642D02*
X184770223Y-103573023D01*
X184770223Y-103573023D02*
X184865461Y-103525404D01*
X184865461Y-103525404D02*
X184960700Y-103430166D01*
X184960700Y-103430166D02*
X185008319Y-103287309D01*
X185008319Y-103287309D02*
X185008319Y-103049214D01*
X184341652Y-104477785D02*
X185008319Y-104477785D01*
X183960700Y-104239690D02*
X184674985Y-104001595D01*
X184674985Y-104001595D02*
X184674985Y-104620642D01*
X184008319Y-105192071D02*
X184008319Y-105287309D01*
X184008319Y-105287309D02*
X184055938Y-105382547D01*
X184055938Y-105382547D02*
X184103557Y-105430166D01*
X184103557Y-105430166D02*
X184198795Y-105477785D01*
X184198795Y-105477785D02*
X184389271Y-105525404D01*
X184389271Y-105525404D02*
X184627366Y-105525404D01*
X184627366Y-105525404D02*
X184817842Y-105477785D01*
X184817842Y-105477785D02*
X184913080Y-105430166D01*
X184913080Y-105430166D02*
X184960700Y-105382547D01*
X184960700Y-105382547D02*
X185008319Y-105287309D01*
X185008319Y-105287309D02*
X185008319Y-105192071D01*
X185008319Y-105192071D02*
X184960700Y-105096833D01*
X184960700Y-105096833D02*
X184913080Y-105049214D01*
X184913080Y-105049214D02*
X184817842Y-105001595D01*
X184817842Y-105001595D02*
X184627366Y-104953976D01*
X184627366Y-104953976D02*
X184389271Y-104953976D01*
X184389271Y-104953976D02*
X184198795Y-105001595D01*
X184198795Y-105001595D02*
X184103557Y-105049214D01*
X184103557Y-105049214D02*
X184055938Y-105096833D01*
X184055938Y-105096833D02*
X184008319Y-105192071D01*
X184688319Y-107811595D02*
X183688319Y-107811595D01*
X184688319Y-108383023D02*
X184116890Y-107954452D01*
X183688319Y-108383023D02*
X184259747Y-107811595D01*
%TO.C,D13*%
X85027319Y-122093214D02*
X84027319Y-122093214D01*
X84027319Y-122093214D02*
X84027319Y-122331309D01*
X84027319Y-122331309D02*
X84074938Y-122474166D01*
X84074938Y-122474166D02*
X84170176Y-122569404D01*
X84170176Y-122569404D02*
X84265414Y-122617023D01*
X84265414Y-122617023D02*
X84455890Y-122664642D01*
X84455890Y-122664642D02*
X84598747Y-122664642D01*
X84598747Y-122664642D02*
X84789223Y-122617023D01*
X84789223Y-122617023D02*
X84884461Y-122569404D01*
X84884461Y-122569404D02*
X84979700Y-122474166D01*
X84979700Y-122474166D02*
X85027319Y-122331309D01*
X85027319Y-122331309D02*
X85027319Y-122093214D01*
X85027319Y-123617023D02*
X85027319Y-123045595D01*
X85027319Y-123331309D02*
X84027319Y-123331309D01*
X84027319Y-123331309D02*
X84170176Y-123236071D01*
X84170176Y-123236071D02*
X84265414Y-123140833D01*
X84265414Y-123140833D02*
X84313033Y-123045595D01*
X84027319Y-123950357D02*
X84027319Y-124569404D01*
X84027319Y-124569404D02*
X84408271Y-124236071D01*
X84408271Y-124236071D02*
X84408271Y-124378928D01*
X84408271Y-124378928D02*
X84455890Y-124474166D01*
X84455890Y-124474166D02*
X84503509Y-124521785D01*
X84503509Y-124521785D02*
X84598747Y-124569404D01*
X84598747Y-124569404D02*
X84836842Y-124569404D01*
X84836842Y-124569404D02*
X84932080Y-124521785D01*
X84932080Y-124521785D02*
X84979700Y-124474166D01*
X84979700Y-124474166D02*
X85027319Y-124378928D01*
X85027319Y-124378928D02*
X85027319Y-124093214D01*
X85027319Y-124093214D02*
X84979700Y-123997976D01*
X84979700Y-123997976D02*
X84932080Y-123950357D01*
X84707319Y-126855595D02*
X83707319Y-126855595D01*
X84707319Y-127427023D02*
X84135890Y-126998452D01*
X83707319Y-127427023D02*
X84278747Y-126855595D01*
%TO.C,D35*%
X199291319Y-84162714D02*
X198291319Y-84162714D01*
X198291319Y-84162714D02*
X198291319Y-84400809D01*
X198291319Y-84400809D02*
X198338938Y-84543666D01*
X198338938Y-84543666D02*
X198434176Y-84638904D01*
X198434176Y-84638904D02*
X198529414Y-84686523D01*
X198529414Y-84686523D02*
X198719890Y-84734142D01*
X198719890Y-84734142D02*
X198862747Y-84734142D01*
X198862747Y-84734142D02*
X199053223Y-84686523D01*
X199053223Y-84686523D02*
X199148461Y-84638904D01*
X199148461Y-84638904D02*
X199243700Y-84543666D01*
X199243700Y-84543666D02*
X199291319Y-84400809D01*
X199291319Y-84400809D02*
X199291319Y-84162714D01*
X198291319Y-85067476D02*
X198291319Y-85686523D01*
X198291319Y-85686523D02*
X198672271Y-85353190D01*
X198672271Y-85353190D02*
X198672271Y-85496047D01*
X198672271Y-85496047D02*
X198719890Y-85591285D01*
X198719890Y-85591285D02*
X198767509Y-85638904D01*
X198767509Y-85638904D02*
X198862747Y-85686523D01*
X198862747Y-85686523D02*
X199100842Y-85686523D01*
X199100842Y-85686523D02*
X199196080Y-85638904D01*
X199196080Y-85638904D02*
X199243700Y-85591285D01*
X199243700Y-85591285D02*
X199291319Y-85496047D01*
X199291319Y-85496047D02*
X199291319Y-85210333D01*
X199291319Y-85210333D02*
X199243700Y-85115095D01*
X199243700Y-85115095D02*
X199196080Y-85067476D01*
X198291319Y-86591285D02*
X198291319Y-86115095D01*
X198291319Y-86115095D02*
X198767509Y-86067476D01*
X198767509Y-86067476D02*
X198719890Y-86115095D01*
X198719890Y-86115095D02*
X198672271Y-86210333D01*
X198672271Y-86210333D02*
X198672271Y-86448428D01*
X198672271Y-86448428D02*
X198719890Y-86543666D01*
X198719890Y-86543666D02*
X198767509Y-86591285D01*
X198767509Y-86591285D02*
X198862747Y-86638904D01*
X198862747Y-86638904D02*
X199100842Y-86638904D01*
X199100842Y-86638904D02*
X199196080Y-86591285D01*
X199196080Y-86591285D02*
X199243700Y-86543666D01*
X199243700Y-86543666D02*
X199291319Y-86448428D01*
X199291319Y-86448428D02*
X199291319Y-86210333D01*
X199291319Y-86210333D02*
X199243700Y-86115095D01*
X199243700Y-86115095D02*
X199196080Y-86067476D01*
X198971319Y-88925095D02*
X197971319Y-88925095D01*
X198971319Y-89496523D02*
X198399890Y-89067952D01*
X197971319Y-89496523D02*
X198542747Y-88925095D01*
%TO.C,D36*%
X218335319Y-84162714D02*
X217335319Y-84162714D01*
X217335319Y-84162714D02*
X217335319Y-84400809D01*
X217335319Y-84400809D02*
X217382938Y-84543666D01*
X217382938Y-84543666D02*
X217478176Y-84638904D01*
X217478176Y-84638904D02*
X217573414Y-84686523D01*
X217573414Y-84686523D02*
X217763890Y-84734142D01*
X217763890Y-84734142D02*
X217906747Y-84734142D01*
X217906747Y-84734142D02*
X218097223Y-84686523D01*
X218097223Y-84686523D02*
X218192461Y-84638904D01*
X218192461Y-84638904D02*
X218287700Y-84543666D01*
X218287700Y-84543666D02*
X218335319Y-84400809D01*
X218335319Y-84400809D02*
X218335319Y-84162714D01*
X217335319Y-85067476D02*
X217335319Y-85686523D01*
X217335319Y-85686523D02*
X217716271Y-85353190D01*
X217716271Y-85353190D02*
X217716271Y-85496047D01*
X217716271Y-85496047D02*
X217763890Y-85591285D01*
X217763890Y-85591285D02*
X217811509Y-85638904D01*
X217811509Y-85638904D02*
X217906747Y-85686523D01*
X217906747Y-85686523D02*
X218144842Y-85686523D01*
X218144842Y-85686523D02*
X218240080Y-85638904D01*
X218240080Y-85638904D02*
X218287700Y-85591285D01*
X218287700Y-85591285D02*
X218335319Y-85496047D01*
X218335319Y-85496047D02*
X218335319Y-85210333D01*
X218335319Y-85210333D02*
X218287700Y-85115095D01*
X218287700Y-85115095D02*
X218240080Y-85067476D01*
X217335319Y-86543666D02*
X217335319Y-86353190D01*
X217335319Y-86353190D02*
X217382938Y-86257952D01*
X217382938Y-86257952D02*
X217430557Y-86210333D01*
X217430557Y-86210333D02*
X217573414Y-86115095D01*
X217573414Y-86115095D02*
X217763890Y-86067476D01*
X217763890Y-86067476D02*
X218144842Y-86067476D01*
X218144842Y-86067476D02*
X218240080Y-86115095D01*
X218240080Y-86115095D02*
X218287700Y-86162714D01*
X218287700Y-86162714D02*
X218335319Y-86257952D01*
X218335319Y-86257952D02*
X218335319Y-86448428D01*
X218335319Y-86448428D02*
X218287700Y-86543666D01*
X218287700Y-86543666D02*
X218240080Y-86591285D01*
X218240080Y-86591285D02*
X218144842Y-86638904D01*
X218144842Y-86638904D02*
X217906747Y-86638904D01*
X217906747Y-86638904D02*
X217811509Y-86591285D01*
X217811509Y-86591285D02*
X217763890Y-86543666D01*
X217763890Y-86543666D02*
X217716271Y-86448428D01*
X217716271Y-86448428D02*
X217716271Y-86257952D01*
X217716271Y-86257952D02*
X217763890Y-86162714D01*
X217763890Y-86162714D02*
X217811509Y-86115095D01*
X217811509Y-86115095D02*
X217906747Y-86067476D01*
X218015319Y-88925095D02*
X217015319Y-88925095D01*
X218015319Y-89496523D02*
X217443890Y-89067952D01*
X217015319Y-89496523D02*
X217586747Y-88925095D01*
%TO.C,D4*%
X104071319Y-65437405D02*
X103071319Y-65437405D01*
X103071319Y-65437405D02*
X103071319Y-65675500D01*
X103071319Y-65675500D02*
X103118938Y-65818357D01*
X103118938Y-65818357D02*
X103214176Y-65913595D01*
X103214176Y-65913595D02*
X103309414Y-65961214D01*
X103309414Y-65961214D02*
X103499890Y-66008833D01*
X103499890Y-66008833D02*
X103642747Y-66008833D01*
X103642747Y-66008833D02*
X103833223Y-65961214D01*
X103833223Y-65961214D02*
X103928461Y-65913595D01*
X103928461Y-65913595D02*
X104023700Y-65818357D01*
X104023700Y-65818357D02*
X104071319Y-65675500D01*
X104071319Y-65675500D02*
X104071319Y-65437405D01*
X103404652Y-66865976D02*
X104071319Y-66865976D01*
X103023700Y-66627881D02*
X103737985Y-66389786D01*
X103737985Y-66389786D02*
X103737985Y-67008833D01*
X103751319Y-69723595D02*
X102751319Y-69723595D01*
X103751319Y-70295023D02*
X103179890Y-69866452D01*
X102751319Y-70295023D02*
X103322747Y-69723595D01*
%TO.C,D45*%
X175486319Y-122093214D02*
X174486319Y-122093214D01*
X174486319Y-122093214D02*
X174486319Y-122331309D01*
X174486319Y-122331309D02*
X174533938Y-122474166D01*
X174533938Y-122474166D02*
X174629176Y-122569404D01*
X174629176Y-122569404D02*
X174724414Y-122617023D01*
X174724414Y-122617023D02*
X174914890Y-122664642D01*
X174914890Y-122664642D02*
X175057747Y-122664642D01*
X175057747Y-122664642D02*
X175248223Y-122617023D01*
X175248223Y-122617023D02*
X175343461Y-122569404D01*
X175343461Y-122569404D02*
X175438700Y-122474166D01*
X175438700Y-122474166D02*
X175486319Y-122331309D01*
X175486319Y-122331309D02*
X175486319Y-122093214D01*
X174819652Y-123521785D02*
X175486319Y-123521785D01*
X174438700Y-123283690D02*
X175152985Y-123045595D01*
X175152985Y-123045595D02*
X175152985Y-123664642D01*
X174486319Y-124521785D02*
X174486319Y-124045595D01*
X174486319Y-124045595D02*
X174962509Y-123997976D01*
X174962509Y-123997976D02*
X174914890Y-124045595D01*
X174914890Y-124045595D02*
X174867271Y-124140833D01*
X174867271Y-124140833D02*
X174867271Y-124378928D01*
X174867271Y-124378928D02*
X174914890Y-124474166D01*
X174914890Y-124474166D02*
X174962509Y-124521785D01*
X174962509Y-124521785D02*
X175057747Y-124569404D01*
X175057747Y-124569404D02*
X175295842Y-124569404D01*
X175295842Y-124569404D02*
X175391080Y-124521785D01*
X175391080Y-124521785D02*
X175438700Y-124474166D01*
X175438700Y-124474166D02*
X175486319Y-124378928D01*
X175486319Y-124378928D02*
X175486319Y-124140833D01*
X175486319Y-124140833D02*
X175438700Y-124045595D01*
X175438700Y-124045595D02*
X175391080Y-123997976D01*
X175166319Y-126855595D02*
X174166319Y-126855595D01*
X175166319Y-127427023D02*
X174594890Y-126998452D01*
X174166319Y-127427023D02*
X174737747Y-126855595D01*
%TO.C,D18*%
X132637319Y-40677714D02*
X131637319Y-40677714D01*
X131637319Y-40677714D02*
X131637319Y-40915809D01*
X131637319Y-40915809D02*
X131684938Y-41058666D01*
X131684938Y-41058666D02*
X131780176Y-41153904D01*
X131780176Y-41153904D02*
X131875414Y-41201523D01*
X131875414Y-41201523D02*
X132065890Y-41249142D01*
X132065890Y-41249142D02*
X132208747Y-41249142D01*
X132208747Y-41249142D02*
X132399223Y-41201523D01*
X132399223Y-41201523D02*
X132494461Y-41153904D01*
X132494461Y-41153904D02*
X132589700Y-41058666D01*
X132589700Y-41058666D02*
X132637319Y-40915809D01*
X132637319Y-40915809D02*
X132637319Y-40677714D01*
X132637319Y-42201523D02*
X132637319Y-41630095D01*
X132637319Y-41915809D02*
X131637319Y-41915809D01*
X131637319Y-41915809D02*
X131780176Y-41820571D01*
X131780176Y-41820571D02*
X131875414Y-41725333D01*
X131875414Y-41725333D02*
X131923033Y-41630095D01*
X132065890Y-42772952D02*
X132018271Y-42677714D01*
X132018271Y-42677714D02*
X131970652Y-42630095D01*
X131970652Y-42630095D02*
X131875414Y-42582476D01*
X131875414Y-42582476D02*
X131827795Y-42582476D01*
X131827795Y-42582476D02*
X131732557Y-42630095D01*
X131732557Y-42630095D02*
X131684938Y-42677714D01*
X131684938Y-42677714D02*
X131637319Y-42772952D01*
X131637319Y-42772952D02*
X131637319Y-42963428D01*
X131637319Y-42963428D02*
X131684938Y-43058666D01*
X131684938Y-43058666D02*
X131732557Y-43106285D01*
X131732557Y-43106285D02*
X131827795Y-43153904D01*
X131827795Y-43153904D02*
X131875414Y-43153904D01*
X131875414Y-43153904D02*
X131970652Y-43106285D01*
X131970652Y-43106285D02*
X132018271Y-43058666D01*
X132018271Y-43058666D02*
X132065890Y-42963428D01*
X132065890Y-42963428D02*
X132065890Y-42772952D01*
X132065890Y-42772952D02*
X132113509Y-42677714D01*
X132113509Y-42677714D02*
X132161128Y-42630095D01*
X132161128Y-42630095D02*
X132256366Y-42582476D01*
X132256366Y-42582476D02*
X132446842Y-42582476D01*
X132446842Y-42582476D02*
X132542080Y-42630095D01*
X132542080Y-42630095D02*
X132589700Y-42677714D01*
X132589700Y-42677714D02*
X132637319Y-42772952D01*
X132637319Y-42772952D02*
X132637319Y-42963428D01*
X132637319Y-42963428D02*
X132589700Y-43058666D01*
X132589700Y-43058666D02*
X132542080Y-43106285D01*
X132542080Y-43106285D02*
X132446842Y-43153904D01*
X132446842Y-43153904D02*
X132256366Y-43153904D01*
X132256366Y-43153904D02*
X132161128Y-43106285D01*
X132161128Y-43106285D02*
X132113509Y-43058666D01*
X132113509Y-43058666D02*
X132065890Y-42963428D01*
X132317319Y-45440095D02*
X131317319Y-45440095D01*
X132317319Y-46011523D02*
X131745890Y-45582952D01*
X131317319Y-46011523D02*
X131888747Y-45440095D01*
%TO.C,D51*%
X159616319Y-141294714D02*
X158616319Y-141294714D01*
X158616319Y-141294714D02*
X158616319Y-141532809D01*
X158616319Y-141532809D02*
X158663938Y-141675666D01*
X158663938Y-141675666D02*
X158759176Y-141770904D01*
X158759176Y-141770904D02*
X158854414Y-141818523D01*
X158854414Y-141818523D02*
X159044890Y-141866142D01*
X159044890Y-141866142D02*
X159187747Y-141866142D01*
X159187747Y-141866142D02*
X159378223Y-141818523D01*
X159378223Y-141818523D02*
X159473461Y-141770904D01*
X159473461Y-141770904D02*
X159568700Y-141675666D01*
X159568700Y-141675666D02*
X159616319Y-141532809D01*
X159616319Y-141532809D02*
X159616319Y-141294714D01*
X158616319Y-142770904D02*
X158616319Y-142294714D01*
X158616319Y-142294714D02*
X159092509Y-142247095D01*
X159092509Y-142247095D02*
X159044890Y-142294714D01*
X159044890Y-142294714D02*
X158997271Y-142389952D01*
X158997271Y-142389952D02*
X158997271Y-142628047D01*
X158997271Y-142628047D02*
X159044890Y-142723285D01*
X159044890Y-142723285D02*
X159092509Y-142770904D01*
X159092509Y-142770904D02*
X159187747Y-142818523D01*
X159187747Y-142818523D02*
X159425842Y-142818523D01*
X159425842Y-142818523D02*
X159521080Y-142770904D01*
X159521080Y-142770904D02*
X159568700Y-142723285D01*
X159568700Y-142723285D02*
X159616319Y-142628047D01*
X159616319Y-142628047D02*
X159616319Y-142389952D01*
X159616319Y-142389952D02*
X159568700Y-142294714D01*
X159568700Y-142294714D02*
X159521080Y-142247095D01*
X159616319Y-143770904D02*
X159616319Y-143199476D01*
X159616319Y-143485190D02*
X158616319Y-143485190D01*
X158616319Y-143485190D02*
X158759176Y-143389952D01*
X158759176Y-143389952D02*
X158854414Y-143294714D01*
X158854414Y-143294714D02*
X158902033Y-143199476D01*
X159296319Y-146057095D02*
X158296319Y-146057095D01*
X159296319Y-146628523D02*
X158724890Y-146199952D01*
X158296319Y-146628523D02*
X158867747Y-146057095D01*
%TO.C,D28*%
X189769319Y-64961214D02*
X188769319Y-64961214D01*
X188769319Y-64961214D02*
X188769319Y-65199309D01*
X188769319Y-65199309D02*
X188816938Y-65342166D01*
X188816938Y-65342166D02*
X188912176Y-65437404D01*
X188912176Y-65437404D02*
X189007414Y-65485023D01*
X189007414Y-65485023D02*
X189197890Y-65532642D01*
X189197890Y-65532642D02*
X189340747Y-65532642D01*
X189340747Y-65532642D02*
X189531223Y-65485023D01*
X189531223Y-65485023D02*
X189626461Y-65437404D01*
X189626461Y-65437404D02*
X189721700Y-65342166D01*
X189721700Y-65342166D02*
X189769319Y-65199309D01*
X189769319Y-65199309D02*
X189769319Y-64961214D01*
X188864557Y-65913595D02*
X188816938Y-65961214D01*
X188816938Y-65961214D02*
X188769319Y-66056452D01*
X188769319Y-66056452D02*
X188769319Y-66294547D01*
X188769319Y-66294547D02*
X188816938Y-66389785D01*
X188816938Y-66389785D02*
X188864557Y-66437404D01*
X188864557Y-66437404D02*
X188959795Y-66485023D01*
X188959795Y-66485023D02*
X189055033Y-66485023D01*
X189055033Y-66485023D02*
X189197890Y-66437404D01*
X189197890Y-66437404D02*
X189769319Y-65865976D01*
X189769319Y-65865976D02*
X189769319Y-66485023D01*
X189197890Y-67056452D02*
X189150271Y-66961214D01*
X189150271Y-66961214D02*
X189102652Y-66913595D01*
X189102652Y-66913595D02*
X189007414Y-66865976D01*
X189007414Y-66865976D02*
X188959795Y-66865976D01*
X188959795Y-66865976D02*
X188864557Y-66913595D01*
X188864557Y-66913595D02*
X188816938Y-66961214D01*
X188816938Y-66961214D02*
X188769319Y-67056452D01*
X188769319Y-67056452D02*
X188769319Y-67246928D01*
X188769319Y-67246928D02*
X188816938Y-67342166D01*
X188816938Y-67342166D02*
X188864557Y-67389785D01*
X188864557Y-67389785D02*
X188959795Y-67437404D01*
X188959795Y-67437404D02*
X189007414Y-67437404D01*
X189007414Y-67437404D02*
X189102652Y-67389785D01*
X189102652Y-67389785D02*
X189150271Y-67342166D01*
X189150271Y-67342166D02*
X189197890Y-67246928D01*
X189197890Y-67246928D02*
X189197890Y-67056452D01*
X189197890Y-67056452D02*
X189245509Y-66961214D01*
X189245509Y-66961214D02*
X189293128Y-66913595D01*
X189293128Y-66913595D02*
X189388366Y-66865976D01*
X189388366Y-66865976D02*
X189578842Y-66865976D01*
X189578842Y-66865976D02*
X189674080Y-66913595D01*
X189674080Y-66913595D02*
X189721700Y-66961214D01*
X189721700Y-66961214D02*
X189769319Y-67056452D01*
X189769319Y-67056452D02*
X189769319Y-67246928D01*
X189769319Y-67246928D02*
X189721700Y-67342166D01*
X189721700Y-67342166D02*
X189674080Y-67389785D01*
X189674080Y-67389785D02*
X189578842Y-67437404D01*
X189578842Y-67437404D02*
X189388366Y-67437404D01*
X189388366Y-67437404D02*
X189293128Y-67389785D01*
X189293128Y-67389785D02*
X189245509Y-67342166D01*
X189245509Y-67342166D02*
X189197890Y-67246928D01*
X189449319Y-69723595D02*
X188449319Y-69723595D01*
X189449319Y-70295023D02*
X188877890Y-69866452D01*
X188449319Y-70295023D02*
X189020747Y-69723595D01*
%TO.C,D42*%
X223096319Y-103049214D02*
X222096319Y-103049214D01*
X222096319Y-103049214D02*
X222096319Y-103287309D01*
X222096319Y-103287309D02*
X222143938Y-103430166D01*
X222143938Y-103430166D02*
X222239176Y-103525404D01*
X222239176Y-103525404D02*
X222334414Y-103573023D01*
X222334414Y-103573023D02*
X222524890Y-103620642D01*
X222524890Y-103620642D02*
X222667747Y-103620642D01*
X222667747Y-103620642D02*
X222858223Y-103573023D01*
X222858223Y-103573023D02*
X222953461Y-103525404D01*
X222953461Y-103525404D02*
X223048700Y-103430166D01*
X223048700Y-103430166D02*
X223096319Y-103287309D01*
X223096319Y-103287309D02*
X223096319Y-103049214D01*
X222429652Y-104477785D02*
X223096319Y-104477785D01*
X222048700Y-104239690D02*
X222762985Y-104001595D01*
X222762985Y-104001595D02*
X222762985Y-104620642D01*
X222191557Y-104953976D02*
X222143938Y-105001595D01*
X222143938Y-105001595D02*
X222096319Y-105096833D01*
X222096319Y-105096833D02*
X222096319Y-105334928D01*
X222096319Y-105334928D02*
X222143938Y-105430166D01*
X222143938Y-105430166D02*
X222191557Y-105477785D01*
X222191557Y-105477785D02*
X222286795Y-105525404D01*
X222286795Y-105525404D02*
X222382033Y-105525404D01*
X222382033Y-105525404D02*
X222524890Y-105477785D01*
X222524890Y-105477785D02*
X223096319Y-104906357D01*
X223096319Y-104906357D02*
X223096319Y-105525404D01*
X222776319Y-107811595D02*
X221776319Y-107811595D01*
X222776319Y-108383023D02*
X222204890Y-107954452D01*
X221776319Y-108383023D02*
X222347747Y-107811595D01*
%TO.C,D3*%
X85027319Y-65437405D02*
X84027319Y-65437405D01*
X84027319Y-65437405D02*
X84027319Y-65675500D01*
X84027319Y-65675500D02*
X84074938Y-65818357D01*
X84074938Y-65818357D02*
X84170176Y-65913595D01*
X84170176Y-65913595D02*
X84265414Y-65961214D01*
X84265414Y-65961214D02*
X84455890Y-66008833D01*
X84455890Y-66008833D02*
X84598747Y-66008833D01*
X84598747Y-66008833D02*
X84789223Y-65961214D01*
X84789223Y-65961214D02*
X84884461Y-65913595D01*
X84884461Y-65913595D02*
X84979700Y-65818357D01*
X84979700Y-65818357D02*
X85027319Y-65675500D01*
X85027319Y-65675500D02*
X85027319Y-65437405D01*
X84027319Y-66342167D02*
X84027319Y-66961214D01*
X84027319Y-66961214D02*
X84408271Y-66627881D01*
X84408271Y-66627881D02*
X84408271Y-66770738D01*
X84408271Y-66770738D02*
X84455890Y-66865976D01*
X84455890Y-66865976D02*
X84503509Y-66913595D01*
X84503509Y-66913595D02*
X84598747Y-66961214D01*
X84598747Y-66961214D02*
X84836842Y-66961214D01*
X84836842Y-66961214D02*
X84932080Y-66913595D01*
X84932080Y-66913595D02*
X84979700Y-66865976D01*
X84979700Y-66865976D02*
X85027319Y-66770738D01*
X85027319Y-66770738D02*
X85027319Y-66485024D01*
X85027319Y-66485024D02*
X84979700Y-66389786D01*
X84979700Y-66389786D02*
X84932080Y-66342167D01*
X84707319Y-69723595D02*
X83707319Y-69723595D01*
X84707319Y-70295023D02*
X84135890Y-69866452D01*
X83707319Y-70295023D02*
X84278747Y-69723595D01*
%TO.C,D24*%
X239694285Y-46244819D02*
X239694285Y-45244819D01*
X239694285Y-45244819D02*
X239456190Y-45244819D01*
X239456190Y-45244819D02*
X239313333Y-45292438D01*
X239313333Y-45292438D02*
X239218095Y-45387676D01*
X239218095Y-45387676D02*
X239170476Y-45482914D01*
X239170476Y-45482914D02*
X239122857Y-45673390D01*
X239122857Y-45673390D02*
X239122857Y-45816247D01*
X239122857Y-45816247D02*
X239170476Y-46006723D01*
X239170476Y-46006723D02*
X239218095Y-46101961D01*
X239218095Y-46101961D02*
X239313333Y-46197200D01*
X239313333Y-46197200D02*
X239456190Y-46244819D01*
X239456190Y-46244819D02*
X239694285Y-46244819D01*
X238741904Y-45340057D02*
X238694285Y-45292438D01*
X238694285Y-45292438D02*
X238599047Y-45244819D01*
X238599047Y-45244819D02*
X238360952Y-45244819D01*
X238360952Y-45244819D02*
X238265714Y-45292438D01*
X238265714Y-45292438D02*
X238218095Y-45340057D01*
X238218095Y-45340057D02*
X238170476Y-45435295D01*
X238170476Y-45435295D02*
X238170476Y-45530533D01*
X238170476Y-45530533D02*
X238218095Y-45673390D01*
X238218095Y-45673390D02*
X238789523Y-46244819D01*
X238789523Y-46244819D02*
X238170476Y-46244819D01*
X237313333Y-45578152D02*
X237313333Y-46244819D01*
X237551428Y-45197200D02*
X237789523Y-45911485D01*
X237789523Y-45911485D02*
X237170476Y-45911485D01*
X234931904Y-45924819D02*
X234931904Y-44924819D01*
X234360476Y-45924819D02*
X234789047Y-45353390D01*
X234360476Y-44924819D02*
X234931904Y-45496247D01*
%TO.C,D44*%
X156442319Y-122093214D02*
X155442319Y-122093214D01*
X155442319Y-122093214D02*
X155442319Y-122331309D01*
X155442319Y-122331309D02*
X155489938Y-122474166D01*
X155489938Y-122474166D02*
X155585176Y-122569404D01*
X155585176Y-122569404D02*
X155680414Y-122617023D01*
X155680414Y-122617023D02*
X155870890Y-122664642D01*
X155870890Y-122664642D02*
X156013747Y-122664642D01*
X156013747Y-122664642D02*
X156204223Y-122617023D01*
X156204223Y-122617023D02*
X156299461Y-122569404D01*
X156299461Y-122569404D02*
X156394700Y-122474166D01*
X156394700Y-122474166D02*
X156442319Y-122331309D01*
X156442319Y-122331309D02*
X156442319Y-122093214D01*
X155775652Y-123521785D02*
X156442319Y-123521785D01*
X155394700Y-123283690D02*
X156108985Y-123045595D01*
X156108985Y-123045595D02*
X156108985Y-123664642D01*
X155775652Y-124474166D02*
X156442319Y-124474166D01*
X155394700Y-124236071D02*
X156108985Y-123997976D01*
X156108985Y-123997976D02*
X156108985Y-124617023D01*
X156122319Y-126855595D02*
X155122319Y-126855595D01*
X156122319Y-127427023D02*
X155550890Y-126998452D01*
X155122319Y-127427023D02*
X155693747Y-126855595D01*
%TO.C,D8*%
X46939319Y-91220655D02*
X45939319Y-91220655D01*
X45939319Y-91220655D02*
X45939319Y-91458750D01*
X45939319Y-91458750D02*
X45986938Y-91601607D01*
X45986938Y-91601607D02*
X46082176Y-91696845D01*
X46082176Y-91696845D02*
X46177414Y-91744464D01*
X46177414Y-91744464D02*
X46367890Y-91792083D01*
X46367890Y-91792083D02*
X46510747Y-91792083D01*
X46510747Y-91792083D02*
X46701223Y-91744464D01*
X46701223Y-91744464D02*
X46796461Y-91696845D01*
X46796461Y-91696845D02*
X46891700Y-91601607D01*
X46891700Y-91601607D02*
X46939319Y-91458750D01*
X46939319Y-91458750D02*
X46939319Y-91220655D01*
X46367890Y-92363512D02*
X46320271Y-92268274D01*
X46320271Y-92268274D02*
X46272652Y-92220655D01*
X46272652Y-92220655D02*
X46177414Y-92173036D01*
X46177414Y-92173036D02*
X46129795Y-92173036D01*
X46129795Y-92173036D02*
X46034557Y-92220655D01*
X46034557Y-92220655D02*
X45986938Y-92268274D01*
X45986938Y-92268274D02*
X45939319Y-92363512D01*
X45939319Y-92363512D02*
X45939319Y-92553988D01*
X45939319Y-92553988D02*
X45986938Y-92649226D01*
X45986938Y-92649226D02*
X46034557Y-92696845D01*
X46034557Y-92696845D02*
X46129795Y-92744464D01*
X46129795Y-92744464D02*
X46177414Y-92744464D01*
X46177414Y-92744464D02*
X46272652Y-92696845D01*
X46272652Y-92696845D02*
X46320271Y-92649226D01*
X46320271Y-92649226D02*
X46367890Y-92553988D01*
X46367890Y-92553988D02*
X46367890Y-92363512D01*
X46367890Y-92363512D02*
X46415509Y-92268274D01*
X46415509Y-92268274D02*
X46463128Y-92220655D01*
X46463128Y-92220655D02*
X46558366Y-92173036D01*
X46558366Y-92173036D02*
X46748842Y-92173036D01*
X46748842Y-92173036D02*
X46844080Y-92220655D01*
X46844080Y-92220655D02*
X46891700Y-92268274D01*
X46891700Y-92268274D02*
X46939319Y-92363512D01*
X46939319Y-92363512D02*
X46939319Y-92553988D01*
X46939319Y-92553988D02*
X46891700Y-92649226D01*
X46891700Y-92649226D02*
X46844080Y-92696845D01*
X46844080Y-92696845D02*
X46748842Y-92744464D01*
X46748842Y-92744464D02*
X46558366Y-92744464D01*
X46558366Y-92744464D02*
X46463128Y-92696845D01*
X46463128Y-92696845D02*
X46415509Y-92649226D01*
X46415509Y-92649226D02*
X46367890Y-92553988D01*
X46619319Y-95506845D02*
X45619319Y-95506845D01*
X46619319Y-96078273D02*
X46047890Y-95649702D01*
X45619319Y-96078273D02*
X46190747Y-95506845D01*
%TO.C,D47*%
X213574319Y-122093214D02*
X212574319Y-122093214D01*
X212574319Y-122093214D02*
X212574319Y-122331309D01*
X212574319Y-122331309D02*
X212621938Y-122474166D01*
X212621938Y-122474166D02*
X212717176Y-122569404D01*
X212717176Y-122569404D02*
X212812414Y-122617023D01*
X212812414Y-122617023D02*
X213002890Y-122664642D01*
X213002890Y-122664642D02*
X213145747Y-122664642D01*
X213145747Y-122664642D02*
X213336223Y-122617023D01*
X213336223Y-122617023D02*
X213431461Y-122569404D01*
X213431461Y-122569404D02*
X213526700Y-122474166D01*
X213526700Y-122474166D02*
X213574319Y-122331309D01*
X213574319Y-122331309D02*
X213574319Y-122093214D01*
X212907652Y-123521785D02*
X213574319Y-123521785D01*
X212526700Y-123283690D02*
X213240985Y-123045595D01*
X213240985Y-123045595D02*
X213240985Y-123664642D01*
X212574319Y-123950357D02*
X212574319Y-124617023D01*
X212574319Y-124617023D02*
X213574319Y-124188452D01*
X213254319Y-126855595D02*
X212254319Y-126855595D01*
X213254319Y-127427023D02*
X212682890Y-126998452D01*
X212254319Y-127427023D02*
X212825747Y-126855595D01*
%TO.C,D37*%
X237379319Y-84162714D02*
X236379319Y-84162714D01*
X236379319Y-84162714D02*
X236379319Y-84400809D01*
X236379319Y-84400809D02*
X236426938Y-84543666D01*
X236426938Y-84543666D02*
X236522176Y-84638904D01*
X236522176Y-84638904D02*
X236617414Y-84686523D01*
X236617414Y-84686523D02*
X236807890Y-84734142D01*
X236807890Y-84734142D02*
X236950747Y-84734142D01*
X236950747Y-84734142D02*
X237141223Y-84686523D01*
X237141223Y-84686523D02*
X237236461Y-84638904D01*
X237236461Y-84638904D02*
X237331700Y-84543666D01*
X237331700Y-84543666D02*
X237379319Y-84400809D01*
X237379319Y-84400809D02*
X237379319Y-84162714D01*
X236379319Y-85067476D02*
X236379319Y-85686523D01*
X236379319Y-85686523D02*
X236760271Y-85353190D01*
X236760271Y-85353190D02*
X236760271Y-85496047D01*
X236760271Y-85496047D02*
X236807890Y-85591285D01*
X236807890Y-85591285D02*
X236855509Y-85638904D01*
X236855509Y-85638904D02*
X236950747Y-85686523D01*
X236950747Y-85686523D02*
X237188842Y-85686523D01*
X237188842Y-85686523D02*
X237284080Y-85638904D01*
X237284080Y-85638904D02*
X237331700Y-85591285D01*
X237331700Y-85591285D02*
X237379319Y-85496047D01*
X237379319Y-85496047D02*
X237379319Y-85210333D01*
X237379319Y-85210333D02*
X237331700Y-85115095D01*
X237331700Y-85115095D02*
X237284080Y-85067476D01*
X236379319Y-86019857D02*
X236379319Y-86686523D01*
X236379319Y-86686523D02*
X237379319Y-86257952D01*
X237059319Y-88925095D02*
X236059319Y-88925095D01*
X237059319Y-89496523D02*
X236487890Y-89067952D01*
X236059319Y-89496523D02*
X236630747Y-88925095D01*
%TO.C,D14*%
X104071319Y-122093214D02*
X103071319Y-122093214D01*
X103071319Y-122093214D02*
X103071319Y-122331309D01*
X103071319Y-122331309D02*
X103118938Y-122474166D01*
X103118938Y-122474166D02*
X103214176Y-122569404D01*
X103214176Y-122569404D02*
X103309414Y-122617023D01*
X103309414Y-122617023D02*
X103499890Y-122664642D01*
X103499890Y-122664642D02*
X103642747Y-122664642D01*
X103642747Y-122664642D02*
X103833223Y-122617023D01*
X103833223Y-122617023D02*
X103928461Y-122569404D01*
X103928461Y-122569404D02*
X104023700Y-122474166D01*
X104023700Y-122474166D02*
X104071319Y-122331309D01*
X104071319Y-122331309D02*
X104071319Y-122093214D01*
X104071319Y-123617023D02*
X104071319Y-123045595D01*
X104071319Y-123331309D02*
X103071319Y-123331309D01*
X103071319Y-123331309D02*
X103214176Y-123236071D01*
X103214176Y-123236071D02*
X103309414Y-123140833D01*
X103309414Y-123140833D02*
X103357033Y-123045595D01*
X103404652Y-124474166D02*
X104071319Y-124474166D01*
X103023700Y-124236071D02*
X103737985Y-123997976D01*
X103737985Y-123997976D02*
X103737985Y-124617023D01*
X103751319Y-126855595D02*
X102751319Y-126855595D01*
X103751319Y-127427023D02*
X103179890Y-126998452D01*
X102751319Y-127427023D02*
X103322747Y-126855595D01*
%TO.C,D20*%
X170725319Y-40677714D02*
X169725319Y-40677714D01*
X169725319Y-40677714D02*
X169725319Y-40915809D01*
X169725319Y-40915809D02*
X169772938Y-41058666D01*
X169772938Y-41058666D02*
X169868176Y-41153904D01*
X169868176Y-41153904D02*
X169963414Y-41201523D01*
X169963414Y-41201523D02*
X170153890Y-41249142D01*
X170153890Y-41249142D02*
X170296747Y-41249142D01*
X170296747Y-41249142D02*
X170487223Y-41201523D01*
X170487223Y-41201523D02*
X170582461Y-41153904D01*
X170582461Y-41153904D02*
X170677700Y-41058666D01*
X170677700Y-41058666D02*
X170725319Y-40915809D01*
X170725319Y-40915809D02*
X170725319Y-40677714D01*
X169820557Y-41630095D02*
X169772938Y-41677714D01*
X169772938Y-41677714D02*
X169725319Y-41772952D01*
X169725319Y-41772952D02*
X169725319Y-42011047D01*
X169725319Y-42011047D02*
X169772938Y-42106285D01*
X169772938Y-42106285D02*
X169820557Y-42153904D01*
X169820557Y-42153904D02*
X169915795Y-42201523D01*
X169915795Y-42201523D02*
X170011033Y-42201523D01*
X170011033Y-42201523D02*
X170153890Y-42153904D01*
X170153890Y-42153904D02*
X170725319Y-41582476D01*
X170725319Y-41582476D02*
X170725319Y-42201523D01*
X169725319Y-42820571D02*
X169725319Y-42915809D01*
X169725319Y-42915809D02*
X169772938Y-43011047D01*
X169772938Y-43011047D02*
X169820557Y-43058666D01*
X169820557Y-43058666D02*
X169915795Y-43106285D01*
X169915795Y-43106285D02*
X170106271Y-43153904D01*
X170106271Y-43153904D02*
X170344366Y-43153904D01*
X170344366Y-43153904D02*
X170534842Y-43106285D01*
X170534842Y-43106285D02*
X170630080Y-43058666D01*
X170630080Y-43058666D02*
X170677700Y-43011047D01*
X170677700Y-43011047D02*
X170725319Y-42915809D01*
X170725319Y-42915809D02*
X170725319Y-42820571D01*
X170725319Y-42820571D02*
X170677700Y-42725333D01*
X170677700Y-42725333D02*
X170630080Y-42677714D01*
X170630080Y-42677714D02*
X170534842Y-42630095D01*
X170534842Y-42630095D02*
X170344366Y-42582476D01*
X170344366Y-42582476D02*
X170106271Y-42582476D01*
X170106271Y-42582476D02*
X169915795Y-42630095D01*
X169915795Y-42630095D02*
X169820557Y-42677714D01*
X169820557Y-42677714D02*
X169772938Y-42725333D01*
X169772938Y-42725333D02*
X169725319Y-42820571D01*
X170405319Y-45440095D02*
X169405319Y-45440095D01*
X170405319Y-46011523D02*
X169833890Y-45582952D01*
X169405319Y-46011523D02*
X169976747Y-45440095D01*
%TO.C,D19*%
X151681319Y-40677714D02*
X150681319Y-40677714D01*
X150681319Y-40677714D02*
X150681319Y-40915809D01*
X150681319Y-40915809D02*
X150728938Y-41058666D01*
X150728938Y-41058666D02*
X150824176Y-41153904D01*
X150824176Y-41153904D02*
X150919414Y-41201523D01*
X150919414Y-41201523D02*
X151109890Y-41249142D01*
X151109890Y-41249142D02*
X151252747Y-41249142D01*
X151252747Y-41249142D02*
X151443223Y-41201523D01*
X151443223Y-41201523D02*
X151538461Y-41153904D01*
X151538461Y-41153904D02*
X151633700Y-41058666D01*
X151633700Y-41058666D02*
X151681319Y-40915809D01*
X151681319Y-40915809D02*
X151681319Y-40677714D01*
X151681319Y-42201523D02*
X151681319Y-41630095D01*
X151681319Y-41915809D02*
X150681319Y-41915809D01*
X150681319Y-41915809D02*
X150824176Y-41820571D01*
X150824176Y-41820571D02*
X150919414Y-41725333D01*
X150919414Y-41725333D02*
X150967033Y-41630095D01*
X151681319Y-42677714D02*
X151681319Y-42868190D01*
X151681319Y-42868190D02*
X151633700Y-42963428D01*
X151633700Y-42963428D02*
X151586080Y-43011047D01*
X151586080Y-43011047D02*
X151443223Y-43106285D01*
X151443223Y-43106285D02*
X151252747Y-43153904D01*
X151252747Y-43153904D02*
X150871795Y-43153904D01*
X150871795Y-43153904D02*
X150776557Y-43106285D01*
X150776557Y-43106285D02*
X150728938Y-43058666D01*
X150728938Y-43058666D02*
X150681319Y-42963428D01*
X150681319Y-42963428D02*
X150681319Y-42772952D01*
X150681319Y-42772952D02*
X150728938Y-42677714D01*
X150728938Y-42677714D02*
X150776557Y-42630095D01*
X150776557Y-42630095D02*
X150871795Y-42582476D01*
X150871795Y-42582476D02*
X151109890Y-42582476D01*
X151109890Y-42582476D02*
X151205128Y-42630095D01*
X151205128Y-42630095D02*
X151252747Y-42677714D01*
X151252747Y-42677714D02*
X151300366Y-42772952D01*
X151300366Y-42772952D02*
X151300366Y-42963428D01*
X151300366Y-42963428D02*
X151252747Y-43058666D01*
X151252747Y-43058666D02*
X151205128Y-43106285D01*
X151205128Y-43106285D02*
X151109890Y-43153904D01*
X151361319Y-45440095D02*
X150361319Y-45440095D01*
X151361319Y-46011523D02*
X150789890Y-45582952D01*
X150361319Y-46011523D02*
X150932747Y-45440095D01*
%TO.C,D21*%
X189769319Y-40677714D02*
X188769319Y-40677714D01*
X188769319Y-40677714D02*
X188769319Y-40915809D01*
X188769319Y-40915809D02*
X188816938Y-41058666D01*
X188816938Y-41058666D02*
X188912176Y-41153904D01*
X188912176Y-41153904D02*
X189007414Y-41201523D01*
X189007414Y-41201523D02*
X189197890Y-41249142D01*
X189197890Y-41249142D02*
X189340747Y-41249142D01*
X189340747Y-41249142D02*
X189531223Y-41201523D01*
X189531223Y-41201523D02*
X189626461Y-41153904D01*
X189626461Y-41153904D02*
X189721700Y-41058666D01*
X189721700Y-41058666D02*
X189769319Y-40915809D01*
X189769319Y-40915809D02*
X189769319Y-40677714D01*
X188864557Y-41630095D02*
X188816938Y-41677714D01*
X188816938Y-41677714D02*
X188769319Y-41772952D01*
X188769319Y-41772952D02*
X188769319Y-42011047D01*
X188769319Y-42011047D02*
X188816938Y-42106285D01*
X188816938Y-42106285D02*
X188864557Y-42153904D01*
X188864557Y-42153904D02*
X188959795Y-42201523D01*
X188959795Y-42201523D02*
X189055033Y-42201523D01*
X189055033Y-42201523D02*
X189197890Y-42153904D01*
X189197890Y-42153904D02*
X189769319Y-41582476D01*
X189769319Y-41582476D02*
X189769319Y-42201523D01*
X189769319Y-43153904D02*
X189769319Y-42582476D01*
X189769319Y-42868190D02*
X188769319Y-42868190D01*
X188769319Y-42868190D02*
X188912176Y-42772952D01*
X188912176Y-42772952D02*
X189007414Y-42677714D01*
X189007414Y-42677714D02*
X189055033Y-42582476D01*
X189449319Y-45440095D02*
X188449319Y-45440095D01*
X189449319Y-46011523D02*
X188877890Y-45582952D01*
X188449319Y-46011523D02*
X189020747Y-45440095D01*
%TO.C,D7*%
X104071319Y-84638905D02*
X103071319Y-84638905D01*
X103071319Y-84638905D02*
X103071319Y-84877000D01*
X103071319Y-84877000D02*
X103118938Y-85019857D01*
X103118938Y-85019857D02*
X103214176Y-85115095D01*
X103214176Y-85115095D02*
X103309414Y-85162714D01*
X103309414Y-85162714D02*
X103499890Y-85210333D01*
X103499890Y-85210333D02*
X103642747Y-85210333D01*
X103642747Y-85210333D02*
X103833223Y-85162714D01*
X103833223Y-85162714D02*
X103928461Y-85115095D01*
X103928461Y-85115095D02*
X104023700Y-85019857D01*
X104023700Y-85019857D02*
X104071319Y-84877000D01*
X104071319Y-84877000D02*
X104071319Y-84638905D01*
X103071319Y-85543667D02*
X103071319Y-86210333D01*
X103071319Y-86210333D02*
X104071319Y-85781762D01*
X103751319Y-88925095D02*
X102751319Y-88925095D01*
X103751319Y-89496523D02*
X103179890Y-89067952D01*
X102751319Y-89496523D02*
X103322747Y-88925095D01*
%TO.C,D39*%
X165964319Y-103049214D02*
X164964319Y-103049214D01*
X164964319Y-103049214D02*
X164964319Y-103287309D01*
X164964319Y-103287309D02*
X165011938Y-103430166D01*
X165011938Y-103430166D02*
X165107176Y-103525404D01*
X165107176Y-103525404D02*
X165202414Y-103573023D01*
X165202414Y-103573023D02*
X165392890Y-103620642D01*
X165392890Y-103620642D02*
X165535747Y-103620642D01*
X165535747Y-103620642D02*
X165726223Y-103573023D01*
X165726223Y-103573023D02*
X165821461Y-103525404D01*
X165821461Y-103525404D02*
X165916700Y-103430166D01*
X165916700Y-103430166D02*
X165964319Y-103287309D01*
X165964319Y-103287309D02*
X165964319Y-103049214D01*
X164964319Y-103953976D02*
X164964319Y-104573023D01*
X164964319Y-104573023D02*
X165345271Y-104239690D01*
X165345271Y-104239690D02*
X165345271Y-104382547D01*
X165345271Y-104382547D02*
X165392890Y-104477785D01*
X165392890Y-104477785D02*
X165440509Y-104525404D01*
X165440509Y-104525404D02*
X165535747Y-104573023D01*
X165535747Y-104573023D02*
X165773842Y-104573023D01*
X165773842Y-104573023D02*
X165869080Y-104525404D01*
X165869080Y-104525404D02*
X165916700Y-104477785D01*
X165916700Y-104477785D02*
X165964319Y-104382547D01*
X165964319Y-104382547D02*
X165964319Y-104096833D01*
X165964319Y-104096833D02*
X165916700Y-104001595D01*
X165916700Y-104001595D02*
X165869080Y-103953976D01*
X165964319Y-105049214D02*
X165964319Y-105239690D01*
X165964319Y-105239690D02*
X165916700Y-105334928D01*
X165916700Y-105334928D02*
X165869080Y-105382547D01*
X165869080Y-105382547D02*
X165726223Y-105477785D01*
X165726223Y-105477785D02*
X165535747Y-105525404D01*
X165535747Y-105525404D02*
X165154795Y-105525404D01*
X165154795Y-105525404D02*
X165059557Y-105477785D01*
X165059557Y-105477785D02*
X165011938Y-105430166D01*
X165011938Y-105430166D02*
X164964319Y-105334928D01*
X164964319Y-105334928D02*
X164964319Y-105144452D01*
X164964319Y-105144452D02*
X165011938Y-105049214D01*
X165011938Y-105049214D02*
X165059557Y-105001595D01*
X165059557Y-105001595D02*
X165154795Y-104953976D01*
X165154795Y-104953976D02*
X165392890Y-104953976D01*
X165392890Y-104953976D02*
X165488128Y-105001595D01*
X165488128Y-105001595D02*
X165535747Y-105049214D01*
X165535747Y-105049214D02*
X165583366Y-105144452D01*
X165583366Y-105144452D02*
X165583366Y-105334928D01*
X165583366Y-105334928D02*
X165535747Y-105430166D01*
X165535747Y-105430166D02*
X165488128Y-105477785D01*
X165488128Y-105477785D02*
X165392890Y-105525404D01*
X165644319Y-107811595D02*
X164644319Y-107811595D01*
X165644319Y-108383023D02*
X165072890Y-107954452D01*
X164644319Y-108383023D02*
X165215747Y-107811595D01*
%TO.C,D49*%
X251662319Y-122093214D02*
X250662319Y-122093214D01*
X250662319Y-122093214D02*
X250662319Y-122331309D01*
X250662319Y-122331309D02*
X250709938Y-122474166D01*
X250709938Y-122474166D02*
X250805176Y-122569404D01*
X250805176Y-122569404D02*
X250900414Y-122617023D01*
X250900414Y-122617023D02*
X251090890Y-122664642D01*
X251090890Y-122664642D02*
X251233747Y-122664642D01*
X251233747Y-122664642D02*
X251424223Y-122617023D01*
X251424223Y-122617023D02*
X251519461Y-122569404D01*
X251519461Y-122569404D02*
X251614700Y-122474166D01*
X251614700Y-122474166D02*
X251662319Y-122331309D01*
X251662319Y-122331309D02*
X251662319Y-122093214D01*
X250995652Y-123521785D02*
X251662319Y-123521785D01*
X250614700Y-123283690D02*
X251328985Y-123045595D01*
X251328985Y-123045595D02*
X251328985Y-123664642D01*
X251662319Y-124093214D02*
X251662319Y-124283690D01*
X251662319Y-124283690D02*
X251614700Y-124378928D01*
X251614700Y-124378928D02*
X251567080Y-124426547D01*
X251567080Y-124426547D02*
X251424223Y-124521785D01*
X251424223Y-124521785D02*
X251233747Y-124569404D01*
X251233747Y-124569404D02*
X250852795Y-124569404D01*
X250852795Y-124569404D02*
X250757557Y-124521785D01*
X250757557Y-124521785D02*
X250709938Y-124474166D01*
X250709938Y-124474166D02*
X250662319Y-124378928D01*
X250662319Y-124378928D02*
X250662319Y-124188452D01*
X250662319Y-124188452D02*
X250709938Y-124093214D01*
X250709938Y-124093214D02*
X250757557Y-124045595D01*
X250757557Y-124045595D02*
X250852795Y-123997976D01*
X250852795Y-123997976D02*
X251090890Y-123997976D01*
X251090890Y-123997976D02*
X251186128Y-124045595D01*
X251186128Y-124045595D02*
X251233747Y-124093214D01*
X251233747Y-124093214D02*
X251281366Y-124188452D01*
X251281366Y-124188452D02*
X251281366Y-124378928D01*
X251281366Y-124378928D02*
X251233747Y-124474166D01*
X251233747Y-124474166D02*
X251186128Y-124521785D01*
X251186128Y-124521785D02*
X251090890Y-124569404D01*
X251342319Y-126855595D02*
X250342319Y-126855595D01*
X251342319Y-127427023D02*
X250770890Y-126998452D01*
X250342319Y-127427023D02*
X250913747Y-126855595D01*
%TO.C,D10*%
X85027319Y-103049214D02*
X84027319Y-103049214D01*
X84027319Y-103049214D02*
X84027319Y-103287309D01*
X84027319Y-103287309D02*
X84074938Y-103430166D01*
X84074938Y-103430166D02*
X84170176Y-103525404D01*
X84170176Y-103525404D02*
X84265414Y-103573023D01*
X84265414Y-103573023D02*
X84455890Y-103620642D01*
X84455890Y-103620642D02*
X84598747Y-103620642D01*
X84598747Y-103620642D02*
X84789223Y-103573023D01*
X84789223Y-103573023D02*
X84884461Y-103525404D01*
X84884461Y-103525404D02*
X84979700Y-103430166D01*
X84979700Y-103430166D02*
X85027319Y-103287309D01*
X85027319Y-103287309D02*
X85027319Y-103049214D01*
X85027319Y-104573023D02*
X85027319Y-104001595D01*
X85027319Y-104287309D02*
X84027319Y-104287309D01*
X84027319Y-104287309D02*
X84170176Y-104192071D01*
X84170176Y-104192071D02*
X84265414Y-104096833D01*
X84265414Y-104096833D02*
X84313033Y-104001595D01*
X84027319Y-105192071D02*
X84027319Y-105287309D01*
X84027319Y-105287309D02*
X84074938Y-105382547D01*
X84074938Y-105382547D02*
X84122557Y-105430166D01*
X84122557Y-105430166D02*
X84217795Y-105477785D01*
X84217795Y-105477785D02*
X84408271Y-105525404D01*
X84408271Y-105525404D02*
X84646366Y-105525404D01*
X84646366Y-105525404D02*
X84836842Y-105477785D01*
X84836842Y-105477785D02*
X84932080Y-105430166D01*
X84932080Y-105430166D02*
X84979700Y-105382547D01*
X84979700Y-105382547D02*
X85027319Y-105287309D01*
X85027319Y-105287309D02*
X85027319Y-105192071D01*
X85027319Y-105192071D02*
X84979700Y-105096833D01*
X84979700Y-105096833D02*
X84932080Y-105049214D01*
X84932080Y-105049214D02*
X84836842Y-105001595D01*
X84836842Y-105001595D02*
X84646366Y-104953976D01*
X84646366Y-104953976D02*
X84408271Y-104953976D01*
X84408271Y-104953976D02*
X84217795Y-105001595D01*
X84217795Y-105001595D02*
X84122557Y-105049214D01*
X84122557Y-105049214D02*
X84074938Y-105096833D01*
X84074938Y-105096833D02*
X84027319Y-105192071D01*
X84707319Y-107811595D02*
X83707319Y-107811595D01*
X84707319Y-108383023D02*
X84135890Y-107954452D01*
X83707319Y-108383023D02*
X84278747Y-107811595D01*
%TO.C,D29*%
X208813319Y-64961214D02*
X207813319Y-64961214D01*
X207813319Y-64961214D02*
X207813319Y-65199309D01*
X207813319Y-65199309D02*
X207860938Y-65342166D01*
X207860938Y-65342166D02*
X207956176Y-65437404D01*
X207956176Y-65437404D02*
X208051414Y-65485023D01*
X208051414Y-65485023D02*
X208241890Y-65532642D01*
X208241890Y-65532642D02*
X208384747Y-65532642D01*
X208384747Y-65532642D02*
X208575223Y-65485023D01*
X208575223Y-65485023D02*
X208670461Y-65437404D01*
X208670461Y-65437404D02*
X208765700Y-65342166D01*
X208765700Y-65342166D02*
X208813319Y-65199309D01*
X208813319Y-65199309D02*
X208813319Y-64961214D01*
X207908557Y-65913595D02*
X207860938Y-65961214D01*
X207860938Y-65961214D02*
X207813319Y-66056452D01*
X207813319Y-66056452D02*
X207813319Y-66294547D01*
X207813319Y-66294547D02*
X207860938Y-66389785D01*
X207860938Y-66389785D02*
X207908557Y-66437404D01*
X207908557Y-66437404D02*
X208003795Y-66485023D01*
X208003795Y-66485023D02*
X208099033Y-66485023D01*
X208099033Y-66485023D02*
X208241890Y-66437404D01*
X208241890Y-66437404D02*
X208813319Y-65865976D01*
X208813319Y-65865976D02*
X208813319Y-66485023D01*
X208813319Y-66961214D02*
X208813319Y-67151690D01*
X208813319Y-67151690D02*
X208765700Y-67246928D01*
X208765700Y-67246928D02*
X208718080Y-67294547D01*
X208718080Y-67294547D02*
X208575223Y-67389785D01*
X208575223Y-67389785D02*
X208384747Y-67437404D01*
X208384747Y-67437404D02*
X208003795Y-67437404D01*
X208003795Y-67437404D02*
X207908557Y-67389785D01*
X207908557Y-67389785D02*
X207860938Y-67342166D01*
X207860938Y-67342166D02*
X207813319Y-67246928D01*
X207813319Y-67246928D02*
X207813319Y-67056452D01*
X207813319Y-67056452D02*
X207860938Y-66961214D01*
X207860938Y-66961214D02*
X207908557Y-66913595D01*
X207908557Y-66913595D02*
X208003795Y-66865976D01*
X208003795Y-66865976D02*
X208241890Y-66865976D01*
X208241890Y-66865976D02*
X208337128Y-66913595D01*
X208337128Y-66913595D02*
X208384747Y-66961214D01*
X208384747Y-66961214D02*
X208432366Y-67056452D01*
X208432366Y-67056452D02*
X208432366Y-67246928D01*
X208432366Y-67246928D02*
X208384747Y-67342166D01*
X208384747Y-67342166D02*
X208337128Y-67389785D01*
X208337128Y-67389785D02*
X208241890Y-67437404D01*
X208493319Y-69723595D02*
X207493319Y-69723595D01*
X208493319Y-70295023D02*
X207921890Y-69866452D01*
X207493319Y-70295023D02*
X208064747Y-69723595D01*
%TO.C,D32*%
X138191819Y-84162714D02*
X137191819Y-84162714D01*
X137191819Y-84162714D02*
X137191819Y-84400809D01*
X137191819Y-84400809D02*
X137239438Y-84543666D01*
X137239438Y-84543666D02*
X137334676Y-84638904D01*
X137334676Y-84638904D02*
X137429914Y-84686523D01*
X137429914Y-84686523D02*
X137620390Y-84734142D01*
X137620390Y-84734142D02*
X137763247Y-84734142D01*
X137763247Y-84734142D02*
X137953723Y-84686523D01*
X137953723Y-84686523D02*
X138048961Y-84638904D01*
X138048961Y-84638904D02*
X138144200Y-84543666D01*
X138144200Y-84543666D02*
X138191819Y-84400809D01*
X138191819Y-84400809D02*
X138191819Y-84162714D01*
X137191819Y-85067476D02*
X137191819Y-85686523D01*
X137191819Y-85686523D02*
X137572771Y-85353190D01*
X137572771Y-85353190D02*
X137572771Y-85496047D01*
X137572771Y-85496047D02*
X137620390Y-85591285D01*
X137620390Y-85591285D02*
X137668009Y-85638904D01*
X137668009Y-85638904D02*
X137763247Y-85686523D01*
X137763247Y-85686523D02*
X138001342Y-85686523D01*
X138001342Y-85686523D02*
X138096580Y-85638904D01*
X138096580Y-85638904D02*
X138144200Y-85591285D01*
X138144200Y-85591285D02*
X138191819Y-85496047D01*
X138191819Y-85496047D02*
X138191819Y-85210333D01*
X138191819Y-85210333D02*
X138144200Y-85115095D01*
X138144200Y-85115095D02*
X138096580Y-85067476D01*
X137287057Y-86067476D02*
X137239438Y-86115095D01*
X137239438Y-86115095D02*
X137191819Y-86210333D01*
X137191819Y-86210333D02*
X137191819Y-86448428D01*
X137191819Y-86448428D02*
X137239438Y-86543666D01*
X137239438Y-86543666D02*
X137287057Y-86591285D01*
X137287057Y-86591285D02*
X137382295Y-86638904D01*
X137382295Y-86638904D02*
X137477533Y-86638904D01*
X137477533Y-86638904D02*
X137620390Y-86591285D01*
X137620390Y-86591285D02*
X138191819Y-86019857D01*
X138191819Y-86019857D02*
X138191819Y-86638904D01*
X137871819Y-88925095D02*
X136871819Y-88925095D01*
X137871819Y-89496523D02*
X137300390Y-89067952D01*
X136871819Y-89496523D02*
X137443247Y-88925095D01*
%TO.C,D41*%
X204052319Y-103049214D02*
X203052319Y-103049214D01*
X203052319Y-103049214D02*
X203052319Y-103287309D01*
X203052319Y-103287309D02*
X203099938Y-103430166D01*
X203099938Y-103430166D02*
X203195176Y-103525404D01*
X203195176Y-103525404D02*
X203290414Y-103573023D01*
X203290414Y-103573023D02*
X203480890Y-103620642D01*
X203480890Y-103620642D02*
X203623747Y-103620642D01*
X203623747Y-103620642D02*
X203814223Y-103573023D01*
X203814223Y-103573023D02*
X203909461Y-103525404D01*
X203909461Y-103525404D02*
X204004700Y-103430166D01*
X204004700Y-103430166D02*
X204052319Y-103287309D01*
X204052319Y-103287309D02*
X204052319Y-103049214D01*
X203385652Y-104477785D02*
X204052319Y-104477785D01*
X203004700Y-104239690D02*
X203718985Y-104001595D01*
X203718985Y-104001595D02*
X203718985Y-104620642D01*
X204052319Y-105525404D02*
X204052319Y-104953976D01*
X204052319Y-105239690D02*
X203052319Y-105239690D01*
X203052319Y-105239690D02*
X203195176Y-105144452D01*
X203195176Y-105144452D02*
X203290414Y-105049214D01*
X203290414Y-105049214D02*
X203338033Y-104953976D01*
X203732319Y-107811595D02*
X202732319Y-107811595D01*
X203732319Y-108383023D02*
X203160890Y-107954452D01*
X202732319Y-108383023D02*
X203303747Y-107811595D01*
%TO.C,D17*%
X104071319Y-136294714D02*
X103071319Y-136294714D01*
X103071319Y-136294714D02*
X103071319Y-136532809D01*
X103071319Y-136532809D02*
X103118938Y-136675666D01*
X103118938Y-136675666D02*
X103214176Y-136770904D01*
X103214176Y-136770904D02*
X103309414Y-136818523D01*
X103309414Y-136818523D02*
X103499890Y-136866142D01*
X103499890Y-136866142D02*
X103642747Y-136866142D01*
X103642747Y-136866142D02*
X103833223Y-136818523D01*
X103833223Y-136818523D02*
X103928461Y-136770904D01*
X103928461Y-136770904D02*
X104023700Y-136675666D01*
X104023700Y-136675666D02*
X104071319Y-136532809D01*
X104071319Y-136532809D02*
X104071319Y-136294714D01*
X104071319Y-137818523D02*
X104071319Y-137247095D01*
X104071319Y-137532809D02*
X103071319Y-137532809D01*
X103071319Y-137532809D02*
X103214176Y-137437571D01*
X103214176Y-137437571D02*
X103309414Y-137342333D01*
X103309414Y-137342333D02*
X103357033Y-137247095D01*
X103071319Y-138151857D02*
X103071319Y-138818523D01*
X103071319Y-138818523D02*
X104071319Y-138389952D01*
X103751319Y-141057095D02*
X102751319Y-141057095D01*
X103751319Y-141628523D02*
X103179890Y-141199952D01*
X102751319Y-141628523D02*
X103322747Y-141057095D01*
%TO.C,D34*%
X180247319Y-84162714D02*
X179247319Y-84162714D01*
X179247319Y-84162714D02*
X179247319Y-84400809D01*
X179247319Y-84400809D02*
X179294938Y-84543666D01*
X179294938Y-84543666D02*
X179390176Y-84638904D01*
X179390176Y-84638904D02*
X179485414Y-84686523D01*
X179485414Y-84686523D02*
X179675890Y-84734142D01*
X179675890Y-84734142D02*
X179818747Y-84734142D01*
X179818747Y-84734142D02*
X180009223Y-84686523D01*
X180009223Y-84686523D02*
X180104461Y-84638904D01*
X180104461Y-84638904D02*
X180199700Y-84543666D01*
X180199700Y-84543666D02*
X180247319Y-84400809D01*
X180247319Y-84400809D02*
X180247319Y-84162714D01*
X179247319Y-85067476D02*
X179247319Y-85686523D01*
X179247319Y-85686523D02*
X179628271Y-85353190D01*
X179628271Y-85353190D02*
X179628271Y-85496047D01*
X179628271Y-85496047D02*
X179675890Y-85591285D01*
X179675890Y-85591285D02*
X179723509Y-85638904D01*
X179723509Y-85638904D02*
X179818747Y-85686523D01*
X179818747Y-85686523D02*
X180056842Y-85686523D01*
X180056842Y-85686523D02*
X180152080Y-85638904D01*
X180152080Y-85638904D02*
X180199700Y-85591285D01*
X180199700Y-85591285D02*
X180247319Y-85496047D01*
X180247319Y-85496047D02*
X180247319Y-85210333D01*
X180247319Y-85210333D02*
X180199700Y-85115095D01*
X180199700Y-85115095D02*
X180152080Y-85067476D01*
X179580652Y-86543666D02*
X180247319Y-86543666D01*
X179199700Y-86305571D02*
X179913985Y-86067476D01*
X179913985Y-86067476D02*
X179913985Y-86686523D01*
X179927319Y-88925095D02*
X178927319Y-88925095D01*
X179927319Y-89496523D02*
X179355890Y-89067952D01*
X178927319Y-89496523D02*
X179498747Y-88925095D01*
%TO.C,D5*%
X65983319Y-84638905D02*
X64983319Y-84638905D01*
X64983319Y-84638905D02*
X64983319Y-84877000D01*
X64983319Y-84877000D02*
X65030938Y-85019857D01*
X65030938Y-85019857D02*
X65126176Y-85115095D01*
X65126176Y-85115095D02*
X65221414Y-85162714D01*
X65221414Y-85162714D02*
X65411890Y-85210333D01*
X65411890Y-85210333D02*
X65554747Y-85210333D01*
X65554747Y-85210333D02*
X65745223Y-85162714D01*
X65745223Y-85162714D02*
X65840461Y-85115095D01*
X65840461Y-85115095D02*
X65935700Y-85019857D01*
X65935700Y-85019857D02*
X65983319Y-84877000D01*
X65983319Y-84877000D02*
X65983319Y-84638905D01*
X64983319Y-86115095D02*
X64983319Y-85638905D01*
X64983319Y-85638905D02*
X65459509Y-85591286D01*
X65459509Y-85591286D02*
X65411890Y-85638905D01*
X65411890Y-85638905D02*
X65364271Y-85734143D01*
X65364271Y-85734143D02*
X65364271Y-85972238D01*
X65364271Y-85972238D02*
X65411890Y-86067476D01*
X65411890Y-86067476D02*
X65459509Y-86115095D01*
X65459509Y-86115095D02*
X65554747Y-86162714D01*
X65554747Y-86162714D02*
X65792842Y-86162714D01*
X65792842Y-86162714D02*
X65888080Y-86115095D01*
X65888080Y-86115095D02*
X65935700Y-86067476D01*
X65935700Y-86067476D02*
X65983319Y-85972238D01*
X65983319Y-85972238D02*
X65983319Y-85734143D01*
X65983319Y-85734143D02*
X65935700Y-85638905D01*
X65935700Y-85638905D02*
X65888080Y-85591286D01*
X65663319Y-88925095D02*
X64663319Y-88925095D01*
X65663319Y-89496523D02*
X65091890Y-89067952D01*
X64663319Y-89496523D02*
X65234747Y-88925095D01*
%TO.C,D16*%
X65983319Y-141294714D02*
X64983319Y-141294714D01*
X64983319Y-141294714D02*
X64983319Y-141532809D01*
X64983319Y-141532809D02*
X65030938Y-141675666D01*
X65030938Y-141675666D02*
X65126176Y-141770904D01*
X65126176Y-141770904D02*
X65221414Y-141818523D01*
X65221414Y-141818523D02*
X65411890Y-141866142D01*
X65411890Y-141866142D02*
X65554747Y-141866142D01*
X65554747Y-141866142D02*
X65745223Y-141818523D01*
X65745223Y-141818523D02*
X65840461Y-141770904D01*
X65840461Y-141770904D02*
X65935700Y-141675666D01*
X65935700Y-141675666D02*
X65983319Y-141532809D01*
X65983319Y-141532809D02*
X65983319Y-141294714D01*
X65983319Y-142818523D02*
X65983319Y-142247095D01*
X65983319Y-142532809D02*
X64983319Y-142532809D01*
X64983319Y-142532809D02*
X65126176Y-142437571D01*
X65126176Y-142437571D02*
X65221414Y-142342333D01*
X65221414Y-142342333D02*
X65269033Y-142247095D01*
X64983319Y-143675666D02*
X64983319Y-143485190D01*
X64983319Y-143485190D02*
X65030938Y-143389952D01*
X65030938Y-143389952D02*
X65078557Y-143342333D01*
X65078557Y-143342333D02*
X65221414Y-143247095D01*
X65221414Y-143247095D02*
X65411890Y-143199476D01*
X65411890Y-143199476D02*
X65792842Y-143199476D01*
X65792842Y-143199476D02*
X65888080Y-143247095D01*
X65888080Y-143247095D02*
X65935700Y-143294714D01*
X65935700Y-143294714D02*
X65983319Y-143389952D01*
X65983319Y-143389952D02*
X65983319Y-143580428D01*
X65983319Y-143580428D02*
X65935700Y-143675666D01*
X65935700Y-143675666D02*
X65888080Y-143723285D01*
X65888080Y-143723285D02*
X65792842Y-143770904D01*
X65792842Y-143770904D02*
X65554747Y-143770904D01*
X65554747Y-143770904D02*
X65459509Y-143723285D01*
X65459509Y-143723285D02*
X65411890Y-143675666D01*
X65411890Y-143675666D02*
X65364271Y-143580428D01*
X65364271Y-143580428D02*
X65364271Y-143389952D01*
X65364271Y-143389952D02*
X65411890Y-143294714D01*
X65411890Y-143294714D02*
X65459509Y-143247095D01*
X65459509Y-143247095D02*
X65554747Y-143199476D01*
X65663319Y-146057095D02*
X64663319Y-146057095D01*
X65663319Y-146628523D02*
X65091890Y-146199952D01*
X64663319Y-146628523D02*
X65234747Y-146057095D01*
%TO.C,D15*%
X41634069Y-141294714D02*
X40634069Y-141294714D01*
X40634069Y-141294714D02*
X40634069Y-141532809D01*
X40634069Y-141532809D02*
X40681688Y-141675666D01*
X40681688Y-141675666D02*
X40776926Y-141770904D01*
X40776926Y-141770904D02*
X40872164Y-141818523D01*
X40872164Y-141818523D02*
X41062640Y-141866142D01*
X41062640Y-141866142D02*
X41205497Y-141866142D01*
X41205497Y-141866142D02*
X41395973Y-141818523D01*
X41395973Y-141818523D02*
X41491211Y-141770904D01*
X41491211Y-141770904D02*
X41586450Y-141675666D01*
X41586450Y-141675666D02*
X41634069Y-141532809D01*
X41634069Y-141532809D02*
X41634069Y-141294714D01*
X41634069Y-142818523D02*
X41634069Y-142247095D01*
X41634069Y-142532809D02*
X40634069Y-142532809D01*
X40634069Y-142532809D02*
X40776926Y-142437571D01*
X40776926Y-142437571D02*
X40872164Y-142342333D01*
X40872164Y-142342333D02*
X40919783Y-142247095D01*
X40634069Y-143723285D02*
X40634069Y-143247095D01*
X40634069Y-143247095D02*
X41110259Y-143199476D01*
X41110259Y-143199476D02*
X41062640Y-143247095D01*
X41062640Y-143247095D02*
X41015021Y-143342333D01*
X41015021Y-143342333D02*
X41015021Y-143580428D01*
X41015021Y-143580428D02*
X41062640Y-143675666D01*
X41062640Y-143675666D02*
X41110259Y-143723285D01*
X41110259Y-143723285D02*
X41205497Y-143770904D01*
X41205497Y-143770904D02*
X41443592Y-143770904D01*
X41443592Y-143770904D02*
X41538830Y-143723285D01*
X41538830Y-143723285D02*
X41586450Y-143675666D01*
X41586450Y-143675666D02*
X41634069Y-143580428D01*
X41634069Y-143580428D02*
X41634069Y-143342333D01*
X41634069Y-143342333D02*
X41586450Y-143247095D01*
X41586450Y-143247095D02*
X41538830Y-143199476D01*
X41314069Y-146057095D02*
X40314069Y-146057095D01*
X41314069Y-146628523D02*
X40742640Y-146199952D01*
X40314069Y-146628523D02*
X40885497Y-146057095D01*
%TO.C,D9*%
X65983319Y-103525405D02*
X64983319Y-103525405D01*
X64983319Y-103525405D02*
X64983319Y-103763500D01*
X64983319Y-103763500D02*
X65030938Y-103906357D01*
X65030938Y-103906357D02*
X65126176Y-104001595D01*
X65126176Y-104001595D02*
X65221414Y-104049214D01*
X65221414Y-104049214D02*
X65411890Y-104096833D01*
X65411890Y-104096833D02*
X65554747Y-104096833D01*
X65554747Y-104096833D02*
X65745223Y-104049214D01*
X65745223Y-104049214D02*
X65840461Y-104001595D01*
X65840461Y-104001595D02*
X65935700Y-103906357D01*
X65935700Y-103906357D02*
X65983319Y-103763500D01*
X65983319Y-103763500D02*
X65983319Y-103525405D01*
X65983319Y-104573024D02*
X65983319Y-104763500D01*
X65983319Y-104763500D02*
X65935700Y-104858738D01*
X65935700Y-104858738D02*
X65888080Y-104906357D01*
X65888080Y-104906357D02*
X65745223Y-105001595D01*
X65745223Y-105001595D02*
X65554747Y-105049214D01*
X65554747Y-105049214D02*
X65173795Y-105049214D01*
X65173795Y-105049214D02*
X65078557Y-105001595D01*
X65078557Y-105001595D02*
X65030938Y-104953976D01*
X65030938Y-104953976D02*
X64983319Y-104858738D01*
X64983319Y-104858738D02*
X64983319Y-104668262D01*
X64983319Y-104668262D02*
X65030938Y-104573024D01*
X65030938Y-104573024D02*
X65078557Y-104525405D01*
X65078557Y-104525405D02*
X65173795Y-104477786D01*
X65173795Y-104477786D02*
X65411890Y-104477786D01*
X65411890Y-104477786D02*
X65507128Y-104525405D01*
X65507128Y-104525405D02*
X65554747Y-104573024D01*
X65554747Y-104573024D02*
X65602366Y-104668262D01*
X65602366Y-104668262D02*
X65602366Y-104858738D01*
X65602366Y-104858738D02*
X65554747Y-104953976D01*
X65554747Y-104953976D02*
X65507128Y-105001595D01*
X65507128Y-105001595D02*
X65411890Y-105049214D01*
X65663319Y-107811595D02*
X64663319Y-107811595D01*
X65663319Y-108383023D02*
X65091890Y-107954452D01*
X64663319Y-108383023D02*
X65234747Y-107811595D01*
%TO.C,D27*%
X170725319Y-64961214D02*
X169725319Y-64961214D01*
X169725319Y-64961214D02*
X169725319Y-65199309D01*
X169725319Y-65199309D02*
X169772938Y-65342166D01*
X169772938Y-65342166D02*
X169868176Y-65437404D01*
X169868176Y-65437404D02*
X169963414Y-65485023D01*
X169963414Y-65485023D02*
X170153890Y-65532642D01*
X170153890Y-65532642D02*
X170296747Y-65532642D01*
X170296747Y-65532642D02*
X170487223Y-65485023D01*
X170487223Y-65485023D02*
X170582461Y-65437404D01*
X170582461Y-65437404D02*
X170677700Y-65342166D01*
X170677700Y-65342166D02*
X170725319Y-65199309D01*
X170725319Y-65199309D02*
X170725319Y-64961214D01*
X169820557Y-65913595D02*
X169772938Y-65961214D01*
X169772938Y-65961214D02*
X169725319Y-66056452D01*
X169725319Y-66056452D02*
X169725319Y-66294547D01*
X169725319Y-66294547D02*
X169772938Y-66389785D01*
X169772938Y-66389785D02*
X169820557Y-66437404D01*
X169820557Y-66437404D02*
X169915795Y-66485023D01*
X169915795Y-66485023D02*
X170011033Y-66485023D01*
X170011033Y-66485023D02*
X170153890Y-66437404D01*
X170153890Y-66437404D02*
X170725319Y-65865976D01*
X170725319Y-65865976D02*
X170725319Y-66485023D01*
X169725319Y-66818357D02*
X169725319Y-67485023D01*
X169725319Y-67485023D02*
X170725319Y-67056452D01*
X170405319Y-69723595D02*
X169405319Y-69723595D01*
X170405319Y-70295023D02*
X169833890Y-69866452D01*
X169405319Y-70295023D02*
X169976747Y-69723595D01*
%TO.C,D6*%
X85027319Y-84638905D02*
X84027319Y-84638905D01*
X84027319Y-84638905D02*
X84027319Y-84877000D01*
X84027319Y-84877000D02*
X84074938Y-85019857D01*
X84074938Y-85019857D02*
X84170176Y-85115095D01*
X84170176Y-85115095D02*
X84265414Y-85162714D01*
X84265414Y-85162714D02*
X84455890Y-85210333D01*
X84455890Y-85210333D02*
X84598747Y-85210333D01*
X84598747Y-85210333D02*
X84789223Y-85162714D01*
X84789223Y-85162714D02*
X84884461Y-85115095D01*
X84884461Y-85115095D02*
X84979700Y-85019857D01*
X84979700Y-85019857D02*
X85027319Y-84877000D01*
X85027319Y-84877000D02*
X85027319Y-84638905D01*
X84027319Y-86067476D02*
X84027319Y-85877000D01*
X84027319Y-85877000D02*
X84074938Y-85781762D01*
X84074938Y-85781762D02*
X84122557Y-85734143D01*
X84122557Y-85734143D02*
X84265414Y-85638905D01*
X84265414Y-85638905D02*
X84455890Y-85591286D01*
X84455890Y-85591286D02*
X84836842Y-85591286D01*
X84836842Y-85591286D02*
X84932080Y-85638905D01*
X84932080Y-85638905D02*
X84979700Y-85686524D01*
X84979700Y-85686524D02*
X85027319Y-85781762D01*
X85027319Y-85781762D02*
X85027319Y-85972238D01*
X85027319Y-85972238D02*
X84979700Y-86067476D01*
X84979700Y-86067476D02*
X84932080Y-86115095D01*
X84932080Y-86115095D02*
X84836842Y-86162714D01*
X84836842Y-86162714D02*
X84598747Y-86162714D01*
X84598747Y-86162714D02*
X84503509Y-86115095D01*
X84503509Y-86115095D02*
X84455890Y-86067476D01*
X84455890Y-86067476D02*
X84408271Y-85972238D01*
X84408271Y-85972238D02*
X84408271Y-85781762D01*
X84408271Y-85781762D02*
X84455890Y-85686524D01*
X84455890Y-85686524D02*
X84503509Y-85638905D01*
X84503509Y-85638905D02*
X84598747Y-85591286D01*
X84707319Y-88925095D02*
X83707319Y-88925095D01*
X84707319Y-89496523D02*
X84135890Y-89067952D01*
X83707319Y-89496523D02*
X84278747Y-88925095D01*
%TO.C,D43*%
X242140319Y-103049214D02*
X241140319Y-103049214D01*
X241140319Y-103049214D02*
X241140319Y-103287309D01*
X241140319Y-103287309D02*
X241187938Y-103430166D01*
X241187938Y-103430166D02*
X241283176Y-103525404D01*
X241283176Y-103525404D02*
X241378414Y-103573023D01*
X241378414Y-103573023D02*
X241568890Y-103620642D01*
X241568890Y-103620642D02*
X241711747Y-103620642D01*
X241711747Y-103620642D02*
X241902223Y-103573023D01*
X241902223Y-103573023D02*
X241997461Y-103525404D01*
X241997461Y-103525404D02*
X242092700Y-103430166D01*
X242092700Y-103430166D02*
X242140319Y-103287309D01*
X242140319Y-103287309D02*
X242140319Y-103049214D01*
X241473652Y-104477785D02*
X242140319Y-104477785D01*
X241092700Y-104239690D02*
X241806985Y-104001595D01*
X241806985Y-104001595D02*
X241806985Y-104620642D01*
X241140319Y-104906357D02*
X241140319Y-105525404D01*
X241140319Y-105525404D02*
X241521271Y-105192071D01*
X241521271Y-105192071D02*
X241521271Y-105334928D01*
X241521271Y-105334928D02*
X241568890Y-105430166D01*
X241568890Y-105430166D02*
X241616509Y-105477785D01*
X241616509Y-105477785D02*
X241711747Y-105525404D01*
X241711747Y-105525404D02*
X241949842Y-105525404D01*
X241949842Y-105525404D02*
X242045080Y-105477785D01*
X242045080Y-105477785D02*
X242092700Y-105430166D01*
X242092700Y-105430166D02*
X242140319Y-105334928D01*
X242140319Y-105334928D02*
X242140319Y-105049214D01*
X242140319Y-105049214D02*
X242092700Y-104953976D01*
X242092700Y-104953976D02*
X242045080Y-104906357D01*
X241820319Y-107811595D02*
X240820319Y-107811595D01*
X241820319Y-108383023D02*
X241248890Y-107954452D01*
X240820319Y-108383023D02*
X241391747Y-107811595D01*
%TO.C,D1*%
X46939319Y-65437405D02*
X45939319Y-65437405D01*
X45939319Y-65437405D02*
X45939319Y-65675500D01*
X45939319Y-65675500D02*
X45986938Y-65818357D01*
X45986938Y-65818357D02*
X46082176Y-65913595D01*
X46082176Y-65913595D02*
X46177414Y-65961214D01*
X46177414Y-65961214D02*
X46367890Y-66008833D01*
X46367890Y-66008833D02*
X46510747Y-66008833D01*
X46510747Y-66008833D02*
X46701223Y-65961214D01*
X46701223Y-65961214D02*
X46796461Y-65913595D01*
X46796461Y-65913595D02*
X46891700Y-65818357D01*
X46891700Y-65818357D02*
X46939319Y-65675500D01*
X46939319Y-65675500D02*
X46939319Y-65437405D01*
X46939319Y-66961214D02*
X46939319Y-66389786D01*
X46939319Y-66675500D02*
X45939319Y-66675500D01*
X45939319Y-66675500D02*
X46082176Y-66580262D01*
X46082176Y-66580262D02*
X46177414Y-66485024D01*
X46177414Y-66485024D02*
X46225033Y-66389786D01*
X46619319Y-69723595D02*
X45619319Y-69723595D01*
X46619319Y-70295023D02*
X46047890Y-69866452D01*
X45619319Y-70295023D02*
X46190747Y-69723595D01*
%TO.C,D11*%
X104071319Y-103049214D02*
X103071319Y-103049214D01*
X103071319Y-103049214D02*
X103071319Y-103287309D01*
X103071319Y-103287309D02*
X103118938Y-103430166D01*
X103118938Y-103430166D02*
X103214176Y-103525404D01*
X103214176Y-103525404D02*
X103309414Y-103573023D01*
X103309414Y-103573023D02*
X103499890Y-103620642D01*
X103499890Y-103620642D02*
X103642747Y-103620642D01*
X103642747Y-103620642D02*
X103833223Y-103573023D01*
X103833223Y-103573023D02*
X103928461Y-103525404D01*
X103928461Y-103525404D02*
X104023700Y-103430166D01*
X104023700Y-103430166D02*
X104071319Y-103287309D01*
X104071319Y-103287309D02*
X104071319Y-103049214D01*
X104071319Y-104573023D02*
X104071319Y-104001595D01*
X104071319Y-104287309D02*
X103071319Y-104287309D01*
X103071319Y-104287309D02*
X103214176Y-104192071D01*
X103214176Y-104192071D02*
X103309414Y-104096833D01*
X103309414Y-104096833D02*
X103357033Y-104001595D01*
X104071319Y-105525404D02*
X104071319Y-104953976D01*
X104071319Y-105239690D02*
X103071319Y-105239690D01*
X103071319Y-105239690D02*
X103214176Y-105144452D01*
X103214176Y-105144452D02*
X103309414Y-105049214D01*
X103309414Y-105049214D02*
X103357033Y-104953976D01*
X103751319Y-107811595D02*
X102751319Y-107811595D01*
X103751319Y-108383023D02*
X103179890Y-107954452D01*
X102751319Y-108383023D02*
X103322747Y-107811595D01*
%TO.C,RESET1*%
X80769250Y-42829500D02*
X80769250Y-47329500D01*
X80769250Y-47329500D02*
X87269250Y-47329500D01*
X87269250Y-42829500D02*
X80769250Y-42829500D01*
X87269250Y-47329500D02*
X87269250Y-42829500D01*
%TO.C,U1*%
X25970000Y-36890000D02*
X28510000Y-36890000D01*
X25970000Y-44510000D02*
X25970000Y-36890000D01*
X28510000Y-31810000D02*
X58990000Y-31810000D01*
X28510000Y-36890000D02*
X28510000Y-31810000D01*
X28510000Y-44510000D02*
X25970000Y-44510000D01*
X28510000Y-49590000D02*
X28510000Y-44510000D01*
X58990000Y-31810000D02*
X58990000Y-49590000D01*
X58990000Y-49590000D02*
X28510000Y-49590000D01*
D11*
%TO.C,D33*%
X158628500Y-88147000D02*
X158628500Y-87497000D01*
X157508500Y-87497000D02*
X157508500Y-83257000D01*
X159748500Y-87497000D02*
X157508500Y-87497000D01*
X159748500Y-86897000D02*
X157508500Y-86897000D01*
X159748500Y-86777000D02*
X157508500Y-86777000D01*
X159748500Y-86657000D02*
X157508500Y-86657000D01*
X157508500Y-83257000D02*
X159748500Y-83257000D01*
X159748500Y-83257000D02*
X159748500Y-87497000D01*
X158628500Y-82607000D02*
X158628500Y-83257000D01*
%TO.C,D38*%
X137997500Y-107033500D02*
X137997500Y-106383500D01*
X136877500Y-106383500D02*
X136877500Y-102143500D01*
X139117500Y-106383500D02*
X136877500Y-106383500D01*
X139117500Y-105783500D02*
X136877500Y-105783500D01*
X139117500Y-105663500D02*
X136877500Y-105663500D01*
X139117500Y-105543500D02*
X136877500Y-105543500D01*
X136877500Y-102143500D02*
X139117500Y-102143500D01*
X139117500Y-102143500D02*
X139117500Y-106383500D01*
X137997500Y-101493500D02*
X137997500Y-102143500D01*
%TO.C,D22*%
X206238500Y-44662000D02*
X206238500Y-44012000D01*
X205118500Y-44012000D02*
X205118500Y-39772000D01*
X207358500Y-44012000D02*
X205118500Y-44012000D01*
X207358500Y-43412000D02*
X205118500Y-43412000D01*
X207358500Y-43292000D02*
X205118500Y-43292000D01*
X207358500Y-43172000D02*
X205118500Y-43172000D01*
X205118500Y-39772000D02*
X207358500Y-39772000D01*
X207358500Y-39772000D02*
X207358500Y-44012000D01*
X206238500Y-39122000D02*
X206238500Y-39772000D01*
%TO.C,D30*%
X225282500Y-68945500D02*
X225282500Y-68295500D01*
X224162500Y-68295500D02*
X224162500Y-64055500D01*
X226402500Y-68295500D02*
X224162500Y-68295500D01*
X226402500Y-67695500D02*
X224162500Y-67695500D01*
X226402500Y-67575500D02*
X224162500Y-67575500D01*
X226402500Y-67455500D02*
X224162500Y-67455500D01*
X224162500Y-64055500D02*
X226402500Y-64055500D01*
X226402500Y-64055500D02*
X226402500Y-68295500D01*
X225282500Y-63405500D02*
X225282500Y-64055500D01*
%TO.C,D12*%
X63408500Y-126077500D02*
X63408500Y-125427500D01*
X62288500Y-125427500D02*
X62288500Y-121187500D01*
X64528500Y-125427500D02*
X62288500Y-125427500D01*
X64528500Y-124827500D02*
X62288500Y-124827500D01*
X64528500Y-124707500D02*
X62288500Y-124707500D01*
X64528500Y-124587500D02*
X62288500Y-124587500D01*
X62288500Y-121187500D02*
X64528500Y-121187500D01*
X64528500Y-121187500D02*
X64528500Y-125427500D01*
X63408500Y-120537500D02*
X63408500Y-121187500D01*
%TO.C,D48*%
X230043500Y-126077500D02*
X230043500Y-125427500D01*
X228923500Y-125427500D02*
X228923500Y-121187500D01*
X231163500Y-125427500D02*
X228923500Y-125427500D01*
X231163500Y-124827500D02*
X228923500Y-124827500D01*
X231163500Y-124707500D02*
X228923500Y-124707500D01*
X231163500Y-124587500D02*
X228923500Y-124587500D01*
X228923500Y-121187500D02*
X231163500Y-121187500D01*
X231163500Y-121187500D02*
X231163500Y-125427500D01*
X230043500Y-120537500D02*
X230043500Y-121187500D01*
%TO.C,D54*%
X249087500Y-141210000D02*
X249087500Y-140560000D01*
X247967500Y-140560000D02*
X247967500Y-136320000D01*
X250207500Y-140560000D02*
X247967500Y-140560000D01*
X250207500Y-139960000D02*
X247967500Y-139960000D01*
X250207500Y-139840000D02*
X247967500Y-139840000D01*
X250207500Y-139720000D02*
X247967500Y-139720000D01*
X247967500Y-136320000D02*
X250207500Y-136320000D01*
X250207500Y-136320000D02*
X250207500Y-140560000D01*
X249087500Y-135670000D02*
X249087500Y-136320000D01*
%TO.C,D52*%
X180846500Y-145279000D02*
X180846500Y-144629000D01*
X179726500Y-144629000D02*
X179726500Y-140389000D01*
X181966500Y-144629000D02*
X179726500Y-144629000D01*
X181966500Y-144029000D02*
X179726500Y-144029000D01*
X181966500Y-143909000D02*
X179726500Y-143909000D01*
X181966500Y-143789000D02*
X179726500Y-143789000D01*
X179726500Y-140389000D02*
X181966500Y-140389000D01*
X181966500Y-140389000D02*
X181966500Y-144629000D01*
X180846500Y-139739000D02*
X180846500Y-140389000D01*
%TO.C,D53*%
X204651500Y-145279000D02*
X204651500Y-144629000D01*
X203531500Y-144629000D02*
X203531500Y-140389000D01*
X205771500Y-144629000D02*
X203531500Y-144629000D01*
X205771500Y-144029000D02*
X203531500Y-144029000D01*
X205771500Y-143909000D02*
X203531500Y-143909000D01*
X205771500Y-143789000D02*
X203531500Y-143789000D01*
X203531500Y-140389000D02*
X205771500Y-140389000D01*
X205771500Y-140389000D02*
X205771500Y-144629000D01*
X204651500Y-139739000D02*
X204651500Y-140389000D01*
%TO.C,D23*%
X225282500Y-44662000D02*
X225282500Y-44012000D01*
X224162500Y-44012000D02*
X224162500Y-39772000D01*
X226402500Y-44012000D02*
X224162500Y-44012000D01*
X226402500Y-43412000D02*
X224162500Y-43412000D01*
X226402500Y-43292000D02*
X224162500Y-43292000D01*
X226402500Y-43172000D02*
X224162500Y-43172000D01*
X224162500Y-39772000D02*
X226402500Y-39772000D01*
X226402500Y-39772000D02*
X226402500Y-44012000D01*
X225282500Y-39122000D02*
X225282500Y-39772000D01*
%TO.C,D25*%
X130062500Y-68945500D02*
X130062500Y-68295500D01*
X128942500Y-68295500D02*
X128942500Y-64055500D01*
X131182500Y-68295500D02*
X128942500Y-68295500D01*
X131182500Y-67695500D02*
X128942500Y-67695500D01*
X131182500Y-67575500D02*
X128942500Y-67575500D01*
X131182500Y-67455500D02*
X128942500Y-67455500D01*
X128942500Y-64055500D02*
X131182500Y-64055500D01*
X131182500Y-64055500D02*
X131182500Y-68295500D01*
X130062500Y-63405500D02*
X130062500Y-64055500D01*
%TO.C,D50*%
X133236500Y-145279000D02*
X133236500Y-144629000D01*
X132116500Y-144629000D02*
X132116500Y-140389000D01*
X134356500Y-144629000D02*
X132116500Y-144629000D01*
X134356500Y-144029000D02*
X132116500Y-144029000D01*
X134356500Y-143909000D02*
X132116500Y-143909000D01*
X134356500Y-143789000D02*
X132116500Y-143789000D01*
X132116500Y-140389000D02*
X134356500Y-140389000D01*
X134356500Y-140389000D02*
X134356500Y-144629000D01*
X133236500Y-139739000D02*
X133236500Y-140389000D01*
%TO.C,D31*%
X244326500Y-68945500D02*
X244326500Y-68295500D01*
X243206500Y-68295500D02*
X243206500Y-64055500D01*
X245446500Y-68295500D02*
X243206500Y-68295500D01*
X245446500Y-67695500D02*
X243206500Y-67695500D01*
X245446500Y-67575500D02*
X243206500Y-67575500D01*
X245446500Y-67455500D02*
X243206500Y-67455500D01*
X243206500Y-64055500D02*
X245446500Y-64055500D01*
X245446500Y-64055500D02*
X245446500Y-68295500D01*
X244326500Y-63405500D02*
X244326500Y-64055500D01*
%TO.C,D26*%
X149106500Y-68945500D02*
X149106500Y-68295500D01*
X147986500Y-68295500D02*
X147986500Y-64055500D01*
X150226500Y-68295500D02*
X147986500Y-68295500D01*
X150226500Y-67695500D02*
X147986500Y-67695500D01*
X150226500Y-67575500D02*
X147986500Y-67575500D01*
X150226500Y-67455500D02*
X147986500Y-67455500D01*
X147986500Y-64055500D02*
X150226500Y-64055500D01*
X150226500Y-64055500D02*
X150226500Y-68295500D01*
X149106500Y-63405500D02*
X149106500Y-64055500D01*
%TO.C,D2*%
X63408500Y-68945500D02*
X63408500Y-68295500D01*
X62288500Y-68295500D02*
X62288500Y-64055500D01*
X64528500Y-68295500D02*
X62288500Y-68295500D01*
X64528500Y-67695500D02*
X62288500Y-67695500D01*
X64528500Y-67575500D02*
X62288500Y-67575500D01*
X64528500Y-67455500D02*
X62288500Y-67455500D01*
X62288500Y-64055500D02*
X64528500Y-64055500D01*
X64528500Y-64055500D02*
X64528500Y-68295500D01*
X63408500Y-63405500D02*
X63408500Y-64055500D01*
%TO.C,D46*%
X191955500Y-126077500D02*
X191955500Y-125427500D01*
X190835500Y-125427500D02*
X190835500Y-121187500D01*
X193075500Y-125427500D02*
X190835500Y-125427500D01*
X193075500Y-124827500D02*
X190835500Y-124827500D01*
X193075500Y-124707500D02*
X190835500Y-124707500D01*
X193075500Y-124587500D02*
X190835500Y-124587500D01*
X190835500Y-121187500D02*
X193075500Y-121187500D01*
X193075500Y-121187500D02*
X193075500Y-125427500D01*
X191955500Y-120537500D02*
X191955500Y-121187500D01*
%TO.C,D40*%
X182433500Y-107033500D02*
X182433500Y-106383500D01*
X181313500Y-106383500D02*
X181313500Y-102143500D01*
X183553500Y-106383500D02*
X181313500Y-106383500D01*
X183553500Y-105783500D02*
X181313500Y-105783500D01*
X183553500Y-105663500D02*
X181313500Y-105663500D01*
X183553500Y-105543500D02*
X181313500Y-105543500D01*
X181313500Y-102143500D02*
X183553500Y-102143500D01*
X183553500Y-102143500D02*
X183553500Y-106383500D01*
X182433500Y-101493500D02*
X182433500Y-102143500D01*
%TO.C,D13*%
X82452500Y-126077500D02*
X82452500Y-125427500D01*
X81332500Y-125427500D02*
X81332500Y-121187500D01*
X83572500Y-125427500D02*
X81332500Y-125427500D01*
X83572500Y-124827500D02*
X81332500Y-124827500D01*
X83572500Y-124707500D02*
X81332500Y-124707500D01*
X83572500Y-124587500D02*
X81332500Y-124587500D01*
X81332500Y-121187500D02*
X83572500Y-121187500D01*
X83572500Y-121187500D02*
X83572500Y-125427500D01*
X82452500Y-120537500D02*
X82452500Y-121187500D01*
%TO.C,D35*%
X196716500Y-88147000D02*
X196716500Y-87497000D01*
X195596500Y-87497000D02*
X195596500Y-83257000D01*
X197836500Y-87497000D02*
X195596500Y-87497000D01*
X197836500Y-86897000D02*
X195596500Y-86897000D01*
X197836500Y-86777000D02*
X195596500Y-86777000D01*
X197836500Y-86657000D02*
X195596500Y-86657000D01*
X195596500Y-83257000D02*
X197836500Y-83257000D01*
X197836500Y-83257000D02*
X197836500Y-87497000D01*
X196716500Y-82607000D02*
X196716500Y-83257000D01*
%TO.C,D36*%
X215760500Y-88147000D02*
X215760500Y-87497000D01*
X214640500Y-87497000D02*
X214640500Y-83257000D01*
X216880500Y-87497000D02*
X214640500Y-87497000D01*
X216880500Y-86897000D02*
X214640500Y-86897000D01*
X216880500Y-86777000D02*
X214640500Y-86777000D01*
X216880500Y-86657000D02*
X214640500Y-86657000D01*
X214640500Y-83257000D02*
X216880500Y-83257000D01*
X216880500Y-83257000D02*
X216880500Y-87497000D01*
X215760500Y-82607000D02*
X215760500Y-83257000D01*
%TO.C,D4*%
X101496500Y-68945500D02*
X101496500Y-68295500D01*
X100376500Y-68295500D02*
X100376500Y-64055500D01*
X102616500Y-68295500D02*
X100376500Y-68295500D01*
X102616500Y-67695500D02*
X100376500Y-67695500D01*
X102616500Y-67575500D02*
X100376500Y-67575500D01*
X102616500Y-67455500D02*
X100376500Y-67455500D01*
X100376500Y-64055500D02*
X102616500Y-64055500D01*
X102616500Y-64055500D02*
X102616500Y-68295500D01*
X101496500Y-63405500D02*
X101496500Y-64055500D01*
%TO.C,D45*%
X172911500Y-126077500D02*
X172911500Y-125427500D01*
X171791500Y-125427500D02*
X171791500Y-121187500D01*
X174031500Y-125427500D02*
X171791500Y-125427500D01*
X174031500Y-124827500D02*
X171791500Y-124827500D01*
X174031500Y-124707500D02*
X171791500Y-124707500D01*
X174031500Y-124587500D02*
X171791500Y-124587500D01*
X171791500Y-121187500D02*
X174031500Y-121187500D01*
X174031500Y-121187500D02*
X174031500Y-125427500D01*
X172911500Y-120537500D02*
X172911500Y-121187500D01*
%TO.C,D18*%
X130062500Y-44662000D02*
X130062500Y-44012000D01*
X128942500Y-44012000D02*
X128942500Y-39772000D01*
X131182500Y-44012000D02*
X128942500Y-44012000D01*
X131182500Y-43412000D02*
X128942500Y-43412000D01*
X131182500Y-43292000D02*
X128942500Y-43292000D01*
X131182500Y-43172000D02*
X128942500Y-43172000D01*
X128942500Y-39772000D02*
X131182500Y-39772000D01*
X131182500Y-39772000D02*
X131182500Y-44012000D01*
X130062500Y-39122000D02*
X130062500Y-39772000D01*
%TO.C,D51*%
X157041500Y-145279000D02*
X157041500Y-144629000D01*
X155921500Y-144629000D02*
X155921500Y-140389000D01*
X158161500Y-144629000D02*
X155921500Y-144629000D01*
X158161500Y-144029000D02*
X155921500Y-144029000D01*
X158161500Y-143909000D02*
X155921500Y-143909000D01*
X158161500Y-143789000D02*
X155921500Y-143789000D01*
X155921500Y-140389000D02*
X158161500Y-140389000D01*
X158161500Y-140389000D02*
X158161500Y-144629000D01*
X157041500Y-139739000D02*
X157041500Y-140389000D01*
%TO.C,D28*%
X187194500Y-68945500D02*
X187194500Y-68295500D01*
X186074500Y-68295500D02*
X186074500Y-64055500D01*
X188314500Y-68295500D02*
X186074500Y-68295500D01*
X188314500Y-67695500D02*
X186074500Y-67695500D01*
X188314500Y-67575500D02*
X186074500Y-67575500D01*
X188314500Y-67455500D02*
X186074500Y-67455500D01*
X186074500Y-64055500D02*
X188314500Y-64055500D01*
X188314500Y-64055500D02*
X188314500Y-68295500D01*
X187194500Y-63405500D02*
X187194500Y-64055500D01*
%TO.C,D42*%
X220521500Y-107033500D02*
X220521500Y-106383500D01*
X219401500Y-106383500D02*
X219401500Y-102143500D01*
X221641500Y-106383500D02*
X219401500Y-106383500D01*
X221641500Y-105783500D02*
X219401500Y-105783500D01*
X221641500Y-105663500D02*
X219401500Y-105663500D01*
X221641500Y-105543500D02*
X219401500Y-105543500D01*
X219401500Y-102143500D02*
X221641500Y-102143500D01*
X221641500Y-102143500D02*
X221641500Y-106383500D01*
X220521500Y-101493500D02*
X220521500Y-102143500D01*
%TO.C,D3*%
X82452500Y-68945500D02*
X82452500Y-68295500D01*
X81332500Y-68295500D02*
X81332500Y-64055500D01*
X83572500Y-68295500D02*
X81332500Y-68295500D01*
X83572500Y-67695500D02*
X81332500Y-67695500D01*
X83572500Y-67575500D02*
X81332500Y-67575500D01*
X83572500Y-67455500D02*
X81332500Y-67455500D01*
X81332500Y-64055500D02*
X83572500Y-64055500D01*
X83572500Y-64055500D02*
X83572500Y-68295500D01*
X82452500Y-63405500D02*
X82452500Y-64055500D01*
%TO.C,D24*%
X235710000Y-43670000D02*
X236360000Y-43670000D01*
X236360000Y-42550000D02*
X240600000Y-42550000D01*
X236360000Y-44790000D02*
X236360000Y-42550000D01*
X236960000Y-44790000D02*
X236960000Y-42550000D01*
X237080000Y-44790000D02*
X237080000Y-42550000D01*
X237200000Y-44790000D02*
X237200000Y-42550000D01*
X240600000Y-42550000D02*
X240600000Y-44790000D01*
X240600000Y-44790000D02*
X236360000Y-44790000D01*
X241250000Y-43670000D02*
X240600000Y-43670000D01*
%TO.C,D44*%
X153867500Y-126077500D02*
X153867500Y-125427500D01*
X152747500Y-125427500D02*
X152747500Y-121187500D01*
X154987500Y-125427500D02*
X152747500Y-125427500D01*
X154987500Y-124827500D02*
X152747500Y-124827500D01*
X154987500Y-124707500D02*
X152747500Y-124707500D01*
X154987500Y-124587500D02*
X152747500Y-124587500D01*
X152747500Y-121187500D02*
X154987500Y-121187500D01*
X154987500Y-121187500D02*
X154987500Y-125427500D01*
X153867500Y-120537500D02*
X153867500Y-121187500D01*
%TO.C,D8*%
X44364500Y-94728750D02*
X44364500Y-94078750D01*
X43244500Y-94078750D02*
X43244500Y-89838750D01*
X45484500Y-94078750D02*
X43244500Y-94078750D01*
X45484500Y-93478750D02*
X43244500Y-93478750D01*
X45484500Y-93358750D02*
X43244500Y-93358750D01*
X45484500Y-93238750D02*
X43244500Y-93238750D01*
X43244500Y-89838750D02*
X45484500Y-89838750D01*
X45484500Y-89838750D02*
X45484500Y-94078750D01*
X44364500Y-89188750D02*
X44364500Y-89838750D01*
%TO.C,D47*%
X210999500Y-126077500D02*
X210999500Y-125427500D01*
X209879500Y-125427500D02*
X209879500Y-121187500D01*
X212119500Y-125427500D02*
X209879500Y-125427500D01*
X212119500Y-124827500D02*
X209879500Y-124827500D01*
X212119500Y-124707500D02*
X209879500Y-124707500D01*
X212119500Y-124587500D02*
X209879500Y-124587500D01*
X209879500Y-121187500D02*
X212119500Y-121187500D01*
X212119500Y-121187500D02*
X212119500Y-125427500D01*
X210999500Y-120537500D02*
X210999500Y-121187500D01*
%TO.C,D37*%
X234804500Y-88147000D02*
X234804500Y-87497000D01*
X233684500Y-87497000D02*
X233684500Y-83257000D01*
X235924500Y-87497000D02*
X233684500Y-87497000D01*
X235924500Y-86897000D02*
X233684500Y-86897000D01*
X235924500Y-86777000D02*
X233684500Y-86777000D01*
X235924500Y-86657000D02*
X233684500Y-86657000D01*
X233684500Y-83257000D02*
X235924500Y-83257000D01*
X235924500Y-83257000D02*
X235924500Y-87497000D01*
X234804500Y-82607000D02*
X234804500Y-83257000D01*
%TO.C,D14*%
X101496500Y-126077500D02*
X101496500Y-125427500D01*
X100376500Y-125427500D02*
X100376500Y-121187500D01*
X102616500Y-125427500D02*
X100376500Y-125427500D01*
X102616500Y-124827500D02*
X100376500Y-124827500D01*
X102616500Y-124707500D02*
X100376500Y-124707500D01*
X102616500Y-124587500D02*
X100376500Y-124587500D01*
X100376500Y-121187500D02*
X102616500Y-121187500D01*
X102616500Y-121187500D02*
X102616500Y-125427500D01*
X101496500Y-120537500D02*
X101496500Y-121187500D01*
%TO.C,D20*%
X168150500Y-44662000D02*
X168150500Y-44012000D01*
X167030500Y-44012000D02*
X167030500Y-39772000D01*
X169270500Y-44012000D02*
X167030500Y-44012000D01*
X169270500Y-43412000D02*
X167030500Y-43412000D01*
X169270500Y-43292000D02*
X167030500Y-43292000D01*
X169270500Y-43172000D02*
X167030500Y-43172000D01*
X167030500Y-39772000D02*
X169270500Y-39772000D01*
X169270500Y-39772000D02*
X169270500Y-44012000D01*
X168150500Y-39122000D02*
X168150500Y-39772000D01*
%TO.C,D19*%
X149106500Y-44662000D02*
X149106500Y-44012000D01*
X147986500Y-44012000D02*
X147986500Y-39772000D01*
X150226500Y-44012000D02*
X147986500Y-44012000D01*
X150226500Y-43412000D02*
X147986500Y-43412000D01*
X150226500Y-43292000D02*
X147986500Y-43292000D01*
X150226500Y-43172000D02*
X147986500Y-43172000D01*
X147986500Y-39772000D02*
X150226500Y-39772000D01*
X150226500Y-39772000D02*
X150226500Y-44012000D01*
X149106500Y-39122000D02*
X149106500Y-39772000D01*
%TO.C,D21*%
X187194500Y-44662000D02*
X187194500Y-44012000D01*
X186074500Y-44012000D02*
X186074500Y-39772000D01*
X188314500Y-44012000D02*
X186074500Y-44012000D01*
X188314500Y-43412000D02*
X186074500Y-43412000D01*
X188314500Y-43292000D02*
X186074500Y-43292000D01*
X188314500Y-43172000D02*
X186074500Y-43172000D01*
X186074500Y-39772000D02*
X188314500Y-39772000D01*
X188314500Y-39772000D02*
X188314500Y-44012000D01*
X187194500Y-39122000D02*
X187194500Y-39772000D01*
%TO.C,D7*%
X101496500Y-88147000D02*
X101496500Y-87497000D01*
X100376500Y-87497000D02*
X100376500Y-83257000D01*
X102616500Y-87497000D02*
X100376500Y-87497000D01*
X102616500Y-86897000D02*
X100376500Y-86897000D01*
X102616500Y-86777000D02*
X100376500Y-86777000D01*
X102616500Y-86657000D02*
X100376500Y-86657000D01*
X100376500Y-83257000D02*
X102616500Y-83257000D01*
X102616500Y-83257000D02*
X102616500Y-87497000D01*
X101496500Y-82607000D02*
X101496500Y-83257000D01*
%TO.C,D39*%
X163389500Y-107033500D02*
X163389500Y-106383500D01*
X162269500Y-106383500D02*
X162269500Y-102143500D01*
X164509500Y-106383500D02*
X162269500Y-106383500D01*
X164509500Y-105783500D02*
X162269500Y-105783500D01*
X164509500Y-105663500D02*
X162269500Y-105663500D01*
X164509500Y-105543500D02*
X162269500Y-105543500D01*
X162269500Y-102143500D02*
X164509500Y-102143500D01*
X164509500Y-102143500D02*
X164509500Y-106383500D01*
X163389500Y-101493500D02*
X163389500Y-102143500D01*
%TO.C,D49*%
X249087500Y-126077500D02*
X249087500Y-125427500D01*
X247967500Y-125427500D02*
X247967500Y-121187500D01*
X250207500Y-125427500D02*
X247967500Y-125427500D01*
X250207500Y-124827500D02*
X247967500Y-124827500D01*
X250207500Y-124707500D02*
X247967500Y-124707500D01*
X250207500Y-124587500D02*
X247967500Y-124587500D01*
X247967500Y-121187500D02*
X250207500Y-121187500D01*
X250207500Y-121187500D02*
X250207500Y-125427500D01*
X249087500Y-120537500D02*
X249087500Y-121187500D01*
%TO.C,D10*%
X82452500Y-107033500D02*
X82452500Y-106383500D01*
X81332500Y-106383500D02*
X81332500Y-102143500D01*
X83572500Y-106383500D02*
X81332500Y-106383500D01*
X83572500Y-105783500D02*
X81332500Y-105783500D01*
X83572500Y-105663500D02*
X81332500Y-105663500D01*
X83572500Y-105543500D02*
X81332500Y-105543500D01*
X81332500Y-102143500D02*
X83572500Y-102143500D01*
X83572500Y-102143500D02*
X83572500Y-106383500D01*
X82452500Y-101493500D02*
X82452500Y-102143500D01*
%TO.C,D29*%
X206238500Y-68945500D02*
X206238500Y-68295500D01*
X205118500Y-68295500D02*
X205118500Y-64055500D01*
X207358500Y-68295500D02*
X205118500Y-68295500D01*
X207358500Y-67695500D02*
X205118500Y-67695500D01*
X207358500Y-67575500D02*
X205118500Y-67575500D01*
X207358500Y-67455500D02*
X205118500Y-67455500D01*
X205118500Y-64055500D02*
X207358500Y-64055500D01*
X207358500Y-64055500D02*
X207358500Y-68295500D01*
X206238500Y-63405500D02*
X206238500Y-64055500D01*
%TO.C,D32*%
X135617000Y-88147000D02*
X135617000Y-87497000D01*
X134497000Y-87497000D02*
X134497000Y-83257000D01*
X136737000Y-87497000D02*
X134497000Y-87497000D01*
X136737000Y-86897000D02*
X134497000Y-86897000D01*
X136737000Y-86777000D02*
X134497000Y-86777000D01*
X136737000Y-86657000D02*
X134497000Y-86657000D01*
X134497000Y-83257000D02*
X136737000Y-83257000D01*
X136737000Y-83257000D02*
X136737000Y-87497000D01*
X135617000Y-82607000D02*
X135617000Y-83257000D01*
%TO.C,D41*%
X201477500Y-107033500D02*
X201477500Y-106383500D01*
X200357500Y-106383500D02*
X200357500Y-102143500D01*
X202597500Y-106383500D02*
X200357500Y-106383500D01*
X202597500Y-105783500D02*
X200357500Y-105783500D01*
X202597500Y-105663500D02*
X200357500Y-105663500D01*
X202597500Y-105543500D02*
X200357500Y-105543500D01*
X200357500Y-102143500D02*
X202597500Y-102143500D01*
X202597500Y-102143500D02*
X202597500Y-106383500D01*
X201477500Y-101493500D02*
X201477500Y-102143500D01*
%TO.C,D17*%
X101496500Y-140279000D02*
X101496500Y-139629000D01*
X100376500Y-139629000D02*
X100376500Y-135389000D01*
X102616500Y-139629000D02*
X100376500Y-139629000D01*
X102616500Y-139029000D02*
X100376500Y-139029000D01*
X102616500Y-138909000D02*
X100376500Y-138909000D01*
X102616500Y-138789000D02*
X100376500Y-138789000D01*
X100376500Y-135389000D02*
X102616500Y-135389000D01*
X102616500Y-135389000D02*
X102616500Y-139629000D01*
X101496500Y-134739000D02*
X101496500Y-135389000D01*
%TO.C,D34*%
X177672500Y-88147000D02*
X177672500Y-87497000D01*
X176552500Y-87497000D02*
X176552500Y-83257000D01*
X178792500Y-87497000D02*
X176552500Y-87497000D01*
X178792500Y-86897000D02*
X176552500Y-86897000D01*
X178792500Y-86777000D02*
X176552500Y-86777000D01*
X178792500Y-86657000D02*
X176552500Y-86657000D01*
X176552500Y-83257000D02*
X178792500Y-83257000D01*
X178792500Y-83257000D02*
X178792500Y-87497000D01*
X177672500Y-82607000D02*
X177672500Y-83257000D01*
%TO.C,D5*%
X63408500Y-88147000D02*
X63408500Y-87497000D01*
X62288500Y-87497000D02*
X62288500Y-83257000D01*
X64528500Y-87497000D02*
X62288500Y-87497000D01*
X64528500Y-86897000D02*
X62288500Y-86897000D01*
X64528500Y-86777000D02*
X62288500Y-86777000D01*
X64528500Y-86657000D02*
X62288500Y-86657000D01*
X62288500Y-83257000D02*
X64528500Y-83257000D01*
X64528500Y-83257000D02*
X64528500Y-87497000D01*
X63408500Y-82607000D02*
X63408500Y-83257000D01*
%TO.C,D16*%
X63408500Y-145279000D02*
X63408500Y-144629000D01*
X62288500Y-144629000D02*
X62288500Y-140389000D01*
X64528500Y-144629000D02*
X62288500Y-144629000D01*
X64528500Y-144029000D02*
X62288500Y-144029000D01*
X64528500Y-143909000D02*
X62288500Y-143909000D01*
X64528500Y-143789000D02*
X62288500Y-143789000D01*
X62288500Y-140389000D02*
X64528500Y-140389000D01*
X64528500Y-140389000D02*
X64528500Y-144629000D01*
X63408500Y-139739000D02*
X63408500Y-140389000D01*
%TO.C,D15*%
X39059250Y-145279000D02*
X39059250Y-144629000D01*
X37939250Y-144629000D02*
X37939250Y-140389000D01*
X40179250Y-144629000D02*
X37939250Y-144629000D01*
X40179250Y-144029000D02*
X37939250Y-144029000D01*
X40179250Y-143909000D02*
X37939250Y-143909000D01*
X40179250Y-143789000D02*
X37939250Y-143789000D01*
X37939250Y-140389000D02*
X40179250Y-140389000D01*
X40179250Y-140389000D02*
X40179250Y-144629000D01*
X39059250Y-139739000D02*
X39059250Y-140389000D01*
%TO.C,D9*%
X63408500Y-107033500D02*
X63408500Y-106383500D01*
X62288500Y-106383500D02*
X62288500Y-102143500D01*
X64528500Y-106383500D02*
X62288500Y-106383500D01*
X64528500Y-105783500D02*
X62288500Y-105783500D01*
X64528500Y-105663500D02*
X62288500Y-105663500D01*
X64528500Y-105543500D02*
X62288500Y-105543500D01*
X62288500Y-102143500D02*
X64528500Y-102143500D01*
X64528500Y-102143500D02*
X64528500Y-106383500D01*
X63408500Y-101493500D02*
X63408500Y-102143500D01*
%TO.C,D27*%
X168150500Y-68945500D02*
X168150500Y-68295500D01*
X167030500Y-68295500D02*
X167030500Y-64055500D01*
X169270500Y-68295500D02*
X167030500Y-68295500D01*
X169270500Y-67695500D02*
X167030500Y-67695500D01*
X169270500Y-67575500D02*
X167030500Y-67575500D01*
X169270500Y-67455500D02*
X167030500Y-67455500D01*
X167030500Y-64055500D02*
X169270500Y-64055500D01*
X169270500Y-64055500D02*
X169270500Y-68295500D01*
X168150500Y-63405500D02*
X168150500Y-64055500D01*
%TO.C,D6*%
X82452500Y-88147000D02*
X82452500Y-87497000D01*
X81332500Y-87497000D02*
X81332500Y-83257000D01*
X83572500Y-87497000D02*
X81332500Y-87497000D01*
X83572500Y-86897000D02*
X81332500Y-86897000D01*
X83572500Y-86777000D02*
X81332500Y-86777000D01*
X83572500Y-86657000D02*
X81332500Y-86657000D01*
X81332500Y-83257000D02*
X83572500Y-83257000D01*
X83572500Y-83257000D02*
X83572500Y-87497000D01*
X82452500Y-82607000D02*
X82452500Y-83257000D01*
%TO.C,D43*%
X239565500Y-107033500D02*
X239565500Y-106383500D01*
X238445500Y-106383500D02*
X238445500Y-102143500D01*
X240685500Y-106383500D02*
X238445500Y-106383500D01*
X240685500Y-105783500D02*
X238445500Y-105783500D01*
X240685500Y-105663500D02*
X238445500Y-105663500D01*
X240685500Y-105543500D02*
X238445500Y-105543500D01*
X238445500Y-102143500D02*
X240685500Y-102143500D01*
X240685500Y-102143500D02*
X240685500Y-106383500D01*
X239565500Y-101493500D02*
X239565500Y-102143500D01*
%TO.C,D1*%
X44364500Y-68945500D02*
X44364500Y-68295500D01*
X43244500Y-68295500D02*
X43244500Y-64055500D01*
X45484500Y-68295500D02*
X43244500Y-68295500D01*
X45484500Y-67695500D02*
X43244500Y-67695500D01*
X45484500Y-67575500D02*
X43244500Y-67575500D01*
X45484500Y-67455500D02*
X43244500Y-67455500D01*
X43244500Y-64055500D02*
X45484500Y-64055500D01*
X45484500Y-64055500D02*
X45484500Y-68295500D01*
X44364500Y-63405500D02*
X44364500Y-64055500D01*
%TO.C,D11*%
X101496500Y-107033500D02*
X101496500Y-106383500D01*
X100376500Y-106383500D02*
X100376500Y-102143500D01*
X102616500Y-106383500D02*
X100376500Y-106383500D01*
X102616500Y-105783500D02*
X100376500Y-105783500D01*
X102616500Y-105663500D02*
X100376500Y-105663500D01*
X102616500Y-105543500D02*
X100376500Y-105543500D01*
X100376500Y-102143500D02*
X102616500Y-102143500D01*
X102616500Y-102143500D02*
X102616500Y-106383500D01*
X101496500Y-101493500D02*
X101496500Y-102143500D01*
%TD*%
M02*
