%TF.GenerationSoftware,KiCad,Pcbnew,7.0.5*%
%TF.CreationDate,2023-06-22T07:55:22+00:00*%
%TF.ProjectId,Entry-left,456e7472-792d-46c6-9566-742e6b696361,rev?*%
%TF.SameCoordinates,Original*%
%TF.FileFunction,Legend,Top*%
%TF.FilePolarity,Positive*%
%FSLAX46Y46*%
G04 Gerber Fmt 4.6, Leading zero omitted, Abs format (unit mm)*
G04 Created by KiCad (PCBNEW 7.0.5) date 2023-06-22 07:55:22*
%MOMM*%
%LPD*%
G01*
G04 APERTURE LIST*
%ADD10C,0.150000*%
%ADD11C,2.000000*%
%ADD12R,1.600000X1.600000*%
%ADD13C,1.600000*%
G04 APERTURE END LIST*
D10*
%TO.C,RESET1*%
X82566868Y-45534319D02*
X82233535Y-45058128D01*
X81995440Y-45534319D02*
X81995440Y-44534319D01*
X81995440Y-44534319D02*
X82376392Y-44534319D01*
X82376392Y-44534319D02*
X82471630Y-44581938D01*
X82471630Y-44581938D02*
X82519249Y-44629557D01*
X82519249Y-44629557D02*
X82566868Y-44724795D01*
X82566868Y-44724795D02*
X82566868Y-44867652D01*
X82566868Y-44867652D02*
X82519249Y-44962890D01*
X82519249Y-44962890D02*
X82471630Y-45010509D01*
X82471630Y-45010509D02*
X82376392Y-45058128D01*
X82376392Y-45058128D02*
X81995440Y-45058128D01*
X82995440Y-45010509D02*
X83328773Y-45010509D01*
X83471630Y-45534319D02*
X82995440Y-45534319D01*
X82995440Y-45534319D02*
X82995440Y-44534319D01*
X82995440Y-44534319D02*
X83471630Y-44534319D01*
X83852583Y-45486700D02*
X83995440Y-45534319D01*
X83995440Y-45534319D02*
X84233535Y-45534319D01*
X84233535Y-45534319D02*
X84328773Y-45486700D01*
X84328773Y-45486700D02*
X84376392Y-45439080D01*
X84376392Y-45439080D02*
X84424011Y-45343842D01*
X84424011Y-45343842D02*
X84424011Y-45248604D01*
X84424011Y-45248604D02*
X84376392Y-45153366D01*
X84376392Y-45153366D02*
X84328773Y-45105747D01*
X84328773Y-45105747D02*
X84233535Y-45058128D01*
X84233535Y-45058128D02*
X84043059Y-45010509D01*
X84043059Y-45010509D02*
X83947821Y-44962890D01*
X83947821Y-44962890D02*
X83900202Y-44915271D01*
X83900202Y-44915271D02*
X83852583Y-44820033D01*
X83852583Y-44820033D02*
X83852583Y-44724795D01*
X83852583Y-44724795D02*
X83900202Y-44629557D01*
X83900202Y-44629557D02*
X83947821Y-44581938D01*
X83947821Y-44581938D02*
X84043059Y-44534319D01*
X84043059Y-44534319D02*
X84281154Y-44534319D01*
X84281154Y-44534319D02*
X84424011Y-44581938D01*
X84852583Y-45010509D02*
X85185916Y-45010509D01*
X85328773Y-45534319D02*
X84852583Y-45534319D01*
X84852583Y-45534319D02*
X84852583Y-44534319D01*
X84852583Y-44534319D02*
X85328773Y-44534319D01*
X85614488Y-44534319D02*
X86185916Y-44534319D01*
X85900202Y-45534319D02*
X85900202Y-44534319D01*
X80769250Y-42829500D02*
X80769250Y-47329500D01*
X80769250Y-47329500D02*
X87269250Y-47329500D01*
X87269250Y-42829500D02*
X80769250Y-42829500D01*
X87269250Y-47329500D02*
X87269250Y-42829500D01*
%TO.C,U2*%
X253206750Y-47460750D02*
X241106750Y-47460750D01*
X253206750Y-47710750D02*
X255206750Y-47710750D01*
X255206750Y-53310750D02*
X255206750Y-47710750D01*
X253206750Y-53310750D02*
X255206750Y-53310750D01*
X253206750Y-53560750D02*
X253206750Y-47460750D01*
X253206750Y-53560750D02*
X241106750Y-53560750D01*
X241106750Y-53560750D02*
X241106750Y-47460750D01*
%TO.C,U1*%
X25970000Y-36890000D02*
X28510000Y-36890000D01*
X25970000Y-44510000D02*
X25970000Y-36890000D01*
X28510000Y-31810000D02*
X58990000Y-31810000D01*
X28510000Y-36890000D02*
X28510000Y-31810000D01*
X28510000Y-44510000D02*
X25970000Y-44510000D01*
X28510000Y-49590000D02*
X28510000Y-44510000D01*
X28510000Y-49590000D02*
X58990000Y-49590000D01*
X58990000Y-31810000D02*
X58990000Y-49590000D01*
%TD*%
D11*
%TO.C,RESET1*%
X80769250Y-42829500D03*
X87269250Y-42829500D03*
X80769250Y-47329500D03*
X87269250Y-47329500D03*
%TD*%
D12*
%TO.C,U1*%
X29780000Y-48320000D03*
D13*
X32320000Y-48320000D03*
X34860000Y-48320000D03*
X37400000Y-48320000D03*
X39940000Y-48320000D03*
X42480000Y-48320000D03*
X45020000Y-48320000D03*
X47560000Y-48320000D03*
X50100000Y-48320000D03*
X52640000Y-48320000D03*
X55180000Y-48320000D03*
X57720000Y-48320000D03*
X57720000Y-33080000D03*
X55180000Y-33080000D03*
X52640000Y-33080000D03*
X50100000Y-33080000D03*
X47560000Y-33080000D03*
X45020000Y-33080000D03*
X42480000Y-33080000D03*
X39940000Y-33080000D03*
X37400000Y-33080000D03*
X34860000Y-33080000D03*
X32320000Y-33080000D03*
X29780000Y-33080000D03*
%TD*%
M02*
