%TF.GenerationSoftware,KiCad,Pcbnew,7.0.5*%
%TF.CreationDate,2023-06-22T07:55:22+00:00*%
%TF.ProjectId,Entry-left,456e7472-792d-46c6-9566-742e6b696361,rev?*%
%TF.SameCoordinates,Original*%
%TF.FileFunction,Paste,Bot*%
%TF.FilePolarity,Positive*%
%FSLAX46Y46*%
G04 Gerber Fmt 4.6, Leading zero omitted, Abs format (unit mm)*
G04 Created by KiCad (PCBNEW 7.0.5) date 2023-06-22 07:55:22*
%MOMM*%
%LPD*%
G01*
G04 APERTURE LIST*
%ADD10R,2.550000X2.500000*%
G04 APERTURE END LIST*
D10*
%TO.C,MX6*%
X67409250Y-78258750D03*
X80336250Y-75718750D03*
%TD*%
%TO.C,MX2*%
X48359250Y-59208750D03*
X61286250Y-56668750D03*
%TD*%
%TO.C,MX20*%
X153134250Y-35395750D03*
X166061250Y-32855750D03*
%TD*%
%TO.C,MX52*%
X165040500Y-135408750D03*
X177967500Y-132868750D03*
%TD*%
%TO.C,MX26*%
X134084250Y-59208750D03*
X147011250Y-56668750D03*
%TD*%
%TO.C,MX1*%
X29309250Y-59208750D03*
X42236250Y-56668750D03*
%TD*%
%TO.C,MX38*%
X122178000Y-97308750D03*
X135105000Y-94768750D03*
%TD*%
%TO.C,MX53*%
X188853000Y-135408750D03*
X201780000Y-132868750D03*
%TD*%
%TO.C,MX27*%
X153134250Y-59208750D03*
X166061250Y-56668750D03*
%TD*%
%TO.C,MX10*%
X67409250Y-97308750D03*
X80336250Y-94768750D03*
%TD*%
%TO.C,MX17*%
X76934250Y-135408750D03*
X89861250Y-132868750D03*
%TD*%
%TO.C,MX50*%
X117415500Y-135408750D03*
X130342500Y-132868750D03*
%TD*%
%TO.C,MX31*%
X229334250Y-59208750D03*
X242261250Y-56668750D03*
%TD*%
%TO.C,MX18*%
X115034250Y-35395750D03*
X127961250Y-32855750D03*
%TD*%
%TO.C,MX42*%
X205521750Y-97308750D03*
X218448750Y-94768750D03*
%TD*%
%TO.C,MX22*%
X191234250Y-35395750D03*
X204161250Y-32855750D03*
%TD*%
%TO.C,MX16*%
X48359250Y-135408750D03*
X61286250Y-132868750D03*
%TD*%
%TO.C,MX8*%
X29309250Y-87783750D03*
X42236250Y-85243750D03*
%TD*%
%TO.C,MX33*%
X143609250Y-78258750D03*
X156536250Y-75718750D03*
%TD*%
%TO.C,MX40*%
X167421750Y-97308750D03*
X180348750Y-94768750D03*
%TD*%
%TO.C,MX34*%
X162659250Y-78258750D03*
X175586250Y-75718750D03*
%TD*%
%TO.C,MX11*%
X86459250Y-97308750D03*
X99386250Y-94768750D03*
%TD*%
%TO.C,MX3*%
X67409250Y-59208750D03*
X80336250Y-56668750D03*
%TD*%
%TO.C,MX37*%
X219809250Y-78258750D03*
X232736250Y-75718750D03*
%TD*%
%TO.C,MX29*%
X191234250Y-59208750D03*
X204161250Y-56668750D03*
%TD*%
%TO.C,MX24*%
X229334250Y-35395750D03*
X242261250Y-32855750D03*
%TD*%
%TO.C,MX14*%
X86459250Y-116358750D03*
X99386250Y-113818750D03*
%TD*%
%TO.C,MX44*%
X126940500Y-116358750D03*
X139867500Y-113818750D03*
%TD*%
%TO.C,MX54*%
X222190500Y-135408750D03*
X235117500Y-132868750D03*
%TD*%
%TO.C,MX5*%
X48359250Y-78258750D03*
X61286250Y-75718750D03*
%TD*%
%TO.C,MX7*%
X86459250Y-78258750D03*
X99386250Y-75718750D03*
%TD*%
%TO.C,MX49*%
X234096750Y-116358750D03*
X247023750Y-113818750D03*
%TD*%
%TO.C,MX41*%
X186471750Y-97308750D03*
X199398750Y-94768750D03*
%TD*%
%TO.C,MX51*%
X141228000Y-135408750D03*
X154155000Y-132868750D03*
%TD*%
%TO.C,MX9*%
X48359250Y-97308750D03*
X61286250Y-94768750D03*
%TD*%
%TO.C,MX47*%
X195996750Y-116358750D03*
X208923750Y-113818750D03*
%TD*%
%TO.C,MX21*%
X172184250Y-35395750D03*
X185111250Y-32855750D03*
%TD*%
%TO.C,MX46*%
X176946750Y-116358750D03*
X189873750Y-113818750D03*
%TD*%
%TO.C,MX13*%
X67409250Y-116358750D03*
X80336250Y-113818750D03*
%TD*%
%TO.C,MX45*%
X157896750Y-116358750D03*
X170823750Y-113818750D03*
%TD*%
%TO.C,MX32*%
X119796750Y-78258750D03*
X132723750Y-75718750D03*
%TD*%
%TO.C,MX35*%
X181709250Y-78258750D03*
X194636250Y-75718750D03*
%TD*%
%TO.C,MX43*%
X224571750Y-97308750D03*
X237498750Y-94768750D03*
%TD*%
%TO.C,MX36*%
X200759250Y-78258750D03*
X213686250Y-75718750D03*
%TD*%
%TO.C,MX23*%
X210284250Y-35395750D03*
X223211250Y-32855750D03*
%TD*%
%TO.C,MX25*%
X115034250Y-59208750D03*
X127961250Y-56668750D03*
%TD*%
%TO.C,MX15*%
X29309250Y-125883750D03*
X42236250Y-123343750D03*
%TD*%
%TO.C,MX12*%
X48359250Y-116358750D03*
X61286250Y-113818750D03*
%TD*%
%TO.C,MX30*%
X210284250Y-59208750D03*
X223211250Y-56668750D03*
%TD*%
%TO.C,MX19*%
X134084250Y-35395750D03*
X147011250Y-32855750D03*
%TD*%
%TO.C,MX28*%
X172184250Y-59208750D03*
X185111250Y-56668750D03*
%TD*%
%TO.C,MX48*%
X215046750Y-116358750D03*
X227973750Y-113818750D03*
%TD*%
%TO.C,MX4*%
X86459250Y-59208750D03*
X99386250Y-56668750D03*
%TD*%
%TO.C,MX39*%
X148371750Y-97308750D03*
X161298750Y-94768750D03*
%TD*%
M02*
