M48
; DRILL file {KiCad 7.0.5} date Thu Jun 22 07:55:35 2023
; FORMAT={-:-/ absolute / metric / decimal}
; #@! TF.CreationDate,2023-06-22T07:55:35+00:00
; #@! TF.GenerationSoftware,Kicad,Pcbnew,7.0.5
; #@! TF.FileFunction,NonPlated,1,2,NPTH
FMAT,2
METRIC
; #@! TA.AperFunction,NonPlated,NPTH,ComponentDrill
T1C0.800
; #@! TA.AperFunction,NonPlated,NPTH,ComponentDrill
T2C1.750
; #@! TA.AperFunction,NonPlated,NPTH,ComponentDrill
T3C2.200
; #@! TA.AperFunction,NonPlated,NPTH,ComponentDrill
T4C3.000
; #@! TA.AperFunction,NonPlated,NPTH,ComponentDrill
T5C3.048
; #@! TA.AperFunction,NonPlated,NPTH,ComponentDrill
T6C3.988
%
G90
G05
T1
X244.607Y-50.511
X251.607Y-50.511
T2
X31.314Y-61.749
X31.314Y-90.324
X31.314Y-128.424
X41.474Y-61.749
X41.474Y-90.324
X41.474Y-128.424
X50.364Y-61.749
X50.364Y-80.799
X50.364Y-99.849
X50.364Y-118.899
X50.364Y-137.949
X60.524Y-61.749
X60.524Y-80.799
X60.524Y-99.849
X60.524Y-118.899
X60.524Y-137.949
X69.414Y-61.749
X69.414Y-80.799
X69.414Y-99.849
X69.414Y-118.899
X78.939Y-137.949
X79.574Y-61.749
X79.574Y-80.799
X79.574Y-99.849
X79.574Y-118.899
X88.464Y-61.749
X88.464Y-80.799
X88.464Y-99.849
X88.464Y-118.899
X89.099Y-137.949
X98.624Y-61.749
X98.624Y-80.799
X98.624Y-99.849
X98.624Y-118.899
X117.039Y-37.936
X117.039Y-61.749
X119.42Y-137.949
X121.802Y-80.799
X124.183Y-99.849
X127.199Y-37.936
X127.199Y-61.749
X128.945Y-118.899
X129.581Y-137.949
X131.962Y-80.799
X134.343Y-99.849
X136.089Y-37.936
X136.089Y-61.749
X139.106Y-118.899
X143.233Y-137.949
X145.614Y-80.799
X146.249Y-37.936
X146.249Y-61.749
X150.377Y-99.849
X153.393Y-137.949
X155.139Y-37.936
X155.139Y-61.749
X155.774Y-80.799
X159.902Y-118.899
X160.537Y-99.849
X164.664Y-80.799
X165.299Y-37.936
X165.299Y-61.749
X167.046Y-137.949
X169.427Y-99.849
X170.062Y-118.899
X174.189Y-37.936
X174.189Y-61.749
X174.824Y-80.799
X177.206Y-137.949
X178.952Y-118.899
X179.587Y-99.849
X183.714Y-80.799
X184.349Y-37.936
X184.349Y-61.749
X188.477Y-99.849
X189.112Y-118.899
X190.858Y-137.949
X193.239Y-37.936
X193.239Y-61.749
X193.874Y-80.799
X198.002Y-118.899
X198.637Y-99.849
X201.018Y-137.949
X202.764Y-80.799
X203.399Y-37.936
X203.399Y-61.749
X207.527Y-99.849
X208.162Y-118.899
X212.289Y-37.936
X212.289Y-61.749
X212.924Y-80.799
X217.052Y-118.899
X217.687Y-99.849
X221.814Y-80.799
X222.449Y-37.936
X222.449Y-61.749
X224.195Y-137.949
X226.577Y-99.849
X227.212Y-118.899
X231.339Y-37.936
X231.339Y-61.749
X231.974Y-80.799
X234.355Y-137.949
X236.102Y-118.899
X236.737Y-99.849
X241.499Y-37.936
X241.499Y-61.749
X246.262Y-118.899
T3
X27.369Y-28.911
X27.369Y-146.974
X39.05Y-111.1
X107.832Y-78.259
X107.832Y-116.359
X250.207Y-28.911
X250.207Y-146.974
T4
X32.584Y-59.209
X32.584Y-87.784
X32.584Y-125.884
X38.934Y-56.669
X38.934Y-85.244
X38.934Y-123.344
X51.634Y-59.209
X51.634Y-78.259
X51.634Y-97.309
X51.634Y-116.359
X51.634Y-135.409
X57.984Y-56.669
X57.984Y-75.719
X57.984Y-94.769
X57.984Y-113.819
X57.984Y-132.869
X70.684Y-59.209
X70.684Y-78.259
X70.684Y-97.309
X70.684Y-116.359
X77.034Y-56.669
X77.034Y-75.719
X77.034Y-94.769
X77.034Y-113.819
X80.209Y-135.409
X86.559Y-132.869
X89.734Y-59.209
X89.734Y-78.259
X89.734Y-97.309
X89.734Y-116.359
X96.084Y-56.669
X96.084Y-75.719
X96.084Y-94.769
X96.084Y-113.819
X118.309Y-35.396
X118.309Y-59.209
X120.691Y-135.409
X123.072Y-78.259
X124.659Y-32.856
X124.659Y-56.669
X125.453Y-97.309
X127.04Y-132.869
X129.422Y-75.719
X130.215Y-116.359
X131.803Y-94.769
X136.565Y-113.819
X137.359Y-35.396
X137.359Y-59.209
X143.709Y-32.856
X143.709Y-56.669
X144.503Y-135.409
X146.884Y-78.259
X150.853Y-132.869
X151.647Y-97.309
X153.234Y-75.719
X156.409Y-35.396
X156.409Y-59.209
X157.997Y-94.769
X161.172Y-116.359
X162.759Y-32.856
X162.759Y-56.669
X165.934Y-78.259
X167.522Y-113.819
X168.315Y-135.409
X170.697Y-97.309
X172.284Y-75.719
X174.665Y-132.869
X175.459Y-35.396
X175.459Y-59.209
X177.047Y-94.769
X180.222Y-116.359
X181.809Y-32.856
X181.809Y-56.669
X184.984Y-78.259
X186.572Y-113.819
X189.747Y-97.309
X191.334Y-75.719
X192.128Y-135.409
X194.509Y-35.396
X194.509Y-59.209
X196.097Y-94.769
X198.478Y-132.869
X199.272Y-116.359
X200.859Y-32.856
X200.859Y-56.669
X204.034Y-78.259
X205.622Y-113.819
X208.797Y-97.309
X210.384Y-75.719
X213.559Y-35.396
X213.559Y-59.209
X215.147Y-94.769
X218.322Y-116.359
X219.909Y-32.856
X219.909Y-56.669
X223.084Y-78.259
X224.672Y-113.819
X225.465Y-135.409
X227.847Y-97.309
X229.434Y-75.719
X231.815Y-132.869
X232.609Y-35.396
X232.609Y-59.209
X234.197Y-94.769
X237.372Y-116.359
X238.959Y-32.856
X238.959Y-56.669
X243.722Y-113.819
T5
X29.409Y-78.386
X29.409Y-102.262
X29.409Y-116.486
X29.409Y-140.362
X72.081Y-130.964
X95.957Y-130.964
X122.087Y-111.914
X145.963Y-111.914
X217.337Y-130.964
X241.213Y-130.964
T6
X36.394Y-61.749
X36.394Y-90.324
X36.394Y-128.424
X44.649Y-78.386
X44.649Y-102.262
X44.649Y-116.486
X44.649Y-140.362
X55.444Y-61.749
X55.444Y-80.799
X55.444Y-99.849
X55.444Y-118.899
X55.444Y-137.949
X72.081Y-146.204
X74.494Y-61.749
X74.494Y-80.799
X74.494Y-99.849
X74.494Y-118.899
X84.019Y-137.949
X93.544Y-61.749
X93.544Y-80.799
X93.544Y-99.849
X93.544Y-118.899
X95.957Y-146.204
X122.087Y-127.154
X122.119Y-37.936
X122.119Y-61.749
X124.5Y-137.949
X126.882Y-80.799
X129.263Y-99.849
X134.025Y-118.899
X141.169Y-37.936
X141.169Y-61.749
X145.963Y-127.154
X148.313Y-137.949
X150.694Y-80.799
X155.457Y-99.849
X160.219Y-37.936
X160.219Y-61.749
X164.982Y-118.899
X169.744Y-80.799
X172.125Y-137.949
X174.507Y-99.849
X179.269Y-37.936
X179.269Y-61.749
X184.032Y-118.899
X188.794Y-80.799
X193.557Y-99.849
X195.938Y-137.949
X198.319Y-37.936
X198.319Y-61.749
X203.082Y-118.899
X207.844Y-80.799
X212.607Y-99.849
X217.337Y-146.204
X217.369Y-37.936
X217.369Y-61.749
X222.132Y-118.899
X226.894Y-80.799
X229.275Y-137.949
X231.657Y-99.849
X236.419Y-37.936
X236.419Y-61.749
X241.182Y-118.899
X241.213Y-146.204
T0
M30
