  0
SECTION
  2
HEADER
  9
$ACADVER
  1
AC1009
  9
$FILLMODE
 70
 0
  9
$SPLFRAME
 70
 1
  9
$EXTMIN
 10
0
 20
0
 30
0.0
  9
$EXTMAX
 10
1058.33
 20
1058.33
 30
0.0
  0
ENDSEC
  0
SECTION
  2
TABLES
  0
TABLE
  2
LAYER
 70
1
  0
LAYER
  2
0
 70
     0
 62
     7
  6
CONTINUOUS
  0
ENDTAB
  0
ENDSEC
  0
SECTION
  2
ENTITIES
  0
LINE
  8
0
 62
     0
 10
0.0950846
 20
121.26
 30
0.0
 11
225.932
 21
121.26
 31
0.0
  0
LINE
  8
0
 62
     0
 10
225.932
 20
121.26
 30
0.0
 11
225.932
 21
0.198438
 31
0.0
  0
LINE
  8
0
 62
     0
 10
225.932
 20
0.198438
 30
0.0
 11
0.0950846
 21
0.198438
 31
0.0
  0
LINE
  8
0
 62
     0
 10
0.0950846
 20
0.198438
 30
0.0
 11
0.0950846
 21
121.26
 31
0.0
  0
LINE
  8
0
 62
     0
 10
51.2452
 20
17.7243
 30
0.0
 11
51.2452
 21
13.0238
 31
0.0
  0
LINE
  8
0
 62
     0
 10
51.2452
 20
13.0238
 30
0.0
 11
49.7198
 21
13.0238
 31
0.0
  0
LINE
  8
0
 62
     0
 10
49.7198
 20
13.0238
 30
0.0
 11
49.7198
 21
16.254
 31
0.0
  0
LINE
  8
0
 62
     0
 10
49.7198
 20
16.254
 30
0.0
 11
42.9701
 21
16.254
 31
0.0
  0
LINE
  8
0
 62
     0
 10
42.9701
 20
16.254
 30
0.0
 11
42.9701
 21
13.0238
 31
0.0
  0
LINE
  8
0
 62
     0
 10
42.9701
 20
13.0238
 30
0.0
 11
42.1446
 21
13.0238
 31
0.0
  0
LINE
  8
0
 62
     0
 10
42.1446
 20
13.0238
 30
0.0
 11
42.1446
 21
10.2237
 31
0.0
  0
LINE
  8
0
 62
     0
 10
42.1446
 20
10.2237
 30
0.0
 11
42.9701
 21
10.2237
 31
0.0
  0
LINE
  8
0
 62
     0
 10
42.9701
 20
10.2237
 30
0.0
 11
42.9701
 21
3.95358
 31
0.0
  0
LINE
  8
0
 62
     0
 10
42.9701
 20
3.95358
 30
0.0
 11
44.6938
 21
3.95358
 31
0.0
  0
LINE
  8
0
 62
     0
 10
44.6938
 20
3.95358
 30
0.0
 11
44.6938
 21
2.7547
 31
0.0
  0
LINE
  8
0
 62
     0
 10
44.6938
 20
2.7547
 30
0.0
 11
47.9944
 21
2.7547
 31
0.0
  0
LINE
  8
0
 62
     0
 10
47.9944
 20
2.7547
 30
0.0
 11
47.9944
 21
3.95358
 31
0.0
  0
LINE
  8
0
 62
     0
 10
47.9944
 20
3.95358
 30
0.0
 11
49.7198
 21
3.95358
 31
0.0
  0
LINE
  8
0
 62
     0
 10
49.7198
 20
3.95358
 30
0.0
 11
49.7198
 21
8.42395
 31
0.0
  0
LINE
  8
0
 62
     0
 10
49.7198
 20
8.42395
 30
0.0
 11
51.2452
 21
8.42395
 31
0.0
  0
LINE
  8
0
 62
     0
 10
51.2452
 20
8.42395
 30
0.0
 11
51.2452
 21
3.72346
 31
0.0
  0
LINE
  8
0
 62
     0
 10
51.2452
 20
3.72346
 30
0.0
 11
65.2445
 21
3.72346
 31
0.0
  0
LINE
  8
0
 62
     0
 10
65.2445
 20
3.72346
 30
0.0
 11
65.2445
 21
8.42395
 31
0.0
  0
LINE
  8
0
 62
     0
 10
65.2445
 20
8.42395
 30
0.0
 11
66.7703
 21
8.42395
 31
0.0
  0
LINE
  8
0
 62
     0
 10
66.7703
 20
8.42395
 30
0.0
 11
66.7703
 21
3.95358
 31
0.0
  0
LINE
  8
0
 62
     0
 10
66.7703
 20
3.95358
 30
0.0
 11
68.4939
 21
3.95358
 31
0.0
  0
LINE
  8
0
 62
     0
 10
68.4939
 20
3.95358
 30
0.0
 11
68.4939
 21
2.7547
 31
0.0
  0
LINE
  8
0
 62
     0
 10
68.4939
 20
2.7547
 30
0.0
 11
71.7945
 21
2.7547
 31
0.0
  0
LINE
  8
0
 62
     0
 10
71.7945
 20
2.7547
 30
0.0
 11
71.7945
 21
3.95358
 31
0.0
  0
LINE
  8
0
 62
     0
 10
71.7945
 20
3.95358
 30
0.0
 11
73.5196
 21
3.95358
 31
0.0
  0
LINE
  8
0
 62
     0
 10
73.5196
 20
3.95358
 30
0.0
 11
73.5196
 21
10.2237
 31
0.0
  0
LINE
  8
0
 62
     0
 10
73.5196
 20
10.2237
 30
0.0
 11
74.3451
 21
10.2237
 31
0.0
  0
LINE
  8
0
 62
     0
 10
74.3451
 20
10.2237
 30
0.0
 11
74.3451
 21
13.0238
 31
0.0
  0
LINE
  8
0
 62
     0
 10
74.3451
 20
13.0238
 30
0.0
 11
73.5196
 21
13.0238
 31
0.0
  0
LINE
  8
0
 62
     0
 10
73.5196
 20
13.0238
 30
0.0
 11
73.5196
 21
16.254
 31
0.0
  0
LINE
  8
0
 62
     0
 10
73.5196
 20
16.254
 30
0.0
 11
66.7703
 21
16.254
 31
0.0
  0
LINE
  8
0
 62
     0
 10
66.7703
 20
16.254
 30
0.0
 11
66.7703
 21
13.0238
 31
0.0
  0
LINE
  8
0
 62
     0
 10
66.7703
 20
13.0238
 30
0.0
 11
65.2445
 21
13.0238
 31
0.0
  0
LINE
  8
0
 62
     0
 10
65.2445
 20
13.0238
 30
0.0
 11
65.2445
 21
17.7243
 31
0.0
  0
LINE
  8
0
 62
     0
 10
65.2445
 20
17.7243
 30
0.0
 11
51.2452
 21
17.7243
 31
0.0
  0
LINE
  8
0
 62
     0
 10
196.5
 20
17.7243
 30
0.0
 11
196.5
 21
13.0238
 31
0.0
  0
LINE
  8
0
 62
     0
 10
196.5
 20
13.0238
 30
0.0
 11
194.976
 21
13.0238
 31
0.0
  0
LINE
  8
0
 62
     0
 10
194.976
 20
13.0238
 30
0.0
 11
194.976
 21
16.254
 31
0.0
  0
LINE
  8
0
 62
     0
 10
194.976
 20
16.254
 30
0.0
 11
188.225
 21
16.254
 31
0.0
  0
LINE
  8
0
 62
     0
 10
188.225
 20
16.254
 30
0.0
 11
188.225
 21
13.0238
 31
0.0
  0
LINE
  8
0
 62
     0
 10
188.225
 20
13.0238
 30
0.0
 11
187.401
 21
13.0238
 31
0.0
  0
LINE
  8
0
 62
     0
 10
187.401
 20
13.0238
 30
0.0
 11
187.401
 21
10.2237
 31
0.0
  0
LINE
  8
0
 62
     0
 10
187.401
 20
10.2237
 30
0.0
 11
188.225
 21
10.2237
 31
0.0
  0
LINE
  8
0
 62
     0
 10
188.225
 20
10.2237
 30
0.0
 11
188.225
 21
3.95358
 31
0.0
  0
LINE
  8
0
 62
     0
 10
188.225
 20
3.95358
 30
0.0
 11
189.95
 21
3.95358
 31
0.0
  0
LINE
  8
0
 62
     0
 10
189.95
 20
3.95358
 30
0.0
 11
189.95
 21
2.7547
 31
0.0
  0
LINE
  8
0
 62
     0
 10
189.95
 20
2.7547
 30
0.0
 11
193.251
 21
2.7547
 31
0.0
  0
LINE
  8
0
 62
     0
 10
193.251
 20
2.7547
 30
0.0
 11
193.251
 21
3.95358
 31
0.0
  0
LINE
  8
0
 62
     0
 10
193.251
 20
3.95358
 30
0.0
 11
194.976
 21
3.95358
 31
0.0
  0
LINE
  8
0
 62
     0
 10
194.976
 20
3.95358
 30
0.0
 11
194.976
 21
8.42395
 31
0.0
  0
LINE
  8
0
 62
     0
 10
194.976
 20
8.42395
 30
0.0
 11
196.5
 21
8.42395
 31
0.0
  0
LINE
  8
0
 62
     0
 10
196.5
 20
8.42395
 30
0.0
 11
196.5
 21
3.72346
 31
0.0
  0
LINE
  8
0
 62
     0
 10
196.5
 20
3.72346
 30
0.0
 11
210.501
 21
3.72346
 31
0.0
  0
LINE
  8
0
 62
     0
 10
210.501
 20
3.72346
 30
0.0
 11
210.501
 21
8.42395
 31
0.0
  0
LINE
  8
0
 62
     0
 10
210.501
 20
8.42395
 30
0.0
 11
212.025
 21
8.42395
 31
0.0
  0
LINE
  8
0
 62
     0
 10
212.025
 20
8.42395
 30
0.0
 11
212.025
 21
3.95358
 31
0.0
  0
LINE
  8
0
 62
     0
 10
212.025
 20
3.95358
 30
0.0
 11
213.75
 21
3.95358
 31
0.0
  0
LINE
  8
0
 62
     0
 10
213.75
 20
3.95358
 30
0.0
 11
213.75
 21
2.7547
 31
0.0
  0
LINE
  8
0
 62
     0
 10
213.75
 20
2.7547
 30
0.0
 11
217.051
 21
2.7547
 31
0.0
  0
LINE
  8
0
 62
     0
 10
217.051
 20
2.7547
 30
0.0
 11
217.051
 21
3.95358
 31
0.0
  0
LINE
  8
0
 62
     0
 10
217.051
 20
3.95358
 30
0.0
 11
218.776
 21
3.95358
 31
0.0
  0
LINE
  8
0
 62
     0
 10
218.776
 20
3.95358
 30
0.0
 11
218.776
 21
10.2237
 31
0.0
  0
LINE
  8
0
 62
     0
 10
218.776
 20
10.2237
 30
0.0
 11
219.6
 21
10.2237
 31
0.0
  0
LINE
  8
0
 62
     0
 10
219.6
 20
10.2237
 30
0.0
 11
219.6
 21
13.0238
 31
0.0
  0
LINE
  8
0
 62
     0
 10
219.6
 20
13.0238
 30
0.0
 11
218.776
 21
13.0238
 31
0.0
  0
LINE
  8
0
 62
     0
 10
218.776
 20
13.0238
 30
0.0
 11
218.776
 21
16.254
 31
0.0
  0
LINE
  8
0
 62
     0
 10
218.776
 20
16.254
 30
0.0
 11
212.025
 21
16.254
 31
0.0
  0
LINE
  8
0
 62
     0
 10
212.025
 20
16.254
 30
0.0
 11
212.025
 21
13.0238
 31
0.0
  0
LINE
  8
0
 62
     0
 10
212.025
 20
13.0238
 30
0.0
 11
210.501
 21
13.0238
 31
0.0
  0
LINE
  8
0
 62
     0
 10
210.501
 20
13.0238
 30
0.0
 11
210.501
 21
17.7243
 31
0.0
  0
LINE
  8
0
 62
     0
 10
210.501
 20
17.7243
 30
0.0
 11
196.5
 21
17.7243
 31
0.0
  0
LINE
  8
0
 62
     0
 10
22.6701
 20
17.7243
 30
0.0
 11
36.6695
 21
17.7243
 31
0.0
  0
LINE
  8
0
 62
     0
 10
36.6695
 20
17.7243
 30
0.0
 11
36.6695
 21
3.72346
 31
0.0
  0
LINE
  8
0
 62
     0
 10
36.6695
 20
3.72346
 30
0.0
 11
22.6701
 21
3.72346
 31
0.0
  0
LINE
  8
0
 62
     0
 10
22.6701
 20
3.72346
 30
0.0
 11
22.6701
 21
17.7243
 31
0.0
  0
LINE
  8
0
 62
     0
 10
91.725
 20
17.7243
 30
0.0
 11
105.726
 21
17.7243
 31
0.0
  0
LINE
  8
0
 62
     0
 10
105.726
 20
17.7243
 30
0.0
 11
105.726
 21
3.72346
 31
0.0
  0
LINE
  8
0
 62
     0
 10
105.726
 20
3.72346
 30
0.0
 11
91.725
 21
3.72346
 31
0.0
  0
LINE
  8
0
 62
     0
 10
91.725
 20
3.72346
 30
0.0
 11
91.725
 21
17.7243
 31
0.0
  0
LINE
  8
0
 62
     0
 10
115.538
 20
17.7243
 30
0.0
 11
129.537
 21
17.7243
 31
0.0
  0
LINE
  8
0
 62
     0
 10
129.537
 20
17.7243
 30
0.0
 11
129.537
 21
3.72346
 31
0.0
  0
LINE
  8
0
 62
     0
 10
129.537
 20
3.72346
 30
0.0
 11
115.538
 21
3.72346
 31
0.0
  0
LINE
  8
0
 62
     0
 10
115.538
 20
3.72346
 30
0.0
 11
115.538
 21
17.7243
 31
0.0
  0
LINE
  8
0
 62
     0
 10
139.35
 20
17.7243
 30
0.0
 11
153.351
 21
17.7243
 31
0.0
  0
LINE
  8
0
 62
     0
 10
153.351
 20
17.7243
 30
0.0
 11
153.351
 21
3.72346
 31
0.0
  0
LINE
  8
0
 62
     0
 10
153.351
 20
3.72346
 30
0.0
 11
139.35
 21
3.72346
 31
0.0
  0
LINE
  8
0
 62
     0
 10
139.35
 20
3.72346
 30
0.0
 11
139.35
 21
17.7243
 31
0.0
  0
LINE
  8
0
 62
     0
 10
163.163
 20
17.7243
 30
0.0
 11
177.162
 21
17.7243
 31
0.0
  0
LINE
  8
0
 62
     0
 10
177.162
 20
17.7243
 30
0.0
 11
177.162
 21
3.72346
 31
0.0
  0
LINE
  8
0
 62
     0
 10
177.162
 20
3.72346
 30
0.0
 11
163.163
 21
3.72346
 31
0.0
  0
LINE
  8
0
 62
     0
 10
163.163
 20
3.72346
 30
0.0
 11
163.163
 21
17.7243
 31
0.0
  0
LINE
  8
0
 62
     0
 10
10.1189
 20
36.3485
 30
0.0
 11
10.1189
 21
35.5244
 31
0.0
  0
LINE
  8
0
 62
     0
 10
10.1189
 20
35.5244
 30
0.0
 11
3.84888
 21
35.5244
 31
0.0
  0
LINE
  8
0
 62
     0
 10
3.84888
 20
35.5244
 30
0.0
 11
3.84888
 21
33.7991
 31
0.0
  0
LINE
  8
0
 62
     0
 10
3.84888
 20
33.7991
 30
0.0
 11
2.64997
 21
33.7991
 31
0.0
  0
LINE
  8
0
 62
     0
 10
2.64997
 20
33.7991
 30
0.0
 11
2.64997
 21
30.4987
 31
0.0
  0
LINE
  8
0
 62
     0
 10
2.64997
 20
30.4987
 30
0.0
 11
3.84888
 21
30.4987
 31
0.0
  0
LINE
  8
0
 62
     0
 10
3.84888
 20
30.4987
 30
0.0
 11
3.84888
 21
28.7734
 31
0.0
  0
LINE
  8
0
 62
     0
 10
3.84888
 20
28.7734
 30
0.0
 11
8.31921
 21
28.7734
 31
0.0
  0
LINE
  8
0
 62
     0
 10
8.31921
 20
28.7734
 30
0.0
 11
8.31921
 21
27.2493
 31
0.0
  0
LINE
  8
0
 62
     0
 10
8.31921
 20
27.2493
 30
0.0
 11
3.6201
 21
27.2493
 31
0.0
  0
LINE
  8
0
 62
     0
 10
3.6201
 20
27.2493
 30
0.0
 11
3.6201
 21
13.2485
 31
0.0
  0
LINE
  8
0
 62
     0
 10
3.6201
 20
13.2485
 30
0.0
 11
8.31921
 21
13.2485
 31
0.0
  0
LINE
  8
0
 62
     0
 10
8.31921
 20
13.2485
 30
0.0
 11
8.31921
 21
11.7244
 31
0.0
  0
LINE
  8
0
 62
     0
 10
8.31921
 20
11.7244
 30
0.0
 11
3.84888
 21
11.7244
 31
0.0
  0
LINE
  8
0
 62
     0
 10
3.84888
 20
11.7244
 30
0.0
 11
3.84888
 21
9.99906
 31
0.0
  0
LINE
  8
0
 62
     0
 10
3.84888
 20
9.99906
 30
0.0
 11
2.64997
 21
9.99906
 31
0.0
  0
LINE
  8
0
 62
     0
 10
2.64997
 20
9.99906
 30
0.0
 11
2.64997
 21
6.69865
 31
0.0
  0
LINE
  8
0
 62
     0
 10
2.64997
 20
6.69865
 30
0.0
 11
3.84888
 21
6.69865
 31
0.0
  0
LINE
  8
0
 62
     0
 10
3.84888
 20
6.69865
 30
0.0
 11
3.84888
 21
4.97473
 31
0.0
  0
LINE
  8
0
 62
     0
 10
3.84888
 20
4.97473
 30
0.0
 11
10.1189
 21
4.97473
 31
0.0
  0
LINE
  8
0
 62
     0
 10
10.1189
 20
4.97473
 30
0.0
 11
10.1189
 21
4.14927
 31
0.0
  0
LINE
  8
0
 62
     0
 10
10.1189
 20
4.14927
 30
0.0
 11
12.9191
 21
4.14927
 31
0.0
  0
LINE
  8
0
 62
     0
 10
12.9191
 20
4.14927
 30
0.0
 11
12.9191
 21
4.97473
 31
0.0
  0
LINE
  8
0
 62
     0
 10
12.9191
 20
4.97473
 30
0.0
 11
16.1492
 21
4.97473
 31
0.0
  0
LINE
  8
0
 62
     0
 10
16.1492
 20
4.97473
 30
0.0
 11
16.1492
 21
11.7244
 31
0.0
  0
LINE
  8
0
 62
     0
 10
16.1492
 20
11.7244
 30
0.0
 11
12.9191
 21
11.7244
 31
0.0
  0
LINE
  8
0
 62
     0
 10
12.9191
 20
11.7244
 30
0.0
 11
12.9191
 21
13.2485
 31
0.0
  0
LINE
  8
0
 62
     0
 10
12.9191
 20
13.2485
 30
0.0
 11
17.6196
 21
13.2485
 31
0.0
  0
LINE
  8
0
 62
     0
 10
17.6196
 20
13.2485
 30
0.0
 11
17.6196
 21
27.2493
 31
0.0
  0
LINE
  8
0
 62
     0
 10
17.6196
 20
27.2493
 30
0.0
 11
12.9191
 21
27.2493
 31
0.0
  0
LINE
  8
0
 62
     0
 10
12.9191
 20
27.2493
 30
0.0
 11
12.9191
 21
28.7734
 31
0.0
  0
LINE
  8
0
 62
     0
 10
12.9191
 20
28.7734
 30
0.0
 11
16.1492
 21
28.7734
 31
0.0
  0
LINE
  8
0
 62
     0
 10
16.1492
 20
28.7734
 30
0.0
 11
16.1492
 21
35.5244
 31
0.0
  0
LINE
  8
0
 62
     0
 10
16.1492
 20
35.5244
 30
0.0
 11
12.9191
 21
35.5244
 31
0.0
  0
LINE
  8
0
 62
     0
 10
12.9191
 20
35.5244
 30
0.0
 11
12.9191
 21
36.3485
 31
0.0
  0
LINE
  8
0
 62
     0
 10
12.9191
 20
36.3485
 30
0.0
 11
10.1189
 21
36.3485
 31
0.0
  0
LINE
  8
0
 62
     0
 10
101.25
 20
36.7743
 30
0.0
 11
101.25
 21
32.0738
 31
0.0
  0
LINE
  8
0
 62
     0
 10
101.25
 20
32.0738
 30
0.0
 11
99.726
 21
32.0738
 31
0.0
  0
LINE
  8
0
 62
     0
 10
99.726
 20
32.0738
 30
0.0
 11
99.726
 21
35.3039
 31
0.0
  0
LINE
  8
0
 62
     0
 10
99.726
 20
35.3039
 30
0.0
 11
92.9749
 21
35.3039
 31
0.0
  0
LINE
  8
0
 62
     0
 10
92.9749
 20
35.3039
 30
0.0
 11
92.9749
 21
32.0738
 31
0.0
  0
LINE
  8
0
 62
     0
 10
92.9749
 20
32.0738
 30
0.0
 11
92.1508
 21
32.0738
 31
0.0
  0
LINE
  8
0
 62
     0
 10
92.1508
 20
32.0738
 30
0.0
 11
92.1508
 21
29.2737
 31
0.0
  0
LINE
  8
0
 62
     0
 10
92.1508
 20
29.2737
 30
0.0
 11
92.9749
 21
29.2737
 31
0.0
  0
LINE
  8
0
 62
     0
 10
92.9749
 20
29.2737
 30
0.0
 11
92.9749
 21
23.0036
 31
0.0
  0
LINE
  8
0
 62
     0
 10
92.9749
 20
23.0036
 30
0.0
 11
94.7
 21
23.0036
 31
0.0
  0
LINE
  8
0
 62
     0
 10
94.7
 20
23.0036
 30
0.0
 11
94.7
 21
21.8047
 31
0.0
  0
LINE
  8
0
 62
     0
 10
94.7
 20
21.8047
 30
0.0
 11
98.0006
 21
21.8047
 31
0.0
  0
LINE
  8
0
 62
     0
 10
98.0006
 20
21.8047
 30
0.0
 11
98.0006
 21
23.0036
 31
0.0
  0
LINE
  8
0
 62
     0
 10
98.0006
 20
23.0036
 30
0.0
 11
99.726
 21
23.0036
 31
0.0
  0
LINE
  8
0
 62
     0
 10
99.726
 20
23.0036
 30
0.0
 11
99.726
 21
27.4739
 31
0.0
  0
LINE
  8
0
 62
     0
 10
99.726
 20
27.4739
 30
0.0
 11
101.25
 21
27.4739
 31
0.0
  0
LINE
  8
0
 62
     0
 10
101.25
 20
27.4739
 30
0.0
 11
101.25
 21
22.7735
 31
0.0
  0
LINE
  8
0
 62
     0
 10
101.25
 20
22.7735
 30
0.0
 11
115.251
 21
22.7735
 31
0.0
  0
LINE
  8
0
 62
     0
 10
115.251
 20
22.7735
 30
0.0
 11
115.251
 21
27.4739
 31
0.0
  0
LINE
  8
0
 62
     0
 10
115.251
 20
27.4739
 30
0.0
 11
116.775
 21
27.4739
 31
0.0
  0
LINE
  8
0
 62
     0
 10
116.775
 20
27.4739
 30
0.0
 11
116.775
 21
23.0036
 31
0.0
  0
LINE
  8
0
 62
     0
 10
116.775
 20
23.0036
 30
0.0
 11
118.5
 21
23.0036
 31
0.0
  0
LINE
  8
0
 62
     0
 10
118.5
 20
23.0036
 30
0.0
 11
118.5
 21
21.8047
 31
0.0
  0
LINE
  8
0
 62
     0
 10
118.5
 20
21.8047
 30
0.0
 11
121.801
 21
21.8047
 31
0.0
  0
LINE
  8
0
 62
     0
 10
121.801
 20
21.8047
 30
0.0
 11
121.801
 21
23.0036
 31
0.0
  0
LINE
  8
0
 62
     0
 10
121.801
 20
23.0036
 30
0.0
 11
123.526
 21
23.0036
 31
0.0
  0
LINE
  8
0
 62
     0
 10
123.526
 20
23.0036
 30
0.0
 11
123.526
 21
29.2737
 31
0.0
  0
LINE
  8
0
 62
     0
 10
123.526
 20
29.2737
 30
0.0
 11
124.35
 21
29.2737
 31
0.0
  0
LINE
  8
0
 62
     0
 10
124.35
 20
29.2737
 30
0.0
 11
124.35
 21
32.0738
 31
0.0
  0
LINE
  8
0
 62
     0
 10
124.35
 20
32.0738
 30
0.0
 11
123.526
 21
32.0738
 31
0.0
  0
LINE
  8
0
 62
     0
 10
123.526
 20
32.0738
 30
0.0
 11
123.526
 21
35.3039
 31
0.0
  0
LINE
  8
0
 62
     0
 10
123.526
 20
35.3039
 30
0.0
 11
116.775
 21
35.3039
 31
0.0
  0
LINE
  8
0
 62
     0
 10
116.775
 20
35.3039
 30
0.0
 11
116.775
 21
32.0738
 31
0.0
  0
LINE
  8
0
 62
     0
 10
116.775
 20
32.0738
 30
0.0
 11
115.251
 21
32.0738
 31
0.0
  0
LINE
  8
0
 62
     0
 10
115.251
 20
32.0738
 30
0.0
 11
115.251
 21
36.7743
 31
0.0
  0
LINE
  8
0
 62
     0
 10
115.251
 20
36.7743
 30
0.0
 11
101.25
 21
36.7743
 31
0.0
  0
LINE
  8
0
 62
     0
 10
22.6701
 20
36.7743
 30
0.0
 11
36.6695
 21
36.7743
 31
0.0
  0
LINE
  8
0
 62
     0
 10
36.6695
 20
36.7743
 30
0.0
 11
36.6695
 21
22.7735
 31
0.0
  0
LINE
  8
0
 62
     0
 10
36.6695
 20
22.7735
 30
0.0
 11
22.6701
 21
22.7735
 31
0.0
  0
LINE
  8
0
 62
     0
 10
22.6701
 20
22.7735
 30
0.0
 11
22.6701
 21
36.7743
 31
0.0
  0
LINE
  8
0
 62
     0
 10
41.7202
 20
36.7743
 30
0.0
 11
55.7195
 21
36.7743
 31
0.0
  0
LINE
  8
0
 62
     0
 10
55.7195
 20
36.7743
 30
0.0
 11
55.7195
 21
22.7735
 31
0.0
  0
LINE
  8
0
 62
     0
 10
55.7195
 20
22.7735
 30
0.0
 11
41.7202
 21
22.7735
 31
0.0
  0
LINE
  8
0
 62
     0
 10
41.7202
 20
22.7735
 30
0.0
 11
41.7202
 21
36.7743
 31
0.0
  0
LINE
  8
0
 62
     0
 10
60.7702
 20
36.7743
 30
0.0
 11
74.7695
 21
36.7743
 31
0.0
  0
LINE
  8
0
 62
     0
 10
74.7695
 20
36.7743
 30
0.0
 11
74.7695
 21
22.7735
 31
0.0
  0
LINE
  8
0
 62
     0
 10
74.7695
 20
22.7735
 30
0.0
 11
60.7702
 21
22.7735
 31
0.0
  0
LINE
  8
0
 62
     0
 10
60.7702
 20
22.7735
 30
0.0
 11
60.7702
 21
36.7743
 31
0.0
  0
LINE
  8
0
 62
     0
 10
132.206
 20
36.7743
 30
0.0
 11
146.207
 21
36.7743
 31
0.0
  0
LINE
  8
0
 62
     0
 10
146.207
 20
36.7743
 30
0.0
 11
146.207
 21
22.7735
 31
0.0
  0
LINE
  8
0
 62
     0
 10
146.207
 20
22.7735
 30
0.0
 11
132.206
 21
22.7735
 31
0.0
  0
LINE
  8
0
 62
     0
 10
132.206
 20
22.7735
 30
0.0
 11
132.206
 21
36.7743
 31
0.0
  0
LINE
  8
0
 62
     0
 10
151.256
 20
36.7743
 30
0.0
 11
165.257
 21
36.7743
 31
0.0
  0
LINE
  8
0
 62
     0
 10
165.257
 20
36.7743
 30
0.0
 11
165.257
 21
22.7735
 31
0.0
  0
LINE
  8
0
 62
     0
 10
165.257
 20
22.7735
 30
0.0
 11
151.256
 21
22.7735
 31
0.0
  0
LINE
  8
0
 62
     0
 10
151.256
 20
22.7735
 30
0.0
 11
151.256
 21
36.7743
 31
0.0
  0
LINE
  8
0
 62
     0
 10
170.306
 20
36.7743
 30
0.0
 11
184.307
 21
36.7743
 31
0.0
  0
LINE
  8
0
 62
     0
 10
184.307
 20
36.7743
 30
0.0
 11
184.307
 21
22.7735
 31
0.0
  0
LINE
  8
0
 62
     0
 10
184.307
 20
22.7735
 30
0.0
 11
170.306
 21
22.7735
 31
0.0
  0
LINE
  8
0
 62
     0
 10
170.306
 20
22.7735
 30
0.0
 11
170.306
 21
36.7743
 31
0.0
  0
LINE
  8
0
 62
     0
 10
189.356
 20
36.7743
 30
0.0
 11
203.357
 21
36.7743
 31
0.0
  0
LINE
  8
0
 62
     0
 10
203.357
 20
36.7743
 30
0.0
 11
203.357
 21
22.7735
 31
0.0
  0
LINE
  8
0
 62
     0
 10
203.357
 20
22.7735
 30
0.0
 11
189.356
 21
22.7735
 31
0.0
  0
LINE
  8
0
 62
     0
 10
189.356
 20
22.7735
 30
0.0
 11
189.356
 21
36.7743
 31
0.0
  0
LINE
  8
0
 62
     0
 10
208.406
 20
36.7743
 30
0.0
 11
222.407
 21
36.7743
 31
0.0
  0
LINE
  8
0
 62
     0
 10
222.407
 20
36.7743
 30
0.0
 11
222.407
 21
22.7735
 31
0.0
  0
LINE
  8
0
 62
     0
 10
222.407
 20
22.7735
 30
0.0
 11
208.406
 21
22.7735
 31
0.0
  0
LINE
  8
0
 62
     0
 10
208.406
 20
22.7735
 30
0.0
 11
208.406
 21
36.7743
 31
0.0
  0
LINE
  8
0
 62
     0
 10
22.6701
 20
55.8243
 30
0.0
 11
36.6695
 21
55.8243
 31
0.0
  0
LINE
  8
0
 62
     0
 10
36.6695
 20
55.8243
 30
0.0
 11
36.6695
 21
41.8236
 31
0.0
  0
LINE
  8
0
 62
     0
 10
36.6695
 20
41.8236
 30
0.0
 11
22.6701
 21
41.8236
 31
0.0
  0
LINE
  8
0
 62
     0
 10
22.6701
 20
41.8236
 30
0.0
 11
22.6701
 21
55.8243
 31
0.0
  0
LINE
  8
0
 62
     0
 10
41.7202
 20
55.8243
 30
0.0
 11
55.7195
 21
55.8243
 31
0.0
  0
LINE
  8
0
 62
     0
 10
55.7195
 20
55.8243
 30
0.0
 11
55.7195
 21
41.8236
 31
0.0
  0
LINE
  8
0
 62
     0
 10
55.7195
 20
41.8236
 30
0.0
 11
41.7202
 21
41.8236
 31
0.0
  0
LINE
  8
0
 62
     0
 10
41.7202
 20
41.8236
 30
0.0
 11
41.7202
 21
55.8243
 31
0.0
  0
LINE
  8
0
 62
     0
 10
60.7702
 20
55.8243
 30
0.0
 11
74.7695
 21
55.8243
 31
0.0
  0
LINE
  8
0
 62
     0
 10
74.7695
 20
55.8243
 30
0.0
 11
74.7695
 21
41.8236
 31
0.0
  0
LINE
  8
0
 62
     0
 10
74.7695
 20
41.8236
 30
0.0
 11
60.7702
 21
41.8236
 31
0.0
  0
LINE
  8
0
 62
     0
 10
60.7702
 20
41.8236
 30
0.0
 11
60.7702
 21
55.8243
 31
0.0
  0
LINE
  8
0
 62
     0
 10
96.4875
 20
55.8243
 30
0.0
 11
110.487
 21
55.8243
 31
0.0
  0
LINE
  8
0
 62
     0
 10
110.487
 20
55.8243
 30
0.0
 11
110.487
 21
41.8236
 31
0.0
  0
LINE
  8
0
 62
     0
 10
110.487
 20
41.8236
 30
0.0
 11
96.4875
 21
41.8236
 31
0.0
  0
LINE
  8
0
 62
     0
 10
96.4875
 20
41.8236
 30
0.0
 11
96.4875
 21
55.8243
 31
0.0
  0
LINE
  8
0
 62
     0
 10
122.681
 20
55.8243
 30
0.0
 11
136.682
 21
55.8243
 31
0.0
  0
LINE
  8
0
 62
     0
 10
136.682
 20
55.8243
 30
0.0
 11
136.682
 21
41.8236
 31
0.0
  0
LINE
  8
0
 62
     0
 10
136.682
 20
41.8236
 30
0.0
 11
122.681
 21
41.8236
 31
0.0
  0
LINE
  8
0
 62
     0
 10
122.681
 20
41.8236
 30
0.0
 11
122.681
 21
55.8243
 31
0.0
  0
LINE
  8
0
 62
     0
 10
141.731
 20
55.8243
 30
0.0
 11
155.732
 21
55.8243
 31
0.0
  0
LINE
  8
0
 62
     0
 10
155.732
 20
55.8243
 30
0.0
 11
155.732
 21
41.8236
 31
0.0
  0
LINE
  8
0
 62
     0
 10
155.732
 20
41.8236
 30
0.0
 11
141.731
 21
41.8236
 31
0.0
  0
LINE
  8
0
 62
     0
 10
141.731
 20
41.8236
 30
0.0
 11
141.731
 21
55.8243
 31
0.0
  0
LINE
  8
0
 62
     0
 10
160.781
 20
55.8243
 30
0.0
 11
174.782
 21
55.8243
 31
0.0
  0
LINE
  8
0
 62
     0
 10
174.782
 20
55.8243
 30
0.0
 11
174.782
 21
41.8236
 31
0.0
  0
LINE
  8
0
 62
     0
 10
174.782
 20
41.8236
 30
0.0
 11
160.781
 21
41.8236
 31
0.0
  0
LINE
  8
0
 62
     0
 10
160.781
 20
41.8236
 30
0.0
 11
160.781
 21
55.8243
 31
0.0
  0
LINE
  8
0
 62
     0
 10
179.831
 20
55.8243
 30
0.0
 11
193.832
 21
55.8243
 31
0.0
  0
LINE
  8
0
 62
     0
 10
193.832
 20
55.8243
 30
0.0
 11
193.832
 21
41.8236
 31
0.0
  0
LINE
  8
0
 62
     0
 10
193.832
 20
41.8236
 30
0.0
 11
179.831
 21
41.8236
 31
0.0
  0
LINE
  8
0
 62
     0
 10
179.831
 20
41.8236
 30
0.0
 11
179.831
 21
55.8243
 31
0.0
  0
LINE
  8
0
 62
     0
 10
198.881
 20
55.8243
 30
0.0
 11
212.882
 21
55.8243
 31
0.0
  0
LINE
  8
0
 62
     0
 10
212.882
 20
55.8243
 30
0.0
 11
212.882
 21
41.8236
 31
0.0
  0
LINE
  8
0
 62
     0
 10
212.882
 20
41.8236
 30
0.0
 11
198.881
 21
41.8236
 31
0.0
  0
LINE
  8
0
 62
     0
 10
198.881
 20
41.8236
 30
0.0
 11
198.881
 21
55.8243
 31
0.0
  0
LINE
  8
0
 62
     0
 10
10.1189
 20
74.4485
 30
0.0
 11
10.1189
 21
73.6244
 31
0.0
  0
LINE
  8
0
 62
     0
 10
10.1189
 20
73.6244
 30
0.0
 11
3.84888
 21
73.6244
 31
0.0
  0
LINE
  8
0
 62
     0
 10
3.84888
 20
73.6244
 30
0.0
 11
3.84888
 21
71.8993
 31
0.0
  0
LINE
  8
0
 62
     0
 10
3.84888
 20
71.8993
 30
0.0
 11
2.64997
 21
71.8993
 31
0.0
  0
LINE
  8
0
 62
     0
 10
2.64997
 20
71.8993
 30
0.0
 11
2.64997
 21
68.5987
 31
0.0
  0
LINE
  8
0
 62
     0
 10
2.64997
 20
68.5987
 30
0.0
 11
3.84888
 21
68.5987
 31
0.0
  0
LINE
  8
0
 62
     0
 10
3.84888
 20
68.5987
 30
0.0
 11
3.84888
 21
66.8736
 31
0.0
  0
LINE
  8
0
 62
     0
 10
3.84888
 20
66.8736
 30
0.0
 11
8.31921
 21
66.8736
 31
0.0
  0
LINE
  8
0
 62
     0
 10
8.31921
 20
66.8736
 30
0.0
 11
8.31921
 21
65.3493
 31
0.0
  0
LINE
  8
0
 62
     0
 10
8.31921
 20
65.3493
 30
0.0
 11
3.6201
 21
65.3493
 31
0.0
  0
LINE
  8
0
 62
     0
 10
3.6201
 20
65.3493
 30
0.0
 11
3.6201
 21
51.3486
 31
0.0
  0
LINE
  8
0
 62
     0
 10
3.6201
 20
51.3486
 30
0.0
 11
8.31921
 21
51.3486
 31
0.0
  0
LINE
  8
0
 62
     0
 10
8.31921
 20
51.3486
 30
0.0
 11
8.31921
 21
49.8242
 31
0.0
  0
LINE
  8
0
 62
     0
 10
8.31921
 20
49.8242
 30
0.0
 11
3.84888
 21
49.8242
 31
0.0
  0
LINE
  8
0
 62
     0
 10
3.84888
 20
49.8242
 30
0.0
 11
3.84888
 21
48.0991
 31
0.0
  0
LINE
  8
0
 62
     0
 10
3.84888
 20
48.0991
 30
0.0
 11
2.64997
 21
48.0991
 31
0.0
  0
LINE
  8
0
 62
     0
 10
2.64997
 20
48.0991
 30
0.0
 11
2.64997
 21
44.7985
 31
0.0
  0
LINE
  8
0
 62
     0
 10
2.64997
 20
44.7985
 30
0.0
 11
3.84888
 21
44.7985
 31
0.0
  0
LINE
  8
0
 62
     0
 10
3.84888
 20
44.7985
 30
0.0
 11
3.84888
 21
43.0749
 31
0.0
  0
LINE
  8
0
 62
     0
 10
3.84888
 20
43.0749
 30
0.0
 11
10.1189
 21
43.0749
 31
0.0
  0
LINE
  8
0
 62
     0
 10
10.1189
 20
43.0749
 30
0.0
 11
10.1189
 21
42.2494
 31
0.0
  0
LINE
  8
0
 62
     0
 10
10.1189
 20
42.2494
 30
0.0
 11
12.9191
 21
42.2494
 31
0.0
  0
LINE
  8
0
 62
     0
 10
12.9191
 20
42.2494
 30
0.0
 11
12.9191
 21
43.0749
 31
0.0
  0
LINE
  8
0
 62
     0
 10
12.9191
 20
43.0749
 30
0.0
 11
16.1492
 21
43.0749
 31
0.0
  0
LINE
  8
0
 62
     0
 10
16.1492
 20
43.0749
 30
0.0
 11
16.1492
 21
49.8242
 31
0.0
  0
LINE
  8
0
 62
     0
 10
16.1492
 20
49.8242
 30
0.0
 11
12.9191
 21
49.8242
 31
0.0
  0
LINE
  8
0
 62
     0
 10
12.9191
 20
49.8242
 30
0.0
 11
12.9191
 21
51.3486
 31
0.0
  0
LINE
  8
0
 62
     0
 10
12.9191
 20
51.3486
 30
0.0
 11
17.6196
 21
51.3486
 31
0.0
  0
LINE
  8
0
 62
     0
 10
17.6196
 20
51.3486
 30
0.0
 11
17.6196
 21
65.3493
 31
0.0
  0
LINE
  8
0
 62
     0
 10
17.6196
 20
65.3493
 30
0.0
 11
12.9191
 21
65.3493
 31
0.0
  0
LINE
  8
0
 62
     0
 10
12.9191
 20
65.3493
 30
0.0
 11
12.9191
 21
66.8736
 31
0.0
  0
LINE
  8
0
 62
     0
 10
12.9191
 20
66.8736
 30
0.0
 11
16.1492
 21
66.8736
 31
0.0
  0
LINE
  8
0
 62
     0
 10
16.1492
 20
66.8736
 30
0.0
 11
16.1492
 21
73.6244
 31
0.0
  0
LINE
  8
0
 62
     0
 10
16.1492
 20
73.6244
 30
0.0
 11
12.9191
 21
73.6244
 31
0.0
  0
LINE
  8
0
 62
     0
 10
12.9191
 20
73.6244
 30
0.0
 11
12.9191
 21
74.4485
 31
0.0
  0
LINE
  8
0
 62
     0
 10
12.9191
 20
74.4485
 30
0.0
 11
10.1189
 21
74.4485
 31
0.0
  0
LINE
  8
0
 62
     0
 10
22.6701
 20
74.8743
 30
0.0
 11
36.6695
 21
74.8743
 31
0.0
  0
LINE
  8
0
 62
     0
 10
36.6695
 20
74.8743
 30
0.0
 11
36.6695
 21
60.8736
 31
0.0
  0
LINE
  8
0
 62
     0
 10
36.6695
 20
60.8736
 30
0.0
 11
22.6701
 21
60.8736
 31
0.0
  0
LINE
  8
0
 62
     0
 10
22.6701
 20
60.8736
 30
0.0
 11
22.6701
 21
74.8743
 31
0.0
  0
LINE
  8
0
 62
     0
 10
41.7202
 20
74.8743
 30
0.0
 11
55.7195
 21
74.8743
 31
0.0
  0
LINE
  8
0
 62
     0
 10
55.7195
 20
74.8743
 30
0.0
 11
55.7195
 21
60.8736
 31
0.0
  0
LINE
  8
0
 62
     0
 10
55.7195
 20
60.8736
 30
0.0
 11
41.7202
 21
60.8736
 31
0.0
  0
LINE
  8
0
 62
     0
 10
41.7202
 20
60.8736
 30
0.0
 11
41.7202
 21
74.8743
 31
0.0
  0
LINE
  8
0
 62
     0
 10
60.7702
 20
74.8743
 30
0.0
 11
74.7695
 21
74.8743
 31
0.0
  0
LINE
  8
0
 62
     0
 10
74.7695
 20
74.8743
 30
0.0
 11
74.7695
 21
60.8736
 31
0.0
  0
LINE
  8
0
 62
     0
 10
74.7695
 20
60.8736
 30
0.0
 11
60.7702
 21
60.8736
 31
0.0
  0
LINE
  8
0
 62
     0
 10
60.7702
 20
60.8736
 30
0.0
 11
60.7702
 21
74.8743
 31
0.0
  0
LINE
  8
0
 62
     0
 10
94.1063
 20
74.8743
 30
0.0
 11
108.107
 21
74.8743
 31
0.0
  0
LINE
  8
0
 62
     0
 10
108.107
 20
74.8743
 30
0.0
 11
108.107
 21
60.8736
 31
0.0
  0
LINE
  8
0
 62
     0
 10
108.107
 20
60.8736
 30
0.0
 11
94.1063
 21
60.8736
 31
0.0
  0
LINE
  8
0
 62
     0
 10
94.1063
 20
60.8736
 30
0.0
 11
94.1063
 21
74.8743
 31
0.0
  0
LINE
  8
0
 62
     0
 10
117.919
 20
74.8743
 30
0.0
 11
131.919
 21
74.8743
 31
0.0
  0
LINE
  8
0
 62
     0
 10
131.919
 20
74.8743
 30
0.0
 11
131.919
 21
60.8736
 31
0.0
  0
LINE
  8
0
 62
     0
 10
131.919
 20
60.8736
 30
0.0
 11
117.919
 21
60.8736
 31
0.0
  0
LINE
  8
0
 62
     0
 10
117.919
 20
60.8736
 30
0.0
 11
117.919
 21
74.8743
 31
0.0
  0
LINE
  8
0
 62
     0
 10
136.97
 20
74.8743
 30
0.0
 11
150.969
 21
74.8743
 31
0.0
  0
LINE
  8
0
 62
     0
 10
150.969
 20
74.8743
 30
0.0
 11
150.969
 21
60.8736
 31
0.0
  0
LINE
  8
0
 62
     0
 10
150.969
 20
60.8736
 30
0.0
 11
136.97
 21
60.8736
 31
0.0
  0
LINE
  8
0
 62
     0
 10
136.97
 20
60.8736
 30
0.0
 11
136.97
 21
74.8743
 31
0.0
  0
LINE
  8
0
 62
     0
 10
156.02
 20
74.8743
 30
0.0
 11
170.019
 21
74.8743
 31
0.0
  0
LINE
  8
0
 62
     0
 10
170.019
 20
74.8743
 30
0.0
 11
170.019
 21
60.8736
 31
0.0
  0
LINE
  8
0
 62
     0
 10
170.019
 20
60.8736
 30
0.0
 11
156.02
 21
60.8736
 31
0.0
  0
LINE
  8
0
 62
     0
 10
156.02
 20
60.8736
 30
0.0
 11
156.02
 21
74.8743
 31
0.0
  0
LINE
  8
0
 62
     0
 10
175.07
 20
74.8743
 30
0.0
 11
189.069
 21
74.8743
 31
0.0
  0
LINE
  8
0
 62
     0
 10
189.069
 20
74.8743
 30
0.0
 11
189.069
 21
60.8736
 31
0.0
  0
LINE
  8
0
 62
     0
 10
189.069
 20
60.8736
 30
0.0
 11
175.07
 21
60.8736
 31
0.0
  0
LINE
  8
0
 62
     0
 10
175.07
 20
60.8736
 30
0.0
 11
175.07
 21
74.8743
 31
0.0
  0
LINE
  8
0
 62
     0
 10
194.12
 20
74.8743
 30
0.0
 11
208.119
 21
74.8743
 31
0.0
  0
LINE
  8
0
 62
     0
 10
208.119
 20
74.8743
 30
0.0
 11
208.119
 21
60.8736
 31
0.0
  0
LINE
  8
0
 62
     0
 10
208.119
 20
60.8736
 30
0.0
 11
194.12
 21
60.8736
 31
0.0
  0
LINE
  8
0
 62
     0
 10
194.12
 20
60.8736
 30
0.0
 11
194.12
 21
74.8743
 31
0.0
  0
LINE
  8
0
 62
     0
 10
3.6201
 20
93.9243
 30
0.0
 11
17.6196
 21
93.9243
 31
0.0
  0
LINE
  8
0
 62
     0
 10
17.6196
 20
93.9243
 30
0.0
 11
17.6196
 21
79.9236
 31
0.0
  0
LINE
  8
0
 62
     0
 10
17.6196
 20
79.9236
 30
0.0
 11
3.6201
 21
79.9236
 31
0.0
  0
LINE
  8
0
 62
     0
 10
3.6201
 20
79.9236
 30
0.0
 11
3.6201
 21
93.9243
 31
0.0
  0
LINE
  8
0
 62
     0
 10
22.6701
 20
93.9243
 30
0.0
 11
36.6695
 21
93.9243
 31
0.0
  0
LINE
  8
0
 62
     0
 10
36.6695
 20
93.9243
 30
0.0
 11
36.6695
 21
79.9236
 31
0.0
  0
LINE
  8
0
 62
     0
 10
36.6695
 20
79.9236
 30
0.0
 11
22.6701
 21
79.9236
 31
0.0
  0
LINE
  8
0
 62
     0
 10
22.6701
 20
79.9236
 30
0.0
 11
22.6701
 21
93.9243
 31
0.0
  0
LINE
  8
0
 62
     0
 10
41.7202
 20
93.9243
 30
0.0
 11
55.7195
 21
93.9243
 31
0.0
  0
LINE
  8
0
 62
     0
 10
55.7195
 20
93.9243
 30
0.0
 11
55.7195
 21
79.9236
 31
0.0
  0
LINE
  8
0
 62
     0
 10
55.7195
 20
79.9236
 30
0.0
 11
41.7202
 21
79.9236
 31
0.0
  0
LINE
  8
0
 62
     0
 10
41.7202
 20
79.9236
 30
0.0
 11
41.7202
 21
93.9243
 31
0.0
  0
LINE
  8
0
 62
     0
 10
60.7702
 20
93.9243
 30
0.0
 11
74.7695
 21
93.9243
 31
0.0
  0
LINE
  8
0
 62
     0
 10
74.7695
 20
93.9243
 30
0.0
 11
74.7695
 21
79.9236
 31
0.0
  0
LINE
  8
0
 62
     0
 10
74.7695
 20
79.9236
 30
0.0
 11
60.7702
 21
79.9236
 31
0.0
  0
LINE
  8
0
 62
     0
 10
60.7702
 20
79.9236
 30
0.0
 11
60.7702
 21
93.9243
 31
0.0
  0
LINE
  8
0
 62
     0
 10
89.3452
 20
93.9243
 30
0.0
 11
103.344
 21
93.9243
 31
0.0
  0
LINE
  8
0
 62
     0
 10
103.344
 20
93.9243
 30
0.0
 11
103.344
 21
79.9236
 31
0.0
  0
LINE
  8
0
 62
     0
 10
103.344
 20
79.9236
 30
0.0
 11
89.3452
 21
79.9236
 31
0.0
  0
LINE
  8
0
 62
     0
 10
89.3452
 20
79.9236
 30
0.0
 11
89.3452
 21
93.9243
 31
0.0
  0
LINE
  8
0
 62
     0
 10
108.395
 20
93.9243
 30
0.0
 11
122.394
 21
93.9243
 31
0.0
  0
LINE
  8
0
 62
     0
 10
122.394
 20
93.9243
 30
0.0
 11
122.394
 21
79.9236
 31
0.0
  0
LINE
  8
0
 62
     0
 10
122.394
 20
79.9236
 30
0.0
 11
108.395
 21
79.9236
 31
0.0
  0
LINE
  8
0
 62
     0
 10
108.395
 20
79.9236
 30
0.0
 11
108.395
 21
93.9243
 31
0.0
  0
LINE
  8
0
 62
     0
 10
127.445
 20
93.9243
 30
0.0
 11
141.444
 21
93.9243
 31
0.0
  0
LINE
  8
0
 62
     0
 10
141.444
 20
93.9243
 30
0.0
 11
141.444
 21
79.9236
 31
0.0
  0
LINE
  8
0
 62
     0
 10
141.444
 20
79.9236
 30
0.0
 11
127.445
 21
79.9236
 31
0.0
  0
LINE
  8
0
 62
     0
 10
127.445
 20
79.9236
 30
0.0
 11
127.445
 21
93.9243
 31
0.0
  0
LINE
  8
0
 62
     0
 10
146.495
 20
93.9243
 30
0.0
 11
160.494
 21
93.9243
 31
0.0
  0
LINE
  8
0
 62
     0
 10
160.494
 20
93.9243
 30
0.0
 11
160.494
 21
79.9236
 31
0.0
  0
LINE
  8
0
 62
     0
 10
160.494
 20
79.9236
 30
0.0
 11
146.495
 21
79.9236
 31
0.0
  0
LINE
  8
0
 62
     0
 10
146.495
 20
79.9236
 30
0.0
 11
146.495
 21
93.9243
 31
0.0
  0
LINE
  8
0
 62
     0
 10
165.545
 20
93.9243
 30
0.0
 11
179.544
 21
93.9243
 31
0.0
  0
LINE
  8
0
 62
     0
 10
179.544
 20
93.9243
 30
0.0
 11
179.544
 21
79.9236
 31
0.0
  0
LINE
  8
0
 62
     0
 10
179.544
 20
79.9236
 30
0.0
 11
165.545
 21
79.9236
 31
0.0
  0
LINE
  8
0
 62
     0
 10
165.545
 20
79.9236
 30
0.0
 11
165.545
 21
93.9243
 31
0.0
  0
LINE
  8
0
 62
     0
 10
184.595
 20
93.9243
 30
0.0
 11
198.594
 21
93.9243
 31
0.0
  0
LINE
  8
0
 62
     0
 10
198.594
 20
93.9243
 30
0.0
 11
198.594
 21
79.9236
 31
0.0
  0
LINE
  8
0
 62
     0
 10
198.594
 20
79.9236
 30
0.0
 11
184.595
 21
79.9236
 31
0.0
  0
LINE
  8
0
 62
     0
 10
184.595
 20
79.9236
 30
0.0
 11
184.595
 21
93.9243
 31
0.0
  0
LINE
  8
0
 62
     0
 10
203.645
 20
93.9243
 30
0.0
 11
217.644
 21
93.9243
 31
0.0
  0
LINE
  8
0
 62
     0
 10
217.644
 20
93.9243
 30
0.0
 11
217.644
 21
79.9236
 31
0.0
  0
LINE
  8
0
 62
     0
 10
217.644
 20
79.9236
 30
0.0
 11
203.645
 21
79.9236
 31
0.0
  0
LINE
  8
0
 62
     0
 10
203.645
 20
79.9236
 30
0.0
 11
203.645
 21
93.9243
 31
0.0
  0
LINE
  8
0
 62
     0
 10
89.3452
 20
117.735
 30
0.0
 11
103.344
 21
117.735
 31
0.0
  0
LINE
  8
0
 62
     0
 10
103.344
 20
117.735
 30
0.0
 11
103.344
 21
103.736
 31
0.0
  0
LINE
  8
0
 62
     0
 10
103.344
 20
103.736
 30
0.0
 11
89.3452
 21
103.736
 31
0.0
  0
LINE
  8
0
 62
     0
 10
89.3452
 20
103.736
 30
0.0
 11
89.3452
 21
117.735
 31
0.0
  0
LINE
  8
0
 62
     0
 10
108.395
 20
117.735
 30
0.0
 11
122.394
 21
117.735
 31
0.0
  0
LINE
  8
0
 62
     0
 10
122.394
 20
117.735
 30
0.0
 11
122.394
 21
103.736
 31
0.0
  0
LINE
  8
0
 62
     0
 10
122.394
 20
103.736
 30
0.0
 11
108.395
 21
103.736
 31
0.0
  0
LINE
  8
0
 62
     0
 10
108.395
 20
103.736
 30
0.0
 11
108.395
 21
117.735
 31
0.0
  0
LINE
  8
0
 62
     0
 10
127.445
 20
117.735
 30
0.0
 11
141.444
 21
117.735
 31
0.0
  0
LINE
  8
0
 62
     0
 10
141.444
 20
117.735
 30
0.0
 11
141.444
 21
103.736
 31
0.0
  0
LINE
  8
0
 62
     0
 10
141.444
 20
103.736
 30
0.0
 11
127.445
 21
103.736
 31
0.0
  0
LINE
  8
0
 62
     0
 10
127.445
 20
103.736
 30
0.0
 11
127.445
 21
117.735
 31
0.0
  0
LINE
  8
0
 62
     0
 10
146.495
 20
117.735
 30
0.0
 11
160.494
 21
117.735
 31
0.0
  0
LINE
  8
0
 62
     0
 10
160.494
 20
117.735
 30
0.0
 11
160.494
 21
103.736
 31
0.0
  0
LINE
  8
0
 62
     0
 10
160.494
 20
103.736
 30
0.0
 11
146.495
 21
103.736
 31
0.0
  0
LINE
  8
0
 62
     0
 10
146.495
 20
103.736
 30
0.0
 11
146.495
 21
117.735
 31
0.0
  0
LINE
  8
0
 62
     0
 10
165.545
 20
117.735
 30
0.0
 11
179.544
 21
117.735
 31
0.0
  0
LINE
  8
0
 62
     0
 10
179.544
 20
117.735
 30
0.0
 11
179.544
 21
103.736
 31
0.0
  0
LINE
  8
0
 62
     0
 10
179.544
 20
103.736
 30
0.0
 11
165.545
 21
103.736
 31
0.0
  0
LINE
  8
0
 62
     0
 10
165.545
 20
103.736
 30
0.0
 11
165.545
 21
117.735
 31
0.0
  0
LINE
  8
0
 62
     0
 10
184.595
 20
117.735
 30
0.0
 11
198.594
 21
117.735
 31
0.0
  0
LINE
  8
0
 62
     0
 10
198.594
 20
117.735
 30
0.0
 11
198.594
 21
103.736
 31
0.0
  0
LINE
  8
0
 62
     0
 10
198.594
 20
103.736
 30
0.0
 11
184.595
 21
103.736
 31
0.0
  0
LINE
  8
0
 62
     0
 10
184.595
 20
103.736
 30
0.0
 11
184.595
 21
117.735
 31
0.0
  0
LINE
  8
0
 62
     0
 10
203.645
 20
117.735
 30
0.0
 11
217.644
 21
117.735
 31
0.0
  0
LINE
  8
0
 62
     0
 10
217.644
 20
117.735
 30
0.0
 11
217.644
 21
103.736
 31
0.0
  0
LINE
  8
0
 62
     0
 10
217.644
 20
103.736
 30
0.0
 11
203.645
 21
103.736
 31
0.0
  0
LINE
  8
0
 62
     0
 10
203.645
 20
103.736
 30
0.0
 11
203.645
 21
117.735
 31
0.0
  0
ENDSEC
  0
EOF
