<?xml version="1.0"?>
<!-- Generated by SVGo -->
<svg width="235.838mm" height="131.063mm"
     viewBox="0.000 0.000 235.838 131.063"
     xmlns="http://www.w3.org/2000/svg" 
     xmlns:xlink="http://www.w3.org/1999/xlink">
<polygon points="230.838,126.063 5.000,126.063 5.000,5.000 230.838,5.000" style="fill:none;stroke-width:0.050000mm;stroke:black"/>
<polygon points="56.150,108.537 56.150,113.237 54.625,113.237 54.625,110.007 47.875,110.007 47.875,113.237 47.050,113.237 47.050,116.037 47.875,116.037 47.875,122.307 49.600,122.307 49.600,123.507 52.900,123.507 52.900,122.307 54.625,122.307 54.625,117.837 56.150,117.837 56.150,122.537 70.150,122.537 70.150,117.837 71.675,117.837 71.675,122.307 73.400,122.307 73.400,123.507 76.700,123.507 76.700,122.307 78.425,122.307 78.425,116.037 79.250,116.037 79.250,113.237 78.425,113.237 78.425,110.007 71.675,110.007 71.675,113.237 70.150,113.237 70.150,108.537" style="fill:none;stroke-width:0.050000mm;stroke:black"/>
<polygon points="201.406,108.537 201.406,113.237 199.881,113.237 199.881,110.007 193.131,110.007 193.131,113.237 192.306,113.237 192.306,116.037 193.131,116.037 193.131,122.307 194.856,122.307 194.856,123.507 198.156,123.507 198.156,122.307 199.881,122.307 199.881,117.837 201.406,117.837 201.406,122.537 215.406,122.537 215.406,117.837 216.931,117.837 216.931,122.307 218.656,122.307 218.656,123.507 221.956,123.507 221.956,122.307 223.681,122.307 223.681,116.037 224.506,116.037 224.506,113.237 223.681,113.237 223.681,110.007 216.931,110.007 216.931,113.237 215.406,113.237 215.406,108.537" style="fill:none;stroke-width:0.050000mm;stroke:black"/>
<polygon points="27.575,108.537 27.575,122.537 41.575,122.537 41.575,108.537" style="fill:none;stroke-width:0.050000mm;stroke:black"/>
<polygon points="96.631,108.537 96.631,122.537 110.631,122.537 110.631,108.537" style="fill:none;stroke-width:0.050000mm;stroke:black"/>
<polygon points="120.443,108.537 120.443,122.537 134.443,122.537 134.443,108.537" style="fill:none;stroke-width:0.050000mm;stroke:black"/>
<polygon points="144.256,108.537 144.256,122.537 158.256,122.537 158.256,108.537" style="fill:none;stroke-width:0.050000mm;stroke:black"/>
<polygon points="168.068,108.537 168.068,122.537 182.068,122.537 182.068,108.537" style="fill:none;stroke-width:0.050000mm;stroke:black"/>
<polygon points="15.024,89.912 15.024,90.737 8.754,90.737 8.754,92.462 7.555,92.462 7.555,95.762 8.754,95.762 8.754,97.487 13.225,97.487 13.225,99.012 8.525,99.012 8.525,113.012 13.225,113.012 13.225,114.537 8.755,114.537 8.755,116.262 7.555,116.262 7.555,119.562 8.755,119.562 8.755,121.287 15.025,121.287 15.025,122.112 17.825,122.112 17.825,121.287 21.055,121.287 21.055,114.537 17.825,114.537 17.825,113.012 22.525,113.012 22.525,99.012 17.825,99.012 17.825,97.487 21.055,97.487 21.055,90.737 17.825,90.737 17.825,89.912" style="fill:none;stroke-width:0.050000mm;stroke:black"/>
<polygon points="106.156,89.487 106.156,94.187 104.631,94.187 104.631,90.957 97.881,90.957 97.881,94.187 97.056,94.187 97.056,96.987 97.881,96.987 97.881,103.257 99.606,103.257 99.606,104.457 102.906,104.457 102.906,103.257 104.631,103.257 104.631,98.787 106.156,98.787 106.156,103.487 120.156,103.487 120.156,98.787 121.681,98.787 121.681,103.257 123.406,103.257 123.406,104.457 126.706,104.457 126.706,103.257 128.431,103.257 128.431,96.987 129.256,96.987 129.256,94.187 128.431,94.187 128.431,90.957 121.681,90.957 121.681,94.187 120.156,94.187 120.156,89.487" style="fill:none;stroke-width:0.050000mm;stroke:black"/>
<polygon points="27.575,89.487 27.575,103.487 41.575,103.487 41.575,89.487" style="fill:none;stroke-width:0.050000mm;stroke:black"/>
<polygon points="46.625,89.487 46.625,103.487 60.625,103.487 60.625,89.487" style="fill:none;stroke-width:0.050000mm;stroke:black"/>
<polygon points="65.675,89.487 65.675,103.487 79.675,103.487 79.675,89.487" style="fill:none;stroke-width:0.050000mm;stroke:black"/>
<polygon points="137.112,89.487 137.112,103.487 151.112,103.487 151.112,89.487" style="fill:none;stroke-width:0.050000mm;stroke:black"/>
<polygon points="156.162,89.487 156.162,103.487 170.162,103.487 170.162,89.487" style="fill:none;stroke-width:0.050000mm;stroke:black"/>
<polygon points="175.212,89.487 175.212,103.487 189.212,103.487 189.212,89.487" style="fill:none;stroke-width:0.050000mm;stroke:black"/>
<polygon points="194.262,89.487 194.262,103.487 208.262,103.487 208.262,89.487" style="fill:none;stroke-width:0.050000mm;stroke:black"/>
<polygon points="213.312,89.487 213.312,103.487 227.312,103.487 227.312,89.487" style="fill:none;stroke-width:0.050000mm;stroke:black"/>
<polygon points="27.575,70.437 27.575,84.437 41.575,84.437 41.575,70.437" style="fill:none;stroke-width:0.050000mm;stroke:black"/>
<polygon points="46.625,70.437 46.625,84.437 60.625,84.437 60.625,70.437" style="fill:none;stroke-width:0.050000mm;stroke:black"/>
<polygon points="65.675,70.437 65.675,84.437 79.675,84.437 79.675,70.437" style="fill:none;stroke-width:0.050000mm;stroke:black"/>
<polygon points="101.393,70.437 101.393,84.437 115.393,84.437 115.393,70.437" style="fill:none;stroke-width:0.050000mm;stroke:black"/>
<polygon points="127.587,70.437 127.587,84.437 141.587,84.437 141.587,70.437" style="fill:none;stroke-width:0.050000mm;stroke:black"/>
<polygon points="146.637,70.437 146.637,84.437 160.637,84.437 160.637,70.437" style="fill:none;stroke-width:0.050000mm;stroke:black"/>
<polygon points="165.687,70.437 165.687,84.437 179.687,84.437 179.687,70.437" style="fill:none;stroke-width:0.050000mm;stroke:black"/>
<polygon points="184.737,70.437 184.737,84.437 198.737,84.437 198.737,70.437" style="fill:none;stroke-width:0.050000mm;stroke:black"/>
<polygon points="203.787,70.437 203.787,84.437 217.787,84.437 217.787,70.437" style="fill:none;stroke-width:0.050000mm;stroke:black"/>
<polygon points="15.024,51.812 15.024,52.637 8.754,52.637 8.754,54.362 7.555,54.362 7.555,57.662 8.754,57.662 8.754,59.387 13.225,59.387 13.225,60.912 8.525,60.912 8.525,74.912 13.225,74.912 13.225,76.437 8.755,76.437 8.755,78.162 7.555,78.162 7.555,81.462 8.755,81.462 8.755,83.187 15.025,83.187 15.025,84.012 17.825,84.012 17.825,83.187 21.055,83.187 21.055,76.437 17.825,76.437 17.825,74.912 22.525,74.912 22.525,60.912 17.825,60.912 17.825,59.387 21.055,59.387 21.055,52.637 17.825,52.637 17.825,51.812" style="fill:none;stroke-width:0.050000mm;stroke:black"/>
<polygon points="27.575,51.387 27.575,65.387 41.575,65.387 41.575,51.387" style="fill:none;stroke-width:0.050000mm;stroke:black"/>
<polygon points="46.625,51.387 46.625,65.387 60.625,65.387 60.625,51.387" style="fill:none;stroke-width:0.050000mm;stroke:black"/>
<polygon points="65.675,51.387 65.675,65.387 79.675,65.387 79.675,51.387" style="fill:none;stroke-width:0.050000mm;stroke:black"/>
<polygon points="99.012,51.387 99.012,65.387 113.012,65.387 113.012,51.387" style="fill:none;stroke-width:0.050000mm;stroke:black"/>
<polygon points="122.824,51.387 122.824,65.387 136.825,65.387 136.825,51.387" style="fill:none;stroke-width:0.050000mm;stroke:black"/>
<polygon points="141.875,51.387 141.875,65.387 155.875,65.387 155.875,51.387" style="fill:none;stroke-width:0.050000mm;stroke:black"/>
<polygon points="160.925,51.387 160.925,65.387 174.925,65.387 174.925,51.387" style="fill:none;stroke-width:0.050000mm;stroke:black"/>
<polygon points="179.975,51.387 179.975,65.387 193.975,65.387 193.975,51.387" style="fill:none;stroke-width:0.050000mm;stroke:black"/>
<polygon points="199.025,51.387 199.025,65.387 213.025,65.387 213.025,51.387" style="fill:none;stroke-width:0.050000mm;stroke:black"/>
<polygon points="8.525,32.337 8.525,46.337 22.525,46.337 22.525,32.337" style="fill:none;stroke-width:0.050000mm;stroke:black"/>
<polygon points="27.575,32.337 27.575,46.337 41.575,46.337 41.575,32.337" style="fill:none;stroke-width:0.050000mm;stroke:black"/>
<polygon points="46.625,32.337 46.625,46.337 60.625,46.337 60.625,32.337" style="fill:none;stroke-width:0.050000mm;stroke:black"/>
<polygon points="65.675,32.337 65.675,46.337 79.675,46.337 79.675,32.337" style="fill:none;stroke-width:0.050000mm;stroke:black"/>
<polygon points="94.250,32.337 94.250,46.337 108.250,46.337 108.250,32.337" style="fill:none;stroke-width:0.050000mm;stroke:black"/>
<polygon points="113.300,32.337 113.300,46.337 127.300,46.337 127.300,32.337" style="fill:none;stroke-width:0.050000mm;stroke:black"/>
<polygon points="132.350,32.337 132.350,46.337 146.350,46.337 146.350,32.337" style="fill:none;stroke-width:0.050000mm;stroke:black"/>
<polygon points="151.400,32.337 151.400,46.337 165.400,46.337 165.400,32.337" style="fill:none;stroke-width:0.050000mm;stroke:black"/>
<polygon points="170.450,32.337 170.450,46.337 184.450,46.337 184.450,32.337" style="fill:none;stroke-width:0.050000mm;stroke:black"/>
<polygon points="189.500,32.337 189.500,46.337 203.500,46.337 203.500,32.337" style="fill:none;stroke-width:0.050000mm;stroke:black"/>
<polygon points="208.550,32.337 208.550,46.337 222.550,46.337 222.550,32.337" style="fill:none;stroke-width:0.050000mm;stroke:black"/>
<polygon points="94.250,8.525 94.250,22.525 108.250,22.525 108.250,8.525" style="fill:none;stroke-width:0.050000mm;stroke:black"/>
<polygon points="113.300,8.525 113.300,22.525 127.300,22.525 127.300,8.525" style="fill:none;stroke-width:0.050000mm;stroke:black"/>
<polygon points="132.350,8.525 132.350,22.525 146.350,22.525 146.350,8.525" style="fill:none;stroke-width:0.050000mm;stroke:black"/>
<polygon points="151.400,8.525 151.400,22.525 165.400,22.525 165.400,8.525" style="fill:none;stroke-width:0.050000mm;stroke:black"/>
<polygon points="170.450,8.525 170.450,22.525 184.450,22.525 184.450,8.525" style="fill:none;stroke-width:0.050000mm;stroke:black"/>
<polygon points="189.500,8.525 189.500,22.525 203.500,22.525 203.500,8.525" style="fill:none;stroke-width:0.050000mm;stroke:black"/>
<polygon points="208.550,8.525 208.550,22.525 222.550,22.525 222.550,8.525" style="fill:none;stroke-width:0.050000mm;stroke:black"/>
</svg>
