%TF.GenerationSoftware,KiCad,Pcbnew,7.0.5*%
%TF.CreationDate,2023-06-22T07:54:55+00:00*%
%TF.ProjectId,Entry-right,456e7472-792d-4726-9967-68742e6b6963,rev?*%
%TF.SameCoordinates,Original*%
%TF.FileFunction,Legend,Top*%
%TF.FilePolarity,Positive*%
%FSLAX46Y46*%
G04 Gerber Fmt 4.6, Leading zero omitted, Abs format (unit mm)*
G04 Created by KiCad (PCBNEW 7.0.5) date 2023-06-22 07:54:55*
%MOMM*%
%LPD*%
G01*
G04 APERTURE LIST*
%ADD10C,0.150000*%
%ADD11R,1.600000X1.600000*%
%ADD12C,1.600000*%
%ADD13C,2.000000*%
G04 APERTURE END LIST*
D10*
%TO.C,RESET1*%
X206510118Y-44746069D02*
X206176785Y-44269878D01*
X205938690Y-44746069D02*
X205938690Y-43746069D01*
X205938690Y-43746069D02*
X206319642Y-43746069D01*
X206319642Y-43746069D02*
X206414880Y-43793688D01*
X206414880Y-43793688D02*
X206462499Y-43841307D01*
X206462499Y-43841307D02*
X206510118Y-43936545D01*
X206510118Y-43936545D02*
X206510118Y-44079402D01*
X206510118Y-44079402D02*
X206462499Y-44174640D01*
X206462499Y-44174640D02*
X206414880Y-44222259D01*
X206414880Y-44222259D02*
X206319642Y-44269878D01*
X206319642Y-44269878D02*
X205938690Y-44269878D01*
X206938690Y-44222259D02*
X207272023Y-44222259D01*
X207414880Y-44746069D02*
X206938690Y-44746069D01*
X206938690Y-44746069D02*
X206938690Y-43746069D01*
X206938690Y-43746069D02*
X207414880Y-43746069D01*
X207795833Y-44698450D02*
X207938690Y-44746069D01*
X207938690Y-44746069D02*
X208176785Y-44746069D01*
X208176785Y-44746069D02*
X208272023Y-44698450D01*
X208272023Y-44698450D02*
X208319642Y-44650830D01*
X208319642Y-44650830D02*
X208367261Y-44555592D01*
X208367261Y-44555592D02*
X208367261Y-44460354D01*
X208367261Y-44460354D02*
X208319642Y-44365116D01*
X208319642Y-44365116D02*
X208272023Y-44317497D01*
X208272023Y-44317497D02*
X208176785Y-44269878D01*
X208176785Y-44269878D02*
X207986309Y-44222259D01*
X207986309Y-44222259D02*
X207891071Y-44174640D01*
X207891071Y-44174640D02*
X207843452Y-44127021D01*
X207843452Y-44127021D02*
X207795833Y-44031783D01*
X207795833Y-44031783D02*
X207795833Y-43936545D01*
X207795833Y-43936545D02*
X207843452Y-43841307D01*
X207843452Y-43841307D02*
X207891071Y-43793688D01*
X207891071Y-43793688D02*
X207986309Y-43746069D01*
X207986309Y-43746069D02*
X208224404Y-43746069D01*
X208224404Y-43746069D02*
X208367261Y-43793688D01*
X208795833Y-44222259D02*
X209129166Y-44222259D01*
X209272023Y-44746069D02*
X208795833Y-44746069D01*
X208795833Y-44746069D02*
X208795833Y-43746069D01*
X208795833Y-43746069D02*
X209272023Y-43746069D01*
X209557738Y-43746069D02*
X210129166Y-43746069D01*
X209843452Y-44746069D02*
X209843452Y-43746069D01*
%TO.C,U1*%
X266011750Y-43721750D02*
X263471750Y-43721750D01*
X266011750Y-36101750D02*
X266011750Y-43721750D01*
X263471750Y-48801750D02*
X232991750Y-48801750D01*
X263471750Y-43721750D02*
X263471750Y-48801750D01*
X263471750Y-36101750D02*
X266011750Y-36101750D01*
X263471750Y-31021750D02*
X263471750Y-36101750D01*
X263471750Y-31021750D02*
X232991750Y-31021750D01*
X232991750Y-48801750D02*
X232991750Y-31021750D01*
%TO.C,RESET1*%
X211212500Y-46541250D02*
X211212500Y-42041250D01*
X211212500Y-42041250D02*
X204712500Y-42041250D01*
X204712500Y-46541250D02*
X211212500Y-46541250D01*
X204712500Y-42041250D02*
X204712500Y-46541250D01*
%TO.C,U2*%
X29250000Y-52772500D02*
X41350000Y-52772500D01*
X29250000Y-52522500D02*
X27250000Y-52522500D01*
X27250000Y-46922500D02*
X27250000Y-52522500D01*
X29250000Y-46922500D02*
X27250000Y-46922500D01*
X29250000Y-46672500D02*
X29250000Y-52772500D01*
X29250000Y-46672500D02*
X41350000Y-46672500D01*
X41350000Y-46672500D02*
X41350000Y-52772500D01*
%TD*%
D11*
%TO.C,U1*%
X262201750Y-32291750D03*
D12*
X259661750Y-32291750D03*
X257121750Y-32291750D03*
X254581750Y-32291750D03*
X252041750Y-32291750D03*
X249501750Y-32291750D03*
X246961750Y-32291750D03*
X244421750Y-32291750D03*
X241881750Y-32291750D03*
X239341750Y-32291750D03*
X236801750Y-32291750D03*
X234261750Y-32291750D03*
X234261750Y-47531750D03*
X236801750Y-47531750D03*
X239341750Y-47531750D03*
X241881750Y-47531750D03*
X244421750Y-47531750D03*
X246961750Y-47531750D03*
X249501750Y-47531750D03*
X252041750Y-47531750D03*
X254581750Y-47531750D03*
X257121750Y-47531750D03*
X259661750Y-47531750D03*
X262201750Y-47531750D03*
%TD*%
D13*
%TO.C,RESET1*%
X211212500Y-46541250D03*
X204712500Y-46541250D03*
X211212500Y-42041250D03*
X204712500Y-42041250D03*
%TD*%
M02*
