M48
; DRILL file {KiCad 7.0.5} date Thu Jun 22 07:54:58 2023
; FORMAT={-:-/ absolute / metric / decimal}
; #@! TF.CreationDate,2023-06-22T07:54:58+00:00
; #@! TF.GenerationSoftware,Kicad,Pcbnew,7.0.5
; #@! TF.FileFunction,Plated,1,2,PTH
FMAT,2
METRIC
; #@! TA.AperFunction,Plated,PTH,ViaDrill
T1C0.300
; #@! TA.AperFunction,Plated,PTH,ComponentDrill
T2C0.800
; #@! TA.AperFunction,Plated,PTH,ComponentDrill
T3C0.900
; #@! TA.AperFunction,Plated,PTH,ComponentDrill
T4C1.100
; #@! TA.AperFunction,Plated,PTH,ComponentDrill
T5C1.300
%
G90
G05
T1
X38.953Y-61.0
X48.477Y-50.5
X67.528Y-47.45
X86.578Y-47.475
X105.627Y-47.45
X124.677Y-47.875
X143.727Y-47.65
X180.5Y-48.5
X191.0Y-46.0
X203.5Y-66.5
X203.5Y-85.5
X204.5Y-123.5
X204.5Y-143.0
T2
X49.462Y-118.86
X49.462Y-126.48
X54.287Y-80.76
X54.287Y-88.38
X58.987Y-99.81
X58.987Y-107.43
X63.813Y-37.898
X63.813Y-45.517
X63.813Y-61.71
X63.813Y-69.33
X68.513Y-118.86
X68.513Y-126.48
X68.513Y-137.91
X68.513Y-145.53
X73.322Y-80.76
X73.322Y-88.38
X78.037Y-99.81
X78.037Y-107.43
X82.862Y-37.898
X82.862Y-45.517
X82.862Y-61.71
X82.862Y-69.33
X87.563Y-118.86
X87.563Y-126.48
X87.563Y-137.91
X87.563Y-145.53
X92.373Y-80.76
X92.373Y-88.38
X97.087Y-99.81
X97.087Y-107.43
X101.912Y-37.898
X101.912Y-45.517
X101.912Y-61.71
X101.912Y-69.33
X106.612Y-118.86
X106.612Y-126.48
X111.422Y-80.76
X111.422Y-88.38
X116.137Y-99.81
X116.137Y-107.43
X120.962Y-37.898
X120.962Y-45.517
X120.962Y-61.71
X120.962Y-69.33
X125.662Y-118.86
X125.662Y-126.48
X130.472Y-80.76
X130.472Y-88.38
X135.188Y-99.81
X135.188Y-107.43
X140.012Y-37.898
X140.012Y-45.517
X140.012Y-61.71
X140.012Y-69.33
X144.713Y-118.86
X144.713Y-126.48
X149.427Y-137.91
X149.427Y-145.53
X149.522Y-80.76
X149.522Y-88.38
X154.237Y-99.81
X154.237Y-107.43
X159.063Y-37.898
X159.063Y-45.517
X159.063Y-61.71
X159.063Y-69.33
X168.577Y-80.76
X168.577Y-88.38
X173.287Y-137.91
X173.287Y-145.53
X197.052Y-57.15
X197.052Y-64.77
X197.052Y-80.76
X197.052Y-88.38
X197.052Y-99.81
X197.052Y-107.43
X197.052Y-118.86
X197.052Y-126.48
X197.052Y-137.91
X197.052Y-145.53
X225.627Y-61.71
X225.627Y-69.33
X225.627Y-80.76
X225.627Y-88.38
X225.627Y-137.91
X225.627Y-145.53
X244.677Y-61.71
X244.677Y-69.33
X244.677Y-80.76
X244.677Y-88.38
X244.677Y-118.86
X244.677Y-126.48
X244.677Y-137.91
X244.677Y-145.53
X252.39Y-142.8
X260.01Y-142.8
X263.727Y-61.71
X263.727Y-69.33
X263.727Y-80.76
X263.727Y-88.38
T4
X234.262Y-32.292
X234.262Y-47.532
X236.802Y-32.292
X236.802Y-47.532
X239.342Y-32.292
X239.342Y-47.532
X241.882Y-32.292
X241.882Y-47.532
X244.422Y-32.292
X244.422Y-47.532
X246.962Y-32.292
X246.962Y-47.532
X249.502Y-32.292
X249.502Y-47.532
X252.042Y-32.292
X252.042Y-47.532
X254.582Y-32.292
X254.582Y-47.532
X257.122Y-32.292
X257.122Y-47.532
X259.662Y-32.292
X259.662Y-47.532
X262.202Y-32.292
X262.202Y-47.532
T5
X204.712Y-42.041
X204.712Y-46.541
X211.212Y-42.041
X211.212Y-46.541
T3
G00X32.25Y-47.422
M15
G01X32.65Y-47.422
M16
G05
G00X35.25Y-47.422
M15
G01X35.65Y-47.422
M16
G05
G00X39.25Y-47.422
M15
G01X39.65Y-47.422
M16
G05
G00X40.35Y-52.023
M15
G01X40.75Y-52.023
M16
G05
T0
M30
