%TF.GenerationSoftware,KiCad,Pcbnew,7.0.5*%
%TF.CreationDate,2023-06-22T07:54:55+00:00*%
%TF.ProjectId,Entry-right,456e7472-792d-4726-9967-68742e6b6963,rev?*%
%TF.SameCoordinates,Original*%
%TF.FileFunction,Paste,Bot*%
%TF.FilePolarity,Positive*%
%FSLAX46Y46*%
G04 Gerber Fmt 4.6, Leading zero omitted, Abs format (unit mm)*
G04 Created by KiCad (PCBNEW 7.0.5) date 2023-06-22 07:54:55*
%MOMM*%
%LPD*%
G01*
G04 APERTURE LIST*
%ADD10R,2.550000X2.500000*%
G04 APERTURE END LIST*
D10*
%TO.C,MX17*%
X96102500Y-77470000D03*
X109029500Y-74930000D03*
%TD*%
%TO.C,MX21*%
X177065000Y-77470000D03*
X189992000Y-74930000D03*
%TD*%
%TO.C,MX33*%
X110390000Y-115570000D03*
X123317000Y-113030000D03*
%TD*%
%TO.C,MX8*%
X67527500Y-58420000D03*
X80454500Y-55880000D03*
%TD*%
%TO.C,MX36*%
X43715000Y-134620000D03*
X56642000Y-132080000D03*
%TD*%
%TO.C,MX42*%
X229452500Y-58420000D03*
X242379500Y-55880000D03*
%TD*%
%TO.C,MX46*%
X248502500Y-77470000D03*
X261429500Y-74930000D03*
%TD*%
%TO.C,MX32*%
X91340000Y-115570000D03*
X104267000Y-113030000D03*
%TD*%
%TO.C,MX23*%
X62765000Y-96520000D03*
X75692000Y-93980000D03*
%TD*%
%TO.C,MX37*%
X72290000Y-134620000D03*
X85217000Y-132080000D03*
%TD*%
%TO.C,MX45*%
X229452500Y-77470000D03*
X242379500Y-74930000D03*
%TD*%
%TO.C,MX27*%
X138965000Y-96520000D03*
X151892000Y-93980000D03*
%TD*%
%TO.C,MX4*%
X105627500Y-34607500D03*
X118554500Y-32067500D03*
%TD*%
%TO.C,MX13*%
X172302500Y-58420000D03*
X185229500Y-55880000D03*
%TD*%
%TO.C,MX29*%
X34190000Y-115570000D03*
X47117000Y-113030000D03*
%TD*%
%TO.C,MX18*%
X115152500Y-77470000D03*
X128079500Y-74930000D03*
%TD*%
%TO.C,MX20*%
X153252500Y-77470000D03*
X166179500Y-74930000D03*
%TD*%
%TO.C,MX48*%
X210402500Y-134620000D03*
X223329500Y-132080000D03*
%TD*%
%TO.C,MX9*%
X86577500Y-58420000D03*
X99504500Y-55880000D03*
%TD*%
%TO.C,MX19*%
X134202500Y-77470000D03*
X147129500Y-74930000D03*
%TD*%
%TO.C,MX25*%
X100865000Y-96520000D03*
X113792000Y-93980000D03*
%TD*%
%TO.C,MX26*%
X119915000Y-96520000D03*
X132842000Y-93980000D03*
%TD*%
%TO.C,MX3*%
X86577500Y-34607500D03*
X99504500Y-32067500D03*
%TD*%
%TO.C,MX31*%
X72290000Y-115570000D03*
X85217000Y-113030000D03*
%TD*%
%TO.C,MX10*%
X105627500Y-58420000D03*
X118554500Y-55880000D03*
%TD*%
%TO.C,MX49*%
X229452500Y-134620000D03*
X242379500Y-132080000D03*
%TD*%
%TO.C,MX11*%
X124677500Y-58420000D03*
X137604500Y-55880000D03*
%TD*%
%TO.C,MX28*%
X169921250Y-96520000D03*
X182848250Y-93980000D03*
%TD*%
%TO.C,MX12*%
X143727500Y-58420000D03*
X156654500Y-55880000D03*
%TD*%
%TO.C,MX44*%
X210402500Y-77470000D03*
X223329500Y-74930000D03*
%TD*%
%TO.C,MX40*%
X179446250Y-134620000D03*
X192373250Y-132080000D03*
%TD*%
%TO.C,MX22*%
X43715000Y-96520000D03*
X56642000Y-93980000D03*
%TD*%
%TO.C,MX14*%
X38952500Y-77470000D03*
X51879500Y-74930000D03*
%TD*%
%TO.C,MX35*%
X165158750Y-115570000D03*
X178085750Y-113030000D03*
%TD*%
%TO.C,MX24*%
X81815000Y-96520000D03*
X94742000Y-93980000D03*
%TD*%
%TO.C,MX43*%
X248502500Y-58420000D03*
X261429500Y-55880000D03*
%TD*%
%TO.C,MX38*%
X131821250Y-134620000D03*
X144748250Y-132080000D03*
%TD*%
%TO.C,MX7*%
X48477500Y-58420000D03*
X61404500Y-55880000D03*
%TD*%
%TO.C,MX30*%
X53240000Y-115570000D03*
X66167000Y-113030000D03*
%TD*%
%TO.C,MX41*%
X210402500Y-58420000D03*
X223329500Y-55880000D03*
%TD*%
%TO.C,MX34*%
X129440000Y-115570000D03*
X142367000Y-113030000D03*
%TD*%
%TO.C,MX47*%
X229452500Y-115570000D03*
X242379500Y-113030000D03*
%TD*%
%TO.C,MX2*%
X67527500Y-34607500D03*
X80454500Y-32067500D03*
%TD*%
%TO.C,MX6*%
X143727500Y-34607500D03*
X156654500Y-32067500D03*
%TD*%
%TO.C,MX39*%
X155633750Y-134620000D03*
X168560750Y-132080000D03*
%TD*%
%TO.C,MX5*%
X124677500Y-34607500D03*
X137604500Y-32067500D03*
%TD*%
%TO.C,MX15*%
X58002500Y-77470000D03*
X70929500Y-74930000D03*
%TD*%
%TO.C,MX1*%
X48477500Y-34607500D03*
X61404500Y-32067500D03*
%TD*%
%TO.C,MX16*%
X77052500Y-77470000D03*
X89979500Y-74930000D03*
%TD*%
%TO.C,MX50*%
X248502500Y-134620000D03*
X261429500Y-132080000D03*
%TD*%
M02*
