%TF.GenerationSoftware,KiCad,Pcbnew,7.0.5*%
%TF.CreationDate,2023-06-22T07:54:55+00:00*%
%TF.ProjectId,Entry-right,456e7472-792d-4726-9967-68742e6b6963,rev?*%
%TF.SameCoordinates,Original*%
%TF.FileFunction,Legend,Bot*%
%TF.FilePolarity,Positive*%
%FSLAX46Y46*%
G04 Gerber Fmt 4.6, Leading zero omitted, Abs format (unit mm)*
G04 Created by KiCad (PCBNEW 7.0.5) date 2023-06-22 07:54:55*
%MOMM*%
%LPD*%
G01*
G04 APERTURE LIST*
%ADD10C,0.150000*%
%ADD11C,0.120000*%
G04 APERTURE END LIST*
D10*
%TO.C,RESET1*%
X209287881Y-44746069D02*
X209621214Y-44269878D01*
X209859309Y-44746069D02*
X209859309Y-43746069D01*
X209859309Y-43746069D02*
X209478357Y-43746069D01*
X209478357Y-43746069D02*
X209383119Y-43793688D01*
X209383119Y-43793688D02*
X209335500Y-43841307D01*
X209335500Y-43841307D02*
X209287881Y-43936545D01*
X209287881Y-43936545D02*
X209287881Y-44079402D01*
X209287881Y-44079402D02*
X209335500Y-44174640D01*
X209335500Y-44174640D02*
X209383119Y-44222259D01*
X209383119Y-44222259D02*
X209478357Y-44269878D01*
X209478357Y-44269878D02*
X209859309Y-44269878D01*
X208859309Y-44222259D02*
X208525976Y-44222259D01*
X208383119Y-44746069D02*
X208859309Y-44746069D01*
X208859309Y-44746069D02*
X208859309Y-43746069D01*
X208859309Y-43746069D02*
X208383119Y-43746069D01*
X208002166Y-44698450D02*
X207859309Y-44746069D01*
X207859309Y-44746069D02*
X207621214Y-44746069D01*
X207621214Y-44746069D02*
X207525976Y-44698450D01*
X207525976Y-44698450D02*
X207478357Y-44650830D01*
X207478357Y-44650830D02*
X207430738Y-44555592D01*
X207430738Y-44555592D02*
X207430738Y-44460354D01*
X207430738Y-44460354D02*
X207478357Y-44365116D01*
X207478357Y-44365116D02*
X207525976Y-44317497D01*
X207525976Y-44317497D02*
X207621214Y-44269878D01*
X207621214Y-44269878D02*
X207811690Y-44222259D01*
X207811690Y-44222259D02*
X207906928Y-44174640D01*
X207906928Y-44174640D02*
X207954547Y-44127021D01*
X207954547Y-44127021D02*
X208002166Y-44031783D01*
X208002166Y-44031783D02*
X208002166Y-43936545D01*
X208002166Y-43936545D02*
X207954547Y-43841307D01*
X207954547Y-43841307D02*
X207906928Y-43793688D01*
X207906928Y-43793688D02*
X207811690Y-43746069D01*
X207811690Y-43746069D02*
X207573595Y-43746069D01*
X207573595Y-43746069D02*
X207430738Y-43793688D01*
X207002166Y-44222259D02*
X206668833Y-44222259D01*
X206525976Y-44746069D02*
X207002166Y-44746069D01*
X207002166Y-44746069D02*
X207002166Y-43746069D01*
X207002166Y-43746069D02*
X206525976Y-43746069D01*
X206240261Y-43746069D02*
X205668833Y-43746069D01*
X205954547Y-44746069D02*
X205954547Y-43746069D01*
%TO.C,D37*%
X90137319Y-140505714D02*
X89137319Y-140505714D01*
X89137319Y-140505714D02*
X89137319Y-140743809D01*
X89137319Y-140743809D02*
X89184938Y-140886666D01*
X89184938Y-140886666D02*
X89280176Y-140981904D01*
X89280176Y-140981904D02*
X89375414Y-141029523D01*
X89375414Y-141029523D02*
X89565890Y-141077142D01*
X89565890Y-141077142D02*
X89708747Y-141077142D01*
X89708747Y-141077142D02*
X89899223Y-141029523D01*
X89899223Y-141029523D02*
X89994461Y-140981904D01*
X89994461Y-140981904D02*
X90089700Y-140886666D01*
X90089700Y-140886666D02*
X90137319Y-140743809D01*
X90137319Y-140743809D02*
X90137319Y-140505714D01*
X89137319Y-141410476D02*
X89137319Y-142029523D01*
X89137319Y-142029523D02*
X89518271Y-141696190D01*
X89518271Y-141696190D02*
X89518271Y-141839047D01*
X89518271Y-141839047D02*
X89565890Y-141934285D01*
X89565890Y-141934285D02*
X89613509Y-141981904D01*
X89613509Y-141981904D02*
X89708747Y-142029523D01*
X89708747Y-142029523D02*
X89946842Y-142029523D01*
X89946842Y-142029523D02*
X90042080Y-141981904D01*
X90042080Y-141981904D02*
X90089700Y-141934285D01*
X90089700Y-141934285D02*
X90137319Y-141839047D01*
X90137319Y-141839047D02*
X90137319Y-141553333D01*
X90137319Y-141553333D02*
X90089700Y-141458095D01*
X90089700Y-141458095D02*
X90042080Y-141410476D01*
X89137319Y-142362857D02*
X89137319Y-143029523D01*
X89137319Y-143029523D02*
X90137319Y-142600952D01*
X89817319Y-145268095D02*
X88817319Y-145268095D01*
X89817319Y-145839523D02*
X89245890Y-145410952D01*
X88817319Y-145839523D02*
X89388747Y-145268095D01*
%TO.C,D49*%
X247252319Y-140505714D02*
X246252319Y-140505714D01*
X246252319Y-140505714D02*
X246252319Y-140743809D01*
X246252319Y-140743809D02*
X246299938Y-140886666D01*
X246299938Y-140886666D02*
X246395176Y-140981904D01*
X246395176Y-140981904D02*
X246490414Y-141029523D01*
X246490414Y-141029523D02*
X246680890Y-141077142D01*
X246680890Y-141077142D02*
X246823747Y-141077142D01*
X246823747Y-141077142D02*
X247014223Y-141029523D01*
X247014223Y-141029523D02*
X247109461Y-140981904D01*
X247109461Y-140981904D02*
X247204700Y-140886666D01*
X247204700Y-140886666D02*
X247252319Y-140743809D01*
X247252319Y-140743809D02*
X247252319Y-140505714D01*
X246585652Y-141934285D02*
X247252319Y-141934285D01*
X246204700Y-141696190D02*
X246918985Y-141458095D01*
X246918985Y-141458095D02*
X246918985Y-142077142D01*
X247252319Y-142505714D02*
X247252319Y-142696190D01*
X247252319Y-142696190D02*
X247204700Y-142791428D01*
X247204700Y-142791428D02*
X247157080Y-142839047D01*
X247157080Y-142839047D02*
X247014223Y-142934285D01*
X247014223Y-142934285D02*
X246823747Y-142981904D01*
X246823747Y-142981904D02*
X246442795Y-142981904D01*
X246442795Y-142981904D02*
X246347557Y-142934285D01*
X246347557Y-142934285D02*
X246299938Y-142886666D01*
X246299938Y-142886666D02*
X246252319Y-142791428D01*
X246252319Y-142791428D02*
X246252319Y-142600952D01*
X246252319Y-142600952D02*
X246299938Y-142505714D01*
X246299938Y-142505714D02*
X246347557Y-142458095D01*
X246347557Y-142458095D02*
X246442795Y-142410476D01*
X246442795Y-142410476D02*
X246680890Y-142410476D01*
X246680890Y-142410476D02*
X246776128Y-142458095D01*
X246776128Y-142458095D02*
X246823747Y-142505714D01*
X246823747Y-142505714D02*
X246871366Y-142600952D01*
X246871366Y-142600952D02*
X246871366Y-142791428D01*
X246871366Y-142791428D02*
X246823747Y-142886666D01*
X246823747Y-142886666D02*
X246776128Y-142934285D01*
X246776128Y-142934285D02*
X246680890Y-142981904D01*
X246932319Y-145268095D02*
X245932319Y-145268095D01*
X246932319Y-145839523D02*
X246360890Y-145410952D01*
X245932319Y-145839523D02*
X246503747Y-145268095D01*
%TO.C,D26*%
X137762319Y-102405714D02*
X136762319Y-102405714D01*
X136762319Y-102405714D02*
X136762319Y-102643809D01*
X136762319Y-102643809D02*
X136809938Y-102786666D01*
X136809938Y-102786666D02*
X136905176Y-102881904D01*
X136905176Y-102881904D02*
X137000414Y-102929523D01*
X137000414Y-102929523D02*
X137190890Y-102977142D01*
X137190890Y-102977142D02*
X137333747Y-102977142D01*
X137333747Y-102977142D02*
X137524223Y-102929523D01*
X137524223Y-102929523D02*
X137619461Y-102881904D01*
X137619461Y-102881904D02*
X137714700Y-102786666D01*
X137714700Y-102786666D02*
X137762319Y-102643809D01*
X137762319Y-102643809D02*
X137762319Y-102405714D01*
X136857557Y-103358095D02*
X136809938Y-103405714D01*
X136809938Y-103405714D02*
X136762319Y-103500952D01*
X136762319Y-103500952D02*
X136762319Y-103739047D01*
X136762319Y-103739047D02*
X136809938Y-103834285D01*
X136809938Y-103834285D02*
X136857557Y-103881904D01*
X136857557Y-103881904D02*
X136952795Y-103929523D01*
X136952795Y-103929523D02*
X137048033Y-103929523D01*
X137048033Y-103929523D02*
X137190890Y-103881904D01*
X137190890Y-103881904D02*
X137762319Y-103310476D01*
X137762319Y-103310476D02*
X137762319Y-103929523D01*
X136762319Y-104786666D02*
X136762319Y-104596190D01*
X136762319Y-104596190D02*
X136809938Y-104500952D01*
X136809938Y-104500952D02*
X136857557Y-104453333D01*
X136857557Y-104453333D02*
X137000414Y-104358095D01*
X137000414Y-104358095D02*
X137190890Y-104310476D01*
X137190890Y-104310476D02*
X137571842Y-104310476D01*
X137571842Y-104310476D02*
X137667080Y-104358095D01*
X137667080Y-104358095D02*
X137714700Y-104405714D01*
X137714700Y-104405714D02*
X137762319Y-104500952D01*
X137762319Y-104500952D02*
X137762319Y-104691428D01*
X137762319Y-104691428D02*
X137714700Y-104786666D01*
X137714700Y-104786666D02*
X137667080Y-104834285D01*
X137667080Y-104834285D02*
X137571842Y-104881904D01*
X137571842Y-104881904D02*
X137333747Y-104881904D01*
X137333747Y-104881904D02*
X137238509Y-104834285D01*
X137238509Y-104834285D02*
X137190890Y-104786666D01*
X137190890Y-104786666D02*
X137143271Y-104691428D01*
X137143271Y-104691428D02*
X137143271Y-104500952D01*
X137143271Y-104500952D02*
X137190890Y-104405714D01*
X137190890Y-104405714D02*
X137238509Y-104358095D01*
X137238509Y-104358095D02*
X137333747Y-104310476D01*
X137442319Y-107168095D02*
X136442319Y-107168095D01*
X137442319Y-107739523D02*
X136870890Y-107310952D01*
X136442319Y-107739523D02*
X137013747Y-107168095D01*
%TO.C,D43*%
X266302319Y-64305714D02*
X265302319Y-64305714D01*
X265302319Y-64305714D02*
X265302319Y-64543809D01*
X265302319Y-64543809D02*
X265349938Y-64686666D01*
X265349938Y-64686666D02*
X265445176Y-64781904D01*
X265445176Y-64781904D02*
X265540414Y-64829523D01*
X265540414Y-64829523D02*
X265730890Y-64877142D01*
X265730890Y-64877142D02*
X265873747Y-64877142D01*
X265873747Y-64877142D02*
X266064223Y-64829523D01*
X266064223Y-64829523D02*
X266159461Y-64781904D01*
X266159461Y-64781904D02*
X266254700Y-64686666D01*
X266254700Y-64686666D02*
X266302319Y-64543809D01*
X266302319Y-64543809D02*
X266302319Y-64305714D01*
X265635652Y-65734285D02*
X266302319Y-65734285D01*
X265254700Y-65496190D02*
X265968985Y-65258095D01*
X265968985Y-65258095D02*
X265968985Y-65877142D01*
X265302319Y-66162857D02*
X265302319Y-66781904D01*
X265302319Y-66781904D02*
X265683271Y-66448571D01*
X265683271Y-66448571D02*
X265683271Y-66591428D01*
X265683271Y-66591428D02*
X265730890Y-66686666D01*
X265730890Y-66686666D02*
X265778509Y-66734285D01*
X265778509Y-66734285D02*
X265873747Y-66781904D01*
X265873747Y-66781904D02*
X266111842Y-66781904D01*
X266111842Y-66781904D02*
X266207080Y-66734285D01*
X266207080Y-66734285D02*
X266254700Y-66686666D01*
X266254700Y-66686666D02*
X266302319Y-66591428D01*
X266302319Y-66591428D02*
X266302319Y-66305714D01*
X266302319Y-66305714D02*
X266254700Y-66210476D01*
X266254700Y-66210476D02*
X266207080Y-66162857D01*
X265982319Y-69068095D02*
X264982319Y-69068095D01*
X265982319Y-69639523D02*
X265410890Y-69210952D01*
X264982319Y-69639523D02*
X265553747Y-69068095D01*
%TO.C,D8*%
X85437319Y-64781905D02*
X84437319Y-64781905D01*
X84437319Y-64781905D02*
X84437319Y-65020000D01*
X84437319Y-65020000D02*
X84484938Y-65162857D01*
X84484938Y-65162857D02*
X84580176Y-65258095D01*
X84580176Y-65258095D02*
X84675414Y-65305714D01*
X84675414Y-65305714D02*
X84865890Y-65353333D01*
X84865890Y-65353333D02*
X85008747Y-65353333D01*
X85008747Y-65353333D02*
X85199223Y-65305714D01*
X85199223Y-65305714D02*
X85294461Y-65258095D01*
X85294461Y-65258095D02*
X85389700Y-65162857D01*
X85389700Y-65162857D02*
X85437319Y-65020000D01*
X85437319Y-65020000D02*
X85437319Y-64781905D01*
X84865890Y-65924762D02*
X84818271Y-65829524D01*
X84818271Y-65829524D02*
X84770652Y-65781905D01*
X84770652Y-65781905D02*
X84675414Y-65734286D01*
X84675414Y-65734286D02*
X84627795Y-65734286D01*
X84627795Y-65734286D02*
X84532557Y-65781905D01*
X84532557Y-65781905D02*
X84484938Y-65829524D01*
X84484938Y-65829524D02*
X84437319Y-65924762D01*
X84437319Y-65924762D02*
X84437319Y-66115238D01*
X84437319Y-66115238D02*
X84484938Y-66210476D01*
X84484938Y-66210476D02*
X84532557Y-66258095D01*
X84532557Y-66258095D02*
X84627795Y-66305714D01*
X84627795Y-66305714D02*
X84675414Y-66305714D01*
X84675414Y-66305714D02*
X84770652Y-66258095D01*
X84770652Y-66258095D02*
X84818271Y-66210476D01*
X84818271Y-66210476D02*
X84865890Y-66115238D01*
X84865890Y-66115238D02*
X84865890Y-65924762D01*
X84865890Y-65924762D02*
X84913509Y-65829524D01*
X84913509Y-65829524D02*
X84961128Y-65781905D01*
X84961128Y-65781905D02*
X85056366Y-65734286D01*
X85056366Y-65734286D02*
X85246842Y-65734286D01*
X85246842Y-65734286D02*
X85342080Y-65781905D01*
X85342080Y-65781905D02*
X85389700Y-65829524D01*
X85389700Y-65829524D02*
X85437319Y-65924762D01*
X85437319Y-65924762D02*
X85437319Y-66115238D01*
X85437319Y-66115238D02*
X85389700Y-66210476D01*
X85389700Y-66210476D02*
X85342080Y-66258095D01*
X85342080Y-66258095D02*
X85246842Y-66305714D01*
X85246842Y-66305714D02*
X85056366Y-66305714D01*
X85056366Y-66305714D02*
X84961128Y-66258095D01*
X84961128Y-66258095D02*
X84913509Y-66210476D01*
X84913509Y-66210476D02*
X84865890Y-66115238D01*
X85117319Y-69068095D02*
X84117319Y-69068095D01*
X85117319Y-69639523D02*
X84545890Y-69210952D01*
X84117319Y-69639523D02*
X84688747Y-69068095D01*
%TO.C,D2*%
X85437319Y-40969405D02*
X84437319Y-40969405D01*
X84437319Y-40969405D02*
X84437319Y-41207500D01*
X84437319Y-41207500D02*
X84484938Y-41350357D01*
X84484938Y-41350357D02*
X84580176Y-41445595D01*
X84580176Y-41445595D02*
X84675414Y-41493214D01*
X84675414Y-41493214D02*
X84865890Y-41540833D01*
X84865890Y-41540833D02*
X85008747Y-41540833D01*
X85008747Y-41540833D02*
X85199223Y-41493214D01*
X85199223Y-41493214D02*
X85294461Y-41445595D01*
X85294461Y-41445595D02*
X85389700Y-41350357D01*
X85389700Y-41350357D02*
X85437319Y-41207500D01*
X85437319Y-41207500D02*
X85437319Y-40969405D01*
X84532557Y-41921786D02*
X84484938Y-41969405D01*
X84484938Y-41969405D02*
X84437319Y-42064643D01*
X84437319Y-42064643D02*
X84437319Y-42302738D01*
X84437319Y-42302738D02*
X84484938Y-42397976D01*
X84484938Y-42397976D02*
X84532557Y-42445595D01*
X84532557Y-42445595D02*
X84627795Y-42493214D01*
X84627795Y-42493214D02*
X84723033Y-42493214D01*
X84723033Y-42493214D02*
X84865890Y-42445595D01*
X84865890Y-42445595D02*
X85437319Y-41874167D01*
X85437319Y-41874167D02*
X85437319Y-42493214D01*
X85117319Y-45255595D02*
X84117319Y-45255595D01*
X85117319Y-45827023D02*
X84545890Y-45398452D01*
X84117319Y-45827023D02*
X84688747Y-45255595D01*
%TO.C,D14*%
X56862319Y-83355714D02*
X55862319Y-83355714D01*
X55862319Y-83355714D02*
X55862319Y-83593809D01*
X55862319Y-83593809D02*
X55909938Y-83736666D01*
X55909938Y-83736666D02*
X56005176Y-83831904D01*
X56005176Y-83831904D02*
X56100414Y-83879523D01*
X56100414Y-83879523D02*
X56290890Y-83927142D01*
X56290890Y-83927142D02*
X56433747Y-83927142D01*
X56433747Y-83927142D02*
X56624223Y-83879523D01*
X56624223Y-83879523D02*
X56719461Y-83831904D01*
X56719461Y-83831904D02*
X56814700Y-83736666D01*
X56814700Y-83736666D02*
X56862319Y-83593809D01*
X56862319Y-83593809D02*
X56862319Y-83355714D01*
X56862319Y-84879523D02*
X56862319Y-84308095D01*
X56862319Y-84593809D02*
X55862319Y-84593809D01*
X55862319Y-84593809D02*
X56005176Y-84498571D01*
X56005176Y-84498571D02*
X56100414Y-84403333D01*
X56100414Y-84403333D02*
X56148033Y-84308095D01*
X56195652Y-85736666D02*
X56862319Y-85736666D01*
X55814700Y-85498571D02*
X56528985Y-85260476D01*
X56528985Y-85260476D02*
X56528985Y-85879523D01*
X56542319Y-88118095D02*
X55542319Y-88118095D01*
X56542319Y-88689523D02*
X55970890Y-88260952D01*
X55542319Y-88689523D02*
X56113747Y-88118095D01*
%TO.C,D18*%
X133047319Y-83355714D02*
X132047319Y-83355714D01*
X132047319Y-83355714D02*
X132047319Y-83593809D01*
X132047319Y-83593809D02*
X132094938Y-83736666D01*
X132094938Y-83736666D02*
X132190176Y-83831904D01*
X132190176Y-83831904D02*
X132285414Y-83879523D01*
X132285414Y-83879523D02*
X132475890Y-83927142D01*
X132475890Y-83927142D02*
X132618747Y-83927142D01*
X132618747Y-83927142D02*
X132809223Y-83879523D01*
X132809223Y-83879523D02*
X132904461Y-83831904D01*
X132904461Y-83831904D02*
X132999700Y-83736666D01*
X132999700Y-83736666D02*
X133047319Y-83593809D01*
X133047319Y-83593809D02*
X133047319Y-83355714D01*
X133047319Y-84879523D02*
X133047319Y-84308095D01*
X133047319Y-84593809D02*
X132047319Y-84593809D01*
X132047319Y-84593809D02*
X132190176Y-84498571D01*
X132190176Y-84498571D02*
X132285414Y-84403333D01*
X132285414Y-84403333D02*
X132333033Y-84308095D01*
X132475890Y-85450952D02*
X132428271Y-85355714D01*
X132428271Y-85355714D02*
X132380652Y-85308095D01*
X132380652Y-85308095D02*
X132285414Y-85260476D01*
X132285414Y-85260476D02*
X132237795Y-85260476D01*
X132237795Y-85260476D02*
X132142557Y-85308095D01*
X132142557Y-85308095D02*
X132094938Y-85355714D01*
X132094938Y-85355714D02*
X132047319Y-85450952D01*
X132047319Y-85450952D02*
X132047319Y-85641428D01*
X132047319Y-85641428D02*
X132094938Y-85736666D01*
X132094938Y-85736666D02*
X132142557Y-85784285D01*
X132142557Y-85784285D02*
X132237795Y-85831904D01*
X132237795Y-85831904D02*
X132285414Y-85831904D01*
X132285414Y-85831904D02*
X132380652Y-85784285D01*
X132380652Y-85784285D02*
X132428271Y-85736666D01*
X132428271Y-85736666D02*
X132475890Y-85641428D01*
X132475890Y-85641428D02*
X132475890Y-85450952D01*
X132475890Y-85450952D02*
X132523509Y-85355714D01*
X132523509Y-85355714D02*
X132571128Y-85308095D01*
X132571128Y-85308095D02*
X132666366Y-85260476D01*
X132666366Y-85260476D02*
X132856842Y-85260476D01*
X132856842Y-85260476D02*
X132952080Y-85308095D01*
X132952080Y-85308095D02*
X132999700Y-85355714D01*
X132999700Y-85355714D02*
X133047319Y-85450952D01*
X133047319Y-85450952D02*
X133047319Y-85641428D01*
X133047319Y-85641428D02*
X132999700Y-85736666D01*
X132999700Y-85736666D02*
X132952080Y-85784285D01*
X132952080Y-85784285D02*
X132856842Y-85831904D01*
X132856842Y-85831904D02*
X132666366Y-85831904D01*
X132666366Y-85831904D02*
X132571128Y-85784285D01*
X132571128Y-85784285D02*
X132523509Y-85736666D01*
X132523509Y-85736666D02*
X132475890Y-85641428D01*
X132727319Y-88118095D02*
X131727319Y-88118095D01*
X132727319Y-88689523D02*
X132155890Y-88260952D01*
X131727319Y-88689523D02*
X132298747Y-88118095D01*
%TO.C,D1*%
X66387319Y-40969405D02*
X65387319Y-40969405D01*
X65387319Y-40969405D02*
X65387319Y-41207500D01*
X65387319Y-41207500D02*
X65434938Y-41350357D01*
X65434938Y-41350357D02*
X65530176Y-41445595D01*
X65530176Y-41445595D02*
X65625414Y-41493214D01*
X65625414Y-41493214D02*
X65815890Y-41540833D01*
X65815890Y-41540833D02*
X65958747Y-41540833D01*
X65958747Y-41540833D02*
X66149223Y-41493214D01*
X66149223Y-41493214D02*
X66244461Y-41445595D01*
X66244461Y-41445595D02*
X66339700Y-41350357D01*
X66339700Y-41350357D02*
X66387319Y-41207500D01*
X66387319Y-41207500D02*
X66387319Y-40969405D01*
X66387319Y-42493214D02*
X66387319Y-41921786D01*
X66387319Y-42207500D02*
X65387319Y-42207500D01*
X65387319Y-42207500D02*
X65530176Y-42112262D01*
X65530176Y-42112262D02*
X65625414Y-42017024D01*
X65625414Y-42017024D02*
X65673033Y-41921786D01*
X66067319Y-45255595D02*
X65067319Y-45255595D01*
X66067319Y-45827023D02*
X65495890Y-45398452D01*
X65067319Y-45827023D02*
X65638747Y-45255595D01*
%TO.C,D3*%
X104487319Y-40969405D02*
X103487319Y-40969405D01*
X103487319Y-40969405D02*
X103487319Y-41207500D01*
X103487319Y-41207500D02*
X103534938Y-41350357D01*
X103534938Y-41350357D02*
X103630176Y-41445595D01*
X103630176Y-41445595D02*
X103725414Y-41493214D01*
X103725414Y-41493214D02*
X103915890Y-41540833D01*
X103915890Y-41540833D02*
X104058747Y-41540833D01*
X104058747Y-41540833D02*
X104249223Y-41493214D01*
X104249223Y-41493214D02*
X104344461Y-41445595D01*
X104344461Y-41445595D02*
X104439700Y-41350357D01*
X104439700Y-41350357D02*
X104487319Y-41207500D01*
X104487319Y-41207500D02*
X104487319Y-40969405D01*
X103487319Y-41874167D02*
X103487319Y-42493214D01*
X103487319Y-42493214D02*
X103868271Y-42159881D01*
X103868271Y-42159881D02*
X103868271Y-42302738D01*
X103868271Y-42302738D02*
X103915890Y-42397976D01*
X103915890Y-42397976D02*
X103963509Y-42445595D01*
X103963509Y-42445595D02*
X104058747Y-42493214D01*
X104058747Y-42493214D02*
X104296842Y-42493214D01*
X104296842Y-42493214D02*
X104392080Y-42445595D01*
X104392080Y-42445595D02*
X104439700Y-42397976D01*
X104439700Y-42397976D02*
X104487319Y-42302738D01*
X104487319Y-42302738D02*
X104487319Y-42017024D01*
X104487319Y-42017024D02*
X104439700Y-41921786D01*
X104439700Y-41921786D02*
X104392080Y-41874167D01*
X104167319Y-45255595D02*
X103167319Y-45255595D01*
X104167319Y-45827023D02*
X103595890Y-45398452D01*
X103167319Y-45827023D02*
X103738747Y-45255595D01*
%TO.C,D25*%
X118712319Y-102405714D02*
X117712319Y-102405714D01*
X117712319Y-102405714D02*
X117712319Y-102643809D01*
X117712319Y-102643809D02*
X117759938Y-102786666D01*
X117759938Y-102786666D02*
X117855176Y-102881904D01*
X117855176Y-102881904D02*
X117950414Y-102929523D01*
X117950414Y-102929523D02*
X118140890Y-102977142D01*
X118140890Y-102977142D02*
X118283747Y-102977142D01*
X118283747Y-102977142D02*
X118474223Y-102929523D01*
X118474223Y-102929523D02*
X118569461Y-102881904D01*
X118569461Y-102881904D02*
X118664700Y-102786666D01*
X118664700Y-102786666D02*
X118712319Y-102643809D01*
X118712319Y-102643809D02*
X118712319Y-102405714D01*
X117807557Y-103358095D02*
X117759938Y-103405714D01*
X117759938Y-103405714D02*
X117712319Y-103500952D01*
X117712319Y-103500952D02*
X117712319Y-103739047D01*
X117712319Y-103739047D02*
X117759938Y-103834285D01*
X117759938Y-103834285D02*
X117807557Y-103881904D01*
X117807557Y-103881904D02*
X117902795Y-103929523D01*
X117902795Y-103929523D02*
X117998033Y-103929523D01*
X117998033Y-103929523D02*
X118140890Y-103881904D01*
X118140890Y-103881904D02*
X118712319Y-103310476D01*
X118712319Y-103310476D02*
X118712319Y-103929523D01*
X117712319Y-104834285D02*
X117712319Y-104358095D01*
X117712319Y-104358095D02*
X118188509Y-104310476D01*
X118188509Y-104310476D02*
X118140890Y-104358095D01*
X118140890Y-104358095D02*
X118093271Y-104453333D01*
X118093271Y-104453333D02*
X118093271Y-104691428D01*
X118093271Y-104691428D02*
X118140890Y-104786666D01*
X118140890Y-104786666D02*
X118188509Y-104834285D01*
X118188509Y-104834285D02*
X118283747Y-104881904D01*
X118283747Y-104881904D02*
X118521842Y-104881904D01*
X118521842Y-104881904D02*
X118617080Y-104834285D01*
X118617080Y-104834285D02*
X118664700Y-104786666D01*
X118664700Y-104786666D02*
X118712319Y-104691428D01*
X118712319Y-104691428D02*
X118712319Y-104453333D01*
X118712319Y-104453333D02*
X118664700Y-104358095D01*
X118664700Y-104358095D02*
X118617080Y-104310476D01*
X118392319Y-107168095D02*
X117392319Y-107168095D01*
X118392319Y-107739523D02*
X117820890Y-107310952D01*
X117392319Y-107739523D02*
X117963747Y-107168095D01*
%TO.C,D32*%
X109187319Y-121455714D02*
X108187319Y-121455714D01*
X108187319Y-121455714D02*
X108187319Y-121693809D01*
X108187319Y-121693809D02*
X108234938Y-121836666D01*
X108234938Y-121836666D02*
X108330176Y-121931904D01*
X108330176Y-121931904D02*
X108425414Y-121979523D01*
X108425414Y-121979523D02*
X108615890Y-122027142D01*
X108615890Y-122027142D02*
X108758747Y-122027142D01*
X108758747Y-122027142D02*
X108949223Y-121979523D01*
X108949223Y-121979523D02*
X109044461Y-121931904D01*
X109044461Y-121931904D02*
X109139700Y-121836666D01*
X109139700Y-121836666D02*
X109187319Y-121693809D01*
X109187319Y-121693809D02*
X109187319Y-121455714D01*
X108187319Y-122360476D02*
X108187319Y-122979523D01*
X108187319Y-122979523D02*
X108568271Y-122646190D01*
X108568271Y-122646190D02*
X108568271Y-122789047D01*
X108568271Y-122789047D02*
X108615890Y-122884285D01*
X108615890Y-122884285D02*
X108663509Y-122931904D01*
X108663509Y-122931904D02*
X108758747Y-122979523D01*
X108758747Y-122979523D02*
X108996842Y-122979523D01*
X108996842Y-122979523D02*
X109092080Y-122931904D01*
X109092080Y-122931904D02*
X109139700Y-122884285D01*
X109139700Y-122884285D02*
X109187319Y-122789047D01*
X109187319Y-122789047D02*
X109187319Y-122503333D01*
X109187319Y-122503333D02*
X109139700Y-122408095D01*
X109139700Y-122408095D02*
X109092080Y-122360476D01*
X108282557Y-123360476D02*
X108234938Y-123408095D01*
X108234938Y-123408095D02*
X108187319Y-123503333D01*
X108187319Y-123503333D02*
X108187319Y-123741428D01*
X108187319Y-123741428D02*
X108234938Y-123836666D01*
X108234938Y-123836666D02*
X108282557Y-123884285D01*
X108282557Y-123884285D02*
X108377795Y-123931904D01*
X108377795Y-123931904D02*
X108473033Y-123931904D01*
X108473033Y-123931904D02*
X108615890Y-123884285D01*
X108615890Y-123884285D02*
X109187319Y-123312857D01*
X109187319Y-123312857D02*
X109187319Y-123931904D01*
X108867319Y-126218095D02*
X107867319Y-126218095D01*
X108867319Y-126789523D02*
X108295890Y-126360952D01*
X107867319Y-126789523D02*
X108438747Y-126218095D01*
%TO.C,D41*%
X228202319Y-64305714D02*
X227202319Y-64305714D01*
X227202319Y-64305714D02*
X227202319Y-64543809D01*
X227202319Y-64543809D02*
X227249938Y-64686666D01*
X227249938Y-64686666D02*
X227345176Y-64781904D01*
X227345176Y-64781904D02*
X227440414Y-64829523D01*
X227440414Y-64829523D02*
X227630890Y-64877142D01*
X227630890Y-64877142D02*
X227773747Y-64877142D01*
X227773747Y-64877142D02*
X227964223Y-64829523D01*
X227964223Y-64829523D02*
X228059461Y-64781904D01*
X228059461Y-64781904D02*
X228154700Y-64686666D01*
X228154700Y-64686666D02*
X228202319Y-64543809D01*
X228202319Y-64543809D02*
X228202319Y-64305714D01*
X227535652Y-65734285D02*
X228202319Y-65734285D01*
X227154700Y-65496190D02*
X227868985Y-65258095D01*
X227868985Y-65258095D02*
X227868985Y-65877142D01*
X228202319Y-66781904D02*
X228202319Y-66210476D01*
X228202319Y-66496190D02*
X227202319Y-66496190D01*
X227202319Y-66496190D02*
X227345176Y-66400952D01*
X227345176Y-66400952D02*
X227440414Y-66305714D01*
X227440414Y-66305714D02*
X227488033Y-66210476D01*
X227882319Y-69068095D02*
X226882319Y-69068095D01*
X227882319Y-69639523D02*
X227310890Y-69210952D01*
X226882319Y-69639523D02*
X227453747Y-69068095D01*
%TO.C,D24*%
X99662319Y-102405714D02*
X98662319Y-102405714D01*
X98662319Y-102405714D02*
X98662319Y-102643809D01*
X98662319Y-102643809D02*
X98709938Y-102786666D01*
X98709938Y-102786666D02*
X98805176Y-102881904D01*
X98805176Y-102881904D02*
X98900414Y-102929523D01*
X98900414Y-102929523D02*
X99090890Y-102977142D01*
X99090890Y-102977142D02*
X99233747Y-102977142D01*
X99233747Y-102977142D02*
X99424223Y-102929523D01*
X99424223Y-102929523D02*
X99519461Y-102881904D01*
X99519461Y-102881904D02*
X99614700Y-102786666D01*
X99614700Y-102786666D02*
X99662319Y-102643809D01*
X99662319Y-102643809D02*
X99662319Y-102405714D01*
X98757557Y-103358095D02*
X98709938Y-103405714D01*
X98709938Y-103405714D02*
X98662319Y-103500952D01*
X98662319Y-103500952D02*
X98662319Y-103739047D01*
X98662319Y-103739047D02*
X98709938Y-103834285D01*
X98709938Y-103834285D02*
X98757557Y-103881904D01*
X98757557Y-103881904D02*
X98852795Y-103929523D01*
X98852795Y-103929523D02*
X98948033Y-103929523D01*
X98948033Y-103929523D02*
X99090890Y-103881904D01*
X99090890Y-103881904D02*
X99662319Y-103310476D01*
X99662319Y-103310476D02*
X99662319Y-103929523D01*
X98995652Y-104786666D02*
X99662319Y-104786666D01*
X98614700Y-104548571D02*
X99328985Y-104310476D01*
X99328985Y-104310476D02*
X99328985Y-104929523D01*
X99342319Y-107168095D02*
X98342319Y-107168095D01*
X99342319Y-107739523D02*
X98770890Y-107310952D01*
X98342319Y-107739523D02*
X98913747Y-107168095D01*
%TO.C,D19*%
X152097319Y-83355714D02*
X151097319Y-83355714D01*
X151097319Y-83355714D02*
X151097319Y-83593809D01*
X151097319Y-83593809D02*
X151144938Y-83736666D01*
X151144938Y-83736666D02*
X151240176Y-83831904D01*
X151240176Y-83831904D02*
X151335414Y-83879523D01*
X151335414Y-83879523D02*
X151525890Y-83927142D01*
X151525890Y-83927142D02*
X151668747Y-83927142D01*
X151668747Y-83927142D02*
X151859223Y-83879523D01*
X151859223Y-83879523D02*
X151954461Y-83831904D01*
X151954461Y-83831904D02*
X152049700Y-83736666D01*
X152049700Y-83736666D02*
X152097319Y-83593809D01*
X152097319Y-83593809D02*
X152097319Y-83355714D01*
X152097319Y-84879523D02*
X152097319Y-84308095D01*
X152097319Y-84593809D02*
X151097319Y-84593809D01*
X151097319Y-84593809D02*
X151240176Y-84498571D01*
X151240176Y-84498571D02*
X151335414Y-84403333D01*
X151335414Y-84403333D02*
X151383033Y-84308095D01*
X152097319Y-85355714D02*
X152097319Y-85546190D01*
X152097319Y-85546190D02*
X152049700Y-85641428D01*
X152049700Y-85641428D02*
X152002080Y-85689047D01*
X152002080Y-85689047D02*
X151859223Y-85784285D01*
X151859223Y-85784285D02*
X151668747Y-85831904D01*
X151668747Y-85831904D02*
X151287795Y-85831904D01*
X151287795Y-85831904D02*
X151192557Y-85784285D01*
X151192557Y-85784285D02*
X151144938Y-85736666D01*
X151144938Y-85736666D02*
X151097319Y-85641428D01*
X151097319Y-85641428D02*
X151097319Y-85450952D01*
X151097319Y-85450952D02*
X151144938Y-85355714D01*
X151144938Y-85355714D02*
X151192557Y-85308095D01*
X151192557Y-85308095D02*
X151287795Y-85260476D01*
X151287795Y-85260476D02*
X151525890Y-85260476D01*
X151525890Y-85260476D02*
X151621128Y-85308095D01*
X151621128Y-85308095D02*
X151668747Y-85355714D01*
X151668747Y-85355714D02*
X151716366Y-85450952D01*
X151716366Y-85450952D02*
X151716366Y-85641428D01*
X151716366Y-85641428D02*
X151668747Y-85736666D01*
X151668747Y-85736666D02*
X151621128Y-85784285D01*
X151621128Y-85784285D02*
X151525890Y-85831904D01*
X151777319Y-88118095D02*
X150777319Y-88118095D01*
X151777319Y-88689523D02*
X151205890Y-88260952D01*
X150777319Y-88689523D02*
X151348747Y-88118095D01*
%TO.C,D10*%
X123537319Y-64305714D02*
X122537319Y-64305714D01*
X122537319Y-64305714D02*
X122537319Y-64543809D01*
X122537319Y-64543809D02*
X122584938Y-64686666D01*
X122584938Y-64686666D02*
X122680176Y-64781904D01*
X122680176Y-64781904D02*
X122775414Y-64829523D01*
X122775414Y-64829523D02*
X122965890Y-64877142D01*
X122965890Y-64877142D02*
X123108747Y-64877142D01*
X123108747Y-64877142D02*
X123299223Y-64829523D01*
X123299223Y-64829523D02*
X123394461Y-64781904D01*
X123394461Y-64781904D02*
X123489700Y-64686666D01*
X123489700Y-64686666D02*
X123537319Y-64543809D01*
X123537319Y-64543809D02*
X123537319Y-64305714D01*
X123537319Y-65829523D02*
X123537319Y-65258095D01*
X123537319Y-65543809D02*
X122537319Y-65543809D01*
X122537319Y-65543809D02*
X122680176Y-65448571D01*
X122680176Y-65448571D02*
X122775414Y-65353333D01*
X122775414Y-65353333D02*
X122823033Y-65258095D01*
X122537319Y-66448571D02*
X122537319Y-66543809D01*
X122537319Y-66543809D02*
X122584938Y-66639047D01*
X122584938Y-66639047D02*
X122632557Y-66686666D01*
X122632557Y-66686666D02*
X122727795Y-66734285D01*
X122727795Y-66734285D02*
X122918271Y-66781904D01*
X122918271Y-66781904D02*
X123156366Y-66781904D01*
X123156366Y-66781904D02*
X123346842Y-66734285D01*
X123346842Y-66734285D02*
X123442080Y-66686666D01*
X123442080Y-66686666D02*
X123489700Y-66639047D01*
X123489700Y-66639047D02*
X123537319Y-66543809D01*
X123537319Y-66543809D02*
X123537319Y-66448571D01*
X123537319Y-66448571D02*
X123489700Y-66353333D01*
X123489700Y-66353333D02*
X123442080Y-66305714D01*
X123442080Y-66305714D02*
X123346842Y-66258095D01*
X123346842Y-66258095D02*
X123156366Y-66210476D01*
X123156366Y-66210476D02*
X122918271Y-66210476D01*
X122918271Y-66210476D02*
X122727795Y-66258095D01*
X122727795Y-66258095D02*
X122632557Y-66305714D01*
X122632557Y-66305714D02*
X122584938Y-66353333D01*
X122584938Y-66353333D02*
X122537319Y-66448571D01*
X123217319Y-69068095D02*
X122217319Y-69068095D01*
X123217319Y-69639523D02*
X122645890Y-69210952D01*
X122217319Y-69639523D02*
X122788747Y-69068095D01*
%TO.C,D39*%
X175862319Y-140505714D02*
X174862319Y-140505714D01*
X174862319Y-140505714D02*
X174862319Y-140743809D01*
X174862319Y-140743809D02*
X174909938Y-140886666D01*
X174909938Y-140886666D02*
X175005176Y-140981904D01*
X175005176Y-140981904D02*
X175100414Y-141029523D01*
X175100414Y-141029523D02*
X175290890Y-141077142D01*
X175290890Y-141077142D02*
X175433747Y-141077142D01*
X175433747Y-141077142D02*
X175624223Y-141029523D01*
X175624223Y-141029523D02*
X175719461Y-140981904D01*
X175719461Y-140981904D02*
X175814700Y-140886666D01*
X175814700Y-140886666D02*
X175862319Y-140743809D01*
X175862319Y-140743809D02*
X175862319Y-140505714D01*
X174862319Y-141410476D02*
X174862319Y-142029523D01*
X174862319Y-142029523D02*
X175243271Y-141696190D01*
X175243271Y-141696190D02*
X175243271Y-141839047D01*
X175243271Y-141839047D02*
X175290890Y-141934285D01*
X175290890Y-141934285D02*
X175338509Y-141981904D01*
X175338509Y-141981904D02*
X175433747Y-142029523D01*
X175433747Y-142029523D02*
X175671842Y-142029523D01*
X175671842Y-142029523D02*
X175767080Y-141981904D01*
X175767080Y-141981904D02*
X175814700Y-141934285D01*
X175814700Y-141934285D02*
X175862319Y-141839047D01*
X175862319Y-141839047D02*
X175862319Y-141553333D01*
X175862319Y-141553333D02*
X175814700Y-141458095D01*
X175814700Y-141458095D02*
X175767080Y-141410476D01*
X175862319Y-142505714D02*
X175862319Y-142696190D01*
X175862319Y-142696190D02*
X175814700Y-142791428D01*
X175814700Y-142791428D02*
X175767080Y-142839047D01*
X175767080Y-142839047D02*
X175624223Y-142934285D01*
X175624223Y-142934285D02*
X175433747Y-142981904D01*
X175433747Y-142981904D02*
X175052795Y-142981904D01*
X175052795Y-142981904D02*
X174957557Y-142934285D01*
X174957557Y-142934285D02*
X174909938Y-142886666D01*
X174909938Y-142886666D02*
X174862319Y-142791428D01*
X174862319Y-142791428D02*
X174862319Y-142600952D01*
X174862319Y-142600952D02*
X174909938Y-142505714D01*
X174909938Y-142505714D02*
X174957557Y-142458095D01*
X174957557Y-142458095D02*
X175052795Y-142410476D01*
X175052795Y-142410476D02*
X175290890Y-142410476D01*
X175290890Y-142410476D02*
X175386128Y-142458095D01*
X175386128Y-142458095D02*
X175433747Y-142505714D01*
X175433747Y-142505714D02*
X175481366Y-142600952D01*
X175481366Y-142600952D02*
X175481366Y-142791428D01*
X175481366Y-142791428D02*
X175433747Y-142886666D01*
X175433747Y-142886666D02*
X175386128Y-142934285D01*
X175386128Y-142934285D02*
X175290890Y-142981904D01*
X175542319Y-145268095D02*
X174542319Y-145268095D01*
X175542319Y-145839523D02*
X174970890Y-145410952D01*
X174542319Y-145839523D02*
X175113747Y-145268095D01*
%TO.C,D46*%
X266302319Y-83355714D02*
X265302319Y-83355714D01*
X265302319Y-83355714D02*
X265302319Y-83593809D01*
X265302319Y-83593809D02*
X265349938Y-83736666D01*
X265349938Y-83736666D02*
X265445176Y-83831904D01*
X265445176Y-83831904D02*
X265540414Y-83879523D01*
X265540414Y-83879523D02*
X265730890Y-83927142D01*
X265730890Y-83927142D02*
X265873747Y-83927142D01*
X265873747Y-83927142D02*
X266064223Y-83879523D01*
X266064223Y-83879523D02*
X266159461Y-83831904D01*
X266159461Y-83831904D02*
X266254700Y-83736666D01*
X266254700Y-83736666D02*
X266302319Y-83593809D01*
X266302319Y-83593809D02*
X266302319Y-83355714D01*
X265635652Y-84784285D02*
X266302319Y-84784285D01*
X265254700Y-84546190D02*
X265968985Y-84308095D01*
X265968985Y-84308095D02*
X265968985Y-84927142D01*
X265302319Y-85736666D02*
X265302319Y-85546190D01*
X265302319Y-85546190D02*
X265349938Y-85450952D01*
X265349938Y-85450952D02*
X265397557Y-85403333D01*
X265397557Y-85403333D02*
X265540414Y-85308095D01*
X265540414Y-85308095D02*
X265730890Y-85260476D01*
X265730890Y-85260476D02*
X266111842Y-85260476D01*
X266111842Y-85260476D02*
X266207080Y-85308095D01*
X266207080Y-85308095D02*
X266254700Y-85355714D01*
X266254700Y-85355714D02*
X266302319Y-85450952D01*
X266302319Y-85450952D02*
X266302319Y-85641428D01*
X266302319Y-85641428D02*
X266254700Y-85736666D01*
X266254700Y-85736666D02*
X266207080Y-85784285D01*
X266207080Y-85784285D02*
X266111842Y-85831904D01*
X266111842Y-85831904D02*
X265873747Y-85831904D01*
X265873747Y-85831904D02*
X265778509Y-85784285D01*
X265778509Y-85784285D02*
X265730890Y-85736666D01*
X265730890Y-85736666D02*
X265683271Y-85641428D01*
X265683271Y-85641428D02*
X265683271Y-85450952D01*
X265683271Y-85450952D02*
X265730890Y-85355714D01*
X265730890Y-85355714D02*
X265778509Y-85308095D01*
X265778509Y-85308095D02*
X265873747Y-85260476D01*
X265982319Y-88118095D02*
X264982319Y-88118095D01*
X265982319Y-88689523D02*
X265410890Y-88260952D01*
X264982319Y-88689523D02*
X265553747Y-88118095D01*
%TO.C,D4*%
X123537319Y-40969405D02*
X122537319Y-40969405D01*
X122537319Y-40969405D02*
X122537319Y-41207500D01*
X122537319Y-41207500D02*
X122584938Y-41350357D01*
X122584938Y-41350357D02*
X122680176Y-41445595D01*
X122680176Y-41445595D02*
X122775414Y-41493214D01*
X122775414Y-41493214D02*
X122965890Y-41540833D01*
X122965890Y-41540833D02*
X123108747Y-41540833D01*
X123108747Y-41540833D02*
X123299223Y-41493214D01*
X123299223Y-41493214D02*
X123394461Y-41445595D01*
X123394461Y-41445595D02*
X123489700Y-41350357D01*
X123489700Y-41350357D02*
X123537319Y-41207500D01*
X123537319Y-41207500D02*
X123537319Y-40969405D01*
X122870652Y-42397976D02*
X123537319Y-42397976D01*
X122489700Y-42159881D02*
X123203985Y-41921786D01*
X123203985Y-41921786D02*
X123203985Y-42540833D01*
X123217319Y-45255595D02*
X122217319Y-45255595D01*
X123217319Y-45827023D02*
X122645890Y-45398452D01*
X122217319Y-45827023D02*
X122788747Y-45255595D01*
%TO.C,D21*%
X199627319Y-83355714D02*
X198627319Y-83355714D01*
X198627319Y-83355714D02*
X198627319Y-83593809D01*
X198627319Y-83593809D02*
X198674938Y-83736666D01*
X198674938Y-83736666D02*
X198770176Y-83831904D01*
X198770176Y-83831904D02*
X198865414Y-83879523D01*
X198865414Y-83879523D02*
X199055890Y-83927142D01*
X199055890Y-83927142D02*
X199198747Y-83927142D01*
X199198747Y-83927142D02*
X199389223Y-83879523D01*
X199389223Y-83879523D02*
X199484461Y-83831904D01*
X199484461Y-83831904D02*
X199579700Y-83736666D01*
X199579700Y-83736666D02*
X199627319Y-83593809D01*
X199627319Y-83593809D02*
X199627319Y-83355714D01*
X198722557Y-84308095D02*
X198674938Y-84355714D01*
X198674938Y-84355714D02*
X198627319Y-84450952D01*
X198627319Y-84450952D02*
X198627319Y-84689047D01*
X198627319Y-84689047D02*
X198674938Y-84784285D01*
X198674938Y-84784285D02*
X198722557Y-84831904D01*
X198722557Y-84831904D02*
X198817795Y-84879523D01*
X198817795Y-84879523D02*
X198913033Y-84879523D01*
X198913033Y-84879523D02*
X199055890Y-84831904D01*
X199055890Y-84831904D02*
X199627319Y-84260476D01*
X199627319Y-84260476D02*
X199627319Y-84879523D01*
X199627319Y-85831904D02*
X199627319Y-85260476D01*
X199627319Y-85546190D02*
X198627319Y-85546190D01*
X198627319Y-85546190D02*
X198770176Y-85450952D01*
X198770176Y-85450952D02*
X198865414Y-85355714D01*
X198865414Y-85355714D02*
X198913033Y-85260476D01*
X199307319Y-88118095D02*
X198307319Y-88118095D01*
X199307319Y-88689523D02*
X198735890Y-88260952D01*
X198307319Y-88689523D02*
X198878747Y-88118095D01*
%TO.C,D40*%
X199627319Y-140505714D02*
X198627319Y-140505714D01*
X198627319Y-140505714D02*
X198627319Y-140743809D01*
X198627319Y-140743809D02*
X198674938Y-140886666D01*
X198674938Y-140886666D02*
X198770176Y-140981904D01*
X198770176Y-140981904D02*
X198865414Y-141029523D01*
X198865414Y-141029523D02*
X199055890Y-141077142D01*
X199055890Y-141077142D02*
X199198747Y-141077142D01*
X199198747Y-141077142D02*
X199389223Y-141029523D01*
X199389223Y-141029523D02*
X199484461Y-140981904D01*
X199484461Y-140981904D02*
X199579700Y-140886666D01*
X199579700Y-140886666D02*
X199627319Y-140743809D01*
X199627319Y-140743809D02*
X199627319Y-140505714D01*
X198960652Y-141934285D02*
X199627319Y-141934285D01*
X198579700Y-141696190D02*
X199293985Y-141458095D01*
X199293985Y-141458095D02*
X199293985Y-142077142D01*
X198627319Y-142648571D02*
X198627319Y-142743809D01*
X198627319Y-142743809D02*
X198674938Y-142839047D01*
X198674938Y-142839047D02*
X198722557Y-142886666D01*
X198722557Y-142886666D02*
X198817795Y-142934285D01*
X198817795Y-142934285D02*
X199008271Y-142981904D01*
X199008271Y-142981904D02*
X199246366Y-142981904D01*
X199246366Y-142981904D02*
X199436842Y-142934285D01*
X199436842Y-142934285D02*
X199532080Y-142886666D01*
X199532080Y-142886666D02*
X199579700Y-142839047D01*
X199579700Y-142839047D02*
X199627319Y-142743809D01*
X199627319Y-142743809D02*
X199627319Y-142648571D01*
X199627319Y-142648571D02*
X199579700Y-142553333D01*
X199579700Y-142553333D02*
X199532080Y-142505714D01*
X199532080Y-142505714D02*
X199436842Y-142458095D01*
X199436842Y-142458095D02*
X199246366Y-142410476D01*
X199246366Y-142410476D02*
X199008271Y-142410476D01*
X199008271Y-142410476D02*
X198817795Y-142458095D01*
X198817795Y-142458095D02*
X198722557Y-142505714D01*
X198722557Y-142505714D02*
X198674938Y-142553333D01*
X198674938Y-142553333D02*
X198627319Y-142648571D01*
X199307319Y-145268095D02*
X198307319Y-145268095D01*
X199307319Y-145839523D02*
X198735890Y-145410952D01*
X198307319Y-145839523D02*
X198878747Y-145268095D01*
%TO.C,D50*%
X257414285Y-145374819D02*
X257414285Y-144374819D01*
X257414285Y-144374819D02*
X257176190Y-144374819D01*
X257176190Y-144374819D02*
X257033333Y-144422438D01*
X257033333Y-144422438D02*
X256938095Y-144517676D01*
X256938095Y-144517676D02*
X256890476Y-144612914D01*
X256890476Y-144612914D02*
X256842857Y-144803390D01*
X256842857Y-144803390D02*
X256842857Y-144946247D01*
X256842857Y-144946247D02*
X256890476Y-145136723D01*
X256890476Y-145136723D02*
X256938095Y-145231961D01*
X256938095Y-145231961D02*
X257033333Y-145327200D01*
X257033333Y-145327200D02*
X257176190Y-145374819D01*
X257176190Y-145374819D02*
X257414285Y-145374819D01*
X255938095Y-144374819D02*
X256414285Y-144374819D01*
X256414285Y-144374819D02*
X256461904Y-144851009D01*
X256461904Y-144851009D02*
X256414285Y-144803390D01*
X256414285Y-144803390D02*
X256319047Y-144755771D01*
X256319047Y-144755771D02*
X256080952Y-144755771D01*
X256080952Y-144755771D02*
X255985714Y-144803390D01*
X255985714Y-144803390D02*
X255938095Y-144851009D01*
X255938095Y-144851009D02*
X255890476Y-144946247D01*
X255890476Y-144946247D02*
X255890476Y-145184342D01*
X255890476Y-145184342D02*
X255938095Y-145279580D01*
X255938095Y-145279580D02*
X255985714Y-145327200D01*
X255985714Y-145327200D02*
X256080952Y-145374819D01*
X256080952Y-145374819D02*
X256319047Y-145374819D01*
X256319047Y-145374819D02*
X256414285Y-145327200D01*
X256414285Y-145327200D02*
X256461904Y-145279580D01*
X255271428Y-144374819D02*
X255176190Y-144374819D01*
X255176190Y-144374819D02*
X255080952Y-144422438D01*
X255080952Y-144422438D02*
X255033333Y-144470057D01*
X255033333Y-144470057D02*
X254985714Y-144565295D01*
X254985714Y-144565295D02*
X254938095Y-144755771D01*
X254938095Y-144755771D02*
X254938095Y-144993866D01*
X254938095Y-144993866D02*
X254985714Y-145184342D01*
X254985714Y-145184342D02*
X255033333Y-145279580D01*
X255033333Y-145279580D02*
X255080952Y-145327200D01*
X255080952Y-145327200D02*
X255176190Y-145374819D01*
X255176190Y-145374819D02*
X255271428Y-145374819D01*
X255271428Y-145374819D02*
X255366666Y-145327200D01*
X255366666Y-145327200D02*
X255414285Y-145279580D01*
X255414285Y-145279580D02*
X255461904Y-145184342D01*
X255461904Y-145184342D02*
X255509523Y-144993866D01*
X255509523Y-144993866D02*
X255509523Y-144755771D01*
X255509523Y-144755771D02*
X255461904Y-144565295D01*
X255461904Y-144565295D02*
X255414285Y-144470057D01*
X255414285Y-144470057D02*
X255366666Y-144422438D01*
X255366666Y-144422438D02*
X255271428Y-144374819D01*
X252651904Y-145054819D02*
X252651904Y-144054819D01*
X252080476Y-145054819D02*
X252509047Y-144483390D01*
X252080476Y-144054819D02*
X252651904Y-144626247D01*
%TO.C,D38*%
X152002319Y-140505714D02*
X151002319Y-140505714D01*
X151002319Y-140505714D02*
X151002319Y-140743809D01*
X151002319Y-140743809D02*
X151049938Y-140886666D01*
X151049938Y-140886666D02*
X151145176Y-140981904D01*
X151145176Y-140981904D02*
X151240414Y-141029523D01*
X151240414Y-141029523D02*
X151430890Y-141077142D01*
X151430890Y-141077142D02*
X151573747Y-141077142D01*
X151573747Y-141077142D02*
X151764223Y-141029523D01*
X151764223Y-141029523D02*
X151859461Y-140981904D01*
X151859461Y-140981904D02*
X151954700Y-140886666D01*
X151954700Y-140886666D02*
X152002319Y-140743809D01*
X152002319Y-140743809D02*
X152002319Y-140505714D01*
X151002319Y-141410476D02*
X151002319Y-142029523D01*
X151002319Y-142029523D02*
X151383271Y-141696190D01*
X151383271Y-141696190D02*
X151383271Y-141839047D01*
X151383271Y-141839047D02*
X151430890Y-141934285D01*
X151430890Y-141934285D02*
X151478509Y-141981904D01*
X151478509Y-141981904D02*
X151573747Y-142029523D01*
X151573747Y-142029523D02*
X151811842Y-142029523D01*
X151811842Y-142029523D02*
X151907080Y-141981904D01*
X151907080Y-141981904D02*
X151954700Y-141934285D01*
X151954700Y-141934285D02*
X152002319Y-141839047D01*
X152002319Y-141839047D02*
X152002319Y-141553333D01*
X152002319Y-141553333D02*
X151954700Y-141458095D01*
X151954700Y-141458095D02*
X151907080Y-141410476D01*
X151430890Y-142600952D02*
X151383271Y-142505714D01*
X151383271Y-142505714D02*
X151335652Y-142458095D01*
X151335652Y-142458095D02*
X151240414Y-142410476D01*
X151240414Y-142410476D02*
X151192795Y-142410476D01*
X151192795Y-142410476D02*
X151097557Y-142458095D01*
X151097557Y-142458095D02*
X151049938Y-142505714D01*
X151049938Y-142505714D02*
X151002319Y-142600952D01*
X151002319Y-142600952D02*
X151002319Y-142791428D01*
X151002319Y-142791428D02*
X151049938Y-142886666D01*
X151049938Y-142886666D02*
X151097557Y-142934285D01*
X151097557Y-142934285D02*
X151192795Y-142981904D01*
X151192795Y-142981904D02*
X151240414Y-142981904D01*
X151240414Y-142981904D02*
X151335652Y-142934285D01*
X151335652Y-142934285D02*
X151383271Y-142886666D01*
X151383271Y-142886666D02*
X151430890Y-142791428D01*
X151430890Y-142791428D02*
X151430890Y-142600952D01*
X151430890Y-142600952D02*
X151478509Y-142505714D01*
X151478509Y-142505714D02*
X151526128Y-142458095D01*
X151526128Y-142458095D02*
X151621366Y-142410476D01*
X151621366Y-142410476D02*
X151811842Y-142410476D01*
X151811842Y-142410476D02*
X151907080Y-142458095D01*
X151907080Y-142458095D02*
X151954700Y-142505714D01*
X151954700Y-142505714D02*
X152002319Y-142600952D01*
X152002319Y-142600952D02*
X152002319Y-142791428D01*
X152002319Y-142791428D02*
X151954700Y-142886666D01*
X151954700Y-142886666D02*
X151907080Y-142934285D01*
X151907080Y-142934285D02*
X151811842Y-142981904D01*
X151811842Y-142981904D02*
X151621366Y-142981904D01*
X151621366Y-142981904D02*
X151526128Y-142934285D01*
X151526128Y-142934285D02*
X151478509Y-142886666D01*
X151478509Y-142886666D02*
X151430890Y-142791428D01*
X151682319Y-145268095D02*
X150682319Y-145268095D01*
X151682319Y-145839523D02*
X151110890Y-145410952D01*
X150682319Y-145839523D02*
X151253747Y-145268095D01*
%TO.C,D33*%
X128237319Y-121455714D02*
X127237319Y-121455714D01*
X127237319Y-121455714D02*
X127237319Y-121693809D01*
X127237319Y-121693809D02*
X127284938Y-121836666D01*
X127284938Y-121836666D02*
X127380176Y-121931904D01*
X127380176Y-121931904D02*
X127475414Y-121979523D01*
X127475414Y-121979523D02*
X127665890Y-122027142D01*
X127665890Y-122027142D02*
X127808747Y-122027142D01*
X127808747Y-122027142D02*
X127999223Y-121979523D01*
X127999223Y-121979523D02*
X128094461Y-121931904D01*
X128094461Y-121931904D02*
X128189700Y-121836666D01*
X128189700Y-121836666D02*
X128237319Y-121693809D01*
X128237319Y-121693809D02*
X128237319Y-121455714D01*
X127237319Y-122360476D02*
X127237319Y-122979523D01*
X127237319Y-122979523D02*
X127618271Y-122646190D01*
X127618271Y-122646190D02*
X127618271Y-122789047D01*
X127618271Y-122789047D02*
X127665890Y-122884285D01*
X127665890Y-122884285D02*
X127713509Y-122931904D01*
X127713509Y-122931904D02*
X127808747Y-122979523D01*
X127808747Y-122979523D02*
X128046842Y-122979523D01*
X128046842Y-122979523D02*
X128142080Y-122931904D01*
X128142080Y-122931904D02*
X128189700Y-122884285D01*
X128189700Y-122884285D02*
X128237319Y-122789047D01*
X128237319Y-122789047D02*
X128237319Y-122503333D01*
X128237319Y-122503333D02*
X128189700Y-122408095D01*
X128189700Y-122408095D02*
X128142080Y-122360476D01*
X127237319Y-123312857D02*
X127237319Y-123931904D01*
X127237319Y-123931904D02*
X127618271Y-123598571D01*
X127618271Y-123598571D02*
X127618271Y-123741428D01*
X127618271Y-123741428D02*
X127665890Y-123836666D01*
X127665890Y-123836666D02*
X127713509Y-123884285D01*
X127713509Y-123884285D02*
X127808747Y-123931904D01*
X127808747Y-123931904D02*
X128046842Y-123931904D01*
X128046842Y-123931904D02*
X128142080Y-123884285D01*
X128142080Y-123884285D02*
X128189700Y-123836666D01*
X128189700Y-123836666D02*
X128237319Y-123741428D01*
X128237319Y-123741428D02*
X128237319Y-123455714D01*
X128237319Y-123455714D02*
X128189700Y-123360476D01*
X128189700Y-123360476D02*
X128142080Y-123312857D01*
X127917319Y-126218095D02*
X126917319Y-126218095D01*
X127917319Y-126789523D02*
X127345890Y-126360952D01*
X126917319Y-126789523D02*
X127488747Y-126218095D01*
%TO.C,D20*%
X171152319Y-83355714D02*
X170152319Y-83355714D01*
X170152319Y-83355714D02*
X170152319Y-83593809D01*
X170152319Y-83593809D02*
X170199938Y-83736666D01*
X170199938Y-83736666D02*
X170295176Y-83831904D01*
X170295176Y-83831904D02*
X170390414Y-83879523D01*
X170390414Y-83879523D02*
X170580890Y-83927142D01*
X170580890Y-83927142D02*
X170723747Y-83927142D01*
X170723747Y-83927142D02*
X170914223Y-83879523D01*
X170914223Y-83879523D02*
X171009461Y-83831904D01*
X171009461Y-83831904D02*
X171104700Y-83736666D01*
X171104700Y-83736666D02*
X171152319Y-83593809D01*
X171152319Y-83593809D02*
X171152319Y-83355714D01*
X170247557Y-84308095D02*
X170199938Y-84355714D01*
X170199938Y-84355714D02*
X170152319Y-84450952D01*
X170152319Y-84450952D02*
X170152319Y-84689047D01*
X170152319Y-84689047D02*
X170199938Y-84784285D01*
X170199938Y-84784285D02*
X170247557Y-84831904D01*
X170247557Y-84831904D02*
X170342795Y-84879523D01*
X170342795Y-84879523D02*
X170438033Y-84879523D01*
X170438033Y-84879523D02*
X170580890Y-84831904D01*
X170580890Y-84831904D02*
X171152319Y-84260476D01*
X171152319Y-84260476D02*
X171152319Y-84879523D01*
X170152319Y-85498571D02*
X170152319Y-85593809D01*
X170152319Y-85593809D02*
X170199938Y-85689047D01*
X170199938Y-85689047D02*
X170247557Y-85736666D01*
X170247557Y-85736666D02*
X170342795Y-85784285D01*
X170342795Y-85784285D02*
X170533271Y-85831904D01*
X170533271Y-85831904D02*
X170771366Y-85831904D01*
X170771366Y-85831904D02*
X170961842Y-85784285D01*
X170961842Y-85784285D02*
X171057080Y-85736666D01*
X171057080Y-85736666D02*
X171104700Y-85689047D01*
X171104700Y-85689047D02*
X171152319Y-85593809D01*
X171152319Y-85593809D02*
X171152319Y-85498571D01*
X171152319Y-85498571D02*
X171104700Y-85403333D01*
X171104700Y-85403333D02*
X171057080Y-85355714D01*
X171057080Y-85355714D02*
X170961842Y-85308095D01*
X170961842Y-85308095D02*
X170771366Y-85260476D01*
X170771366Y-85260476D02*
X170533271Y-85260476D01*
X170533271Y-85260476D02*
X170342795Y-85308095D01*
X170342795Y-85308095D02*
X170247557Y-85355714D01*
X170247557Y-85355714D02*
X170199938Y-85403333D01*
X170199938Y-85403333D02*
X170152319Y-85498571D01*
X170832319Y-88118095D02*
X169832319Y-88118095D01*
X170832319Y-88689523D02*
X170260890Y-88260952D01*
X169832319Y-88689523D02*
X170403747Y-88118095D01*
%TO.C,D47*%
X247252319Y-121455714D02*
X246252319Y-121455714D01*
X246252319Y-121455714D02*
X246252319Y-121693809D01*
X246252319Y-121693809D02*
X246299938Y-121836666D01*
X246299938Y-121836666D02*
X246395176Y-121931904D01*
X246395176Y-121931904D02*
X246490414Y-121979523D01*
X246490414Y-121979523D02*
X246680890Y-122027142D01*
X246680890Y-122027142D02*
X246823747Y-122027142D01*
X246823747Y-122027142D02*
X247014223Y-121979523D01*
X247014223Y-121979523D02*
X247109461Y-121931904D01*
X247109461Y-121931904D02*
X247204700Y-121836666D01*
X247204700Y-121836666D02*
X247252319Y-121693809D01*
X247252319Y-121693809D02*
X247252319Y-121455714D01*
X246585652Y-122884285D02*
X247252319Y-122884285D01*
X246204700Y-122646190D02*
X246918985Y-122408095D01*
X246918985Y-122408095D02*
X246918985Y-123027142D01*
X246252319Y-123312857D02*
X246252319Y-123979523D01*
X246252319Y-123979523D02*
X247252319Y-123550952D01*
X246932319Y-126218095D02*
X245932319Y-126218095D01*
X246932319Y-126789523D02*
X246360890Y-126360952D01*
X245932319Y-126789523D02*
X246503747Y-126218095D01*
%TO.C,D13*%
X199627319Y-59745714D02*
X198627319Y-59745714D01*
X198627319Y-59745714D02*
X198627319Y-59983809D01*
X198627319Y-59983809D02*
X198674938Y-60126666D01*
X198674938Y-60126666D02*
X198770176Y-60221904D01*
X198770176Y-60221904D02*
X198865414Y-60269523D01*
X198865414Y-60269523D02*
X199055890Y-60317142D01*
X199055890Y-60317142D02*
X199198747Y-60317142D01*
X199198747Y-60317142D02*
X199389223Y-60269523D01*
X199389223Y-60269523D02*
X199484461Y-60221904D01*
X199484461Y-60221904D02*
X199579700Y-60126666D01*
X199579700Y-60126666D02*
X199627319Y-59983809D01*
X199627319Y-59983809D02*
X199627319Y-59745714D01*
X199627319Y-61269523D02*
X199627319Y-60698095D01*
X199627319Y-60983809D02*
X198627319Y-60983809D01*
X198627319Y-60983809D02*
X198770176Y-60888571D01*
X198770176Y-60888571D02*
X198865414Y-60793333D01*
X198865414Y-60793333D02*
X198913033Y-60698095D01*
X198627319Y-61602857D02*
X198627319Y-62221904D01*
X198627319Y-62221904D02*
X199008271Y-61888571D01*
X199008271Y-61888571D02*
X199008271Y-62031428D01*
X199008271Y-62031428D02*
X199055890Y-62126666D01*
X199055890Y-62126666D02*
X199103509Y-62174285D01*
X199103509Y-62174285D02*
X199198747Y-62221904D01*
X199198747Y-62221904D02*
X199436842Y-62221904D01*
X199436842Y-62221904D02*
X199532080Y-62174285D01*
X199532080Y-62174285D02*
X199579700Y-62126666D01*
X199579700Y-62126666D02*
X199627319Y-62031428D01*
X199627319Y-62031428D02*
X199627319Y-61745714D01*
X199627319Y-61745714D02*
X199579700Y-61650476D01*
X199579700Y-61650476D02*
X199532080Y-61602857D01*
X199307319Y-64508095D02*
X198307319Y-64508095D01*
X199307319Y-65079523D02*
X198735890Y-64650952D01*
X198307319Y-65079523D02*
X198878747Y-64508095D01*
%TO.C,D16*%
X94947319Y-83355714D02*
X93947319Y-83355714D01*
X93947319Y-83355714D02*
X93947319Y-83593809D01*
X93947319Y-83593809D02*
X93994938Y-83736666D01*
X93994938Y-83736666D02*
X94090176Y-83831904D01*
X94090176Y-83831904D02*
X94185414Y-83879523D01*
X94185414Y-83879523D02*
X94375890Y-83927142D01*
X94375890Y-83927142D02*
X94518747Y-83927142D01*
X94518747Y-83927142D02*
X94709223Y-83879523D01*
X94709223Y-83879523D02*
X94804461Y-83831904D01*
X94804461Y-83831904D02*
X94899700Y-83736666D01*
X94899700Y-83736666D02*
X94947319Y-83593809D01*
X94947319Y-83593809D02*
X94947319Y-83355714D01*
X94947319Y-84879523D02*
X94947319Y-84308095D01*
X94947319Y-84593809D02*
X93947319Y-84593809D01*
X93947319Y-84593809D02*
X94090176Y-84498571D01*
X94090176Y-84498571D02*
X94185414Y-84403333D01*
X94185414Y-84403333D02*
X94233033Y-84308095D01*
X93947319Y-85736666D02*
X93947319Y-85546190D01*
X93947319Y-85546190D02*
X93994938Y-85450952D01*
X93994938Y-85450952D02*
X94042557Y-85403333D01*
X94042557Y-85403333D02*
X94185414Y-85308095D01*
X94185414Y-85308095D02*
X94375890Y-85260476D01*
X94375890Y-85260476D02*
X94756842Y-85260476D01*
X94756842Y-85260476D02*
X94852080Y-85308095D01*
X94852080Y-85308095D02*
X94899700Y-85355714D01*
X94899700Y-85355714D02*
X94947319Y-85450952D01*
X94947319Y-85450952D02*
X94947319Y-85641428D01*
X94947319Y-85641428D02*
X94899700Y-85736666D01*
X94899700Y-85736666D02*
X94852080Y-85784285D01*
X94852080Y-85784285D02*
X94756842Y-85831904D01*
X94756842Y-85831904D02*
X94518747Y-85831904D01*
X94518747Y-85831904D02*
X94423509Y-85784285D01*
X94423509Y-85784285D02*
X94375890Y-85736666D01*
X94375890Y-85736666D02*
X94328271Y-85641428D01*
X94328271Y-85641428D02*
X94328271Y-85450952D01*
X94328271Y-85450952D02*
X94375890Y-85355714D01*
X94375890Y-85355714D02*
X94423509Y-85308095D01*
X94423509Y-85308095D02*
X94518747Y-85260476D01*
X94627319Y-88118095D02*
X93627319Y-88118095D01*
X94627319Y-88689523D02*
X94055890Y-88260952D01*
X93627319Y-88689523D02*
X94198747Y-88118095D01*
%TO.C,D30*%
X71087319Y-121455714D02*
X70087319Y-121455714D01*
X70087319Y-121455714D02*
X70087319Y-121693809D01*
X70087319Y-121693809D02*
X70134938Y-121836666D01*
X70134938Y-121836666D02*
X70230176Y-121931904D01*
X70230176Y-121931904D02*
X70325414Y-121979523D01*
X70325414Y-121979523D02*
X70515890Y-122027142D01*
X70515890Y-122027142D02*
X70658747Y-122027142D01*
X70658747Y-122027142D02*
X70849223Y-121979523D01*
X70849223Y-121979523D02*
X70944461Y-121931904D01*
X70944461Y-121931904D02*
X71039700Y-121836666D01*
X71039700Y-121836666D02*
X71087319Y-121693809D01*
X71087319Y-121693809D02*
X71087319Y-121455714D01*
X70087319Y-122360476D02*
X70087319Y-122979523D01*
X70087319Y-122979523D02*
X70468271Y-122646190D01*
X70468271Y-122646190D02*
X70468271Y-122789047D01*
X70468271Y-122789047D02*
X70515890Y-122884285D01*
X70515890Y-122884285D02*
X70563509Y-122931904D01*
X70563509Y-122931904D02*
X70658747Y-122979523D01*
X70658747Y-122979523D02*
X70896842Y-122979523D01*
X70896842Y-122979523D02*
X70992080Y-122931904D01*
X70992080Y-122931904D02*
X71039700Y-122884285D01*
X71039700Y-122884285D02*
X71087319Y-122789047D01*
X71087319Y-122789047D02*
X71087319Y-122503333D01*
X71087319Y-122503333D02*
X71039700Y-122408095D01*
X71039700Y-122408095D02*
X70992080Y-122360476D01*
X70087319Y-123598571D02*
X70087319Y-123693809D01*
X70087319Y-123693809D02*
X70134938Y-123789047D01*
X70134938Y-123789047D02*
X70182557Y-123836666D01*
X70182557Y-123836666D02*
X70277795Y-123884285D01*
X70277795Y-123884285D02*
X70468271Y-123931904D01*
X70468271Y-123931904D02*
X70706366Y-123931904D01*
X70706366Y-123931904D02*
X70896842Y-123884285D01*
X70896842Y-123884285D02*
X70992080Y-123836666D01*
X70992080Y-123836666D02*
X71039700Y-123789047D01*
X71039700Y-123789047D02*
X71087319Y-123693809D01*
X71087319Y-123693809D02*
X71087319Y-123598571D01*
X71087319Y-123598571D02*
X71039700Y-123503333D01*
X71039700Y-123503333D02*
X70992080Y-123455714D01*
X70992080Y-123455714D02*
X70896842Y-123408095D01*
X70896842Y-123408095D02*
X70706366Y-123360476D01*
X70706366Y-123360476D02*
X70468271Y-123360476D01*
X70468271Y-123360476D02*
X70277795Y-123408095D01*
X70277795Y-123408095D02*
X70182557Y-123455714D01*
X70182557Y-123455714D02*
X70134938Y-123503333D01*
X70134938Y-123503333D02*
X70087319Y-123598571D01*
X70767319Y-126218095D02*
X69767319Y-126218095D01*
X70767319Y-126789523D02*
X70195890Y-126360952D01*
X69767319Y-126789523D02*
X70338747Y-126218095D01*
%TO.C,D31*%
X90137319Y-121455714D02*
X89137319Y-121455714D01*
X89137319Y-121455714D02*
X89137319Y-121693809D01*
X89137319Y-121693809D02*
X89184938Y-121836666D01*
X89184938Y-121836666D02*
X89280176Y-121931904D01*
X89280176Y-121931904D02*
X89375414Y-121979523D01*
X89375414Y-121979523D02*
X89565890Y-122027142D01*
X89565890Y-122027142D02*
X89708747Y-122027142D01*
X89708747Y-122027142D02*
X89899223Y-121979523D01*
X89899223Y-121979523D02*
X89994461Y-121931904D01*
X89994461Y-121931904D02*
X90089700Y-121836666D01*
X90089700Y-121836666D02*
X90137319Y-121693809D01*
X90137319Y-121693809D02*
X90137319Y-121455714D01*
X89137319Y-122360476D02*
X89137319Y-122979523D01*
X89137319Y-122979523D02*
X89518271Y-122646190D01*
X89518271Y-122646190D02*
X89518271Y-122789047D01*
X89518271Y-122789047D02*
X89565890Y-122884285D01*
X89565890Y-122884285D02*
X89613509Y-122931904D01*
X89613509Y-122931904D02*
X89708747Y-122979523D01*
X89708747Y-122979523D02*
X89946842Y-122979523D01*
X89946842Y-122979523D02*
X90042080Y-122931904D01*
X90042080Y-122931904D02*
X90089700Y-122884285D01*
X90089700Y-122884285D02*
X90137319Y-122789047D01*
X90137319Y-122789047D02*
X90137319Y-122503333D01*
X90137319Y-122503333D02*
X90089700Y-122408095D01*
X90089700Y-122408095D02*
X90042080Y-122360476D01*
X90137319Y-123931904D02*
X90137319Y-123360476D01*
X90137319Y-123646190D02*
X89137319Y-123646190D01*
X89137319Y-123646190D02*
X89280176Y-123550952D01*
X89280176Y-123550952D02*
X89375414Y-123455714D01*
X89375414Y-123455714D02*
X89423033Y-123360476D01*
X89817319Y-126218095D02*
X88817319Y-126218095D01*
X89817319Y-126789523D02*
X89245890Y-126360952D01*
X88817319Y-126789523D02*
X89388747Y-126218095D01*
%TO.C,D17*%
X113997319Y-83355714D02*
X112997319Y-83355714D01*
X112997319Y-83355714D02*
X112997319Y-83593809D01*
X112997319Y-83593809D02*
X113044938Y-83736666D01*
X113044938Y-83736666D02*
X113140176Y-83831904D01*
X113140176Y-83831904D02*
X113235414Y-83879523D01*
X113235414Y-83879523D02*
X113425890Y-83927142D01*
X113425890Y-83927142D02*
X113568747Y-83927142D01*
X113568747Y-83927142D02*
X113759223Y-83879523D01*
X113759223Y-83879523D02*
X113854461Y-83831904D01*
X113854461Y-83831904D02*
X113949700Y-83736666D01*
X113949700Y-83736666D02*
X113997319Y-83593809D01*
X113997319Y-83593809D02*
X113997319Y-83355714D01*
X113997319Y-84879523D02*
X113997319Y-84308095D01*
X113997319Y-84593809D02*
X112997319Y-84593809D01*
X112997319Y-84593809D02*
X113140176Y-84498571D01*
X113140176Y-84498571D02*
X113235414Y-84403333D01*
X113235414Y-84403333D02*
X113283033Y-84308095D01*
X112997319Y-85212857D02*
X112997319Y-85879523D01*
X112997319Y-85879523D02*
X113997319Y-85450952D01*
X113677319Y-88118095D02*
X112677319Y-88118095D01*
X113677319Y-88689523D02*
X113105890Y-88260952D01*
X112677319Y-88689523D02*
X113248747Y-88118095D01*
%TO.C,D35*%
X199627319Y-121455714D02*
X198627319Y-121455714D01*
X198627319Y-121455714D02*
X198627319Y-121693809D01*
X198627319Y-121693809D02*
X198674938Y-121836666D01*
X198674938Y-121836666D02*
X198770176Y-121931904D01*
X198770176Y-121931904D02*
X198865414Y-121979523D01*
X198865414Y-121979523D02*
X199055890Y-122027142D01*
X199055890Y-122027142D02*
X199198747Y-122027142D01*
X199198747Y-122027142D02*
X199389223Y-121979523D01*
X199389223Y-121979523D02*
X199484461Y-121931904D01*
X199484461Y-121931904D02*
X199579700Y-121836666D01*
X199579700Y-121836666D02*
X199627319Y-121693809D01*
X199627319Y-121693809D02*
X199627319Y-121455714D01*
X198627319Y-122360476D02*
X198627319Y-122979523D01*
X198627319Y-122979523D02*
X199008271Y-122646190D01*
X199008271Y-122646190D02*
X199008271Y-122789047D01*
X199008271Y-122789047D02*
X199055890Y-122884285D01*
X199055890Y-122884285D02*
X199103509Y-122931904D01*
X199103509Y-122931904D02*
X199198747Y-122979523D01*
X199198747Y-122979523D02*
X199436842Y-122979523D01*
X199436842Y-122979523D02*
X199532080Y-122931904D01*
X199532080Y-122931904D02*
X199579700Y-122884285D01*
X199579700Y-122884285D02*
X199627319Y-122789047D01*
X199627319Y-122789047D02*
X199627319Y-122503333D01*
X199627319Y-122503333D02*
X199579700Y-122408095D01*
X199579700Y-122408095D02*
X199532080Y-122360476D01*
X198627319Y-123884285D02*
X198627319Y-123408095D01*
X198627319Y-123408095D02*
X199103509Y-123360476D01*
X199103509Y-123360476D02*
X199055890Y-123408095D01*
X199055890Y-123408095D02*
X199008271Y-123503333D01*
X199008271Y-123503333D02*
X199008271Y-123741428D01*
X199008271Y-123741428D02*
X199055890Y-123836666D01*
X199055890Y-123836666D02*
X199103509Y-123884285D01*
X199103509Y-123884285D02*
X199198747Y-123931904D01*
X199198747Y-123931904D02*
X199436842Y-123931904D01*
X199436842Y-123931904D02*
X199532080Y-123884285D01*
X199532080Y-123884285D02*
X199579700Y-123836666D01*
X199579700Y-123836666D02*
X199627319Y-123741428D01*
X199627319Y-123741428D02*
X199627319Y-123503333D01*
X199627319Y-123503333D02*
X199579700Y-123408095D01*
X199579700Y-123408095D02*
X199532080Y-123360476D01*
X199307319Y-126218095D02*
X198307319Y-126218095D01*
X199307319Y-126789523D02*
X198735890Y-126360952D01*
X198307319Y-126789523D02*
X198878747Y-126218095D01*
%TO.C,D15*%
X75897319Y-83355714D02*
X74897319Y-83355714D01*
X74897319Y-83355714D02*
X74897319Y-83593809D01*
X74897319Y-83593809D02*
X74944938Y-83736666D01*
X74944938Y-83736666D02*
X75040176Y-83831904D01*
X75040176Y-83831904D02*
X75135414Y-83879523D01*
X75135414Y-83879523D02*
X75325890Y-83927142D01*
X75325890Y-83927142D02*
X75468747Y-83927142D01*
X75468747Y-83927142D02*
X75659223Y-83879523D01*
X75659223Y-83879523D02*
X75754461Y-83831904D01*
X75754461Y-83831904D02*
X75849700Y-83736666D01*
X75849700Y-83736666D02*
X75897319Y-83593809D01*
X75897319Y-83593809D02*
X75897319Y-83355714D01*
X75897319Y-84879523D02*
X75897319Y-84308095D01*
X75897319Y-84593809D02*
X74897319Y-84593809D01*
X74897319Y-84593809D02*
X75040176Y-84498571D01*
X75040176Y-84498571D02*
X75135414Y-84403333D01*
X75135414Y-84403333D02*
X75183033Y-84308095D01*
X74897319Y-85784285D02*
X74897319Y-85308095D01*
X74897319Y-85308095D02*
X75373509Y-85260476D01*
X75373509Y-85260476D02*
X75325890Y-85308095D01*
X75325890Y-85308095D02*
X75278271Y-85403333D01*
X75278271Y-85403333D02*
X75278271Y-85641428D01*
X75278271Y-85641428D02*
X75325890Y-85736666D01*
X75325890Y-85736666D02*
X75373509Y-85784285D01*
X75373509Y-85784285D02*
X75468747Y-85831904D01*
X75468747Y-85831904D02*
X75706842Y-85831904D01*
X75706842Y-85831904D02*
X75802080Y-85784285D01*
X75802080Y-85784285D02*
X75849700Y-85736666D01*
X75849700Y-85736666D02*
X75897319Y-85641428D01*
X75897319Y-85641428D02*
X75897319Y-85403333D01*
X75897319Y-85403333D02*
X75849700Y-85308095D01*
X75849700Y-85308095D02*
X75802080Y-85260476D01*
X75577319Y-88118095D02*
X74577319Y-88118095D01*
X75577319Y-88689523D02*
X75005890Y-88260952D01*
X74577319Y-88689523D02*
X75148747Y-88118095D01*
%TO.C,D23*%
X80612319Y-102405714D02*
X79612319Y-102405714D01*
X79612319Y-102405714D02*
X79612319Y-102643809D01*
X79612319Y-102643809D02*
X79659938Y-102786666D01*
X79659938Y-102786666D02*
X79755176Y-102881904D01*
X79755176Y-102881904D02*
X79850414Y-102929523D01*
X79850414Y-102929523D02*
X80040890Y-102977142D01*
X80040890Y-102977142D02*
X80183747Y-102977142D01*
X80183747Y-102977142D02*
X80374223Y-102929523D01*
X80374223Y-102929523D02*
X80469461Y-102881904D01*
X80469461Y-102881904D02*
X80564700Y-102786666D01*
X80564700Y-102786666D02*
X80612319Y-102643809D01*
X80612319Y-102643809D02*
X80612319Y-102405714D01*
X79707557Y-103358095D02*
X79659938Y-103405714D01*
X79659938Y-103405714D02*
X79612319Y-103500952D01*
X79612319Y-103500952D02*
X79612319Y-103739047D01*
X79612319Y-103739047D02*
X79659938Y-103834285D01*
X79659938Y-103834285D02*
X79707557Y-103881904D01*
X79707557Y-103881904D02*
X79802795Y-103929523D01*
X79802795Y-103929523D02*
X79898033Y-103929523D01*
X79898033Y-103929523D02*
X80040890Y-103881904D01*
X80040890Y-103881904D02*
X80612319Y-103310476D01*
X80612319Y-103310476D02*
X80612319Y-103929523D01*
X79612319Y-104262857D02*
X79612319Y-104881904D01*
X79612319Y-104881904D02*
X79993271Y-104548571D01*
X79993271Y-104548571D02*
X79993271Y-104691428D01*
X79993271Y-104691428D02*
X80040890Y-104786666D01*
X80040890Y-104786666D02*
X80088509Y-104834285D01*
X80088509Y-104834285D02*
X80183747Y-104881904D01*
X80183747Y-104881904D02*
X80421842Y-104881904D01*
X80421842Y-104881904D02*
X80517080Y-104834285D01*
X80517080Y-104834285D02*
X80564700Y-104786666D01*
X80564700Y-104786666D02*
X80612319Y-104691428D01*
X80612319Y-104691428D02*
X80612319Y-104405714D01*
X80612319Y-104405714D02*
X80564700Y-104310476D01*
X80564700Y-104310476D02*
X80517080Y-104262857D01*
X80292319Y-107168095D02*
X79292319Y-107168095D01*
X80292319Y-107739523D02*
X79720890Y-107310952D01*
X79292319Y-107739523D02*
X79863747Y-107168095D01*
%TO.C,D44*%
X228202319Y-83355714D02*
X227202319Y-83355714D01*
X227202319Y-83355714D02*
X227202319Y-83593809D01*
X227202319Y-83593809D02*
X227249938Y-83736666D01*
X227249938Y-83736666D02*
X227345176Y-83831904D01*
X227345176Y-83831904D02*
X227440414Y-83879523D01*
X227440414Y-83879523D02*
X227630890Y-83927142D01*
X227630890Y-83927142D02*
X227773747Y-83927142D01*
X227773747Y-83927142D02*
X227964223Y-83879523D01*
X227964223Y-83879523D02*
X228059461Y-83831904D01*
X228059461Y-83831904D02*
X228154700Y-83736666D01*
X228154700Y-83736666D02*
X228202319Y-83593809D01*
X228202319Y-83593809D02*
X228202319Y-83355714D01*
X227535652Y-84784285D02*
X228202319Y-84784285D01*
X227154700Y-84546190D02*
X227868985Y-84308095D01*
X227868985Y-84308095D02*
X227868985Y-84927142D01*
X227535652Y-85736666D02*
X228202319Y-85736666D01*
X227154700Y-85498571D02*
X227868985Y-85260476D01*
X227868985Y-85260476D02*
X227868985Y-85879523D01*
X227882319Y-88118095D02*
X226882319Y-88118095D01*
X227882319Y-88689523D02*
X227310890Y-88260952D01*
X226882319Y-88689523D02*
X227453747Y-88118095D01*
%TO.C,D11*%
X142587319Y-64305714D02*
X141587319Y-64305714D01*
X141587319Y-64305714D02*
X141587319Y-64543809D01*
X141587319Y-64543809D02*
X141634938Y-64686666D01*
X141634938Y-64686666D02*
X141730176Y-64781904D01*
X141730176Y-64781904D02*
X141825414Y-64829523D01*
X141825414Y-64829523D02*
X142015890Y-64877142D01*
X142015890Y-64877142D02*
X142158747Y-64877142D01*
X142158747Y-64877142D02*
X142349223Y-64829523D01*
X142349223Y-64829523D02*
X142444461Y-64781904D01*
X142444461Y-64781904D02*
X142539700Y-64686666D01*
X142539700Y-64686666D02*
X142587319Y-64543809D01*
X142587319Y-64543809D02*
X142587319Y-64305714D01*
X142587319Y-65829523D02*
X142587319Y-65258095D01*
X142587319Y-65543809D02*
X141587319Y-65543809D01*
X141587319Y-65543809D02*
X141730176Y-65448571D01*
X141730176Y-65448571D02*
X141825414Y-65353333D01*
X141825414Y-65353333D02*
X141873033Y-65258095D01*
X142587319Y-66781904D02*
X142587319Y-66210476D01*
X142587319Y-66496190D02*
X141587319Y-66496190D01*
X141587319Y-66496190D02*
X141730176Y-66400952D01*
X141730176Y-66400952D02*
X141825414Y-66305714D01*
X141825414Y-66305714D02*
X141873033Y-66210476D01*
X142267319Y-69068095D02*
X141267319Y-69068095D01*
X142267319Y-69639523D02*
X141695890Y-69210952D01*
X141267319Y-69639523D02*
X141838747Y-69068095D01*
%TO.C,D36*%
X71087319Y-140505714D02*
X70087319Y-140505714D01*
X70087319Y-140505714D02*
X70087319Y-140743809D01*
X70087319Y-140743809D02*
X70134938Y-140886666D01*
X70134938Y-140886666D02*
X70230176Y-140981904D01*
X70230176Y-140981904D02*
X70325414Y-141029523D01*
X70325414Y-141029523D02*
X70515890Y-141077142D01*
X70515890Y-141077142D02*
X70658747Y-141077142D01*
X70658747Y-141077142D02*
X70849223Y-141029523D01*
X70849223Y-141029523D02*
X70944461Y-140981904D01*
X70944461Y-140981904D02*
X71039700Y-140886666D01*
X71039700Y-140886666D02*
X71087319Y-140743809D01*
X71087319Y-140743809D02*
X71087319Y-140505714D01*
X70087319Y-141410476D02*
X70087319Y-142029523D01*
X70087319Y-142029523D02*
X70468271Y-141696190D01*
X70468271Y-141696190D02*
X70468271Y-141839047D01*
X70468271Y-141839047D02*
X70515890Y-141934285D01*
X70515890Y-141934285D02*
X70563509Y-141981904D01*
X70563509Y-141981904D02*
X70658747Y-142029523D01*
X70658747Y-142029523D02*
X70896842Y-142029523D01*
X70896842Y-142029523D02*
X70992080Y-141981904D01*
X70992080Y-141981904D02*
X71039700Y-141934285D01*
X71039700Y-141934285D02*
X71087319Y-141839047D01*
X71087319Y-141839047D02*
X71087319Y-141553333D01*
X71087319Y-141553333D02*
X71039700Y-141458095D01*
X71039700Y-141458095D02*
X70992080Y-141410476D01*
X70087319Y-142886666D02*
X70087319Y-142696190D01*
X70087319Y-142696190D02*
X70134938Y-142600952D01*
X70134938Y-142600952D02*
X70182557Y-142553333D01*
X70182557Y-142553333D02*
X70325414Y-142458095D01*
X70325414Y-142458095D02*
X70515890Y-142410476D01*
X70515890Y-142410476D02*
X70896842Y-142410476D01*
X70896842Y-142410476D02*
X70992080Y-142458095D01*
X70992080Y-142458095D02*
X71039700Y-142505714D01*
X71039700Y-142505714D02*
X71087319Y-142600952D01*
X71087319Y-142600952D02*
X71087319Y-142791428D01*
X71087319Y-142791428D02*
X71039700Y-142886666D01*
X71039700Y-142886666D02*
X70992080Y-142934285D01*
X70992080Y-142934285D02*
X70896842Y-142981904D01*
X70896842Y-142981904D02*
X70658747Y-142981904D01*
X70658747Y-142981904D02*
X70563509Y-142934285D01*
X70563509Y-142934285D02*
X70515890Y-142886666D01*
X70515890Y-142886666D02*
X70468271Y-142791428D01*
X70468271Y-142791428D02*
X70468271Y-142600952D01*
X70468271Y-142600952D02*
X70515890Y-142505714D01*
X70515890Y-142505714D02*
X70563509Y-142458095D01*
X70563509Y-142458095D02*
X70658747Y-142410476D01*
X70767319Y-145268095D02*
X69767319Y-145268095D01*
X70767319Y-145839523D02*
X70195890Y-145410952D01*
X69767319Y-145839523D02*
X70338747Y-145268095D01*
%TO.C,D6*%
X161637319Y-40969405D02*
X160637319Y-40969405D01*
X160637319Y-40969405D02*
X160637319Y-41207500D01*
X160637319Y-41207500D02*
X160684938Y-41350357D01*
X160684938Y-41350357D02*
X160780176Y-41445595D01*
X160780176Y-41445595D02*
X160875414Y-41493214D01*
X160875414Y-41493214D02*
X161065890Y-41540833D01*
X161065890Y-41540833D02*
X161208747Y-41540833D01*
X161208747Y-41540833D02*
X161399223Y-41493214D01*
X161399223Y-41493214D02*
X161494461Y-41445595D01*
X161494461Y-41445595D02*
X161589700Y-41350357D01*
X161589700Y-41350357D02*
X161637319Y-41207500D01*
X161637319Y-41207500D02*
X161637319Y-40969405D01*
X160637319Y-42397976D02*
X160637319Y-42207500D01*
X160637319Y-42207500D02*
X160684938Y-42112262D01*
X160684938Y-42112262D02*
X160732557Y-42064643D01*
X160732557Y-42064643D02*
X160875414Y-41969405D01*
X160875414Y-41969405D02*
X161065890Y-41921786D01*
X161065890Y-41921786D02*
X161446842Y-41921786D01*
X161446842Y-41921786D02*
X161542080Y-41969405D01*
X161542080Y-41969405D02*
X161589700Y-42017024D01*
X161589700Y-42017024D02*
X161637319Y-42112262D01*
X161637319Y-42112262D02*
X161637319Y-42302738D01*
X161637319Y-42302738D02*
X161589700Y-42397976D01*
X161589700Y-42397976D02*
X161542080Y-42445595D01*
X161542080Y-42445595D02*
X161446842Y-42493214D01*
X161446842Y-42493214D02*
X161208747Y-42493214D01*
X161208747Y-42493214D02*
X161113509Y-42445595D01*
X161113509Y-42445595D02*
X161065890Y-42397976D01*
X161065890Y-42397976D02*
X161018271Y-42302738D01*
X161018271Y-42302738D02*
X161018271Y-42112262D01*
X161018271Y-42112262D02*
X161065890Y-42017024D01*
X161065890Y-42017024D02*
X161113509Y-41969405D01*
X161113509Y-41969405D02*
X161208747Y-41921786D01*
X161317319Y-45255595D02*
X160317319Y-45255595D01*
X161317319Y-45827023D02*
X160745890Y-45398452D01*
X160317319Y-45827023D02*
X160888747Y-45255595D01*
%TO.C,D27*%
X156812319Y-102405714D02*
X155812319Y-102405714D01*
X155812319Y-102405714D02*
X155812319Y-102643809D01*
X155812319Y-102643809D02*
X155859938Y-102786666D01*
X155859938Y-102786666D02*
X155955176Y-102881904D01*
X155955176Y-102881904D02*
X156050414Y-102929523D01*
X156050414Y-102929523D02*
X156240890Y-102977142D01*
X156240890Y-102977142D02*
X156383747Y-102977142D01*
X156383747Y-102977142D02*
X156574223Y-102929523D01*
X156574223Y-102929523D02*
X156669461Y-102881904D01*
X156669461Y-102881904D02*
X156764700Y-102786666D01*
X156764700Y-102786666D02*
X156812319Y-102643809D01*
X156812319Y-102643809D02*
X156812319Y-102405714D01*
X155907557Y-103358095D02*
X155859938Y-103405714D01*
X155859938Y-103405714D02*
X155812319Y-103500952D01*
X155812319Y-103500952D02*
X155812319Y-103739047D01*
X155812319Y-103739047D02*
X155859938Y-103834285D01*
X155859938Y-103834285D02*
X155907557Y-103881904D01*
X155907557Y-103881904D02*
X156002795Y-103929523D01*
X156002795Y-103929523D02*
X156098033Y-103929523D01*
X156098033Y-103929523D02*
X156240890Y-103881904D01*
X156240890Y-103881904D02*
X156812319Y-103310476D01*
X156812319Y-103310476D02*
X156812319Y-103929523D01*
X155812319Y-104262857D02*
X155812319Y-104929523D01*
X155812319Y-104929523D02*
X156812319Y-104500952D01*
X156492319Y-107168095D02*
X155492319Y-107168095D01*
X156492319Y-107739523D02*
X155920890Y-107310952D01*
X155492319Y-107739523D02*
X156063747Y-107168095D01*
%TO.C,D45*%
X247252319Y-83355714D02*
X246252319Y-83355714D01*
X246252319Y-83355714D02*
X246252319Y-83593809D01*
X246252319Y-83593809D02*
X246299938Y-83736666D01*
X246299938Y-83736666D02*
X246395176Y-83831904D01*
X246395176Y-83831904D02*
X246490414Y-83879523D01*
X246490414Y-83879523D02*
X246680890Y-83927142D01*
X246680890Y-83927142D02*
X246823747Y-83927142D01*
X246823747Y-83927142D02*
X247014223Y-83879523D01*
X247014223Y-83879523D02*
X247109461Y-83831904D01*
X247109461Y-83831904D02*
X247204700Y-83736666D01*
X247204700Y-83736666D02*
X247252319Y-83593809D01*
X247252319Y-83593809D02*
X247252319Y-83355714D01*
X246585652Y-84784285D02*
X247252319Y-84784285D01*
X246204700Y-84546190D02*
X246918985Y-84308095D01*
X246918985Y-84308095D02*
X246918985Y-84927142D01*
X246252319Y-85784285D02*
X246252319Y-85308095D01*
X246252319Y-85308095D02*
X246728509Y-85260476D01*
X246728509Y-85260476D02*
X246680890Y-85308095D01*
X246680890Y-85308095D02*
X246633271Y-85403333D01*
X246633271Y-85403333D02*
X246633271Y-85641428D01*
X246633271Y-85641428D02*
X246680890Y-85736666D01*
X246680890Y-85736666D02*
X246728509Y-85784285D01*
X246728509Y-85784285D02*
X246823747Y-85831904D01*
X246823747Y-85831904D02*
X247061842Y-85831904D01*
X247061842Y-85831904D02*
X247157080Y-85784285D01*
X247157080Y-85784285D02*
X247204700Y-85736666D01*
X247204700Y-85736666D02*
X247252319Y-85641428D01*
X247252319Y-85641428D02*
X247252319Y-85403333D01*
X247252319Y-85403333D02*
X247204700Y-85308095D01*
X247204700Y-85308095D02*
X247157080Y-85260476D01*
X246932319Y-88118095D02*
X245932319Y-88118095D01*
X246932319Y-88689523D02*
X246360890Y-88260952D01*
X245932319Y-88689523D02*
X246503747Y-88118095D01*
%TO.C,D12*%
X161637319Y-64305714D02*
X160637319Y-64305714D01*
X160637319Y-64305714D02*
X160637319Y-64543809D01*
X160637319Y-64543809D02*
X160684938Y-64686666D01*
X160684938Y-64686666D02*
X160780176Y-64781904D01*
X160780176Y-64781904D02*
X160875414Y-64829523D01*
X160875414Y-64829523D02*
X161065890Y-64877142D01*
X161065890Y-64877142D02*
X161208747Y-64877142D01*
X161208747Y-64877142D02*
X161399223Y-64829523D01*
X161399223Y-64829523D02*
X161494461Y-64781904D01*
X161494461Y-64781904D02*
X161589700Y-64686666D01*
X161589700Y-64686666D02*
X161637319Y-64543809D01*
X161637319Y-64543809D02*
X161637319Y-64305714D01*
X161637319Y-65829523D02*
X161637319Y-65258095D01*
X161637319Y-65543809D02*
X160637319Y-65543809D01*
X160637319Y-65543809D02*
X160780176Y-65448571D01*
X160780176Y-65448571D02*
X160875414Y-65353333D01*
X160875414Y-65353333D02*
X160923033Y-65258095D01*
X160732557Y-66210476D02*
X160684938Y-66258095D01*
X160684938Y-66258095D02*
X160637319Y-66353333D01*
X160637319Y-66353333D02*
X160637319Y-66591428D01*
X160637319Y-66591428D02*
X160684938Y-66686666D01*
X160684938Y-66686666D02*
X160732557Y-66734285D01*
X160732557Y-66734285D02*
X160827795Y-66781904D01*
X160827795Y-66781904D02*
X160923033Y-66781904D01*
X160923033Y-66781904D02*
X161065890Y-66734285D01*
X161065890Y-66734285D02*
X161637319Y-66162857D01*
X161637319Y-66162857D02*
X161637319Y-66781904D01*
X161317319Y-69068095D02*
X160317319Y-69068095D01*
X161317319Y-69639523D02*
X160745890Y-69210952D01*
X160317319Y-69639523D02*
X160888747Y-69068095D01*
%TO.C,D48*%
X228202319Y-140505714D02*
X227202319Y-140505714D01*
X227202319Y-140505714D02*
X227202319Y-140743809D01*
X227202319Y-140743809D02*
X227249938Y-140886666D01*
X227249938Y-140886666D02*
X227345176Y-140981904D01*
X227345176Y-140981904D02*
X227440414Y-141029523D01*
X227440414Y-141029523D02*
X227630890Y-141077142D01*
X227630890Y-141077142D02*
X227773747Y-141077142D01*
X227773747Y-141077142D02*
X227964223Y-141029523D01*
X227964223Y-141029523D02*
X228059461Y-140981904D01*
X228059461Y-140981904D02*
X228154700Y-140886666D01*
X228154700Y-140886666D02*
X228202319Y-140743809D01*
X228202319Y-140743809D02*
X228202319Y-140505714D01*
X227535652Y-141934285D02*
X228202319Y-141934285D01*
X227154700Y-141696190D02*
X227868985Y-141458095D01*
X227868985Y-141458095D02*
X227868985Y-142077142D01*
X227630890Y-142600952D02*
X227583271Y-142505714D01*
X227583271Y-142505714D02*
X227535652Y-142458095D01*
X227535652Y-142458095D02*
X227440414Y-142410476D01*
X227440414Y-142410476D02*
X227392795Y-142410476D01*
X227392795Y-142410476D02*
X227297557Y-142458095D01*
X227297557Y-142458095D02*
X227249938Y-142505714D01*
X227249938Y-142505714D02*
X227202319Y-142600952D01*
X227202319Y-142600952D02*
X227202319Y-142791428D01*
X227202319Y-142791428D02*
X227249938Y-142886666D01*
X227249938Y-142886666D02*
X227297557Y-142934285D01*
X227297557Y-142934285D02*
X227392795Y-142981904D01*
X227392795Y-142981904D02*
X227440414Y-142981904D01*
X227440414Y-142981904D02*
X227535652Y-142934285D01*
X227535652Y-142934285D02*
X227583271Y-142886666D01*
X227583271Y-142886666D02*
X227630890Y-142791428D01*
X227630890Y-142791428D02*
X227630890Y-142600952D01*
X227630890Y-142600952D02*
X227678509Y-142505714D01*
X227678509Y-142505714D02*
X227726128Y-142458095D01*
X227726128Y-142458095D02*
X227821366Y-142410476D01*
X227821366Y-142410476D02*
X228011842Y-142410476D01*
X228011842Y-142410476D02*
X228107080Y-142458095D01*
X228107080Y-142458095D02*
X228154700Y-142505714D01*
X228154700Y-142505714D02*
X228202319Y-142600952D01*
X228202319Y-142600952D02*
X228202319Y-142791428D01*
X228202319Y-142791428D02*
X228154700Y-142886666D01*
X228154700Y-142886666D02*
X228107080Y-142934285D01*
X228107080Y-142934285D02*
X228011842Y-142981904D01*
X228011842Y-142981904D02*
X227821366Y-142981904D01*
X227821366Y-142981904D02*
X227726128Y-142934285D01*
X227726128Y-142934285D02*
X227678509Y-142886666D01*
X227678509Y-142886666D02*
X227630890Y-142791428D01*
X227882319Y-145268095D02*
X226882319Y-145268095D01*
X227882319Y-145839523D02*
X227310890Y-145410952D01*
X226882319Y-145839523D02*
X227453747Y-145268095D01*
%TO.C,D34*%
X147287319Y-121455714D02*
X146287319Y-121455714D01*
X146287319Y-121455714D02*
X146287319Y-121693809D01*
X146287319Y-121693809D02*
X146334938Y-121836666D01*
X146334938Y-121836666D02*
X146430176Y-121931904D01*
X146430176Y-121931904D02*
X146525414Y-121979523D01*
X146525414Y-121979523D02*
X146715890Y-122027142D01*
X146715890Y-122027142D02*
X146858747Y-122027142D01*
X146858747Y-122027142D02*
X147049223Y-121979523D01*
X147049223Y-121979523D02*
X147144461Y-121931904D01*
X147144461Y-121931904D02*
X147239700Y-121836666D01*
X147239700Y-121836666D02*
X147287319Y-121693809D01*
X147287319Y-121693809D02*
X147287319Y-121455714D01*
X146287319Y-122360476D02*
X146287319Y-122979523D01*
X146287319Y-122979523D02*
X146668271Y-122646190D01*
X146668271Y-122646190D02*
X146668271Y-122789047D01*
X146668271Y-122789047D02*
X146715890Y-122884285D01*
X146715890Y-122884285D02*
X146763509Y-122931904D01*
X146763509Y-122931904D02*
X146858747Y-122979523D01*
X146858747Y-122979523D02*
X147096842Y-122979523D01*
X147096842Y-122979523D02*
X147192080Y-122931904D01*
X147192080Y-122931904D02*
X147239700Y-122884285D01*
X147239700Y-122884285D02*
X147287319Y-122789047D01*
X147287319Y-122789047D02*
X147287319Y-122503333D01*
X147287319Y-122503333D02*
X147239700Y-122408095D01*
X147239700Y-122408095D02*
X147192080Y-122360476D01*
X146620652Y-123836666D02*
X147287319Y-123836666D01*
X146239700Y-123598571D02*
X146953985Y-123360476D01*
X146953985Y-123360476D02*
X146953985Y-123979523D01*
X146967319Y-126218095D02*
X145967319Y-126218095D01*
X146967319Y-126789523D02*
X146395890Y-126360952D01*
X145967319Y-126789523D02*
X146538747Y-126218095D01*
%TO.C,D5*%
X142587319Y-40969405D02*
X141587319Y-40969405D01*
X141587319Y-40969405D02*
X141587319Y-41207500D01*
X141587319Y-41207500D02*
X141634938Y-41350357D01*
X141634938Y-41350357D02*
X141730176Y-41445595D01*
X141730176Y-41445595D02*
X141825414Y-41493214D01*
X141825414Y-41493214D02*
X142015890Y-41540833D01*
X142015890Y-41540833D02*
X142158747Y-41540833D01*
X142158747Y-41540833D02*
X142349223Y-41493214D01*
X142349223Y-41493214D02*
X142444461Y-41445595D01*
X142444461Y-41445595D02*
X142539700Y-41350357D01*
X142539700Y-41350357D02*
X142587319Y-41207500D01*
X142587319Y-41207500D02*
X142587319Y-40969405D01*
X141587319Y-42445595D02*
X141587319Y-41969405D01*
X141587319Y-41969405D02*
X142063509Y-41921786D01*
X142063509Y-41921786D02*
X142015890Y-41969405D01*
X142015890Y-41969405D02*
X141968271Y-42064643D01*
X141968271Y-42064643D02*
X141968271Y-42302738D01*
X141968271Y-42302738D02*
X142015890Y-42397976D01*
X142015890Y-42397976D02*
X142063509Y-42445595D01*
X142063509Y-42445595D02*
X142158747Y-42493214D01*
X142158747Y-42493214D02*
X142396842Y-42493214D01*
X142396842Y-42493214D02*
X142492080Y-42445595D01*
X142492080Y-42445595D02*
X142539700Y-42397976D01*
X142539700Y-42397976D02*
X142587319Y-42302738D01*
X142587319Y-42302738D02*
X142587319Y-42064643D01*
X142587319Y-42064643D02*
X142539700Y-41969405D01*
X142539700Y-41969405D02*
X142492080Y-41921786D01*
X142267319Y-45255595D02*
X141267319Y-45255595D01*
X142267319Y-45827023D02*
X141695890Y-45398452D01*
X141267319Y-45827023D02*
X141838747Y-45255595D01*
%TO.C,D29*%
X52037319Y-121455714D02*
X51037319Y-121455714D01*
X51037319Y-121455714D02*
X51037319Y-121693809D01*
X51037319Y-121693809D02*
X51084938Y-121836666D01*
X51084938Y-121836666D02*
X51180176Y-121931904D01*
X51180176Y-121931904D02*
X51275414Y-121979523D01*
X51275414Y-121979523D02*
X51465890Y-122027142D01*
X51465890Y-122027142D02*
X51608747Y-122027142D01*
X51608747Y-122027142D02*
X51799223Y-121979523D01*
X51799223Y-121979523D02*
X51894461Y-121931904D01*
X51894461Y-121931904D02*
X51989700Y-121836666D01*
X51989700Y-121836666D02*
X52037319Y-121693809D01*
X52037319Y-121693809D02*
X52037319Y-121455714D01*
X51132557Y-122408095D02*
X51084938Y-122455714D01*
X51084938Y-122455714D02*
X51037319Y-122550952D01*
X51037319Y-122550952D02*
X51037319Y-122789047D01*
X51037319Y-122789047D02*
X51084938Y-122884285D01*
X51084938Y-122884285D02*
X51132557Y-122931904D01*
X51132557Y-122931904D02*
X51227795Y-122979523D01*
X51227795Y-122979523D02*
X51323033Y-122979523D01*
X51323033Y-122979523D02*
X51465890Y-122931904D01*
X51465890Y-122931904D02*
X52037319Y-122360476D01*
X52037319Y-122360476D02*
X52037319Y-122979523D01*
X52037319Y-123455714D02*
X52037319Y-123646190D01*
X52037319Y-123646190D02*
X51989700Y-123741428D01*
X51989700Y-123741428D02*
X51942080Y-123789047D01*
X51942080Y-123789047D02*
X51799223Y-123884285D01*
X51799223Y-123884285D02*
X51608747Y-123931904D01*
X51608747Y-123931904D02*
X51227795Y-123931904D01*
X51227795Y-123931904D02*
X51132557Y-123884285D01*
X51132557Y-123884285D02*
X51084938Y-123836666D01*
X51084938Y-123836666D02*
X51037319Y-123741428D01*
X51037319Y-123741428D02*
X51037319Y-123550952D01*
X51037319Y-123550952D02*
X51084938Y-123455714D01*
X51084938Y-123455714D02*
X51132557Y-123408095D01*
X51132557Y-123408095D02*
X51227795Y-123360476D01*
X51227795Y-123360476D02*
X51465890Y-123360476D01*
X51465890Y-123360476D02*
X51561128Y-123408095D01*
X51561128Y-123408095D02*
X51608747Y-123455714D01*
X51608747Y-123455714D02*
X51656366Y-123550952D01*
X51656366Y-123550952D02*
X51656366Y-123741428D01*
X51656366Y-123741428D02*
X51608747Y-123836666D01*
X51608747Y-123836666D02*
X51561128Y-123884285D01*
X51561128Y-123884285D02*
X51465890Y-123931904D01*
X51717319Y-126218095D02*
X50717319Y-126218095D01*
X51717319Y-126789523D02*
X51145890Y-126360952D01*
X50717319Y-126789523D02*
X51288747Y-126218095D01*
%TO.C,D42*%
X247252319Y-64305714D02*
X246252319Y-64305714D01*
X246252319Y-64305714D02*
X246252319Y-64543809D01*
X246252319Y-64543809D02*
X246299938Y-64686666D01*
X246299938Y-64686666D02*
X246395176Y-64781904D01*
X246395176Y-64781904D02*
X246490414Y-64829523D01*
X246490414Y-64829523D02*
X246680890Y-64877142D01*
X246680890Y-64877142D02*
X246823747Y-64877142D01*
X246823747Y-64877142D02*
X247014223Y-64829523D01*
X247014223Y-64829523D02*
X247109461Y-64781904D01*
X247109461Y-64781904D02*
X247204700Y-64686666D01*
X247204700Y-64686666D02*
X247252319Y-64543809D01*
X247252319Y-64543809D02*
X247252319Y-64305714D01*
X246585652Y-65734285D02*
X247252319Y-65734285D01*
X246204700Y-65496190D02*
X246918985Y-65258095D01*
X246918985Y-65258095D02*
X246918985Y-65877142D01*
X246347557Y-66210476D02*
X246299938Y-66258095D01*
X246299938Y-66258095D02*
X246252319Y-66353333D01*
X246252319Y-66353333D02*
X246252319Y-66591428D01*
X246252319Y-66591428D02*
X246299938Y-66686666D01*
X246299938Y-66686666D02*
X246347557Y-66734285D01*
X246347557Y-66734285D02*
X246442795Y-66781904D01*
X246442795Y-66781904D02*
X246538033Y-66781904D01*
X246538033Y-66781904D02*
X246680890Y-66734285D01*
X246680890Y-66734285D02*
X247252319Y-66162857D01*
X247252319Y-66162857D02*
X247252319Y-66781904D01*
X246932319Y-69068095D02*
X245932319Y-69068095D01*
X246932319Y-69639523D02*
X246360890Y-69210952D01*
X245932319Y-69639523D02*
X246503747Y-69068095D01*
%TO.C,D28*%
X199627319Y-102405714D02*
X198627319Y-102405714D01*
X198627319Y-102405714D02*
X198627319Y-102643809D01*
X198627319Y-102643809D02*
X198674938Y-102786666D01*
X198674938Y-102786666D02*
X198770176Y-102881904D01*
X198770176Y-102881904D02*
X198865414Y-102929523D01*
X198865414Y-102929523D02*
X199055890Y-102977142D01*
X199055890Y-102977142D02*
X199198747Y-102977142D01*
X199198747Y-102977142D02*
X199389223Y-102929523D01*
X199389223Y-102929523D02*
X199484461Y-102881904D01*
X199484461Y-102881904D02*
X199579700Y-102786666D01*
X199579700Y-102786666D02*
X199627319Y-102643809D01*
X199627319Y-102643809D02*
X199627319Y-102405714D01*
X198722557Y-103358095D02*
X198674938Y-103405714D01*
X198674938Y-103405714D02*
X198627319Y-103500952D01*
X198627319Y-103500952D02*
X198627319Y-103739047D01*
X198627319Y-103739047D02*
X198674938Y-103834285D01*
X198674938Y-103834285D02*
X198722557Y-103881904D01*
X198722557Y-103881904D02*
X198817795Y-103929523D01*
X198817795Y-103929523D02*
X198913033Y-103929523D01*
X198913033Y-103929523D02*
X199055890Y-103881904D01*
X199055890Y-103881904D02*
X199627319Y-103310476D01*
X199627319Y-103310476D02*
X199627319Y-103929523D01*
X199055890Y-104500952D02*
X199008271Y-104405714D01*
X199008271Y-104405714D02*
X198960652Y-104358095D01*
X198960652Y-104358095D02*
X198865414Y-104310476D01*
X198865414Y-104310476D02*
X198817795Y-104310476D01*
X198817795Y-104310476D02*
X198722557Y-104358095D01*
X198722557Y-104358095D02*
X198674938Y-104405714D01*
X198674938Y-104405714D02*
X198627319Y-104500952D01*
X198627319Y-104500952D02*
X198627319Y-104691428D01*
X198627319Y-104691428D02*
X198674938Y-104786666D01*
X198674938Y-104786666D02*
X198722557Y-104834285D01*
X198722557Y-104834285D02*
X198817795Y-104881904D01*
X198817795Y-104881904D02*
X198865414Y-104881904D01*
X198865414Y-104881904D02*
X198960652Y-104834285D01*
X198960652Y-104834285D02*
X199008271Y-104786666D01*
X199008271Y-104786666D02*
X199055890Y-104691428D01*
X199055890Y-104691428D02*
X199055890Y-104500952D01*
X199055890Y-104500952D02*
X199103509Y-104405714D01*
X199103509Y-104405714D02*
X199151128Y-104358095D01*
X199151128Y-104358095D02*
X199246366Y-104310476D01*
X199246366Y-104310476D02*
X199436842Y-104310476D01*
X199436842Y-104310476D02*
X199532080Y-104358095D01*
X199532080Y-104358095D02*
X199579700Y-104405714D01*
X199579700Y-104405714D02*
X199627319Y-104500952D01*
X199627319Y-104500952D02*
X199627319Y-104691428D01*
X199627319Y-104691428D02*
X199579700Y-104786666D01*
X199579700Y-104786666D02*
X199532080Y-104834285D01*
X199532080Y-104834285D02*
X199436842Y-104881904D01*
X199436842Y-104881904D02*
X199246366Y-104881904D01*
X199246366Y-104881904D02*
X199151128Y-104834285D01*
X199151128Y-104834285D02*
X199103509Y-104786666D01*
X199103509Y-104786666D02*
X199055890Y-104691428D01*
X199307319Y-107168095D02*
X198307319Y-107168095D01*
X199307319Y-107739523D02*
X198735890Y-107310952D01*
X198307319Y-107739523D02*
X198878747Y-107168095D01*
%TO.C,D7*%
X66387319Y-64781905D02*
X65387319Y-64781905D01*
X65387319Y-64781905D02*
X65387319Y-65020000D01*
X65387319Y-65020000D02*
X65434938Y-65162857D01*
X65434938Y-65162857D02*
X65530176Y-65258095D01*
X65530176Y-65258095D02*
X65625414Y-65305714D01*
X65625414Y-65305714D02*
X65815890Y-65353333D01*
X65815890Y-65353333D02*
X65958747Y-65353333D01*
X65958747Y-65353333D02*
X66149223Y-65305714D01*
X66149223Y-65305714D02*
X66244461Y-65258095D01*
X66244461Y-65258095D02*
X66339700Y-65162857D01*
X66339700Y-65162857D02*
X66387319Y-65020000D01*
X66387319Y-65020000D02*
X66387319Y-64781905D01*
X65387319Y-65686667D02*
X65387319Y-66353333D01*
X65387319Y-66353333D02*
X66387319Y-65924762D01*
X66067319Y-69068095D02*
X65067319Y-69068095D01*
X66067319Y-69639523D02*
X65495890Y-69210952D01*
X65067319Y-69639523D02*
X65638747Y-69068095D01*
%TO.C,D9*%
X104487319Y-64781905D02*
X103487319Y-64781905D01*
X103487319Y-64781905D02*
X103487319Y-65020000D01*
X103487319Y-65020000D02*
X103534938Y-65162857D01*
X103534938Y-65162857D02*
X103630176Y-65258095D01*
X103630176Y-65258095D02*
X103725414Y-65305714D01*
X103725414Y-65305714D02*
X103915890Y-65353333D01*
X103915890Y-65353333D02*
X104058747Y-65353333D01*
X104058747Y-65353333D02*
X104249223Y-65305714D01*
X104249223Y-65305714D02*
X104344461Y-65258095D01*
X104344461Y-65258095D02*
X104439700Y-65162857D01*
X104439700Y-65162857D02*
X104487319Y-65020000D01*
X104487319Y-65020000D02*
X104487319Y-64781905D01*
X104487319Y-65829524D02*
X104487319Y-66020000D01*
X104487319Y-66020000D02*
X104439700Y-66115238D01*
X104439700Y-66115238D02*
X104392080Y-66162857D01*
X104392080Y-66162857D02*
X104249223Y-66258095D01*
X104249223Y-66258095D02*
X104058747Y-66305714D01*
X104058747Y-66305714D02*
X103677795Y-66305714D01*
X103677795Y-66305714D02*
X103582557Y-66258095D01*
X103582557Y-66258095D02*
X103534938Y-66210476D01*
X103534938Y-66210476D02*
X103487319Y-66115238D01*
X103487319Y-66115238D02*
X103487319Y-65924762D01*
X103487319Y-65924762D02*
X103534938Y-65829524D01*
X103534938Y-65829524D02*
X103582557Y-65781905D01*
X103582557Y-65781905D02*
X103677795Y-65734286D01*
X103677795Y-65734286D02*
X103915890Y-65734286D01*
X103915890Y-65734286D02*
X104011128Y-65781905D01*
X104011128Y-65781905D02*
X104058747Y-65829524D01*
X104058747Y-65829524D02*
X104106366Y-65924762D01*
X104106366Y-65924762D02*
X104106366Y-66115238D01*
X104106366Y-66115238D02*
X104058747Y-66210476D01*
X104058747Y-66210476D02*
X104011128Y-66258095D01*
X104011128Y-66258095D02*
X103915890Y-66305714D01*
X104167319Y-69068095D02*
X103167319Y-69068095D01*
X104167319Y-69639523D02*
X103595890Y-69210952D01*
X103167319Y-69639523D02*
X103738747Y-69068095D01*
%TO.C,D22*%
X61597319Y-102505714D02*
X60597319Y-102505714D01*
X60597319Y-102505714D02*
X60597319Y-102743809D01*
X60597319Y-102743809D02*
X60644938Y-102886666D01*
X60644938Y-102886666D02*
X60740176Y-102981904D01*
X60740176Y-102981904D02*
X60835414Y-103029523D01*
X60835414Y-103029523D02*
X61025890Y-103077142D01*
X61025890Y-103077142D02*
X61168747Y-103077142D01*
X61168747Y-103077142D02*
X61359223Y-103029523D01*
X61359223Y-103029523D02*
X61454461Y-102981904D01*
X61454461Y-102981904D02*
X61549700Y-102886666D01*
X61549700Y-102886666D02*
X61597319Y-102743809D01*
X61597319Y-102743809D02*
X61597319Y-102505714D01*
X60692557Y-103458095D02*
X60644938Y-103505714D01*
X60644938Y-103505714D02*
X60597319Y-103600952D01*
X60597319Y-103600952D02*
X60597319Y-103839047D01*
X60597319Y-103839047D02*
X60644938Y-103934285D01*
X60644938Y-103934285D02*
X60692557Y-103981904D01*
X60692557Y-103981904D02*
X60787795Y-104029523D01*
X60787795Y-104029523D02*
X60883033Y-104029523D01*
X60883033Y-104029523D02*
X61025890Y-103981904D01*
X61025890Y-103981904D02*
X61597319Y-103410476D01*
X61597319Y-103410476D02*
X61597319Y-104029523D01*
X60692557Y-104410476D02*
X60644938Y-104458095D01*
X60644938Y-104458095D02*
X60597319Y-104553333D01*
X60597319Y-104553333D02*
X60597319Y-104791428D01*
X60597319Y-104791428D02*
X60644938Y-104886666D01*
X60644938Y-104886666D02*
X60692557Y-104934285D01*
X60692557Y-104934285D02*
X60787795Y-104981904D01*
X60787795Y-104981904D02*
X60883033Y-104981904D01*
X60883033Y-104981904D02*
X61025890Y-104934285D01*
X61025890Y-104934285D02*
X61597319Y-104362857D01*
X61597319Y-104362857D02*
X61597319Y-104981904D01*
X61277319Y-107268095D02*
X60277319Y-107268095D01*
X61277319Y-107839523D02*
X60705890Y-107410952D01*
X60277319Y-107839523D02*
X60848747Y-107268095D01*
%TO.C,U1*%
X266011750Y-43721750D02*
X263471750Y-43721750D01*
X266011750Y-36101750D02*
X266011750Y-43721750D01*
X263471750Y-48801750D02*
X232991750Y-48801750D01*
X263471750Y-43721750D02*
X263471750Y-48801750D01*
X263471750Y-36101750D02*
X266011750Y-36101750D01*
X263471750Y-31021750D02*
X263471750Y-36101750D01*
X232991750Y-48801750D02*
X232991750Y-31021750D01*
X232991750Y-31021750D02*
X263471750Y-31021750D01*
%TO.C,RESET1*%
X211212500Y-46541250D02*
X211212500Y-42041250D01*
X211212500Y-42041250D02*
X204712500Y-42041250D01*
X204712500Y-46541250D02*
X211212500Y-46541250D01*
X204712500Y-42041250D02*
X204712500Y-46541250D01*
D11*
%TO.C,D37*%
X87562500Y-144490000D02*
X87562500Y-143840000D01*
X86442500Y-143840000D02*
X86442500Y-139600000D01*
X88682500Y-143840000D02*
X86442500Y-143840000D01*
X88682500Y-143240000D02*
X86442500Y-143240000D01*
X88682500Y-143120000D02*
X86442500Y-143120000D01*
X88682500Y-143000000D02*
X86442500Y-143000000D01*
X86442500Y-139600000D02*
X88682500Y-139600000D01*
X88682500Y-139600000D02*
X88682500Y-143840000D01*
X87562500Y-138950000D02*
X87562500Y-139600000D01*
%TO.C,D49*%
X244677500Y-144490000D02*
X244677500Y-143840000D01*
X243557500Y-143840000D02*
X243557500Y-139600000D01*
X245797500Y-143840000D02*
X243557500Y-143840000D01*
X245797500Y-143240000D02*
X243557500Y-143240000D01*
X245797500Y-143120000D02*
X243557500Y-143120000D01*
X245797500Y-143000000D02*
X243557500Y-143000000D01*
X243557500Y-139600000D02*
X245797500Y-139600000D01*
X245797500Y-139600000D02*
X245797500Y-143840000D01*
X244677500Y-138950000D02*
X244677500Y-139600000D01*
%TO.C,D26*%
X135187500Y-106390000D02*
X135187500Y-105740000D01*
X134067500Y-105740000D02*
X134067500Y-101500000D01*
X136307500Y-105740000D02*
X134067500Y-105740000D01*
X136307500Y-105140000D02*
X134067500Y-105140000D01*
X136307500Y-105020000D02*
X134067500Y-105020000D01*
X136307500Y-104900000D02*
X134067500Y-104900000D01*
X134067500Y-101500000D02*
X136307500Y-101500000D01*
X136307500Y-101500000D02*
X136307500Y-105740000D01*
X135187500Y-100850000D02*
X135187500Y-101500000D01*
%TO.C,D43*%
X263727500Y-68290000D02*
X263727500Y-67640000D01*
X262607500Y-67640000D02*
X262607500Y-63400000D01*
X264847500Y-67640000D02*
X262607500Y-67640000D01*
X264847500Y-67040000D02*
X262607500Y-67040000D01*
X264847500Y-66920000D02*
X262607500Y-66920000D01*
X264847500Y-66800000D02*
X262607500Y-66800000D01*
X262607500Y-63400000D02*
X264847500Y-63400000D01*
X264847500Y-63400000D02*
X264847500Y-67640000D01*
X263727500Y-62750000D02*
X263727500Y-63400000D01*
%TO.C,D8*%
X82862500Y-68290000D02*
X82862500Y-67640000D01*
X81742500Y-67640000D02*
X81742500Y-63400000D01*
X83982500Y-67640000D02*
X81742500Y-67640000D01*
X83982500Y-67040000D02*
X81742500Y-67040000D01*
X83982500Y-66920000D02*
X81742500Y-66920000D01*
X83982500Y-66800000D02*
X81742500Y-66800000D01*
X81742500Y-63400000D02*
X83982500Y-63400000D01*
X83982500Y-63400000D02*
X83982500Y-67640000D01*
X82862500Y-62750000D02*
X82862500Y-63400000D01*
%TO.C,D2*%
X82862500Y-44477500D02*
X82862500Y-43827500D01*
X81742500Y-43827500D02*
X81742500Y-39587500D01*
X83982500Y-43827500D02*
X81742500Y-43827500D01*
X83982500Y-43227500D02*
X81742500Y-43227500D01*
X83982500Y-43107500D02*
X81742500Y-43107500D01*
X83982500Y-42987500D02*
X81742500Y-42987500D01*
X81742500Y-39587500D02*
X83982500Y-39587500D01*
X83982500Y-39587500D02*
X83982500Y-43827500D01*
X82862500Y-38937500D02*
X82862500Y-39587500D01*
%TO.C,D14*%
X54287500Y-87340000D02*
X54287500Y-86690000D01*
X53167500Y-86690000D02*
X53167500Y-82450000D01*
X55407500Y-86690000D02*
X53167500Y-86690000D01*
X55407500Y-86090000D02*
X53167500Y-86090000D01*
X55407500Y-85970000D02*
X53167500Y-85970000D01*
X55407500Y-85850000D02*
X53167500Y-85850000D01*
X53167500Y-82450000D02*
X55407500Y-82450000D01*
X55407500Y-82450000D02*
X55407500Y-86690000D01*
X54287500Y-81800000D02*
X54287500Y-82450000D01*
%TO.C,D18*%
X130472500Y-87340000D02*
X130472500Y-86690000D01*
X129352500Y-86690000D02*
X129352500Y-82450000D01*
X131592500Y-86690000D02*
X129352500Y-86690000D01*
X131592500Y-86090000D02*
X129352500Y-86090000D01*
X131592500Y-85970000D02*
X129352500Y-85970000D01*
X131592500Y-85850000D02*
X129352500Y-85850000D01*
X129352500Y-82450000D02*
X131592500Y-82450000D01*
X131592500Y-82450000D02*
X131592500Y-86690000D01*
X130472500Y-81800000D02*
X130472500Y-82450000D01*
%TO.C,D1*%
X63812500Y-44477500D02*
X63812500Y-43827500D01*
X62692500Y-43827500D02*
X62692500Y-39587500D01*
X64932500Y-43827500D02*
X62692500Y-43827500D01*
X64932500Y-43227500D02*
X62692500Y-43227500D01*
X64932500Y-43107500D02*
X62692500Y-43107500D01*
X64932500Y-42987500D02*
X62692500Y-42987500D01*
X62692500Y-39587500D02*
X64932500Y-39587500D01*
X64932500Y-39587500D02*
X64932500Y-43827500D01*
X63812500Y-38937500D02*
X63812500Y-39587500D01*
%TO.C,D3*%
X101912500Y-44477500D02*
X101912500Y-43827500D01*
X100792500Y-43827500D02*
X100792500Y-39587500D01*
X103032500Y-43827500D02*
X100792500Y-43827500D01*
X103032500Y-43227500D02*
X100792500Y-43227500D01*
X103032500Y-43107500D02*
X100792500Y-43107500D01*
X103032500Y-42987500D02*
X100792500Y-42987500D01*
X100792500Y-39587500D02*
X103032500Y-39587500D01*
X103032500Y-39587500D02*
X103032500Y-43827500D01*
X101912500Y-38937500D02*
X101912500Y-39587500D01*
%TO.C,D25*%
X116137500Y-106390000D02*
X116137500Y-105740000D01*
X115017500Y-105740000D02*
X115017500Y-101500000D01*
X117257500Y-105740000D02*
X115017500Y-105740000D01*
X117257500Y-105140000D02*
X115017500Y-105140000D01*
X117257500Y-105020000D02*
X115017500Y-105020000D01*
X117257500Y-104900000D02*
X115017500Y-104900000D01*
X115017500Y-101500000D02*
X117257500Y-101500000D01*
X117257500Y-101500000D02*
X117257500Y-105740000D01*
X116137500Y-100850000D02*
X116137500Y-101500000D01*
%TO.C,D32*%
X106612500Y-125440000D02*
X106612500Y-124790000D01*
X105492500Y-124790000D02*
X105492500Y-120550000D01*
X107732500Y-124790000D02*
X105492500Y-124790000D01*
X107732500Y-124190000D02*
X105492500Y-124190000D01*
X107732500Y-124070000D02*
X105492500Y-124070000D01*
X107732500Y-123950000D02*
X105492500Y-123950000D01*
X105492500Y-120550000D02*
X107732500Y-120550000D01*
X107732500Y-120550000D02*
X107732500Y-124790000D01*
X106612500Y-119900000D02*
X106612500Y-120550000D01*
%TO.C,D41*%
X225627500Y-68290000D02*
X225627500Y-67640000D01*
X224507500Y-67640000D02*
X224507500Y-63400000D01*
X226747500Y-67640000D02*
X224507500Y-67640000D01*
X226747500Y-67040000D02*
X224507500Y-67040000D01*
X226747500Y-66920000D02*
X224507500Y-66920000D01*
X226747500Y-66800000D02*
X224507500Y-66800000D01*
X224507500Y-63400000D02*
X226747500Y-63400000D01*
X226747500Y-63400000D02*
X226747500Y-67640000D01*
X225627500Y-62750000D02*
X225627500Y-63400000D01*
%TO.C,D24*%
X97087500Y-106390000D02*
X97087500Y-105740000D01*
X95967500Y-105740000D02*
X95967500Y-101500000D01*
X98207500Y-105740000D02*
X95967500Y-105740000D01*
X98207500Y-105140000D02*
X95967500Y-105140000D01*
X98207500Y-105020000D02*
X95967500Y-105020000D01*
X98207500Y-104900000D02*
X95967500Y-104900000D01*
X95967500Y-101500000D02*
X98207500Y-101500000D01*
X98207500Y-101500000D02*
X98207500Y-105740000D01*
X97087500Y-100850000D02*
X97087500Y-101500000D01*
%TO.C,D19*%
X149522500Y-87340000D02*
X149522500Y-86690000D01*
X148402500Y-86690000D02*
X148402500Y-82450000D01*
X150642500Y-86690000D02*
X148402500Y-86690000D01*
X150642500Y-86090000D02*
X148402500Y-86090000D01*
X150642500Y-85970000D02*
X148402500Y-85970000D01*
X150642500Y-85850000D02*
X148402500Y-85850000D01*
X148402500Y-82450000D02*
X150642500Y-82450000D01*
X150642500Y-82450000D02*
X150642500Y-86690000D01*
X149522500Y-81800000D02*
X149522500Y-82450000D01*
%TO.C,D10*%
X120962500Y-68290000D02*
X120962500Y-67640000D01*
X119842500Y-67640000D02*
X119842500Y-63400000D01*
X122082500Y-67640000D02*
X119842500Y-67640000D01*
X122082500Y-67040000D02*
X119842500Y-67040000D01*
X122082500Y-66920000D02*
X119842500Y-66920000D01*
X122082500Y-66800000D02*
X119842500Y-66800000D01*
X119842500Y-63400000D02*
X122082500Y-63400000D01*
X122082500Y-63400000D02*
X122082500Y-67640000D01*
X120962500Y-62750000D02*
X120962500Y-63400000D01*
%TO.C,D39*%
X173287500Y-144490000D02*
X173287500Y-143840000D01*
X172167500Y-143840000D02*
X172167500Y-139600000D01*
X174407500Y-143840000D02*
X172167500Y-143840000D01*
X174407500Y-143240000D02*
X172167500Y-143240000D01*
X174407500Y-143120000D02*
X172167500Y-143120000D01*
X174407500Y-143000000D02*
X172167500Y-143000000D01*
X172167500Y-139600000D02*
X174407500Y-139600000D01*
X174407500Y-139600000D02*
X174407500Y-143840000D01*
X173287500Y-138950000D02*
X173287500Y-139600000D01*
%TO.C,D46*%
X263727500Y-87340000D02*
X263727500Y-86690000D01*
X262607500Y-86690000D02*
X262607500Y-82450000D01*
X264847500Y-86690000D02*
X262607500Y-86690000D01*
X264847500Y-86090000D02*
X262607500Y-86090000D01*
X264847500Y-85970000D02*
X262607500Y-85970000D01*
X264847500Y-85850000D02*
X262607500Y-85850000D01*
X262607500Y-82450000D02*
X264847500Y-82450000D01*
X264847500Y-82450000D02*
X264847500Y-86690000D01*
X263727500Y-81800000D02*
X263727500Y-82450000D01*
%TO.C,D4*%
X120962500Y-44477500D02*
X120962500Y-43827500D01*
X119842500Y-43827500D02*
X119842500Y-39587500D01*
X122082500Y-43827500D02*
X119842500Y-43827500D01*
X122082500Y-43227500D02*
X119842500Y-43227500D01*
X122082500Y-43107500D02*
X119842500Y-43107500D01*
X122082500Y-42987500D02*
X119842500Y-42987500D01*
X119842500Y-39587500D02*
X122082500Y-39587500D01*
X122082500Y-39587500D02*
X122082500Y-43827500D01*
X120962500Y-38937500D02*
X120962500Y-39587500D01*
%TO.C,D21*%
X197052500Y-87340000D02*
X197052500Y-86690000D01*
X195932500Y-86690000D02*
X195932500Y-82450000D01*
X198172500Y-86690000D02*
X195932500Y-86690000D01*
X198172500Y-86090000D02*
X195932500Y-86090000D01*
X198172500Y-85970000D02*
X195932500Y-85970000D01*
X198172500Y-85850000D02*
X195932500Y-85850000D01*
X195932500Y-82450000D02*
X198172500Y-82450000D01*
X198172500Y-82450000D02*
X198172500Y-86690000D01*
X197052500Y-81800000D02*
X197052500Y-82450000D01*
%TO.C,D40*%
X197052500Y-144490000D02*
X197052500Y-143840000D01*
X195932500Y-143840000D02*
X195932500Y-139600000D01*
X198172500Y-143840000D02*
X195932500Y-143840000D01*
X198172500Y-143240000D02*
X195932500Y-143240000D01*
X198172500Y-143120000D02*
X195932500Y-143120000D01*
X198172500Y-143000000D02*
X195932500Y-143000000D01*
X195932500Y-139600000D02*
X198172500Y-139600000D01*
X198172500Y-139600000D02*
X198172500Y-143840000D01*
X197052500Y-138950000D02*
X197052500Y-139600000D01*
%TO.C,D50*%
X253430000Y-142800000D02*
X254080000Y-142800000D01*
X254080000Y-141680000D02*
X258320000Y-141680000D01*
X254080000Y-143920000D02*
X254080000Y-141680000D01*
X254680000Y-143920000D02*
X254680000Y-141680000D01*
X254800000Y-143920000D02*
X254800000Y-141680000D01*
X254920000Y-143920000D02*
X254920000Y-141680000D01*
X258320000Y-141680000D02*
X258320000Y-143920000D01*
X258320000Y-143920000D02*
X254080000Y-143920000D01*
X258970000Y-142800000D02*
X258320000Y-142800000D01*
%TO.C,D38*%
X149427500Y-144490000D02*
X149427500Y-143840000D01*
X148307500Y-143840000D02*
X148307500Y-139600000D01*
X150547500Y-143840000D02*
X148307500Y-143840000D01*
X150547500Y-143240000D02*
X148307500Y-143240000D01*
X150547500Y-143120000D02*
X148307500Y-143120000D01*
X150547500Y-143000000D02*
X148307500Y-143000000D01*
X148307500Y-139600000D02*
X150547500Y-139600000D01*
X150547500Y-139600000D02*
X150547500Y-143840000D01*
X149427500Y-138950000D02*
X149427500Y-139600000D01*
%TO.C,D33*%
X125662500Y-125440000D02*
X125662500Y-124790000D01*
X124542500Y-124790000D02*
X124542500Y-120550000D01*
X126782500Y-124790000D02*
X124542500Y-124790000D01*
X126782500Y-124190000D02*
X124542500Y-124190000D01*
X126782500Y-124070000D02*
X124542500Y-124070000D01*
X126782500Y-123950000D02*
X124542500Y-123950000D01*
X124542500Y-120550000D02*
X126782500Y-120550000D01*
X126782500Y-120550000D02*
X126782500Y-124790000D01*
X125662500Y-119900000D02*
X125662500Y-120550000D01*
%TO.C,D20*%
X168577500Y-87340000D02*
X168577500Y-86690000D01*
X167457500Y-86690000D02*
X167457500Y-82450000D01*
X169697500Y-86690000D02*
X167457500Y-86690000D01*
X169697500Y-86090000D02*
X167457500Y-86090000D01*
X169697500Y-85970000D02*
X167457500Y-85970000D01*
X169697500Y-85850000D02*
X167457500Y-85850000D01*
X167457500Y-82450000D02*
X169697500Y-82450000D01*
X169697500Y-82450000D02*
X169697500Y-86690000D01*
X168577500Y-81800000D02*
X168577500Y-82450000D01*
%TO.C,D47*%
X244677500Y-125440000D02*
X244677500Y-124790000D01*
X243557500Y-124790000D02*
X243557500Y-120550000D01*
X245797500Y-124790000D02*
X243557500Y-124790000D01*
X245797500Y-124190000D02*
X243557500Y-124190000D01*
X245797500Y-124070000D02*
X243557500Y-124070000D01*
X245797500Y-123950000D02*
X243557500Y-123950000D01*
X243557500Y-120550000D02*
X245797500Y-120550000D01*
X245797500Y-120550000D02*
X245797500Y-124790000D01*
X244677500Y-119900000D02*
X244677500Y-120550000D01*
%TO.C,D13*%
X197052500Y-63730000D02*
X197052500Y-63080000D01*
X195932500Y-63080000D02*
X195932500Y-58840000D01*
X198172500Y-63080000D02*
X195932500Y-63080000D01*
X198172500Y-62480000D02*
X195932500Y-62480000D01*
X198172500Y-62360000D02*
X195932500Y-62360000D01*
X198172500Y-62240000D02*
X195932500Y-62240000D01*
X195932500Y-58840000D02*
X198172500Y-58840000D01*
X198172500Y-58840000D02*
X198172500Y-63080000D01*
X197052500Y-58190000D02*
X197052500Y-58840000D01*
%TO.C,D16*%
X92372500Y-87340000D02*
X92372500Y-86690000D01*
X91252500Y-86690000D02*
X91252500Y-82450000D01*
X93492500Y-86690000D02*
X91252500Y-86690000D01*
X93492500Y-86090000D02*
X91252500Y-86090000D01*
X93492500Y-85970000D02*
X91252500Y-85970000D01*
X93492500Y-85850000D02*
X91252500Y-85850000D01*
X91252500Y-82450000D02*
X93492500Y-82450000D01*
X93492500Y-82450000D02*
X93492500Y-86690000D01*
X92372500Y-81800000D02*
X92372500Y-82450000D01*
%TO.C,D30*%
X68512500Y-125440000D02*
X68512500Y-124790000D01*
X67392500Y-124790000D02*
X67392500Y-120550000D01*
X69632500Y-124790000D02*
X67392500Y-124790000D01*
X69632500Y-124190000D02*
X67392500Y-124190000D01*
X69632500Y-124070000D02*
X67392500Y-124070000D01*
X69632500Y-123950000D02*
X67392500Y-123950000D01*
X67392500Y-120550000D02*
X69632500Y-120550000D01*
X69632500Y-120550000D02*
X69632500Y-124790000D01*
X68512500Y-119900000D02*
X68512500Y-120550000D01*
%TO.C,D31*%
X87562500Y-125440000D02*
X87562500Y-124790000D01*
X86442500Y-124790000D02*
X86442500Y-120550000D01*
X88682500Y-124790000D02*
X86442500Y-124790000D01*
X88682500Y-124190000D02*
X86442500Y-124190000D01*
X88682500Y-124070000D02*
X86442500Y-124070000D01*
X88682500Y-123950000D02*
X86442500Y-123950000D01*
X86442500Y-120550000D02*
X88682500Y-120550000D01*
X88682500Y-120550000D02*
X88682500Y-124790000D01*
X87562500Y-119900000D02*
X87562500Y-120550000D01*
%TO.C,D17*%
X111422500Y-87340000D02*
X111422500Y-86690000D01*
X110302500Y-86690000D02*
X110302500Y-82450000D01*
X112542500Y-86690000D02*
X110302500Y-86690000D01*
X112542500Y-86090000D02*
X110302500Y-86090000D01*
X112542500Y-85970000D02*
X110302500Y-85970000D01*
X112542500Y-85850000D02*
X110302500Y-85850000D01*
X110302500Y-82450000D02*
X112542500Y-82450000D01*
X112542500Y-82450000D02*
X112542500Y-86690000D01*
X111422500Y-81800000D02*
X111422500Y-82450000D01*
%TO.C,D35*%
X197052500Y-125440000D02*
X197052500Y-124790000D01*
X195932500Y-124790000D02*
X195932500Y-120550000D01*
X198172500Y-124790000D02*
X195932500Y-124790000D01*
X198172500Y-124190000D02*
X195932500Y-124190000D01*
X198172500Y-124070000D02*
X195932500Y-124070000D01*
X198172500Y-123950000D02*
X195932500Y-123950000D01*
X195932500Y-120550000D02*
X198172500Y-120550000D01*
X198172500Y-120550000D02*
X198172500Y-124790000D01*
X197052500Y-119900000D02*
X197052500Y-120550000D01*
%TO.C,D15*%
X73322500Y-87340000D02*
X73322500Y-86690000D01*
X72202500Y-86690000D02*
X72202500Y-82450000D01*
X74442500Y-86690000D02*
X72202500Y-86690000D01*
X74442500Y-86090000D02*
X72202500Y-86090000D01*
X74442500Y-85970000D02*
X72202500Y-85970000D01*
X74442500Y-85850000D02*
X72202500Y-85850000D01*
X72202500Y-82450000D02*
X74442500Y-82450000D01*
X74442500Y-82450000D02*
X74442500Y-86690000D01*
X73322500Y-81800000D02*
X73322500Y-82450000D01*
%TO.C,D23*%
X78037500Y-106390000D02*
X78037500Y-105740000D01*
X76917500Y-105740000D02*
X76917500Y-101500000D01*
X79157500Y-105740000D02*
X76917500Y-105740000D01*
X79157500Y-105140000D02*
X76917500Y-105140000D01*
X79157500Y-105020000D02*
X76917500Y-105020000D01*
X79157500Y-104900000D02*
X76917500Y-104900000D01*
X76917500Y-101500000D02*
X79157500Y-101500000D01*
X79157500Y-101500000D02*
X79157500Y-105740000D01*
X78037500Y-100850000D02*
X78037500Y-101500000D01*
%TO.C,D44*%
X225627500Y-87340000D02*
X225627500Y-86690000D01*
X224507500Y-86690000D02*
X224507500Y-82450000D01*
X226747500Y-86690000D02*
X224507500Y-86690000D01*
X226747500Y-86090000D02*
X224507500Y-86090000D01*
X226747500Y-85970000D02*
X224507500Y-85970000D01*
X226747500Y-85850000D02*
X224507500Y-85850000D01*
X224507500Y-82450000D02*
X226747500Y-82450000D01*
X226747500Y-82450000D02*
X226747500Y-86690000D01*
X225627500Y-81800000D02*
X225627500Y-82450000D01*
%TO.C,D11*%
X140012500Y-68290000D02*
X140012500Y-67640000D01*
X138892500Y-67640000D02*
X138892500Y-63400000D01*
X141132500Y-67640000D02*
X138892500Y-67640000D01*
X141132500Y-67040000D02*
X138892500Y-67040000D01*
X141132500Y-66920000D02*
X138892500Y-66920000D01*
X141132500Y-66800000D02*
X138892500Y-66800000D01*
X138892500Y-63400000D02*
X141132500Y-63400000D01*
X141132500Y-63400000D02*
X141132500Y-67640000D01*
X140012500Y-62750000D02*
X140012500Y-63400000D01*
%TO.C,D36*%
X68512500Y-144490000D02*
X68512500Y-143840000D01*
X67392500Y-143840000D02*
X67392500Y-139600000D01*
X69632500Y-143840000D02*
X67392500Y-143840000D01*
X69632500Y-143240000D02*
X67392500Y-143240000D01*
X69632500Y-143120000D02*
X67392500Y-143120000D01*
X69632500Y-143000000D02*
X67392500Y-143000000D01*
X67392500Y-139600000D02*
X69632500Y-139600000D01*
X69632500Y-139600000D02*
X69632500Y-143840000D01*
X68512500Y-138950000D02*
X68512500Y-139600000D01*
%TO.C,D6*%
X159062500Y-44477500D02*
X159062500Y-43827500D01*
X157942500Y-43827500D02*
X157942500Y-39587500D01*
X160182500Y-43827500D02*
X157942500Y-43827500D01*
X160182500Y-43227500D02*
X157942500Y-43227500D01*
X160182500Y-43107500D02*
X157942500Y-43107500D01*
X160182500Y-42987500D02*
X157942500Y-42987500D01*
X157942500Y-39587500D02*
X160182500Y-39587500D01*
X160182500Y-39587500D02*
X160182500Y-43827500D01*
X159062500Y-38937500D02*
X159062500Y-39587500D01*
%TO.C,D27*%
X154237500Y-106390000D02*
X154237500Y-105740000D01*
X153117500Y-105740000D02*
X153117500Y-101500000D01*
X155357500Y-105740000D02*
X153117500Y-105740000D01*
X155357500Y-105140000D02*
X153117500Y-105140000D01*
X155357500Y-105020000D02*
X153117500Y-105020000D01*
X155357500Y-104900000D02*
X153117500Y-104900000D01*
X153117500Y-101500000D02*
X155357500Y-101500000D01*
X155357500Y-101500000D02*
X155357500Y-105740000D01*
X154237500Y-100850000D02*
X154237500Y-101500000D01*
%TO.C,D45*%
X244677500Y-87340000D02*
X244677500Y-86690000D01*
X243557500Y-86690000D02*
X243557500Y-82450000D01*
X245797500Y-86690000D02*
X243557500Y-86690000D01*
X245797500Y-86090000D02*
X243557500Y-86090000D01*
X245797500Y-85970000D02*
X243557500Y-85970000D01*
X245797500Y-85850000D02*
X243557500Y-85850000D01*
X243557500Y-82450000D02*
X245797500Y-82450000D01*
X245797500Y-82450000D02*
X245797500Y-86690000D01*
X244677500Y-81800000D02*
X244677500Y-82450000D01*
%TO.C,D12*%
X159062500Y-68290000D02*
X159062500Y-67640000D01*
X157942500Y-67640000D02*
X157942500Y-63400000D01*
X160182500Y-67640000D02*
X157942500Y-67640000D01*
X160182500Y-67040000D02*
X157942500Y-67040000D01*
X160182500Y-66920000D02*
X157942500Y-66920000D01*
X160182500Y-66800000D02*
X157942500Y-66800000D01*
X157942500Y-63400000D02*
X160182500Y-63400000D01*
X160182500Y-63400000D02*
X160182500Y-67640000D01*
X159062500Y-62750000D02*
X159062500Y-63400000D01*
%TO.C,D48*%
X225627500Y-144490000D02*
X225627500Y-143840000D01*
X224507500Y-143840000D02*
X224507500Y-139600000D01*
X226747500Y-143840000D02*
X224507500Y-143840000D01*
X226747500Y-143240000D02*
X224507500Y-143240000D01*
X226747500Y-143120000D02*
X224507500Y-143120000D01*
X226747500Y-143000000D02*
X224507500Y-143000000D01*
X224507500Y-139600000D02*
X226747500Y-139600000D01*
X226747500Y-139600000D02*
X226747500Y-143840000D01*
X225627500Y-138950000D02*
X225627500Y-139600000D01*
%TO.C,D34*%
X144712500Y-125440000D02*
X144712500Y-124790000D01*
X143592500Y-124790000D02*
X143592500Y-120550000D01*
X145832500Y-124790000D02*
X143592500Y-124790000D01*
X145832500Y-124190000D02*
X143592500Y-124190000D01*
X145832500Y-124070000D02*
X143592500Y-124070000D01*
X145832500Y-123950000D02*
X143592500Y-123950000D01*
X143592500Y-120550000D02*
X145832500Y-120550000D01*
X145832500Y-120550000D02*
X145832500Y-124790000D01*
X144712500Y-119900000D02*
X144712500Y-120550000D01*
%TO.C,D5*%
X140012500Y-44477500D02*
X140012500Y-43827500D01*
X138892500Y-43827500D02*
X138892500Y-39587500D01*
X141132500Y-43827500D02*
X138892500Y-43827500D01*
X141132500Y-43227500D02*
X138892500Y-43227500D01*
X141132500Y-43107500D02*
X138892500Y-43107500D01*
X141132500Y-42987500D02*
X138892500Y-42987500D01*
X138892500Y-39587500D02*
X141132500Y-39587500D01*
X141132500Y-39587500D02*
X141132500Y-43827500D01*
X140012500Y-38937500D02*
X140012500Y-39587500D01*
%TO.C,D29*%
X49462500Y-125440000D02*
X49462500Y-124790000D01*
X48342500Y-124790000D02*
X48342500Y-120550000D01*
X50582500Y-124790000D02*
X48342500Y-124790000D01*
X50582500Y-124190000D02*
X48342500Y-124190000D01*
X50582500Y-124070000D02*
X48342500Y-124070000D01*
X50582500Y-123950000D02*
X48342500Y-123950000D01*
X48342500Y-120550000D02*
X50582500Y-120550000D01*
X50582500Y-120550000D02*
X50582500Y-124790000D01*
X49462500Y-119900000D02*
X49462500Y-120550000D01*
%TO.C,D42*%
X244677500Y-68290000D02*
X244677500Y-67640000D01*
X243557500Y-67640000D02*
X243557500Y-63400000D01*
X245797500Y-67640000D02*
X243557500Y-67640000D01*
X245797500Y-67040000D02*
X243557500Y-67040000D01*
X245797500Y-66920000D02*
X243557500Y-66920000D01*
X245797500Y-66800000D02*
X243557500Y-66800000D01*
X243557500Y-63400000D02*
X245797500Y-63400000D01*
X245797500Y-63400000D02*
X245797500Y-67640000D01*
X244677500Y-62750000D02*
X244677500Y-63400000D01*
%TO.C,D28*%
X197052500Y-106390000D02*
X197052500Y-105740000D01*
X195932500Y-105740000D02*
X195932500Y-101500000D01*
X198172500Y-105740000D02*
X195932500Y-105740000D01*
X198172500Y-105140000D02*
X195932500Y-105140000D01*
X198172500Y-105020000D02*
X195932500Y-105020000D01*
X198172500Y-104900000D02*
X195932500Y-104900000D01*
X195932500Y-101500000D02*
X198172500Y-101500000D01*
X198172500Y-101500000D02*
X198172500Y-105740000D01*
X197052500Y-100850000D02*
X197052500Y-101500000D01*
%TO.C,D7*%
X63812500Y-68290000D02*
X63812500Y-67640000D01*
X62692500Y-67640000D02*
X62692500Y-63400000D01*
X64932500Y-67640000D02*
X62692500Y-67640000D01*
X64932500Y-67040000D02*
X62692500Y-67040000D01*
X64932500Y-66920000D02*
X62692500Y-66920000D01*
X64932500Y-66800000D02*
X62692500Y-66800000D01*
X62692500Y-63400000D02*
X64932500Y-63400000D01*
X64932500Y-63400000D02*
X64932500Y-67640000D01*
X63812500Y-62750000D02*
X63812500Y-63400000D01*
%TO.C,D9*%
X101912500Y-68290000D02*
X101912500Y-67640000D01*
X100792500Y-67640000D02*
X100792500Y-63400000D01*
X103032500Y-67640000D02*
X100792500Y-67640000D01*
X103032500Y-67040000D02*
X100792500Y-67040000D01*
X103032500Y-66920000D02*
X100792500Y-66920000D01*
X103032500Y-66800000D02*
X100792500Y-66800000D01*
X100792500Y-63400000D02*
X103032500Y-63400000D01*
X103032500Y-63400000D02*
X103032500Y-67640000D01*
X101912500Y-62750000D02*
X101912500Y-63400000D01*
%TO.C,D22*%
X58987500Y-106390000D02*
X58987500Y-105740000D01*
X57867500Y-105740000D02*
X57867500Y-101500000D01*
X60107500Y-105740000D02*
X57867500Y-105740000D01*
X60107500Y-105140000D02*
X57867500Y-105140000D01*
X60107500Y-105020000D02*
X57867500Y-105020000D01*
X60107500Y-104900000D02*
X57867500Y-104900000D01*
X57867500Y-101500000D02*
X60107500Y-101500000D01*
X60107500Y-101500000D02*
X60107500Y-105740000D01*
X58987500Y-100850000D02*
X58987500Y-101500000D01*
%TD*%
M02*
