%TF.GenerationSoftware,KiCad,Pcbnew,7.0.5*%
%TF.CreationDate,2023-06-22T07:54:55+00:00*%
%TF.ProjectId,Entry-right,456e7472-792d-4726-9967-68742e6b6963,rev?*%
%TF.SameCoordinates,Original*%
%TF.FileFunction,OtherDrawing,Comment*%
%FSLAX46Y46*%
G04 Gerber Fmt 4.6, Leading zero omitted, Abs format (unit mm)*
G04 Created by KiCad (PCBNEW 7.0.5) date 2023-06-22 07:54:55*
%MOMM*%
%LPD*%
G01*
G04 APERTURE LIST*
%ADD10C,0.150000*%
G04 APERTURE END LIST*
D10*
%TO.C,MX17*%
X99425595Y-72527319D02*
X99425595Y-71527319D01*
X99425595Y-71527319D02*
X99758928Y-72241604D01*
X99758928Y-72241604D02*
X100092261Y-71527319D01*
X100092261Y-71527319D02*
X100092261Y-72527319D01*
X100473214Y-71527319D02*
X101139880Y-72527319D01*
X101139880Y-71527319D02*
X100473214Y-72527319D01*
X101520833Y-72146366D02*
X102282738Y-72146366D01*
X102758928Y-72527319D02*
X102758928Y-71527319D01*
X102758928Y-71527319D02*
X103330356Y-72527319D01*
X103330356Y-72527319D02*
X103330356Y-71527319D01*
X103949404Y-72527319D02*
X103854166Y-72479700D01*
X103854166Y-72479700D02*
X103806547Y-72432080D01*
X103806547Y-72432080D02*
X103758928Y-72336842D01*
X103758928Y-72336842D02*
X103758928Y-72051128D01*
X103758928Y-72051128D02*
X103806547Y-71955890D01*
X103806547Y-71955890D02*
X103854166Y-71908271D01*
X103854166Y-71908271D02*
X103949404Y-71860652D01*
X103949404Y-71860652D02*
X104092261Y-71860652D01*
X104092261Y-71860652D02*
X104187499Y-71908271D01*
X104187499Y-71908271D02*
X104235118Y-71955890D01*
X104235118Y-71955890D02*
X104282737Y-72051128D01*
X104282737Y-72051128D02*
X104282737Y-72336842D01*
X104282737Y-72336842D02*
X104235118Y-72432080D01*
X104235118Y-72432080D02*
X104187499Y-72479700D01*
X104187499Y-72479700D02*
X104092261Y-72527319D01*
X104092261Y-72527319D02*
X103949404Y-72527319D01*
X105187499Y-72527319D02*
X104711309Y-72527319D01*
X104711309Y-72527319D02*
X104711309Y-71527319D01*
X105520833Y-72003509D02*
X105854166Y-72003509D01*
X105997023Y-72527319D02*
X105520833Y-72527319D01*
X105520833Y-72527319D02*
X105520833Y-71527319D01*
X105520833Y-71527319D02*
X105997023Y-71527319D01*
X106425595Y-72527319D02*
X106425595Y-71527319D01*
X106425595Y-71527319D02*
X106663690Y-71527319D01*
X106663690Y-71527319D02*
X106806547Y-71574938D01*
X106806547Y-71574938D02*
X106901785Y-71670176D01*
X106901785Y-71670176D02*
X106949404Y-71765414D01*
X106949404Y-71765414D02*
X106997023Y-71955890D01*
X106997023Y-71955890D02*
X106997023Y-72098747D01*
X106997023Y-72098747D02*
X106949404Y-72289223D01*
X106949404Y-72289223D02*
X106901785Y-72384461D01*
X106901785Y-72384461D02*
X106806547Y-72479700D01*
X106806547Y-72479700D02*
X106663690Y-72527319D01*
X106663690Y-72527319D02*
X106425595Y-72527319D01*
%TO.C,MX21*%
X180388095Y-72527319D02*
X180388095Y-71527319D01*
X180388095Y-71527319D02*
X180721428Y-72241604D01*
X180721428Y-72241604D02*
X181054761Y-71527319D01*
X181054761Y-71527319D02*
X181054761Y-72527319D01*
X181435714Y-71527319D02*
X182102380Y-72527319D01*
X182102380Y-71527319D02*
X181435714Y-72527319D01*
X182483333Y-72146366D02*
X183245238Y-72146366D01*
X183721428Y-72527319D02*
X183721428Y-71527319D01*
X183721428Y-71527319D02*
X184292856Y-72527319D01*
X184292856Y-72527319D02*
X184292856Y-71527319D01*
X184911904Y-72527319D02*
X184816666Y-72479700D01*
X184816666Y-72479700D02*
X184769047Y-72432080D01*
X184769047Y-72432080D02*
X184721428Y-72336842D01*
X184721428Y-72336842D02*
X184721428Y-72051128D01*
X184721428Y-72051128D02*
X184769047Y-71955890D01*
X184769047Y-71955890D02*
X184816666Y-71908271D01*
X184816666Y-71908271D02*
X184911904Y-71860652D01*
X184911904Y-71860652D02*
X185054761Y-71860652D01*
X185054761Y-71860652D02*
X185149999Y-71908271D01*
X185149999Y-71908271D02*
X185197618Y-71955890D01*
X185197618Y-71955890D02*
X185245237Y-72051128D01*
X185245237Y-72051128D02*
X185245237Y-72336842D01*
X185245237Y-72336842D02*
X185197618Y-72432080D01*
X185197618Y-72432080D02*
X185149999Y-72479700D01*
X185149999Y-72479700D02*
X185054761Y-72527319D01*
X185054761Y-72527319D02*
X184911904Y-72527319D01*
X186149999Y-72527319D02*
X185673809Y-72527319D01*
X185673809Y-72527319D02*
X185673809Y-71527319D01*
X186483333Y-72003509D02*
X186816666Y-72003509D01*
X186959523Y-72527319D02*
X186483333Y-72527319D01*
X186483333Y-72527319D02*
X186483333Y-71527319D01*
X186483333Y-71527319D02*
X186959523Y-71527319D01*
X187388095Y-72527319D02*
X187388095Y-71527319D01*
X187388095Y-71527319D02*
X187626190Y-71527319D01*
X187626190Y-71527319D02*
X187769047Y-71574938D01*
X187769047Y-71574938D02*
X187864285Y-71670176D01*
X187864285Y-71670176D02*
X187911904Y-71765414D01*
X187911904Y-71765414D02*
X187959523Y-71955890D01*
X187959523Y-71955890D02*
X187959523Y-72098747D01*
X187959523Y-72098747D02*
X187911904Y-72289223D01*
X187911904Y-72289223D02*
X187864285Y-72384461D01*
X187864285Y-72384461D02*
X187769047Y-72479700D01*
X187769047Y-72479700D02*
X187626190Y-72527319D01*
X187626190Y-72527319D02*
X187388095Y-72527319D01*
%TO.C,MX33*%
X113713095Y-110627319D02*
X113713095Y-109627319D01*
X113713095Y-109627319D02*
X114046428Y-110341604D01*
X114046428Y-110341604D02*
X114379761Y-109627319D01*
X114379761Y-109627319D02*
X114379761Y-110627319D01*
X114760714Y-109627319D02*
X115427380Y-110627319D01*
X115427380Y-109627319D02*
X114760714Y-110627319D01*
X115808333Y-110246366D02*
X116570238Y-110246366D01*
X117046428Y-110627319D02*
X117046428Y-109627319D01*
X117046428Y-109627319D02*
X117617856Y-110627319D01*
X117617856Y-110627319D02*
X117617856Y-109627319D01*
X118236904Y-110627319D02*
X118141666Y-110579700D01*
X118141666Y-110579700D02*
X118094047Y-110532080D01*
X118094047Y-110532080D02*
X118046428Y-110436842D01*
X118046428Y-110436842D02*
X118046428Y-110151128D01*
X118046428Y-110151128D02*
X118094047Y-110055890D01*
X118094047Y-110055890D02*
X118141666Y-110008271D01*
X118141666Y-110008271D02*
X118236904Y-109960652D01*
X118236904Y-109960652D02*
X118379761Y-109960652D01*
X118379761Y-109960652D02*
X118474999Y-110008271D01*
X118474999Y-110008271D02*
X118522618Y-110055890D01*
X118522618Y-110055890D02*
X118570237Y-110151128D01*
X118570237Y-110151128D02*
X118570237Y-110436842D01*
X118570237Y-110436842D02*
X118522618Y-110532080D01*
X118522618Y-110532080D02*
X118474999Y-110579700D01*
X118474999Y-110579700D02*
X118379761Y-110627319D01*
X118379761Y-110627319D02*
X118236904Y-110627319D01*
X119474999Y-110627319D02*
X118998809Y-110627319D01*
X118998809Y-110627319D02*
X118998809Y-109627319D01*
X119808333Y-110103509D02*
X120141666Y-110103509D01*
X120284523Y-110627319D02*
X119808333Y-110627319D01*
X119808333Y-110627319D02*
X119808333Y-109627319D01*
X119808333Y-109627319D02*
X120284523Y-109627319D01*
X120713095Y-110627319D02*
X120713095Y-109627319D01*
X120713095Y-109627319D02*
X120951190Y-109627319D01*
X120951190Y-109627319D02*
X121094047Y-109674938D01*
X121094047Y-109674938D02*
X121189285Y-109770176D01*
X121189285Y-109770176D02*
X121236904Y-109865414D01*
X121236904Y-109865414D02*
X121284523Y-110055890D01*
X121284523Y-110055890D02*
X121284523Y-110198747D01*
X121284523Y-110198747D02*
X121236904Y-110389223D01*
X121236904Y-110389223D02*
X121189285Y-110484461D01*
X121189285Y-110484461D02*
X121094047Y-110579700D01*
X121094047Y-110579700D02*
X120951190Y-110627319D01*
X120951190Y-110627319D02*
X120713095Y-110627319D01*
%TO.C,MX8*%
X70850595Y-53477319D02*
X70850595Y-52477319D01*
X70850595Y-52477319D02*
X71183928Y-53191604D01*
X71183928Y-53191604D02*
X71517261Y-52477319D01*
X71517261Y-52477319D02*
X71517261Y-53477319D01*
X71898214Y-52477319D02*
X72564880Y-53477319D01*
X72564880Y-52477319D02*
X71898214Y-53477319D01*
X72945833Y-53096366D02*
X73707738Y-53096366D01*
X74183928Y-53477319D02*
X74183928Y-52477319D01*
X74183928Y-52477319D02*
X74755356Y-53477319D01*
X74755356Y-53477319D02*
X74755356Y-52477319D01*
X75374404Y-53477319D02*
X75279166Y-53429700D01*
X75279166Y-53429700D02*
X75231547Y-53382080D01*
X75231547Y-53382080D02*
X75183928Y-53286842D01*
X75183928Y-53286842D02*
X75183928Y-53001128D01*
X75183928Y-53001128D02*
X75231547Y-52905890D01*
X75231547Y-52905890D02*
X75279166Y-52858271D01*
X75279166Y-52858271D02*
X75374404Y-52810652D01*
X75374404Y-52810652D02*
X75517261Y-52810652D01*
X75517261Y-52810652D02*
X75612499Y-52858271D01*
X75612499Y-52858271D02*
X75660118Y-52905890D01*
X75660118Y-52905890D02*
X75707737Y-53001128D01*
X75707737Y-53001128D02*
X75707737Y-53286842D01*
X75707737Y-53286842D02*
X75660118Y-53382080D01*
X75660118Y-53382080D02*
X75612499Y-53429700D01*
X75612499Y-53429700D02*
X75517261Y-53477319D01*
X75517261Y-53477319D02*
X75374404Y-53477319D01*
X76612499Y-53477319D02*
X76136309Y-53477319D01*
X76136309Y-53477319D02*
X76136309Y-52477319D01*
X76945833Y-52953509D02*
X77279166Y-52953509D01*
X77422023Y-53477319D02*
X76945833Y-53477319D01*
X76945833Y-53477319D02*
X76945833Y-52477319D01*
X76945833Y-52477319D02*
X77422023Y-52477319D01*
X77850595Y-53477319D02*
X77850595Y-52477319D01*
X77850595Y-52477319D02*
X78088690Y-52477319D01*
X78088690Y-52477319D02*
X78231547Y-52524938D01*
X78231547Y-52524938D02*
X78326785Y-52620176D01*
X78326785Y-52620176D02*
X78374404Y-52715414D01*
X78374404Y-52715414D02*
X78422023Y-52905890D01*
X78422023Y-52905890D02*
X78422023Y-53048747D01*
X78422023Y-53048747D02*
X78374404Y-53239223D01*
X78374404Y-53239223D02*
X78326785Y-53334461D01*
X78326785Y-53334461D02*
X78231547Y-53429700D01*
X78231547Y-53429700D02*
X78088690Y-53477319D01*
X78088690Y-53477319D02*
X77850595Y-53477319D01*
%TO.C,MX36*%
X47038095Y-129677319D02*
X47038095Y-128677319D01*
X47038095Y-128677319D02*
X47371428Y-129391604D01*
X47371428Y-129391604D02*
X47704761Y-128677319D01*
X47704761Y-128677319D02*
X47704761Y-129677319D01*
X48085714Y-128677319D02*
X48752380Y-129677319D01*
X48752380Y-128677319D02*
X48085714Y-129677319D01*
X49133333Y-129296366D02*
X49895238Y-129296366D01*
X50371428Y-129677319D02*
X50371428Y-128677319D01*
X50371428Y-128677319D02*
X50942856Y-129677319D01*
X50942856Y-129677319D02*
X50942856Y-128677319D01*
X51561904Y-129677319D02*
X51466666Y-129629700D01*
X51466666Y-129629700D02*
X51419047Y-129582080D01*
X51419047Y-129582080D02*
X51371428Y-129486842D01*
X51371428Y-129486842D02*
X51371428Y-129201128D01*
X51371428Y-129201128D02*
X51419047Y-129105890D01*
X51419047Y-129105890D02*
X51466666Y-129058271D01*
X51466666Y-129058271D02*
X51561904Y-129010652D01*
X51561904Y-129010652D02*
X51704761Y-129010652D01*
X51704761Y-129010652D02*
X51799999Y-129058271D01*
X51799999Y-129058271D02*
X51847618Y-129105890D01*
X51847618Y-129105890D02*
X51895237Y-129201128D01*
X51895237Y-129201128D02*
X51895237Y-129486842D01*
X51895237Y-129486842D02*
X51847618Y-129582080D01*
X51847618Y-129582080D02*
X51799999Y-129629700D01*
X51799999Y-129629700D02*
X51704761Y-129677319D01*
X51704761Y-129677319D02*
X51561904Y-129677319D01*
X52799999Y-129677319D02*
X52323809Y-129677319D01*
X52323809Y-129677319D02*
X52323809Y-128677319D01*
X53133333Y-129153509D02*
X53466666Y-129153509D01*
X53609523Y-129677319D02*
X53133333Y-129677319D01*
X53133333Y-129677319D02*
X53133333Y-128677319D01*
X53133333Y-128677319D02*
X53609523Y-128677319D01*
X54038095Y-129677319D02*
X54038095Y-128677319D01*
X54038095Y-128677319D02*
X54276190Y-128677319D01*
X54276190Y-128677319D02*
X54419047Y-128724938D01*
X54419047Y-128724938D02*
X54514285Y-128820176D01*
X54514285Y-128820176D02*
X54561904Y-128915414D01*
X54561904Y-128915414D02*
X54609523Y-129105890D01*
X54609523Y-129105890D02*
X54609523Y-129248747D01*
X54609523Y-129248747D02*
X54561904Y-129439223D01*
X54561904Y-129439223D02*
X54514285Y-129534461D01*
X54514285Y-129534461D02*
X54419047Y-129629700D01*
X54419047Y-129629700D02*
X54276190Y-129677319D01*
X54276190Y-129677319D02*
X54038095Y-129677319D01*
%TO.C,MX42*%
X232775595Y-53477319D02*
X232775595Y-52477319D01*
X232775595Y-52477319D02*
X233108928Y-53191604D01*
X233108928Y-53191604D02*
X233442261Y-52477319D01*
X233442261Y-52477319D02*
X233442261Y-53477319D01*
X233823214Y-52477319D02*
X234489880Y-53477319D01*
X234489880Y-52477319D02*
X233823214Y-53477319D01*
X234870833Y-53096366D02*
X235632738Y-53096366D01*
X236108928Y-53477319D02*
X236108928Y-52477319D01*
X236108928Y-52477319D02*
X236680356Y-53477319D01*
X236680356Y-53477319D02*
X236680356Y-52477319D01*
X237299404Y-53477319D02*
X237204166Y-53429700D01*
X237204166Y-53429700D02*
X237156547Y-53382080D01*
X237156547Y-53382080D02*
X237108928Y-53286842D01*
X237108928Y-53286842D02*
X237108928Y-53001128D01*
X237108928Y-53001128D02*
X237156547Y-52905890D01*
X237156547Y-52905890D02*
X237204166Y-52858271D01*
X237204166Y-52858271D02*
X237299404Y-52810652D01*
X237299404Y-52810652D02*
X237442261Y-52810652D01*
X237442261Y-52810652D02*
X237537499Y-52858271D01*
X237537499Y-52858271D02*
X237585118Y-52905890D01*
X237585118Y-52905890D02*
X237632737Y-53001128D01*
X237632737Y-53001128D02*
X237632737Y-53286842D01*
X237632737Y-53286842D02*
X237585118Y-53382080D01*
X237585118Y-53382080D02*
X237537499Y-53429700D01*
X237537499Y-53429700D02*
X237442261Y-53477319D01*
X237442261Y-53477319D02*
X237299404Y-53477319D01*
X238537499Y-53477319D02*
X238061309Y-53477319D01*
X238061309Y-53477319D02*
X238061309Y-52477319D01*
X238870833Y-52953509D02*
X239204166Y-52953509D01*
X239347023Y-53477319D02*
X238870833Y-53477319D01*
X238870833Y-53477319D02*
X238870833Y-52477319D01*
X238870833Y-52477319D02*
X239347023Y-52477319D01*
X239775595Y-53477319D02*
X239775595Y-52477319D01*
X239775595Y-52477319D02*
X240013690Y-52477319D01*
X240013690Y-52477319D02*
X240156547Y-52524938D01*
X240156547Y-52524938D02*
X240251785Y-52620176D01*
X240251785Y-52620176D02*
X240299404Y-52715414D01*
X240299404Y-52715414D02*
X240347023Y-52905890D01*
X240347023Y-52905890D02*
X240347023Y-53048747D01*
X240347023Y-53048747D02*
X240299404Y-53239223D01*
X240299404Y-53239223D02*
X240251785Y-53334461D01*
X240251785Y-53334461D02*
X240156547Y-53429700D01*
X240156547Y-53429700D02*
X240013690Y-53477319D01*
X240013690Y-53477319D02*
X239775595Y-53477319D01*
%TO.C,MX46*%
X251825595Y-72527319D02*
X251825595Y-71527319D01*
X251825595Y-71527319D02*
X252158928Y-72241604D01*
X252158928Y-72241604D02*
X252492261Y-71527319D01*
X252492261Y-71527319D02*
X252492261Y-72527319D01*
X252873214Y-71527319D02*
X253539880Y-72527319D01*
X253539880Y-71527319D02*
X252873214Y-72527319D01*
X253920833Y-72146366D02*
X254682738Y-72146366D01*
X255158928Y-72527319D02*
X255158928Y-71527319D01*
X255158928Y-71527319D02*
X255730356Y-72527319D01*
X255730356Y-72527319D02*
X255730356Y-71527319D01*
X256349404Y-72527319D02*
X256254166Y-72479700D01*
X256254166Y-72479700D02*
X256206547Y-72432080D01*
X256206547Y-72432080D02*
X256158928Y-72336842D01*
X256158928Y-72336842D02*
X256158928Y-72051128D01*
X256158928Y-72051128D02*
X256206547Y-71955890D01*
X256206547Y-71955890D02*
X256254166Y-71908271D01*
X256254166Y-71908271D02*
X256349404Y-71860652D01*
X256349404Y-71860652D02*
X256492261Y-71860652D01*
X256492261Y-71860652D02*
X256587499Y-71908271D01*
X256587499Y-71908271D02*
X256635118Y-71955890D01*
X256635118Y-71955890D02*
X256682737Y-72051128D01*
X256682737Y-72051128D02*
X256682737Y-72336842D01*
X256682737Y-72336842D02*
X256635118Y-72432080D01*
X256635118Y-72432080D02*
X256587499Y-72479700D01*
X256587499Y-72479700D02*
X256492261Y-72527319D01*
X256492261Y-72527319D02*
X256349404Y-72527319D01*
X257587499Y-72527319D02*
X257111309Y-72527319D01*
X257111309Y-72527319D02*
X257111309Y-71527319D01*
X257920833Y-72003509D02*
X258254166Y-72003509D01*
X258397023Y-72527319D02*
X257920833Y-72527319D01*
X257920833Y-72527319D02*
X257920833Y-71527319D01*
X257920833Y-71527319D02*
X258397023Y-71527319D01*
X258825595Y-72527319D02*
X258825595Y-71527319D01*
X258825595Y-71527319D02*
X259063690Y-71527319D01*
X259063690Y-71527319D02*
X259206547Y-71574938D01*
X259206547Y-71574938D02*
X259301785Y-71670176D01*
X259301785Y-71670176D02*
X259349404Y-71765414D01*
X259349404Y-71765414D02*
X259397023Y-71955890D01*
X259397023Y-71955890D02*
X259397023Y-72098747D01*
X259397023Y-72098747D02*
X259349404Y-72289223D01*
X259349404Y-72289223D02*
X259301785Y-72384461D01*
X259301785Y-72384461D02*
X259206547Y-72479700D01*
X259206547Y-72479700D02*
X259063690Y-72527319D01*
X259063690Y-72527319D02*
X258825595Y-72527319D01*
%TO.C,MX32*%
X94663095Y-110627319D02*
X94663095Y-109627319D01*
X94663095Y-109627319D02*
X94996428Y-110341604D01*
X94996428Y-110341604D02*
X95329761Y-109627319D01*
X95329761Y-109627319D02*
X95329761Y-110627319D01*
X95710714Y-109627319D02*
X96377380Y-110627319D01*
X96377380Y-109627319D02*
X95710714Y-110627319D01*
X96758333Y-110246366D02*
X97520238Y-110246366D01*
X97996428Y-110627319D02*
X97996428Y-109627319D01*
X97996428Y-109627319D02*
X98567856Y-110627319D01*
X98567856Y-110627319D02*
X98567856Y-109627319D01*
X99186904Y-110627319D02*
X99091666Y-110579700D01*
X99091666Y-110579700D02*
X99044047Y-110532080D01*
X99044047Y-110532080D02*
X98996428Y-110436842D01*
X98996428Y-110436842D02*
X98996428Y-110151128D01*
X98996428Y-110151128D02*
X99044047Y-110055890D01*
X99044047Y-110055890D02*
X99091666Y-110008271D01*
X99091666Y-110008271D02*
X99186904Y-109960652D01*
X99186904Y-109960652D02*
X99329761Y-109960652D01*
X99329761Y-109960652D02*
X99424999Y-110008271D01*
X99424999Y-110008271D02*
X99472618Y-110055890D01*
X99472618Y-110055890D02*
X99520237Y-110151128D01*
X99520237Y-110151128D02*
X99520237Y-110436842D01*
X99520237Y-110436842D02*
X99472618Y-110532080D01*
X99472618Y-110532080D02*
X99424999Y-110579700D01*
X99424999Y-110579700D02*
X99329761Y-110627319D01*
X99329761Y-110627319D02*
X99186904Y-110627319D01*
X100424999Y-110627319D02*
X99948809Y-110627319D01*
X99948809Y-110627319D02*
X99948809Y-109627319D01*
X100758333Y-110103509D02*
X101091666Y-110103509D01*
X101234523Y-110627319D02*
X100758333Y-110627319D01*
X100758333Y-110627319D02*
X100758333Y-109627319D01*
X100758333Y-109627319D02*
X101234523Y-109627319D01*
X101663095Y-110627319D02*
X101663095Y-109627319D01*
X101663095Y-109627319D02*
X101901190Y-109627319D01*
X101901190Y-109627319D02*
X102044047Y-109674938D01*
X102044047Y-109674938D02*
X102139285Y-109770176D01*
X102139285Y-109770176D02*
X102186904Y-109865414D01*
X102186904Y-109865414D02*
X102234523Y-110055890D01*
X102234523Y-110055890D02*
X102234523Y-110198747D01*
X102234523Y-110198747D02*
X102186904Y-110389223D01*
X102186904Y-110389223D02*
X102139285Y-110484461D01*
X102139285Y-110484461D02*
X102044047Y-110579700D01*
X102044047Y-110579700D02*
X101901190Y-110627319D01*
X101901190Y-110627319D02*
X101663095Y-110627319D01*
%TO.C,MX23*%
X66088095Y-91577319D02*
X66088095Y-90577319D01*
X66088095Y-90577319D02*
X66421428Y-91291604D01*
X66421428Y-91291604D02*
X66754761Y-90577319D01*
X66754761Y-90577319D02*
X66754761Y-91577319D01*
X67135714Y-90577319D02*
X67802380Y-91577319D01*
X67802380Y-90577319D02*
X67135714Y-91577319D01*
X68183333Y-91196366D02*
X68945238Y-91196366D01*
X69421428Y-91577319D02*
X69421428Y-90577319D01*
X69421428Y-90577319D02*
X69992856Y-91577319D01*
X69992856Y-91577319D02*
X69992856Y-90577319D01*
X70611904Y-91577319D02*
X70516666Y-91529700D01*
X70516666Y-91529700D02*
X70469047Y-91482080D01*
X70469047Y-91482080D02*
X70421428Y-91386842D01*
X70421428Y-91386842D02*
X70421428Y-91101128D01*
X70421428Y-91101128D02*
X70469047Y-91005890D01*
X70469047Y-91005890D02*
X70516666Y-90958271D01*
X70516666Y-90958271D02*
X70611904Y-90910652D01*
X70611904Y-90910652D02*
X70754761Y-90910652D01*
X70754761Y-90910652D02*
X70849999Y-90958271D01*
X70849999Y-90958271D02*
X70897618Y-91005890D01*
X70897618Y-91005890D02*
X70945237Y-91101128D01*
X70945237Y-91101128D02*
X70945237Y-91386842D01*
X70945237Y-91386842D02*
X70897618Y-91482080D01*
X70897618Y-91482080D02*
X70849999Y-91529700D01*
X70849999Y-91529700D02*
X70754761Y-91577319D01*
X70754761Y-91577319D02*
X70611904Y-91577319D01*
X71849999Y-91577319D02*
X71373809Y-91577319D01*
X71373809Y-91577319D02*
X71373809Y-90577319D01*
X72183333Y-91053509D02*
X72516666Y-91053509D01*
X72659523Y-91577319D02*
X72183333Y-91577319D01*
X72183333Y-91577319D02*
X72183333Y-90577319D01*
X72183333Y-90577319D02*
X72659523Y-90577319D01*
X73088095Y-91577319D02*
X73088095Y-90577319D01*
X73088095Y-90577319D02*
X73326190Y-90577319D01*
X73326190Y-90577319D02*
X73469047Y-90624938D01*
X73469047Y-90624938D02*
X73564285Y-90720176D01*
X73564285Y-90720176D02*
X73611904Y-90815414D01*
X73611904Y-90815414D02*
X73659523Y-91005890D01*
X73659523Y-91005890D02*
X73659523Y-91148747D01*
X73659523Y-91148747D02*
X73611904Y-91339223D01*
X73611904Y-91339223D02*
X73564285Y-91434461D01*
X73564285Y-91434461D02*
X73469047Y-91529700D01*
X73469047Y-91529700D02*
X73326190Y-91577319D01*
X73326190Y-91577319D02*
X73088095Y-91577319D01*
%TO.C,MX37*%
X75613095Y-129677319D02*
X75613095Y-128677319D01*
X75613095Y-128677319D02*
X75946428Y-129391604D01*
X75946428Y-129391604D02*
X76279761Y-128677319D01*
X76279761Y-128677319D02*
X76279761Y-129677319D01*
X76660714Y-128677319D02*
X77327380Y-129677319D01*
X77327380Y-128677319D02*
X76660714Y-129677319D01*
X77708333Y-129296366D02*
X78470238Y-129296366D01*
X78946428Y-129677319D02*
X78946428Y-128677319D01*
X78946428Y-128677319D02*
X79517856Y-129677319D01*
X79517856Y-129677319D02*
X79517856Y-128677319D01*
X80136904Y-129677319D02*
X80041666Y-129629700D01*
X80041666Y-129629700D02*
X79994047Y-129582080D01*
X79994047Y-129582080D02*
X79946428Y-129486842D01*
X79946428Y-129486842D02*
X79946428Y-129201128D01*
X79946428Y-129201128D02*
X79994047Y-129105890D01*
X79994047Y-129105890D02*
X80041666Y-129058271D01*
X80041666Y-129058271D02*
X80136904Y-129010652D01*
X80136904Y-129010652D02*
X80279761Y-129010652D01*
X80279761Y-129010652D02*
X80374999Y-129058271D01*
X80374999Y-129058271D02*
X80422618Y-129105890D01*
X80422618Y-129105890D02*
X80470237Y-129201128D01*
X80470237Y-129201128D02*
X80470237Y-129486842D01*
X80470237Y-129486842D02*
X80422618Y-129582080D01*
X80422618Y-129582080D02*
X80374999Y-129629700D01*
X80374999Y-129629700D02*
X80279761Y-129677319D01*
X80279761Y-129677319D02*
X80136904Y-129677319D01*
X81374999Y-129677319D02*
X80898809Y-129677319D01*
X80898809Y-129677319D02*
X80898809Y-128677319D01*
X81708333Y-129153509D02*
X82041666Y-129153509D01*
X82184523Y-129677319D02*
X81708333Y-129677319D01*
X81708333Y-129677319D02*
X81708333Y-128677319D01*
X81708333Y-128677319D02*
X82184523Y-128677319D01*
X82613095Y-129677319D02*
X82613095Y-128677319D01*
X82613095Y-128677319D02*
X82851190Y-128677319D01*
X82851190Y-128677319D02*
X82994047Y-128724938D01*
X82994047Y-128724938D02*
X83089285Y-128820176D01*
X83089285Y-128820176D02*
X83136904Y-128915414D01*
X83136904Y-128915414D02*
X83184523Y-129105890D01*
X83184523Y-129105890D02*
X83184523Y-129248747D01*
X83184523Y-129248747D02*
X83136904Y-129439223D01*
X83136904Y-129439223D02*
X83089285Y-129534461D01*
X83089285Y-129534461D02*
X82994047Y-129629700D01*
X82994047Y-129629700D02*
X82851190Y-129677319D01*
X82851190Y-129677319D02*
X82613095Y-129677319D01*
%TO.C,MX45*%
X232775595Y-72527319D02*
X232775595Y-71527319D01*
X232775595Y-71527319D02*
X233108928Y-72241604D01*
X233108928Y-72241604D02*
X233442261Y-71527319D01*
X233442261Y-71527319D02*
X233442261Y-72527319D01*
X233823214Y-71527319D02*
X234489880Y-72527319D01*
X234489880Y-71527319D02*
X233823214Y-72527319D01*
X234870833Y-72146366D02*
X235632738Y-72146366D01*
X236108928Y-72527319D02*
X236108928Y-71527319D01*
X236108928Y-71527319D02*
X236680356Y-72527319D01*
X236680356Y-72527319D02*
X236680356Y-71527319D01*
X237299404Y-72527319D02*
X237204166Y-72479700D01*
X237204166Y-72479700D02*
X237156547Y-72432080D01*
X237156547Y-72432080D02*
X237108928Y-72336842D01*
X237108928Y-72336842D02*
X237108928Y-72051128D01*
X237108928Y-72051128D02*
X237156547Y-71955890D01*
X237156547Y-71955890D02*
X237204166Y-71908271D01*
X237204166Y-71908271D02*
X237299404Y-71860652D01*
X237299404Y-71860652D02*
X237442261Y-71860652D01*
X237442261Y-71860652D02*
X237537499Y-71908271D01*
X237537499Y-71908271D02*
X237585118Y-71955890D01*
X237585118Y-71955890D02*
X237632737Y-72051128D01*
X237632737Y-72051128D02*
X237632737Y-72336842D01*
X237632737Y-72336842D02*
X237585118Y-72432080D01*
X237585118Y-72432080D02*
X237537499Y-72479700D01*
X237537499Y-72479700D02*
X237442261Y-72527319D01*
X237442261Y-72527319D02*
X237299404Y-72527319D01*
X238537499Y-72527319D02*
X238061309Y-72527319D01*
X238061309Y-72527319D02*
X238061309Y-71527319D01*
X238870833Y-72003509D02*
X239204166Y-72003509D01*
X239347023Y-72527319D02*
X238870833Y-72527319D01*
X238870833Y-72527319D02*
X238870833Y-71527319D01*
X238870833Y-71527319D02*
X239347023Y-71527319D01*
X239775595Y-72527319D02*
X239775595Y-71527319D01*
X239775595Y-71527319D02*
X240013690Y-71527319D01*
X240013690Y-71527319D02*
X240156547Y-71574938D01*
X240156547Y-71574938D02*
X240251785Y-71670176D01*
X240251785Y-71670176D02*
X240299404Y-71765414D01*
X240299404Y-71765414D02*
X240347023Y-71955890D01*
X240347023Y-71955890D02*
X240347023Y-72098747D01*
X240347023Y-72098747D02*
X240299404Y-72289223D01*
X240299404Y-72289223D02*
X240251785Y-72384461D01*
X240251785Y-72384461D02*
X240156547Y-72479700D01*
X240156547Y-72479700D02*
X240013690Y-72527319D01*
X240013690Y-72527319D02*
X239775595Y-72527319D01*
%TO.C,MX27*%
X142288095Y-91577319D02*
X142288095Y-90577319D01*
X142288095Y-90577319D02*
X142621428Y-91291604D01*
X142621428Y-91291604D02*
X142954761Y-90577319D01*
X142954761Y-90577319D02*
X142954761Y-91577319D01*
X143335714Y-90577319D02*
X144002380Y-91577319D01*
X144002380Y-90577319D02*
X143335714Y-91577319D01*
X144383333Y-91196366D02*
X145145238Y-91196366D01*
X145621428Y-91577319D02*
X145621428Y-90577319D01*
X145621428Y-90577319D02*
X146192856Y-91577319D01*
X146192856Y-91577319D02*
X146192856Y-90577319D01*
X146811904Y-91577319D02*
X146716666Y-91529700D01*
X146716666Y-91529700D02*
X146669047Y-91482080D01*
X146669047Y-91482080D02*
X146621428Y-91386842D01*
X146621428Y-91386842D02*
X146621428Y-91101128D01*
X146621428Y-91101128D02*
X146669047Y-91005890D01*
X146669047Y-91005890D02*
X146716666Y-90958271D01*
X146716666Y-90958271D02*
X146811904Y-90910652D01*
X146811904Y-90910652D02*
X146954761Y-90910652D01*
X146954761Y-90910652D02*
X147049999Y-90958271D01*
X147049999Y-90958271D02*
X147097618Y-91005890D01*
X147097618Y-91005890D02*
X147145237Y-91101128D01*
X147145237Y-91101128D02*
X147145237Y-91386842D01*
X147145237Y-91386842D02*
X147097618Y-91482080D01*
X147097618Y-91482080D02*
X147049999Y-91529700D01*
X147049999Y-91529700D02*
X146954761Y-91577319D01*
X146954761Y-91577319D02*
X146811904Y-91577319D01*
X148049999Y-91577319D02*
X147573809Y-91577319D01*
X147573809Y-91577319D02*
X147573809Y-90577319D01*
X148383333Y-91053509D02*
X148716666Y-91053509D01*
X148859523Y-91577319D02*
X148383333Y-91577319D01*
X148383333Y-91577319D02*
X148383333Y-90577319D01*
X148383333Y-90577319D02*
X148859523Y-90577319D01*
X149288095Y-91577319D02*
X149288095Y-90577319D01*
X149288095Y-90577319D02*
X149526190Y-90577319D01*
X149526190Y-90577319D02*
X149669047Y-90624938D01*
X149669047Y-90624938D02*
X149764285Y-90720176D01*
X149764285Y-90720176D02*
X149811904Y-90815414D01*
X149811904Y-90815414D02*
X149859523Y-91005890D01*
X149859523Y-91005890D02*
X149859523Y-91148747D01*
X149859523Y-91148747D02*
X149811904Y-91339223D01*
X149811904Y-91339223D02*
X149764285Y-91434461D01*
X149764285Y-91434461D02*
X149669047Y-91529700D01*
X149669047Y-91529700D02*
X149526190Y-91577319D01*
X149526190Y-91577319D02*
X149288095Y-91577319D01*
%TO.C,MX4*%
X108950595Y-29664819D02*
X108950595Y-28664819D01*
X108950595Y-28664819D02*
X109283928Y-29379104D01*
X109283928Y-29379104D02*
X109617261Y-28664819D01*
X109617261Y-28664819D02*
X109617261Y-29664819D01*
X109998214Y-28664819D02*
X110664880Y-29664819D01*
X110664880Y-28664819D02*
X109998214Y-29664819D01*
X111045833Y-29283866D02*
X111807738Y-29283866D01*
X112283928Y-29664819D02*
X112283928Y-28664819D01*
X112283928Y-28664819D02*
X112855356Y-29664819D01*
X112855356Y-29664819D02*
X112855356Y-28664819D01*
X113474404Y-29664819D02*
X113379166Y-29617200D01*
X113379166Y-29617200D02*
X113331547Y-29569580D01*
X113331547Y-29569580D02*
X113283928Y-29474342D01*
X113283928Y-29474342D02*
X113283928Y-29188628D01*
X113283928Y-29188628D02*
X113331547Y-29093390D01*
X113331547Y-29093390D02*
X113379166Y-29045771D01*
X113379166Y-29045771D02*
X113474404Y-28998152D01*
X113474404Y-28998152D02*
X113617261Y-28998152D01*
X113617261Y-28998152D02*
X113712499Y-29045771D01*
X113712499Y-29045771D02*
X113760118Y-29093390D01*
X113760118Y-29093390D02*
X113807737Y-29188628D01*
X113807737Y-29188628D02*
X113807737Y-29474342D01*
X113807737Y-29474342D02*
X113760118Y-29569580D01*
X113760118Y-29569580D02*
X113712499Y-29617200D01*
X113712499Y-29617200D02*
X113617261Y-29664819D01*
X113617261Y-29664819D02*
X113474404Y-29664819D01*
X114712499Y-29664819D02*
X114236309Y-29664819D01*
X114236309Y-29664819D02*
X114236309Y-28664819D01*
X115045833Y-29141009D02*
X115379166Y-29141009D01*
X115522023Y-29664819D02*
X115045833Y-29664819D01*
X115045833Y-29664819D02*
X115045833Y-28664819D01*
X115045833Y-28664819D02*
X115522023Y-28664819D01*
X115950595Y-29664819D02*
X115950595Y-28664819D01*
X115950595Y-28664819D02*
X116188690Y-28664819D01*
X116188690Y-28664819D02*
X116331547Y-28712438D01*
X116331547Y-28712438D02*
X116426785Y-28807676D01*
X116426785Y-28807676D02*
X116474404Y-28902914D01*
X116474404Y-28902914D02*
X116522023Y-29093390D01*
X116522023Y-29093390D02*
X116522023Y-29236247D01*
X116522023Y-29236247D02*
X116474404Y-29426723D01*
X116474404Y-29426723D02*
X116426785Y-29521961D01*
X116426785Y-29521961D02*
X116331547Y-29617200D01*
X116331547Y-29617200D02*
X116188690Y-29664819D01*
X116188690Y-29664819D02*
X115950595Y-29664819D01*
%TO.C,MX13*%
X175625595Y-53477319D02*
X175625595Y-52477319D01*
X175625595Y-52477319D02*
X175958928Y-53191604D01*
X175958928Y-53191604D02*
X176292261Y-52477319D01*
X176292261Y-52477319D02*
X176292261Y-53477319D01*
X176673214Y-52477319D02*
X177339880Y-53477319D01*
X177339880Y-52477319D02*
X176673214Y-53477319D01*
X177720833Y-53096366D02*
X178482738Y-53096366D01*
X178958928Y-53477319D02*
X178958928Y-52477319D01*
X178958928Y-52477319D02*
X179530356Y-53477319D01*
X179530356Y-53477319D02*
X179530356Y-52477319D01*
X180149404Y-53477319D02*
X180054166Y-53429700D01*
X180054166Y-53429700D02*
X180006547Y-53382080D01*
X180006547Y-53382080D02*
X179958928Y-53286842D01*
X179958928Y-53286842D02*
X179958928Y-53001128D01*
X179958928Y-53001128D02*
X180006547Y-52905890D01*
X180006547Y-52905890D02*
X180054166Y-52858271D01*
X180054166Y-52858271D02*
X180149404Y-52810652D01*
X180149404Y-52810652D02*
X180292261Y-52810652D01*
X180292261Y-52810652D02*
X180387499Y-52858271D01*
X180387499Y-52858271D02*
X180435118Y-52905890D01*
X180435118Y-52905890D02*
X180482737Y-53001128D01*
X180482737Y-53001128D02*
X180482737Y-53286842D01*
X180482737Y-53286842D02*
X180435118Y-53382080D01*
X180435118Y-53382080D02*
X180387499Y-53429700D01*
X180387499Y-53429700D02*
X180292261Y-53477319D01*
X180292261Y-53477319D02*
X180149404Y-53477319D01*
X181387499Y-53477319D02*
X180911309Y-53477319D01*
X180911309Y-53477319D02*
X180911309Y-52477319D01*
X181720833Y-52953509D02*
X182054166Y-52953509D01*
X182197023Y-53477319D02*
X181720833Y-53477319D01*
X181720833Y-53477319D02*
X181720833Y-52477319D01*
X181720833Y-52477319D02*
X182197023Y-52477319D01*
X182625595Y-53477319D02*
X182625595Y-52477319D01*
X182625595Y-52477319D02*
X182863690Y-52477319D01*
X182863690Y-52477319D02*
X183006547Y-52524938D01*
X183006547Y-52524938D02*
X183101785Y-52620176D01*
X183101785Y-52620176D02*
X183149404Y-52715414D01*
X183149404Y-52715414D02*
X183197023Y-52905890D01*
X183197023Y-52905890D02*
X183197023Y-53048747D01*
X183197023Y-53048747D02*
X183149404Y-53239223D01*
X183149404Y-53239223D02*
X183101785Y-53334461D01*
X183101785Y-53334461D02*
X183006547Y-53429700D01*
X183006547Y-53429700D02*
X182863690Y-53477319D01*
X182863690Y-53477319D02*
X182625595Y-53477319D01*
%TO.C,MX29*%
X37513095Y-110627319D02*
X37513095Y-109627319D01*
X37513095Y-109627319D02*
X37846428Y-110341604D01*
X37846428Y-110341604D02*
X38179761Y-109627319D01*
X38179761Y-109627319D02*
X38179761Y-110627319D01*
X38560714Y-109627319D02*
X39227380Y-110627319D01*
X39227380Y-109627319D02*
X38560714Y-110627319D01*
X39608333Y-110246366D02*
X40370238Y-110246366D01*
X40846428Y-110627319D02*
X40846428Y-109627319D01*
X40846428Y-109627319D02*
X41417856Y-110627319D01*
X41417856Y-110627319D02*
X41417856Y-109627319D01*
X42036904Y-110627319D02*
X41941666Y-110579700D01*
X41941666Y-110579700D02*
X41894047Y-110532080D01*
X41894047Y-110532080D02*
X41846428Y-110436842D01*
X41846428Y-110436842D02*
X41846428Y-110151128D01*
X41846428Y-110151128D02*
X41894047Y-110055890D01*
X41894047Y-110055890D02*
X41941666Y-110008271D01*
X41941666Y-110008271D02*
X42036904Y-109960652D01*
X42036904Y-109960652D02*
X42179761Y-109960652D01*
X42179761Y-109960652D02*
X42274999Y-110008271D01*
X42274999Y-110008271D02*
X42322618Y-110055890D01*
X42322618Y-110055890D02*
X42370237Y-110151128D01*
X42370237Y-110151128D02*
X42370237Y-110436842D01*
X42370237Y-110436842D02*
X42322618Y-110532080D01*
X42322618Y-110532080D02*
X42274999Y-110579700D01*
X42274999Y-110579700D02*
X42179761Y-110627319D01*
X42179761Y-110627319D02*
X42036904Y-110627319D01*
X43274999Y-110627319D02*
X42798809Y-110627319D01*
X42798809Y-110627319D02*
X42798809Y-109627319D01*
X43608333Y-110103509D02*
X43941666Y-110103509D01*
X44084523Y-110627319D02*
X43608333Y-110627319D01*
X43608333Y-110627319D02*
X43608333Y-109627319D01*
X43608333Y-109627319D02*
X44084523Y-109627319D01*
X44513095Y-110627319D02*
X44513095Y-109627319D01*
X44513095Y-109627319D02*
X44751190Y-109627319D01*
X44751190Y-109627319D02*
X44894047Y-109674938D01*
X44894047Y-109674938D02*
X44989285Y-109770176D01*
X44989285Y-109770176D02*
X45036904Y-109865414D01*
X45036904Y-109865414D02*
X45084523Y-110055890D01*
X45084523Y-110055890D02*
X45084523Y-110198747D01*
X45084523Y-110198747D02*
X45036904Y-110389223D01*
X45036904Y-110389223D02*
X44989285Y-110484461D01*
X44989285Y-110484461D02*
X44894047Y-110579700D01*
X44894047Y-110579700D02*
X44751190Y-110627319D01*
X44751190Y-110627319D02*
X44513095Y-110627319D01*
%TO.C,MX18*%
X118475595Y-72527319D02*
X118475595Y-71527319D01*
X118475595Y-71527319D02*
X118808928Y-72241604D01*
X118808928Y-72241604D02*
X119142261Y-71527319D01*
X119142261Y-71527319D02*
X119142261Y-72527319D01*
X119523214Y-71527319D02*
X120189880Y-72527319D01*
X120189880Y-71527319D02*
X119523214Y-72527319D01*
X120570833Y-72146366D02*
X121332738Y-72146366D01*
X121808928Y-72527319D02*
X121808928Y-71527319D01*
X121808928Y-71527319D02*
X122380356Y-72527319D01*
X122380356Y-72527319D02*
X122380356Y-71527319D01*
X122999404Y-72527319D02*
X122904166Y-72479700D01*
X122904166Y-72479700D02*
X122856547Y-72432080D01*
X122856547Y-72432080D02*
X122808928Y-72336842D01*
X122808928Y-72336842D02*
X122808928Y-72051128D01*
X122808928Y-72051128D02*
X122856547Y-71955890D01*
X122856547Y-71955890D02*
X122904166Y-71908271D01*
X122904166Y-71908271D02*
X122999404Y-71860652D01*
X122999404Y-71860652D02*
X123142261Y-71860652D01*
X123142261Y-71860652D02*
X123237499Y-71908271D01*
X123237499Y-71908271D02*
X123285118Y-71955890D01*
X123285118Y-71955890D02*
X123332737Y-72051128D01*
X123332737Y-72051128D02*
X123332737Y-72336842D01*
X123332737Y-72336842D02*
X123285118Y-72432080D01*
X123285118Y-72432080D02*
X123237499Y-72479700D01*
X123237499Y-72479700D02*
X123142261Y-72527319D01*
X123142261Y-72527319D02*
X122999404Y-72527319D01*
X124237499Y-72527319D02*
X123761309Y-72527319D01*
X123761309Y-72527319D02*
X123761309Y-71527319D01*
X124570833Y-72003509D02*
X124904166Y-72003509D01*
X125047023Y-72527319D02*
X124570833Y-72527319D01*
X124570833Y-72527319D02*
X124570833Y-71527319D01*
X124570833Y-71527319D02*
X125047023Y-71527319D01*
X125475595Y-72527319D02*
X125475595Y-71527319D01*
X125475595Y-71527319D02*
X125713690Y-71527319D01*
X125713690Y-71527319D02*
X125856547Y-71574938D01*
X125856547Y-71574938D02*
X125951785Y-71670176D01*
X125951785Y-71670176D02*
X125999404Y-71765414D01*
X125999404Y-71765414D02*
X126047023Y-71955890D01*
X126047023Y-71955890D02*
X126047023Y-72098747D01*
X126047023Y-72098747D02*
X125999404Y-72289223D01*
X125999404Y-72289223D02*
X125951785Y-72384461D01*
X125951785Y-72384461D02*
X125856547Y-72479700D01*
X125856547Y-72479700D02*
X125713690Y-72527319D01*
X125713690Y-72527319D02*
X125475595Y-72527319D01*
%TO.C,MX20*%
X156575595Y-72527319D02*
X156575595Y-71527319D01*
X156575595Y-71527319D02*
X156908928Y-72241604D01*
X156908928Y-72241604D02*
X157242261Y-71527319D01*
X157242261Y-71527319D02*
X157242261Y-72527319D01*
X157623214Y-71527319D02*
X158289880Y-72527319D01*
X158289880Y-71527319D02*
X157623214Y-72527319D01*
X158670833Y-72146366D02*
X159432738Y-72146366D01*
X159908928Y-72527319D02*
X159908928Y-71527319D01*
X159908928Y-71527319D02*
X160480356Y-72527319D01*
X160480356Y-72527319D02*
X160480356Y-71527319D01*
X161099404Y-72527319D02*
X161004166Y-72479700D01*
X161004166Y-72479700D02*
X160956547Y-72432080D01*
X160956547Y-72432080D02*
X160908928Y-72336842D01*
X160908928Y-72336842D02*
X160908928Y-72051128D01*
X160908928Y-72051128D02*
X160956547Y-71955890D01*
X160956547Y-71955890D02*
X161004166Y-71908271D01*
X161004166Y-71908271D02*
X161099404Y-71860652D01*
X161099404Y-71860652D02*
X161242261Y-71860652D01*
X161242261Y-71860652D02*
X161337499Y-71908271D01*
X161337499Y-71908271D02*
X161385118Y-71955890D01*
X161385118Y-71955890D02*
X161432737Y-72051128D01*
X161432737Y-72051128D02*
X161432737Y-72336842D01*
X161432737Y-72336842D02*
X161385118Y-72432080D01*
X161385118Y-72432080D02*
X161337499Y-72479700D01*
X161337499Y-72479700D02*
X161242261Y-72527319D01*
X161242261Y-72527319D02*
X161099404Y-72527319D01*
X162337499Y-72527319D02*
X161861309Y-72527319D01*
X161861309Y-72527319D02*
X161861309Y-71527319D01*
X162670833Y-72003509D02*
X163004166Y-72003509D01*
X163147023Y-72527319D02*
X162670833Y-72527319D01*
X162670833Y-72527319D02*
X162670833Y-71527319D01*
X162670833Y-71527319D02*
X163147023Y-71527319D01*
X163575595Y-72527319D02*
X163575595Y-71527319D01*
X163575595Y-71527319D02*
X163813690Y-71527319D01*
X163813690Y-71527319D02*
X163956547Y-71574938D01*
X163956547Y-71574938D02*
X164051785Y-71670176D01*
X164051785Y-71670176D02*
X164099404Y-71765414D01*
X164099404Y-71765414D02*
X164147023Y-71955890D01*
X164147023Y-71955890D02*
X164147023Y-72098747D01*
X164147023Y-72098747D02*
X164099404Y-72289223D01*
X164099404Y-72289223D02*
X164051785Y-72384461D01*
X164051785Y-72384461D02*
X163956547Y-72479700D01*
X163956547Y-72479700D02*
X163813690Y-72527319D01*
X163813690Y-72527319D02*
X163575595Y-72527319D01*
%TO.C,MX48*%
X213725595Y-129677319D02*
X213725595Y-128677319D01*
X213725595Y-128677319D02*
X214058928Y-129391604D01*
X214058928Y-129391604D02*
X214392261Y-128677319D01*
X214392261Y-128677319D02*
X214392261Y-129677319D01*
X214773214Y-128677319D02*
X215439880Y-129677319D01*
X215439880Y-128677319D02*
X214773214Y-129677319D01*
X215820833Y-129296366D02*
X216582738Y-129296366D01*
X217058928Y-129677319D02*
X217058928Y-128677319D01*
X217058928Y-128677319D02*
X217630356Y-129677319D01*
X217630356Y-129677319D02*
X217630356Y-128677319D01*
X218249404Y-129677319D02*
X218154166Y-129629700D01*
X218154166Y-129629700D02*
X218106547Y-129582080D01*
X218106547Y-129582080D02*
X218058928Y-129486842D01*
X218058928Y-129486842D02*
X218058928Y-129201128D01*
X218058928Y-129201128D02*
X218106547Y-129105890D01*
X218106547Y-129105890D02*
X218154166Y-129058271D01*
X218154166Y-129058271D02*
X218249404Y-129010652D01*
X218249404Y-129010652D02*
X218392261Y-129010652D01*
X218392261Y-129010652D02*
X218487499Y-129058271D01*
X218487499Y-129058271D02*
X218535118Y-129105890D01*
X218535118Y-129105890D02*
X218582737Y-129201128D01*
X218582737Y-129201128D02*
X218582737Y-129486842D01*
X218582737Y-129486842D02*
X218535118Y-129582080D01*
X218535118Y-129582080D02*
X218487499Y-129629700D01*
X218487499Y-129629700D02*
X218392261Y-129677319D01*
X218392261Y-129677319D02*
X218249404Y-129677319D01*
X219487499Y-129677319D02*
X219011309Y-129677319D01*
X219011309Y-129677319D02*
X219011309Y-128677319D01*
X219820833Y-129153509D02*
X220154166Y-129153509D01*
X220297023Y-129677319D02*
X219820833Y-129677319D01*
X219820833Y-129677319D02*
X219820833Y-128677319D01*
X219820833Y-128677319D02*
X220297023Y-128677319D01*
X220725595Y-129677319D02*
X220725595Y-128677319D01*
X220725595Y-128677319D02*
X220963690Y-128677319D01*
X220963690Y-128677319D02*
X221106547Y-128724938D01*
X221106547Y-128724938D02*
X221201785Y-128820176D01*
X221201785Y-128820176D02*
X221249404Y-128915414D01*
X221249404Y-128915414D02*
X221297023Y-129105890D01*
X221297023Y-129105890D02*
X221297023Y-129248747D01*
X221297023Y-129248747D02*
X221249404Y-129439223D01*
X221249404Y-129439223D02*
X221201785Y-129534461D01*
X221201785Y-129534461D02*
X221106547Y-129629700D01*
X221106547Y-129629700D02*
X220963690Y-129677319D01*
X220963690Y-129677319D02*
X220725595Y-129677319D01*
%TO.C,MX9*%
X89900595Y-53477319D02*
X89900595Y-52477319D01*
X89900595Y-52477319D02*
X90233928Y-53191604D01*
X90233928Y-53191604D02*
X90567261Y-52477319D01*
X90567261Y-52477319D02*
X90567261Y-53477319D01*
X90948214Y-52477319D02*
X91614880Y-53477319D01*
X91614880Y-52477319D02*
X90948214Y-53477319D01*
X91995833Y-53096366D02*
X92757738Y-53096366D01*
X93233928Y-53477319D02*
X93233928Y-52477319D01*
X93233928Y-52477319D02*
X93805356Y-53477319D01*
X93805356Y-53477319D02*
X93805356Y-52477319D01*
X94424404Y-53477319D02*
X94329166Y-53429700D01*
X94329166Y-53429700D02*
X94281547Y-53382080D01*
X94281547Y-53382080D02*
X94233928Y-53286842D01*
X94233928Y-53286842D02*
X94233928Y-53001128D01*
X94233928Y-53001128D02*
X94281547Y-52905890D01*
X94281547Y-52905890D02*
X94329166Y-52858271D01*
X94329166Y-52858271D02*
X94424404Y-52810652D01*
X94424404Y-52810652D02*
X94567261Y-52810652D01*
X94567261Y-52810652D02*
X94662499Y-52858271D01*
X94662499Y-52858271D02*
X94710118Y-52905890D01*
X94710118Y-52905890D02*
X94757737Y-53001128D01*
X94757737Y-53001128D02*
X94757737Y-53286842D01*
X94757737Y-53286842D02*
X94710118Y-53382080D01*
X94710118Y-53382080D02*
X94662499Y-53429700D01*
X94662499Y-53429700D02*
X94567261Y-53477319D01*
X94567261Y-53477319D02*
X94424404Y-53477319D01*
X95662499Y-53477319D02*
X95186309Y-53477319D01*
X95186309Y-53477319D02*
X95186309Y-52477319D01*
X95995833Y-52953509D02*
X96329166Y-52953509D01*
X96472023Y-53477319D02*
X95995833Y-53477319D01*
X95995833Y-53477319D02*
X95995833Y-52477319D01*
X95995833Y-52477319D02*
X96472023Y-52477319D01*
X96900595Y-53477319D02*
X96900595Y-52477319D01*
X96900595Y-52477319D02*
X97138690Y-52477319D01*
X97138690Y-52477319D02*
X97281547Y-52524938D01*
X97281547Y-52524938D02*
X97376785Y-52620176D01*
X97376785Y-52620176D02*
X97424404Y-52715414D01*
X97424404Y-52715414D02*
X97472023Y-52905890D01*
X97472023Y-52905890D02*
X97472023Y-53048747D01*
X97472023Y-53048747D02*
X97424404Y-53239223D01*
X97424404Y-53239223D02*
X97376785Y-53334461D01*
X97376785Y-53334461D02*
X97281547Y-53429700D01*
X97281547Y-53429700D02*
X97138690Y-53477319D01*
X97138690Y-53477319D02*
X96900595Y-53477319D01*
%TO.C,MX19*%
X137525595Y-72527319D02*
X137525595Y-71527319D01*
X137525595Y-71527319D02*
X137858928Y-72241604D01*
X137858928Y-72241604D02*
X138192261Y-71527319D01*
X138192261Y-71527319D02*
X138192261Y-72527319D01*
X138573214Y-71527319D02*
X139239880Y-72527319D01*
X139239880Y-71527319D02*
X138573214Y-72527319D01*
X139620833Y-72146366D02*
X140382738Y-72146366D01*
X140858928Y-72527319D02*
X140858928Y-71527319D01*
X140858928Y-71527319D02*
X141430356Y-72527319D01*
X141430356Y-72527319D02*
X141430356Y-71527319D01*
X142049404Y-72527319D02*
X141954166Y-72479700D01*
X141954166Y-72479700D02*
X141906547Y-72432080D01*
X141906547Y-72432080D02*
X141858928Y-72336842D01*
X141858928Y-72336842D02*
X141858928Y-72051128D01*
X141858928Y-72051128D02*
X141906547Y-71955890D01*
X141906547Y-71955890D02*
X141954166Y-71908271D01*
X141954166Y-71908271D02*
X142049404Y-71860652D01*
X142049404Y-71860652D02*
X142192261Y-71860652D01*
X142192261Y-71860652D02*
X142287499Y-71908271D01*
X142287499Y-71908271D02*
X142335118Y-71955890D01*
X142335118Y-71955890D02*
X142382737Y-72051128D01*
X142382737Y-72051128D02*
X142382737Y-72336842D01*
X142382737Y-72336842D02*
X142335118Y-72432080D01*
X142335118Y-72432080D02*
X142287499Y-72479700D01*
X142287499Y-72479700D02*
X142192261Y-72527319D01*
X142192261Y-72527319D02*
X142049404Y-72527319D01*
X143287499Y-72527319D02*
X142811309Y-72527319D01*
X142811309Y-72527319D02*
X142811309Y-71527319D01*
X143620833Y-72003509D02*
X143954166Y-72003509D01*
X144097023Y-72527319D02*
X143620833Y-72527319D01*
X143620833Y-72527319D02*
X143620833Y-71527319D01*
X143620833Y-71527319D02*
X144097023Y-71527319D01*
X144525595Y-72527319D02*
X144525595Y-71527319D01*
X144525595Y-71527319D02*
X144763690Y-71527319D01*
X144763690Y-71527319D02*
X144906547Y-71574938D01*
X144906547Y-71574938D02*
X145001785Y-71670176D01*
X145001785Y-71670176D02*
X145049404Y-71765414D01*
X145049404Y-71765414D02*
X145097023Y-71955890D01*
X145097023Y-71955890D02*
X145097023Y-72098747D01*
X145097023Y-72098747D02*
X145049404Y-72289223D01*
X145049404Y-72289223D02*
X145001785Y-72384461D01*
X145001785Y-72384461D02*
X144906547Y-72479700D01*
X144906547Y-72479700D02*
X144763690Y-72527319D01*
X144763690Y-72527319D02*
X144525595Y-72527319D01*
%TO.C,MX25*%
X104188095Y-91577319D02*
X104188095Y-90577319D01*
X104188095Y-90577319D02*
X104521428Y-91291604D01*
X104521428Y-91291604D02*
X104854761Y-90577319D01*
X104854761Y-90577319D02*
X104854761Y-91577319D01*
X105235714Y-90577319D02*
X105902380Y-91577319D01*
X105902380Y-90577319D02*
X105235714Y-91577319D01*
X106283333Y-91196366D02*
X107045238Y-91196366D01*
X107521428Y-91577319D02*
X107521428Y-90577319D01*
X107521428Y-90577319D02*
X108092856Y-91577319D01*
X108092856Y-91577319D02*
X108092856Y-90577319D01*
X108711904Y-91577319D02*
X108616666Y-91529700D01*
X108616666Y-91529700D02*
X108569047Y-91482080D01*
X108569047Y-91482080D02*
X108521428Y-91386842D01*
X108521428Y-91386842D02*
X108521428Y-91101128D01*
X108521428Y-91101128D02*
X108569047Y-91005890D01*
X108569047Y-91005890D02*
X108616666Y-90958271D01*
X108616666Y-90958271D02*
X108711904Y-90910652D01*
X108711904Y-90910652D02*
X108854761Y-90910652D01*
X108854761Y-90910652D02*
X108949999Y-90958271D01*
X108949999Y-90958271D02*
X108997618Y-91005890D01*
X108997618Y-91005890D02*
X109045237Y-91101128D01*
X109045237Y-91101128D02*
X109045237Y-91386842D01*
X109045237Y-91386842D02*
X108997618Y-91482080D01*
X108997618Y-91482080D02*
X108949999Y-91529700D01*
X108949999Y-91529700D02*
X108854761Y-91577319D01*
X108854761Y-91577319D02*
X108711904Y-91577319D01*
X109949999Y-91577319D02*
X109473809Y-91577319D01*
X109473809Y-91577319D02*
X109473809Y-90577319D01*
X110283333Y-91053509D02*
X110616666Y-91053509D01*
X110759523Y-91577319D02*
X110283333Y-91577319D01*
X110283333Y-91577319D02*
X110283333Y-90577319D01*
X110283333Y-90577319D02*
X110759523Y-90577319D01*
X111188095Y-91577319D02*
X111188095Y-90577319D01*
X111188095Y-90577319D02*
X111426190Y-90577319D01*
X111426190Y-90577319D02*
X111569047Y-90624938D01*
X111569047Y-90624938D02*
X111664285Y-90720176D01*
X111664285Y-90720176D02*
X111711904Y-90815414D01*
X111711904Y-90815414D02*
X111759523Y-91005890D01*
X111759523Y-91005890D02*
X111759523Y-91148747D01*
X111759523Y-91148747D02*
X111711904Y-91339223D01*
X111711904Y-91339223D02*
X111664285Y-91434461D01*
X111664285Y-91434461D02*
X111569047Y-91529700D01*
X111569047Y-91529700D02*
X111426190Y-91577319D01*
X111426190Y-91577319D02*
X111188095Y-91577319D01*
%TO.C,MX26*%
X123238095Y-91577319D02*
X123238095Y-90577319D01*
X123238095Y-90577319D02*
X123571428Y-91291604D01*
X123571428Y-91291604D02*
X123904761Y-90577319D01*
X123904761Y-90577319D02*
X123904761Y-91577319D01*
X124285714Y-90577319D02*
X124952380Y-91577319D01*
X124952380Y-90577319D02*
X124285714Y-91577319D01*
X125333333Y-91196366D02*
X126095238Y-91196366D01*
X126571428Y-91577319D02*
X126571428Y-90577319D01*
X126571428Y-90577319D02*
X127142856Y-91577319D01*
X127142856Y-91577319D02*
X127142856Y-90577319D01*
X127761904Y-91577319D02*
X127666666Y-91529700D01*
X127666666Y-91529700D02*
X127619047Y-91482080D01*
X127619047Y-91482080D02*
X127571428Y-91386842D01*
X127571428Y-91386842D02*
X127571428Y-91101128D01*
X127571428Y-91101128D02*
X127619047Y-91005890D01*
X127619047Y-91005890D02*
X127666666Y-90958271D01*
X127666666Y-90958271D02*
X127761904Y-90910652D01*
X127761904Y-90910652D02*
X127904761Y-90910652D01*
X127904761Y-90910652D02*
X127999999Y-90958271D01*
X127999999Y-90958271D02*
X128047618Y-91005890D01*
X128047618Y-91005890D02*
X128095237Y-91101128D01*
X128095237Y-91101128D02*
X128095237Y-91386842D01*
X128095237Y-91386842D02*
X128047618Y-91482080D01*
X128047618Y-91482080D02*
X127999999Y-91529700D01*
X127999999Y-91529700D02*
X127904761Y-91577319D01*
X127904761Y-91577319D02*
X127761904Y-91577319D01*
X128999999Y-91577319D02*
X128523809Y-91577319D01*
X128523809Y-91577319D02*
X128523809Y-90577319D01*
X129333333Y-91053509D02*
X129666666Y-91053509D01*
X129809523Y-91577319D02*
X129333333Y-91577319D01*
X129333333Y-91577319D02*
X129333333Y-90577319D01*
X129333333Y-90577319D02*
X129809523Y-90577319D01*
X130238095Y-91577319D02*
X130238095Y-90577319D01*
X130238095Y-90577319D02*
X130476190Y-90577319D01*
X130476190Y-90577319D02*
X130619047Y-90624938D01*
X130619047Y-90624938D02*
X130714285Y-90720176D01*
X130714285Y-90720176D02*
X130761904Y-90815414D01*
X130761904Y-90815414D02*
X130809523Y-91005890D01*
X130809523Y-91005890D02*
X130809523Y-91148747D01*
X130809523Y-91148747D02*
X130761904Y-91339223D01*
X130761904Y-91339223D02*
X130714285Y-91434461D01*
X130714285Y-91434461D02*
X130619047Y-91529700D01*
X130619047Y-91529700D02*
X130476190Y-91577319D01*
X130476190Y-91577319D02*
X130238095Y-91577319D01*
%TO.C,MX3*%
X89900595Y-29664819D02*
X89900595Y-28664819D01*
X89900595Y-28664819D02*
X90233928Y-29379104D01*
X90233928Y-29379104D02*
X90567261Y-28664819D01*
X90567261Y-28664819D02*
X90567261Y-29664819D01*
X90948214Y-28664819D02*
X91614880Y-29664819D01*
X91614880Y-28664819D02*
X90948214Y-29664819D01*
X91995833Y-29283866D02*
X92757738Y-29283866D01*
X93233928Y-29664819D02*
X93233928Y-28664819D01*
X93233928Y-28664819D02*
X93805356Y-29664819D01*
X93805356Y-29664819D02*
X93805356Y-28664819D01*
X94424404Y-29664819D02*
X94329166Y-29617200D01*
X94329166Y-29617200D02*
X94281547Y-29569580D01*
X94281547Y-29569580D02*
X94233928Y-29474342D01*
X94233928Y-29474342D02*
X94233928Y-29188628D01*
X94233928Y-29188628D02*
X94281547Y-29093390D01*
X94281547Y-29093390D02*
X94329166Y-29045771D01*
X94329166Y-29045771D02*
X94424404Y-28998152D01*
X94424404Y-28998152D02*
X94567261Y-28998152D01*
X94567261Y-28998152D02*
X94662499Y-29045771D01*
X94662499Y-29045771D02*
X94710118Y-29093390D01*
X94710118Y-29093390D02*
X94757737Y-29188628D01*
X94757737Y-29188628D02*
X94757737Y-29474342D01*
X94757737Y-29474342D02*
X94710118Y-29569580D01*
X94710118Y-29569580D02*
X94662499Y-29617200D01*
X94662499Y-29617200D02*
X94567261Y-29664819D01*
X94567261Y-29664819D02*
X94424404Y-29664819D01*
X95662499Y-29664819D02*
X95186309Y-29664819D01*
X95186309Y-29664819D02*
X95186309Y-28664819D01*
X95995833Y-29141009D02*
X96329166Y-29141009D01*
X96472023Y-29664819D02*
X95995833Y-29664819D01*
X95995833Y-29664819D02*
X95995833Y-28664819D01*
X95995833Y-28664819D02*
X96472023Y-28664819D01*
X96900595Y-29664819D02*
X96900595Y-28664819D01*
X96900595Y-28664819D02*
X97138690Y-28664819D01*
X97138690Y-28664819D02*
X97281547Y-28712438D01*
X97281547Y-28712438D02*
X97376785Y-28807676D01*
X97376785Y-28807676D02*
X97424404Y-28902914D01*
X97424404Y-28902914D02*
X97472023Y-29093390D01*
X97472023Y-29093390D02*
X97472023Y-29236247D01*
X97472023Y-29236247D02*
X97424404Y-29426723D01*
X97424404Y-29426723D02*
X97376785Y-29521961D01*
X97376785Y-29521961D02*
X97281547Y-29617200D01*
X97281547Y-29617200D02*
X97138690Y-29664819D01*
X97138690Y-29664819D02*
X96900595Y-29664819D01*
%TO.C,MX31*%
X75613095Y-110627319D02*
X75613095Y-109627319D01*
X75613095Y-109627319D02*
X75946428Y-110341604D01*
X75946428Y-110341604D02*
X76279761Y-109627319D01*
X76279761Y-109627319D02*
X76279761Y-110627319D01*
X76660714Y-109627319D02*
X77327380Y-110627319D01*
X77327380Y-109627319D02*
X76660714Y-110627319D01*
X77708333Y-110246366D02*
X78470238Y-110246366D01*
X78946428Y-110627319D02*
X78946428Y-109627319D01*
X78946428Y-109627319D02*
X79517856Y-110627319D01*
X79517856Y-110627319D02*
X79517856Y-109627319D01*
X80136904Y-110627319D02*
X80041666Y-110579700D01*
X80041666Y-110579700D02*
X79994047Y-110532080D01*
X79994047Y-110532080D02*
X79946428Y-110436842D01*
X79946428Y-110436842D02*
X79946428Y-110151128D01*
X79946428Y-110151128D02*
X79994047Y-110055890D01*
X79994047Y-110055890D02*
X80041666Y-110008271D01*
X80041666Y-110008271D02*
X80136904Y-109960652D01*
X80136904Y-109960652D02*
X80279761Y-109960652D01*
X80279761Y-109960652D02*
X80374999Y-110008271D01*
X80374999Y-110008271D02*
X80422618Y-110055890D01*
X80422618Y-110055890D02*
X80470237Y-110151128D01*
X80470237Y-110151128D02*
X80470237Y-110436842D01*
X80470237Y-110436842D02*
X80422618Y-110532080D01*
X80422618Y-110532080D02*
X80374999Y-110579700D01*
X80374999Y-110579700D02*
X80279761Y-110627319D01*
X80279761Y-110627319D02*
X80136904Y-110627319D01*
X81374999Y-110627319D02*
X80898809Y-110627319D01*
X80898809Y-110627319D02*
X80898809Y-109627319D01*
X81708333Y-110103509D02*
X82041666Y-110103509D01*
X82184523Y-110627319D02*
X81708333Y-110627319D01*
X81708333Y-110627319D02*
X81708333Y-109627319D01*
X81708333Y-109627319D02*
X82184523Y-109627319D01*
X82613095Y-110627319D02*
X82613095Y-109627319D01*
X82613095Y-109627319D02*
X82851190Y-109627319D01*
X82851190Y-109627319D02*
X82994047Y-109674938D01*
X82994047Y-109674938D02*
X83089285Y-109770176D01*
X83089285Y-109770176D02*
X83136904Y-109865414D01*
X83136904Y-109865414D02*
X83184523Y-110055890D01*
X83184523Y-110055890D02*
X83184523Y-110198747D01*
X83184523Y-110198747D02*
X83136904Y-110389223D01*
X83136904Y-110389223D02*
X83089285Y-110484461D01*
X83089285Y-110484461D02*
X82994047Y-110579700D01*
X82994047Y-110579700D02*
X82851190Y-110627319D01*
X82851190Y-110627319D02*
X82613095Y-110627319D01*
%TO.C,MX10*%
X108950595Y-53477319D02*
X108950595Y-52477319D01*
X108950595Y-52477319D02*
X109283928Y-53191604D01*
X109283928Y-53191604D02*
X109617261Y-52477319D01*
X109617261Y-52477319D02*
X109617261Y-53477319D01*
X109998214Y-52477319D02*
X110664880Y-53477319D01*
X110664880Y-52477319D02*
X109998214Y-53477319D01*
X111045833Y-53096366D02*
X111807738Y-53096366D01*
X112283928Y-53477319D02*
X112283928Y-52477319D01*
X112283928Y-52477319D02*
X112855356Y-53477319D01*
X112855356Y-53477319D02*
X112855356Y-52477319D01*
X113474404Y-53477319D02*
X113379166Y-53429700D01*
X113379166Y-53429700D02*
X113331547Y-53382080D01*
X113331547Y-53382080D02*
X113283928Y-53286842D01*
X113283928Y-53286842D02*
X113283928Y-53001128D01*
X113283928Y-53001128D02*
X113331547Y-52905890D01*
X113331547Y-52905890D02*
X113379166Y-52858271D01*
X113379166Y-52858271D02*
X113474404Y-52810652D01*
X113474404Y-52810652D02*
X113617261Y-52810652D01*
X113617261Y-52810652D02*
X113712499Y-52858271D01*
X113712499Y-52858271D02*
X113760118Y-52905890D01*
X113760118Y-52905890D02*
X113807737Y-53001128D01*
X113807737Y-53001128D02*
X113807737Y-53286842D01*
X113807737Y-53286842D02*
X113760118Y-53382080D01*
X113760118Y-53382080D02*
X113712499Y-53429700D01*
X113712499Y-53429700D02*
X113617261Y-53477319D01*
X113617261Y-53477319D02*
X113474404Y-53477319D01*
X114712499Y-53477319D02*
X114236309Y-53477319D01*
X114236309Y-53477319D02*
X114236309Y-52477319D01*
X115045833Y-52953509D02*
X115379166Y-52953509D01*
X115522023Y-53477319D02*
X115045833Y-53477319D01*
X115045833Y-53477319D02*
X115045833Y-52477319D01*
X115045833Y-52477319D02*
X115522023Y-52477319D01*
X115950595Y-53477319D02*
X115950595Y-52477319D01*
X115950595Y-52477319D02*
X116188690Y-52477319D01*
X116188690Y-52477319D02*
X116331547Y-52524938D01*
X116331547Y-52524938D02*
X116426785Y-52620176D01*
X116426785Y-52620176D02*
X116474404Y-52715414D01*
X116474404Y-52715414D02*
X116522023Y-52905890D01*
X116522023Y-52905890D02*
X116522023Y-53048747D01*
X116522023Y-53048747D02*
X116474404Y-53239223D01*
X116474404Y-53239223D02*
X116426785Y-53334461D01*
X116426785Y-53334461D02*
X116331547Y-53429700D01*
X116331547Y-53429700D02*
X116188690Y-53477319D01*
X116188690Y-53477319D02*
X115950595Y-53477319D01*
%TO.C,MX49*%
X232775595Y-129677319D02*
X232775595Y-128677319D01*
X232775595Y-128677319D02*
X233108928Y-129391604D01*
X233108928Y-129391604D02*
X233442261Y-128677319D01*
X233442261Y-128677319D02*
X233442261Y-129677319D01*
X233823214Y-128677319D02*
X234489880Y-129677319D01*
X234489880Y-128677319D02*
X233823214Y-129677319D01*
X234870833Y-129296366D02*
X235632738Y-129296366D01*
X236108928Y-129677319D02*
X236108928Y-128677319D01*
X236108928Y-128677319D02*
X236680356Y-129677319D01*
X236680356Y-129677319D02*
X236680356Y-128677319D01*
X237299404Y-129677319D02*
X237204166Y-129629700D01*
X237204166Y-129629700D02*
X237156547Y-129582080D01*
X237156547Y-129582080D02*
X237108928Y-129486842D01*
X237108928Y-129486842D02*
X237108928Y-129201128D01*
X237108928Y-129201128D02*
X237156547Y-129105890D01*
X237156547Y-129105890D02*
X237204166Y-129058271D01*
X237204166Y-129058271D02*
X237299404Y-129010652D01*
X237299404Y-129010652D02*
X237442261Y-129010652D01*
X237442261Y-129010652D02*
X237537499Y-129058271D01*
X237537499Y-129058271D02*
X237585118Y-129105890D01*
X237585118Y-129105890D02*
X237632737Y-129201128D01*
X237632737Y-129201128D02*
X237632737Y-129486842D01*
X237632737Y-129486842D02*
X237585118Y-129582080D01*
X237585118Y-129582080D02*
X237537499Y-129629700D01*
X237537499Y-129629700D02*
X237442261Y-129677319D01*
X237442261Y-129677319D02*
X237299404Y-129677319D01*
X238537499Y-129677319D02*
X238061309Y-129677319D01*
X238061309Y-129677319D02*
X238061309Y-128677319D01*
X238870833Y-129153509D02*
X239204166Y-129153509D01*
X239347023Y-129677319D02*
X238870833Y-129677319D01*
X238870833Y-129677319D02*
X238870833Y-128677319D01*
X238870833Y-128677319D02*
X239347023Y-128677319D01*
X239775595Y-129677319D02*
X239775595Y-128677319D01*
X239775595Y-128677319D02*
X240013690Y-128677319D01*
X240013690Y-128677319D02*
X240156547Y-128724938D01*
X240156547Y-128724938D02*
X240251785Y-128820176D01*
X240251785Y-128820176D02*
X240299404Y-128915414D01*
X240299404Y-128915414D02*
X240347023Y-129105890D01*
X240347023Y-129105890D02*
X240347023Y-129248747D01*
X240347023Y-129248747D02*
X240299404Y-129439223D01*
X240299404Y-129439223D02*
X240251785Y-129534461D01*
X240251785Y-129534461D02*
X240156547Y-129629700D01*
X240156547Y-129629700D02*
X240013690Y-129677319D01*
X240013690Y-129677319D02*
X239775595Y-129677319D01*
%TO.C,MX11*%
X128000595Y-53477319D02*
X128000595Y-52477319D01*
X128000595Y-52477319D02*
X128333928Y-53191604D01*
X128333928Y-53191604D02*
X128667261Y-52477319D01*
X128667261Y-52477319D02*
X128667261Y-53477319D01*
X129048214Y-52477319D02*
X129714880Y-53477319D01*
X129714880Y-52477319D02*
X129048214Y-53477319D01*
X130095833Y-53096366D02*
X130857738Y-53096366D01*
X131333928Y-53477319D02*
X131333928Y-52477319D01*
X131333928Y-52477319D02*
X131905356Y-53477319D01*
X131905356Y-53477319D02*
X131905356Y-52477319D01*
X132524404Y-53477319D02*
X132429166Y-53429700D01*
X132429166Y-53429700D02*
X132381547Y-53382080D01*
X132381547Y-53382080D02*
X132333928Y-53286842D01*
X132333928Y-53286842D02*
X132333928Y-53001128D01*
X132333928Y-53001128D02*
X132381547Y-52905890D01*
X132381547Y-52905890D02*
X132429166Y-52858271D01*
X132429166Y-52858271D02*
X132524404Y-52810652D01*
X132524404Y-52810652D02*
X132667261Y-52810652D01*
X132667261Y-52810652D02*
X132762499Y-52858271D01*
X132762499Y-52858271D02*
X132810118Y-52905890D01*
X132810118Y-52905890D02*
X132857737Y-53001128D01*
X132857737Y-53001128D02*
X132857737Y-53286842D01*
X132857737Y-53286842D02*
X132810118Y-53382080D01*
X132810118Y-53382080D02*
X132762499Y-53429700D01*
X132762499Y-53429700D02*
X132667261Y-53477319D01*
X132667261Y-53477319D02*
X132524404Y-53477319D01*
X133762499Y-53477319D02*
X133286309Y-53477319D01*
X133286309Y-53477319D02*
X133286309Y-52477319D01*
X134095833Y-52953509D02*
X134429166Y-52953509D01*
X134572023Y-53477319D02*
X134095833Y-53477319D01*
X134095833Y-53477319D02*
X134095833Y-52477319D01*
X134095833Y-52477319D02*
X134572023Y-52477319D01*
X135000595Y-53477319D02*
X135000595Y-52477319D01*
X135000595Y-52477319D02*
X135238690Y-52477319D01*
X135238690Y-52477319D02*
X135381547Y-52524938D01*
X135381547Y-52524938D02*
X135476785Y-52620176D01*
X135476785Y-52620176D02*
X135524404Y-52715414D01*
X135524404Y-52715414D02*
X135572023Y-52905890D01*
X135572023Y-52905890D02*
X135572023Y-53048747D01*
X135572023Y-53048747D02*
X135524404Y-53239223D01*
X135524404Y-53239223D02*
X135476785Y-53334461D01*
X135476785Y-53334461D02*
X135381547Y-53429700D01*
X135381547Y-53429700D02*
X135238690Y-53477319D01*
X135238690Y-53477319D02*
X135000595Y-53477319D01*
%TO.C,MX28*%
X173244345Y-91577319D02*
X173244345Y-90577319D01*
X173244345Y-90577319D02*
X173577678Y-91291604D01*
X173577678Y-91291604D02*
X173911011Y-90577319D01*
X173911011Y-90577319D02*
X173911011Y-91577319D01*
X174291964Y-90577319D02*
X174958630Y-91577319D01*
X174958630Y-90577319D02*
X174291964Y-91577319D01*
X175339583Y-91196366D02*
X176101488Y-91196366D01*
X176577678Y-91577319D02*
X176577678Y-90577319D01*
X176577678Y-90577319D02*
X177149106Y-91577319D01*
X177149106Y-91577319D02*
X177149106Y-90577319D01*
X177768154Y-91577319D02*
X177672916Y-91529700D01*
X177672916Y-91529700D02*
X177625297Y-91482080D01*
X177625297Y-91482080D02*
X177577678Y-91386842D01*
X177577678Y-91386842D02*
X177577678Y-91101128D01*
X177577678Y-91101128D02*
X177625297Y-91005890D01*
X177625297Y-91005890D02*
X177672916Y-90958271D01*
X177672916Y-90958271D02*
X177768154Y-90910652D01*
X177768154Y-90910652D02*
X177911011Y-90910652D01*
X177911011Y-90910652D02*
X178006249Y-90958271D01*
X178006249Y-90958271D02*
X178053868Y-91005890D01*
X178053868Y-91005890D02*
X178101487Y-91101128D01*
X178101487Y-91101128D02*
X178101487Y-91386842D01*
X178101487Y-91386842D02*
X178053868Y-91482080D01*
X178053868Y-91482080D02*
X178006249Y-91529700D01*
X178006249Y-91529700D02*
X177911011Y-91577319D01*
X177911011Y-91577319D02*
X177768154Y-91577319D01*
X179006249Y-91577319D02*
X178530059Y-91577319D01*
X178530059Y-91577319D02*
X178530059Y-90577319D01*
X179339583Y-91053509D02*
X179672916Y-91053509D01*
X179815773Y-91577319D02*
X179339583Y-91577319D01*
X179339583Y-91577319D02*
X179339583Y-90577319D01*
X179339583Y-90577319D02*
X179815773Y-90577319D01*
X180244345Y-91577319D02*
X180244345Y-90577319D01*
X180244345Y-90577319D02*
X180482440Y-90577319D01*
X180482440Y-90577319D02*
X180625297Y-90624938D01*
X180625297Y-90624938D02*
X180720535Y-90720176D01*
X180720535Y-90720176D02*
X180768154Y-90815414D01*
X180768154Y-90815414D02*
X180815773Y-91005890D01*
X180815773Y-91005890D02*
X180815773Y-91148747D01*
X180815773Y-91148747D02*
X180768154Y-91339223D01*
X180768154Y-91339223D02*
X180720535Y-91434461D01*
X180720535Y-91434461D02*
X180625297Y-91529700D01*
X180625297Y-91529700D02*
X180482440Y-91577319D01*
X180482440Y-91577319D02*
X180244345Y-91577319D01*
%TO.C,MX12*%
X147050595Y-53477319D02*
X147050595Y-52477319D01*
X147050595Y-52477319D02*
X147383928Y-53191604D01*
X147383928Y-53191604D02*
X147717261Y-52477319D01*
X147717261Y-52477319D02*
X147717261Y-53477319D01*
X148098214Y-52477319D02*
X148764880Y-53477319D01*
X148764880Y-52477319D02*
X148098214Y-53477319D01*
X149145833Y-53096366D02*
X149907738Y-53096366D01*
X150383928Y-53477319D02*
X150383928Y-52477319D01*
X150383928Y-52477319D02*
X150955356Y-53477319D01*
X150955356Y-53477319D02*
X150955356Y-52477319D01*
X151574404Y-53477319D02*
X151479166Y-53429700D01*
X151479166Y-53429700D02*
X151431547Y-53382080D01*
X151431547Y-53382080D02*
X151383928Y-53286842D01*
X151383928Y-53286842D02*
X151383928Y-53001128D01*
X151383928Y-53001128D02*
X151431547Y-52905890D01*
X151431547Y-52905890D02*
X151479166Y-52858271D01*
X151479166Y-52858271D02*
X151574404Y-52810652D01*
X151574404Y-52810652D02*
X151717261Y-52810652D01*
X151717261Y-52810652D02*
X151812499Y-52858271D01*
X151812499Y-52858271D02*
X151860118Y-52905890D01*
X151860118Y-52905890D02*
X151907737Y-53001128D01*
X151907737Y-53001128D02*
X151907737Y-53286842D01*
X151907737Y-53286842D02*
X151860118Y-53382080D01*
X151860118Y-53382080D02*
X151812499Y-53429700D01*
X151812499Y-53429700D02*
X151717261Y-53477319D01*
X151717261Y-53477319D02*
X151574404Y-53477319D01*
X152812499Y-53477319D02*
X152336309Y-53477319D01*
X152336309Y-53477319D02*
X152336309Y-52477319D01*
X153145833Y-52953509D02*
X153479166Y-52953509D01*
X153622023Y-53477319D02*
X153145833Y-53477319D01*
X153145833Y-53477319D02*
X153145833Y-52477319D01*
X153145833Y-52477319D02*
X153622023Y-52477319D01*
X154050595Y-53477319D02*
X154050595Y-52477319D01*
X154050595Y-52477319D02*
X154288690Y-52477319D01*
X154288690Y-52477319D02*
X154431547Y-52524938D01*
X154431547Y-52524938D02*
X154526785Y-52620176D01*
X154526785Y-52620176D02*
X154574404Y-52715414D01*
X154574404Y-52715414D02*
X154622023Y-52905890D01*
X154622023Y-52905890D02*
X154622023Y-53048747D01*
X154622023Y-53048747D02*
X154574404Y-53239223D01*
X154574404Y-53239223D02*
X154526785Y-53334461D01*
X154526785Y-53334461D02*
X154431547Y-53429700D01*
X154431547Y-53429700D02*
X154288690Y-53477319D01*
X154288690Y-53477319D02*
X154050595Y-53477319D01*
%TO.C,MX44*%
X213725595Y-72527319D02*
X213725595Y-71527319D01*
X213725595Y-71527319D02*
X214058928Y-72241604D01*
X214058928Y-72241604D02*
X214392261Y-71527319D01*
X214392261Y-71527319D02*
X214392261Y-72527319D01*
X214773214Y-71527319D02*
X215439880Y-72527319D01*
X215439880Y-71527319D02*
X214773214Y-72527319D01*
X215820833Y-72146366D02*
X216582738Y-72146366D01*
X217058928Y-72527319D02*
X217058928Y-71527319D01*
X217058928Y-71527319D02*
X217630356Y-72527319D01*
X217630356Y-72527319D02*
X217630356Y-71527319D01*
X218249404Y-72527319D02*
X218154166Y-72479700D01*
X218154166Y-72479700D02*
X218106547Y-72432080D01*
X218106547Y-72432080D02*
X218058928Y-72336842D01*
X218058928Y-72336842D02*
X218058928Y-72051128D01*
X218058928Y-72051128D02*
X218106547Y-71955890D01*
X218106547Y-71955890D02*
X218154166Y-71908271D01*
X218154166Y-71908271D02*
X218249404Y-71860652D01*
X218249404Y-71860652D02*
X218392261Y-71860652D01*
X218392261Y-71860652D02*
X218487499Y-71908271D01*
X218487499Y-71908271D02*
X218535118Y-71955890D01*
X218535118Y-71955890D02*
X218582737Y-72051128D01*
X218582737Y-72051128D02*
X218582737Y-72336842D01*
X218582737Y-72336842D02*
X218535118Y-72432080D01*
X218535118Y-72432080D02*
X218487499Y-72479700D01*
X218487499Y-72479700D02*
X218392261Y-72527319D01*
X218392261Y-72527319D02*
X218249404Y-72527319D01*
X219487499Y-72527319D02*
X219011309Y-72527319D01*
X219011309Y-72527319D02*
X219011309Y-71527319D01*
X219820833Y-72003509D02*
X220154166Y-72003509D01*
X220297023Y-72527319D02*
X219820833Y-72527319D01*
X219820833Y-72527319D02*
X219820833Y-71527319D01*
X219820833Y-71527319D02*
X220297023Y-71527319D01*
X220725595Y-72527319D02*
X220725595Y-71527319D01*
X220725595Y-71527319D02*
X220963690Y-71527319D01*
X220963690Y-71527319D02*
X221106547Y-71574938D01*
X221106547Y-71574938D02*
X221201785Y-71670176D01*
X221201785Y-71670176D02*
X221249404Y-71765414D01*
X221249404Y-71765414D02*
X221297023Y-71955890D01*
X221297023Y-71955890D02*
X221297023Y-72098747D01*
X221297023Y-72098747D02*
X221249404Y-72289223D01*
X221249404Y-72289223D02*
X221201785Y-72384461D01*
X221201785Y-72384461D02*
X221106547Y-72479700D01*
X221106547Y-72479700D02*
X220963690Y-72527319D01*
X220963690Y-72527319D02*
X220725595Y-72527319D01*
%TO.C,MX40*%
X182769345Y-129677319D02*
X182769345Y-128677319D01*
X182769345Y-128677319D02*
X183102678Y-129391604D01*
X183102678Y-129391604D02*
X183436011Y-128677319D01*
X183436011Y-128677319D02*
X183436011Y-129677319D01*
X183816964Y-128677319D02*
X184483630Y-129677319D01*
X184483630Y-128677319D02*
X183816964Y-129677319D01*
X184864583Y-129296366D02*
X185626488Y-129296366D01*
X186102678Y-129677319D02*
X186102678Y-128677319D01*
X186102678Y-128677319D02*
X186674106Y-129677319D01*
X186674106Y-129677319D02*
X186674106Y-128677319D01*
X187293154Y-129677319D02*
X187197916Y-129629700D01*
X187197916Y-129629700D02*
X187150297Y-129582080D01*
X187150297Y-129582080D02*
X187102678Y-129486842D01*
X187102678Y-129486842D02*
X187102678Y-129201128D01*
X187102678Y-129201128D02*
X187150297Y-129105890D01*
X187150297Y-129105890D02*
X187197916Y-129058271D01*
X187197916Y-129058271D02*
X187293154Y-129010652D01*
X187293154Y-129010652D02*
X187436011Y-129010652D01*
X187436011Y-129010652D02*
X187531249Y-129058271D01*
X187531249Y-129058271D02*
X187578868Y-129105890D01*
X187578868Y-129105890D02*
X187626487Y-129201128D01*
X187626487Y-129201128D02*
X187626487Y-129486842D01*
X187626487Y-129486842D02*
X187578868Y-129582080D01*
X187578868Y-129582080D02*
X187531249Y-129629700D01*
X187531249Y-129629700D02*
X187436011Y-129677319D01*
X187436011Y-129677319D02*
X187293154Y-129677319D01*
X188531249Y-129677319D02*
X188055059Y-129677319D01*
X188055059Y-129677319D02*
X188055059Y-128677319D01*
X188864583Y-129153509D02*
X189197916Y-129153509D01*
X189340773Y-129677319D02*
X188864583Y-129677319D01*
X188864583Y-129677319D02*
X188864583Y-128677319D01*
X188864583Y-128677319D02*
X189340773Y-128677319D01*
X189769345Y-129677319D02*
X189769345Y-128677319D01*
X189769345Y-128677319D02*
X190007440Y-128677319D01*
X190007440Y-128677319D02*
X190150297Y-128724938D01*
X190150297Y-128724938D02*
X190245535Y-128820176D01*
X190245535Y-128820176D02*
X190293154Y-128915414D01*
X190293154Y-128915414D02*
X190340773Y-129105890D01*
X190340773Y-129105890D02*
X190340773Y-129248747D01*
X190340773Y-129248747D02*
X190293154Y-129439223D01*
X190293154Y-129439223D02*
X190245535Y-129534461D01*
X190245535Y-129534461D02*
X190150297Y-129629700D01*
X190150297Y-129629700D02*
X190007440Y-129677319D01*
X190007440Y-129677319D02*
X189769345Y-129677319D01*
%TO.C,MX22*%
X47038095Y-91577319D02*
X47038095Y-90577319D01*
X47038095Y-90577319D02*
X47371428Y-91291604D01*
X47371428Y-91291604D02*
X47704761Y-90577319D01*
X47704761Y-90577319D02*
X47704761Y-91577319D01*
X48085714Y-90577319D02*
X48752380Y-91577319D01*
X48752380Y-90577319D02*
X48085714Y-91577319D01*
X49133333Y-91196366D02*
X49895238Y-91196366D01*
X50371428Y-91577319D02*
X50371428Y-90577319D01*
X50371428Y-90577319D02*
X50942856Y-91577319D01*
X50942856Y-91577319D02*
X50942856Y-90577319D01*
X51561904Y-91577319D02*
X51466666Y-91529700D01*
X51466666Y-91529700D02*
X51419047Y-91482080D01*
X51419047Y-91482080D02*
X51371428Y-91386842D01*
X51371428Y-91386842D02*
X51371428Y-91101128D01*
X51371428Y-91101128D02*
X51419047Y-91005890D01*
X51419047Y-91005890D02*
X51466666Y-90958271D01*
X51466666Y-90958271D02*
X51561904Y-90910652D01*
X51561904Y-90910652D02*
X51704761Y-90910652D01*
X51704761Y-90910652D02*
X51799999Y-90958271D01*
X51799999Y-90958271D02*
X51847618Y-91005890D01*
X51847618Y-91005890D02*
X51895237Y-91101128D01*
X51895237Y-91101128D02*
X51895237Y-91386842D01*
X51895237Y-91386842D02*
X51847618Y-91482080D01*
X51847618Y-91482080D02*
X51799999Y-91529700D01*
X51799999Y-91529700D02*
X51704761Y-91577319D01*
X51704761Y-91577319D02*
X51561904Y-91577319D01*
X52799999Y-91577319D02*
X52323809Y-91577319D01*
X52323809Y-91577319D02*
X52323809Y-90577319D01*
X53133333Y-91053509D02*
X53466666Y-91053509D01*
X53609523Y-91577319D02*
X53133333Y-91577319D01*
X53133333Y-91577319D02*
X53133333Y-90577319D01*
X53133333Y-90577319D02*
X53609523Y-90577319D01*
X54038095Y-91577319D02*
X54038095Y-90577319D01*
X54038095Y-90577319D02*
X54276190Y-90577319D01*
X54276190Y-90577319D02*
X54419047Y-90624938D01*
X54419047Y-90624938D02*
X54514285Y-90720176D01*
X54514285Y-90720176D02*
X54561904Y-90815414D01*
X54561904Y-90815414D02*
X54609523Y-91005890D01*
X54609523Y-91005890D02*
X54609523Y-91148747D01*
X54609523Y-91148747D02*
X54561904Y-91339223D01*
X54561904Y-91339223D02*
X54514285Y-91434461D01*
X54514285Y-91434461D02*
X54419047Y-91529700D01*
X54419047Y-91529700D02*
X54276190Y-91577319D01*
X54276190Y-91577319D02*
X54038095Y-91577319D01*
%TO.C,MX14*%
X42275595Y-72527319D02*
X42275595Y-71527319D01*
X42275595Y-71527319D02*
X42608928Y-72241604D01*
X42608928Y-72241604D02*
X42942261Y-71527319D01*
X42942261Y-71527319D02*
X42942261Y-72527319D01*
X43323214Y-71527319D02*
X43989880Y-72527319D01*
X43989880Y-71527319D02*
X43323214Y-72527319D01*
X44370833Y-72146366D02*
X45132738Y-72146366D01*
X45608928Y-72527319D02*
X45608928Y-71527319D01*
X45608928Y-71527319D02*
X46180356Y-72527319D01*
X46180356Y-72527319D02*
X46180356Y-71527319D01*
X46799404Y-72527319D02*
X46704166Y-72479700D01*
X46704166Y-72479700D02*
X46656547Y-72432080D01*
X46656547Y-72432080D02*
X46608928Y-72336842D01*
X46608928Y-72336842D02*
X46608928Y-72051128D01*
X46608928Y-72051128D02*
X46656547Y-71955890D01*
X46656547Y-71955890D02*
X46704166Y-71908271D01*
X46704166Y-71908271D02*
X46799404Y-71860652D01*
X46799404Y-71860652D02*
X46942261Y-71860652D01*
X46942261Y-71860652D02*
X47037499Y-71908271D01*
X47037499Y-71908271D02*
X47085118Y-71955890D01*
X47085118Y-71955890D02*
X47132737Y-72051128D01*
X47132737Y-72051128D02*
X47132737Y-72336842D01*
X47132737Y-72336842D02*
X47085118Y-72432080D01*
X47085118Y-72432080D02*
X47037499Y-72479700D01*
X47037499Y-72479700D02*
X46942261Y-72527319D01*
X46942261Y-72527319D02*
X46799404Y-72527319D01*
X48037499Y-72527319D02*
X47561309Y-72527319D01*
X47561309Y-72527319D02*
X47561309Y-71527319D01*
X48370833Y-72003509D02*
X48704166Y-72003509D01*
X48847023Y-72527319D02*
X48370833Y-72527319D01*
X48370833Y-72527319D02*
X48370833Y-71527319D01*
X48370833Y-71527319D02*
X48847023Y-71527319D01*
X49275595Y-72527319D02*
X49275595Y-71527319D01*
X49275595Y-71527319D02*
X49513690Y-71527319D01*
X49513690Y-71527319D02*
X49656547Y-71574938D01*
X49656547Y-71574938D02*
X49751785Y-71670176D01*
X49751785Y-71670176D02*
X49799404Y-71765414D01*
X49799404Y-71765414D02*
X49847023Y-71955890D01*
X49847023Y-71955890D02*
X49847023Y-72098747D01*
X49847023Y-72098747D02*
X49799404Y-72289223D01*
X49799404Y-72289223D02*
X49751785Y-72384461D01*
X49751785Y-72384461D02*
X49656547Y-72479700D01*
X49656547Y-72479700D02*
X49513690Y-72527319D01*
X49513690Y-72527319D02*
X49275595Y-72527319D01*
%TO.C,MX35*%
X168481845Y-110627319D02*
X168481845Y-109627319D01*
X168481845Y-109627319D02*
X168815178Y-110341604D01*
X168815178Y-110341604D02*
X169148511Y-109627319D01*
X169148511Y-109627319D02*
X169148511Y-110627319D01*
X169529464Y-109627319D02*
X170196130Y-110627319D01*
X170196130Y-109627319D02*
X169529464Y-110627319D01*
X170577083Y-110246366D02*
X171338988Y-110246366D01*
X171815178Y-110627319D02*
X171815178Y-109627319D01*
X171815178Y-109627319D02*
X172386606Y-110627319D01*
X172386606Y-110627319D02*
X172386606Y-109627319D01*
X173005654Y-110627319D02*
X172910416Y-110579700D01*
X172910416Y-110579700D02*
X172862797Y-110532080D01*
X172862797Y-110532080D02*
X172815178Y-110436842D01*
X172815178Y-110436842D02*
X172815178Y-110151128D01*
X172815178Y-110151128D02*
X172862797Y-110055890D01*
X172862797Y-110055890D02*
X172910416Y-110008271D01*
X172910416Y-110008271D02*
X173005654Y-109960652D01*
X173005654Y-109960652D02*
X173148511Y-109960652D01*
X173148511Y-109960652D02*
X173243749Y-110008271D01*
X173243749Y-110008271D02*
X173291368Y-110055890D01*
X173291368Y-110055890D02*
X173338987Y-110151128D01*
X173338987Y-110151128D02*
X173338987Y-110436842D01*
X173338987Y-110436842D02*
X173291368Y-110532080D01*
X173291368Y-110532080D02*
X173243749Y-110579700D01*
X173243749Y-110579700D02*
X173148511Y-110627319D01*
X173148511Y-110627319D02*
X173005654Y-110627319D01*
X174243749Y-110627319D02*
X173767559Y-110627319D01*
X173767559Y-110627319D02*
X173767559Y-109627319D01*
X174577083Y-110103509D02*
X174910416Y-110103509D01*
X175053273Y-110627319D02*
X174577083Y-110627319D01*
X174577083Y-110627319D02*
X174577083Y-109627319D01*
X174577083Y-109627319D02*
X175053273Y-109627319D01*
X175481845Y-110627319D02*
X175481845Y-109627319D01*
X175481845Y-109627319D02*
X175719940Y-109627319D01*
X175719940Y-109627319D02*
X175862797Y-109674938D01*
X175862797Y-109674938D02*
X175958035Y-109770176D01*
X175958035Y-109770176D02*
X176005654Y-109865414D01*
X176005654Y-109865414D02*
X176053273Y-110055890D01*
X176053273Y-110055890D02*
X176053273Y-110198747D01*
X176053273Y-110198747D02*
X176005654Y-110389223D01*
X176005654Y-110389223D02*
X175958035Y-110484461D01*
X175958035Y-110484461D02*
X175862797Y-110579700D01*
X175862797Y-110579700D02*
X175719940Y-110627319D01*
X175719940Y-110627319D02*
X175481845Y-110627319D01*
%TO.C,MX24*%
X85138095Y-91577319D02*
X85138095Y-90577319D01*
X85138095Y-90577319D02*
X85471428Y-91291604D01*
X85471428Y-91291604D02*
X85804761Y-90577319D01*
X85804761Y-90577319D02*
X85804761Y-91577319D01*
X86185714Y-90577319D02*
X86852380Y-91577319D01*
X86852380Y-90577319D02*
X86185714Y-91577319D01*
X87233333Y-91196366D02*
X87995238Y-91196366D01*
X88471428Y-91577319D02*
X88471428Y-90577319D01*
X88471428Y-90577319D02*
X89042856Y-91577319D01*
X89042856Y-91577319D02*
X89042856Y-90577319D01*
X89661904Y-91577319D02*
X89566666Y-91529700D01*
X89566666Y-91529700D02*
X89519047Y-91482080D01*
X89519047Y-91482080D02*
X89471428Y-91386842D01*
X89471428Y-91386842D02*
X89471428Y-91101128D01*
X89471428Y-91101128D02*
X89519047Y-91005890D01*
X89519047Y-91005890D02*
X89566666Y-90958271D01*
X89566666Y-90958271D02*
X89661904Y-90910652D01*
X89661904Y-90910652D02*
X89804761Y-90910652D01*
X89804761Y-90910652D02*
X89899999Y-90958271D01*
X89899999Y-90958271D02*
X89947618Y-91005890D01*
X89947618Y-91005890D02*
X89995237Y-91101128D01*
X89995237Y-91101128D02*
X89995237Y-91386842D01*
X89995237Y-91386842D02*
X89947618Y-91482080D01*
X89947618Y-91482080D02*
X89899999Y-91529700D01*
X89899999Y-91529700D02*
X89804761Y-91577319D01*
X89804761Y-91577319D02*
X89661904Y-91577319D01*
X90899999Y-91577319D02*
X90423809Y-91577319D01*
X90423809Y-91577319D02*
X90423809Y-90577319D01*
X91233333Y-91053509D02*
X91566666Y-91053509D01*
X91709523Y-91577319D02*
X91233333Y-91577319D01*
X91233333Y-91577319D02*
X91233333Y-90577319D01*
X91233333Y-90577319D02*
X91709523Y-90577319D01*
X92138095Y-91577319D02*
X92138095Y-90577319D01*
X92138095Y-90577319D02*
X92376190Y-90577319D01*
X92376190Y-90577319D02*
X92519047Y-90624938D01*
X92519047Y-90624938D02*
X92614285Y-90720176D01*
X92614285Y-90720176D02*
X92661904Y-90815414D01*
X92661904Y-90815414D02*
X92709523Y-91005890D01*
X92709523Y-91005890D02*
X92709523Y-91148747D01*
X92709523Y-91148747D02*
X92661904Y-91339223D01*
X92661904Y-91339223D02*
X92614285Y-91434461D01*
X92614285Y-91434461D02*
X92519047Y-91529700D01*
X92519047Y-91529700D02*
X92376190Y-91577319D01*
X92376190Y-91577319D02*
X92138095Y-91577319D01*
%TO.C,MX43*%
X251825595Y-53477319D02*
X251825595Y-52477319D01*
X251825595Y-52477319D02*
X252158928Y-53191604D01*
X252158928Y-53191604D02*
X252492261Y-52477319D01*
X252492261Y-52477319D02*
X252492261Y-53477319D01*
X252873214Y-52477319D02*
X253539880Y-53477319D01*
X253539880Y-52477319D02*
X252873214Y-53477319D01*
X253920833Y-53096366D02*
X254682738Y-53096366D01*
X255158928Y-53477319D02*
X255158928Y-52477319D01*
X255158928Y-52477319D02*
X255730356Y-53477319D01*
X255730356Y-53477319D02*
X255730356Y-52477319D01*
X256349404Y-53477319D02*
X256254166Y-53429700D01*
X256254166Y-53429700D02*
X256206547Y-53382080D01*
X256206547Y-53382080D02*
X256158928Y-53286842D01*
X256158928Y-53286842D02*
X256158928Y-53001128D01*
X256158928Y-53001128D02*
X256206547Y-52905890D01*
X256206547Y-52905890D02*
X256254166Y-52858271D01*
X256254166Y-52858271D02*
X256349404Y-52810652D01*
X256349404Y-52810652D02*
X256492261Y-52810652D01*
X256492261Y-52810652D02*
X256587499Y-52858271D01*
X256587499Y-52858271D02*
X256635118Y-52905890D01*
X256635118Y-52905890D02*
X256682737Y-53001128D01*
X256682737Y-53001128D02*
X256682737Y-53286842D01*
X256682737Y-53286842D02*
X256635118Y-53382080D01*
X256635118Y-53382080D02*
X256587499Y-53429700D01*
X256587499Y-53429700D02*
X256492261Y-53477319D01*
X256492261Y-53477319D02*
X256349404Y-53477319D01*
X257587499Y-53477319D02*
X257111309Y-53477319D01*
X257111309Y-53477319D02*
X257111309Y-52477319D01*
X257920833Y-52953509D02*
X258254166Y-52953509D01*
X258397023Y-53477319D02*
X257920833Y-53477319D01*
X257920833Y-53477319D02*
X257920833Y-52477319D01*
X257920833Y-52477319D02*
X258397023Y-52477319D01*
X258825595Y-53477319D02*
X258825595Y-52477319D01*
X258825595Y-52477319D02*
X259063690Y-52477319D01*
X259063690Y-52477319D02*
X259206547Y-52524938D01*
X259206547Y-52524938D02*
X259301785Y-52620176D01*
X259301785Y-52620176D02*
X259349404Y-52715414D01*
X259349404Y-52715414D02*
X259397023Y-52905890D01*
X259397023Y-52905890D02*
X259397023Y-53048747D01*
X259397023Y-53048747D02*
X259349404Y-53239223D01*
X259349404Y-53239223D02*
X259301785Y-53334461D01*
X259301785Y-53334461D02*
X259206547Y-53429700D01*
X259206547Y-53429700D02*
X259063690Y-53477319D01*
X259063690Y-53477319D02*
X258825595Y-53477319D01*
%TO.C,MX38*%
X135144345Y-129677319D02*
X135144345Y-128677319D01*
X135144345Y-128677319D02*
X135477678Y-129391604D01*
X135477678Y-129391604D02*
X135811011Y-128677319D01*
X135811011Y-128677319D02*
X135811011Y-129677319D01*
X136191964Y-128677319D02*
X136858630Y-129677319D01*
X136858630Y-128677319D02*
X136191964Y-129677319D01*
X137239583Y-129296366D02*
X138001488Y-129296366D01*
X138477678Y-129677319D02*
X138477678Y-128677319D01*
X138477678Y-128677319D02*
X139049106Y-129677319D01*
X139049106Y-129677319D02*
X139049106Y-128677319D01*
X139668154Y-129677319D02*
X139572916Y-129629700D01*
X139572916Y-129629700D02*
X139525297Y-129582080D01*
X139525297Y-129582080D02*
X139477678Y-129486842D01*
X139477678Y-129486842D02*
X139477678Y-129201128D01*
X139477678Y-129201128D02*
X139525297Y-129105890D01*
X139525297Y-129105890D02*
X139572916Y-129058271D01*
X139572916Y-129058271D02*
X139668154Y-129010652D01*
X139668154Y-129010652D02*
X139811011Y-129010652D01*
X139811011Y-129010652D02*
X139906249Y-129058271D01*
X139906249Y-129058271D02*
X139953868Y-129105890D01*
X139953868Y-129105890D02*
X140001487Y-129201128D01*
X140001487Y-129201128D02*
X140001487Y-129486842D01*
X140001487Y-129486842D02*
X139953868Y-129582080D01*
X139953868Y-129582080D02*
X139906249Y-129629700D01*
X139906249Y-129629700D02*
X139811011Y-129677319D01*
X139811011Y-129677319D02*
X139668154Y-129677319D01*
X140906249Y-129677319D02*
X140430059Y-129677319D01*
X140430059Y-129677319D02*
X140430059Y-128677319D01*
X141239583Y-129153509D02*
X141572916Y-129153509D01*
X141715773Y-129677319D02*
X141239583Y-129677319D01*
X141239583Y-129677319D02*
X141239583Y-128677319D01*
X141239583Y-128677319D02*
X141715773Y-128677319D01*
X142144345Y-129677319D02*
X142144345Y-128677319D01*
X142144345Y-128677319D02*
X142382440Y-128677319D01*
X142382440Y-128677319D02*
X142525297Y-128724938D01*
X142525297Y-128724938D02*
X142620535Y-128820176D01*
X142620535Y-128820176D02*
X142668154Y-128915414D01*
X142668154Y-128915414D02*
X142715773Y-129105890D01*
X142715773Y-129105890D02*
X142715773Y-129248747D01*
X142715773Y-129248747D02*
X142668154Y-129439223D01*
X142668154Y-129439223D02*
X142620535Y-129534461D01*
X142620535Y-129534461D02*
X142525297Y-129629700D01*
X142525297Y-129629700D02*
X142382440Y-129677319D01*
X142382440Y-129677319D02*
X142144345Y-129677319D01*
%TO.C,MX7*%
X51800595Y-53477319D02*
X51800595Y-52477319D01*
X51800595Y-52477319D02*
X52133928Y-53191604D01*
X52133928Y-53191604D02*
X52467261Y-52477319D01*
X52467261Y-52477319D02*
X52467261Y-53477319D01*
X52848214Y-52477319D02*
X53514880Y-53477319D01*
X53514880Y-52477319D02*
X52848214Y-53477319D01*
X53895833Y-53096366D02*
X54657738Y-53096366D01*
X55133928Y-53477319D02*
X55133928Y-52477319D01*
X55133928Y-52477319D02*
X55705356Y-53477319D01*
X55705356Y-53477319D02*
X55705356Y-52477319D01*
X56324404Y-53477319D02*
X56229166Y-53429700D01*
X56229166Y-53429700D02*
X56181547Y-53382080D01*
X56181547Y-53382080D02*
X56133928Y-53286842D01*
X56133928Y-53286842D02*
X56133928Y-53001128D01*
X56133928Y-53001128D02*
X56181547Y-52905890D01*
X56181547Y-52905890D02*
X56229166Y-52858271D01*
X56229166Y-52858271D02*
X56324404Y-52810652D01*
X56324404Y-52810652D02*
X56467261Y-52810652D01*
X56467261Y-52810652D02*
X56562499Y-52858271D01*
X56562499Y-52858271D02*
X56610118Y-52905890D01*
X56610118Y-52905890D02*
X56657737Y-53001128D01*
X56657737Y-53001128D02*
X56657737Y-53286842D01*
X56657737Y-53286842D02*
X56610118Y-53382080D01*
X56610118Y-53382080D02*
X56562499Y-53429700D01*
X56562499Y-53429700D02*
X56467261Y-53477319D01*
X56467261Y-53477319D02*
X56324404Y-53477319D01*
X57562499Y-53477319D02*
X57086309Y-53477319D01*
X57086309Y-53477319D02*
X57086309Y-52477319D01*
X57895833Y-52953509D02*
X58229166Y-52953509D01*
X58372023Y-53477319D02*
X57895833Y-53477319D01*
X57895833Y-53477319D02*
X57895833Y-52477319D01*
X57895833Y-52477319D02*
X58372023Y-52477319D01*
X58800595Y-53477319D02*
X58800595Y-52477319D01*
X58800595Y-52477319D02*
X59038690Y-52477319D01*
X59038690Y-52477319D02*
X59181547Y-52524938D01*
X59181547Y-52524938D02*
X59276785Y-52620176D01*
X59276785Y-52620176D02*
X59324404Y-52715414D01*
X59324404Y-52715414D02*
X59372023Y-52905890D01*
X59372023Y-52905890D02*
X59372023Y-53048747D01*
X59372023Y-53048747D02*
X59324404Y-53239223D01*
X59324404Y-53239223D02*
X59276785Y-53334461D01*
X59276785Y-53334461D02*
X59181547Y-53429700D01*
X59181547Y-53429700D02*
X59038690Y-53477319D01*
X59038690Y-53477319D02*
X58800595Y-53477319D01*
%TO.C,MX30*%
X56563095Y-110627319D02*
X56563095Y-109627319D01*
X56563095Y-109627319D02*
X56896428Y-110341604D01*
X56896428Y-110341604D02*
X57229761Y-109627319D01*
X57229761Y-109627319D02*
X57229761Y-110627319D01*
X57610714Y-109627319D02*
X58277380Y-110627319D01*
X58277380Y-109627319D02*
X57610714Y-110627319D01*
X58658333Y-110246366D02*
X59420238Y-110246366D01*
X59896428Y-110627319D02*
X59896428Y-109627319D01*
X59896428Y-109627319D02*
X60467856Y-110627319D01*
X60467856Y-110627319D02*
X60467856Y-109627319D01*
X61086904Y-110627319D02*
X60991666Y-110579700D01*
X60991666Y-110579700D02*
X60944047Y-110532080D01*
X60944047Y-110532080D02*
X60896428Y-110436842D01*
X60896428Y-110436842D02*
X60896428Y-110151128D01*
X60896428Y-110151128D02*
X60944047Y-110055890D01*
X60944047Y-110055890D02*
X60991666Y-110008271D01*
X60991666Y-110008271D02*
X61086904Y-109960652D01*
X61086904Y-109960652D02*
X61229761Y-109960652D01*
X61229761Y-109960652D02*
X61324999Y-110008271D01*
X61324999Y-110008271D02*
X61372618Y-110055890D01*
X61372618Y-110055890D02*
X61420237Y-110151128D01*
X61420237Y-110151128D02*
X61420237Y-110436842D01*
X61420237Y-110436842D02*
X61372618Y-110532080D01*
X61372618Y-110532080D02*
X61324999Y-110579700D01*
X61324999Y-110579700D02*
X61229761Y-110627319D01*
X61229761Y-110627319D02*
X61086904Y-110627319D01*
X62324999Y-110627319D02*
X61848809Y-110627319D01*
X61848809Y-110627319D02*
X61848809Y-109627319D01*
X62658333Y-110103509D02*
X62991666Y-110103509D01*
X63134523Y-110627319D02*
X62658333Y-110627319D01*
X62658333Y-110627319D02*
X62658333Y-109627319D01*
X62658333Y-109627319D02*
X63134523Y-109627319D01*
X63563095Y-110627319D02*
X63563095Y-109627319D01*
X63563095Y-109627319D02*
X63801190Y-109627319D01*
X63801190Y-109627319D02*
X63944047Y-109674938D01*
X63944047Y-109674938D02*
X64039285Y-109770176D01*
X64039285Y-109770176D02*
X64086904Y-109865414D01*
X64086904Y-109865414D02*
X64134523Y-110055890D01*
X64134523Y-110055890D02*
X64134523Y-110198747D01*
X64134523Y-110198747D02*
X64086904Y-110389223D01*
X64086904Y-110389223D02*
X64039285Y-110484461D01*
X64039285Y-110484461D02*
X63944047Y-110579700D01*
X63944047Y-110579700D02*
X63801190Y-110627319D01*
X63801190Y-110627319D02*
X63563095Y-110627319D01*
%TO.C,U2*%
X42904819Y-50484404D02*
X43714342Y-50484404D01*
X43714342Y-50484404D02*
X43809580Y-50436785D01*
X43809580Y-50436785D02*
X43857200Y-50389166D01*
X43857200Y-50389166D02*
X43904819Y-50293928D01*
X43904819Y-50293928D02*
X43904819Y-50103452D01*
X43904819Y-50103452D02*
X43857200Y-50008214D01*
X43857200Y-50008214D02*
X43809580Y-49960595D01*
X43809580Y-49960595D02*
X43714342Y-49912976D01*
X43714342Y-49912976D02*
X42904819Y-49912976D01*
X43000057Y-49484404D02*
X42952438Y-49436785D01*
X42952438Y-49436785D02*
X42904819Y-49341547D01*
X42904819Y-49341547D02*
X42904819Y-49103452D01*
X42904819Y-49103452D02*
X42952438Y-49008214D01*
X42952438Y-49008214D02*
X43000057Y-48960595D01*
X43000057Y-48960595D02*
X43095295Y-48912976D01*
X43095295Y-48912976D02*
X43190533Y-48912976D01*
X43190533Y-48912976D02*
X43333390Y-48960595D01*
X43333390Y-48960595D02*
X43904819Y-49532023D01*
X43904819Y-49532023D02*
X43904819Y-48912976D01*
%TO.C,MX41*%
X213725595Y-53477319D02*
X213725595Y-52477319D01*
X213725595Y-52477319D02*
X214058928Y-53191604D01*
X214058928Y-53191604D02*
X214392261Y-52477319D01*
X214392261Y-52477319D02*
X214392261Y-53477319D01*
X214773214Y-52477319D02*
X215439880Y-53477319D01*
X215439880Y-52477319D02*
X214773214Y-53477319D01*
X215820833Y-53096366D02*
X216582738Y-53096366D01*
X217058928Y-53477319D02*
X217058928Y-52477319D01*
X217058928Y-52477319D02*
X217630356Y-53477319D01*
X217630356Y-53477319D02*
X217630356Y-52477319D01*
X218249404Y-53477319D02*
X218154166Y-53429700D01*
X218154166Y-53429700D02*
X218106547Y-53382080D01*
X218106547Y-53382080D02*
X218058928Y-53286842D01*
X218058928Y-53286842D02*
X218058928Y-53001128D01*
X218058928Y-53001128D02*
X218106547Y-52905890D01*
X218106547Y-52905890D02*
X218154166Y-52858271D01*
X218154166Y-52858271D02*
X218249404Y-52810652D01*
X218249404Y-52810652D02*
X218392261Y-52810652D01*
X218392261Y-52810652D02*
X218487499Y-52858271D01*
X218487499Y-52858271D02*
X218535118Y-52905890D01*
X218535118Y-52905890D02*
X218582737Y-53001128D01*
X218582737Y-53001128D02*
X218582737Y-53286842D01*
X218582737Y-53286842D02*
X218535118Y-53382080D01*
X218535118Y-53382080D02*
X218487499Y-53429700D01*
X218487499Y-53429700D02*
X218392261Y-53477319D01*
X218392261Y-53477319D02*
X218249404Y-53477319D01*
X219487499Y-53477319D02*
X219011309Y-53477319D01*
X219011309Y-53477319D02*
X219011309Y-52477319D01*
X219820833Y-52953509D02*
X220154166Y-52953509D01*
X220297023Y-53477319D02*
X219820833Y-53477319D01*
X219820833Y-53477319D02*
X219820833Y-52477319D01*
X219820833Y-52477319D02*
X220297023Y-52477319D01*
X220725595Y-53477319D02*
X220725595Y-52477319D01*
X220725595Y-52477319D02*
X220963690Y-52477319D01*
X220963690Y-52477319D02*
X221106547Y-52524938D01*
X221106547Y-52524938D02*
X221201785Y-52620176D01*
X221201785Y-52620176D02*
X221249404Y-52715414D01*
X221249404Y-52715414D02*
X221297023Y-52905890D01*
X221297023Y-52905890D02*
X221297023Y-53048747D01*
X221297023Y-53048747D02*
X221249404Y-53239223D01*
X221249404Y-53239223D02*
X221201785Y-53334461D01*
X221201785Y-53334461D02*
X221106547Y-53429700D01*
X221106547Y-53429700D02*
X220963690Y-53477319D01*
X220963690Y-53477319D02*
X220725595Y-53477319D01*
%TO.C,MX34*%
X132763095Y-110627319D02*
X132763095Y-109627319D01*
X132763095Y-109627319D02*
X133096428Y-110341604D01*
X133096428Y-110341604D02*
X133429761Y-109627319D01*
X133429761Y-109627319D02*
X133429761Y-110627319D01*
X133810714Y-109627319D02*
X134477380Y-110627319D01*
X134477380Y-109627319D02*
X133810714Y-110627319D01*
X134858333Y-110246366D02*
X135620238Y-110246366D01*
X136096428Y-110627319D02*
X136096428Y-109627319D01*
X136096428Y-109627319D02*
X136667856Y-110627319D01*
X136667856Y-110627319D02*
X136667856Y-109627319D01*
X137286904Y-110627319D02*
X137191666Y-110579700D01*
X137191666Y-110579700D02*
X137144047Y-110532080D01*
X137144047Y-110532080D02*
X137096428Y-110436842D01*
X137096428Y-110436842D02*
X137096428Y-110151128D01*
X137096428Y-110151128D02*
X137144047Y-110055890D01*
X137144047Y-110055890D02*
X137191666Y-110008271D01*
X137191666Y-110008271D02*
X137286904Y-109960652D01*
X137286904Y-109960652D02*
X137429761Y-109960652D01*
X137429761Y-109960652D02*
X137524999Y-110008271D01*
X137524999Y-110008271D02*
X137572618Y-110055890D01*
X137572618Y-110055890D02*
X137620237Y-110151128D01*
X137620237Y-110151128D02*
X137620237Y-110436842D01*
X137620237Y-110436842D02*
X137572618Y-110532080D01*
X137572618Y-110532080D02*
X137524999Y-110579700D01*
X137524999Y-110579700D02*
X137429761Y-110627319D01*
X137429761Y-110627319D02*
X137286904Y-110627319D01*
X138524999Y-110627319D02*
X138048809Y-110627319D01*
X138048809Y-110627319D02*
X138048809Y-109627319D01*
X138858333Y-110103509D02*
X139191666Y-110103509D01*
X139334523Y-110627319D02*
X138858333Y-110627319D01*
X138858333Y-110627319D02*
X138858333Y-109627319D01*
X138858333Y-109627319D02*
X139334523Y-109627319D01*
X139763095Y-110627319D02*
X139763095Y-109627319D01*
X139763095Y-109627319D02*
X140001190Y-109627319D01*
X140001190Y-109627319D02*
X140144047Y-109674938D01*
X140144047Y-109674938D02*
X140239285Y-109770176D01*
X140239285Y-109770176D02*
X140286904Y-109865414D01*
X140286904Y-109865414D02*
X140334523Y-110055890D01*
X140334523Y-110055890D02*
X140334523Y-110198747D01*
X140334523Y-110198747D02*
X140286904Y-110389223D01*
X140286904Y-110389223D02*
X140239285Y-110484461D01*
X140239285Y-110484461D02*
X140144047Y-110579700D01*
X140144047Y-110579700D02*
X140001190Y-110627319D01*
X140001190Y-110627319D02*
X139763095Y-110627319D01*
%TO.C,MX47*%
X232775595Y-110627319D02*
X232775595Y-109627319D01*
X232775595Y-109627319D02*
X233108928Y-110341604D01*
X233108928Y-110341604D02*
X233442261Y-109627319D01*
X233442261Y-109627319D02*
X233442261Y-110627319D01*
X233823214Y-109627319D02*
X234489880Y-110627319D01*
X234489880Y-109627319D02*
X233823214Y-110627319D01*
X234870833Y-110246366D02*
X235632738Y-110246366D01*
X236108928Y-110627319D02*
X236108928Y-109627319D01*
X236108928Y-109627319D02*
X236680356Y-110627319D01*
X236680356Y-110627319D02*
X236680356Y-109627319D01*
X237299404Y-110627319D02*
X237204166Y-110579700D01*
X237204166Y-110579700D02*
X237156547Y-110532080D01*
X237156547Y-110532080D02*
X237108928Y-110436842D01*
X237108928Y-110436842D02*
X237108928Y-110151128D01*
X237108928Y-110151128D02*
X237156547Y-110055890D01*
X237156547Y-110055890D02*
X237204166Y-110008271D01*
X237204166Y-110008271D02*
X237299404Y-109960652D01*
X237299404Y-109960652D02*
X237442261Y-109960652D01*
X237442261Y-109960652D02*
X237537499Y-110008271D01*
X237537499Y-110008271D02*
X237585118Y-110055890D01*
X237585118Y-110055890D02*
X237632737Y-110151128D01*
X237632737Y-110151128D02*
X237632737Y-110436842D01*
X237632737Y-110436842D02*
X237585118Y-110532080D01*
X237585118Y-110532080D02*
X237537499Y-110579700D01*
X237537499Y-110579700D02*
X237442261Y-110627319D01*
X237442261Y-110627319D02*
X237299404Y-110627319D01*
X238537499Y-110627319D02*
X238061309Y-110627319D01*
X238061309Y-110627319D02*
X238061309Y-109627319D01*
X238870833Y-110103509D02*
X239204166Y-110103509D01*
X239347023Y-110627319D02*
X238870833Y-110627319D01*
X238870833Y-110627319D02*
X238870833Y-109627319D01*
X238870833Y-109627319D02*
X239347023Y-109627319D01*
X239775595Y-110627319D02*
X239775595Y-109627319D01*
X239775595Y-109627319D02*
X240013690Y-109627319D01*
X240013690Y-109627319D02*
X240156547Y-109674938D01*
X240156547Y-109674938D02*
X240251785Y-109770176D01*
X240251785Y-109770176D02*
X240299404Y-109865414D01*
X240299404Y-109865414D02*
X240347023Y-110055890D01*
X240347023Y-110055890D02*
X240347023Y-110198747D01*
X240347023Y-110198747D02*
X240299404Y-110389223D01*
X240299404Y-110389223D02*
X240251785Y-110484461D01*
X240251785Y-110484461D02*
X240156547Y-110579700D01*
X240156547Y-110579700D02*
X240013690Y-110627319D01*
X240013690Y-110627319D02*
X239775595Y-110627319D01*
%TO.C,MX2*%
X70850595Y-29664819D02*
X70850595Y-28664819D01*
X70850595Y-28664819D02*
X71183928Y-29379104D01*
X71183928Y-29379104D02*
X71517261Y-28664819D01*
X71517261Y-28664819D02*
X71517261Y-29664819D01*
X71898214Y-28664819D02*
X72564880Y-29664819D01*
X72564880Y-28664819D02*
X71898214Y-29664819D01*
X72945833Y-29283866D02*
X73707738Y-29283866D01*
X74183928Y-29664819D02*
X74183928Y-28664819D01*
X74183928Y-28664819D02*
X74755356Y-29664819D01*
X74755356Y-29664819D02*
X74755356Y-28664819D01*
X75374404Y-29664819D02*
X75279166Y-29617200D01*
X75279166Y-29617200D02*
X75231547Y-29569580D01*
X75231547Y-29569580D02*
X75183928Y-29474342D01*
X75183928Y-29474342D02*
X75183928Y-29188628D01*
X75183928Y-29188628D02*
X75231547Y-29093390D01*
X75231547Y-29093390D02*
X75279166Y-29045771D01*
X75279166Y-29045771D02*
X75374404Y-28998152D01*
X75374404Y-28998152D02*
X75517261Y-28998152D01*
X75517261Y-28998152D02*
X75612499Y-29045771D01*
X75612499Y-29045771D02*
X75660118Y-29093390D01*
X75660118Y-29093390D02*
X75707737Y-29188628D01*
X75707737Y-29188628D02*
X75707737Y-29474342D01*
X75707737Y-29474342D02*
X75660118Y-29569580D01*
X75660118Y-29569580D02*
X75612499Y-29617200D01*
X75612499Y-29617200D02*
X75517261Y-29664819D01*
X75517261Y-29664819D02*
X75374404Y-29664819D01*
X76612499Y-29664819D02*
X76136309Y-29664819D01*
X76136309Y-29664819D02*
X76136309Y-28664819D01*
X76945833Y-29141009D02*
X77279166Y-29141009D01*
X77422023Y-29664819D02*
X76945833Y-29664819D01*
X76945833Y-29664819D02*
X76945833Y-28664819D01*
X76945833Y-28664819D02*
X77422023Y-28664819D01*
X77850595Y-29664819D02*
X77850595Y-28664819D01*
X77850595Y-28664819D02*
X78088690Y-28664819D01*
X78088690Y-28664819D02*
X78231547Y-28712438D01*
X78231547Y-28712438D02*
X78326785Y-28807676D01*
X78326785Y-28807676D02*
X78374404Y-28902914D01*
X78374404Y-28902914D02*
X78422023Y-29093390D01*
X78422023Y-29093390D02*
X78422023Y-29236247D01*
X78422023Y-29236247D02*
X78374404Y-29426723D01*
X78374404Y-29426723D02*
X78326785Y-29521961D01*
X78326785Y-29521961D02*
X78231547Y-29617200D01*
X78231547Y-29617200D02*
X78088690Y-29664819D01*
X78088690Y-29664819D02*
X77850595Y-29664819D01*
%TO.C,MX6*%
X147050595Y-29664819D02*
X147050595Y-28664819D01*
X147050595Y-28664819D02*
X147383928Y-29379104D01*
X147383928Y-29379104D02*
X147717261Y-28664819D01*
X147717261Y-28664819D02*
X147717261Y-29664819D01*
X148098214Y-28664819D02*
X148764880Y-29664819D01*
X148764880Y-28664819D02*
X148098214Y-29664819D01*
X149145833Y-29283866D02*
X149907738Y-29283866D01*
X150383928Y-29664819D02*
X150383928Y-28664819D01*
X150383928Y-28664819D02*
X150955356Y-29664819D01*
X150955356Y-29664819D02*
X150955356Y-28664819D01*
X151574404Y-29664819D02*
X151479166Y-29617200D01*
X151479166Y-29617200D02*
X151431547Y-29569580D01*
X151431547Y-29569580D02*
X151383928Y-29474342D01*
X151383928Y-29474342D02*
X151383928Y-29188628D01*
X151383928Y-29188628D02*
X151431547Y-29093390D01*
X151431547Y-29093390D02*
X151479166Y-29045771D01*
X151479166Y-29045771D02*
X151574404Y-28998152D01*
X151574404Y-28998152D02*
X151717261Y-28998152D01*
X151717261Y-28998152D02*
X151812499Y-29045771D01*
X151812499Y-29045771D02*
X151860118Y-29093390D01*
X151860118Y-29093390D02*
X151907737Y-29188628D01*
X151907737Y-29188628D02*
X151907737Y-29474342D01*
X151907737Y-29474342D02*
X151860118Y-29569580D01*
X151860118Y-29569580D02*
X151812499Y-29617200D01*
X151812499Y-29617200D02*
X151717261Y-29664819D01*
X151717261Y-29664819D02*
X151574404Y-29664819D01*
X152812499Y-29664819D02*
X152336309Y-29664819D01*
X152336309Y-29664819D02*
X152336309Y-28664819D01*
X153145833Y-29141009D02*
X153479166Y-29141009D01*
X153622023Y-29664819D02*
X153145833Y-29664819D01*
X153145833Y-29664819D02*
X153145833Y-28664819D01*
X153145833Y-28664819D02*
X153622023Y-28664819D01*
X154050595Y-29664819D02*
X154050595Y-28664819D01*
X154050595Y-28664819D02*
X154288690Y-28664819D01*
X154288690Y-28664819D02*
X154431547Y-28712438D01*
X154431547Y-28712438D02*
X154526785Y-28807676D01*
X154526785Y-28807676D02*
X154574404Y-28902914D01*
X154574404Y-28902914D02*
X154622023Y-29093390D01*
X154622023Y-29093390D02*
X154622023Y-29236247D01*
X154622023Y-29236247D02*
X154574404Y-29426723D01*
X154574404Y-29426723D02*
X154526785Y-29521961D01*
X154526785Y-29521961D02*
X154431547Y-29617200D01*
X154431547Y-29617200D02*
X154288690Y-29664819D01*
X154288690Y-29664819D02*
X154050595Y-29664819D01*
%TO.C,MX39*%
X158956845Y-129677319D02*
X158956845Y-128677319D01*
X158956845Y-128677319D02*
X159290178Y-129391604D01*
X159290178Y-129391604D02*
X159623511Y-128677319D01*
X159623511Y-128677319D02*
X159623511Y-129677319D01*
X160004464Y-128677319D02*
X160671130Y-129677319D01*
X160671130Y-128677319D02*
X160004464Y-129677319D01*
X161052083Y-129296366D02*
X161813988Y-129296366D01*
X162290178Y-129677319D02*
X162290178Y-128677319D01*
X162290178Y-128677319D02*
X162861606Y-129677319D01*
X162861606Y-129677319D02*
X162861606Y-128677319D01*
X163480654Y-129677319D02*
X163385416Y-129629700D01*
X163385416Y-129629700D02*
X163337797Y-129582080D01*
X163337797Y-129582080D02*
X163290178Y-129486842D01*
X163290178Y-129486842D02*
X163290178Y-129201128D01*
X163290178Y-129201128D02*
X163337797Y-129105890D01*
X163337797Y-129105890D02*
X163385416Y-129058271D01*
X163385416Y-129058271D02*
X163480654Y-129010652D01*
X163480654Y-129010652D02*
X163623511Y-129010652D01*
X163623511Y-129010652D02*
X163718749Y-129058271D01*
X163718749Y-129058271D02*
X163766368Y-129105890D01*
X163766368Y-129105890D02*
X163813987Y-129201128D01*
X163813987Y-129201128D02*
X163813987Y-129486842D01*
X163813987Y-129486842D02*
X163766368Y-129582080D01*
X163766368Y-129582080D02*
X163718749Y-129629700D01*
X163718749Y-129629700D02*
X163623511Y-129677319D01*
X163623511Y-129677319D02*
X163480654Y-129677319D01*
X164718749Y-129677319D02*
X164242559Y-129677319D01*
X164242559Y-129677319D02*
X164242559Y-128677319D01*
X165052083Y-129153509D02*
X165385416Y-129153509D01*
X165528273Y-129677319D02*
X165052083Y-129677319D01*
X165052083Y-129677319D02*
X165052083Y-128677319D01*
X165052083Y-128677319D02*
X165528273Y-128677319D01*
X165956845Y-129677319D02*
X165956845Y-128677319D01*
X165956845Y-128677319D02*
X166194940Y-128677319D01*
X166194940Y-128677319D02*
X166337797Y-128724938D01*
X166337797Y-128724938D02*
X166433035Y-128820176D01*
X166433035Y-128820176D02*
X166480654Y-128915414D01*
X166480654Y-128915414D02*
X166528273Y-129105890D01*
X166528273Y-129105890D02*
X166528273Y-129248747D01*
X166528273Y-129248747D02*
X166480654Y-129439223D01*
X166480654Y-129439223D02*
X166433035Y-129534461D01*
X166433035Y-129534461D02*
X166337797Y-129629700D01*
X166337797Y-129629700D02*
X166194940Y-129677319D01*
X166194940Y-129677319D02*
X165956845Y-129677319D01*
%TO.C,MX5*%
X128000595Y-29664819D02*
X128000595Y-28664819D01*
X128000595Y-28664819D02*
X128333928Y-29379104D01*
X128333928Y-29379104D02*
X128667261Y-28664819D01*
X128667261Y-28664819D02*
X128667261Y-29664819D01*
X129048214Y-28664819D02*
X129714880Y-29664819D01*
X129714880Y-28664819D02*
X129048214Y-29664819D01*
X130095833Y-29283866D02*
X130857738Y-29283866D01*
X131333928Y-29664819D02*
X131333928Y-28664819D01*
X131333928Y-28664819D02*
X131905356Y-29664819D01*
X131905356Y-29664819D02*
X131905356Y-28664819D01*
X132524404Y-29664819D02*
X132429166Y-29617200D01*
X132429166Y-29617200D02*
X132381547Y-29569580D01*
X132381547Y-29569580D02*
X132333928Y-29474342D01*
X132333928Y-29474342D02*
X132333928Y-29188628D01*
X132333928Y-29188628D02*
X132381547Y-29093390D01*
X132381547Y-29093390D02*
X132429166Y-29045771D01*
X132429166Y-29045771D02*
X132524404Y-28998152D01*
X132524404Y-28998152D02*
X132667261Y-28998152D01*
X132667261Y-28998152D02*
X132762499Y-29045771D01*
X132762499Y-29045771D02*
X132810118Y-29093390D01*
X132810118Y-29093390D02*
X132857737Y-29188628D01*
X132857737Y-29188628D02*
X132857737Y-29474342D01*
X132857737Y-29474342D02*
X132810118Y-29569580D01*
X132810118Y-29569580D02*
X132762499Y-29617200D01*
X132762499Y-29617200D02*
X132667261Y-29664819D01*
X132667261Y-29664819D02*
X132524404Y-29664819D01*
X133762499Y-29664819D02*
X133286309Y-29664819D01*
X133286309Y-29664819D02*
X133286309Y-28664819D01*
X134095833Y-29141009D02*
X134429166Y-29141009D01*
X134572023Y-29664819D02*
X134095833Y-29664819D01*
X134095833Y-29664819D02*
X134095833Y-28664819D01*
X134095833Y-28664819D02*
X134572023Y-28664819D01*
X135000595Y-29664819D02*
X135000595Y-28664819D01*
X135000595Y-28664819D02*
X135238690Y-28664819D01*
X135238690Y-28664819D02*
X135381547Y-28712438D01*
X135381547Y-28712438D02*
X135476785Y-28807676D01*
X135476785Y-28807676D02*
X135524404Y-28902914D01*
X135524404Y-28902914D02*
X135572023Y-29093390D01*
X135572023Y-29093390D02*
X135572023Y-29236247D01*
X135572023Y-29236247D02*
X135524404Y-29426723D01*
X135524404Y-29426723D02*
X135476785Y-29521961D01*
X135476785Y-29521961D02*
X135381547Y-29617200D01*
X135381547Y-29617200D02*
X135238690Y-29664819D01*
X135238690Y-29664819D02*
X135000595Y-29664819D01*
%TO.C,MX15*%
X61325595Y-72527319D02*
X61325595Y-71527319D01*
X61325595Y-71527319D02*
X61658928Y-72241604D01*
X61658928Y-72241604D02*
X61992261Y-71527319D01*
X61992261Y-71527319D02*
X61992261Y-72527319D01*
X62373214Y-71527319D02*
X63039880Y-72527319D01*
X63039880Y-71527319D02*
X62373214Y-72527319D01*
X63420833Y-72146366D02*
X64182738Y-72146366D01*
X64658928Y-72527319D02*
X64658928Y-71527319D01*
X64658928Y-71527319D02*
X65230356Y-72527319D01*
X65230356Y-72527319D02*
X65230356Y-71527319D01*
X65849404Y-72527319D02*
X65754166Y-72479700D01*
X65754166Y-72479700D02*
X65706547Y-72432080D01*
X65706547Y-72432080D02*
X65658928Y-72336842D01*
X65658928Y-72336842D02*
X65658928Y-72051128D01*
X65658928Y-72051128D02*
X65706547Y-71955890D01*
X65706547Y-71955890D02*
X65754166Y-71908271D01*
X65754166Y-71908271D02*
X65849404Y-71860652D01*
X65849404Y-71860652D02*
X65992261Y-71860652D01*
X65992261Y-71860652D02*
X66087499Y-71908271D01*
X66087499Y-71908271D02*
X66135118Y-71955890D01*
X66135118Y-71955890D02*
X66182737Y-72051128D01*
X66182737Y-72051128D02*
X66182737Y-72336842D01*
X66182737Y-72336842D02*
X66135118Y-72432080D01*
X66135118Y-72432080D02*
X66087499Y-72479700D01*
X66087499Y-72479700D02*
X65992261Y-72527319D01*
X65992261Y-72527319D02*
X65849404Y-72527319D01*
X67087499Y-72527319D02*
X66611309Y-72527319D01*
X66611309Y-72527319D02*
X66611309Y-71527319D01*
X67420833Y-72003509D02*
X67754166Y-72003509D01*
X67897023Y-72527319D02*
X67420833Y-72527319D01*
X67420833Y-72527319D02*
X67420833Y-71527319D01*
X67420833Y-71527319D02*
X67897023Y-71527319D01*
X68325595Y-72527319D02*
X68325595Y-71527319D01*
X68325595Y-71527319D02*
X68563690Y-71527319D01*
X68563690Y-71527319D02*
X68706547Y-71574938D01*
X68706547Y-71574938D02*
X68801785Y-71670176D01*
X68801785Y-71670176D02*
X68849404Y-71765414D01*
X68849404Y-71765414D02*
X68897023Y-71955890D01*
X68897023Y-71955890D02*
X68897023Y-72098747D01*
X68897023Y-72098747D02*
X68849404Y-72289223D01*
X68849404Y-72289223D02*
X68801785Y-72384461D01*
X68801785Y-72384461D02*
X68706547Y-72479700D01*
X68706547Y-72479700D02*
X68563690Y-72527319D01*
X68563690Y-72527319D02*
X68325595Y-72527319D01*
%TO.C,MX1*%
X51800595Y-29664819D02*
X51800595Y-28664819D01*
X51800595Y-28664819D02*
X52133928Y-29379104D01*
X52133928Y-29379104D02*
X52467261Y-28664819D01*
X52467261Y-28664819D02*
X52467261Y-29664819D01*
X52848214Y-28664819D02*
X53514880Y-29664819D01*
X53514880Y-28664819D02*
X52848214Y-29664819D01*
X53895833Y-29283866D02*
X54657738Y-29283866D01*
X55133928Y-29664819D02*
X55133928Y-28664819D01*
X55133928Y-28664819D02*
X55705356Y-29664819D01*
X55705356Y-29664819D02*
X55705356Y-28664819D01*
X56324404Y-29664819D02*
X56229166Y-29617200D01*
X56229166Y-29617200D02*
X56181547Y-29569580D01*
X56181547Y-29569580D02*
X56133928Y-29474342D01*
X56133928Y-29474342D02*
X56133928Y-29188628D01*
X56133928Y-29188628D02*
X56181547Y-29093390D01*
X56181547Y-29093390D02*
X56229166Y-29045771D01*
X56229166Y-29045771D02*
X56324404Y-28998152D01*
X56324404Y-28998152D02*
X56467261Y-28998152D01*
X56467261Y-28998152D02*
X56562499Y-29045771D01*
X56562499Y-29045771D02*
X56610118Y-29093390D01*
X56610118Y-29093390D02*
X56657737Y-29188628D01*
X56657737Y-29188628D02*
X56657737Y-29474342D01*
X56657737Y-29474342D02*
X56610118Y-29569580D01*
X56610118Y-29569580D02*
X56562499Y-29617200D01*
X56562499Y-29617200D02*
X56467261Y-29664819D01*
X56467261Y-29664819D02*
X56324404Y-29664819D01*
X57562499Y-29664819D02*
X57086309Y-29664819D01*
X57086309Y-29664819D02*
X57086309Y-28664819D01*
X57895833Y-29141009D02*
X58229166Y-29141009D01*
X58372023Y-29664819D02*
X57895833Y-29664819D01*
X57895833Y-29664819D02*
X57895833Y-28664819D01*
X57895833Y-28664819D02*
X58372023Y-28664819D01*
X58800595Y-29664819D02*
X58800595Y-28664819D01*
X58800595Y-28664819D02*
X59038690Y-28664819D01*
X59038690Y-28664819D02*
X59181547Y-28712438D01*
X59181547Y-28712438D02*
X59276785Y-28807676D01*
X59276785Y-28807676D02*
X59324404Y-28902914D01*
X59324404Y-28902914D02*
X59372023Y-29093390D01*
X59372023Y-29093390D02*
X59372023Y-29236247D01*
X59372023Y-29236247D02*
X59324404Y-29426723D01*
X59324404Y-29426723D02*
X59276785Y-29521961D01*
X59276785Y-29521961D02*
X59181547Y-29617200D01*
X59181547Y-29617200D02*
X59038690Y-29664819D01*
X59038690Y-29664819D02*
X58800595Y-29664819D01*
%TO.C,MX16*%
X80375595Y-72527319D02*
X80375595Y-71527319D01*
X80375595Y-71527319D02*
X80708928Y-72241604D01*
X80708928Y-72241604D02*
X81042261Y-71527319D01*
X81042261Y-71527319D02*
X81042261Y-72527319D01*
X81423214Y-71527319D02*
X82089880Y-72527319D01*
X82089880Y-71527319D02*
X81423214Y-72527319D01*
X82470833Y-72146366D02*
X83232738Y-72146366D01*
X83708928Y-72527319D02*
X83708928Y-71527319D01*
X83708928Y-71527319D02*
X84280356Y-72527319D01*
X84280356Y-72527319D02*
X84280356Y-71527319D01*
X84899404Y-72527319D02*
X84804166Y-72479700D01*
X84804166Y-72479700D02*
X84756547Y-72432080D01*
X84756547Y-72432080D02*
X84708928Y-72336842D01*
X84708928Y-72336842D02*
X84708928Y-72051128D01*
X84708928Y-72051128D02*
X84756547Y-71955890D01*
X84756547Y-71955890D02*
X84804166Y-71908271D01*
X84804166Y-71908271D02*
X84899404Y-71860652D01*
X84899404Y-71860652D02*
X85042261Y-71860652D01*
X85042261Y-71860652D02*
X85137499Y-71908271D01*
X85137499Y-71908271D02*
X85185118Y-71955890D01*
X85185118Y-71955890D02*
X85232737Y-72051128D01*
X85232737Y-72051128D02*
X85232737Y-72336842D01*
X85232737Y-72336842D02*
X85185118Y-72432080D01*
X85185118Y-72432080D02*
X85137499Y-72479700D01*
X85137499Y-72479700D02*
X85042261Y-72527319D01*
X85042261Y-72527319D02*
X84899404Y-72527319D01*
X86137499Y-72527319D02*
X85661309Y-72527319D01*
X85661309Y-72527319D02*
X85661309Y-71527319D01*
X86470833Y-72003509D02*
X86804166Y-72003509D01*
X86947023Y-72527319D02*
X86470833Y-72527319D01*
X86470833Y-72527319D02*
X86470833Y-71527319D01*
X86470833Y-71527319D02*
X86947023Y-71527319D01*
X87375595Y-72527319D02*
X87375595Y-71527319D01*
X87375595Y-71527319D02*
X87613690Y-71527319D01*
X87613690Y-71527319D02*
X87756547Y-71574938D01*
X87756547Y-71574938D02*
X87851785Y-71670176D01*
X87851785Y-71670176D02*
X87899404Y-71765414D01*
X87899404Y-71765414D02*
X87947023Y-71955890D01*
X87947023Y-71955890D02*
X87947023Y-72098747D01*
X87947023Y-72098747D02*
X87899404Y-72289223D01*
X87899404Y-72289223D02*
X87851785Y-72384461D01*
X87851785Y-72384461D02*
X87756547Y-72479700D01*
X87756547Y-72479700D02*
X87613690Y-72527319D01*
X87613690Y-72527319D02*
X87375595Y-72527319D01*
%TO.C,MX50*%
X251825595Y-129677319D02*
X251825595Y-128677319D01*
X251825595Y-128677319D02*
X252158928Y-129391604D01*
X252158928Y-129391604D02*
X252492261Y-128677319D01*
X252492261Y-128677319D02*
X252492261Y-129677319D01*
X252873214Y-128677319D02*
X253539880Y-129677319D01*
X253539880Y-128677319D02*
X252873214Y-129677319D01*
X253920833Y-129296366D02*
X254682738Y-129296366D01*
X255158928Y-129677319D02*
X255158928Y-128677319D01*
X255158928Y-128677319D02*
X255730356Y-129677319D01*
X255730356Y-129677319D02*
X255730356Y-128677319D01*
X256349404Y-129677319D02*
X256254166Y-129629700D01*
X256254166Y-129629700D02*
X256206547Y-129582080D01*
X256206547Y-129582080D02*
X256158928Y-129486842D01*
X256158928Y-129486842D02*
X256158928Y-129201128D01*
X256158928Y-129201128D02*
X256206547Y-129105890D01*
X256206547Y-129105890D02*
X256254166Y-129058271D01*
X256254166Y-129058271D02*
X256349404Y-129010652D01*
X256349404Y-129010652D02*
X256492261Y-129010652D01*
X256492261Y-129010652D02*
X256587499Y-129058271D01*
X256587499Y-129058271D02*
X256635118Y-129105890D01*
X256635118Y-129105890D02*
X256682737Y-129201128D01*
X256682737Y-129201128D02*
X256682737Y-129486842D01*
X256682737Y-129486842D02*
X256635118Y-129582080D01*
X256635118Y-129582080D02*
X256587499Y-129629700D01*
X256587499Y-129629700D02*
X256492261Y-129677319D01*
X256492261Y-129677319D02*
X256349404Y-129677319D01*
X257587499Y-129677319D02*
X257111309Y-129677319D01*
X257111309Y-129677319D02*
X257111309Y-128677319D01*
X257920833Y-129153509D02*
X258254166Y-129153509D01*
X258397023Y-129677319D02*
X257920833Y-129677319D01*
X257920833Y-129677319D02*
X257920833Y-128677319D01*
X257920833Y-128677319D02*
X258397023Y-128677319D01*
X258825595Y-129677319D02*
X258825595Y-128677319D01*
X258825595Y-128677319D02*
X259063690Y-128677319D01*
X259063690Y-128677319D02*
X259206547Y-128724938D01*
X259206547Y-128724938D02*
X259301785Y-128820176D01*
X259301785Y-128820176D02*
X259349404Y-128915414D01*
X259349404Y-128915414D02*
X259397023Y-129105890D01*
X259397023Y-129105890D02*
X259397023Y-129248747D01*
X259397023Y-129248747D02*
X259349404Y-129439223D01*
X259349404Y-129439223D02*
X259301785Y-129534461D01*
X259301785Y-129534461D02*
X259206547Y-129629700D01*
X259206547Y-129629700D02*
X259063690Y-129677319D01*
X259063690Y-129677319D02*
X258825595Y-129677319D01*
%TO.C,MX17*%
X93662500Y-70485000D02*
X112712500Y-70485000D01*
X93662500Y-89535000D02*
X93662500Y-70485000D01*
X96187500Y-73010000D02*
X96187500Y-75010000D01*
X96187500Y-85010000D02*
X96187500Y-87010000D01*
X96187500Y-87010000D02*
X98187500Y-87010000D01*
X98187500Y-73010000D02*
X96187500Y-73010000D01*
X108187500Y-73010000D02*
X110187500Y-73010000D01*
X108187500Y-87010000D02*
X110187500Y-87010000D01*
X110187500Y-73010000D02*
X110187500Y-75010000D01*
X110187500Y-87010000D02*
X110187500Y-85010000D01*
X112712500Y-70485000D02*
X112712500Y-89535000D01*
X112712500Y-89535000D02*
X93662500Y-89535000D01*
%TO.C,MX21*%
X169862500Y-70485000D02*
X198437500Y-70485000D01*
X169862500Y-89535000D02*
X169862500Y-70485000D01*
X177150000Y-73010000D02*
X177150000Y-75010000D01*
X177150000Y-85010000D02*
X177150000Y-87010000D01*
X177150000Y-87010000D02*
X179150000Y-87010000D01*
X179150000Y-73010000D02*
X177150000Y-73010000D01*
X189150000Y-73010000D02*
X191150000Y-73010000D01*
X189150000Y-87010000D02*
X191150000Y-87010000D01*
X191150000Y-73010000D02*
X191150000Y-75010000D01*
X191150000Y-87010000D02*
X191150000Y-85010000D01*
X198437500Y-70485000D02*
X198437500Y-89535000D01*
X198437500Y-89535000D02*
X169862500Y-89535000D01*
%TO.C,MX33*%
X107950000Y-108585000D02*
X127000000Y-108585000D01*
X107950000Y-127635000D02*
X107950000Y-108585000D01*
X110475000Y-111110000D02*
X110475000Y-113110000D01*
X110475000Y-123110000D02*
X110475000Y-125110000D01*
X110475000Y-125110000D02*
X112475000Y-125110000D01*
X112475000Y-111110000D02*
X110475000Y-111110000D01*
X122475000Y-111110000D02*
X124475000Y-111110000D01*
X122475000Y-125110000D02*
X124475000Y-125110000D01*
X124475000Y-111110000D02*
X124475000Y-113110000D01*
X124475000Y-125110000D02*
X124475000Y-123110000D01*
X127000000Y-108585000D02*
X127000000Y-127635000D01*
X127000000Y-127635000D02*
X107950000Y-127635000D01*
%TO.C,MX8*%
X65087500Y-51435000D02*
X84137500Y-51435000D01*
X65087500Y-70485000D02*
X65087500Y-51435000D01*
X67612500Y-53960000D02*
X67612500Y-55960000D01*
X67612500Y-65960000D02*
X67612500Y-67960000D01*
X67612500Y-67960000D02*
X69612500Y-67960000D01*
X69612500Y-53960000D02*
X67612500Y-53960000D01*
X79612500Y-53960000D02*
X81612500Y-53960000D01*
X79612500Y-67960000D02*
X81612500Y-67960000D01*
X81612500Y-53960000D02*
X81612500Y-55960000D01*
X81612500Y-67960000D02*
X81612500Y-65960000D01*
X84137500Y-51435000D02*
X84137500Y-70485000D01*
X84137500Y-70485000D02*
X65087500Y-70485000D01*
%TO.C,MX36*%
X31750000Y-127635000D02*
X69850000Y-127635000D01*
X31750000Y-146685000D02*
X31750000Y-127635000D01*
X43800000Y-130160000D02*
X43800000Y-132160000D01*
X43800000Y-142160000D02*
X43800000Y-144160000D01*
X43800000Y-144160000D02*
X45800000Y-144160000D01*
X45800000Y-130160000D02*
X43800000Y-130160000D01*
X55800000Y-130160000D02*
X57800000Y-130160000D01*
X55800000Y-144160000D02*
X57800000Y-144160000D01*
X57800000Y-130160000D02*
X57800000Y-132160000D01*
X57800000Y-144160000D02*
X57800000Y-142160000D01*
X69850000Y-127635000D02*
X69850000Y-146685000D01*
X69850000Y-146685000D02*
X31750000Y-146685000D01*
%TO.C,MX42*%
X227012500Y-51435000D02*
X246062500Y-51435000D01*
X227012500Y-70485000D02*
X227012500Y-51435000D01*
X229537500Y-53960000D02*
X229537500Y-55960000D01*
X229537500Y-65960000D02*
X229537500Y-67960000D01*
X229537500Y-67960000D02*
X231537500Y-67960000D01*
X231537500Y-53960000D02*
X229537500Y-53960000D01*
X241537500Y-53960000D02*
X243537500Y-53960000D01*
X241537500Y-67960000D02*
X243537500Y-67960000D01*
X243537500Y-53960000D02*
X243537500Y-55960000D01*
X243537500Y-67960000D02*
X243537500Y-65960000D01*
X246062500Y-51435000D02*
X246062500Y-70485000D01*
X246062500Y-70485000D02*
X227012500Y-70485000D01*
%TO.C,MX46*%
X246062500Y-70485000D02*
X265112500Y-70485000D01*
X246062500Y-89535000D02*
X246062500Y-70485000D01*
X248587500Y-73010000D02*
X248587500Y-75010000D01*
X248587500Y-85010000D02*
X248587500Y-87010000D01*
X248587500Y-87010000D02*
X250587500Y-87010000D01*
X250587500Y-73010000D02*
X248587500Y-73010000D01*
X260587500Y-73010000D02*
X262587500Y-73010000D01*
X260587500Y-87010000D02*
X262587500Y-87010000D01*
X262587500Y-73010000D02*
X262587500Y-75010000D01*
X262587500Y-87010000D02*
X262587500Y-85010000D01*
X265112500Y-70485000D02*
X265112500Y-89535000D01*
X265112500Y-89535000D02*
X246062500Y-89535000D01*
%TO.C,MX32*%
X88900000Y-108585000D02*
X107950000Y-108585000D01*
X88900000Y-127635000D02*
X88900000Y-108585000D01*
X91425000Y-111110000D02*
X91425000Y-113110000D01*
X91425000Y-123110000D02*
X91425000Y-125110000D01*
X91425000Y-125110000D02*
X93425000Y-125110000D01*
X93425000Y-111110000D02*
X91425000Y-111110000D01*
X103425000Y-111110000D02*
X105425000Y-111110000D01*
X103425000Y-125110000D02*
X105425000Y-125110000D01*
X105425000Y-111110000D02*
X105425000Y-113110000D01*
X105425000Y-125110000D02*
X105425000Y-123110000D01*
X107950000Y-108585000D02*
X107950000Y-127635000D01*
X107950000Y-127635000D02*
X88900000Y-127635000D01*
%TO.C,MX23*%
X60325000Y-89535000D02*
X79375000Y-89535000D01*
X60325000Y-108585000D02*
X60325000Y-89535000D01*
X62850000Y-92060000D02*
X62850000Y-94060000D01*
X62850000Y-104060000D02*
X62850000Y-106060000D01*
X62850000Y-106060000D02*
X64850000Y-106060000D01*
X64850000Y-92060000D02*
X62850000Y-92060000D01*
X74850000Y-92060000D02*
X76850000Y-92060000D01*
X74850000Y-106060000D02*
X76850000Y-106060000D01*
X76850000Y-92060000D02*
X76850000Y-94060000D01*
X76850000Y-106060000D02*
X76850000Y-104060000D01*
X79375000Y-89535000D02*
X79375000Y-108585000D01*
X79375000Y-108585000D02*
X60325000Y-108585000D01*
%TO.C,MX37*%
X69850000Y-127635000D02*
X88900000Y-127635000D01*
X69850000Y-146685000D02*
X69850000Y-127635000D01*
X72375000Y-130160000D02*
X72375000Y-132160000D01*
X72375000Y-142160000D02*
X72375000Y-144160000D01*
X72375000Y-144160000D02*
X74375000Y-144160000D01*
X74375000Y-130160000D02*
X72375000Y-130160000D01*
X84375000Y-130160000D02*
X86375000Y-130160000D01*
X84375000Y-144160000D02*
X86375000Y-144160000D01*
X86375000Y-130160000D02*
X86375000Y-132160000D01*
X86375000Y-144160000D02*
X86375000Y-142160000D01*
X88900000Y-127635000D02*
X88900000Y-146685000D01*
X88900000Y-146685000D02*
X69850000Y-146685000D01*
%TO.C,MX45*%
X227012500Y-70485000D02*
X246062500Y-70485000D01*
X227012500Y-89535000D02*
X227012500Y-70485000D01*
X229537500Y-73010000D02*
X229537500Y-75010000D01*
X229537500Y-85010000D02*
X229537500Y-87010000D01*
X229537500Y-87010000D02*
X231537500Y-87010000D01*
X231537500Y-73010000D02*
X229537500Y-73010000D01*
X241537500Y-73010000D02*
X243537500Y-73010000D01*
X241537500Y-87010000D02*
X243537500Y-87010000D01*
X243537500Y-73010000D02*
X243537500Y-75010000D01*
X243537500Y-87010000D02*
X243537500Y-85010000D01*
X246062500Y-70485000D02*
X246062500Y-89535000D01*
X246062500Y-89535000D02*
X227012500Y-89535000D01*
%TO.C,MX27*%
X136525000Y-89535000D02*
X155575000Y-89535000D01*
X136525000Y-108585000D02*
X136525000Y-89535000D01*
X139050000Y-92060000D02*
X139050000Y-94060000D01*
X139050000Y-104060000D02*
X139050000Y-106060000D01*
X139050000Y-106060000D02*
X141050000Y-106060000D01*
X141050000Y-92060000D02*
X139050000Y-92060000D01*
X151050000Y-92060000D02*
X153050000Y-92060000D01*
X151050000Y-106060000D02*
X153050000Y-106060000D01*
X153050000Y-92060000D02*
X153050000Y-94060000D01*
X153050000Y-106060000D02*
X153050000Y-104060000D01*
X155575000Y-89535000D02*
X155575000Y-108585000D01*
X155575000Y-108585000D02*
X136525000Y-108585000D01*
%TO.C,MX4*%
X103187500Y-27622500D02*
X122237500Y-27622500D01*
X103187500Y-46672500D02*
X103187500Y-27622500D01*
X105712500Y-30147500D02*
X105712500Y-32147500D01*
X105712500Y-42147500D02*
X105712500Y-44147500D01*
X105712500Y-44147500D02*
X107712500Y-44147500D01*
X107712500Y-30147500D02*
X105712500Y-30147500D01*
X117712500Y-30147500D02*
X119712500Y-30147500D01*
X117712500Y-44147500D02*
X119712500Y-44147500D01*
X119712500Y-30147500D02*
X119712500Y-32147500D01*
X119712500Y-44147500D02*
X119712500Y-42147500D01*
X122237500Y-27622500D02*
X122237500Y-46672500D01*
X122237500Y-46672500D02*
X103187500Y-46672500D01*
%TO.C,MX13*%
X160337500Y-51435000D02*
X198437500Y-51435000D01*
X160337500Y-70485000D02*
X160337500Y-51435000D01*
X172387500Y-53960000D02*
X172387500Y-55960000D01*
X172387500Y-65960000D02*
X172387500Y-67960000D01*
X172387500Y-67960000D02*
X174387500Y-67960000D01*
X174387500Y-53960000D02*
X172387500Y-53960000D01*
X184387500Y-53960000D02*
X186387500Y-53960000D01*
X184387500Y-67960000D02*
X186387500Y-67960000D01*
X186387500Y-53960000D02*
X186387500Y-55960000D01*
X186387500Y-67960000D02*
X186387500Y-65960000D01*
X198437500Y-51435000D02*
X198437500Y-70485000D01*
X198437500Y-70485000D02*
X160337500Y-70485000D01*
%TO.C,MX29*%
X31750000Y-108585000D02*
X50800000Y-108585000D01*
X31750000Y-127635000D02*
X31750000Y-108585000D01*
X34275000Y-111110000D02*
X34275000Y-113110000D01*
X34275000Y-123110000D02*
X34275000Y-125110000D01*
X34275000Y-125110000D02*
X36275000Y-125110000D01*
X36275000Y-111110000D02*
X34275000Y-111110000D01*
X46275000Y-111110000D02*
X48275000Y-111110000D01*
X46275000Y-125110000D02*
X48275000Y-125110000D01*
X48275000Y-111110000D02*
X48275000Y-113110000D01*
X48275000Y-125110000D02*
X48275000Y-123110000D01*
X50800000Y-108585000D02*
X50800000Y-127635000D01*
X50800000Y-127635000D02*
X31750000Y-127635000D01*
%TO.C,MX18*%
X112712500Y-70485000D02*
X131762500Y-70485000D01*
X112712500Y-89535000D02*
X112712500Y-70485000D01*
X115237500Y-73010000D02*
X115237500Y-75010000D01*
X115237500Y-85010000D02*
X115237500Y-87010000D01*
X115237500Y-87010000D02*
X117237500Y-87010000D01*
X117237500Y-73010000D02*
X115237500Y-73010000D01*
X127237500Y-73010000D02*
X129237500Y-73010000D01*
X127237500Y-87010000D02*
X129237500Y-87010000D01*
X129237500Y-73010000D02*
X129237500Y-75010000D01*
X129237500Y-87010000D02*
X129237500Y-85010000D01*
X131762500Y-70485000D02*
X131762500Y-89535000D01*
X131762500Y-89535000D02*
X112712500Y-89535000D01*
%TO.C,MX20*%
X150812500Y-70485000D02*
X169862500Y-70485000D01*
X150812500Y-89535000D02*
X150812500Y-70485000D01*
X153337500Y-73010000D02*
X153337500Y-75010000D01*
X153337500Y-85010000D02*
X153337500Y-87010000D01*
X153337500Y-87010000D02*
X155337500Y-87010000D01*
X155337500Y-73010000D02*
X153337500Y-73010000D01*
X165337500Y-73010000D02*
X167337500Y-73010000D01*
X165337500Y-87010000D02*
X167337500Y-87010000D01*
X167337500Y-73010000D02*
X167337500Y-75010000D01*
X167337500Y-87010000D02*
X167337500Y-85010000D01*
X169862500Y-70485000D02*
X169862500Y-89535000D01*
X169862500Y-89535000D02*
X150812500Y-89535000D01*
%TO.C,MX48*%
X207962500Y-127635000D02*
X227012500Y-127635000D01*
X207962500Y-146685000D02*
X207962500Y-127635000D01*
X210487500Y-130160000D02*
X210487500Y-132160000D01*
X210487500Y-142160000D02*
X210487500Y-144160000D01*
X210487500Y-144160000D02*
X212487500Y-144160000D01*
X212487500Y-130160000D02*
X210487500Y-130160000D01*
X222487500Y-130160000D02*
X224487500Y-130160000D01*
X222487500Y-144160000D02*
X224487500Y-144160000D01*
X224487500Y-130160000D02*
X224487500Y-132160000D01*
X224487500Y-144160000D02*
X224487500Y-142160000D01*
X227012500Y-127635000D02*
X227012500Y-146685000D01*
X227012500Y-146685000D02*
X207962500Y-146685000D01*
%TO.C,MX9*%
X84137500Y-51435000D02*
X103187500Y-51435000D01*
X84137500Y-70485000D02*
X84137500Y-51435000D01*
X86662500Y-53960000D02*
X86662500Y-55960000D01*
X86662500Y-65960000D02*
X86662500Y-67960000D01*
X86662500Y-67960000D02*
X88662500Y-67960000D01*
X88662500Y-53960000D02*
X86662500Y-53960000D01*
X98662500Y-53960000D02*
X100662500Y-53960000D01*
X98662500Y-67960000D02*
X100662500Y-67960000D01*
X100662500Y-53960000D02*
X100662500Y-55960000D01*
X100662500Y-67960000D02*
X100662500Y-65960000D01*
X103187500Y-51435000D02*
X103187500Y-70485000D01*
X103187500Y-70485000D02*
X84137500Y-70485000D01*
%TO.C,MX19*%
X131762500Y-70485000D02*
X150812500Y-70485000D01*
X131762500Y-89535000D02*
X131762500Y-70485000D01*
X134287500Y-73010000D02*
X134287500Y-75010000D01*
X134287500Y-85010000D02*
X134287500Y-87010000D01*
X134287500Y-87010000D02*
X136287500Y-87010000D01*
X136287500Y-73010000D02*
X134287500Y-73010000D01*
X146287500Y-73010000D02*
X148287500Y-73010000D01*
X146287500Y-87010000D02*
X148287500Y-87010000D01*
X148287500Y-73010000D02*
X148287500Y-75010000D01*
X148287500Y-87010000D02*
X148287500Y-85010000D01*
X150812500Y-70485000D02*
X150812500Y-89535000D01*
X150812500Y-89535000D02*
X131762500Y-89535000D01*
%TO.C,MX25*%
X98425000Y-89535000D02*
X117475000Y-89535000D01*
X98425000Y-108585000D02*
X98425000Y-89535000D01*
X100950000Y-92060000D02*
X100950000Y-94060000D01*
X100950000Y-104060000D02*
X100950000Y-106060000D01*
X100950000Y-106060000D02*
X102950000Y-106060000D01*
X102950000Y-92060000D02*
X100950000Y-92060000D01*
X112950000Y-92060000D02*
X114950000Y-92060000D01*
X112950000Y-106060000D02*
X114950000Y-106060000D01*
X114950000Y-92060000D02*
X114950000Y-94060000D01*
X114950000Y-106060000D02*
X114950000Y-104060000D01*
X117475000Y-89535000D02*
X117475000Y-108585000D01*
X117475000Y-108585000D02*
X98425000Y-108585000D01*
%TO.C,MX26*%
X117475000Y-89535000D02*
X136525000Y-89535000D01*
X117475000Y-108585000D02*
X117475000Y-89535000D01*
X120000000Y-92060000D02*
X120000000Y-94060000D01*
X120000000Y-104060000D02*
X120000000Y-106060000D01*
X120000000Y-106060000D02*
X122000000Y-106060000D01*
X122000000Y-92060000D02*
X120000000Y-92060000D01*
X132000000Y-92060000D02*
X134000000Y-92060000D01*
X132000000Y-106060000D02*
X134000000Y-106060000D01*
X134000000Y-92060000D02*
X134000000Y-94060000D01*
X134000000Y-106060000D02*
X134000000Y-104060000D01*
X136525000Y-89535000D02*
X136525000Y-108585000D01*
X136525000Y-108585000D02*
X117475000Y-108585000D01*
%TO.C,MX3*%
X84137500Y-27622500D02*
X103187500Y-27622500D01*
X84137500Y-46672500D02*
X84137500Y-27622500D01*
X86662500Y-30147500D02*
X86662500Y-32147500D01*
X86662500Y-42147500D02*
X86662500Y-44147500D01*
X86662500Y-44147500D02*
X88662500Y-44147500D01*
X88662500Y-30147500D02*
X86662500Y-30147500D01*
X98662500Y-30147500D02*
X100662500Y-30147500D01*
X98662500Y-44147500D02*
X100662500Y-44147500D01*
X100662500Y-30147500D02*
X100662500Y-32147500D01*
X100662500Y-44147500D02*
X100662500Y-42147500D01*
X103187500Y-27622500D02*
X103187500Y-46672500D01*
X103187500Y-46672500D02*
X84137500Y-46672500D01*
%TO.C,MX31*%
X69850000Y-108585000D02*
X88900000Y-108585000D01*
X69850000Y-127635000D02*
X69850000Y-108585000D01*
X72375000Y-111110000D02*
X72375000Y-113110000D01*
X72375000Y-123110000D02*
X72375000Y-125110000D01*
X72375000Y-125110000D02*
X74375000Y-125110000D01*
X74375000Y-111110000D02*
X72375000Y-111110000D01*
X84375000Y-111110000D02*
X86375000Y-111110000D01*
X84375000Y-125110000D02*
X86375000Y-125110000D01*
X86375000Y-111110000D02*
X86375000Y-113110000D01*
X86375000Y-125110000D02*
X86375000Y-123110000D01*
X88900000Y-108585000D02*
X88900000Y-127635000D01*
X88900000Y-127635000D02*
X69850000Y-127635000D01*
%TO.C,MX10*%
X103187500Y-51435000D02*
X122237500Y-51435000D01*
X103187500Y-70485000D02*
X103187500Y-51435000D01*
X105712500Y-53960000D02*
X105712500Y-55960000D01*
X105712500Y-65960000D02*
X105712500Y-67960000D01*
X105712500Y-67960000D02*
X107712500Y-67960000D01*
X107712500Y-53960000D02*
X105712500Y-53960000D01*
X117712500Y-53960000D02*
X119712500Y-53960000D01*
X117712500Y-67960000D02*
X119712500Y-67960000D01*
X119712500Y-53960000D02*
X119712500Y-55960000D01*
X119712500Y-67960000D02*
X119712500Y-65960000D01*
X122237500Y-51435000D02*
X122237500Y-70485000D01*
X122237500Y-70485000D02*
X103187500Y-70485000D01*
%TO.C,MX49*%
X227012500Y-127635000D02*
X246062500Y-127635000D01*
X227012500Y-146685000D02*
X227012500Y-127635000D01*
X229537500Y-130160000D02*
X229537500Y-132160000D01*
X229537500Y-142160000D02*
X229537500Y-144160000D01*
X229537500Y-144160000D02*
X231537500Y-144160000D01*
X231537500Y-130160000D02*
X229537500Y-130160000D01*
X241537500Y-130160000D02*
X243537500Y-130160000D01*
X241537500Y-144160000D02*
X243537500Y-144160000D01*
X243537500Y-130160000D02*
X243537500Y-132160000D01*
X243537500Y-144160000D02*
X243537500Y-142160000D01*
X246062500Y-127635000D02*
X246062500Y-146685000D01*
X246062500Y-146685000D02*
X227012500Y-146685000D01*
%TO.C,MX11*%
X122237500Y-51435000D02*
X141287500Y-51435000D01*
X122237500Y-70485000D02*
X122237500Y-51435000D01*
X124762500Y-53960000D02*
X124762500Y-55960000D01*
X124762500Y-65960000D02*
X124762500Y-67960000D01*
X124762500Y-67960000D02*
X126762500Y-67960000D01*
X126762500Y-53960000D02*
X124762500Y-53960000D01*
X136762500Y-53960000D02*
X138762500Y-53960000D01*
X136762500Y-67960000D02*
X138762500Y-67960000D01*
X138762500Y-53960000D02*
X138762500Y-55960000D01*
X138762500Y-67960000D02*
X138762500Y-65960000D01*
X141287500Y-51435000D02*
X141287500Y-70485000D01*
X141287500Y-70485000D02*
X122237500Y-70485000D01*
%TO.C,MX28*%
X155575000Y-89535000D02*
X198437500Y-89535000D01*
X155575000Y-108585000D02*
X155575000Y-89535000D01*
X170006250Y-92060000D02*
X170006250Y-94060000D01*
X170006250Y-104060000D02*
X170006250Y-106060000D01*
X170006250Y-106060000D02*
X172006250Y-106060000D01*
X172006250Y-92060000D02*
X170006250Y-92060000D01*
X182006250Y-92060000D02*
X184006250Y-92060000D01*
X182006250Y-106060000D02*
X184006250Y-106060000D01*
X184006250Y-92060000D02*
X184006250Y-94060000D01*
X184006250Y-106060000D02*
X184006250Y-104060000D01*
X198437500Y-89535000D02*
X198437500Y-108585000D01*
X198437500Y-108585000D02*
X155575000Y-108585000D01*
%TO.C,MX12*%
X141287500Y-51435000D02*
X160337500Y-51435000D01*
X141287500Y-70485000D02*
X141287500Y-51435000D01*
X143812500Y-53960000D02*
X143812500Y-55960000D01*
X143812500Y-65960000D02*
X143812500Y-67960000D01*
X143812500Y-67960000D02*
X145812500Y-67960000D01*
X145812500Y-53960000D02*
X143812500Y-53960000D01*
X155812500Y-53960000D02*
X157812500Y-53960000D01*
X155812500Y-67960000D02*
X157812500Y-67960000D01*
X157812500Y-53960000D02*
X157812500Y-55960000D01*
X157812500Y-67960000D02*
X157812500Y-65960000D01*
X160337500Y-51435000D02*
X160337500Y-70485000D01*
X160337500Y-70485000D02*
X141287500Y-70485000D01*
%TO.C,MX44*%
X207962500Y-70485000D02*
X227012500Y-70485000D01*
X207962500Y-89535000D02*
X207962500Y-70485000D01*
X210487500Y-73010000D02*
X210487500Y-75010000D01*
X210487500Y-85010000D02*
X210487500Y-87010000D01*
X210487500Y-87010000D02*
X212487500Y-87010000D01*
X212487500Y-73010000D02*
X210487500Y-73010000D01*
X222487500Y-73010000D02*
X224487500Y-73010000D01*
X222487500Y-87010000D02*
X224487500Y-87010000D01*
X224487500Y-73010000D02*
X224487500Y-75010000D01*
X224487500Y-87010000D02*
X224487500Y-85010000D01*
X227012500Y-70485000D02*
X227012500Y-89535000D01*
X227012500Y-89535000D02*
X207962500Y-89535000D01*
%TO.C,MX40*%
X174625000Y-127635000D02*
X198437500Y-127635000D01*
X174625000Y-146685000D02*
X174625000Y-127635000D01*
X179531250Y-130160000D02*
X179531250Y-132160000D01*
X179531250Y-142160000D02*
X179531250Y-144160000D01*
X179531250Y-144160000D02*
X181531250Y-144160000D01*
X181531250Y-130160000D02*
X179531250Y-130160000D01*
X191531250Y-130160000D02*
X193531250Y-130160000D01*
X191531250Y-144160000D02*
X193531250Y-144160000D01*
X193531250Y-130160000D02*
X193531250Y-132160000D01*
X193531250Y-144160000D02*
X193531250Y-142160000D01*
X198437500Y-127635000D02*
X198437500Y-146685000D01*
X198437500Y-146685000D02*
X174625000Y-146685000D01*
%TO.C,MX22*%
X41275000Y-89535000D02*
X60325000Y-89535000D01*
X41275000Y-108585000D02*
X41275000Y-89535000D01*
X43800000Y-92060000D02*
X43800000Y-94060000D01*
X43800000Y-104060000D02*
X43800000Y-106060000D01*
X43800000Y-106060000D02*
X45800000Y-106060000D01*
X45800000Y-92060000D02*
X43800000Y-92060000D01*
X55800000Y-92060000D02*
X57800000Y-92060000D01*
X55800000Y-106060000D02*
X57800000Y-106060000D01*
X57800000Y-92060000D02*
X57800000Y-94060000D01*
X57800000Y-106060000D02*
X57800000Y-104060000D01*
X60325000Y-89535000D02*
X60325000Y-108585000D01*
X60325000Y-108585000D02*
X41275000Y-108585000D01*
%TO.C,MX14*%
X36512500Y-70485000D02*
X55562500Y-70485000D01*
X36512500Y-89535000D02*
X36512500Y-70485000D01*
X39037500Y-73010000D02*
X39037500Y-75010000D01*
X39037500Y-85010000D02*
X39037500Y-87010000D01*
X39037500Y-87010000D02*
X41037500Y-87010000D01*
X41037500Y-73010000D02*
X39037500Y-73010000D01*
X51037500Y-73010000D02*
X53037500Y-73010000D01*
X51037500Y-87010000D02*
X53037500Y-87010000D01*
X53037500Y-73010000D02*
X53037500Y-75010000D01*
X53037500Y-87010000D02*
X53037500Y-85010000D01*
X55562500Y-70485000D02*
X55562500Y-89535000D01*
X55562500Y-89535000D02*
X36512500Y-89535000D01*
%TO.C,MX35*%
X146050000Y-108585000D02*
X198437500Y-108585000D01*
X146050000Y-127635000D02*
X146050000Y-108585000D01*
X165243750Y-111110000D02*
X165243750Y-113110000D01*
X165243750Y-123110000D02*
X165243750Y-125110000D01*
X165243750Y-125110000D02*
X167243750Y-125110000D01*
X167243750Y-111110000D02*
X165243750Y-111110000D01*
X177243750Y-111110000D02*
X179243750Y-111110000D01*
X177243750Y-125110000D02*
X179243750Y-125110000D01*
X179243750Y-111110000D02*
X179243750Y-113110000D01*
X179243750Y-125110000D02*
X179243750Y-123110000D01*
X198437500Y-108585000D02*
X198437500Y-127635000D01*
X198437500Y-127635000D02*
X146050000Y-127635000D01*
%TO.C,MX24*%
X79375000Y-89535000D02*
X98425000Y-89535000D01*
X79375000Y-108585000D02*
X79375000Y-89535000D01*
X81900000Y-92060000D02*
X81900000Y-94060000D01*
X81900000Y-104060000D02*
X81900000Y-106060000D01*
X81900000Y-106060000D02*
X83900000Y-106060000D01*
X83900000Y-92060000D02*
X81900000Y-92060000D01*
X93900000Y-92060000D02*
X95900000Y-92060000D01*
X93900000Y-106060000D02*
X95900000Y-106060000D01*
X95900000Y-92060000D02*
X95900000Y-94060000D01*
X95900000Y-106060000D02*
X95900000Y-104060000D01*
X98425000Y-89535000D02*
X98425000Y-108585000D01*
X98425000Y-108585000D02*
X79375000Y-108585000D01*
%TO.C,MX43*%
X246062500Y-51435000D02*
X265112500Y-51435000D01*
X246062500Y-70485000D02*
X246062500Y-51435000D01*
X248587500Y-53960000D02*
X248587500Y-55960000D01*
X248587500Y-65960000D02*
X248587500Y-67960000D01*
X248587500Y-67960000D02*
X250587500Y-67960000D01*
X250587500Y-53960000D02*
X248587500Y-53960000D01*
X260587500Y-53960000D02*
X262587500Y-53960000D01*
X260587500Y-67960000D02*
X262587500Y-67960000D01*
X262587500Y-53960000D02*
X262587500Y-55960000D01*
X262587500Y-67960000D02*
X262587500Y-65960000D01*
X265112500Y-51435000D02*
X265112500Y-70485000D01*
X265112500Y-70485000D02*
X246062500Y-70485000D01*
%TO.C,MX38*%
X127000000Y-127635000D02*
X150812500Y-127635000D01*
X127000000Y-146685000D02*
X127000000Y-127635000D01*
X131906250Y-130160000D02*
X131906250Y-132160000D01*
X131906250Y-142160000D02*
X131906250Y-144160000D01*
X131906250Y-144160000D02*
X133906250Y-144160000D01*
X133906250Y-130160000D02*
X131906250Y-130160000D01*
X143906250Y-130160000D02*
X145906250Y-130160000D01*
X143906250Y-144160000D02*
X145906250Y-144160000D01*
X145906250Y-130160000D02*
X145906250Y-132160000D01*
X145906250Y-144160000D02*
X145906250Y-142160000D01*
X150812500Y-127635000D02*
X150812500Y-146685000D01*
X150812500Y-146685000D02*
X127000000Y-146685000D01*
%TO.C,MX7*%
X46037500Y-51435000D02*
X65087500Y-51435000D01*
X46037500Y-70485000D02*
X46037500Y-51435000D01*
X48562500Y-53960000D02*
X48562500Y-55960000D01*
X48562500Y-65960000D02*
X48562500Y-67960000D01*
X48562500Y-67960000D02*
X50562500Y-67960000D01*
X50562500Y-53960000D02*
X48562500Y-53960000D01*
X60562500Y-53960000D02*
X62562500Y-53960000D01*
X60562500Y-67960000D02*
X62562500Y-67960000D01*
X62562500Y-53960000D02*
X62562500Y-55960000D01*
X62562500Y-67960000D02*
X62562500Y-65960000D01*
X65087500Y-51435000D02*
X65087500Y-70485000D01*
X65087500Y-70485000D02*
X46037500Y-70485000D01*
%TO.C,MX30*%
X50800000Y-108585000D02*
X69850000Y-108585000D01*
X50800000Y-127635000D02*
X50800000Y-108585000D01*
X53325000Y-111110000D02*
X53325000Y-113110000D01*
X53325000Y-123110000D02*
X53325000Y-125110000D01*
X53325000Y-125110000D02*
X55325000Y-125110000D01*
X55325000Y-111110000D02*
X53325000Y-111110000D01*
X65325000Y-111110000D02*
X67325000Y-111110000D01*
X65325000Y-125110000D02*
X67325000Y-125110000D01*
X67325000Y-111110000D02*
X67325000Y-113110000D01*
X67325000Y-125110000D02*
X67325000Y-123110000D01*
X69850000Y-108585000D02*
X69850000Y-127635000D01*
X69850000Y-127635000D02*
X50800000Y-127635000D01*
%TO.C,MX41*%
X207962500Y-51435000D02*
X227012500Y-51435000D01*
X207962500Y-70485000D02*
X207962500Y-51435000D01*
X210487500Y-53960000D02*
X210487500Y-55960000D01*
X210487500Y-65960000D02*
X210487500Y-67960000D01*
X210487500Y-67960000D02*
X212487500Y-67960000D01*
X212487500Y-53960000D02*
X210487500Y-53960000D01*
X222487500Y-53960000D02*
X224487500Y-53960000D01*
X222487500Y-67960000D02*
X224487500Y-67960000D01*
X224487500Y-53960000D02*
X224487500Y-55960000D01*
X224487500Y-67960000D02*
X224487500Y-65960000D01*
X227012500Y-51435000D02*
X227012500Y-70485000D01*
X227012500Y-70485000D02*
X207962500Y-70485000D01*
%TO.C,MX34*%
X127000000Y-108585000D02*
X146050000Y-108585000D01*
X127000000Y-127635000D02*
X127000000Y-108585000D01*
X129525000Y-111110000D02*
X129525000Y-113110000D01*
X129525000Y-123110000D02*
X129525000Y-125110000D01*
X129525000Y-125110000D02*
X131525000Y-125110000D01*
X131525000Y-111110000D02*
X129525000Y-111110000D01*
X141525000Y-111110000D02*
X143525000Y-111110000D01*
X141525000Y-125110000D02*
X143525000Y-125110000D01*
X143525000Y-111110000D02*
X143525000Y-113110000D01*
X143525000Y-125110000D02*
X143525000Y-123110000D01*
X146050000Y-108585000D02*
X146050000Y-127635000D01*
X146050000Y-127635000D02*
X127000000Y-127635000D01*
%TO.C,MX47*%
X227012500Y-108585000D02*
X246062500Y-108585000D01*
X227012500Y-127635000D02*
X227012500Y-108585000D01*
X229537500Y-111110000D02*
X229537500Y-113110000D01*
X229537500Y-123110000D02*
X229537500Y-125110000D01*
X229537500Y-125110000D02*
X231537500Y-125110000D01*
X231537500Y-111110000D02*
X229537500Y-111110000D01*
X241537500Y-111110000D02*
X243537500Y-111110000D01*
X241537500Y-125110000D02*
X243537500Y-125110000D01*
X243537500Y-111110000D02*
X243537500Y-113110000D01*
X243537500Y-125110000D02*
X243537500Y-123110000D01*
X246062500Y-108585000D02*
X246062500Y-127635000D01*
X246062500Y-127635000D02*
X227012500Y-127635000D01*
%TO.C,MX2*%
X65087500Y-27622500D02*
X84137500Y-27622500D01*
X65087500Y-46672500D02*
X65087500Y-27622500D01*
X67612500Y-30147500D02*
X67612500Y-32147500D01*
X67612500Y-42147500D02*
X67612500Y-44147500D01*
X67612500Y-44147500D02*
X69612500Y-44147500D01*
X69612500Y-30147500D02*
X67612500Y-30147500D01*
X79612500Y-30147500D02*
X81612500Y-30147500D01*
X79612500Y-44147500D02*
X81612500Y-44147500D01*
X81612500Y-30147500D02*
X81612500Y-32147500D01*
X81612500Y-44147500D02*
X81612500Y-42147500D01*
X84137500Y-27622500D02*
X84137500Y-46672500D01*
X84137500Y-46672500D02*
X65087500Y-46672500D01*
%TO.C,MX6*%
X141287500Y-27622500D02*
X160337500Y-27622500D01*
X141287500Y-46672500D02*
X141287500Y-27622500D01*
X143812500Y-30147500D02*
X143812500Y-32147500D01*
X143812500Y-42147500D02*
X143812500Y-44147500D01*
X143812500Y-44147500D02*
X145812500Y-44147500D01*
X145812500Y-30147500D02*
X143812500Y-30147500D01*
X155812500Y-30147500D02*
X157812500Y-30147500D01*
X155812500Y-44147500D02*
X157812500Y-44147500D01*
X157812500Y-30147500D02*
X157812500Y-32147500D01*
X157812500Y-44147500D02*
X157812500Y-42147500D01*
X160337500Y-27622500D02*
X160337500Y-46672500D01*
X160337500Y-46672500D02*
X141287500Y-46672500D01*
%TO.C,MX39*%
X150812500Y-127635000D02*
X174625000Y-127635000D01*
X150812500Y-146685000D02*
X150812500Y-127635000D01*
X155718750Y-130160000D02*
X155718750Y-132160000D01*
X155718750Y-142160000D02*
X155718750Y-144160000D01*
X155718750Y-144160000D02*
X157718750Y-144160000D01*
X157718750Y-130160000D02*
X155718750Y-130160000D01*
X167718750Y-130160000D02*
X169718750Y-130160000D01*
X167718750Y-144160000D02*
X169718750Y-144160000D01*
X169718750Y-130160000D02*
X169718750Y-132160000D01*
X169718750Y-144160000D02*
X169718750Y-142160000D01*
X174625000Y-127635000D02*
X174625000Y-146685000D01*
X174625000Y-146685000D02*
X150812500Y-146685000D01*
%TO.C,MX5*%
X122237500Y-27622500D02*
X141287500Y-27622500D01*
X122237500Y-46672500D02*
X122237500Y-27622500D01*
X124762500Y-30147500D02*
X124762500Y-32147500D01*
X124762500Y-42147500D02*
X124762500Y-44147500D01*
X124762500Y-44147500D02*
X126762500Y-44147500D01*
X126762500Y-30147500D02*
X124762500Y-30147500D01*
X136762500Y-30147500D02*
X138762500Y-30147500D01*
X136762500Y-44147500D02*
X138762500Y-44147500D01*
X138762500Y-30147500D02*
X138762500Y-32147500D01*
X138762500Y-44147500D02*
X138762500Y-42147500D01*
X141287500Y-27622500D02*
X141287500Y-46672500D01*
X141287500Y-46672500D02*
X122237500Y-46672500D01*
%TO.C,MX15*%
X55562500Y-70485000D02*
X74612500Y-70485000D01*
X55562500Y-89535000D02*
X55562500Y-70485000D01*
X58087500Y-73010000D02*
X58087500Y-75010000D01*
X58087500Y-85010000D02*
X58087500Y-87010000D01*
X58087500Y-87010000D02*
X60087500Y-87010000D01*
X60087500Y-73010000D02*
X58087500Y-73010000D01*
X70087500Y-73010000D02*
X72087500Y-73010000D01*
X70087500Y-87010000D02*
X72087500Y-87010000D01*
X72087500Y-73010000D02*
X72087500Y-75010000D01*
X72087500Y-87010000D02*
X72087500Y-85010000D01*
X74612500Y-70485000D02*
X74612500Y-89535000D01*
X74612500Y-89535000D02*
X55562500Y-89535000D01*
%TO.C,MX1*%
X46037500Y-27622500D02*
X65087500Y-27622500D01*
X46037500Y-46672500D02*
X46037500Y-27622500D01*
X48562500Y-30147500D02*
X48562500Y-32147500D01*
X48562500Y-42147500D02*
X48562500Y-44147500D01*
X48562500Y-44147500D02*
X50562500Y-44147500D01*
X50562500Y-30147500D02*
X48562500Y-30147500D01*
X60562500Y-30147500D02*
X62562500Y-30147500D01*
X60562500Y-44147500D02*
X62562500Y-44147500D01*
X62562500Y-30147500D02*
X62562500Y-32147500D01*
X62562500Y-44147500D02*
X62562500Y-42147500D01*
X65087500Y-27622500D02*
X65087500Y-46672500D01*
X65087500Y-46672500D02*
X46037500Y-46672500D01*
%TO.C,MX16*%
X74612500Y-70485000D02*
X93662500Y-70485000D01*
X74612500Y-89535000D02*
X74612500Y-70485000D01*
X77137500Y-73010000D02*
X77137500Y-75010000D01*
X77137500Y-85010000D02*
X77137500Y-87010000D01*
X77137500Y-87010000D02*
X79137500Y-87010000D01*
X79137500Y-73010000D02*
X77137500Y-73010000D01*
X89137500Y-73010000D02*
X91137500Y-73010000D01*
X89137500Y-87010000D02*
X91137500Y-87010000D01*
X91137500Y-73010000D02*
X91137500Y-75010000D01*
X91137500Y-87010000D02*
X91137500Y-85010000D01*
X93662500Y-70485000D02*
X93662500Y-89535000D01*
X93662500Y-89535000D02*
X74612500Y-89535000D01*
%TO.C,MX50*%
X246062500Y-127635000D02*
X265112500Y-127635000D01*
X246062500Y-146685000D02*
X246062500Y-127635000D01*
X248587500Y-130160000D02*
X248587500Y-132160000D01*
X248587500Y-142160000D02*
X248587500Y-144160000D01*
X248587500Y-144160000D02*
X250587500Y-144160000D01*
X250587500Y-130160000D02*
X248587500Y-130160000D01*
X260587500Y-130160000D02*
X262587500Y-130160000D01*
X260587500Y-144160000D02*
X262587500Y-144160000D01*
X262587500Y-130160000D02*
X262587500Y-132160000D01*
X262587500Y-144160000D02*
X262587500Y-142160000D01*
X265112500Y-127635000D02*
X265112500Y-146685000D01*
X265112500Y-146685000D02*
X246062500Y-146685000D01*
%TD*%
M02*
