M48
; DRILL file {KiCad 7.0.5} date Thu Jun 22 07:54:58 2023
; FORMAT={-:-/ absolute / metric / decimal}
; #@! TF.CreationDate,2023-06-22T07:54:58+00:00
; #@! TF.GenerationSoftware,Kicad,Pcbnew,7.0.5
; #@! TF.FileFunction,NonPlated,1,2,NPTH
FMAT,2
METRIC
; #@! TA.AperFunction,NonPlated,NPTH,ComponentDrill
T1C0.800
; #@! TA.AperFunction,NonPlated,NPTH,ComponentDrill
T2C1.750
; #@! TA.AperFunction,NonPlated,NPTH,ComponentDrill
T3C2.200
; #@! TA.AperFunction,NonPlated,NPTH,ComponentDrill
T4C3.000
; #@! TA.AperFunction,NonPlated,NPTH,ComponentDrill
T5C3.048
; #@! TA.AperFunction,NonPlated,NPTH,ComponentDrill
T6C3.988
%
G90
G05
T1
X30.85Y-49.722
X37.85Y-49.722
T2
X36.195Y-118.11
X40.957Y-80.01
X45.72Y-99.06
X45.72Y-137.16
X46.355Y-118.11
X50.482Y-37.148
X50.482Y-60.96
X51.117Y-80.01
X55.245Y-118.11
X55.88Y-99.06
X55.88Y-137.16
X60.008Y-80.01
X60.642Y-37.148
X60.642Y-60.96
X64.77Y-99.06
X65.405Y-118.11
X69.532Y-37.148
X69.532Y-60.96
X70.167Y-80.01
X74.295Y-118.11
X74.295Y-137.16
X74.93Y-99.06
X79.057Y-80.01
X79.692Y-37.148
X79.692Y-60.96
X83.82Y-99.06
X84.455Y-118.11
X84.455Y-137.16
X88.582Y-37.148
X88.582Y-60.96
X89.218Y-80.01
X93.345Y-118.11
X93.98Y-99.06
X98.108Y-80.01
X98.742Y-37.148
X98.742Y-60.96
X102.87Y-99.06
X103.505Y-118.11
X107.632Y-37.148
X107.632Y-60.96
X108.267Y-80.01
X112.395Y-118.11
X113.03Y-99.06
X117.157Y-80.01
X117.792Y-37.148
X117.792Y-60.96
X121.92Y-99.06
X122.555Y-118.11
X126.682Y-37.148
X126.682Y-60.96
X127.317Y-80.01
X131.445Y-118.11
X132.08Y-99.06
X133.826Y-137.16
X136.207Y-80.01
X136.843Y-37.148
X136.843Y-60.96
X140.97Y-99.06
X141.605Y-118.11
X143.986Y-137.16
X145.732Y-37.148
X145.732Y-60.96
X146.368Y-80.01
X151.13Y-99.06
X155.257Y-80.01
X155.892Y-37.148
X155.892Y-60.96
X157.639Y-137.16
X165.417Y-80.01
X167.164Y-118.11
X167.799Y-137.16
X171.926Y-99.06
X174.308Y-60.96
X177.324Y-118.11
X179.07Y-80.01
X181.451Y-137.16
X182.086Y-99.06
X184.468Y-60.96
X189.23Y-80.01
X191.611Y-137.16
X212.407Y-60.96
X212.407Y-80.01
X212.407Y-137.16
X222.567Y-60.96
X222.567Y-80.01
X222.567Y-137.16
X231.457Y-60.96
X231.457Y-80.01
X231.457Y-118.11
X231.457Y-137.16
X241.617Y-60.96
X241.617Y-80.01
X241.617Y-118.11
X241.617Y-137.16
X250.507Y-60.96
X250.507Y-80.01
X250.507Y-137.16
X260.667Y-60.96
X260.667Y-80.01
X260.667Y-137.16
T3
X32.25Y-28.122
X32.25Y-146.185
X203.2Y-77.47
X203.2Y-115.57
X264.613Y-28.122
X264.613Y-146.185
T4
X37.465Y-115.57
X42.227Y-77.47
X43.815Y-113.03
X46.99Y-96.52
X46.99Y-134.62
X48.578Y-74.93
X51.752Y-34.608
X51.752Y-58.42
X53.34Y-93.98
X53.34Y-132.08
X56.515Y-115.57
X58.102Y-32.067
X58.102Y-55.88
X61.277Y-77.47
X62.865Y-113.03
X66.04Y-96.52
X67.627Y-74.93
X70.802Y-34.608
X70.802Y-58.42
X72.39Y-93.98
X75.565Y-115.57
X75.565Y-134.62
X77.153Y-32.067
X77.153Y-55.88
X80.328Y-77.47
X81.915Y-113.03
X81.915Y-132.08
X85.09Y-96.52
X86.677Y-74.93
X89.852Y-34.608
X89.852Y-58.42
X91.44Y-93.98
X94.615Y-115.57
X96.203Y-32.067
X96.203Y-55.88
X99.377Y-77.47
X100.965Y-113.03
X104.14Y-96.52
X105.727Y-74.93
X108.902Y-34.608
X108.902Y-58.42
X110.49Y-93.98
X113.665Y-115.57
X115.252Y-32.067
X115.252Y-55.88
X118.427Y-77.47
X120.015Y-113.03
X123.19Y-96.52
X124.777Y-74.93
X127.953Y-34.608
X127.953Y-58.42
X129.54Y-93.98
X132.715Y-115.57
X134.302Y-32.067
X134.302Y-55.88
X135.096Y-134.62
X137.477Y-77.47
X139.065Y-113.03
X141.446Y-132.08
X142.24Y-96.52
X143.827Y-74.93
X147.002Y-34.608
X147.002Y-58.42
X148.59Y-93.98
X153.352Y-32.067
X153.352Y-55.88
X156.528Y-77.47
X158.909Y-134.62
X162.877Y-74.93
X165.259Y-132.08
X168.434Y-115.57
X173.196Y-96.52
X174.784Y-113.03
X175.577Y-58.42
X179.546Y-93.98
X180.34Y-77.47
X181.927Y-55.88
X182.721Y-134.62
X186.69Y-74.93
X189.071Y-132.08
X213.677Y-58.42
X213.677Y-77.47
X213.677Y-134.62
X220.028Y-55.88
X220.028Y-74.93
X220.028Y-132.08
X232.727Y-58.42
X232.727Y-77.47
X232.727Y-115.57
X232.727Y-134.62
X239.077Y-55.88
X239.077Y-74.93
X239.077Y-113.03
X239.077Y-132.08
X251.777Y-58.42
X251.777Y-77.47
X251.777Y-134.62
X258.127Y-55.88
X258.127Y-74.93
X258.127Y-132.08
T5
X38.862Y-130.175
X62.738Y-130.175
X160.306Y-111.125
X165.068Y-92.075
X167.45Y-53.975
X184.182Y-111.125
X188.944Y-92.075
X191.326Y-53.975
T6
X38.862Y-145.415
X41.275Y-118.11
X46.038Y-80.01
X50.8Y-99.06
X50.8Y-137.16
X55.563Y-37.148
X55.563Y-60.96
X60.325Y-118.11
X62.738Y-145.415
X65.087Y-80.01
X69.85Y-99.06
X74.612Y-37.148
X74.612Y-60.96
X79.375Y-118.11
X79.375Y-137.16
X84.138Y-80.01
X88.9Y-99.06
X93.662Y-37.148
X93.662Y-60.96
X98.425Y-118.11
X103.188Y-80.01
X107.95Y-99.06
X112.712Y-37.148
X112.712Y-60.96
X117.475Y-118.11
X122.237Y-80.01
X127.0Y-99.06
X131.762Y-37.148
X131.762Y-60.96
X136.525Y-118.11
X138.906Y-137.16
X141.287Y-80.01
X146.05Y-99.06
X150.813Y-37.148
X150.813Y-60.96
X160.306Y-126.365
X160.338Y-80.01
X162.719Y-137.16
X165.068Y-107.315
X167.45Y-69.215
X172.244Y-118.11
X177.006Y-99.06
X179.387Y-60.96
X184.15Y-80.01
X184.182Y-126.365
X186.531Y-137.16
X188.944Y-107.315
X191.326Y-69.215
X217.487Y-60.96
X217.487Y-80.01
X217.487Y-137.16
X236.537Y-60.96
X236.537Y-80.01
X236.537Y-118.11
X236.537Y-137.16
X255.587Y-60.96
X255.587Y-80.01
X255.587Y-137.16
T0
M30
