%TF.GenerationSoftware,KiCad,Pcbnew,7.0.5*%
%TF.CreationDate,2023-06-22T07:54:55+00:00*%
%TF.ProjectId,Entry-right,456e7472-792d-4726-9967-68742e6b6963,rev?*%
%TF.SameCoordinates,Original*%
%TF.FileFunction,Copper,L1,Top*%
%TF.FilePolarity,Positive*%
%FSLAX46Y46*%
G04 Gerber Fmt 4.6, Leading zero omitted, Abs format (unit mm)*
G04 Created by KiCad (PCBNEW 7.0.5) date 2023-06-22 07:54:55*
%MOMM*%
%LPD*%
G01*
G04 APERTURE LIST*
%TA.AperFunction,ComponentPad*%
%ADD10R,1.600000X1.600000*%
%TD*%
%TA.AperFunction,ComponentPad*%
%ADD11C,1.600000*%
%TD*%
%TA.AperFunction,ComponentPad*%
%ADD12C,2.000000*%
%TD*%
%TA.AperFunction,ComponentPad*%
%ADD13O,2.000000X1.600000*%
%TD*%
%TA.AperFunction,ComponentPad*%
%ADD14O,1.600000X1.600000*%
%TD*%
%TA.AperFunction,ViaPad*%
%ADD15C,0.600000*%
%TD*%
%TA.AperFunction,Conductor*%
%ADD16C,0.200000*%
%TD*%
G04 APERTURE END LIST*
D10*
%TO.P,U1,1,TX*%
%TO.N,col8*%
X262201750Y-32291750D03*
D11*
%TO.P,U1,2,RX*%
%TO.N,col1*%
X259661750Y-32291750D03*
%TO.P,U1,3,GND*%
%TO.N,unconnected-(U1-GND-Pad3)*%
X257121750Y-32291750D03*
%TO.P,U1,4,GND*%
%TO.N,unconnected-(U1-GND-Pad4)*%
X254581750Y-32291750D03*
%TO.P,U1,5,SDA*%
%TO.N,col2*%
X252041750Y-32291750D03*
%TO.P,U1,6,SCL*%
%TO.N,SCL*%
X249501750Y-32291750D03*
%TO.P,U1,7,D4*%
%TO.N,col3*%
X246961750Y-32291750D03*
%TO.P,U1,8,C6*%
%TO.N,col4*%
X244421750Y-32291750D03*
%TO.P,U1,9,D7*%
%TO.N,col5*%
X241881750Y-32291750D03*
%TO.P,U1,10,E6*%
%TO.N,col6*%
X239341750Y-32291750D03*
%TO.P,U1,11,B4*%
%TO.N,col7*%
X236801750Y-32291750D03*
%TO.P,U1,12,B5*%
%TO.N,row1*%
X234261750Y-32291750D03*
%TO.P,U1,13,B6*%
%TO.N,row2*%
X234261750Y-47531750D03*
%TO.P,U1,14,B2*%
%TO.N,row3*%
X236801750Y-47531750D03*
%TO.P,U1,15,B3*%
%TO.N,row4*%
X239341750Y-47531750D03*
%TO.P,U1,16,B1*%
%TO.N,row5*%
X241881750Y-47531750D03*
%TO.P,U1,17,F7*%
%TO.N,row6*%
X244421750Y-47531750D03*
%TO.P,U1,18,F6*%
%TO.N,col9*%
X246961750Y-47531750D03*
%TO.P,U1,19,F5*%
%TO.N,col10*%
X249501750Y-47531750D03*
%TO.P,U1,20,F4*%
%TO.N,col11*%
X252041750Y-47531750D03*
%TO.P,U1,21,VCC*%
%TO.N,VCC*%
X254581750Y-47531750D03*
%TO.P,U1,22,RST*%
%TO.N,RESET*%
X257121750Y-47531750D03*
%TO.P,U1,23,GND*%
%TO.N,GND*%
X259661750Y-47531750D03*
%TO.P,U1,24,RAW*%
%TO.N,unconnected-(U1-RAW-Pad24)*%
X262201750Y-47531750D03*
%TD*%
D12*
%TO.P,RESET1,1,1*%
%TO.N,RESET*%
X211212500Y-46541250D03*
X204712500Y-46541250D03*
%TO.P,RESET1,2,2*%
%TO.N,GND*%
X211212500Y-42041250D03*
X204712500Y-42041250D03*
%TD*%
D13*
%TO.P,U2,1,SLEEVE*%
%TO.N,GND*%
X40550000Y-52022500D03*
%TO.P,U2,2,TIP*%
%TO.N,VCC*%
X39450000Y-47422500D03*
%TO.P,U2,3,RING1*%
%TO.N,SCL*%
X35450000Y-47422500D03*
%TO.P,U2,4,RING2*%
%TO.N,unconnected-(U2-RING2-Pad4)*%
X32450000Y-47422500D03*
%TD*%
D10*
%TO.P,D37,1,K*%
%TO.N,row6*%
X87562500Y-145530000D03*
D14*
%TO.P,D37,2,A*%
%TO.N,Net-(D37-A)*%
X87562500Y-137910000D03*
%TD*%
D10*
%TO.P,D49,1,K*%
%TO.N,row6*%
X244677500Y-145530000D03*
D14*
%TO.P,D49,2,A*%
%TO.N,Net-(D49-A)*%
X244677500Y-137910000D03*
%TD*%
D10*
%TO.P,D26,1,K*%
%TO.N,row4*%
X135187500Y-107430000D03*
D14*
%TO.P,D26,2,A*%
%TO.N,Net-(D26-A)*%
X135187500Y-99810000D03*
%TD*%
D10*
%TO.P,D43,1,K*%
%TO.N,row2*%
X263727500Y-69330000D03*
D14*
%TO.P,D43,2,A*%
%TO.N,Net-(D43-A)*%
X263727500Y-61710000D03*
%TD*%
D10*
%TO.P,D8,1,K*%
%TO.N,row2*%
X82862500Y-69330000D03*
D14*
%TO.P,D8,2,A*%
%TO.N,Net-(D8-A)*%
X82862500Y-61710000D03*
%TD*%
D10*
%TO.P,D2,1,K*%
%TO.N,row1*%
X82862500Y-45517500D03*
D14*
%TO.P,D2,2,A*%
%TO.N,Net-(D2-A)*%
X82862500Y-37897500D03*
%TD*%
D10*
%TO.P,D14,1,K*%
%TO.N,row3*%
X54287500Y-88380000D03*
D14*
%TO.P,D14,2,A*%
%TO.N,Net-(D14-A)*%
X54287500Y-80760000D03*
%TD*%
D10*
%TO.P,D18,1,K*%
%TO.N,row3*%
X130472500Y-88380000D03*
D14*
%TO.P,D18,2,A*%
%TO.N,Net-(D18-A)*%
X130472500Y-80760000D03*
%TD*%
D10*
%TO.P,D1,1,K*%
%TO.N,row1*%
X63812500Y-45517500D03*
D14*
%TO.P,D1,2,A*%
%TO.N,Net-(D1-A)*%
X63812500Y-37897500D03*
%TD*%
D10*
%TO.P,D3,1,K*%
%TO.N,row1*%
X101912500Y-45517500D03*
D14*
%TO.P,D3,2,A*%
%TO.N,Net-(D3-A)*%
X101912500Y-37897500D03*
%TD*%
D10*
%TO.P,D25,1,K*%
%TO.N,row4*%
X116137500Y-107430000D03*
D14*
%TO.P,D25,2,A*%
%TO.N,Net-(D25-A)*%
X116137500Y-99810000D03*
%TD*%
D10*
%TO.P,D32,1,K*%
%TO.N,row5*%
X106612500Y-126480000D03*
D14*
%TO.P,D32,2,A*%
%TO.N,Net-(D32-A)*%
X106612500Y-118860000D03*
%TD*%
D10*
%TO.P,D41,1,K*%
%TO.N,row2*%
X225627500Y-69330000D03*
D14*
%TO.P,D41,2,A*%
%TO.N,Net-(D41-A)*%
X225627500Y-61710000D03*
%TD*%
D10*
%TO.P,D24,1,K*%
%TO.N,row4*%
X97087500Y-107430000D03*
D14*
%TO.P,D24,2,A*%
%TO.N,Net-(D24-A)*%
X97087500Y-99810000D03*
%TD*%
D10*
%TO.P,D19,1,K*%
%TO.N,row3*%
X149522500Y-88380000D03*
D14*
%TO.P,D19,2,A*%
%TO.N,Net-(D19-A)*%
X149522500Y-80760000D03*
%TD*%
D10*
%TO.P,D10,1,K*%
%TO.N,row2*%
X120962500Y-69330000D03*
D14*
%TO.P,D10,2,A*%
%TO.N,Net-(D10-A)*%
X120962500Y-61710000D03*
%TD*%
D10*
%TO.P,D39,1,K*%
%TO.N,row6*%
X173287500Y-145530000D03*
D14*
%TO.P,D39,2,A*%
%TO.N,Net-(D39-A)*%
X173287500Y-137910000D03*
%TD*%
D10*
%TO.P,D46,1,K*%
%TO.N,row3*%
X263727500Y-88380000D03*
D14*
%TO.P,D46,2,A*%
%TO.N,Net-(D46-A)*%
X263727500Y-80760000D03*
%TD*%
D10*
%TO.P,D4,1,K*%
%TO.N,row1*%
X120962500Y-45517500D03*
D14*
%TO.P,D4,2,A*%
%TO.N,Net-(D4-A)*%
X120962500Y-37897500D03*
%TD*%
D10*
%TO.P,D21,1,K*%
%TO.N,row3*%
X197052500Y-88380000D03*
D14*
%TO.P,D21,2,A*%
%TO.N,Net-(D21-A)*%
X197052500Y-80760000D03*
%TD*%
D10*
%TO.P,D40,1,K*%
%TO.N,row6*%
X197052500Y-145530000D03*
D14*
%TO.P,D40,2,A*%
%TO.N,Net-(D40-A)*%
X197052500Y-137910000D03*
%TD*%
D10*
%TO.P,D50,1,K*%
%TO.N,row6*%
X252390000Y-142800000D03*
D14*
%TO.P,D50,2,A*%
%TO.N,Net-(D50-A)*%
X260010000Y-142800000D03*
%TD*%
D10*
%TO.P,D38,1,K*%
%TO.N,row6*%
X149427500Y-145530000D03*
D14*
%TO.P,D38,2,A*%
%TO.N,Net-(D38-A)*%
X149427500Y-137910000D03*
%TD*%
D10*
%TO.P,D33,1,K*%
%TO.N,row5*%
X125662500Y-126480000D03*
D14*
%TO.P,D33,2,A*%
%TO.N,Net-(D33-A)*%
X125662500Y-118860000D03*
%TD*%
D10*
%TO.P,D20,1,K*%
%TO.N,row3*%
X168577500Y-88380000D03*
D14*
%TO.P,D20,2,A*%
%TO.N,Net-(D20-A)*%
X168577500Y-80760000D03*
%TD*%
D10*
%TO.P,D47,1,K*%
%TO.N,row5*%
X244677500Y-126480000D03*
D14*
%TO.P,D47,2,A*%
%TO.N,Net-(D47-A)*%
X244677500Y-118860000D03*
%TD*%
D10*
%TO.P,D13,1,K*%
%TO.N,row2*%
X197052500Y-64770000D03*
D14*
%TO.P,D13,2,A*%
%TO.N,Net-(D13-A)*%
X197052500Y-57150000D03*
%TD*%
D10*
%TO.P,D16,1,K*%
%TO.N,row3*%
X92372500Y-88380000D03*
D14*
%TO.P,D16,2,A*%
%TO.N,Net-(D16-A)*%
X92372500Y-80760000D03*
%TD*%
D10*
%TO.P,D30,1,K*%
%TO.N,row5*%
X68512500Y-126480000D03*
D14*
%TO.P,D30,2,A*%
%TO.N,Net-(D30-A)*%
X68512500Y-118860000D03*
%TD*%
D10*
%TO.P,D31,1,K*%
%TO.N,row5*%
X87562500Y-126480000D03*
D14*
%TO.P,D31,2,A*%
%TO.N,Net-(D31-A)*%
X87562500Y-118860000D03*
%TD*%
D10*
%TO.P,D17,1,K*%
%TO.N,row3*%
X111422500Y-88380000D03*
D14*
%TO.P,D17,2,A*%
%TO.N,Net-(D17-A)*%
X111422500Y-80760000D03*
%TD*%
D10*
%TO.P,D35,1,K*%
%TO.N,row5*%
X197052500Y-126480000D03*
D14*
%TO.P,D35,2,A*%
%TO.N,Net-(D35-A)*%
X197052500Y-118860000D03*
%TD*%
D10*
%TO.P,D15,1,K*%
%TO.N,row3*%
X73322500Y-88380000D03*
D14*
%TO.P,D15,2,A*%
%TO.N,Net-(D15-A)*%
X73322500Y-80760000D03*
%TD*%
D10*
%TO.P,D23,1,K*%
%TO.N,row4*%
X78037500Y-107430000D03*
D14*
%TO.P,D23,2,A*%
%TO.N,Net-(D23-A)*%
X78037500Y-99810000D03*
%TD*%
D10*
%TO.P,D44,1,K*%
%TO.N,row3*%
X225627500Y-88380000D03*
D14*
%TO.P,D44,2,A*%
%TO.N,Net-(D44-A)*%
X225627500Y-80760000D03*
%TD*%
D10*
%TO.P,D11,1,K*%
%TO.N,row2*%
X140012500Y-69330000D03*
D14*
%TO.P,D11,2,A*%
%TO.N,Net-(D11-A)*%
X140012500Y-61710000D03*
%TD*%
D10*
%TO.P,D36,1,K*%
%TO.N,row6*%
X68512500Y-145530000D03*
D14*
%TO.P,D36,2,A*%
%TO.N,Net-(D36-A)*%
X68512500Y-137910000D03*
%TD*%
D10*
%TO.P,D6,1,K*%
%TO.N,row1*%
X159062500Y-45517500D03*
D14*
%TO.P,D6,2,A*%
%TO.N,Net-(D6-A)*%
X159062500Y-37897500D03*
%TD*%
D10*
%TO.P,D27,1,K*%
%TO.N,row4*%
X154237500Y-107430000D03*
D14*
%TO.P,D27,2,A*%
%TO.N,Net-(D27-A)*%
X154237500Y-99810000D03*
%TD*%
D10*
%TO.P,D45,1,K*%
%TO.N,row3*%
X244677500Y-88380000D03*
D14*
%TO.P,D45,2,A*%
%TO.N,Net-(D45-A)*%
X244677500Y-80760000D03*
%TD*%
D10*
%TO.P,D12,1,K*%
%TO.N,row2*%
X159062500Y-69330000D03*
D14*
%TO.P,D12,2,A*%
%TO.N,Net-(D12-A)*%
X159062500Y-61710000D03*
%TD*%
D10*
%TO.P,D48,1,K*%
%TO.N,row6*%
X225627500Y-145530000D03*
D14*
%TO.P,D48,2,A*%
%TO.N,Net-(D48-A)*%
X225627500Y-137910000D03*
%TD*%
D10*
%TO.P,D34,1,K*%
%TO.N,row5*%
X144712500Y-126480000D03*
D14*
%TO.P,D34,2,A*%
%TO.N,Net-(D34-A)*%
X144712500Y-118860000D03*
%TD*%
D10*
%TO.P,D5,1,K*%
%TO.N,row1*%
X140012500Y-45517500D03*
D14*
%TO.P,D5,2,A*%
%TO.N,Net-(D5-A)*%
X140012500Y-37897500D03*
%TD*%
D10*
%TO.P,D29,1,K*%
%TO.N,row5*%
X49462500Y-126480000D03*
D14*
%TO.P,D29,2,A*%
%TO.N,Net-(D29-A)*%
X49462500Y-118860000D03*
%TD*%
D10*
%TO.P,D42,1,K*%
%TO.N,row2*%
X244677500Y-69330000D03*
D14*
%TO.P,D42,2,A*%
%TO.N,Net-(D42-A)*%
X244677500Y-61710000D03*
%TD*%
D10*
%TO.P,D28,1,K*%
%TO.N,row4*%
X197052500Y-107430000D03*
D14*
%TO.P,D28,2,A*%
%TO.N,Net-(D28-A)*%
X197052500Y-99810000D03*
%TD*%
D10*
%TO.P,D7,1,K*%
%TO.N,row2*%
X63812500Y-69330000D03*
D14*
%TO.P,D7,2,A*%
%TO.N,Net-(D7-A)*%
X63812500Y-61710000D03*
%TD*%
D10*
%TO.P,D9,1,K*%
%TO.N,row2*%
X101912500Y-69330000D03*
D14*
%TO.P,D9,2,A*%
%TO.N,Net-(D9-A)*%
X101912500Y-61710000D03*
%TD*%
D10*
%TO.P,D22,1,K*%
%TO.N,row4*%
X58987500Y-107430000D03*
D14*
%TO.P,D22,2,A*%
%TO.N,Net-(D22-A)*%
X58987500Y-99810000D03*
%TD*%
D15*
%TO.N,row6*%
X204500000Y-143000000D03*
%TO.N,row5*%
X204500000Y-123500000D03*
%TO.N,row3*%
X203500000Y-85500000D03*
%TO.N,row2*%
X203500000Y-66500000D03*
%TO.N,col8*%
X180500000Y-48500000D03*
%TO.N,col7*%
X143727500Y-47650000D03*
%TO.N,col6*%
X124677500Y-47875000D03*
%TO.N,col5*%
X105627500Y-47450000D03*
%TO.N,col4*%
X86577500Y-47475000D03*
%TO.N,col3*%
X67527500Y-47450000D03*
%TO.N,col2*%
X48477500Y-50500000D03*
%TO.N,col1*%
X38952500Y-61000000D03*
%TO.N,GND*%
X191000000Y-46000000D03*
%TD*%
D16*
%TO.N,row6*%
X200500000Y-145530000D02*
X68512500Y-145530000D01*
X252390000Y-142800000D02*
X250530000Y-142800000D01*
X247800000Y-145530000D02*
X200500000Y-145530000D01*
X250530000Y-142800000D02*
X247800000Y-145530000D01*
X204500000Y-143000000D02*
X201970000Y-145530000D01*
%TO.N,row5*%
X153693750Y-121920000D02*
X149133750Y-126480000D01*
X244677500Y-126480000D02*
X197052500Y-126480000D01*
X190500000Y-121920000D02*
X153693750Y-121920000D01*
X204500000Y-123500000D02*
X201520000Y-126480000D01*
X197052500Y-126480000D02*
X195060000Y-126480000D01*
X49462500Y-126480000D02*
X144712500Y-126480000D01*
X149133750Y-126480000D02*
X144712500Y-126480000D01*
X195060000Y-126480000D02*
X190500000Y-121920000D01*
%TO.N,row4*%
X157365000Y-107430000D02*
X161925000Y-102870000D01*
X161925000Y-102870000D02*
X190500000Y-102870000D01*
X195060000Y-107430000D02*
X197052500Y-107430000D01*
X58987500Y-107430000D02*
X154237500Y-107430000D01*
X190500000Y-102870000D02*
X195060000Y-107430000D01*
X154237500Y-107430000D02*
X157365000Y-107430000D01*
%TO.N,row3*%
X200620000Y-88380000D02*
X203500000Y-85500000D01*
X263727500Y-88380000D02*
X54287500Y-88380000D01*
%TO.N,row2*%
X165735000Y-64770000D02*
X197052500Y-64770000D01*
X200500000Y-69330000D02*
X200670000Y-69330000D01*
X263727500Y-69330000D02*
X225627500Y-69330000D01*
X197052500Y-67512500D02*
X197052500Y-64770000D01*
X159062500Y-69330000D02*
X161175000Y-69330000D01*
X63812500Y-69330000D02*
X159062500Y-69330000D01*
X200670000Y-69330000D02*
X203500000Y-66500000D01*
X198870000Y-69330000D02*
X197052500Y-67512500D01*
X200500000Y-69330000D02*
X198870000Y-69330000D01*
X225627500Y-69330000D02*
X200500000Y-69330000D01*
X161175000Y-69330000D02*
X165735000Y-64770000D01*
%TO.N,row1*%
X231908250Y-32291750D02*
X234261750Y-32291750D01*
X159062500Y-45517500D02*
X171976672Y-45517500D01*
X182794177Y-34700000D02*
X229500000Y-34700000D01*
X63812500Y-45517500D02*
X159062500Y-45517500D01*
X180094175Y-37400000D02*
X182794177Y-34700000D01*
X180094172Y-37400000D02*
X180094175Y-37400000D01*
X171976672Y-45517500D02*
X180094172Y-37400000D01*
X229500000Y-34700000D02*
X231908250Y-32291750D01*
%TO.N,col8*%
X181500000Y-47500000D02*
X181500000Y-41085346D01*
X262201750Y-35898250D02*
X262201750Y-32291750D01*
X184285346Y-38300000D02*
X259800000Y-38300000D01*
X259800000Y-38300000D02*
X262201750Y-35898250D01*
X181500000Y-41085346D02*
X184285346Y-38300000D01*
X180500000Y-48500000D02*
X181500000Y-47500000D01*
%TO.N,col7*%
X150738750Y-49200000D02*
X161840203Y-49200000D01*
X143727500Y-47650000D02*
X149188750Y-47650000D01*
X161840203Y-49200000D02*
X165122703Y-45917500D01*
X182959862Y-35100000D02*
X236000000Y-35100000D01*
X172142358Y-45917500D02*
X182959862Y-35100000D01*
X236801750Y-34298250D02*
X236801750Y-32291750D01*
X149188750Y-47650000D02*
X150738750Y-49200000D01*
X165122703Y-45917500D02*
X172142358Y-45917500D01*
X236000000Y-35100000D02*
X236801750Y-34298250D01*
%TO.N,col6*%
X172308044Y-46317500D02*
X183125547Y-35500000D01*
X238400000Y-35500000D02*
X239341750Y-34558250D01*
X124677500Y-47875000D02*
X126402500Y-49600000D01*
X165288388Y-46317500D02*
X172308044Y-46317500D01*
X183125547Y-35500000D02*
X238400000Y-35500000D01*
X162005888Y-49600000D02*
X165288388Y-46317500D01*
X126402500Y-49600000D02*
X162005888Y-49600000D01*
X239341750Y-34558250D02*
X239341750Y-32291750D01*
%TO.N,col5*%
X165454073Y-46717500D02*
X172473730Y-46717500D01*
X108177500Y-50000000D02*
X162171573Y-50000000D01*
X240700000Y-35900000D02*
X241881750Y-34718250D01*
X172473730Y-46717500D02*
X183291232Y-35900000D01*
X162171573Y-50000000D02*
X165454073Y-46717500D01*
X183291232Y-35900000D02*
X240700000Y-35900000D01*
X105627500Y-47450000D02*
X108177500Y-50000000D01*
X241881750Y-34718250D02*
X241881750Y-32291750D01*
%TO.N,col4*%
X89502500Y-50400000D02*
X162337258Y-50400000D01*
X244421750Y-34978250D02*
X244421750Y-32291750D01*
X162337258Y-50400000D02*
X165619758Y-47117500D01*
X183456917Y-36300000D02*
X243100000Y-36300000D01*
X86577500Y-47475000D02*
X89502500Y-50400000D01*
X243100000Y-36300000D02*
X244421750Y-34978250D01*
X165619758Y-47117500D02*
X172639416Y-47117500D01*
X172639416Y-47117500D02*
X183456917Y-36300000D01*
%TO.N,col3*%
X162502943Y-50800000D02*
X165785443Y-47517500D01*
X67525000Y-47450000D02*
X70875000Y-50800000D01*
X172805101Y-47517500D02*
X183622602Y-36700000D01*
X245400000Y-36700000D02*
X246961750Y-35138250D01*
X246961750Y-35138250D02*
X246961750Y-32291750D01*
X183622602Y-36700000D02*
X245400000Y-36700000D01*
X70875000Y-50800000D02*
X162502943Y-50800000D01*
X165785443Y-47517500D02*
X172805101Y-47517500D01*
%TO.N,col2*%
X162834314Y-51600000D02*
X166116814Y-48317500D01*
X48477500Y-50500000D02*
X49377500Y-49600000D01*
X183953976Y-37500000D02*
X250100000Y-37500000D01*
X57000000Y-51600000D02*
X162834314Y-51600000D01*
X55000000Y-49600000D02*
X57000000Y-51600000D01*
X250100000Y-37500000D02*
X252041750Y-35558250D01*
X173136473Y-48317500D02*
X183953976Y-37500000D01*
X49377500Y-49600000D02*
X55000000Y-49600000D01*
X252041750Y-35558250D02*
X252041750Y-32291750D01*
X166116814Y-48317500D02*
X173136473Y-48317500D01*
%TO.N,col1*%
X52500000Y-50000000D02*
X54834314Y-50000000D01*
X166282500Y-48717500D02*
X173302159Y-48717500D01*
X56834315Y-52000000D02*
X163000000Y-52000000D01*
X43500000Y-59000000D02*
X52500000Y-50000000D01*
X257300000Y-37900000D02*
X259661750Y-35538250D01*
X38952500Y-61000000D02*
X40952500Y-59000000D01*
X40952500Y-59000000D02*
X43500000Y-59000000D01*
X259661750Y-35538250D02*
X259661750Y-32291750D01*
X173302159Y-48717500D02*
X184119661Y-37900000D01*
X54834314Y-50000000D02*
X56834315Y-52000000D01*
X163000000Y-52000000D02*
X166282500Y-48717500D01*
X184119661Y-37900000D02*
X257300000Y-37900000D01*
%TO.N,SCL*%
X35450000Y-45550000D02*
X39500000Y-41500000D01*
X247800000Y-37100000D02*
X249501750Y-35398250D01*
X43500000Y-41500000D02*
X51200000Y-49200000D01*
X57165686Y-51200000D02*
X162668628Y-51200000D01*
X55165686Y-49200000D02*
X57165686Y-51200000D01*
X183788287Y-37100000D02*
X247800000Y-37100000D01*
X165951128Y-47917500D02*
X172970787Y-47917500D01*
X35450000Y-47422500D02*
X35450000Y-45550000D01*
X249501750Y-35398250D02*
X249501750Y-32291750D01*
X39500000Y-41500000D02*
X43500000Y-41500000D01*
X162668628Y-51200000D02*
X165951128Y-47917500D01*
X51200000Y-49200000D02*
X55165686Y-49200000D01*
X172970787Y-47917500D02*
X183788287Y-37100000D01*
%TO.N,RESET*%
X225900000Y-41150000D02*
X250740000Y-41150000D01*
X220508750Y-46541250D02*
X225900000Y-41150000D01*
X211212500Y-46541250D02*
X220508750Y-46541250D01*
X250740000Y-41150000D02*
X257121750Y-47531750D01*
%TO.N,GND*%
X224950000Y-38700000D02*
X227000000Y-40750000D01*
X191000000Y-46000000D02*
X198300000Y-38700000D01*
X252880000Y-40750000D02*
X259661750Y-47531750D01*
X218450000Y-41950000D02*
X219650000Y-40750000D01*
X218358750Y-42041250D02*
X218450000Y-41950000D01*
X211212500Y-42041250D02*
X218358750Y-42041250D01*
X198300000Y-38700000D02*
X224950000Y-38700000D01*
X218350000Y-42050000D02*
X218450000Y-41950000D01*
X219650000Y-40750000D02*
X252880000Y-40750000D01*
%TD*%
M02*
