%TF.GenerationSoftware,KiCad,Pcbnew,7.0.5*%
%TF.CreationDate,2023-06-22T07:55:22+00:00*%
%TF.ProjectId,Entry-left,456e7472-792d-46c6-9566-742e6b696361,rev?*%
%TF.SameCoordinates,Original*%
%TF.FileFunction,OtherDrawing,Comment*%
%FSLAX46Y46*%
G04 Gerber Fmt 4.6, Leading zero omitted, Abs format (unit mm)*
G04 Created by KiCad (PCBNEW 7.0.5) date 2023-06-22 07:55:22*
%MOMM*%
%LPD*%
G01*
G04 APERTURE LIST*
%ADD10C,0.150000*%
G04 APERTURE END LIST*
D10*
%TO.C,MX6*%
X70732345Y-73316069D02*
X70732345Y-72316069D01*
X70732345Y-72316069D02*
X71065678Y-73030354D01*
X71065678Y-73030354D02*
X71399011Y-72316069D01*
X71399011Y-72316069D02*
X71399011Y-73316069D01*
X71779964Y-72316069D02*
X72446630Y-73316069D01*
X72446630Y-72316069D02*
X71779964Y-73316069D01*
X72827583Y-72935116D02*
X73589488Y-72935116D01*
X74065678Y-73316069D02*
X74065678Y-72316069D01*
X74065678Y-72316069D02*
X74637106Y-73316069D01*
X74637106Y-73316069D02*
X74637106Y-72316069D01*
X75256154Y-73316069D02*
X75160916Y-73268450D01*
X75160916Y-73268450D02*
X75113297Y-73220830D01*
X75113297Y-73220830D02*
X75065678Y-73125592D01*
X75065678Y-73125592D02*
X75065678Y-72839878D01*
X75065678Y-72839878D02*
X75113297Y-72744640D01*
X75113297Y-72744640D02*
X75160916Y-72697021D01*
X75160916Y-72697021D02*
X75256154Y-72649402D01*
X75256154Y-72649402D02*
X75399011Y-72649402D01*
X75399011Y-72649402D02*
X75494249Y-72697021D01*
X75494249Y-72697021D02*
X75541868Y-72744640D01*
X75541868Y-72744640D02*
X75589487Y-72839878D01*
X75589487Y-72839878D02*
X75589487Y-73125592D01*
X75589487Y-73125592D02*
X75541868Y-73220830D01*
X75541868Y-73220830D02*
X75494249Y-73268450D01*
X75494249Y-73268450D02*
X75399011Y-73316069D01*
X75399011Y-73316069D02*
X75256154Y-73316069D01*
X76494249Y-73316069D02*
X76018059Y-73316069D01*
X76018059Y-73316069D02*
X76018059Y-72316069D01*
X76827583Y-72792259D02*
X77160916Y-72792259D01*
X77303773Y-73316069D02*
X76827583Y-73316069D01*
X76827583Y-73316069D02*
X76827583Y-72316069D01*
X76827583Y-72316069D02*
X77303773Y-72316069D01*
X77732345Y-73316069D02*
X77732345Y-72316069D01*
X77732345Y-72316069D02*
X77970440Y-72316069D01*
X77970440Y-72316069D02*
X78113297Y-72363688D01*
X78113297Y-72363688D02*
X78208535Y-72458926D01*
X78208535Y-72458926D02*
X78256154Y-72554164D01*
X78256154Y-72554164D02*
X78303773Y-72744640D01*
X78303773Y-72744640D02*
X78303773Y-72887497D01*
X78303773Y-72887497D02*
X78256154Y-73077973D01*
X78256154Y-73077973D02*
X78208535Y-73173211D01*
X78208535Y-73173211D02*
X78113297Y-73268450D01*
X78113297Y-73268450D02*
X77970440Y-73316069D01*
X77970440Y-73316069D02*
X77732345Y-73316069D01*
%TO.C,MX2*%
X51682345Y-54266069D02*
X51682345Y-53266069D01*
X51682345Y-53266069D02*
X52015678Y-53980354D01*
X52015678Y-53980354D02*
X52349011Y-53266069D01*
X52349011Y-53266069D02*
X52349011Y-54266069D01*
X52729964Y-53266069D02*
X53396630Y-54266069D01*
X53396630Y-53266069D02*
X52729964Y-54266069D01*
X53777583Y-53885116D02*
X54539488Y-53885116D01*
X55015678Y-54266069D02*
X55015678Y-53266069D01*
X55015678Y-53266069D02*
X55587106Y-54266069D01*
X55587106Y-54266069D02*
X55587106Y-53266069D01*
X56206154Y-54266069D02*
X56110916Y-54218450D01*
X56110916Y-54218450D02*
X56063297Y-54170830D01*
X56063297Y-54170830D02*
X56015678Y-54075592D01*
X56015678Y-54075592D02*
X56015678Y-53789878D01*
X56015678Y-53789878D02*
X56063297Y-53694640D01*
X56063297Y-53694640D02*
X56110916Y-53647021D01*
X56110916Y-53647021D02*
X56206154Y-53599402D01*
X56206154Y-53599402D02*
X56349011Y-53599402D01*
X56349011Y-53599402D02*
X56444249Y-53647021D01*
X56444249Y-53647021D02*
X56491868Y-53694640D01*
X56491868Y-53694640D02*
X56539487Y-53789878D01*
X56539487Y-53789878D02*
X56539487Y-54075592D01*
X56539487Y-54075592D02*
X56491868Y-54170830D01*
X56491868Y-54170830D02*
X56444249Y-54218450D01*
X56444249Y-54218450D02*
X56349011Y-54266069D01*
X56349011Y-54266069D02*
X56206154Y-54266069D01*
X57444249Y-54266069D02*
X56968059Y-54266069D01*
X56968059Y-54266069D02*
X56968059Y-53266069D01*
X57777583Y-53742259D02*
X58110916Y-53742259D01*
X58253773Y-54266069D02*
X57777583Y-54266069D01*
X57777583Y-54266069D02*
X57777583Y-53266069D01*
X57777583Y-53266069D02*
X58253773Y-53266069D01*
X58682345Y-54266069D02*
X58682345Y-53266069D01*
X58682345Y-53266069D02*
X58920440Y-53266069D01*
X58920440Y-53266069D02*
X59063297Y-53313688D01*
X59063297Y-53313688D02*
X59158535Y-53408926D01*
X59158535Y-53408926D02*
X59206154Y-53504164D01*
X59206154Y-53504164D02*
X59253773Y-53694640D01*
X59253773Y-53694640D02*
X59253773Y-53837497D01*
X59253773Y-53837497D02*
X59206154Y-54027973D01*
X59206154Y-54027973D02*
X59158535Y-54123211D01*
X59158535Y-54123211D02*
X59063297Y-54218450D01*
X59063297Y-54218450D02*
X58920440Y-54266069D01*
X58920440Y-54266069D02*
X58682345Y-54266069D01*
%TO.C,MX20*%
X156457345Y-30453069D02*
X156457345Y-29453069D01*
X156457345Y-29453069D02*
X156790678Y-30167354D01*
X156790678Y-30167354D02*
X157124011Y-29453069D01*
X157124011Y-29453069D02*
X157124011Y-30453069D01*
X157504964Y-29453069D02*
X158171630Y-30453069D01*
X158171630Y-29453069D02*
X157504964Y-30453069D01*
X158552583Y-30072116D02*
X159314488Y-30072116D01*
X159790678Y-30453069D02*
X159790678Y-29453069D01*
X159790678Y-29453069D02*
X160362106Y-30453069D01*
X160362106Y-30453069D02*
X160362106Y-29453069D01*
X160981154Y-30453069D02*
X160885916Y-30405450D01*
X160885916Y-30405450D02*
X160838297Y-30357830D01*
X160838297Y-30357830D02*
X160790678Y-30262592D01*
X160790678Y-30262592D02*
X160790678Y-29976878D01*
X160790678Y-29976878D02*
X160838297Y-29881640D01*
X160838297Y-29881640D02*
X160885916Y-29834021D01*
X160885916Y-29834021D02*
X160981154Y-29786402D01*
X160981154Y-29786402D02*
X161124011Y-29786402D01*
X161124011Y-29786402D02*
X161219249Y-29834021D01*
X161219249Y-29834021D02*
X161266868Y-29881640D01*
X161266868Y-29881640D02*
X161314487Y-29976878D01*
X161314487Y-29976878D02*
X161314487Y-30262592D01*
X161314487Y-30262592D02*
X161266868Y-30357830D01*
X161266868Y-30357830D02*
X161219249Y-30405450D01*
X161219249Y-30405450D02*
X161124011Y-30453069D01*
X161124011Y-30453069D02*
X160981154Y-30453069D01*
X162219249Y-30453069D02*
X161743059Y-30453069D01*
X161743059Y-30453069D02*
X161743059Y-29453069D01*
X162552583Y-29929259D02*
X162885916Y-29929259D01*
X163028773Y-30453069D02*
X162552583Y-30453069D01*
X162552583Y-30453069D02*
X162552583Y-29453069D01*
X162552583Y-29453069D02*
X163028773Y-29453069D01*
X163457345Y-30453069D02*
X163457345Y-29453069D01*
X163457345Y-29453069D02*
X163695440Y-29453069D01*
X163695440Y-29453069D02*
X163838297Y-29500688D01*
X163838297Y-29500688D02*
X163933535Y-29595926D01*
X163933535Y-29595926D02*
X163981154Y-29691164D01*
X163981154Y-29691164D02*
X164028773Y-29881640D01*
X164028773Y-29881640D02*
X164028773Y-30024497D01*
X164028773Y-30024497D02*
X163981154Y-30214973D01*
X163981154Y-30214973D02*
X163933535Y-30310211D01*
X163933535Y-30310211D02*
X163838297Y-30405450D01*
X163838297Y-30405450D02*
X163695440Y-30453069D01*
X163695440Y-30453069D02*
X163457345Y-30453069D01*
%TO.C,MX52*%
X168363595Y-130466069D02*
X168363595Y-129466069D01*
X168363595Y-129466069D02*
X168696928Y-130180354D01*
X168696928Y-130180354D02*
X169030261Y-129466069D01*
X169030261Y-129466069D02*
X169030261Y-130466069D01*
X169411214Y-129466069D02*
X170077880Y-130466069D01*
X170077880Y-129466069D02*
X169411214Y-130466069D01*
X170458833Y-130085116D02*
X171220738Y-130085116D01*
X171696928Y-130466069D02*
X171696928Y-129466069D01*
X171696928Y-129466069D02*
X172268356Y-130466069D01*
X172268356Y-130466069D02*
X172268356Y-129466069D01*
X172887404Y-130466069D02*
X172792166Y-130418450D01*
X172792166Y-130418450D02*
X172744547Y-130370830D01*
X172744547Y-130370830D02*
X172696928Y-130275592D01*
X172696928Y-130275592D02*
X172696928Y-129989878D01*
X172696928Y-129989878D02*
X172744547Y-129894640D01*
X172744547Y-129894640D02*
X172792166Y-129847021D01*
X172792166Y-129847021D02*
X172887404Y-129799402D01*
X172887404Y-129799402D02*
X173030261Y-129799402D01*
X173030261Y-129799402D02*
X173125499Y-129847021D01*
X173125499Y-129847021D02*
X173173118Y-129894640D01*
X173173118Y-129894640D02*
X173220737Y-129989878D01*
X173220737Y-129989878D02*
X173220737Y-130275592D01*
X173220737Y-130275592D02*
X173173118Y-130370830D01*
X173173118Y-130370830D02*
X173125499Y-130418450D01*
X173125499Y-130418450D02*
X173030261Y-130466069D01*
X173030261Y-130466069D02*
X172887404Y-130466069D01*
X174125499Y-130466069D02*
X173649309Y-130466069D01*
X173649309Y-130466069D02*
X173649309Y-129466069D01*
X174458833Y-129942259D02*
X174792166Y-129942259D01*
X174935023Y-130466069D02*
X174458833Y-130466069D01*
X174458833Y-130466069D02*
X174458833Y-129466069D01*
X174458833Y-129466069D02*
X174935023Y-129466069D01*
X175363595Y-130466069D02*
X175363595Y-129466069D01*
X175363595Y-129466069D02*
X175601690Y-129466069D01*
X175601690Y-129466069D02*
X175744547Y-129513688D01*
X175744547Y-129513688D02*
X175839785Y-129608926D01*
X175839785Y-129608926D02*
X175887404Y-129704164D01*
X175887404Y-129704164D02*
X175935023Y-129894640D01*
X175935023Y-129894640D02*
X175935023Y-130037497D01*
X175935023Y-130037497D02*
X175887404Y-130227973D01*
X175887404Y-130227973D02*
X175839785Y-130323211D01*
X175839785Y-130323211D02*
X175744547Y-130418450D01*
X175744547Y-130418450D02*
X175601690Y-130466069D01*
X175601690Y-130466069D02*
X175363595Y-130466069D01*
%TO.C,MX26*%
X137407345Y-54266069D02*
X137407345Y-53266069D01*
X137407345Y-53266069D02*
X137740678Y-53980354D01*
X137740678Y-53980354D02*
X138074011Y-53266069D01*
X138074011Y-53266069D02*
X138074011Y-54266069D01*
X138454964Y-53266069D02*
X139121630Y-54266069D01*
X139121630Y-53266069D02*
X138454964Y-54266069D01*
X139502583Y-53885116D02*
X140264488Y-53885116D01*
X140740678Y-54266069D02*
X140740678Y-53266069D01*
X140740678Y-53266069D02*
X141312106Y-54266069D01*
X141312106Y-54266069D02*
X141312106Y-53266069D01*
X141931154Y-54266069D02*
X141835916Y-54218450D01*
X141835916Y-54218450D02*
X141788297Y-54170830D01*
X141788297Y-54170830D02*
X141740678Y-54075592D01*
X141740678Y-54075592D02*
X141740678Y-53789878D01*
X141740678Y-53789878D02*
X141788297Y-53694640D01*
X141788297Y-53694640D02*
X141835916Y-53647021D01*
X141835916Y-53647021D02*
X141931154Y-53599402D01*
X141931154Y-53599402D02*
X142074011Y-53599402D01*
X142074011Y-53599402D02*
X142169249Y-53647021D01*
X142169249Y-53647021D02*
X142216868Y-53694640D01*
X142216868Y-53694640D02*
X142264487Y-53789878D01*
X142264487Y-53789878D02*
X142264487Y-54075592D01*
X142264487Y-54075592D02*
X142216868Y-54170830D01*
X142216868Y-54170830D02*
X142169249Y-54218450D01*
X142169249Y-54218450D02*
X142074011Y-54266069D01*
X142074011Y-54266069D02*
X141931154Y-54266069D01*
X143169249Y-54266069D02*
X142693059Y-54266069D01*
X142693059Y-54266069D02*
X142693059Y-53266069D01*
X143502583Y-53742259D02*
X143835916Y-53742259D01*
X143978773Y-54266069D02*
X143502583Y-54266069D01*
X143502583Y-54266069D02*
X143502583Y-53266069D01*
X143502583Y-53266069D02*
X143978773Y-53266069D01*
X144407345Y-54266069D02*
X144407345Y-53266069D01*
X144407345Y-53266069D02*
X144645440Y-53266069D01*
X144645440Y-53266069D02*
X144788297Y-53313688D01*
X144788297Y-53313688D02*
X144883535Y-53408926D01*
X144883535Y-53408926D02*
X144931154Y-53504164D01*
X144931154Y-53504164D02*
X144978773Y-53694640D01*
X144978773Y-53694640D02*
X144978773Y-53837497D01*
X144978773Y-53837497D02*
X144931154Y-54027973D01*
X144931154Y-54027973D02*
X144883535Y-54123211D01*
X144883535Y-54123211D02*
X144788297Y-54218450D01*
X144788297Y-54218450D02*
X144645440Y-54266069D01*
X144645440Y-54266069D02*
X144407345Y-54266069D01*
%TO.C,MX1*%
X32632345Y-54266069D02*
X32632345Y-53266069D01*
X32632345Y-53266069D02*
X32965678Y-53980354D01*
X32965678Y-53980354D02*
X33299011Y-53266069D01*
X33299011Y-53266069D02*
X33299011Y-54266069D01*
X33679964Y-53266069D02*
X34346630Y-54266069D01*
X34346630Y-53266069D02*
X33679964Y-54266069D01*
X34727583Y-53885116D02*
X35489488Y-53885116D01*
X35965678Y-54266069D02*
X35965678Y-53266069D01*
X35965678Y-53266069D02*
X36537106Y-54266069D01*
X36537106Y-54266069D02*
X36537106Y-53266069D01*
X37156154Y-54266069D02*
X37060916Y-54218450D01*
X37060916Y-54218450D02*
X37013297Y-54170830D01*
X37013297Y-54170830D02*
X36965678Y-54075592D01*
X36965678Y-54075592D02*
X36965678Y-53789878D01*
X36965678Y-53789878D02*
X37013297Y-53694640D01*
X37013297Y-53694640D02*
X37060916Y-53647021D01*
X37060916Y-53647021D02*
X37156154Y-53599402D01*
X37156154Y-53599402D02*
X37299011Y-53599402D01*
X37299011Y-53599402D02*
X37394249Y-53647021D01*
X37394249Y-53647021D02*
X37441868Y-53694640D01*
X37441868Y-53694640D02*
X37489487Y-53789878D01*
X37489487Y-53789878D02*
X37489487Y-54075592D01*
X37489487Y-54075592D02*
X37441868Y-54170830D01*
X37441868Y-54170830D02*
X37394249Y-54218450D01*
X37394249Y-54218450D02*
X37299011Y-54266069D01*
X37299011Y-54266069D02*
X37156154Y-54266069D01*
X38394249Y-54266069D02*
X37918059Y-54266069D01*
X37918059Y-54266069D02*
X37918059Y-53266069D01*
X38727583Y-53742259D02*
X39060916Y-53742259D01*
X39203773Y-54266069D02*
X38727583Y-54266069D01*
X38727583Y-54266069D02*
X38727583Y-53266069D01*
X38727583Y-53266069D02*
X39203773Y-53266069D01*
X39632345Y-54266069D02*
X39632345Y-53266069D01*
X39632345Y-53266069D02*
X39870440Y-53266069D01*
X39870440Y-53266069D02*
X40013297Y-53313688D01*
X40013297Y-53313688D02*
X40108535Y-53408926D01*
X40108535Y-53408926D02*
X40156154Y-53504164D01*
X40156154Y-53504164D02*
X40203773Y-53694640D01*
X40203773Y-53694640D02*
X40203773Y-53837497D01*
X40203773Y-53837497D02*
X40156154Y-54027973D01*
X40156154Y-54027973D02*
X40108535Y-54123211D01*
X40108535Y-54123211D02*
X40013297Y-54218450D01*
X40013297Y-54218450D02*
X39870440Y-54266069D01*
X39870440Y-54266069D02*
X39632345Y-54266069D01*
%TO.C,MX38*%
X125501095Y-92366069D02*
X125501095Y-91366069D01*
X125501095Y-91366069D02*
X125834428Y-92080354D01*
X125834428Y-92080354D02*
X126167761Y-91366069D01*
X126167761Y-91366069D02*
X126167761Y-92366069D01*
X126548714Y-91366069D02*
X127215380Y-92366069D01*
X127215380Y-91366069D02*
X126548714Y-92366069D01*
X127596333Y-91985116D02*
X128358238Y-91985116D01*
X128834428Y-92366069D02*
X128834428Y-91366069D01*
X128834428Y-91366069D02*
X129405856Y-92366069D01*
X129405856Y-92366069D02*
X129405856Y-91366069D01*
X130024904Y-92366069D02*
X129929666Y-92318450D01*
X129929666Y-92318450D02*
X129882047Y-92270830D01*
X129882047Y-92270830D02*
X129834428Y-92175592D01*
X129834428Y-92175592D02*
X129834428Y-91889878D01*
X129834428Y-91889878D02*
X129882047Y-91794640D01*
X129882047Y-91794640D02*
X129929666Y-91747021D01*
X129929666Y-91747021D02*
X130024904Y-91699402D01*
X130024904Y-91699402D02*
X130167761Y-91699402D01*
X130167761Y-91699402D02*
X130262999Y-91747021D01*
X130262999Y-91747021D02*
X130310618Y-91794640D01*
X130310618Y-91794640D02*
X130358237Y-91889878D01*
X130358237Y-91889878D02*
X130358237Y-92175592D01*
X130358237Y-92175592D02*
X130310618Y-92270830D01*
X130310618Y-92270830D02*
X130262999Y-92318450D01*
X130262999Y-92318450D02*
X130167761Y-92366069D01*
X130167761Y-92366069D02*
X130024904Y-92366069D01*
X131262999Y-92366069D02*
X130786809Y-92366069D01*
X130786809Y-92366069D02*
X130786809Y-91366069D01*
X131596333Y-91842259D02*
X131929666Y-91842259D01*
X132072523Y-92366069D02*
X131596333Y-92366069D01*
X131596333Y-92366069D02*
X131596333Y-91366069D01*
X131596333Y-91366069D02*
X132072523Y-91366069D01*
X132501095Y-92366069D02*
X132501095Y-91366069D01*
X132501095Y-91366069D02*
X132739190Y-91366069D01*
X132739190Y-91366069D02*
X132882047Y-91413688D01*
X132882047Y-91413688D02*
X132977285Y-91508926D01*
X132977285Y-91508926D02*
X133024904Y-91604164D01*
X133024904Y-91604164D02*
X133072523Y-91794640D01*
X133072523Y-91794640D02*
X133072523Y-91937497D01*
X133072523Y-91937497D02*
X133024904Y-92127973D01*
X133024904Y-92127973D02*
X132977285Y-92223211D01*
X132977285Y-92223211D02*
X132882047Y-92318450D01*
X132882047Y-92318450D02*
X132739190Y-92366069D01*
X132739190Y-92366069D02*
X132501095Y-92366069D01*
%TO.C,MX53*%
X192176095Y-130466069D02*
X192176095Y-129466069D01*
X192176095Y-129466069D02*
X192509428Y-130180354D01*
X192509428Y-130180354D02*
X192842761Y-129466069D01*
X192842761Y-129466069D02*
X192842761Y-130466069D01*
X193223714Y-129466069D02*
X193890380Y-130466069D01*
X193890380Y-129466069D02*
X193223714Y-130466069D01*
X194271333Y-130085116D02*
X195033238Y-130085116D01*
X195509428Y-130466069D02*
X195509428Y-129466069D01*
X195509428Y-129466069D02*
X196080856Y-130466069D01*
X196080856Y-130466069D02*
X196080856Y-129466069D01*
X196699904Y-130466069D02*
X196604666Y-130418450D01*
X196604666Y-130418450D02*
X196557047Y-130370830D01*
X196557047Y-130370830D02*
X196509428Y-130275592D01*
X196509428Y-130275592D02*
X196509428Y-129989878D01*
X196509428Y-129989878D02*
X196557047Y-129894640D01*
X196557047Y-129894640D02*
X196604666Y-129847021D01*
X196604666Y-129847021D02*
X196699904Y-129799402D01*
X196699904Y-129799402D02*
X196842761Y-129799402D01*
X196842761Y-129799402D02*
X196937999Y-129847021D01*
X196937999Y-129847021D02*
X196985618Y-129894640D01*
X196985618Y-129894640D02*
X197033237Y-129989878D01*
X197033237Y-129989878D02*
X197033237Y-130275592D01*
X197033237Y-130275592D02*
X196985618Y-130370830D01*
X196985618Y-130370830D02*
X196937999Y-130418450D01*
X196937999Y-130418450D02*
X196842761Y-130466069D01*
X196842761Y-130466069D02*
X196699904Y-130466069D01*
X197937999Y-130466069D02*
X197461809Y-130466069D01*
X197461809Y-130466069D02*
X197461809Y-129466069D01*
X198271333Y-129942259D02*
X198604666Y-129942259D01*
X198747523Y-130466069D02*
X198271333Y-130466069D01*
X198271333Y-130466069D02*
X198271333Y-129466069D01*
X198271333Y-129466069D02*
X198747523Y-129466069D01*
X199176095Y-130466069D02*
X199176095Y-129466069D01*
X199176095Y-129466069D02*
X199414190Y-129466069D01*
X199414190Y-129466069D02*
X199557047Y-129513688D01*
X199557047Y-129513688D02*
X199652285Y-129608926D01*
X199652285Y-129608926D02*
X199699904Y-129704164D01*
X199699904Y-129704164D02*
X199747523Y-129894640D01*
X199747523Y-129894640D02*
X199747523Y-130037497D01*
X199747523Y-130037497D02*
X199699904Y-130227973D01*
X199699904Y-130227973D02*
X199652285Y-130323211D01*
X199652285Y-130323211D02*
X199557047Y-130418450D01*
X199557047Y-130418450D02*
X199414190Y-130466069D01*
X199414190Y-130466069D02*
X199176095Y-130466069D01*
%TO.C,MX27*%
X156457345Y-54266069D02*
X156457345Y-53266069D01*
X156457345Y-53266069D02*
X156790678Y-53980354D01*
X156790678Y-53980354D02*
X157124011Y-53266069D01*
X157124011Y-53266069D02*
X157124011Y-54266069D01*
X157504964Y-53266069D02*
X158171630Y-54266069D01*
X158171630Y-53266069D02*
X157504964Y-54266069D01*
X158552583Y-53885116D02*
X159314488Y-53885116D01*
X159790678Y-54266069D02*
X159790678Y-53266069D01*
X159790678Y-53266069D02*
X160362106Y-54266069D01*
X160362106Y-54266069D02*
X160362106Y-53266069D01*
X160981154Y-54266069D02*
X160885916Y-54218450D01*
X160885916Y-54218450D02*
X160838297Y-54170830D01*
X160838297Y-54170830D02*
X160790678Y-54075592D01*
X160790678Y-54075592D02*
X160790678Y-53789878D01*
X160790678Y-53789878D02*
X160838297Y-53694640D01*
X160838297Y-53694640D02*
X160885916Y-53647021D01*
X160885916Y-53647021D02*
X160981154Y-53599402D01*
X160981154Y-53599402D02*
X161124011Y-53599402D01*
X161124011Y-53599402D02*
X161219249Y-53647021D01*
X161219249Y-53647021D02*
X161266868Y-53694640D01*
X161266868Y-53694640D02*
X161314487Y-53789878D01*
X161314487Y-53789878D02*
X161314487Y-54075592D01*
X161314487Y-54075592D02*
X161266868Y-54170830D01*
X161266868Y-54170830D02*
X161219249Y-54218450D01*
X161219249Y-54218450D02*
X161124011Y-54266069D01*
X161124011Y-54266069D02*
X160981154Y-54266069D01*
X162219249Y-54266069D02*
X161743059Y-54266069D01*
X161743059Y-54266069D02*
X161743059Y-53266069D01*
X162552583Y-53742259D02*
X162885916Y-53742259D01*
X163028773Y-54266069D02*
X162552583Y-54266069D01*
X162552583Y-54266069D02*
X162552583Y-53266069D01*
X162552583Y-53266069D02*
X163028773Y-53266069D01*
X163457345Y-54266069D02*
X163457345Y-53266069D01*
X163457345Y-53266069D02*
X163695440Y-53266069D01*
X163695440Y-53266069D02*
X163838297Y-53313688D01*
X163838297Y-53313688D02*
X163933535Y-53408926D01*
X163933535Y-53408926D02*
X163981154Y-53504164D01*
X163981154Y-53504164D02*
X164028773Y-53694640D01*
X164028773Y-53694640D02*
X164028773Y-53837497D01*
X164028773Y-53837497D02*
X163981154Y-54027973D01*
X163981154Y-54027973D02*
X163933535Y-54123211D01*
X163933535Y-54123211D02*
X163838297Y-54218450D01*
X163838297Y-54218450D02*
X163695440Y-54266069D01*
X163695440Y-54266069D02*
X163457345Y-54266069D01*
%TO.C,MX10*%
X70732345Y-92366069D02*
X70732345Y-91366069D01*
X70732345Y-91366069D02*
X71065678Y-92080354D01*
X71065678Y-92080354D02*
X71399011Y-91366069D01*
X71399011Y-91366069D02*
X71399011Y-92366069D01*
X71779964Y-91366069D02*
X72446630Y-92366069D01*
X72446630Y-91366069D02*
X71779964Y-92366069D01*
X72827583Y-91985116D02*
X73589488Y-91985116D01*
X74065678Y-92366069D02*
X74065678Y-91366069D01*
X74065678Y-91366069D02*
X74637106Y-92366069D01*
X74637106Y-92366069D02*
X74637106Y-91366069D01*
X75256154Y-92366069D02*
X75160916Y-92318450D01*
X75160916Y-92318450D02*
X75113297Y-92270830D01*
X75113297Y-92270830D02*
X75065678Y-92175592D01*
X75065678Y-92175592D02*
X75065678Y-91889878D01*
X75065678Y-91889878D02*
X75113297Y-91794640D01*
X75113297Y-91794640D02*
X75160916Y-91747021D01*
X75160916Y-91747021D02*
X75256154Y-91699402D01*
X75256154Y-91699402D02*
X75399011Y-91699402D01*
X75399011Y-91699402D02*
X75494249Y-91747021D01*
X75494249Y-91747021D02*
X75541868Y-91794640D01*
X75541868Y-91794640D02*
X75589487Y-91889878D01*
X75589487Y-91889878D02*
X75589487Y-92175592D01*
X75589487Y-92175592D02*
X75541868Y-92270830D01*
X75541868Y-92270830D02*
X75494249Y-92318450D01*
X75494249Y-92318450D02*
X75399011Y-92366069D01*
X75399011Y-92366069D02*
X75256154Y-92366069D01*
X76494249Y-92366069D02*
X76018059Y-92366069D01*
X76018059Y-92366069D02*
X76018059Y-91366069D01*
X76827583Y-91842259D02*
X77160916Y-91842259D01*
X77303773Y-92366069D02*
X76827583Y-92366069D01*
X76827583Y-92366069D02*
X76827583Y-91366069D01*
X76827583Y-91366069D02*
X77303773Y-91366069D01*
X77732345Y-92366069D02*
X77732345Y-91366069D01*
X77732345Y-91366069D02*
X77970440Y-91366069D01*
X77970440Y-91366069D02*
X78113297Y-91413688D01*
X78113297Y-91413688D02*
X78208535Y-91508926D01*
X78208535Y-91508926D02*
X78256154Y-91604164D01*
X78256154Y-91604164D02*
X78303773Y-91794640D01*
X78303773Y-91794640D02*
X78303773Y-91937497D01*
X78303773Y-91937497D02*
X78256154Y-92127973D01*
X78256154Y-92127973D02*
X78208535Y-92223211D01*
X78208535Y-92223211D02*
X78113297Y-92318450D01*
X78113297Y-92318450D02*
X77970440Y-92366069D01*
X77970440Y-92366069D02*
X77732345Y-92366069D01*
%TO.C,MX17*%
X80257345Y-130466069D02*
X80257345Y-129466069D01*
X80257345Y-129466069D02*
X80590678Y-130180354D01*
X80590678Y-130180354D02*
X80924011Y-129466069D01*
X80924011Y-129466069D02*
X80924011Y-130466069D01*
X81304964Y-129466069D02*
X81971630Y-130466069D01*
X81971630Y-129466069D02*
X81304964Y-130466069D01*
X82352583Y-130085116D02*
X83114488Y-130085116D01*
X83590678Y-130466069D02*
X83590678Y-129466069D01*
X83590678Y-129466069D02*
X84162106Y-130466069D01*
X84162106Y-130466069D02*
X84162106Y-129466069D01*
X84781154Y-130466069D02*
X84685916Y-130418450D01*
X84685916Y-130418450D02*
X84638297Y-130370830D01*
X84638297Y-130370830D02*
X84590678Y-130275592D01*
X84590678Y-130275592D02*
X84590678Y-129989878D01*
X84590678Y-129989878D02*
X84638297Y-129894640D01*
X84638297Y-129894640D02*
X84685916Y-129847021D01*
X84685916Y-129847021D02*
X84781154Y-129799402D01*
X84781154Y-129799402D02*
X84924011Y-129799402D01*
X84924011Y-129799402D02*
X85019249Y-129847021D01*
X85019249Y-129847021D02*
X85066868Y-129894640D01*
X85066868Y-129894640D02*
X85114487Y-129989878D01*
X85114487Y-129989878D02*
X85114487Y-130275592D01*
X85114487Y-130275592D02*
X85066868Y-130370830D01*
X85066868Y-130370830D02*
X85019249Y-130418450D01*
X85019249Y-130418450D02*
X84924011Y-130466069D01*
X84924011Y-130466069D02*
X84781154Y-130466069D01*
X86019249Y-130466069D02*
X85543059Y-130466069D01*
X85543059Y-130466069D02*
X85543059Y-129466069D01*
X86352583Y-129942259D02*
X86685916Y-129942259D01*
X86828773Y-130466069D02*
X86352583Y-130466069D01*
X86352583Y-130466069D02*
X86352583Y-129466069D01*
X86352583Y-129466069D02*
X86828773Y-129466069D01*
X87257345Y-130466069D02*
X87257345Y-129466069D01*
X87257345Y-129466069D02*
X87495440Y-129466069D01*
X87495440Y-129466069D02*
X87638297Y-129513688D01*
X87638297Y-129513688D02*
X87733535Y-129608926D01*
X87733535Y-129608926D02*
X87781154Y-129704164D01*
X87781154Y-129704164D02*
X87828773Y-129894640D01*
X87828773Y-129894640D02*
X87828773Y-130037497D01*
X87828773Y-130037497D02*
X87781154Y-130227973D01*
X87781154Y-130227973D02*
X87733535Y-130323211D01*
X87733535Y-130323211D02*
X87638297Y-130418450D01*
X87638297Y-130418450D02*
X87495440Y-130466069D01*
X87495440Y-130466069D02*
X87257345Y-130466069D01*
%TO.C,MX50*%
X120738595Y-130466069D02*
X120738595Y-129466069D01*
X120738595Y-129466069D02*
X121071928Y-130180354D01*
X121071928Y-130180354D02*
X121405261Y-129466069D01*
X121405261Y-129466069D02*
X121405261Y-130466069D01*
X121786214Y-129466069D02*
X122452880Y-130466069D01*
X122452880Y-129466069D02*
X121786214Y-130466069D01*
X122833833Y-130085116D02*
X123595738Y-130085116D01*
X124071928Y-130466069D02*
X124071928Y-129466069D01*
X124071928Y-129466069D02*
X124643356Y-130466069D01*
X124643356Y-130466069D02*
X124643356Y-129466069D01*
X125262404Y-130466069D02*
X125167166Y-130418450D01*
X125167166Y-130418450D02*
X125119547Y-130370830D01*
X125119547Y-130370830D02*
X125071928Y-130275592D01*
X125071928Y-130275592D02*
X125071928Y-129989878D01*
X125071928Y-129989878D02*
X125119547Y-129894640D01*
X125119547Y-129894640D02*
X125167166Y-129847021D01*
X125167166Y-129847021D02*
X125262404Y-129799402D01*
X125262404Y-129799402D02*
X125405261Y-129799402D01*
X125405261Y-129799402D02*
X125500499Y-129847021D01*
X125500499Y-129847021D02*
X125548118Y-129894640D01*
X125548118Y-129894640D02*
X125595737Y-129989878D01*
X125595737Y-129989878D02*
X125595737Y-130275592D01*
X125595737Y-130275592D02*
X125548118Y-130370830D01*
X125548118Y-130370830D02*
X125500499Y-130418450D01*
X125500499Y-130418450D02*
X125405261Y-130466069D01*
X125405261Y-130466069D02*
X125262404Y-130466069D01*
X126500499Y-130466069D02*
X126024309Y-130466069D01*
X126024309Y-130466069D02*
X126024309Y-129466069D01*
X126833833Y-129942259D02*
X127167166Y-129942259D01*
X127310023Y-130466069D02*
X126833833Y-130466069D01*
X126833833Y-130466069D02*
X126833833Y-129466069D01*
X126833833Y-129466069D02*
X127310023Y-129466069D01*
X127738595Y-130466069D02*
X127738595Y-129466069D01*
X127738595Y-129466069D02*
X127976690Y-129466069D01*
X127976690Y-129466069D02*
X128119547Y-129513688D01*
X128119547Y-129513688D02*
X128214785Y-129608926D01*
X128214785Y-129608926D02*
X128262404Y-129704164D01*
X128262404Y-129704164D02*
X128310023Y-129894640D01*
X128310023Y-129894640D02*
X128310023Y-130037497D01*
X128310023Y-130037497D02*
X128262404Y-130227973D01*
X128262404Y-130227973D02*
X128214785Y-130323211D01*
X128214785Y-130323211D02*
X128119547Y-130418450D01*
X128119547Y-130418450D02*
X127976690Y-130466069D01*
X127976690Y-130466069D02*
X127738595Y-130466069D01*
%TO.C,U2*%
X238461569Y-51272654D02*
X239271092Y-51272654D01*
X239271092Y-51272654D02*
X239366330Y-51225035D01*
X239366330Y-51225035D02*
X239413950Y-51177416D01*
X239413950Y-51177416D02*
X239461569Y-51082178D01*
X239461569Y-51082178D02*
X239461569Y-50891702D01*
X239461569Y-50891702D02*
X239413950Y-50796464D01*
X239413950Y-50796464D02*
X239366330Y-50748845D01*
X239366330Y-50748845D02*
X239271092Y-50701226D01*
X239271092Y-50701226D02*
X238461569Y-50701226D01*
X238556807Y-50272654D02*
X238509188Y-50225035D01*
X238509188Y-50225035D02*
X238461569Y-50129797D01*
X238461569Y-50129797D02*
X238461569Y-49891702D01*
X238461569Y-49891702D02*
X238509188Y-49796464D01*
X238509188Y-49796464D02*
X238556807Y-49748845D01*
X238556807Y-49748845D02*
X238652045Y-49701226D01*
X238652045Y-49701226D02*
X238747283Y-49701226D01*
X238747283Y-49701226D02*
X238890140Y-49748845D01*
X238890140Y-49748845D02*
X239461569Y-50320273D01*
X239461569Y-50320273D02*
X239461569Y-49701226D01*
%TO.C,MX31*%
X232657345Y-54266069D02*
X232657345Y-53266069D01*
X232657345Y-53266069D02*
X232990678Y-53980354D01*
X232990678Y-53980354D02*
X233324011Y-53266069D01*
X233324011Y-53266069D02*
X233324011Y-54266069D01*
X233704964Y-53266069D02*
X234371630Y-54266069D01*
X234371630Y-53266069D02*
X233704964Y-54266069D01*
X234752583Y-53885116D02*
X235514488Y-53885116D01*
X235990678Y-54266069D02*
X235990678Y-53266069D01*
X235990678Y-53266069D02*
X236562106Y-54266069D01*
X236562106Y-54266069D02*
X236562106Y-53266069D01*
X237181154Y-54266069D02*
X237085916Y-54218450D01*
X237085916Y-54218450D02*
X237038297Y-54170830D01*
X237038297Y-54170830D02*
X236990678Y-54075592D01*
X236990678Y-54075592D02*
X236990678Y-53789878D01*
X236990678Y-53789878D02*
X237038297Y-53694640D01*
X237038297Y-53694640D02*
X237085916Y-53647021D01*
X237085916Y-53647021D02*
X237181154Y-53599402D01*
X237181154Y-53599402D02*
X237324011Y-53599402D01*
X237324011Y-53599402D02*
X237419249Y-53647021D01*
X237419249Y-53647021D02*
X237466868Y-53694640D01*
X237466868Y-53694640D02*
X237514487Y-53789878D01*
X237514487Y-53789878D02*
X237514487Y-54075592D01*
X237514487Y-54075592D02*
X237466868Y-54170830D01*
X237466868Y-54170830D02*
X237419249Y-54218450D01*
X237419249Y-54218450D02*
X237324011Y-54266069D01*
X237324011Y-54266069D02*
X237181154Y-54266069D01*
X238419249Y-54266069D02*
X237943059Y-54266069D01*
X237943059Y-54266069D02*
X237943059Y-53266069D01*
X238752583Y-53742259D02*
X239085916Y-53742259D01*
X239228773Y-54266069D02*
X238752583Y-54266069D01*
X238752583Y-54266069D02*
X238752583Y-53266069D01*
X238752583Y-53266069D02*
X239228773Y-53266069D01*
X239657345Y-54266069D02*
X239657345Y-53266069D01*
X239657345Y-53266069D02*
X239895440Y-53266069D01*
X239895440Y-53266069D02*
X240038297Y-53313688D01*
X240038297Y-53313688D02*
X240133535Y-53408926D01*
X240133535Y-53408926D02*
X240181154Y-53504164D01*
X240181154Y-53504164D02*
X240228773Y-53694640D01*
X240228773Y-53694640D02*
X240228773Y-53837497D01*
X240228773Y-53837497D02*
X240181154Y-54027973D01*
X240181154Y-54027973D02*
X240133535Y-54123211D01*
X240133535Y-54123211D02*
X240038297Y-54218450D01*
X240038297Y-54218450D02*
X239895440Y-54266069D01*
X239895440Y-54266069D02*
X239657345Y-54266069D01*
%TO.C,MX18*%
X118357345Y-30453069D02*
X118357345Y-29453069D01*
X118357345Y-29453069D02*
X118690678Y-30167354D01*
X118690678Y-30167354D02*
X119024011Y-29453069D01*
X119024011Y-29453069D02*
X119024011Y-30453069D01*
X119404964Y-29453069D02*
X120071630Y-30453069D01*
X120071630Y-29453069D02*
X119404964Y-30453069D01*
X120452583Y-30072116D02*
X121214488Y-30072116D01*
X121690678Y-30453069D02*
X121690678Y-29453069D01*
X121690678Y-29453069D02*
X122262106Y-30453069D01*
X122262106Y-30453069D02*
X122262106Y-29453069D01*
X122881154Y-30453069D02*
X122785916Y-30405450D01*
X122785916Y-30405450D02*
X122738297Y-30357830D01*
X122738297Y-30357830D02*
X122690678Y-30262592D01*
X122690678Y-30262592D02*
X122690678Y-29976878D01*
X122690678Y-29976878D02*
X122738297Y-29881640D01*
X122738297Y-29881640D02*
X122785916Y-29834021D01*
X122785916Y-29834021D02*
X122881154Y-29786402D01*
X122881154Y-29786402D02*
X123024011Y-29786402D01*
X123024011Y-29786402D02*
X123119249Y-29834021D01*
X123119249Y-29834021D02*
X123166868Y-29881640D01*
X123166868Y-29881640D02*
X123214487Y-29976878D01*
X123214487Y-29976878D02*
X123214487Y-30262592D01*
X123214487Y-30262592D02*
X123166868Y-30357830D01*
X123166868Y-30357830D02*
X123119249Y-30405450D01*
X123119249Y-30405450D02*
X123024011Y-30453069D01*
X123024011Y-30453069D02*
X122881154Y-30453069D01*
X124119249Y-30453069D02*
X123643059Y-30453069D01*
X123643059Y-30453069D02*
X123643059Y-29453069D01*
X124452583Y-29929259D02*
X124785916Y-29929259D01*
X124928773Y-30453069D02*
X124452583Y-30453069D01*
X124452583Y-30453069D02*
X124452583Y-29453069D01*
X124452583Y-29453069D02*
X124928773Y-29453069D01*
X125357345Y-30453069D02*
X125357345Y-29453069D01*
X125357345Y-29453069D02*
X125595440Y-29453069D01*
X125595440Y-29453069D02*
X125738297Y-29500688D01*
X125738297Y-29500688D02*
X125833535Y-29595926D01*
X125833535Y-29595926D02*
X125881154Y-29691164D01*
X125881154Y-29691164D02*
X125928773Y-29881640D01*
X125928773Y-29881640D02*
X125928773Y-30024497D01*
X125928773Y-30024497D02*
X125881154Y-30214973D01*
X125881154Y-30214973D02*
X125833535Y-30310211D01*
X125833535Y-30310211D02*
X125738297Y-30405450D01*
X125738297Y-30405450D02*
X125595440Y-30453069D01*
X125595440Y-30453069D02*
X125357345Y-30453069D01*
%TO.C,MX42*%
X208844845Y-92366069D02*
X208844845Y-91366069D01*
X208844845Y-91366069D02*
X209178178Y-92080354D01*
X209178178Y-92080354D02*
X209511511Y-91366069D01*
X209511511Y-91366069D02*
X209511511Y-92366069D01*
X209892464Y-91366069D02*
X210559130Y-92366069D01*
X210559130Y-91366069D02*
X209892464Y-92366069D01*
X210940083Y-91985116D02*
X211701988Y-91985116D01*
X212178178Y-92366069D02*
X212178178Y-91366069D01*
X212178178Y-91366069D02*
X212749606Y-92366069D01*
X212749606Y-92366069D02*
X212749606Y-91366069D01*
X213368654Y-92366069D02*
X213273416Y-92318450D01*
X213273416Y-92318450D02*
X213225797Y-92270830D01*
X213225797Y-92270830D02*
X213178178Y-92175592D01*
X213178178Y-92175592D02*
X213178178Y-91889878D01*
X213178178Y-91889878D02*
X213225797Y-91794640D01*
X213225797Y-91794640D02*
X213273416Y-91747021D01*
X213273416Y-91747021D02*
X213368654Y-91699402D01*
X213368654Y-91699402D02*
X213511511Y-91699402D01*
X213511511Y-91699402D02*
X213606749Y-91747021D01*
X213606749Y-91747021D02*
X213654368Y-91794640D01*
X213654368Y-91794640D02*
X213701987Y-91889878D01*
X213701987Y-91889878D02*
X213701987Y-92175592D01*
X213701987Y-92175592D02*
X213654368Y-92270830D01*
X213654368Y-92270830D02*
X213606749Y-92318450D01*
X213606749Y-92318450D02*
X213511511Y-92366069D01*
X213511511Y-92366069D02*
X213368654Y-92366069D01*
X214606749Y-92366069D02*
X214130559Y-92366069D01*
X214130559Y-92366069D02*
X214130559Y-91366069D01*
X214940083Y-91842259D02*
X215273416Y-91842259D01*
X215416273Y-92366069D02*
X214940083Y-92366069D01*
X214940083Y-92366069D02*
X214940083Y-91366069D01*
X214940083Y-91366069D02*
X215416273Y-91366069D01*
X215844845Y-92366069D02*
X215844845Y-91366069D01*
X215844845Y-91366069D02*
X216082940Y-91366069D01*
X216082940Y-91366069D02*
X216225797Y-91413688D01*
X216225797Y-91413688D02*
X216321035Y-91508926D01*
X216321035Y-91508926D02*
X216368654Y-91604164D01*
X216368654Y-91604164D02*
X216416273Y-91794640D01*
X216416273Y-91794640D02*
X216416273Y-91937497D01*
X216416273Y-91937497D02*
X216368654Y-92127973D01*
X216368654Y-92127973D02*
X216321035Y-92223211D01*
X216321035Y-92223211D02*
X216225797Y-92318450D01*
X216225797Y-92318450D02*
X216082940Y-92366069D01*
X216082940Y-92366069D02*
X215844845Y-92366069D01*
%TO.C,MX22*%
X194557345Y-30453069D02*
X194557345Y-29453069D01*
X194557345Y-29453069D02*
X194890678Y-30167354D01*
X194890678Y-30167354D02*
X195224011Y-29453069D01*
X195224011Y-29453069D02*
X195224011Y-30453069D01*
X195604964Y-29453069D02*
X196271630Y-30453069D01*
X196271630Y-29453069D02*
X195604964Y-30453069D01*
X196652583Y-30072116D02*
X197414488Y-30072116D01*
X197890678Y-30453069D02*
X197890678Y-29453069D01*
X197890678Y-29453069D02*
X198462106Y-30453069D01*
X198462106Y-30453069D02*
X198462106Y-29453069D01*
X199081154Y-30453069D02*
X198985916Y-30405450D01*
X198985916Y-30405450D02*
X198938297Y-30357830D01*
X198938297Y-30357830D02*
X198890678Y-30262592D01*
X198890678Y-30262592D02*
X198890678Y-29976878D01*
X198890678Y-29976878D02*
X198938297Y-29881640D01*
X198938297Y-29881640D02*
X198985916Y-29834021D01*
X198985916Y-29834021D02*
X199081154Y-29786402D01*
X199081154Y-29786402D02*
X199224011Y-29786402D01*
X199224011Y-29786402D02*
X199319249Y-29834021D01*
X199319249Y-29834021D02*
X199366868Y-29881640D01*
X199366868Y-29881640D02*
X199414487Y-29976878D01*
X199414487Y-29976878D02*
X199414487Y-30262592D01*
X199414487Y-30262592D02*
X199366868Y-30357830D01*
X199366868Y-30357830D02*
X199319249Y-30405450D01*
X199319249Y-30405450D02*
X199224011Y-30453069D01*
X199224011Y-30453069D02*
X199081154Y-30453069D01*
X200319249Y-30453069D02*
X199843059Y-30453069D01*
X199843059Y-30453069D02*
X199843059Y-29453069D01*
X200652583Y-29929259D02*
X200985916Y-29929259D01*
X201128773Y-30453069D02*
X200652583Y-30453069D01*
X200652583Y-30453069D02*
X200652583Y-29453069D01*
X200652583Y-29453069D02*
X201128773Y-29453069D01*
X201557345Y-30453069D02*
X201557345Y-29453069D01*
X201557345Y-29453069D02*
X201795440Y-29453069D01*
X201795440Y-29453069D02*
X201938297Y-29500688D01*
X201938297Y-29500688D02*
X202033535Y-29595926D01*
X202033535Y-29595926D02*
X202081154Y-29691164D01*
X202081154Y-29691164D02*
X202128773Y-29881640D01*
X202128773Y-29881640D02*
X202128773Y-30024497D01*
X202128773Y-30024497D02*
X202081154Y-30214973D01*
X202081154Y-30214973D02*
X202033535Y-30310211D01*
X202033535Y-30310211D02*
X201938297Y-30405450D01*
X201938297Y-30405450D02*
X201795440Y-30453069D01*
X201795440Y-30453069D02*
X201557345Y-30453069D01*
%TO.C,MX16*%
X51682345Y-130466069D02*
X51682345Y-129466069D01*
X51682345Y-129466069D02*
X52015678Y-130180354D01*
X52015678Y-130180354D02*
X52349011Y-129466069D01*
X52349011Y-129466069D02*
X52349011Y-130466069D01*
X52729964Y-129466069D02*
X53396630Y-130466069D01*
X53396630Y-129466069D02*
X52729964Y-130466069D01*
X53777583Y-130085116D02*
X54539488Y-130085116D01*
X55015678Y-130466069D02*
X55015678Y-129466069D01*
X55015678Y-129466069D02*
X55587106Y-130466069D01*
X55587106Y-130466069D02*
X55587106Y-129466069D01*
X56206154Y-130466069D02*
X56110916Y-130418450D01*
X56110916Y-130418450D02*
X56063297Y-130370830D01*
X56063297Y-130370830D02*
X56015678Y-130275592D01*
X56015678Y-130275592D02*
X56015678Y-129989878D01*
X56015678Y-129989878D02*
X56063297Y-129894640D01*
X56063297Y-129894640D02*
X56110916Y-129847021D01*
X56110916Y-129847021D02*
X56206154Y-129799402D01*
X56206154Y-129799402D02*
X56349011Y-129799402D01*
X56349011Y-129799402D02*
X56444249Y-129847021D01*
X56444249Y-129847021D02*
X56491868Y-129894640D01*
X56491868Y-129894640D02*
X56539487Y-129989878D01*
X56539487Y-129989878D02*
X56539487Y-130275592D01*
X56539487Y-130275592D02*
X56491868Y-130370830D01*
X56491868Y-130370830D02*
X56444249Y-130418450D01*
X56444249Y-130418450D02*
X56349011Y-130466069D01*
X56349011Y-130466069D02*
X56206154Y-130466069D01*
X57444249Y-130466069D02*
X56968059Y-130466069D01*
X56968059Y-130466069D02*
X56968059Y-129466069D01*
X57777583Y-129942259D02*
X58110916Y-129942259D01*
X58253773Y-130466069D02*
X57777583Y-130466069D01*
X57777583Y-130466069D02*
X57777583Y-129466069D01*
X57777583Y-129466069D02*
X58253773Y-129466069D01*
X58682345Y-130466069D02*
X58682345Y-129466069D01*
X58682345Y-129466069D02*
X58920440Y-129466069D01*
X58920440Y-129466069D02*
X59063297Y-129513688D01*
X59063297Y-129513688D02*
X59158535Y-129608926D01*
X59158535Y-129608926D02*
X59206154Y-129704164D01*
X59206154Y-129704164D02*
X59253773Y-129894640D01*
X59253773Y-129894640D02*
X59253773Y-130037497D01*
X59253773Y-130037497D02*
X59206154Y-130227973D01*
X59206154Y-130227973D02*
X59158535Y-130323211D01*
X59158535Y-130323211D02*
X59063297Y-130418450D01*
X59063297Y-130418450D02*
X58920440Y-130466069D01*
X58920440Y-130466069D02*
X58682345Y-130466069D01*
%TO.C,MX8*%
X28006807Y-91133273D02*
X27959188Y-91085654D01*
X27959188Y-91085654D02*
X27911569Y-90990416D01*
X27911569Y-90990416D02*
X27911569Y-90752321D01*
X27911569Y-90752321D02*
X27959188Y-90657083D01*
X27959188Y-90657083D02*
X28006807Y-90609464D01*
X28006807Y-90609464D02*
X28102045Y-90561845D01*
X28102045Y-90561845D02*
X28197283Y-90561845D01*
X28197283Y-90561845D02*
X28340140Y-90609464D01*
X28340140Y-90609464D02*
X28911569Y-91180892D01*
X28911569Y-91180892D02*
X28911569Y-90561845D01*
X27911569Y-90133273D02*
X28721092Y-90133273D01*
X28721092Y-90133273D02*
X28816330Y-90085654D01*
X28816330Y-90085654D02*
X28863950Y-90038035D01*
X28863950Y-90038035D02*
X28911569Y-89942797D01*
X28911569Y-89942797D02*
X28911569Y-89752321D01*
X28911569Y-89752321D02*
X28863950Y-89657083D01*
X28863950Y-89657083D02*
X28816330Y-89609464D01*
X28816330Y-89609464D02*
X28721092Y-89561845D01*
X28721092Y-89561845D02*
X27911569Y-89561845D01*
%TO.C,MX33*%
X146932345Y-73316069D02*
X146932345Y-72316069D01*
X146932345Y-72316069D02*
X147265678Y-73030354D01*
X147265678Y-73030354D02*
X147599011Y-72316069D01*
X147599011Y-72316069D02*
X147599011Y-73316069D01*
X147979964Y-72316069D02*
X148646630Y-73316069D01*
X148646630Y-72316069D02*
X147979964Y-73316069D01*
X149027583Y-72935116D02*
X149789488Y-72935116D01*
X150265678Y-73316069D02*
X150265678Y-72316069D01*
X150265678Y-72316069D02*
X150837106Y-73316069D01*
X150837106Y-73316069D02*
X150837106Y-72316069D01*
X151456154Y-73316069D02*
X151360916Y-73268450D01*
X151360916Y-73268450D02*
X151313297Y-73220830D01*
X151313297Y-73220830D02*
X151265678Y-73125592D01*
X151265678Y-73125592D02*
X151265678Y-72839878D01*
X151265678Y-72839878D02*
X151313297Y-72744640D01*
X151313297Y-72744640D02*
X151360916Y-72697021D01*
X151360916Y-72697021D02*
X151456154Y-72649402D01*
X151456154Y-72649402D02*
X151599011Y-72649402D01*
X151599011Y-72649402D02*
X151694249Y-72697021D01*
X151694249Y-72697021D02*
X151741868Y-72744640D01*
X151741868Y-72744640D02*
X151789487Y-72839878D01*
X151789487Y-72839878D02*
X151789487Y-73125592D01*
X151789487Y-73125592D02*
X151741868Y-73220830D01*
X151741868Y-73220830D02*
X151694249Y-73268450D01*
X151694249Y-73268450D02*
X151599011Y-73316069D01*
X151599011Y-73316069D02*
X151456154Y-73316069D01*
X152694249Y-73316069D02*
X152218059Y-73316069D01*
X152218059Y-73316069D02*
X152218059Y-72316069D01*
X153027583Y-72792259D02*
X153360916Y-72792259D01*
X153503773Y-73316069D02*
X153027583Y-73316069D01*
X153027583Y-73316069D02*
X153027583Y-72316069D01*
X153027583Y-72316069D02*
X153503773Y-72316069D01*
X153932345Y-73316069D02*
X153932345Y-72316069D01*
X153932345Y-72316069D02*
X154170440Y-72316069D01*
X154170440Y-72316069D02*
X154313297Y-72363688D01*
X154313297Y-72363688D02*
X154408535Y-72458926D01*
X154408535Y-72458926D02*
X154456154Y-72554164D01*
X154456154Y-72554164D02*
X154503773Y-72744640D01*
X154503773Y-72744640D02*
X154503773Y-72887497D01*
X154503773Y-72887497D02*
X154456154Y-73077973D01*
X154456154Y-73077973D02*
X154408535Y-73173211D01*
X154408535Y-73173211D02*
X154313297Y-73268450D01*
X154313297Y-73268450D02*
X154170440Y-73316069D01*
X154170440Y-73316069D02*
X153932345Y-73316069D01*
%TO.C,MX40*%
X170744845Y-92366069D02*
X170744845Y-91366069D01*
X170744845Y-91366069D02*
X171078178Y-92080354D01*
X171078178Y-92080354D02*
X171411511Y-91366069D01*
X171411511Y-91366069D02*
X171411511Y-92366069D01*
X171792464Y-91366069D02*
X172459130Y-92366069D01*
X172459130Y-91366069D02*
X171792464Y-92366069D01*
X172840083Y-91985116D02*
X173601988Y-91985116D01*
X174078178Y-92366069D02*
X174078178Y-91366069D01*
X174078178Y-91366069D02*
X174649606Y-92366069D01*
X174649606Y-92366069D02*
X174649606Y-91366069D01*
X175268654Y-92366069D02*
X175173416Y-92318450D01*
X175173416Y-92318450D02*
X175125797Y-92270830D01*
X175125797Y-92270830D02*
X175078178Y-92175592D01*
X175078178Y-92175592D02*
X175078178Y-91889878D01*
X175078178Y-91889878D02*
X175125797Y-91794640D01*
X175125797Y-91794640D02*
X175173416Y-91747021D01*
X175173416Y-91747021D02*
X175268654Y-91699402D01*
X175268654Y-91699402D02*
X175411511Y-91699402D01*
X175411511Y-91699402D02*
X175506749Y-91747021D01*
X175506749Y-91747021D02*
X175554368Y-91794640D01*
X175554368Y-91794640D02*
X175601987Y-91889878D01*
X175601987Y-91889878D02*
X175601987Y-92175592D01*
X175601987Y-92175592D02*
X175554368Y-92270830D01*
X175554368Y-92270830D02*
X175506749Y-92318450D01*
X175506749Y-92318450D02*
X175411511Y-92366069D01*
X175411511Y-92366069D02*
X175268654Y-92366069D01*
X176506749Y-92366069D02*
X176030559Y-92366069D01*
X176030559Y-92366069D02*
X176030559Y-91366069D01*
X176840083Y-91842259D02*
X177173416Y-91842259D01*
X177316273Y-92366069D02*
X176840083Y-92366069D01*
X176840083Y-92366069D02*
X176840083Y-91366069D01*
X176840083Y-91366069D02*
X177316273Y-91366069D01*
X177744845Y-92366069D02*
X177744845Y-91366069D01*
X177744845Y-91366069D02*
X177982940Y-91366069D01*
X177982940Y-91366069D02*
X178125797Y-91413688D01*
X178125797Y-91413688D02*
X178221035Y-91508926D01*
X178221035Y-91508926D02*
X178268654Y-91604164D01*
X178268654Y-91604164D02*
X178316273Y-91794640D01*
X178316273Y-91794640D02*
X178316273Y-91937497D01*
X178316273Y-91937497D02*
X178268654Y-92127973D01*
X178268654Y-92127973D02*
X178221035Y-92223211D01*
X178221035Y-92223211D02*
X178125797Y-92318450D01*
X178125797Y-92318450D02*
X177982940Y-92366069D01*
X177982940Y-92366069D02*
X177744845Y-92366069D01*
%TO.C,MX34*%
X165982345Y-73316069D02*
X165982345Y-72316069D01*
X165982345Y-72316069D02*
X166315678Y-73030354D01*
X166315678Y-73030354D02*
X166649011Y-72316069D01*
X166649011Y-72316069D02*
X166649011Y-73316069D01*
X167029964Y-72316069D02*
X167696630Y-73316069D01*
X167696630Y-72316069D02*
X167029964Y-73316069D01*
X168077583Y-72935116D02*
X168839488Y-72935116D01*
X169315678Y-73316069D02*
X169315678Y-72316069D01*
X169315678Y-72316069D02*
X169887106Y-73316069D01*
X169887106Y-73316069D02*
X169887106Y-72316069D01*
X170506154Y-73316069D02*
X170410916Y-73268450D01*
X170410916Y-73268450D02*
X170363297Y-73220830D01*
X170363297Y-73220830D02*
X170315678Y-73125592D01*
X170315678Y-73125592D02*
X170315678Y-72839878D01*
X170315678Y-72839878D02*
X170363297Y-72744640D01*
X170363297Y-72744640D02*
X170410916Y-72697021D01*
X170410916Y-72697021D02*
X170506154Y-72649402D01*
X170506154Y-72649402D02*
X170649011Y-72649402D01*
X170649011Y-72649402D02*
X170744249Y-72697021D01*
X170744249Y-72697021D02*
X170791868Y-72744640D01*
X170791868Y-72744640D02*
X170839487Y-72839878D01*
X170839487Y-72839878D02*
X170839487Y-73125592D01*
X170839487Y-73125592D02*
X170791868Y-73220830D01*
X170791868Y-73220830D02*
X170744249Y-73268450D01*
X170744249Y-73268450D02*
X170649011Y-73316069D01*
X170649011Y-73316069D02*
X170506154Y-73316069D01*
X171744249Y-73316069D02*
X171268059Y-73316069D01*
X171268059Y-73316069D02*
X171268059Y-72316069D01*
X172077583Y-72792259D02*
X172410916Y-72792259D01*
X172553773Y-73316069D02*
X172077583Y-73316069D01*
X172077583Y-73316069D02*
X172077583Y-72316069D01*
X172077583Y-72316069D02*
X172553773Y-72316069D01*
X172982345Y-73316069D02*
X172982345Y-72316069D01*
X172982345Y-72316069D02*
X173220440Y-72316069D01*
X173220440Y-72316069D02*
X173363297Y-72363688D01*
X173363297Y-72363688D02*
X173458535Y-72458926D01*
X173458535Y-72458926D02*
X173506154Y-72554164D01*
X173506154Y-72554164D02*
X173553773Y-72744640D01*
X173553773Y-72744640D02*
X173553773Y-72887497D01*
X173553773Y-72887497D02*
X173506154Y-73077973D01*
X173506154Y-73077973D02*
X173458535Y-73173211D01*
X173458535Y-73173211D02*
X173363297Y-73268450D01*
X173363297Y-73268450D02*
X173220440Y-73316069D01*
X173220440Y-73316069D02*
X172982345Y-73316069D01*
%TO.C,MX11*%
X89782345Y-92366069D02*
X89782345Y-91366069D01*
X89782345Y-91366069D02*
X90115678Y-92080354D01*
X90115678Y-92080354D02*
X90449011Y-91366069D01*
X90449011Y-91366069D02*
X90449011Y-92366069D01*
X90829964Y-91366069D02*
X91496630Y-92366069D01*
X91496630Y-91366069D02*
X90829964Y-92366069D01*
X91877583Y-91985116D02*
X92639488Y-91985116D01*
X93115678Y-92366069D02*
X93115678Y-91366069D01*
X93115678Y-91366069D02*
X93687106Y-92366069D01*
X93687106Y-92366069D02*
X93687106Y-91366069D01*
X94306154Y-92366069D02*
X94210916Y-92318450D01*
X94210916Y-92318450D02*
X94163297Y-92270830D01*
X94163297Y-92270830D02*
X94115678Y-92175592D01*
X94115678Y-92175592D02*
X94115678Y-91889878D01*
X94115678Y-91889878D02*
X94163297Y-91794640D01*
X94163297Y-91794640D02*
X94210916Y-91747021D01*
X94210916Y-91747021D02*
X94306154Y-91699402D01*
X94306154Y-91699402D02*
X94449011Y-91699402D01*
X94449011Y-91699402D02*
X94544249Y-91747021D01*
X94544249Y-91747021D02*
X94591868Y-91794640D01*
X94591868Y-91794640D02*
X94639487Y-91889878D01*
X94639487Y-91889878D02*
X94639487Y-92175592D01*
X94639487Y-92175592D02*
X94591868Y-92270830D01*
X94591868Y-92270830D02*
X94544249Y-92318450D01*
X94544249Y-92318450D02*
X94449011Y-92366069D01*
X94449011Y-92366069D02*
X94306154Y-92366069D01*
X95544249Y-92366069D02*
X95068059Y-92366069D01*
X95068059Y-92366069D02*
X95068059Y-91366069D01*
X95877583Y-91842259D02*
X96210916Y-91842259D01*
X96353773Y-92366069D02*
X95877583Y-92366069D01*
X95877583Y-92366069D02*
X95877583Y-91366069D01*
X95877583Y-91366069D02*
X96353773Y-91366069D01*
X96782345Y-92366069D02*
X96782345Y-91366069D01*
X96782345Y-91366069D02*
X97020440Y-91366069D01*
X97020440Y-91366069D02*
X97163297Y-91413688D01*
X97163297Y-91413688D02*
X97258535Y-91508926D01*
X97258535Y-91508926D02*
X97306154Y-91604164D01*
X97306154Y-91604164D02*
X97353773Y-91794640D01*
X97353773Y-91794640D02*
X97353773Y-91937497D01*
X97353773Y-91937497D02*
X97306154Y-92127973D01*
X97306154Y-92127973D02*
X97258535Y-92223211D01*
X97258535Y-92223211D02*
X97163297Y-92318450D01*
X97163297Y-92318450D02*
X97020440Y-92366069D01*
X97020440Y-92366069D02*
X96782345Y-92366069D01*
%TO.C,MX3*%
X70732345Y-54266069D02*
X70732345Y-53266069D01*
X70732345Y-53266069D02*
X71065678Y-53980354D01*
X71065678Y-53980354D02*
X71399011Y-53266069D01*
X71399011Y-53266069D02*
X71399011Y-54266069D01*
X71779964Y-53266069D02*
X72446630Y-54266069D01*
X72446630Y-53266069D02*
X71779964Y-54266069D01*
X72827583Y-53885116D02*
X73589488Y-53885116D01*
X74065678Y-54266069D02*
X74065678Y-53266069D01*
X74065678Y-53266069D02*
X74637106Y-54266069D01*
X74637106Y-54266069D02*
X74637106Y-53266069D01*
X75256154Y-54266069D02*
X75160916Y-54218450D01*
X75160916Y-54218450D02*
X75113297Y-54170830D01*
X75113297Y-54170830D02*
X75065678Y-54075592D01*
X75065678Y-54075592D02*
X75065678Y-53789878D01*
X75065678Y-53789878D02*
X75113297Y-53694640D01*
X75113297Y-53694640D02*
X75160916Y-53647021D01*
X75160916Y-53647021D02*
X75256154Y-53599402D01*
X75256154Y-53599402D02*
X75399011Y-53599402D01*
X75399011Y-53599402D02*
X75494249Y-53647021D01*
X75494249Y-53647021D02*
X75541868Y-53694640D01*
X75541868Y-53694640D02*
X75589487Y-53789878D01*
X75589487Y-53789878D02*
X75589487Y-54075592D01*
X75589487Y-54075592D02*
X75541868Y-54170830D01*
X75541868Y-54170830D02*
X75494249Y-54218450D01*
X75494249Y-54218450D02*
X75399011Y-54266069D01*
X75399011Y-54266069D02*
X75256154Y-54266069D01*
X76494249Y-54266069D02*
X76018059Y-54266069D01*
X76018059Y-54266069D02*
X76018059Y-53266069D01*
X76827583Y-53742259D02*
X77160916Y-53742259D01*
X77303773Y-54266069D02*
X76827583Y-54266069D01*
X76827583Y-54266069D02*
X76827583Y-53266069D01*
X76827583Y-53266069D02*
X77303773Y-53266069D01*
X77732345Y-54266069D02*
X77732345Y-53266069D01*
X77732345Y-53266069D02*
X77970440Y-53266069D01*
X77970440Y-53266069D02*
X78113297Y-53313688D01*
X78113297Y-53313688D02*
X78208535Y-53408926D01*
X78208535Y-53408926D02*
X78256154Y-53504164D01*
X78256154Y-53504164D02*
X78303773Y-53694640D01*
X78303773Y-53694640D02*
X78303773Y-53837497D01*
X78303773Y-53837497D02*
X78256154Y-54027973D01*
X78256154Y-54027973D02*
X78208535Y-54123211D01*
X78208535Y-54123211D02*
X78113297Y-54218450D01*
X78113297Y-54218450D02*
X77970440Y-54266069D01*
X77970440Y-54266069D02*
X77732345Y-54266069D01*
%TO.C,MX37*%
X223132345Y-73316069D02*
X223132345Y-72316069D01*
X223132345Y-72316069D02*
X223465678Y-73030354D01*
X223465678Y-73030354D02*
X223799011Y-72316069D01*
X223799011Y-72316069D02*
X223799011Y-73316069D01*
X224179964Y-72316069D02*
X224846630Y-73316069D01*
X224846630Y-72316069D02*
X224179964Y-73316069D01*
X225227583Y-72935116D02*
X225989488Y-72935116D01*
X226465678Y-73316069D02*
X226465678Y-72316069D01*
X226465678Y-72316069D02*
X227037106Y-73316069D01*
X227037106Y-73316069D02*
X227037106Y-72316069D01*
X227656154Y-73316069D02*
X227560916Y-73268450D01*
X227560916Y-73268450D02*
X227513297Y-73220830D01*
X227513297Y-73220830D02*
X227465678Y-73125592D01*
X227465678Y-73125592D02*
X227465678Y-72839878D01*
X227465678Y-72839878D02*
X227513297Y-72744640D01*
X227513297Y-72744640D02*
X227560916Y-72697021D01*
X227560916Y-72697021D02*
X227656154Y-72649402D01*
X227656154Y-72649402D02*
X227799011Y-72649402D01*
X227799011Y-72649402D02*
X227894249Y-72697021D01*
X227894249Y-72697021D02*
X227941868Y-72744640D01*
X227941868Y-72744640D02*
X227989487Y-72839878D01*
X227989487Y-72839878D02*
X227989487Y-73125592D01*
X227989487Y-73125592D02*
X227941868Y-73220830D01*
X227941868Y-73220830D02*
X227894249Y-73268450D01*
X227894249Y-73268450D02*
X227799011Y-73316069D01*
X227799011Y-73316069D02*
X227656154Y-73316069D01*
X228894249Y-73316069D02*
X228418059Y-73316069D01*
X228418059Y-73316069D02*
X228418059Y-72316069D01*
X229227583Y-72792259D02*
X229560916Y-72792259D01*
X229703773Y-73316069D02*
X229227583Y-73316069D01*
X229227583Y-73316069D02*
X229227583Y-72316069D01*
X229227583Y-72316069D02*
X229703773Y-72316069D01*
X230132345Y-73316069D02*
X230132345Y-72316069D01*
X230132345Y-72316069D02*
X230370440Y-72316069D01*
X230370440Y-72316069D02*
X230513297Y-72363688D01*
X230513297Y-72363688D02*
X230608535Y-72458926D01*
X230608535Y-72458926D02*
X230656154Y-72554164D01*
X230656154Y-72554164D02*
X230703773Y-72744640D01*
X230703773Y-72744640D02*
X230703773Y-72887497D01*
X230703773Y-72887497D02*
X230656154Y-73077973D01*
X230656154Y-73077973D02*
X230608535Y-73173211D01*
X230608535Y-73173211D02*
X230513297Y-73268450D01*
X230513297Y-73268450D02*
X230370440Y-73316069D01*
X230370440Y-73316069D02*
X230132345Y-73316069D01*
%TO.C,MX29*%
X194557345Y-54266069D02*
X194557345Y-53266069D01*
X194557345Y-53266069D02*
X194890678Y-53980354D01*
X194890678Y-53980354D02*
X195224011Y-53266069D01*
X195224011Y-53266069D02*
X195224011Y-54266069D01*
X195604964Y-53266069D02*
X196271630Y-54266069D01*
X196271630Y-53266069D02*
X195604964Y-54266069D01*
X196652583Y-53885116D02*
X197414488Y-53885116D01*
X197890678Y-54266069D02*
X197890678Y-53266069D01*
X197890678Y-53266069D02*
X198462106Y-54266069D01*
X198462106Y-54266069D02*
X198462106Y-53266069D01*
X199081154Y-54266069D02*
X198985916Y-54218450D01*
X198985916Y-54218450D02*
X198938297Y-54170830D01*
X198938297Y-54170830D02*
X198890678Y-54075592D01*
X198890678Y-54075592D02*
X198890678Y-53789878D01*
X198890678Y-53789878D02*
X198938297Y-53694640D01*
X198938297Y-53694640D02*
X198985916Y-53647021D01*
X198985916Y-53647021D02*
X199081154Y-53599402D01*
X199081154Y-53599402D02*
X199224011Y-53599402D01*
X199224011Y-53599402D02*
X199319249Y-53647021D01*
X199319249Y-53647021D02*
X199366868Y-53694640D01*
X199366868Y-53694640D02*
X199414487Y-53789878D01*
X199414487Y-53789878D02*
X199414487Y-54075592D01*
X199414487Y-54075592D02*
X199366868Y-54170830D01*
X199366868Y-54170830D02*
X199319249Y-54218450D01*
X199319249Y-54218450D02*
X199224011Y-54266069D01*
X199224011Y-54266069D02*
X199081154Y-54266069D01*
X200319249Y-54266069D02*
X199843059Y-54266069D01*
X199843059Y-54266069D02*
X199843059Y-53266069D01*
X200652583Y-53742259D02*
X200985916Y-53742259D01*
X201128773Y-54266069D02*
X200652583Y-54266069D01*
X200652583Y-54266069D02*
X200652583Y-53266069D01*
X200652583Y-53266069D02*
X201128773Y-53266069D01*
X201557345Y-54266069D02*
X201557345Y-53266069D01*
X201557345Y-53266069D02*
X201795440Y-53266069D01*
X201795440Y-53266069D02*
X201938297Y-53313688D01*
X201938297Y-53313688D02*
X202033535Y-53408926D01*
X202033535Y-53408926D02*
X202081154Y-53504164D01*
X202081154Y-53504164D02*
X202128773Y-53694640D01*
X202128773Y-53694640D02*
X202128773Y-53837497D01*
X202128773Y-53837497D02*
X202081154Y-54027973D01*
X202081154Y-54027973D02*
X202033535Y-54123211D01*
X202033535Y-54123211D02*
X201938297Y-54218450D01*
X201938297Y-54218450D02*
X201795440Y-54266069D01*
X201795440Y-54266069D02*
X201557345Y-54266069D01*
%TO.C,MX24*%
X232657345Y-30453069D02*
X232657345Y-29453069D01*
X232657345Y-29453069D02*
X232990678Y-30167354D01*
X232990678Y-30167354D02*
X233324011Y-29453069D01*
X233324011Y-29453069D02*
X233324011Y-30453069D01*
X233704964Y-29453069D02*
X234371630Y-30453069D01*
X234371630Y-29453069D02*
X233704964Y-30453069D01*
X234752583Y-30072116D02*
X235514488Y-30072116D01*
X235990678Y-30453069D02*
X235990678Y-29453069D01*
X235990678Y-29453069D02*
X236562106Y-30453069D01*
X236562106Y-30453069D02*
X236562106Y-29453069D01*
X237181154Y-30453069D02*
X237085916Y-30405450D01*
X237085916Y-30405450D02*
X237038297Y-30357830D01*
X237038297Y-30357830D02*
X236990678Y-30262592D01*
X236990678Y-30262592D02*
X236990678Y-29976878D01*
X236990678Y-29976878D02*
X237038297Y-29881640D01*
X237038297Y-29881640D02*
X237085916Y-29834021D01*
X237085916Y-29834021D02*
X237181154Y-29786402D01*
X237181154Y-29786402D02*
X237324011Y-29786402D01*
X237324011Y-29786402D02*
X237419249Y-29834021D01*
X237419249Y-29834021D02*
X237466868Y-29881640D01*
X237466868Y-29881640D02*
X237514487Y-29976878D01*
X237514487Y-29976878D02*
X237514487Y-30262592D01*
X237514487Y-30262592D02*
X237466868Y-30357830D01*
X237466868Y-30357830D02*
X237419249Y-30405450D01*
X237419249Y-30405450D02*
X237324011Y-30453069D01*
X237324011Y-30453069D02*
X237181154Y-30453069D01*
X238419249Y-30453069D02*
X237943059Y-30453069D01*
X237943059Y-30453069D02*
X237943059Y-29453069D01*
X238752583Y-29929259D02*
X239085916Y-29929259D01*
X239228773Y-30453069D02*
X238752583Y-30453069D01*
X238752583Y-30453069D02*
X238752583Y-29453069D01*
X238752583Y-29453069D02*
X239228773Y-29453069D01*
X239657345Y-30453069D02*
X239657345Y-29453069D01*
X239657345Y-29453069D02*
X239895440Y-29453069D01*
X239895440Y-29453069D02*
X240038297Y-29500688D01*
X240038297Y-29500688D02*
X240133535Y-29595926D01*
X240133535Y-29595926D02*
X240181154Y-29691164D01*
X240181154Y-29691164D02*
X240228773Y-29881640D01*
X240228773Y-29881640D02*
X240228773Y-30024497D01*
X240228773Y-30024497D02*
X240181154Y-30214973D01*
X240181154Y-30214973D02*
X240133535Y-30310211D01*
X240133535Y-30310211D02*
X240038297Y-30405450D01*
X240038297Y-30405450D02*
X239895440Y-30453069D01*
X239895440Y-30453069D02*
X239657345Y-30453069D01*
%TO.C,MX14*%
X89782345Y-111416069D02*
X89782345Y-110416069D01*
X89782345Y-110416069D02*
X90115678Y-111130354D01*
X90115678Y-111130354D02*
X90449011Y-110416069D01*
X90449011Y-110416069D02*
X90449011Y-111416069D01*
X90829964Y-110416069D02*
X91496630Y-111416069D01*
X91496630Y-110416069D02*
X90829964Y-111416069D01*
X91877583Y-111035116D02*
X92639488Y-111035116D01*
X93115678Y-111416069D02*
X93115678Y-110416069D01*
X93115678Y-110416069D02*
X93687106Y-111416069D01*
X93687106Y-111416069D02*
X93687106Y-110416069D01*
X94306154Y-111416069D02*
X94210916Y-111368450D01*
X94210916Y-111368450D02*
X94163297Y-111320830D01*
X94163297Y-111320830D02*
X94115678Y-111225592D01*
X94115678Y-111225592D02*
X94115678Y-110939878D01*
X94115678Y-110939878D02*
X94163297Y-110844640D01*
X94163297Y-110844640D02*
X94210916Y-110797021D01*
X94210916Y-110797021D02*
X94306154Y-110749402D01*
X94306154Y-110749402D02*
X94449011Y-110749402D01*
X94449011Y-110749402D02*
X94544249Y-110797021D01*
X94544249Y-110797021D02*
X94591868Y-110844640D01*
X94591868Y-110844640D02*
X94639487Y-110939878D01*
X94639487Y-110939878D02*
X94639487Y-111225592D01*
X94639487Y-111225592D02*
X94591868Y-111320830D01*
X94591868Y-111320830D02*
X94544249Y-111368450D01*
X94544249Y-111368450D02*
X94449011Y-111416069D01*
X94449011Y-111416069D02*
X94306154Y-111416069D01*
X95544249Y-111416069D02*
X95068059Y-111416069D01*
X95068059Y-111416069D02*
X95068059Y-110416069D01*
X95877583Y-110892259D02*
X96210916Y-110892259D01*
X96353773Y-111416069D02*
X95877583Y-111416069D01*
X95877583Y-111416069D02*
X95877583Y-110416069D01*
X95877583Y-110416069D02*
X96353773Y-110416069D01*
X96782345Y-111416069D02*
X96782345Y-110416069D01*
X96782345Y-110416069D02*
X97020440Y-110416069D01*
X97020440Y-110416069D02*
X97163297Y-110463688D01*
X97163297Y-110463688D02*
X97258535Y-110558926D01*
X97258535Y-110558926D02*
X97306154Y-110654164D01*
X97306154Y-110654164D02*
X97353773Y-110844640D01*
X97353773Y-110844640D02*
X97353773Y-110987497D01*
X97353773Y-110987497D02*
X97306154Y-111177973D01*
X97306154Y-111177973D02*
X97258535Y-111273211D01*
X97258535Y-111273211D02*
X97163297Y-111368450D01*
X97163297Y-111368450D02*
X97020440Y-111416069D01*
X97020440Y-111416069D02*
X96782345Y-111416069D01*
%TO.C,MX44*%
X130263595Y-111416069D02*
X130263595Y-110416069D01*
X130263595Y-110416069D02*
X130596928Y-111130354D01*
X130596928Y-111130354D02*
X130930261Y-110416069D01*
X130930261Y-110416069D02*
X130930261Y-111416069D01*
X131311214Y-110416069D02*
X131977880Y-111416069D01*
X131977880Y-110416069D02*
X131311214Y-111416069D01*
X132358833Y-111035116D02*
X133120738Y-111035116D01*
X133596928Y-111416069D02*
X133596928Y-110416069D01*
X133596928Y-110416069D02*
X134168356Y-111416069D01*
X134168356Y-111416069D02*
X134168356Y-110416069D01*
X134787404Y-111416069D02*
X134692166Y-111368450D01*
X134692166Y-111368450D02*
X134644547Y-111320830D01*
X134644547Y-111320830D02*
X134596928Y-111225592D01*
X134596928Y-111225592D02*
X134596928Y-110939878D01*
X134596928Y-110939878D02*
X134644547Y-110844640D01*
X134644547Y-110844640D02*
X134692166Y-110797021D01*
X134692166Y-110797021D02*
X134787404Y-110749402D01*
X134787404Y-110749402D02*
X134930261Y-110749402D01*
X134930261Y-110749402D02*
X135025499Y-110797021D01*
X135025499Y-110797021D02*
X135073118Y-110844640D01*
X135073118Y-110844640D02*
X135120737Y-110939878D01*
X135120737Y-110939878D02*
X135120737Y-111225592D01*
X135120737Y-111225592D02*
X135073118Y-111320830D01*
X135073118Y-111320830D02*
X135025499Y-111368450D01*
X135025499Y-111368450D02*
X134930261Y-111416069D01*
X134930261Y-111416069D02*
X134787404Y-111416069D01*
X136025499Y-111416069D02*
X135549309Y-111416069D01*
X135549309Y-111416069D02*
X135549309Y-110416069D01*
X136358833Y-110892259D02*
X136692166Y-110892259D01*
X136835023Y-111416069D02*
X136358833Y-111416069D01*
X136358833Y-111416069D02*
X136358833Y-110416069D01*
X136358833Y-110416069D02*
X136835023Y-110416069D01*
X137263595Y-111416069D02*
X137263595Y-110416069D01*
X137263595Y-110416069D02*
X137501690Y-110416069D01*
X137501690Y-110416069D02*
X137644547Y-110463688D01*
X137644547Y-110463688D02*
X137739785Y-110558926D01*
X137739785Y-110558926D02*
X137787404Y-110654164D01*
X137787404Y-110654164D02*
X137835023Y-110844640D01*
X137835023Y-110844640D02*
X137835023Y-110987497D01*
X137835023Y-110987497D02*
X137787404Y-111177973D01*
X137787404Y-111177973D02*
X137739785Y-111273211D01*
X137739785Y-111273211D02*
X137644547Y-111368450D01*
X137644547Y-111368450D02*
X137501690Y-111416069D01*
X137501690Y-111416069D02*
X137263595Y-111416069D01*
%TO.C,MX54*%
X225513595Y-130466069D02*
X225513595Y-129466069D01*
X225513595Y-129466069D02*
X225846928Y-130180354D01*
X225846928Y-130180354D02*
X226180261Y-129466069D01*
X226180261Y-129466069D02*
X226180261Y-130466069D01*
X226561214Y-129466069D02*
X227227880Y-130466069D01*
X227227880Y-129466069D02*
X226561214Y-130466069D01*
X227608833Y-130085116D02*
X228370738Y-130085116D01*
X228846928Y-130466069D02*
X228846928Y-129466069D01*
X228846928Y-129466069D02*
X229418356Y-130466069D01*
X229418356Y-130466069D02*
X229418356Y-129466069D01*
X230037404Y-130466069D02*
X229942166Y-130418450D01*
X229942166Y-130418450D02*
X229894547Y-130370830D01*
X229894547Y-130370830D02*
X229846928Y-130275592D01*
X229846928Y-130275592D02*
X229846928Y-129989878D01*
X229846928Y-129989878D02*
X229894547Y-129894640D01*
X229894547Y-129894640D02*
X229942166Y-129847021D01*
X229942166Y-129847021D02*
X230037404Y-129799402D01*
X230037404Y-129799402D02*
X230180261Y-129799402D01*
X230180261Y-129799402D02*
X230275499Y-129847021D01*
X230275499Y-129847021D02*
X230323118Y-129894640D01*
X230323118Y-129894640D02*
X230370737Y-129989878D01*
X230370737Y-129989878D02*
X230370737Y-130275592D01*
X230370737Y-130275592D02*
X230323118Y-130370830D01*
X230323118Y-130370830D02*
X230275499Y-130418450D01*
X230275499Y-130418450D02*
X230180261Y-130466069D01*
X230180261Y-130466069D02*
X230037404Y-130466069D01*
X231275499Y-130466069D02*
X230799309Y-130466069D01*
X230799309Y-130466069D02*
X230799309Y-129466069D01*
X231608833Y-129942259D02*
X231942166Y-129942259D01*
X232085023Y-130466069D02*
X231608833Y-130466069D01*
X231608833Y-130466069D02*
X231608833Y-129466069D01*
X231608833Y-129466069D02*
X232085023Y-129466069D01*
X232513595Y-130466069D02*
X232513595Y-129466069D01*
X232513595Y-129466069D02*
X232751690Y-129466069D01*
X232751690Y-129466069D02*
X232894547Y-129513688D01*
X232894547Y-129513688D02*
X232989785Y-129608926D01*
X232989785Y-129608926D02*
X233037404Y-129704164D01*
X233037404Y-129704164D02*
X233085023Y-129894640D01*
X233085023Y-129894640D02*
X233085023Y-130037497D01*
X233085023Y-130037497D02*
X233037404Y-130227973D01*
X233037404Y-130227973D02*
X232989785Y-130323211D01*
X232989785Y-130323211D02*
X232894547Y-130418450D01*
X232894547Y-130418450D02*
X232751690Y-130466069D01*
X232751690Y-130466069D02*
X232513595Y-130466069D01*
%TO.C,MX5*%
X51682345Y-73316069D02*
X51682345Y-72316069D01*
X51682345Y-72316069D02*
X52015678Y-73030354D01*
X52015678Y-73030354D02*
X52349011Y-72316069D01*
X52349011Y-72316069D02*
X52349011Y-73316069D01*
X52729964Y-72316069D02*
X53396630Y-73316069D01*
X53396630Y-72316069D02*
X52729964Y-73316069D01*
X53777583Y-72935116D02*
X54539488Y-72935116D01*
X55015678Y-73316069D02*
X55015678Y-72316069D01*
X55015678Y-72316069D02*
X55587106Y-73316069D01*
X55587106Y-73316069D02*
X55587106Y-72316069D01*
X56206154Y-73316069D02*
X56110916Y-73268450D01*
X56110916Y-73268450D02*
X56063297Y-73220830D01*
X56063297Y-73220830D02*
X56015678Y-73125592D01*
X56015678Y-73125592D02*
X56015678Y-72839878D01*
X56015678Y-72839878D02*
X56063297Y-72744640D01*
X56063297Y-72744640D02*
X56110916Y-72697021D01*
X56110916Y-72697021D02*
X56206154Y-72649402D01*
X56206154Y-72649402D02*
X56349011Y-72649402D01*
X56349011Y-72649402D02*
X56444249Y-72697021D01*
X56444249Y-72697021D02*
X56491868Y-72744640D01*
X56491868Y-72744640D02*
X56539487Y-72839878D01*
X56539487Y-72839878D02*
X56539487Y-73125592D01*
X56539487Y-73125592D02*
X56491868Y-73220830D01*
X56491868Y-73220830D02*
X56444249Y-73268450D01*
X56444249Y-73268450D02*
X56349011Y-73316069D01*
X56349011Y-73316069D02*
X56206154Y-73316069D01*
X57444249Y-73316069D02*
X56968059Y-73316069D01*
X56968059Y-73316069D02*
X56968059Y-72316069D01*
X57777583Y-72792259D02*
X58110916Y-72792259D01*
X58253773Y-73316069D02*
X57777583Y-73316069D01*
X57777583Y-73316069D02*
X57777583Y-72316069D01*
X57777583Y-72316069D02*
X58253773Y-72316069D01*
X58682345Y-73316069D02*
X58682345Y-72316069D01*
X58682345Y-72316069D02*
X58920440Y-72316069D01*
X58920440Y-72316069D02*
X59063297Y-72363688D01*
X59063297Y-72363688D02*
X59158535Y-72458926D01*
X59158535Y-72458926D02*
X59206154Y-72554164D01*
X59206154Y-72554164D02*
X59253773Y-72744640D01*
X59253773Y-72744640D02*
X59253773Y-72887497D01*
X59253773Y-72887497D02*
X59206154Y-73077973D01*
X59206154Y-73077973D02*
X59158535Y-73173211D01*
X59158535Y-73173211D02*
X59063297Y-73268450D01*
X59063297Y-73268450D02*
X58920440Y-73316069D01*
X58920440Y-73316069D02*
X58682345Y-73316069D01*
%TO.C,MX7*%
X89782345Y-73316069D02*
X89782345Y-72316069D01*
X89782345Y-72316069D02*
X90115678Y-73030354D01*
X90115678Y-73030354D02*
X90449011Y-72316069D01*
X90449011Y-72316069D02*
X90449011Y-73316069D01*
X90829964Y-72316069D02*
X91496630Y-73316069D01*
X91496630Y-72316069D02*
X90829964Y-73316069D01*
X91877583Y-72935116D02*
X92639488Y-72935116D01*
X93115678Y-73316069D02*
X93115678Y-72316069D01*
X93115678Y-72316069D02*
X93687106Y-73316069D01*
X93687106Y-73316069D02*
X93687106Y-72316069D01*
X94306154Y-73316069D02*
X94210916Y-73268450D01*
X94210916Y-73268450D02*
X94163297Y-73220830D01*
X94163297Y-73220830D02*
X94115678Y-73125592D01*
X94115678Y-73125592D02*
X94115678Y-72839878D01*
X94115678Y-72839878D02*
X94163297Y-72744640D01*
X94163297Y-72744640D02*
X94210916Y-72697021D01*
X94210916Y-72697021D02*
X94306154Y-72649402D01*
X94306154Y-72649402D02*
X94449011Y-72649402D01*
X94449011Y-72649402D02*
X94544249Y-72697021D01*
X94544249Y-72697021D02*
X94591868Y-72744640D01*
X94591868Y-72744640D02*
X94639487Y-72839878D01*
X94639487Y-72839878D02*
X94639487Y-73125592D01*
X94639487Y-73125592D02*
X94591868Y-73220830D01*
X94591868Y-73220830D02*
X94544249Y-73268450D01*
X94544249Y-73268450D02*
X94449011Y-73316069D01*
X94449011Y-73316069D02*
X94306154Y-73316069D01*
X95544249Y-73316069D02*
X95068059Y-73316069D01*
X95068059Y-73316069D02*
X95068059Y-72316069D01*
X95877583Y-72792259D02*
X96210916Y-72792259D01*
X96353773Y-73316069D02*
X95877583Y-73316069D01*
X95877583Y-73316069D02*
X95877583Y-72316069D01*
X95877583Y-72316069D02*
X96353773Y-72316069D01*
X96782345Y-73316069D02*
X96782345Y-72316069D01*
X96782345Y-72316069D02*
X97020440Y-72316069D01*
X97020440Y-72316069D02*
X97163297Y-72363688D01*
X97163297Y-72363688D02*
X97258535Y-72458926D01*
X97258535Y-72458926D02*
X97306154Y-72554164D01*
X97306154Y-72554164D02*
X97353773Y-72744640D01*
X97353773Y-72744640D02*
X97353773Y-72887497D01*
X97353773Y-72887497D02*
X97306154Y-73077973D01*
X97306154Y-73077973D02*
X97258535Y-73173211D01*
X97258535Y-73173211D02*
X97163297Y-73268450D01*
X97163297Y-73268450D02*
X97020440Y-73316069D01*
X97020440Y-73316069D02*
X96782345Y-73316069D01*
%TO.C,MX49*%
X237419845Y-111416069D02*
X237419845Y-110416069D01*
X237419845Y-110416069D02*
X237753178Y-111130354D01*
X237753178Y-111130354D02*
X238086511Y-110416069D01*
X238086511Y-110416069D02*
X238086511Y-111416069D01*
X238467464Y-110416069D02*
X239134130Y-111416069D01*
X239134130Y-110416069D02*
X238467464Y-111416069D01*
X239515083Y-111035116D02*
X240276988Y-111035116D01*
X240753178Y-111416069D02*
X240753178Y-110416069D01*
X240753178Y-110416069D02*
X241324606Y-111416069D01*
X241324606Y-111416069D02*
X241324606Y-110416069D01*
X241943654Y-111416069D02*
X241848416Y-111368450D01*
X241848416Y-111368450D02*
X241800797Y-111320830D01*
X241800797Y-111320830D02*
X241753178Y-111225592D01*
X241753178Y-111225592D02*
X241753178Y-110939878D01*
X241753178Y-110939878D02*
X241800797Y-110844640D01*
X241800797Y-110844640D02*
X241848416Y-110797021D01*
X241848416Y-110797021D02*
X241943654Y-110749402D01*
X241943654Y-110749402D02*
X242086511Y-110749402D01*
X242086511Y-110749402D02*
X242181749Y-110797021D01*
X242181749Y-110797021D02*
X242229368Y-110844640D01*
X242229368Y-110844640D02*
X242276987Y-110939878D01*
X242276987Y-110939878D02*
X242276987Y-111225592D01*
X242276987Y-111225592D02*
X242229368Y-111320830D01*
X242229368Y-111320830D02*
X242181749Y-111368450D01*
X242181749Y-111368450D02*
X242086511Y-111416069D01*
X242086511Y-111416069D02*
X241943654Y-111416069D01*
X243181749Y-111416069D02*
X242705559Y-111416069D01*
X242705559Y-111416069D02*
X242705559Y-110416069D01*
X243515083Y-110892259D02*
X243848416Y-110892259D01*
X243991273Y-111416069D02*
X243515083Y-111416069D01*
X243515083Y-111416069D02*
X243515083Y-110416069D01*
X243515083Y-110416069D02*
X243991273Y-110416069D01*
X244419845Y-111416069D02*
X244419845Y-110416069D01*
X244419845Y-110416069D02*
X244657940Y-110416069D01*
X244657940Y-110416069D02*
X244800797Y-110463688D01*
X244800797Y-110463688D02*
X244896035Y-110558926D01*
X244896035Y-110558926D02*
X244943654Y-110654164D01*
X244943654Y-110654164D02*
X244991273Y-110844640D01*
X244991273Y-110844640D02*
X244991273Y-110987497D01*
X244991273Y-110987497D02*
X244943654Y-111177973D01*
X244943654Y-111177973D02*
X244896035Y-111273211D01*
X244896035Y-111273211D02*
X244800797Y-111368450D01*
X244800797Y-111368450D02*
X244657940Y-111416069D01*
X244657940Y-111416069D02*
X244419845Y-111416069D01*
%TO.C,MX41*%
X189794845Y-92366069D02*
X189794845Y-91366069D01*
X189794845Y-91366069D02*
X190128178Y-92080354D01*
X190128178Y-92080354D02*
X190461511Y-91366069D01*
X190461511Y-91366069D02*
X190461511Y-92366069D01*
X190842464Y-91366069D02*
X191509130Y-92366069D01*
X191509130Y-91366069D02*
X190842464Y-92366069D01*
X191890083Y-91985116D02*
X192651988Y-91985116D01*
X193128178Y-92366069D02*
X193128178Y-91366069D01*
X193128178Y-91366069D02*
X193699606Y-92366069D01*
X193699606Y-92366069D02*
X193699606Y-91366069D01*
X194318654Y-92366069D02*
X194223416Y-92318450D01*
X194223416Y-92318450D02*
X194175797Y-92270830D01*
X194175797Y-92270830D02*
X194128178Y-92175592D01*
X194128178Y-92175592D02*
X194128178Y-91889878D01*
X194128178Y-91889878D02*
X194175797Y-91794640D01*
X194175797Y-91794640D02*
X194223416Y-91747021D01*
X194223416Y-91747021D02*
X194318654Y-91699402D01*
X194318654Y-91699402D02*
X194461511Y-91699402D01*
X194461511Y-91699402D02*
X194556749Y-91747021D01*
X194556749Y-91747021D02*
X194604368Y-91794640D01*
X194604368Y-91794640D02*
X194651987Y-91889878D01*
X194651987Y-91889878D02*
X194651987Y-92175592D01*
X194651987Y-92175592D02*
X194604368Y-92270830D01*
X194604368Y-92270830D02*
X194556749Y-92318450D01*
X194556749Y-92318450D02*
X194461511Y-92366069D01*
X194461511Y-92366069D02*
X194318654Y-92366069D01*
X195556749Y-92366069D02*
X195080559Y-92366069D01*
X195080559Y-92366069D02*
X195080559Y-91366069D01*
X195890083Y-91842259D02*
X196223416Y-91842259D01*
X196366273Y-92366069D02*
X195890083Y-92366069D01*
X195890083Y-92366069D02*
X195890083Y-91366069D01*
X195890083Y-91366069D02*
X196366273Y-91366069D01*
X196794845Y-92366069D02*
X196794845Y-91366069D01*
X196794845Y-91366069D02*
X197032940Y-91366069D01*
X197032940Y-91366069D02*
X197175797Y-91413688D01*
X197175797Y-91413688D02*
X197271035Y-91508926D01*
X197271035Y-91508926D02*
X197318654Y-91604164D01*
X197318654Y-91604164D02*
X197366273Y-91794640D01*
X197366273Y-91794640D02*
X197366273Y-91937497D01*
X197366273Y-91937497D02*
X197318654Y-92127973D01*
X197318654Y-92127973D02*
X197271035Y-92223211D01*
X197271035Y-92223211D02*
X197175797Y-92318450D01*
X197175797Y-92318450D02*
X197032940Y-92366069D01*
X197032940Y-92366069D02*
X196794845Y-92366069D01*
%TO.C,MX51*%
X144551095Y-130466069D02*
X144551095Y-129466069D01*
X144551095Y-129466069D02*
X144884428Y-130180354D01*
X144884428Y-130180354D02*
X145217761Y-129466069D01*
X145217761Y-129466069D02*
X145217761Y-130466069D01*
X145598714Y-129466069D02*
X146265380Y-130466069D01*
X146265380Y-129466069D02*
X145598714Y-130466069D01*
X146646333Y-130085116D02*
X147408238Y-130085116D01*
X147884428Y-130466069D02*
X147884428Y-129466069D01*
X147884428Y-129466069D02*
X148455856Y-130466069D01*
X148455856Y-130466069D02*
X148455856Y-129466069D01*
X149074904Y-130466069D02*
X148979666Y-130418450D01*
X148979666Y-130418450D02*
X148932047Y-130370830D01*
X148932047Y-130370830D02*
X148884428Y-130275592D01*
X148884428Y-130275592D02*
X148884428Y-129989878D01*
X148884428Y-129989878D02*
X148932047Y-129894640D01*
X148932047Y-129894640D02*
X148979666Y-129847021D01*
X148979666Y-129847021D02*
X149074904Y-129799402D01*
X149074904Y-129799402D02*
X149217761Y-129799402D01*
X149217761Y-129799402D02*
X149312999Y-129847021D01*
X149312999Y-129847021D02*
X149360618Y-129894640D01*
X149360618Y-129894640D02*
X149408237Y-129989878D01*
X149408237Y-129989878D02*
X149408237Y-130275592D01*
X149408237Y-130275592D02*
X149360618Y-130370830D01*
X149360618Y-130370830D02*
X149312999Y-130418450D01*
X149312999Y-130418450D02*
X149217761Y-130466069D01*
X149217761Y-130466069D02*
X149074904Y-130466069D01*
X150312999Y-130466069D02*
X149836809Y-130466069D01*
X149836809Y-130466069D02*
X149836809Y-129466069D01*
X150646333Y-129942259D02*
X150979666Y-129942259D01*
X151122523Y-130466069D02*
X150646333Y-130466069D01*
X150646333Y-130466069D02*
X150646333Y-129466069D01*
X150646333Y-129466069D02*
X151122523Y-129466069D01*
X151551095Y-130466069D02*
X151551095Y-129466069D01*
X151551095Y-129466069D02*
X151789190Y-129466069D01*
X151789190Y-129466069D02*
X151932047Y-129513688D01*
X151932047Y-129513688D02*
X152027285Y-129608926D01*
X152027285Y-129608926D02*
X152074904Y-129704164D01*
X152074904Y-129704164D02*
X152122523Y-129894640D01*
X152122523Y-129894640D02*
X152122523Y-130037497D01*
X152122523Y-130037497D02*
X152074904Y-130227973D01*
X152074904Y-130227973D02*
X152027285Y-130323211D01*
X152027285Y-130323211D02*
X151932047Y-130418450D01*
X151932047Y-130418450D02*
X151789190Y-130466069D01*
X151789190Y-130466069D02*
X151551095Y-130466069D01*
%TO.C,MX9*%
X51682345Y-92366069D02*
X51682345Y-91366069D01*
X51682345Y-91366069D02*
X52015678Y-92080354D01*
X52015678Y-92080354D02*
X52349011Y-91366069D01*
X52349011Y-91366069D02*
X52349011Y-92366069D01*
X52729964Y-91366069D02*
X53396630Y-92366069D01*
X53396630Y-91366069D02*
X52729964Y-92366069D01*
X53777583Y-91985116D02*
X54539488Y-91985116D01*
X55015678Y-92366069D02*
X55015678Y-91366069D01*
X55015678Y-91366069D02*
X55587106Y-92366069D01*
X55587106Y-92366069D02*
X55587106Y-91366069D01*
X56206154Y-92366069D02*
X56110916Y-92318450D01*
X56110916Y-92318450D02*
X56063297Y-92270830D01*
X56063297Y-92270830D02*
X56015678Y-92175592D01*
X56015678Y-92175592D02*
X56015678Y-91889878D01*
X56015678Y-91889878D02*
X56063297Y-91794640D01*
X56063297Y-91794640D02*
X56110916Y-91747021D01*
X56110916Y-91747021D02*
X56206154Y-91699402D01*
X56206154Y-91699402D02*
X56349011Y-91699402D01*
X56349011Y-91699402D02*
X56444249Y-91747021D01*
X56444249Y-91747021D02*
X56491868Y-91794640D01*
X56491868Y-91794640D02*
X56539487Y-91889878D01*
X56539487Y-91889878D02*
X56539487Y-92175592D01*
X56539487Y-92175592D02*
X56491868Y-92270830D01*
X56491868Y-92270830D02*
X56444249Y-92318450D01*
X56444249Y-92318450D02*
X56349011Y-92366069D01*
X56349011Y-92366069D02*
X56206154Y-92366069D01*
X57444249Y-92366069D02*
X56968059Y-92366069D01*
X56968059Y-92366069D02*
X56968059Y-91366069D01*
X57777583Y-91842259D02*
X58110916Y-91842259D01*
X58253773Y-92366069D02*
X57777583Y-92366069D01*
X57777583Y-92366069D02*
X57777583Y-91366069D01*
X57777583Y-91366069D02*
X58253773Y-91366069D01*
X58682345Y-92366069D02*
X58682345Y-91366069D01*
X58682345Y-91366069D02*
X58920440Y-91366069D01*
X58920440Y-91366069D02*
X59063297Y-91413688D01*
X59063297Y-91413688D02*
X59158535Y-91508926D01*
X59158535Y-91508926D02*
X59206154Y-91604164D01*
X59206154Y-91604164D02*
X59253773Y-91794640D01*
X59253773Y-91794640D02*
X59253773Y-91937497D01*
X59253773Y-91937497D02*
X59206154Y-92127973D01*
X59206154Y-92127973D02*
X59158535Y-92223211D01*
X59158535Y-92223211D02*
X59063297Y-92318450D01*
X59063297Y-92318450D02*
X58920440Y-92366069D01*
X58920440Y-92366069D02*
X58682345Y-92366069D01*
%TO.C,MX47*%
X199319845Y-111416069D02*
X199319845Y-110416069D01*
X199319845Y-110416069D02*
X199653178Y-111130354D01*
X199653178Y-111130354D02*
X199986511Y-110416069D01*
X199986511Y-110416069D02*
X199986511Y-111416069D01*
X200367464Y-110416069D02*
X201034130Y-111416069D01*
X201034130Y-110416069D02*
X200367464Y-111416069D01*
X201415083Y-111035116D02*
X202176988Y-111035116D01*
X202653178Y-111416069D02*
X202653178Y-110416069D01*
X202653178Y-110416069D02*
X203224606Y-111416069D01*
X203224606Y-111416069D02*
X203224606Y-110416069D01*
X203843654Y-111416069D02*
X203748416Y-111368450D01*
X203748416Y-111368450D02*
X203700797Y-111320830D01*
X203700797Y-111320830D02*
X203653178Y-111225592D01*
X203653178Y-111225592D02*
X203653178Y-110939878D01*
X203653178Y-110939878D02*
X203700797Y-110844640D01*
X203700797Y-110844640D02*
X203748416Y-110797021D01*
X203748416Y-110797021D02*
X203843654Y-110749402D01*
X203843654Y-110749402D02*
X203986511Y-110749402D01*
X203986511Y-110749402D02*
X204081749Y-110797021D01*
X204081749Y-110797021D02*
X204129368Y-110844640D01*
X204129368Y-110844640D02*
X204176987Y-110939878D01*
X204176987Y-110939878D02*
X204176987Y-111225592D01*
X204176987Y-111225592D02*
X204129368Y-111320830D01*
X204129368Y-111320830D02*
X204081749Y-111368450D01*
X204081749Y-111368450D02*
X203986511Y-111416069D01*
X203986511Y-111416069D02*
X203843654Y-111416069D01*
X205081749Y-111416069D02*
X204605559Y-111416069D01*
X204605559Y-111416069D02*
X204605559Y-110416069D01*
X205415083Y-110892259D02*
X205748416Y-110892259D01*
X205891273Y-111416069D02*
X205415083Y-111416069D01*
X205415083Y-111416069D02*
X205415083Y-110416069D01*
X205415083Y-110416069D02*
X205891273Y-110416069D01*
X206319845Y-111416069D02*
X206319845Y-110416069D01*
X206319845Y-110416069D02*
X206557940Y-110416069D01*
X206557940Y-110416069D02*
X206700797Y-110463688D01*
X206700797Y-110463688D02*
X206796035Y-110558926D01*
X206796035Y-110558926D02*
X206843654Y-110654164D01*
X206843654Y-110654164D02*
X206891273Y-110844640D01*
X206891273Y-110844640D02*
X206891273Y-110987497D01*
X206891273Y-110987497D02*
X206843654Y-111177973D01*
X206843654Y-111177973D02*
X206796035Y-111273211D01*
X206796035Y-111273211D02*
X206700797Y-111368450D01*
X206700797Y-111368450D02*
X206557940Y-111416069D01*
X206557940Y-111416069D02*
X206319845Y-111416069D01*
%TO.C,MX21*%
X175507345Y-30453069D02*
X175507345Y-29453069D01*
X175507345Y-29453069D02*
X175840678Y-30167354D01*
X175840678Y-30167354D02*
X176174011Y-29453069D01*
X176174011Y-29453069D02*
X176174011Y-30453069D01*
X176554964Y-29453069D02*
X177221630Y-30453069D01*
X177221630Y-29453069D02*
X176554964Y-30453069D01*
X177602583Y-30072116D02*
X178364488Y-30072116D01*
X178840678Y-30453069D02*
X178840678Y-29453069D01*
X178840678Y-29453069D02*
X179412106Y-30453069D01*
X179412106Y-30453069D02*
X179412106Y-29453069D01*
X180031154Y-30453069D02*
X179935916Y-30405450D01*
X179935916Y-30405450D02*
X179888297Y-30357830D01*
X179888297Y-30357830D02*
X179840678Y-30262592D01*
X179840678Y-30262592D02*
X179840678Y-29976878D01*
X179840678Y-29976878D02*
X179888297Y-29881640D01*
X179888297Y-29881640D02*
X179935916Y-29834021D01*
X179935916Y-29834021D02*
X180031154Y-29786402D01*
X180031154Y-29786402D02*
X180174011Y-29786402D01*
X180174011Y-29786402D02*
X180269249Y-29834021D01*
X180269249Y-29834021D02*
X180316868Y-29881640D01*
X180316868Y-29881640D02*
X180364487Y-29976878D01*
X180364487Y-29976878D02*
X180364487Y-30262592D01*
X180364487Y-30262592D02*
X180316868Y-30357830D01*
X180316868Y-30357830D02*
X180269249Y-30405450D01*
X180269249Y-30405450D02*
X180174011Y-30453069D01*
X180174011Y-30453069D02*
X180031154Y-30453069D01*
X181269249Y-30453069D02*
X180793059Y-30453069D01*
X180793059Y-30453069D02*
X180793059Y-29453069D01*
X181602583Y-29929259D02*
X181935916Y-29929259D01*
X182078773Y-30453069D02*
X181602583Y-30453069D01*
X181602583Y-30453069D02*
X181602583Y-29453069D01*
X181602583Y-29453069D02*
X182078773Y-29453069D01*
X182507345Y-30453069D02*
X182507345Y-29453069D01*
X182507345Y-29453069D02*
X182745440Y-29453069D01*
X182745440Y-29453069D02*
X182888297Y-29500688D01*
X182888297Y-29500688D02*
X182983535Y-29595926D01*
X182983535Y-29595926D02*
X183031154Y-29691164D01*
X183031154Y-29691164D02*
X183078773Y-29881640D01*
X183078773Y-29881640D02*
X183078773Y-30024497D01*
X183078773Y-30024497D02*
X183031154Y-30214973D01*
X183031154Y-30214973D02*
X182983535Y-30310211D01*
X182983535Y-30310211D02*
X182888297Y-30405450D01*
X182888297Y-30405450D02*
X182745440Y-30453069D01*
X182745440Y-30453069D02*
X182507345Y-30453069D01*
%TO.C,MX46*%
X180269845Y-111416069D02*
X180269845Y-110416069D01*
X180269845Y-110416069D02*
X180603178Y-111130354D01*
X180603178Y-111130354D02*
X180936511Y-110416069D01*
X180936511Y-110416069D02*
X180936511Y-111416069D01*
X181317464Y-110416069D02*
X181984130Y-111416069D01*
X181984130Y-110416069D02*
X181317464Y-111416069D01*
X182365083Y-111035116D02*
X183126988Y-111035116D01*
X183603178Y-111416069D02*
X183603178Y-110416069D01*
X183603178Y-110416069D02*
X184174606Y-111416069D01*
X184174606Y-111416069D02*
X184174606Y-110416069D01*
X184793654Y-111416069D02*
X184698416Y-111368450D01*
X184698416Y-111368450D02*
X184650797Y-111320830D01*
X184650797Y-111320830D02*
X184603178Y-111225592D01*
X184603178Y-111225592D02*
X184603178Y-110939878D01*
X184603178Y-110939878D02*
X184650797Y-110844640D01*
X184650797Y-110844640D02*
X184698416Y-110797021D01*
X184698416Y-110797021D02*
X184793654Y-110749402D01*
X184793654Y-110749402D02*
X184936511Y-110749402D01*
X184936511Y-110749402D02*
X185031749Y-110797021D01*
X185031749Y-110797021D02*
X185079368Y-110844640D01*
X185079368Y-110844640D02*
X185126987Y-110939878D01*
X185126987Y-110939878D02*
X185126987Y-111225592D01*
X185126987Y-111225592D02*
X185079368Y-111320830D01*
X185079368Y-111320830D02*
X185031749Y-111368450D01*
X185031749Y-111368450D02*
X184936511Y-111416069D01*
X184936511Y-111416069D02*
X184793654Y-111416069D01*
X186031749Y-111416069D02*
X185555559Y-111416069D01*
X185555559Y-111416069D02*
X185555559Y-110416069D01*
X186365083Y-110892259D02*
X186698416Y-110892259D01*
X186841273Y-111416069D02*
X186365083Y-111416069D01*
X186365083Y-111416069D02*
X186365083Y-110416069D01*
X186365083Y-110416069D02*
X186841273Y-110416069D01*
X187269845Y-111416069D02*
X187269845Y-110416069D01*
X187269845Y-110416069D02*
X187507940Y-110416069D01*
X187507940Y-110416069D02*
X187650797Y-110463688D01*
X187650797Y-110463688D02*
X187746035Y-110558926D01*
X187746035Y-110558926D02*
X187793654Y-110654164D01*
X187793654Y-110654164D02*
X187841273Y-110844640D01*
X187841273Y-110844640D02*
X187841273Y-110987497D01*
X187841273Y-110987497D02*
X187793654Y-111177973D01*
X187793654Y-111177973D02*
X187746035Y-111273211D01*
X187746035Y-111273211D02*
X187650797Y-111368450D01*
X187650797Y-111368450D02*
X187507940Y-111416069D01*
X187507940Y-111416069D02*
X187269845Y-111416069D01*
%TO.C,MX13*%
X70732345Y-111416069D02*
X70732345Y-110416069D01*
X70732345Y-110416069D02*
X71065678Y-111130354D01*
X71065678Y-111130354D02*
X71399011Y-110416069D01*
X71399011Y-110416069D02*
X71399011Y-111416069D01*
X71779964Y-110416069D02*
X72446630Y-111416069D01*
X72446630Y-110416069D02*
X71779964Y-111416069D01*
X72827583Y-111035116D02*
X73589488Y-111035116D01*
X74065678Y-111416069D02*
X74065678Y-110416069D01*
X74065678Y-110416069D02*
X74637106Y-111416069D01*
X74637106Y-111416069D02*
X74637106Y-110416069D01*
X75256154Y-111416069D02*
X75160916Y-111368450D01*
X75160916Y-111368450D02*
X75113297Y-111320830D01*
X75113297Y-111320830D02*
X75065678Y-111225592D01*
X75065678Y-111225592D02*
X75065678Y-110939878D01*
X75065678Y-110939878D02*
X75113297Y-110844640D01*
X75113297Y-110844640D02*
X75160916Y-110797021D01*
X75160916Y-110797021D02*
X75256154Y-110749402D01*
X75256154Y-110749402D02*
X75399011Y-110749402D01*
X75399011Y-110749402D02*
X75494249Y-110797021D01*
X75494249Y-110797021D02*
X75541868Y-110844640D01*
X75541868Y-110844640D02*
X75589487Y-110939878D01*
X75589487Y-110939878D02*
X75589487Y-111225592D01*
X75589487Y-111225592D02*
X75541868Y-111320830D01*
X75541868Y-111320830D02*
X75494249Y-111368450D01*
X75494249Y-111368450D02*
X75399011Y-111416069D01*
X75399011Y-111416069D02*
X75256154Y-111416069D01*
X76494249Y-111416069D02*
X76018059Y-111416069D01*
X76018059Y-111416069D02*
X76018059Y-110416069D01*
X76827583Y-110892259D02*
X77160916Y-110892259D01*
X77303773Y-111416069D02*
X76827583Y-111416069D01*
X76827583Y-111416069D02*
X76827583Y-110416069D01*
X76827583Y-110416069D02*
X77303773Y-110416069D01*
X77732345Y-111416069D02*
X77732345Y-110416069D01*
X77732345Y-110416069D02*
X77970440Y-110416069D01*
X77970440Y-110416069D02*
X78113297Y-110463688D01*
X78113297Y-110463688D02*
X78208535Y-110558926D01*
X78208535Y-110558926D02*
X78256154Y-110654164D01*
X78256154Y-110654164D02*
X78303773Y-110844640D01*
X78303773Y-110844640D02*
X78303773Y-110987497D01*
X78303773Y-110987497D02*
X78256154Y-111177973D01*
X78256154Y-111177973D02*
X78208535Y-111273211D01*
X78208535Y-111273211D02*
X78113297Y-111368450D01*
X78113297Y-111368450D02*
X77970440Y-111416069D01*
X77970440Y-111416069D02*
X77732345Y-111416069D01*
%TO.C,MX45*%
X161219845Y-111416069D02*
X161219845Y-110416069D01*
X161219845Y-110416069D02*
X161553178Y-111130354D01*
X161553178Y-111130354D02*
X161886511Y-110416069D01*
X161886511Y-110416069D02*
X161886511Y-111416069D01*
X162267464Y-110416069D02*
X162934130Y-111416069D01*
X162934130Y-110416069D02*
X162267464Y-111416069D01*
X163315083Y-111035116D02*
X164076988Y-111035116D01*
X164553178Y-111416069D02*
X164553178Y-110416069D01*
X164553178Y-110416069D02*
X165124606Y-111416069D01*
X165124606Y-111416069D02*
X165124606Y-110416069D01*
X165743654Y-111416069D02*
X165648416Y-111368450D01*
X165648416Y-111368450D02*
X165600797Y-111320830D01*
X165600797Y-111320830D02*
X165553178Y-111225592D01*
X165553178Y-111225592D02*
X165553178Y-110939878D01*
X165553178Y-110939878D02*
X165600797Y-110844640D01*
X165600797Y-110844640D02*
X165648416Y-110797021D01*
X165648416Y-110797021D02*
X165743654Y-110749402D01*
X165743654Y-110749402D02*
X165886511Y-110749402D01*
X165886511Y-110749402D02*
X165981749Y-110797021D01*
X165981749Y-110797021D02*
X166029368Y-110844640D01*
X166029368Y-110844640D02*
X166076987Y-110939878D01*
X166076987Y-110939878D02*
X166076987Y-111225592D01*
X166076987Y-111225592D02*
X166029368Y-111320830D01*
X166029368Y-111320830D02*
X165981749Y-111368450D01*
X165981749Y-111368450D02*
X165886511Y-111416069D01*
X165886511Y-111416069D02*
X165743654Y-111416069D01*
X166981749Y-111416069D02*
X166505559Y-111416069D01*
X166505559Y-111416069D02*
X166505559Y-110416069D01*
X167315083Y-110892259D02*
X167648416Y-110892259D01*
X167791273Y-111416069D02*
X167315083Y-111416069D01*
X167315083Y-111416069D02*
X167315083Y-110416069D01*
X167315083Y-110416069D02*
X167791273Y-110416069D01*
X168219845Y-111416069D02*
X168219845Y-110416069D01*
X168219845Y-110416069D02*
X168457940Y-110416069D01*
X168457940Y-110416069D02*
X168600797Y-110463688D01*
X168600797Y-110463688D02*
X168696035Y-110558926D01*
X168696035Y-110558926D02*
X168743654Y-110654164D01*
X168743654Y-110654164D02*
X168791273Y-110844640D01*
X168791273Y-110844640D02*
X168791273Y-110987497D01*
X168791273Y-110987497D02*
X168743654Y-111177973D01*
X168743654Y-111177973D02*
X168696035Y-111273211D01*
X168696035Y-111273211D02*
X168600797Y-111368450D01*
X168600797Y-111368450D02*
X168457940Y-111416069D01*
X168457940Y-111416069D02*
X168219845Y-111416069D01*
%TO.C,MX32*%
X123119845Y-73316069D02*
X123119845Y-72316069D01*
X123119845Y-72316069D02*
X123453178Y-73030354D01*
X123453178Y-73030354D02*
X123786511Y-72316069D01*
X123786511Y-72316069D02*
X123786511Y-73316069D01*
X124167464Y-72316069D02*
X124834130Y-73316069D01*
X124834130Y-72316069D02*
X124167464Y-73316069D01*
X125215083Y-72935116D02*
X125976988Y-72935116D01*
X126453178Y-73316069D02*
X126453178Y-72316069D01*
X126453178Y-72316069D02*
X127024606Y-73316069D01*
X127024606Y-73316069D02*
X127024606Y-72316069D01*
X127643654Y-73316069D02*
X127548416Y-73268450D01*
X127548416Y-73268450D02*
X127500797Y-73220830D01*
X127500797Y-73220830D02*
X127453178Y-73125592D01*
X127453178Y-73125592D02*
X127453178Y-72839878D01*
X127453178Y-72839878D02*
X127500797Y-72744640D01*
X127500797Y-72744640D02*
X127548416Y-72697021D01*
X127548416Y-72697021D02*
X127643654Y-72649402D01*
X127643654Y-72649402D02*
X127786511Y-72649402D01*
X127786511Y-72649402D02*
X127881749Y-72697021D01*
X127881749Y-72697021D02*
X127929368Y-72744640D01*
X127929368Y-72744640D02*
X127976987Y-72839878D01*
X127976987Y-72839878D02*
X127976987Y-73125592D01*
X127976987Y-73125592D02*
X127929368Y-73220830D01*
X127929368Y-73220830D02*
X127881749Y-73268450D01*
X127881749Y-73268450D02*
X127786511Y-73316069D01*
X127786511Y-73316069D02*
X127643654Y-73316069D01*
X128881749Y-73316069D02*
X128405559Y-73316069D01*
X128405559Y-73316069D02*
X128405559Y-72316069D01*
X129215083Y-72792259D02*
X129548416Y-72792259D01*
X129691273Y-73316069D02*
X129215083Y-73316069D01*
X129215083Y-73316069D02*
X129215083Y-72316069D01*
X129215083Y-72316069D02*
X129691273Y-72316069D01*
X130119845Y-73316069D02*
X130119845Y-72316069D01*
X130119845Y-72316069D02*
X130357940Y-72316069D01*
X130357940Y-72316069D02*
X130500797Y-72363688D01*
X130500797Y-72363688D02*
X130596035Y-72458926D01*
X130596035Y-72458926D02*
X130643654Y-72554164D01*
X130643654Y-72554164D02*
X130691273Y-72744640D01*
X130691273Y-72744640D02*
X130691273Y-72887497D01*
X130691273Y-72887497D02*
X130643654Y-73077973D01*
X130643654Y-73077973D02*
X130596035Y-73173211D01*
X130596035Y-73173211D02*
X130500797Y-73268450D01*
X130500797Y-73268450D02*
X130357940Y-73316069D01*
X130357940Y-73316069D02*
X130119845Y-73316069D01*
%TO.C,MX35*%
X185032345Y-73316069D02*
X185032345Y-72316069D01*
X185032345Y-72316069D02*
X185365678Y-73030354D01*
X185365678Y-73030354D02*
X185699011Y-72316069D01*
X185699011Y-72316069D02*
X185699011Y-73316069D01*
X186079964Y-72316069D02*
X186746630Y-73316069D01*
X186746630Y-72316069D02*
X186079964Y-73316069D01*
X187127583Y-72935116D02*
X187889488Y-72935116D01*
X188365678Y-73316069D02*
X188365678Y-72316069D01*
X188365678Y-72316069D02*
X188937106Y-73316069D01*
X188937106Y-73316069D02*
X188937106Y-72316069D01*
X189556154Y-73316069D02*
X189460916Y-73268450D01*
X189460916Y-73268450D02*
X189413297Y-73220830D01*
X189413297Y-73220830D02*
X189365678Y-73125592D01*
X189365678Y-73125592D02*
X189365678Y-72839878D01*
X189365678Y-72839878D02*
X189413297Y-72744640D01*
X189413297Y-72744640D02*
X189460916Y-72697021D01*
X189460916Y-72697021D02*
X189556154Y-72649402D01*
X189556154Y-72649402D02*
X189699011Y-72649402D01*
X189699011Y-72649402D02*
X189794249Y-72697021D01*
X189794249Y-72697021D02*
X189841868Y-72744640D01*
X189841868Y-72744640D02*
X189889487Y-72839878D01*
X189889487Y-72839878D02*
X189889487Y-73125592D01*
X189889487Y-73125592D02*
X189841868Y-73220830D01*
X189841868Y-73220830D02*
X189794249Y-73268450D01*
X189794249Y-73268450D02*
X189699011Y-73316069D01*
X189699011Y-73316069D02*
X189556154Y-73316069D01*
X190794249Y-73316069D02*
X190318059Y-73316069D01*
X190318059Y-73316069D02*
X190318059Y-72316069D01*
X191127583Y-72792259D02*
X191460916Y-72792259D01*
X191603773Y-73316069D02*
X191127583Y-73316069D01*
X191127583Y-73316069D02*
X191127583Y-72316069D01*
X191127583Y-72316069D02*
X191603773Y-72316069D01*
X192032345Y-73316069D02*
X192032345Y-72316069D01*
X192032345Y-72316069D02*
X192270440Y-72316069D01*
X192270440Y-72316069D02*
X192413297Y-72363688D01*
X192413297Y-72363688D02*
X192508535Y-72458926D01*
X192508535Y-72458926D02*
X192556154Y-72554164D01*
X192556154Y-72554164D02*
X192603773Y-72744640D01*
X192603773Y-72744640D02*
X192603773Y-72887497D01*
X192603773Y-72887497D02*
X192556154Y-73077973D01*
X192556154Y-73077973D02*
X192508535Y-73173211D01*
X192508535Y-73173211D02*
X192413297Y-73268450D01*
X192413297Y-73268450D02*
X192270440Y-73316069D01*
X192270440Y-73316069D02*
X192032345Y-73316069D01*
%TO.C,MX43*%
X227894845Y-92366069D02*
X227894845Y-91366069D01*
X227894845Y-91366069D02*
X228228178Y-92080354D01*
X228228178Y-92080354D02*
X228561511Y-91366069D01*
X228561511Y-91366069D02*
X228561511Y-92366069D01*
X228942464Y-91366069D02*
X229609130Y-92366069D01*
X229609130Y-91366069D02*
X228942464Y-92366069D01*
X229990083Y-91985116D02*
X230751988Y-91985116D01*
X231228178Y-92366069D02*
X231228178Y-91366069D01*
X231228178Y-91366069D02*
X231799606Y-92366069D01*
X231799606Y-92366069D02*
X231799606Y-91366069D01*
X232418654Y-92366069D02*
X232323416Y-92318450D01*
X232323416Y-92318450D02*
X232275797Y-92270830D01*
X232275797Y-92270830D02*
X232228178Y-92175592D01*
X232228178Y-92175592D02*
X232228178Y-91889878D01*
X232228178Y-91889878D02*
X232275797Y-91794640D01*
X232275797Y-91794640D02*
X232323416Y-91747021D01*
X232323416Y-91747021D02*
X232418654Y-91699402D01*
X232418654Y-91699402D02*
X232561511Y-91699402D01*
X232561511Y-91699402D02*
X232656749Y-91747021D01*
X232656749Y-91747021D02*
X232704368Y-91794640D01*
X232704368Y-91794640D02*
X232751987Y-91889878D01*
X232751987Y-91889878D02*
X232751987Y-92175592D01*
X232751987Y-92175592D02*
X232704368Y-92270830D01*
X232704368Y-92270830D02*
X232656749Y-92318450D01*
X232656749Y-92318450D02*
X232561511Y-92366069D01*
X232561511Y-92366069D02*
X232418654Y-92366069D01*
X233656749Y-92366069D02*
X233180559Y-92366069D01*
X233180559Y-92366069D02*
X233180559Y-91366069D01*
X233990083Y-91842259D02*
X234323416Y-91842259D01*
X234466273Y-92366069D02*
X233990083Y-92366069D01*
X233990083Y-92366069D02*
X233990083Y-91366069D01*
X233990083Y-91366069D02*
X234466273Y-91366069D01*
X234894845Y-92366069D02*
X234894845Y-91366069D01*
X234894845Y-91366069D02*
X235132940Y-91366069D01*
X235132940Y-91366069D02*
X235275797Y-91413688D01*
X235275797Y-91413688D02*
X235371035Y-91508926D01*
X235371035Y-91508926D02*
X235418654Y-91604164D01*
X235418654Y-91604164D02*
X235466273Y-91794640D01*
X235466273Y-91794640D02*
X235466273Y-91937497D01*
X235466273Y-91937497D02*
X235418654Y-92127973D01*
X235418654Y-92127973D02*
X235371035Y-92223211D01*
X235371035Y-92223211D02*
X235275797Y-92318450D01*
X235275797Y-92318450D02*
X235132940Y-92366069D01*
X235132940Y-92366069D02*
X234894845Y-92366069D01*
%TO.C,MX36*%
X204082345Y-73316069D02*
X204082345Y-72316069D01*
X204082345Y-72316069D02*
X204415678Y-73030354D01*
X204415678Y-73030354D02*
X204749011Y-72316069D01*
X204749011Y-72316069D02*
X204749011Y-73316069D01*
X205129964Y-72316069D02*
X205796630Y-73316069D01*
X205796630Y-72316069D02*
X205129964Y-73316069D01*
X206177583Y-72935116D02*
X206939488Y-72935116D01*
X207415678Y-73316069D02*
X207415678Y-72316069D01*
X207415678Y-72316069D02*
X207987106Y-73316069D01*
X207987106Y-73316069D02*
X207987106Y-72316069D01*
X208606154Y-73316069D02*
X208510916Y-73268450D01*
X208510916Y-73268450D02*
X208463297Y-73220830D01*
X208463297Y-73220830D02*
X208415678Y-73125592D01*
X208415678Y-73125592D02*
X208415678Y-72839878D01*
X208415678Y-72839878D02*
X208463297Y-72744640D01*
X208463297Y-72744640D02*
X208510916Y-72697021D01*
X208510916Y-72697021D02*
X208606154Y-72649402D01*
X208606154Y-72649402D02*
X208749011Y-72649402D01*
X208749011Y-72649402D02*
X208844249Y-72697021D01*
X208844249Y-72697021D02*
X208891868Y-72744640D01*
X208891868Y-72744640D02*
X208939487Y-72839878D01*
X208939487Y-72839878D02*
X208939487Y-73125592D01*
X208939487Y-73125592D02*
X208891868Y-73220830D01*
X208891868Y-73220830D02*
X208844249Y-73268450D01*
X208844249Y-73268450D02*
X208749011Y-73316069D01*
X208749011Y-73316069D02*
X208606154Y-73316069D01*
X209844249Y-73316069D02*
X209368059Y-73316069D01*
X209368059Y-73316069D02*
X209368059Y-72316069D01*
X210177583Y-72792259D02*
X210510916Y-72792259D01*
X210653773Y-73316069D02*
X210177583Y-73316069D01*
X210177583Y-73316069D02*
X210177583Y-72316069D01*
X210177583Y-72316069D02*
X210653773Y-72316069D01*
X211082345Y-73316069D02*
X211082345Y-72316069D01*
X211082345Y-72316069D02*
X211320440Y-72316069D01*
X211320440Y-72316069D02*
X211463297Y-72363688D01*
X211463297Y-72363688D02*
X211558535Y-72458926D01*
X211558535Y-72458926D02*
X211606154Y-72554164D01*
X211606154Y-72554164D02*
X211653773Y-72744640D01*
X211653773Y-72744640D02*
X211653773Y-72887497D01*
X211653773Y-72887497D02*
X211606154Y-73077973D01*
X211606154Y-73077973D02*
X211558535Y-73173211D01*
X211558535Y-73173211D02*
X211463297Y-73268450D01*
X211463297Y-73268450D02*
X211320440Y-73316069D01*
X211320440Y-73316069D02*
X211082345Y-73316069D01*
%TO.C,MX23*%
X213607345Y-30453069D02*
X213607345Y-29453069D01*
X213607345Y-29453069D02*
X213940678Y-30167354D01*
X213940678Y-30167354D02*
X214274011Y-29453069D01*
X214274011Y-29453069D02*
X214274011Y-30453069D01*
X214654964Y-29453069D02*
X215321630Y-30453069D01*
X215321630Y-29453069D02*
X214654964Y-30453069D01*
X215702583Y-30072116D02*
X216464488Y-30072116D01*
X216940678Y-30453069D02*
X216940678Y-29453069D01*
X216940678Y-29453069D02*
X217512106Y-30453069D01*
X217512106Y-30453069D02*
X217512106Y-29453069D01*
X218131154Y-30453069D02*
X218035916Y-30405450D01*
X218035916Y-30405450D02*
X217988297Y-30357830D01*
X217988297Y-30357830D02*
X217940678Y-30262592D01*
X217940678Y-30262592D02*
X217940678Y-29976878D01*
X217940678Y-29976878D02*
X217988297Y-29881640D01*
X217988297Y-29881640D02*
X218035916Y-29834021D01*
X218035916Y-29834021D02*
X218131154Y-29786402D01*
X218131154Y-29786402D02*
X218274011Y-29786402D01*
X218274011Y-29786402D02*
X218369249Y-29834021D01*
X218369249Y-29834021D02*
X218416868Y-29881640D01*
X218416868Y-29881640D02*
X218464487Y-29976878D01*
X218464487Y-29976878D02*
X218464487Y-30262592D01*
X218464487Y-30262592D02*
X218416868Y-30357830D01*
X218416868Y-30357830D02*
X218369249Y-30405450D01*
X218369249Y-30405450D02*
X218274011Y-30453069D01*
X218274011Y-30453069D02*
X218131154Y-30453069D01*
X219369249Y-30453069D02*
X218893059Y-30453069D01*
X218893059Y-30453069D02*
X218893059Y-29453069D01*
X219702583Y-29929259D02*
X220035916Y-29929259D01*
X220178773Y-30453069D02*
X219702583Y-30453069D01*
X219702583Y-30453069D02*
X219702583Y-29453069D01*
X219702583Y-29453069D02*
X220178773Y-29453069D01*
X220607345Y-30453069D02*
X220607345Y-29453069D01*
X220607345Y-29453069D02*
X220845440Y-29453069D01*
X220845440Y-29453069D02*
X220988297Y-29500688D01*
X220988297Y-29500688D02*
X221083535Y-29595926D01*
X221083535Y-29595926D02*
X221131154Y-29691164D01*
X221131154Y-29691164D02*
X221178773Y-29881640D01*
X221178773Y-29881640D02*
X221178773Y-30024497D01*
X221178773Y-30024497D02*
X221131154Y-30214973D01*
X221131154Y-30214973D02*
X221083535Y-30310211D01*
X221083535Y-30310211D02*
X220988297Y-30405450D01*
X220988297Y-30405450D02*
X220845440Y-30453069D01*
X220845440Y-30453069D02*
X220607345Y-30453069D01*
%TO.C,MX25*%
X118357345Y-54266069D02*
X118357345Y-53266069D01*
X118357345Y-53266069D02*
X118690678Y-53980354D01*
X118690678Y-53980354D02*
X119024011Y-53266069D01*
X119024011Y-53266069D02*
X119024011Y-54266069D01*
X119404964Y-53266069D02*
X120071630Y-54266069D01*
X120071630Y-53266069D02*
X119404964Y-54266069D01*
X120452583Y-53885116D02*
X121214488Y-53885116D01*
X121690678Y-54266069D02*
X121690678Y-53266069D01*
X121690678Y-53266069D02*
X122262106Y-54266069D01*
X122262106Y-54266069D02*
X122262106Y-53266069D01*
X122881154Y-54266069D02*
X122785916Y-54218450D01*
X122785916Y-54218450D02*
X122738297Y-54170830D01*
X122738297Y-54170830D02*
X122690678Y-54075592D01*
X122690678Y-54075592D02*
X122690678Y-53789878D01*
X122690678Y-53789878D02*
X122738297Y-53694640D01*
X122738297Y-53694640D02*
X122785916Y-53647021D01*
X122785916Y-53647021D02*
X122881154Y-53599402D01*
X122881154Y-53599402D02*
X123024011Y-53599402D01*
X123024011Y-53599402D02*
X123119249Y-53647021D01*
X123119249Y-53647021D02*
X123166868Y-53694640D01*
X123166868Y-53694640D02*
X123214487Y-53789878D01*
X123214487Y-53789878D02*
X123214487Y-54075592D01*
X123214487Y-54075592D02*
X123166868Y-54170830D01*
X123166868Y-54170830D02*
X123119249Y-54218450D01*
X123119249Y-54218450D02*
X123024011Y-54266069D01*
X123024011Y-54266069D02*
X122881154Y-54266069D01*
X124119249Y-54266069D02*
X123643059Y-54266069D01*
X123643059Y-54266069D02*
X123643059Y-53266069D01*
X124452583Y-53742259D02*
X124785916Y-53742259D01*
X124928773Y-54266069D02*
X124452583Y-54266069D01*
X124452583Y-54266069D02*
X124452583Y-53266069D01*
X124452583Y-53266069D02*
X124928773Y-53266069D01*
X125357345Y-54266069D02*
X125357345Y-53266069D01*
X125357345Y-53266069D02*
X125595440Y-53266069D01*
X125595440Y-53266069D02*
X125738297Y-53313688D01*
X125738297Y-53313688D02*
X125833535Y-53408926D01*
X125833535Y-53408926D02*
X125881154Y-53504164D01*
X125881154Y-53504164D02*
X125928773Y-53694640D01*
X125928773Y-53694640D02*
X125928773Y-53837497D01*
X125928773Y-53837497D02*
X125881154Y-54027973D01*
X125881154Y-54027973D02*
X125833535Y-54123211D01*
X125833535Y-54123211D02*
X125738297Y-54218450D01*
X125738297Y-54218450D02*
X125595440Y-54266069D01*
X125595440Y-54266069D02*
X125357345Y-54266069D01*
%TO.C,MX15*%
X28006807Y-129233273D02*
X27959188Y-129185654D01*
X27959188Y-129185654D02*
X27911569Y-129090416D01*
X27911569Y-129090416D02*
X27911569Y-128852321D01*
X27911569Y-128852321D02*
X27959188Y-128757083D01*
X27959188Y-128757083D02*
X28006807Y-128709464D01*
X28006807Y-128709464D02*
X28102045Y-128661845D01*
X28102045Y-128661845D02*
X28197283Y-128661845D01*
X28197283Y-128661845D02*
X28340140Y-128709464D01*
X28340140Y-128709464D02*
X28911569Y-129280892D01*
X28911569Y-129280892D02*
X28911569Y-128661845D01*
X27911569Y-128233273D02*
X28721092Y-128233273D01*
X28721092Y-128233273D02*
X28816330Y-128185654D01*
X28816330Y-128185654D02*
X28863950Y-128138035D01*
X28863950Y-128138035D02*
X28911569Y-128042797D01*
X28911569Y-128042797D02*
X28911569Y-127852321D01*
X28911569Y-127852321D02*
X28863950Y-127757083D01*
X28863950Y-127757083D02*
X28816330Y-127709464D01*
X28816330Y-127709464D02*
X28721092Y-127661845D01*
X28721092Y-127661845D02*
X27911569Y-127661845D01*
%TO.C,MX12*%
X51682345Y-111416069D02*
X51682345Y-110416069D01*
X51682345Y-110416069D02*
X52015678Y-111130354D01*
X52015678Y-111130354D02*
X52349011Y-110416069D01*
X52349011Y-110416069D02*
X52349011Y-111416069D01*
X52729964Y-110416069D02*
X53396630Y-111416069D01*
X53396630Y-110416069D02*
X52729964Y-111416069D01*
X53777583Y-111035116D02*
X54539488Y-111035116D01*
X55015678Y-111416069D02*
X55015678Y-110416069D01*
X55015678Y-110416069D02*
X55587106Y-111416069D01*
X55587106Y-111416069D02*
X55587106Y-110416069D01*
X56206154Y-111416069D02*
X56110916Y-111368450D01*
X56110916Y-111368450D02*
X56063297Y-111320830D01*
X56063297Y-111320830D02*
X56015678Y-111225592D01*
X56015678Y-111225592D02*
X56015678Y-110939878D01*
X56015678Y-110939878D02*
X56063297Y-110844640D01*
X56063297Y-110844640D02*
X56110916Y-110797021D01*
X56110916Y-110797021D02*
X56206154Y-110749402D01*
X56206154Y-110749402D02*
X56349011Y-110749402D01*
X56349011Y-110749402D02*
X56444249Y-110797021D01*
X56444249Y-110797021D02*
X56491868Y-110844640D01*
X56491868Y-110844640D02*
X56539487Y-110939878D01*
X56539487Y-110939878D02*
X56539487Y-111225592D01*
X56539487Y-111225592D02*
X56491868Y-111320830D01*
X56491868Y-111320830D02*
X56444249Y-111368450D01*
X56444249Y-111368450D02*
X56349011Y-111416069D01*
X56349011Y-111416069D02*
X56206154Y-111416069D01*
X57444249Y-111416069D02*
X56968059Y-111416069D01*
X56968059Y-111416069D02*
X56968059Y-110416069D01*
X57777583Y-110892259D02*
X58110916Y-110892259D01*
X58253773Y-111416069D02*
X57777583Y-111416069D01*
X57777583Y-111416069D02*
X57777583Y-110416069D01*
X57777583Y-110416069D02*
X58253773Y-110416069D01*
X58682345Y-111416069D02*
X58682345Y-110416069D01*
X58682345Y-110416069D02*
X58920440Y-110416069D01*
X58920440Y-110416069D02*
X59063297Y-110463688D01*
X59063297Y-110463688D02*
X59158535Y-110558926D01*
X59158535Y-110558926D02*
X59206154Y-110654164D01*
X59206154Y-110654164D02*
X59253773Y-110844640D01*
X59253773Y-110844640D02*
X59253773Y-110987497D01*
X59253773Y-110987497D02*
X59206154Y-111177973D01*
X59206154Y-111177973D02*
X59158535Y-111273211D01*
X59158535Y-111273211D02*
X59063297Y-111368450D01*
X59063297Y-111368450D02*
X58920440Y-111416069D01*
X58920440Y-111416069D02*
X58682345Y-111416069D01*
%TO.C,MX30*%
X213607345Y-54266069D02*
X213607345Y-53266069D01*
X213607345Y-53266069D02*
X213940678Y-53980354D01*
X213940678Y-53980354D02*
X214274011Y-53266069D01*
X214274011Y-53266069D02*
X214274011Y-54266069D01*
X214654964Y-53266069D02*
X215321630Y-54266069D01*
X215321630Y-53266069D02*
X214654964Y-54266069D01*
X215702583Y-53885116D02*
X216464488Y-53885116D01*
X216940678Y-54266069D02*
X216940678Y-53266069D01*
X216940678Y-53266069D02*
X217512106Y-54266069D01*
X217512106Y-54266069D02*
X217512106Y-53266069D01*
X218131154Y-54266069D02*
X218035916Y-54218450D01*
X218035916Y-54218450D02*
X217988297Y-54170830D01*
X217988297Y-54170830D02*
X217940678Y-54075592D01*
X217940678Y-54075592D02*
X217940678Y-53789878D01*
X217940678Y-53789878D02*
X217988297Y-53694640D01*
X217988297Y-53694640D02*
X218035916Y-53647021D01*
X218035916Y-53647021D02*
X218131154Y-53599402D01*
X218131154Y-53599402D02*
X218274011Y-53599402D01*
X218274011Y-53599402D02*
X218369249Y-53647021D01*
X218369249Y-53647021D02*
X218416868Y-53694640D01*
X218416868Y-53694640D02*
X218464487Y-53789878D01*
X218464487Y-53789878D02*
X218464487Y-54075592D01*
X218464487Y-54075592D02*
X218416868Y-54170830D01*
X218416868Y-54170830D02*
X218369249Y-54218450D01*
X218369249Y-54218450D02*
X218274011Y-54266069D01*
X218274011Y-54266069D02*
X218131154Y-54266069D01*
X219369249Y-54266069D02*
X218893059Y-54266069D01*
X218893059Y-54266069D02*
X218893059Y-53266069D01*
X219702583Y-53742259D02*
X220035916Y-53742259D01*
X220178773Y-54266069D02*
X219702583Y-54266069D01*
X219702583Y-54266069D02*
X219702583Y-53266069D01*
X219702583Y-53266069D02*
X220178773Y-53266069D01*
X220607345Y-54266069D02*
X220607345Y-53266069D01*
X220607345Y-53266069D02*
X220845440Y-53266069D01*
X220845440Y-53266069D02*
X220988297Y-53313688D01*
X220988297Y-53313688D02*
X221083535Y-53408926D01*
X221083535Y-53408926D02*
X221131154Y-53504164D01*
X221131154Y-53504164D02*
X221178773Y-53694640D01*
X221178773Y-53694640D02*
X221178773Y-53837497D01*
X221178773Y-53837497D02*
X221131154Y-54027973D01*
X221131154Y-54027973D02*
X221083535Y-54123211D01*
X221083535Y-54123211D02*
X220988297Y-54218450D01*
X220988297Y-54218450D02*
X220845440Y-54266069D01*
X220845440Y-54266069D02*
X220607345Y-54266069D01*
%TO.C,MX19*%
X137407345Y-30453069D02*
X137407345Y-29453069D01*
X137407345Y-29453069D02*
X137740678Y-30167354D01*
X137740678Y-30167354D02*
X138074011Y-29453069D01*
X138074011Y-29453069D02*
X138074011Y-30453069D01*
X138454964Y-29453069D02*
X139121630Y-30453069D01*
X139121630Y-29453069D02*
X138454964Y-30453069D01*
X139502583Y-30072116D02*
X140264488Y-30072116D01*
X140740678Y-30453069D02*
X140740678Y-29453069D01*
X140740678Y-29453069D02*
X141312106Y-30453069D01*
X141312106Y-30453069D02*
X141312106Y-29453069D01*
X141931154Y-30453069D02*
X141835916Y-30405450D01*
X141835916Y-30405450D02*
X141788297Y-30357830D01*
X141788297Y-30357830D02*
X141740678Y-30262592D01*
X141740678Y-30262592D02*
X141740678Y-29976878D01*
X141740678Y-29976878D02*
X141788297Y-29881640D01*
X141788297Y-29881640D02*
X141835916Y-29834021D01*
X141835916Y-29834021D02*
X141931154Y-29786402D01*
X141931154Y-29786402D02*
X142074011Y-29786402D01*
X142074011Y-29786402D02*
X142169249Y-29834021D01*
X142169249Y-29834021D02*
X142216868Y-29881640D01*
X142216868Y-29881640D02*
X142264487Y-29976878D01*
X142264487Y-29976878D02*
X142264487Y-30262592D01*
X142264487Y-30262592D02*
X142216868Y-30357830D01*
X142216868Y-30357830D02*
X142169249Y-30405450D01*
X142169249Y-30405450D02*
X142074011Y-30453069D01*
X142074011Y-30453069D02*
X141931154Y-30453069D01*
X143169249Y-30453069D02*
X142693059Y-30453069D01*
X142693059Y-30453069D02*
X142693059Y-29453069D01*
X143502583Y-29929259D02*
X143835916Y-29929259D01*
X143978773Y-30453069D02*
X143502583Y-30453069D01*
X143502583Y-30453069D02*
X143502583Y-29453069D01*
X143502583Y-29453069D02*
X143978773Y-29453069D01*
X144407345Y-30453069D02*
X144407345Y-29453069D01*
X144407345Y-29453069D02*
X144645440Y-29453069D01*
X144645440Y-29453069D02*
X144788297Y-29500688D01*
X144788297Y-29500688D02*
X144883535Y-29595926D01*
X144883535Y-29595926D02*
X144931154Y-29691164D01*
X144931154Y-29691164D02*
X144978773Y-29881640D01*
X144978773Y-29881640D02*
X144978773Y-30024497D01*
X144978773Y-30024497D02*
X144931154Y-30214973D01*
X144931154Y-30214973D02*
X144883535Y-30310211D01*
X144883535Y-30310211D02*
X144788297Y-30405450D01*
X144788297Y-30405450D02*
X144645440Y-30453069D01*
X144645440Y-30453069D02*
X144407345Y-30453069D01*
%TO.C,MX28*%
X175507345Y-54266069D02*
X175507345Y-53266069D01*
X175507345Y-53266069D02*
X175840678Y-53980354D01*
X175840678Y-53980354D02*
X176174011Y-53266069D01*
X176174011Y-53266069D02*
X176174011Y-54266069D01*
X176554964Y-53266069D02*
X177221630Y-54266069D01*
X177221630Y-53266069D02*
X176554964Y-54266069D01*
X177602583Y-53885116D02*
X178364488Y-53885116D01*
X178840678Y-54266069D02*
X178840678Y-53266069D01*
X178840678Y-53266069D02*
X179412106Y-54266069D01*
X179412106Y-54266069D02*
X179412106Y-53266069D01*
X180031154Y-54266069D02*
X179935916Y-54218450D01*
X179935916Y-54218450D02*
X179888297Y-54170830D01*
X179888297Y-54170830D02*
X179840678Y-54075592D01*
X179840678Y-54075592D02*
X179840678Y-53789878D01*
X179840678Y-53789878D02*
X179888297Y-53694640D01*
X179888297Y-53694640D02*
X179935916Y-53647021D01*
X179935916Y-53647021D02*
X180031154Y-53599402D01*
X180031154Y-53599402D02*
X180174011Y-53599402D01*
X180174011Y-53599402D02*
X180269249Y-53647021D01*
X180269249Y-53647021D02*
X180316868Y-53694640D01*
X180316868Y-53694640D02*
X180364487Y-53789878D01*
X180364487Y-53789878D02*
X180364487Y-54075592D01*
X180364487Y-54075592D02*
X180316868Y-54170830D01*
X180316868Y-54170830D02*
X180269249Y-54218450D01*
X180269249Y-54218450D02*
X180174011Y-54266069D01*
X180174011Y-54266069D02*
X180031154Y-54266069D01*
X181269249Y-54266069D02*
X180793059Y-54266069D01*
X180793059Y-54266069D02*
X180793059Y-53266069D01*
X181602583Y-53742259D02*
X181935916Y-53742259D01*
X182078773Y-54266069D02*
X181602583Y-54266069D01*
X181602583Y-54266069D02*
X181602583Y-53266069D01*
X181602583Y-53266069D02*
X182078773Y-53266069D01*
X182507345Y-54266069D02*
X182507345Y-53266069D01*
X182507345Y-53266069D02*
X182745440Y-53266069D01*
X182745440Y-53266069D02*
X182888297Y-53313688D01*
X182888297Y-53313688D02*
X182983535Y-53408926D01*
X182983535Y-53408926D02*
X183031154Y-53504164D01*
X183031154Y-53504164D02*
X183078773Y-53694640D01*
X183078773Y-53694640D02*
X183078773Y-53837497D01*
X183078773Y-53837497D02*
X183031154Y-54027973D01*
X183031154Y-54027973D02*
X182983535Y-54123211D01*
X182983535Y-54123211D02*
X182888297Y-54218450D01*
X182888297Y-54218450D02*
X182745440Y-54266069D01*
X182745440Y-54266069D02*
X182507345Y-54266069D01*
%TO.C,MX48*%
X218369845Y-111416069D02*
X218369845Y-110416069D01*
X218369845Y-110416069D02*
X218703178Y-111130354D01*
X218703178Y-111130354D02*
X219036511Y-110416069D01*
X219036511Y-110416069D02*
X219036511Y-111416069D01*
X219417464Y-110416069D02*
X220084130Y-111416069D01*
X220084130Y-110416069D02*
X219417464Y-111416069D01*
X220465083Y-111035116D02*
X221226988Y-111035116D01*
X221703178Y-111416069D02*
X221703178Y-110416069D01*
X221703178Y-110416069D02*
X222274606Y-111416069D01*
X222274606Y-111416069D02*
X222274606Y-110416069D01*
X222893654Y-111416069D02*
X222798416Y-111368450D01*
X222798416Y-111368450D02*
X222750797Y-111320830D01*
X222750797Y-111320830D02*
X222703178Y-111225592D01*
X222703178Y-111225592D02*
X222703178Y-110939878D01*
X222703178Y-110939878D02*
X222750797Y-110844640D01*
X222750797Y-110844640D02*
X222798416Y-110797021D01*
X222798416Y-110797021D02*
X222893654Y-110749402D01*
X222893654Y-110749402D02*
X223036511Y-110749402D01*
X223036511Y-110749402D02*
X223131749Y-110797021D01*
X223131749Y-110797021D02*
X223179368Y-110844640D01*
X223179368Y-110844640D02*
X223226987Y-110939878D01*
X223226987Y-110939878D02*
X223226987Y-111225592D01*
X223226987Y-111225592D02*
X223179368Y-111320830D01*
X223179368Y-111320830D02*
X223131749Y-111368450D01*
X223131749Y-111368450D02*
X223036511Y-111416069D01*
X223036511Y-111416069D02*
X222893654Y-111416069D01*
X224131749Y-111416069D02*
X223655559Y-111416069D01*
X223655559Y-111416069D02*
X223655559Y-110416069D01*
X224465083Y-110892259D02*
X224798416Y-110892259D01*
X224941273Y-111416069D02*
X224465083Y-111416069D01*
X224465083Y-111416069D02*
X224465083Y-110416069D01*
X224465083Y-110416069D02*
X224941273Y-110416069D01*
X225369845Y-111416069D02*
X225369845Y-110416069D01*
X225369845Y-110416069D02*
X225607940Y-110416069D01*
X225607940Y-110416069D02*
X225750797Y-110463688D01*
X225750797Y-110463688D02*
X225846035Y-110558926D01*
X225846035Y-110558926D02*
X225893654Y-110654164D01*
X225893654Y-110654164D02*
X225941273Y-110844640D01*
X225941273Y-110844640D02*
X225941273Y-110987497D01*
X225941273Y-110987497D02*
X225893654Y-111177973D01*
X225893654Y-111177973D02*
X225846035Y-111273211D01*
X225846035Y-111273211D02*
X225750797Y-111368450D01*
X225750797Y-111368450D02*
X225607940Y-111416069D01*
X225607940Y-111416069D02*
X225369845Y-111416069D01*
%TO.C,MX4*%
X89782345Y-54266069D02*
X89782345Y-53266069D01*
X89782345Y-53266069D02*
X90115678Y-53980354D01*
X90115678Y-53980354D02*
X90449011Y-53266069D01*
X90449011Y-53266069D02*
X90449011Y-54266069D01*
X90829964Y-53266069D02*
X91496630Y-54266069D01*
X91496630Y-53266069D02*
X90829964Y-54266069D01*
X91877583Y-53885116D02*
X92639488Y-53885116D01*
X93115678Y-54266069D02*
X93115678Y-53266069D01*
X93115678Y-53266069D02*
X93687106Y-54266069D01*
X93687106Y-54266069D02*
X93687106Y-53266069D01*
X94306154Y-54266069D02*
X94210916Y-54218450D01*
X94210916Y-54218450D02*
X94163297Y-54170830D01*
X94163297Y-54170830D02*
X94115678Y-54075592D01*
X94115678Y-54075592D02*
X94115678Y-53789878D01*
X94115678Y-53789878D02*
X94163297Y-53694640D01*
X94163297Y-53694640D02*
X94210916Y-53647021D01*
X94210916Y-53647021D02*
X94306154Y-53599402D01*
X94306154Y-53599402D02*
X94449011Y-53599402D01*
X94449011Y-53599402D02*
X94544249Y-53647021D01*
X94544249Y-53647021D02*
X94591868Y-53694640D01*
X94591868Y-53694640D02*
X94639487Y-53789878D01*
X94639487Y-53789878D02*
X94639487Y-54075592D01*
X94639487Y-54075592D02*
X94591868Y-54170830D01*
X94591868Y-54170830D02*
X94544249Y-54218450D01*
X94544249Y-54218450D02*
X94449011Y-54266069D01*
X94449011Y-54266069D02*
X94306154Y-54266069D01*
X95544249Y-54266069D02*
X95068059Y-54266069D01*
X95068059Y-54266069D02*
X95068059Y-53266069D01*
X95877583Y-53742259D02*
X96210916Y-53742259D01*
X96353773Y-54266069D02*
X95877583Y-54266069D01*
X95877583Y-54266069D02*
X95877583Y-53266069D01*
X95877583Y-53266069D02*
X96353773Y-53266069D01*
X96782345Y-54266069D02*
X96782345Y-53266069D01*
X96782345Y-53266069D02*
X97020440Y-53266069D01*
X97020440Y-53266069D02*
X97163297Y-53313688D01*
X97163297Y-53313688D02*
X97258535Y-53408926D01*
X97258535Y-53408926D02*
X97306154Y-53504164D01*
X97306154Y-53504164D02*
X97353773Y-53694640D01*
X97353773Y-53694640D02*
X97353773Y-53837497D01*
X97353773Y-53837497D02*
X97306154Y-54027973D01*
X97306154Y-54027973D02*
X97258535Y-54123211D01*
X97258535Y-54123211D02*
X97163297Y-54218450D01*
X97163297Y-54218450D02*
X97020440Y-54266069D01*
X97020440Y-54266069D02*
X96782345Y-54266069D01*
%TO.C,MX39*%
X151694845Y-92366069D02*
X151694845Y-91366069D01*
X151694845Y-91366069D02*
X152028178Y-92080354D01*
X152028178Y-92080354D02*
X152361511Y-91366069D01*
X152361511Y-91366069D02*
X152361511Y-92366069D01*
X152742464Y-91366069D02*
X153409130Y-92366069D01*
X153409130Y-91366069D02*
X152742464Y-92366069D01*
X153790083Y-91985116D02*
X154551988Y-91985116D01*
X155028178Y-92366069D02*
X155028178Y-91366069D01*
X155028178Y-91366069D02*
X155599606Y-92366069D01*
X155599606Y-92366069D02*
X155599606Y-91366069D01*
X156218654Y-92366069D02*
X156123416Y-92318450D01*
X156123416Y-92318450D02*
X156075797Y-92270830D01*
X156075797Y-92270830D02*
X156028178Y-92175592D01*
X156028178Y-92175592D02*
X156028178Y-91889878D01*
X156028178Y-91889878D02*
X156075797Y-91794640D01*
X156075797Y-91794640D02*
X156123416Y-91747021D01*
X156123416Y-91747021D02*
X156218654Y-91699402D01*
X156218654Y-91699402D02*
X156361511Y-91699402D01*
X156361511Y-91699402D02*
X156456749Y-91747021D01*
X156456749Y-91747021D02*
X156504368Y-91794640D01*
X156504368Y-91794640D02*
X156551987Y-91889878D01*
X156551987Y-91889878D02*
X156551987Y-92175592D01*
X156551987Y-92175592D02*
X156504368Y-92270830D01*
X156504368Y-92270830D02*
X156456749Y-92318450D01*
X156456749Y-92318450D02*
X156361511Y-92366069D01*
X156361511Y-92366069D02*
X156218654Y-92366069D01*
X157456749Y-92366069D02*
X156980559Y-92366069D01*
X156980559Y-92366069D02*
X156980559Y-91366069D01*
X157790083Y-91842259D02*
X158123416Y-91842259D01*
X158266273Y-92366069D02*
X157790083Y-92366069D01*
X157790083Y-92366069D02*
X157790083Y-91366069D01*
X157790083Y-91366069D02*
X158266273Y-91366069D01*
X158694845Y-92366069D02*
X158694845Y-91366069D01*
X158694845Y-91366069D02*
X158932940Y-91366069D01*
X158932940Y-91366069D02*
X159075797Y-91413688D01*
X159075797Y-91413688D02*
X159171035Y-91508926D01*
X159171035Y-91508926D02*
X159218654Y-91604164D01*
X159218654Y-91604164D02*
X159266273Y-91794640D01*
X159266273Y-91794640D02*
X159266273Y-91937497D01*
X159266273Y-91937497D02*
X159218654Y-92127973D01*
X159218654Y-92127973D02*
X159171035Y-92223211D01*
X159171035Y-92223211D02*
X159075797Y-92318450D01*
X159075797Y-92318450D02*
X158932940Y-92366069D01*
X158932940Y-92366069D02*
X158694845Y-92366069D01*
%TO.C,MX6*%
X64969250Y-71273750D02*
X84019250Y-71273750D01*
X64969250Y-90323750D02*
X64969250Y-71273750D01*
X67494250Y-73798750D02*
X67494250Y-75798750D01*
X67494250Y-85798750D02*
X67494250Y-87798750D01*
X67494250Y-87798750D02*
X69494250Y-87798750D01*
X69494250Y-73798750D02*
X67494250Y-73798750D01*
X79494250Y-73798750D02*
X81494250Y-73798750D01*
X79494250Y-87798750D02*
X81494250Y-87798750D01*
X81494250Y-73798750D02*
X81494250Y-75798750D01*
X81494250Y-87798750D02*
X81494250Y-85798750D01*
X84019250Y-71273750D02*
X84019250Y-90323750D01*
X84019250Y-90323750D02*
X64969250Y-90323750D01*
%TO.C,MX2*%
X45919250Y-52223750D02*
X64969250Y-52223750D01*
X45919250Y-71273750D02*
X45919250Y-52223750D01*
X48444250Y-54748750D02*
X48444250Y-56748750D01*
X48444250Y-66748750D02*
X48444250Y-68748750D01*
X48444250Y-68748750D02*
X50444250Y-68748750D01*
X50444250Y-54748750D02*
X48444250Y-54748750D01*
X60444250Y-54748750D02*
X62444250Y-54748750D01*
X60444250Y-68748750D02*
X62444250Y-68748750D01*
X62444250Y-54748750D02*
X62444250Y-56748750D01*
X62444250Y-68748750D02*
X62444250Y-66748750D01*
X64969250Y-52223750D02*
X64969250Y-71273750D01*
X64969250Y-71273750D02*
X45919250Y-71273750D01*
%TO.C,MX20*%
X150694250Y-28410750D02*
X169744250Y-28410750D01*
X150694250Y-47460750D02*
X150694250Y-28410750D01*
X153219250Y-30935750D02*
X153219250Y-32935750D01*
X153219250Y-42935750D02*
X153219250Y-44935750D01*
X153219250Y-44935750D02*
X155219250Y-44935750D01*
X155219250Y-30935750D02*
X153219250Y-30935750D01*
X165219250Y-30935750D02*
X167219250Y-30935750D01*
X165219250Y-44935750D02*
X167219250Y-44935750D01*
X167219250Y-30935750D02*
X167219250Y-32935750D01*
X167219250Y-44935750D02*
X167219250Y-42935750D01*
X169744250Y-28410750D02*
X169744250Y-47460750D01*
X169744250Y-47460750D02*
X150694250Y-47460750D01*
%TO.C,MX52*%
X160219250Y-128423750D02*
X184031750Y-128423750D01*
X160219250Y-147473750D02*
X160219250Y-128423750D01*
X165125500Y-130948750D02*
X165125500Y-132948750D01*
X165125500Y-142948750D02*
X165125500Y-144948750D01*
X165125500Y-144948750D02*
X167125500Y-144948750D01*
X167125500Y-130948750D02*
X165125500Y-130948750D01*
X177125500Y-130948750D02*
X179125500Y-130948750D01*
X177125500Y-144948750D02*
X179125500Y-144948750D01*
X179125500Y-130948750D02*
X179125500Y-132948750D01*
X179125500Y-144948750D02*
X179125500Y-142948750D01*
X184031750Y-128423750D02*
X184031750Y-147473750D01*
X184031750Y-147473750D02*
X160219250Y-147473750D01*
%TO.C,MX26*%
X131644250Y-52223750D02*
X150694250Y-52223750D01*
X131644250Y-71273750D02*
X131644250Y-52223750D01*
X134169250Y-54748750D02*
X134169250Y-56748750D01*
X134169250Y-66748750D02*
X134169250Y-68748750D01*
X134169250Y-68748750D02*
X136169250Y-68748750D01*
X136169250Y-54748750D02*
X134169250Y-54748750D01*
X146169250Y-54748750D02*
X148169250Y-54748750D01*
X146169250Y-68748750D02*
X148169250Y-68748750D01*
X148169250Y-54748750D02*
X148169250Y-56748750D01*
X148169250Y-68748750D02*
X148169250Y-66748750D01*
X150694250Y-52223750D02*
X150694250Y-71273750D01*
X150694250Y-71273750D02*
X131644250Y-71273750D01*
%TO.C,MX1*%
X26869250Y-52223750D02*
X45919250Y-52223750D01*
X26869250Y-71273750D02*
X26869250Y-52223750D01*
X29394250Y-54748750D02*
X29394250Y-56748750D01*
X29394250Y-66748750D02*
X29394250Y-68748750D01*
X29394250Y-68748750D02*
X31394250Y-68748750D01*
X31394250Y-54748750D02*
X29394250Y-54748750D01*
X41394250Y-54748750D02*
X43394250Y-54748750D01*
X41394250Y-68748750D02*
X43394250Y-68748750D01*
X43394250Y-54748750D02*
X43394250Y-56748750D01*
X43394250Y-68748750D02*
X43394250Y-66748750D01*
X45919250Y-52223750D02*
X45919250Y-71273750D01*
X45919250Y-71273750D02*
X26869250Y-71273750D01*
%TO.C,MX38*%
X112594250Y-90323750D02*
X145931750Y-90323750D01*
X112594250Y-109373750D02*
X112594250Y-90323750D01*
X122263000Y-92848750D02*
X122263000Y-94848750D01*
X122263000Y-104848750D02*
X122263000Y-106848750D01*
X122263000Y-106848750D02*
X124263000Y-106848750D01*
X124263000Y-92848750D02*
X122263000Y-92848750D01*
X134263000Y-92848750D02*
X136263000Y-92848750D01*
X134263000Y-106848750D02*
X136263000Y-106848750D01*
X136263000Y-92848750D02*
X136263000Y-94848750D01*
X136263000Y-106848750D02*
X136263000Y-104848750D01*
X145931750Y-90323750D02*
X145931750Y-109373750D01*
X145931750Y-109373750D02*
X112594250Y-109373750D01*
%TO.C,MX53*%
X184031750Y-128423750D02*
X207844250Y-128423750D01*
X184031750Y-147473750D02*
X184031750Y-128423750D01*
X188938000Y-130948750D02*
X188938000Y-132948750D01*
X188938000Y-142948750D02*
X188938000Y-144948750D01*
X188938000Y-144948750D02*
X190938000Y-144948750D01*
X190938000Y-130948750D02*
X188938000Y-130948750D01*
X200938000Y-130948750D02*
X202938000Y-130948750D01*
X200938000Y-144948750D02*
X202938000Y-144948750D01*
X202938000Y-130948750D02*
X202938000Y-132948750D01*
X202938000Y-144948750D02*
X202938000Y-142948750D01*
X207844250Y-128423750D02*
X207844250Y-147473750D01*
X207844250Y-147473750D02*
X184031750Y-147473750D01*
%TO.C,MX27*%
X150694250Y-52223750D02*
X169744250Y-52223750D01*
X150694250Y-71273750D02*
X150694250Y-52223750D01*
X153219250Y-54748750D02*
X153219250Y-56748750D01*
X153219250Y-66748750D02*
X153219250Y-68748750D01*
X153219250Y-68748750D02*
X155219250Y-68748750D01*
X155219250Y-54748750D02*
X153219250Y-54748750D01*
X165219250Y-54748750D02*
X167219250Y-54748750D01*
X165219250Y-68748750D02*
X167219250Y-68748750D01*
X167219250Y-54748750D02*
X167219250Y-56748750D01*
X167219250Y-68748750D02*
X167219250Y-66748750D01*
X169744250Y-52223750D02*
X169744250Y-71273750D01*
X169744250Y-71273750D02*
X150694250Y-71273750D01*
%TO.C,MX10*%
X64969250Y-90323750D02*
X84019250Y-90323750D01*
X64969250Y-109373750D02*
X64969250Y-90323750D01*
X67494250Y-92848750D02*
X67494250Y-94848750D01*
X67494250Y-104848750D02*
X67494250Y-106848750D01*
X67494250Y-106848750D02*
X69494250Y-106848750D01*
X69494250Y-92848750D02*
X67494250Y-92848750D01*
X79494250Y-92848750D02*
X81494250Y-92848750D01*
X79494250Y-106848750D02*
X81494250Y-106848750D01*
X81494250Y-92848750D02*
X81494250Y-94848750D01*
X81494250Y-106848750D02*
X81494250Y-104848750D01*
X84019250Y-90323750D02*
X84019250Y-109373750D01*
X84019250Y-109373750D02*
X64969250Y-109373750D01*
%TO.C,MX17*%
X64969250Y-128423750D02*
X103069250Y-128423750D01*
X64969250Y-147473750D02*
X64969250Y-128423750D01*
X77019250Y-130948750D02*
X77019250Y-132948750D01*
X77019250Y-142948750D02*
X77019250Y-144948750D01*
X77019250Y-144948750D02*
X79019250Y-144948750D01*
X79019250Y-130948750D02*
X77019250Y-130948750D01*
X89019250Y-130948750D02*
X91019250Y-130948750D01*
X89019250Y-144948750D02*
X91019250Y-144948750D01*
X91019250Y-130948750D02*
X91019250Y-132948750D01*
X91019250Y-144948750D02*
X91019250Y-142948750D01*
X103069250Y-128423750D02*
X103069250Y-147473750D01*
X103069250Y-147473750D02*
X64969250Y-147473750D01*
%TO.C,MX50*%
X112594250Y-128423750D02*
X136406750Y-128423750D01*
X112594250Y-147473750D02*
X112594250Y-128423750D01*
X117500500Y-130948750D02*
X117500500Y-132948750D01*
X117500500Y-142948750D02*
X117500500Y-144948750D01*
X117500500Y-144948750D02*
X119500500Y-144948750D01*
X119500500Y-130948750D02*
X117500500Y-130948750D01*
X129500500Y-130948750D02*
X131500500Y-130948750D01*
X129500500Y-144948750D02*
X131500500Y-144948750D01*
X131500500Y-130948750D02*
X131500500Y-132948750D01*
X131500500Y-144948750D02*
X131500500Y-142948750D01*
X136406750Y-128423750D02*
X136406750Y-147473750D01*
X136406750Y-147473750D02*
X112594250Y-147473750D01*
%TO.C,MX31*%
X226894250Y-52223750D02*
X245944250Y-52223750D01*
X226894250Y-71273750D02*
X226894250Y-52223750D01*
X229419250Y-54748750D02*
X229419250Y-56748750D01*
X229419250Y-66748750D02*
X229419250Y-68748750D01*
X229419250Y-68748750D02*
X231419250Y-68748750D01*
X231419250Y-54748750D02*
X229419250Y-54748750D01*
X241419250Y-54748750D02*
X243419250Y-54748750D01*
X241419250Y-68748750D02*
X243419250Y-68748750D01*
X243419250Y-54748750D02*
X243419250Y-56748750D01*
X243419250Y-68748750D02*
X243419250Y-66748750D01*
X245944250Y-52223750D02*
X245944250Y-71273750D01*
X245944250Y-71273750D02*
X226894250Y-71273750D01*
%TO.C,MX18*%
X112594250Y-28410750D02*
X131644250Y-28410750D01*
X112594250Y-47460750D02*
X112594250Y-28410750D01*
X115119250Y-30935750D02*
X115119250Y-32935750D01*
X115119250Y-42935750D02*
X115119250Y-44935750D01*
X115119250Y-44935750D02*
X117119250Y-44935750D01*
X117119250Y-30935750D02*
X115119250Y-30935750D01*
X127119250Y-30935750D02*
X129119250Y-30935750D01*
X127119250Y-44935750D02*
X129119250Y-44935750D01*
X129119250Y-30935750D02*
X129119250Y-32935750D01*
X129119250Y-44935750D02*
X129119250Y-42935750D01*
X131644250Y-28410750D02*
X131644250Y-47460750D01*
X131644250Y-47460750D02*
X112594250Y-47460750D01*
%TO.C,MX42*%
X203081750Y-90323750D02*
X222131750Y-90323750D01*
X203081750Y-109373750D02*
X203081750Y-90323750D01*
X205606750Y-92848750D02*
X205606750Y-94848750D01*
X205606750Y-104848750D02*
X205606750Y-106848750D01*
X205606750Y-106848750D02*
X207606750Y-106848750D01*
X207606750Y-92848750D02*
X205606750Y-92848750D01*
X217606750Y-92848750D02*
X219606750Y-92848750D01*
X217606750Y-106848750D02*
X219606750Y-106848750D01*
X219606750Y-92848750D02*
X219606750Y-94848750D01*
X219606750Y-106848750D02*
X219606750Y-104848750D01*
X222131750Y-90323750D02*
X222131750Y-109373750D01*
X222131750Y-109373750D02*
X203081750Y-109373750D01*
%TO.C,MX22*%
X188794250Y-28410750D02*
X207844250Y-28410750D01*
X188794250Y-47460750D02*
X188794250Y-28410750D01*
X191319250Y-30935750D02*
X191319250Y-32935750D01*
X191319250Y-42935750D02*
X191319250Y-44935750D01*
X191319250Y-44935750D02*
X193319250Y-44935750D01*
X193319250Y-30935750D02*
X191319250Y-30935750D01*
X203319250Y-30935750D02*
X205319250Y-30935750D01*
X203319250Y-44935750D02*
X205319250Y-44935750D01*
X205319250Y-30935750D02*
X205319250Y-32935750D01*
X205319250Y-44935750D02*
X205319250Y-42935750D01*
X207844250Y-28410750D02*
X207844250Y-47460750D01*
X207844250Y-47460750D02*
X188794250Y-47460750D01*
%TO.C,MX16*%
X45919250Y-128423750D02*
X64969250Y-128423750D01*
X45919250Y-147473750D02*
X45919250Y-128423750D01*
X48444250Y-130948750D02*
X48444250Y-132948750D01*
X48444250Y-142948750D02*
X48444250Y-144948750D01*
X48444250Y-144948750D02*
X50444250Y-144948750D01*
X50444250Y-130948750D02*
X48444250Y-130948750D01*
X60444250Y-130948750D02*
X62444250Y-130948750D01*
X60444250Y-144948750D02*
X62444250Y-144948750D01*
X62444250Y-130948750D02*
X62444250Y-132948750D01*
X62444250Y-144948750D02*
X62444250Y-142948750D01*
X64969250Y-128423750D02*
X64969250Y-147473750D01*
X64969250Y-147473750D02*
X45919250Y-147473750D01*
%TO.C,MX8*%
X26869250Y-71273750D02*
X45919250Y-71273750D01*
X26869250Y-109373750D02*
X26869250Y-71273750D01*
X29394250Y-83323750D02*
X29394250Y-85323750D01*
X29394250Y-95323750D02*
X29394250Y-97323750D01*
X29394250Y-97323750D02*
X31394250Y-97323750D01*
X31394250Y-83323750D02*
X29394250Y-83323750D01*
X41394250Y-83323750D02*
X43394250Y-83323750D01*
X41394250Y-97323750D02*
X43394250Y-97323750D01*
X43394250Y-83323750D02*
X43394250Y-85323750D01*
X43394250Y-97323750D02*
X43394250Y-95323750D01*
X45919250Y-109373750D02*
X26869250Y-109373750D01*
X45919250Y-109373750D02*
X45919250Y-71273750D01*
%TO.C,MX33*%
X141169250Y-71273750D02*
X160219250Y-71273750D01*
X141169250Y-90323750D02*
X141169250Y-71273750D01*
X143694250Y-73798750D02*
X143694250Y-75798750D01*
X143694250Y-85798750D02*
X143694250Y-87798750D01*
X143694250Y-87798750D02*
X145694250Y-87798750D01*
X145694250Y-73798750D02*
X143694250Y-73798750D01*
X155694250Y-73798750D02*
X157694250Y-73798750D01*
X155694250Y-87798750D02*
X157694250Y-87798750D01*
X157694250Y-73798750D02*
X157694250Y-75798750D01*
X157694250Y-87798750D02*
X157694250Y-85798750D01*
X160219250Y-71273750D02*
X160219250Y-90323750D01*
X160219250Y-90323750D02*
X141169250Y-90323750D01*
%TO.C,MX40*%
X164981750Y-90323750D02*
X184031750Y-90323750D01*
X164981750Y-109373750D02*
X164981750Y-90323750D01*
X167506750Y-92848750D02*
X167506750Y-94848750D01*
X167506750Y-104848750D02*
X167506750Y-106848750D01*
X167506750Y-106848750D02*
X169506750Y-106848750D01*
X169506750Y-92848750D02*
X167506750Y-92848750D01*
X179506750Y-92848750D02*
X181506750Y-92848750D01*
X179506750Y-106848750D02*
X181506750Y-106848750D01*
X181506750Y-92848750D02*
X181506750Y-94848750D01*
X181506750Y-106848750D02*
X181506750Y-104848750D01*
X184031750Y-90323750D02*
X184031750Y-109373750D01*
X184031750Y-109373750D02*
X164981750Y-109373750D01*
%TO.C,MX34*%
X160219250Y-71273750D02*
X179269250Y-71273750D01*
X160219250Y-90323750D02*
X160219250Y-71273750D01*
X162744250Y-73798750D02*
X162744250Y-75798750D01*
X162744250Y-85798750D02*
X162744250Y-87798750D01*
X162744250Y-87798750D02*
X164744250Y-87798750D01*
X164744250Y-73798750D02*
X162744250Y-73798750D01*
X174744250Y-73798750D02*
X176744250Y-73798750D01*
X174744250Y-87798750D02*
X176744250Y-87798750D01*
X176744250Y-73798750D02*
X176744250Y-75798750D01*
X176744250Y-87798750D02*
X176744250Y-85798750D01*
X179269250Y-71273750D02*
X179269250Y-90323750D01*
X179269250Y-90323750D02*
X160219250Y-90323750D01*
%TO.C,MX11*%
X84019250Y-90323750D02*
X103069250Y-90323750D01*
X84019250Y-109373750D02*
X84019250Y-90323750D01*
X86544250Y-92848750D02*
X86544250Y-94848750D01*
X86544250Y-104848750D02*
X86544250Y-106848750D01*
X86544250Y-106848750D02*
X88544250Y-106848750D01*
X88544250Y-92848750D02*
X86544250Y-92848750D01*
X98544250Y-92848750D02*
X100544250Y-92848750D01*
X98544250Y-106848750D02*
X100544250Y-106848750D01*
X100544250Y-92848750D02*
X100544250Y-94848750D01*
X100544250Y-106848750D02*
X100544250Y-104848750D01*
X103069250Y-90323750D02*
X103069250Y-109373750D01*
X103069250Y-109373750D02*
X84019250Y-109373750D01*
%TO.C,MX3*%
X64969250Y-52223750D02*
X84019250Y-52223750D01*
X64969250Y-71273750D02*
X64969250Y-52223750D01*
X67494250Y-54748750D02*
X67494250Y-56748750D01*
X67494250Y-66748750D02*
X67494250Y-68748750D01*
X67494250Y-68748750D02*
X69494250Y-68748750D01*
X69494250Y-54748750D02*
X67494250Y-54748750D01*
X79494250Y-54748750D02*
X81494250Y-54748750D01*
X79494250Y-68748750D02*
X81494250Y-68748750D01*
X81494250Y-54748750D02*
X81494250Y-56748750D01*
X81494250Y-68748750D02*
X81494250Y-66748750D01*
X84019250Y-52223750D02*
X84019250Y-71273750D01*
X84019250Y-71273750D02*
X64969250Y-71273750D01*
%TO.C,MX37*%
X217369250Y-71273750D02*
X236419250Y-71273750D01*
X217369250Y-90323750D02*
X217369250Y-71273750D01*
X219894250Y-73798750D02*
X219894250Y-75798750D01*
X219894250Y-85798750D02*
X219894250Y-87798750D01*
X219894250Y-87798750D02*
X221894250Y-87798750D01*
X221894250Y-73798750D02*
X219894250Y-73798750D01*
X231894250Y-73798750D02*
X233894250Y-73798750D01*
X231894250Y-87798750D02*
X233894250Y-87798750D01*
X233894250Y-73798750D02*
X233894250Y-75798750D01*
X233894250Y-87798750D02*
X233894250Y-85798750D01*
X236419250Y-71273750D02*
X236419250Y-90323750D01*
X236419250Y-90323750D02*
X217369250Y-90323750D01*
%TO.C,MX29*%
X188794250Y-52223750D02*
X207844250Y-52223750D01*
X188794250Y-71273750D02*
X188794250Y-52223750D01*
X191319250Y-54748750D02*
X191319250Y-56748750D01*
X191319250Y-66748750D02*
X191319250Y-68748750D01*
X191319250Y-68748750D02*
X193319250Y-68748750D01*
X193319250Y-54748750D02*
X191319250Y-54748750D01*
X203319250Y-54748750D02*
X205319250Y-54748750D01*
X203319250Y-68748750D02*
X205319250Y-68748750D01*
X205319250Y-54748750D02*
X205319250Y-56748750D01*
X205319250Y-68748750D02*
X205319250Y-66748750D01*
X207844250Y-52223750D02*
X207844250Y-71273750D01*
X207844250Y-71273750D02*
X188794250Y-71273750D01*
%TO.C,MX24*%
X226894250Y-28410750D02*
X245944250Y-28410750D01*
X226894250Y-47460750D02*
X226894250Y-28410750D01*
X229419250Y-30935750D02*
X229419250Y-32935750D01*
X229419250Y-42935750D02*
X229419250Y-44935750D01*
X229419250Y-44935750D02*
X231419250Y-44935750D01*
X231419250Y-30935750D02*
X229419250Y-30935750D01*
X241419250Y-30935750D02*
X243419250Y-30935750D01*
X241419250Y-44935750D02*
X243419250Y-44935750D01*
X243419250Y-30935750D02*
X243419250Y-32935750D01*
X243419250Y-44935750D02*
X243419250Y-42935750D01*
X245944250Y-28410750D02*
X245944250Y-47460750D01*
X245944250Y-47460750D02*
X226894250Y-47460750D01*
%TO.C,MX14*%
X84019250Y-109373750D02*
X103069250Y-109373750D01*
X84019250Y-128423750D02*
X84019250Y-109373750D01*
X86544250Y-111898750D02*
X86544250Y-113898750D01*
X86544250Y-123898750D02*
X86544250Y-125898750D01*
X86544250Y-125898750D02*
X88544250Y-125898750D01*
X88544250Y-111898750D02*
X86544250Y-111898750D01*
X98544250Y-111898750D02*
X100544250Y-111898750D01*
X98544250Y-125898750D02*
X100544250Y-125898750D01*
X100544250Y-111898750D02*
X100544250Y-113898750D01*
X100544250Y-125898750D02*
X100544250Y-123898750D01*
X103069250Y-109373750D02*
X103069250Y-128423750D01*
X103069250Y-128423750D02*
X84019250Y-128423750D01*
%TO.C,MX44*%
X112594250Y-109373750D02*
X155456750Y-109373750D01*
X112594250Y-128423750D02*
X112594250Y-109373750D01*
X127025500Y-111898750D02*
X127025500Y-113898750D01*
X127025500Y-123898750D02*
X127025500Y-125898750D01*
X127025500Y-125898750D02*
X129025500Y-125898750D01*
X129025500Y-111898750D02*
X127025500Y-111898750D01*
X139025500Y-111898750D02*
X141025500Y-111898750D01*
X139025500Y-125898750D02*
X141025500Y-125898750D01*
X141025500Y-111898750D02*
X141025500Y-113898750D01*
X141025500Y-125898750D02*
X141025500Y-123898750D01*
X155456750Y-109373750D02*
X155456750Y-128423750D01*
X155456750Y-128423750D02*
X112594250Y-128423750D01*
%TO.C,MX54*%
X207844250Y-128423750D02*
X250706750Y-128423750D01*
X207844250Y-147473750D02*
X207844250Y-128423750D01*
X222275500Y-130948750D02*
X222275500Y-132948750D01*
X222275500Y-142948750D02*
X222275500Y-144948750D01*
X222275500Y-144948750D02*
X224275500Y-144948750D01*
X224275500Y-130948750D02*
X222275500Y-130948750D01*
X234275500Y-130948750D02*
X236275500Y-130948750D01*
X234275500Y-144948750D02*
X236275500Y-144948750D01*
X236275500Y-130948750D02*
X236275500Y-132948750D01*
X236275500Y-144948750D02*
X236275500Y-142948750D01*
X250706750Y-128423750D02*
X250706750Y-147473750D01*
X250706750Y-147473750D02*
X207844250Y-147473750D01*
%TO.C,MX5*%
X45919250Y-71273750D02*
X64969250Y-71273750D01*
X45919250Y-90323750D02*
X45919250Y-71273750D01*
X48444250Y-73798750D02*
X48444250Y-75798750D01*
X48444250Y-85798750D02*
X48444250Y-87798750D01*
X48444250Y-87798750D02*
X50444250Y-87798750D01*
X50444250Y-73798750D02*
X48444250Y-73798750D01*
X60444250Y-73798750D02*
X62444250Y-73798750D01*
X60444250Y-87798750D02*
X62444250Y-87798750D01*
X62444250Y-73798750D02*
X62444250Y-75798750D01*
X62444250Y-87798750D02*
X62444250Y-85798750D01*
X64969250Y-71273750D02*
X64969250Y-90323750D01*
X64969250Y-90323750D02*
X45919250Y-90323750D01*
%TO.C,MX7*%
X84019250Y-71273750D02*
X103069250Y-71273750D01*
X84019250Y-90323750D02*
X84019250Y-71273750D01*
X86544250Y-73798750D02*
X86544250Y-75798750D01*
X86544250Y-85798750D02*
X86544250Y-87798750D01*
X86544250Y-87798750D02*
X88544250Y-87798750D01*
X88544250Y-73798750D02*
X86544250Y-73798750D01*
X98544250Y-73798750D02*
X100544250Y-73798750D01*
X98544250Y-87798750D02*
X100544250Y-87798750D01*
X100544250Y-73798750D02*
X100544250Y-75798750D01*
X100544250Y-87798750D02*
X100544250Y-85798750D01*
X103069250Y-71273750D02*
X103069250Y-90323750D01*
X103069250Y-90323750D02*
X84019250Y-90323750D01*
%TO.C,MX49*%
X231656750Y-109373750D02*
X250706750Y-109373750D01*
X231656750Y-128423750D02*
X231656750Y-109373750D01*
X234181750Y-111898750D02*
X234181750Y-113898750D01*
X234181750Y-123898750D02*
X234181750Y-125898750D01*
X234181750Y-125898750D02*
X236181750Y-125898750D01*
X236181750Y-111898750D02*
X234181750Y-111898750D01*
X246181750Y-111898750D02*
X248181750Y-111898750D01*
X246181750Y-125898750D02*
X248181750Y-125898750D01*
X248181750Y-111898750D02*
X248181750Y-113898750D01*
X248181750Y-125898750D02*
X248181750Y-123898750D01*
X250706750Y-109373750D02*
X250706750Y-128423750D01*
X250706750Y-128423750D02*
X231656750Y-128423750D01*
%TO.C,MX41*%
X184031750Y-90323750D02*
X203081750Y-90323750D01*
X184031750Y-109373750D02*
X184031750Y-90323750D01*
X186556750Y-92848750D02*
X186556750Y-94848750D01*
X186556750Y-104848750D02*
X186556750Y-106848750D01*
X186556750Y-106848750D02*
X188556750Y-106848750D01*
X188556750Y-92848750D02*
X186556750Y-92848750D01*
X198556750Y-92848750D02*
X200556750Y-92848750D01*
X198556750Y-106848750D02*
X200556750Y-106848750D01*
X200556750Y-92848750D02*
X200556750Y-94848750D01*
X200556750Y-106848750D02*
X200556750Y-104848750D01*
X203081750Y-90323750D02*
X203081750Y-109373750D01*
X203081750Y-109373750D02*
X184031750Y-109373750D01*
%TO.C,MX51*%
X136406750Y-128423750D02*
X160219250Y-128423750D01*
X136406750Y-147473750D02*
X136406750Y-128423750D01*
X141313000Y-130948750D02*
X141313000Y-132948750D01*
X141313000Y-142948750D02*
X141313000Y-144948750D01*
X141313000Y-144948750D02*
X143313000Y-144948750D01*
X143313000Y-130948750D02*
X141313000Y-130948750D01*
X153313000Y-130948750D02*
X155313000Y-130948750D01*
X153313000Y-144948750D02*
X155313000Y-144948750D01*
X155313000Y-130948750D02*
X155313000Y-132948750D01*
X155313000Y-144948750D02*
X155313000Y-142948750D01*
X160219250Y-128423750D02*
X160219250Y-147473750D01*
X160219250Y-147473750D02*
X136406750Y-147473750D01*
%TO.C,MX9*%
X45919250Y-90323750D02*
X64969250Y-90323750D01*
X45919250Y-109373750D02*
X45919250Y-90323750D01*
X48444250Y-92848750D02*
X48444250Y-94848750D01*
X48444250Y-104848750D02*
X48444250Y-106848750D01*
X48444250Y-106848750D02*
X50444250Y-106848750D01*
X50444250Y-92848750D02*
X48444250Y-92848750D01*
X60444250Y-92848750D02*
X62444250Y-92848750D01*
X60444250Y-106848750D02*
X62444250Y-106848750D01*
X62444250Y-92848750D02*
X62444250Y-94848750D01*
X62444250Y-106848750D02*
X62444250Y-104848750D01*
X64969250Y-90323750D02*
X64969250Y-109373750D01*
X64969250Y-109373750D02*
X45919250Y-109373750D01*
%TO.C,MX47*%
X193556750Y-109373750D02*
X212606750Y-109373750D01*
X193556750Y-128423750D02*
X193556750Y-109373750D01*
X196081750Y-111898750D02*
X196081750Y-113898750D01*
X196081750Y-123898750D02*
X196081750Y-125898750D01*
X196081750Y-125898750D02*
X198081750Y-125898750D01*
X198081750Y-111898750D02*
X196081750Y-111898750D01*
X208081750Y-111898750D02*
X210081750Y-111898750D01*
X208081750Y-125898750D02*
X210081750Y-125898750D01*
X210081750Y-111898750D02*
X210081750Y-113898750D01*
X210081750Y-125898750D02*
X210081750Y-123898750D01*
X212606750Y-109373750D02*
X212606750Y-128423750D01*
X212606750Y-128423750D02*
X193556750Y-128423750D01*
%TO.C,MX21*%
X169744250Y-28410750D02*
X188794250Y-28410750D01*
X169744250Y-47460750D02*
X169744250Y-28410750D01*
X172269250Y-30935750D02*
X172269250Y-32935750D01*
X172269250Y-42935750D02*
X172269250Y-44935750D01*
X172269250Y-44935750D02*
X174269250Y-44935750D01*
X174269250Y-30935750D02*
X172269250Y-30935750D01*
X184269250Y-30935750D02*
X186269250Y-30935750D01*
X184269250Y-44935750D02*
X186269250Y-44935750D01*
X186269250Y-30935750D02*
X186269250Y-32935750D01*
X186269250Y-44935750D02*
X186269250Y-42935750D01*
X188794250Y-28410750D02*
X188794250Y-47460750D01*
X188794250Y-47460750D02*
X169744250Y-47460750D01*
%TO.C,MX46*%
X174506750Y-109373750D02*
X193556750Y-109373750D01*
X174506750Y-128423750D02*
X174506750Y-109373750D01*
X177031750Y-111898750D02*
X177031750Y-113898750D01*
X177031750Y-123898750D02*
X177031750Y-125898750D01*
X177031750Y-125898750D02*
X179031750Y-125898750D01*
X179031750Y-111898750D02*
X177031750Y-111898750D01*
X189031750Y-111898750D02*
X191031750Y-111898750D01*
X189031750Y-125898750D02*
X191031750Y-125898750D01*
X191031750Y-111898750D02*
X191031750Y-113898750D01*
X191031750Y-125898750D02*
X191031750Y-123898750D01*
X193556750Y-109373750D02*
X193556750Y-128423750D01*
X193556750Y-128423750D02*
X174506750Y-128423750D01*
%TO.C,MX13*%
X64969250Y-109373750D02*
X84019250Y-109373750D01*
X64969250Y-128423750D02*
X64969250Y-109373750D01*
X67494250Y-111898750D02*
X67494250Y-113898750D01*
X67494250Y-123898750D02*
X67494250Y-125898750D01*
X67494250Y-125898750D02*
X69494250Y-125898750D01*
X69494250Y-111898750D02*
X67494250Y-111898750D01*
X79494250Y-111898750D02*
X81494250Y-111898750D01*
X79494250Y-125898750D02*
X81494250Y-125898750D01*
X81494250Y-111898750D02*
X81494250Y-113898750D01*
X81494250Y-125898750D02*
X81494250Y-123898750D01*
X84019250Y-109373750D02*
X84019250Y-128423750D01*
X84019250Y-128423750D02*
X64969250Y-128423750D01*
%TO.C,MX45*%
X155456750Y-109373750D02*
X174506750Y-109373750D01*
X155456750Y-128423750D02*
X155456750Y-109373750D01*
X157981750Y-111898750D02*
X157981750Y-113898750D01*
X157981750Y-123898750D02*
X157981750Y-125898750D01*
X157981750Y-125898750D02*
X159981750Y-125898750D01*
X159981750Y-111898750D02*
X157981750Y-111898750D01*
X169981750Y-111898750D02*
X171981750Y-111898750D01*
X169981750Y-125898750D02*
X171981750Y-125898750D01*
X171981750Y-111898750D02*
X171981750Y-113898750D01*
X171981750Y-125898750D02*
X171981750Y-123898750D01*
X174506750Y-109373750D02*
X174506750Y-128423750D01*
X174506750Y-128423750D02*
X155456750Y-128423750D01*
%TO.C,MX32*%
X112594250Y-71273750D02*
X141169250Y-71273750D01*
X112594250Y-90323750D02*
X112594250Y-71273750D01*
X119881750Y-73798750D02*
X119881750Y-75798750D01*
X119881750Y-85798750D02*
X119881750Y-87798750D01*
X119881750Y-87798750D02*
X121881750Y-87798750D01*
X121881750Y-73798750D02*
X119881750Y-73798750D01*
X131881750Y-73798750D02*
X133881750Y-73798750D01*
X131881750Y-87798750D02*
X133881750Y-87798750D01*
X133881750Y-73798750D02*
X133881750Y-75798750D01*
X133881750Y-87798750D02*
X133881750Y-85798750D01*
X141169250Y-71273750D02*
X141169250Y-90323750D01*
X141169250Y-90323750D02*
X112594250Y-90323750D01*
%TO.C,MX35*%
X179269250Y-71273750D02*
X198319250Y-71273750D01*
X179269250Y-90323750D02*
X179269250Y-71273750D01*
X181794250Y-73798750D02*
X181794250Y-75798750D01*
X181794250Y-85798750D02*
X181794250Y-87798750D01*
X181794250Y-87798750D02*
X183794250Y-87798750D01*
X183794250Y-73798750D02*
X181794250Y-73798750D01*
X193794250Y-73798750D02*
X195794250Y-73798750D01*
X193794250Y-87798750D02*
X195794250Y-87798750D01*
X195794250Y-73798750D02*
X195794250Y-75798750D01*
X195794250Y-87798750D02*
X195794250Y-85798750D01*
X198319250Y-71273750D02*
X198319250Y-90323750D01*
X198319250Y-90323750D02*
X179269250Y-90323750D01*
%TO.C,MX43*%
X222131750Y-90323750D02*
X241181750Y-90323750D01*
X222131750Y-109373750D02*
X222131750Y-90323750D01*
X224656750Y-92848750D02*
X224656750Y-94848750D01*
X224656750Y-104848750D02*
X224656750Y-106848750D01*
X224656750Y-106848750D02*
X226656750Y-106848750D01*
X226656750Y-92848750D02*
X224656750Y-92848750D01*
X236656750Y-92848750D02*
X238656750Y-92848750D01*
X236656750Y-106848750D02*
X238656750Y-106848750D01*
X238656750Y-92848750D02*
X238656750Y-94848750D01*
X238656750Y-106848750D02*
X238656750Y-104848750D01*
X241181750Y-90323750D02*
X241181750Y-109373750D01*
X241181750Y-109373750D02*
X222131750Y-109373750D01*
%TO.C,MX36*%
X198319250Y-71273750D02*
X217369250Y-71273750D01*
X198319250Y-90323750D02*
X198319250Y-71273750D01*
X200844250Y-73798750D02*
X200844250Y-75798750D01*
X200844250Y-85798750D02*
X200844250Y-87798750D01*
X200844250Y-87798750D02*
X202844250Y-87798750D01*
X202844250Y-73798750D02*
X200844250Y-73798750D01*
X212844250Y-73798750D02*
X214844250Y-73798750D01*
X212844250Y-87798750D02*
X214844250Y-87798750D01*
X214844250Y-73798750D02*
X214844250Y-75798750D01*
X214844250Y-87798750D02*
X214844250Y-85798750D01*
X217369250Y-71273750D02*
X217369250Y-90323750D01*
X217369250Y-90323750D02*
X198319250Y-90323750D01*
%TO.C,MX23*%
X207844250Y-28410750D02*
X226894250Y-28410750D01*
X207844250Y-47460750D02*
X207844250Y-28410750D01*
X210369250Y-30935750D02*
X210369250Y-32935750D01*
X210369250Y-42935750D02*
X210369250Y-44935750D01*
X210369250Y-44935750D02*
X212369250Y-44935750D01*
X212369250Y-30935750D02*
X210369250Y-30935750D01*
X222369250Y-30935750D02*
X224369250Y-30935750D01*
X222369250Y-44935750D02*
X224369250Y-44935750D01*
X224369250Y-30935750D02*
X224369250Y-32935750D01*
X224369250Y-44935750D02*
X224369250Y-42935750D01*
X226894250Y-28410750D02*
X226894250Y-47460750D01*
X226894250Y-47460750D02*
X207844250Y-47460750D01*
%TO.C,MX25*%
X112594250Y-52223750D02*
X131644250Y-52223750D01*
X112594250Y-71273750D02*
X112594250Y-52223750D01*
X115119250Y-54748750D02*
X115119250Y-56748750D01*
X115119250Y-66748750D02*
X115119250Y-68748750D01*
X115119250Y-68748750D02*
X117119250Y-68748750D01*
X117119250Y-54748750D02*
X115119250Y-54748750D01*
X127119250Y-54748750D02*
X129119250Y-54748750D01*
X127119250Y-68748750D02*
X129119250Y-68748750D01*
X129119250Y-54748750D02*
X129119250Y-56748750D01*
X129119250Y-68748750D02*
X129119250Y-66748750D01*
X131644250Y-52223750D02*
X131644250Y-71273750D01*
X131644250Y-71273750D02*
X112594250Y-71273750D01*
%TO.C,MX15*%
X26869250Y-109373750D02*
X45919250Y-109373750D01*
X26869250Y-147473750D02*
X26869250Y-109373750D01*
X29394250Y-121423750D02*
X29394250Y-123423750D01*
X29394250Y-133423750D02*
X29394250Y-135423750D01*
X29394250Y-135423750D02*
X31394250Y-135423750D01*
X31394250Y-121423750D02*
X29394250Y-121423750D01*
X41394250Y-121423750D02*
X43394250Y-121423750D01*
X41394250Y-135423750D02*
X43394250Y-135423750D01*
X43394250Y-121423750D02*
X43394250Y-123423750D01*
X43394250Y-135423750D02*
X43394250Y-133423750D01*
X45919250Y-147473750D02*
X26869250Y-147473750D01*
X45919250Y-147473750D02*
X45919250Y-109373750D01*
%TO.C,MX12*%
X45919250Y-109373750D02*
X64969250Y-109373750D01*
X45919250Y-128423750D02*
X45919250Y-109373750D01*
X48444250Y-111898750D02*
X48444250Y-113898750D01*
X48444250Y-123898750D02*
X48444250Y-125898750D01*
X48444250Y-125898750D02*
X50444250Y-125898750D01*
X50444250Y-111898750D02*
X48444250Y-111898750D01*
X60444250Y-111898750D02*
X62444250Y-111898750D01*
X60444250Y-125898750D02*
X62444250Y-125898750D01*
X62444250Y-111898750D02*
X62444250Y-113898750D01*
X62444250Y-125898750D02*
X62444250Y-123898750D01*
X64969250Y-109373750D02*
X64969250Y-128423750D01*
X64969250Y-128423750D02*
X45919250Y-128423750D01*
%TO.C,MX30*%
X207844250Y-52223750D02*
X226894250Y-52223750D01*
X207844250Y-71273750D02*
X207844250Y-52223750D01*
X210369250Y-54748750D02*
X210369250Y-56748750D01*
X210369250Y-66748750D02*
X210369250Y-68748750D01*
X210369250Y-68748750D02*
X212369250Y-68748750D01*
X212369250Y-54748750D02*
X210369250Y-54748750D01*
X222369250Y-54748750D02*
X224369250Y-54748750D01*
X222369250Y-68748750D02*
X224369250Y-68748750D01*
X224369250Y-54748750D02*
X224369250Y-56748750D01*
X224369250Y-68748750D02*
X224369250Y-66748750D01*
X226894250Y-52223750D02*
X226894250Y-71273750D01*
X226894250Y-71273750D02*
X207844250Y-71273750D01*
%TO.C,MX19*%
X131644250Y-28410750D02*
X150694250Y-28410750D01*
X131644250Y-47460750D02*
X131644250Y-28410750D01*
X134169250Y-30935750D02*
X134169250Y-32935750D01*
X134169250Y-42935750D02*
X134169250Y-44935750D01*
X134169250Y-44935750D02*
X136169250Y-44935750D01*
X136169250Y-30935750D02*
X134169250Y-30935750D01*
X146169250Y-30935750D02*
X148169250Y-30935750D01*
X146169250Y-44935750D02*
X148169250Y-44935750D01*
X148169250Y-30935750D02*
X148169250Y-32935750D01*
X148169250Y-44935750D02*
X148169250Y-42935750D01*
X150694250Y-28410750D02*
X150694250Y-47460750D01*
X150694250Y-47460750D02*
X131644250Y-47460750D01*
%TO.C,MX28*%
X169744250Y-52223750D02*
X188794250Y-52223750D01*
X169744250Y-71273750D02*
X169744250Y-52223750D01*
X172269250Y-54748750D02*
X172269250Y-56748750D01*
X172269250Y-66748750D02*
X172269250Y-68748750D01*
X172269250Y-68748750D02*
X174269250Y-68748750D01*
X174269250Y-54748750D02*
X172269250Y-54748750D01*
X184269250Y-54748750D02*
X186269250Y-54748750D01*
X184269250Y-68748750D02*
X186269250Y-68748750D01*
X186269250Y-54748750D02*
X186269250Y-56748750D01*
X186269250Y-68748750D02*
X186269250Y-66748750D01*
X188794250Y-52223750D02*
X188794250Y-71273750D01*
X188794250Y-71273750D02*
X169744250Y-71273750D01*
%TO.C,MX48*%
X212606750Y-109373750D02*
X231656750Y-109373750D01*
X212606750Y-128423750D02*
X212606750Y-109373750D01*
X215131750Y-111898750D02*
X215131750Y-113898750D01*
X215131750Y-123898750D02*
X215131750Y-125898750D01*
X215131750Y-125898750D02*
X217131750Y-125898750D01*
X217131750Y-111898750D02*
X215131750Y-111898750D01*
X227131750Y-111898750D02*
X229131750Y-111898750D01*
X227131750Y-125898750D02*
X229131750Y-125898750D01*
X229131750Y-111898750D02*
X229131750Y-113898750D01*
X229131750Y-125898750D02*
X229131750Y-123898750D01*
X231656750Y-109373750D02*
X231656750Y-128423750D01*
X231656750Y-128423750D02*
X212606750Y-128423750D01*
%TO.C,MX4*%
X84019250Y-52223750D02*
X103069250Y-52223750D01*
X84019250Y-71273750D02*
X84019250Y-52223750D01*
X86544250Y-54748750D02*
X86544250Y-56748750D01*
X86544250Y-66748750D02*
X86544250Y-68748750D01*
X86544250Y-68748750D02*
X88544250Y-68748750D01*
X88544250Y-54748750D02*
X86544250Y-54748750D01*
X98544250Y-54748750D02*
X100544250Y-54748750D01*
X98544250Y-68748750D02*
X100544250Y-68748750D01*
X100544250Y-54748750D02*
X100544250Y-56748750D01*
X100544250Y-68748750D02*
X100544250Y-66748750D01*
X103069250Y-52223750D02*
X103069250Y-71273750D01*
X103069250Y-71273750D02*
X84019250Y-71273750D01*
%TO.C,MX39*%
X145931750Y-90323750D02*
X164981750Y-90323750D01*
X145931750Y-109373750D02*
X145931750Y-90323750D01*
X148456750Y-92848750D02*
X148456750Y-94848750D01*
X148456750Y-104848750D02*
X148456750Y-106848750D01*
X148456750Y-106848750D02*
X150456750Y-106848750D01*
X150456750Y-92848750D02*
X148456750Y-92848750D01*
X160456750Y-92848750D02*
X162456750Y-92848750D01*
X160456750Y-106848750D02*
X162456750Y-106848750D01*
X162456750Y-92848750D02*
X162456750Y-94848750D01*
X162456750Y-106848750D02*
X162456750Y-104848750D01*
X164981750Y-90323750D02*
X164981750Y-109373750D01*
X164981750Y-109373750D02*
X145931750Y-109373750D01*
%TD*%
M02*
