M48
; DRILL file {KiCad 7.0.5} date Thu Jun 22 07:55:35 2023
; FORMAT={-:-/ absolute / metric / decimal}
; #@! TF.CreationDate,2023-06-22T07:55:35+00:00
; #@! TF.GenerationSoftware,Kicad,Pcbnew,7.0.5
; #@! TF.FileFunction,Plated,1,2,PTH
FMAT,2
METRIC
; #@! TA.AperFunction,Plated,PTH,ViaDrill
T1C0.300
; #@! TA.AperFunction,Plated,PTH,ComponentDrill
T2C0.800
; #@! TA.AperFunction,Plated,PTH,ComponentDrill
T3C0.900
; #@! TA.AperFunction,Plated,PTH,ComponentDrill
T4C1.100
; #@! TA.AperFunction,Plated,PTH,ComponentDrill
T5C1.300
%
G90
G05
T1
X64.5Y-46.5
X109.809Y-67.109
X110.109Y-86.049
X110.909Y-104.659
X111.479Y-123.489
X111.879Y-142.739
X115.034Y-47.5
X134.084Y-47.5
X153.134Y-47.5
X172.184Y-47.5
X191.234Y-47.5
X210.284Y-47.5
X229.334Y-47.5
T2
X39.059Y-138.699
X39.059Y-146.319
X44.364Y-62.365
X44.364Y-69.986
X44.364Y-88.149
X44.364Y-95.769
X63.408Y-62.365
X63.408Y-69.986
X63.408Y-81.567
X63.408Y-89.187
X63.408Y-100.453
X63.408Y-108.073
X63.408Y-119.497
X63.408Y-127.117
X63.408Y-138.699
X63.408Y-146.319
X82.453Y-62.365
X82.453Y-69.986
X82.453Y-81.567
X82.453Y-89.187
X82.453Y-100.453
X82.453Y-108.073
X82.453Y-119.497
X82.453Y-127.117
X101.496Y-62.365
X101.496Y-69.986
X101.496Y-81.567
X101.496Y-89.187
X101.496Y-100.453
X101.496Y-108.073
X101.496Y-119.497
X101.496Y-127.117
X101.496Y-133.699
X101.496Y-141.319
X130.063Y-38.082
X130.063Y-45.702
X130.063Y-62.365
X130.063Y-69.986
X133.237Y-138.699
X133.237Y-146.319
X135.617Y-81.567
X135.617Y-89.187
X137.998Y-100.453
X137.998Y-108.073
X149.106Y-38.082
X149.106Y-45.702
X149.106Y-62.365
X149.106Y-69.986
X153.868Y-119.497
X153.868Y-127.117
X157.041Y-138.699
X157.041Y-146.319
X158.629Y-81.567
X158.629Y-89.187
X163.389Y-100.453
X163.389Y-108.073
X168.15Y-38.082
X168.15Y-45.702
X168.15Y-62.365
X168.15Y-69.986
X172.911Y-119.497
X172.911Y-127.117
X177.672Y-81.567
X177.672Y-89.187
X180.846Y-138.699
X180.846Y-146.319
X182.433Y-100.453
X182.433Y-108.073
X187.195Y-38.082
X187.195Y-45.702
X187.195Y-62.365
X187.195Y-69.986
X191.956Y-119.497
X191.956Y-127.117
X196.716Y-81.567
X196.716Y-89.187
X201.477Y-100.453
X201.477Y-108.073
X204.651Y-138.699
X204.651Y-146.319
X206.238Y-38.082
X206.238Y-45.702
X206.238Y-62.365
X206.238Y-69.986
X210.999Y-119.497
X210.999Y-127.117
X215.76Y-81.567
X215.76Y-89.187
X220.522Y-100.453
X220.522Y-108.073
X225.282Y-38.082
X225.282Y-45.702
X225.282Y-62.365
X225.282Y-69.986
X230.043Y-119.497
X230.043Y-127.117
X234.67Y-43.67
X234.804Y-81.567
X234.804Y-89.187
X239.565Y-100.453
X239.565Y-108.073
X242.29Y-43.67
X244.326Y-62.365
X244.326Y-69.986
X249.087Y-119.497
X249.087Y-127.117
X249.087Y-134.63
X249.087Y-142.25
T4
X29.78Y-33.08
X29.78Y-48.32
X32.32Y-33.08
X32.32Y-48.32
X34.86Y-33.08
X34.86Y-48.32
X37.4Y-33.08
X37.4Y-48.32
X39.94Y-33.08
X39.94Y-48.32
X42.48Y-33.08
X42.48Y-48.32
X45.02Y-33.08
X45.02Y-48.32
X47.56Y-33.08
X47.56Y-48.32
X50.1Y-33.08
X50.1Y-48.32
X52.64Y-33.08
X52.64Y-48.32
X55.18Y-33.08
X55.18Y-48.32
X57.72Y-33.08
X57.72Y-48.32
T5
X80.769Y-42.829
X80.769Y-47.329
X87.269Y-42.829
X87.269Y-47.329
T3
G00X242.107Y-48.211
M15
G01X241.707Y-48.211
M16
G05
G00X243.207Y-52.811
M15
G01X242.807Y-52.811
M16
G05
G00X247.207Y-52.811
M15
G01X246.807Y-52.811
M16
G05
G00X250.207Y-52.811
M15
G01X249.807Y-52.811
M16
G05
T0
M30
