%TF.GenerationSoftware,KiCad,Pcbnew,7.0.5*%
%TF.CreationDate,2023-06-22T07:55:22+00:00*%
%TF.ProjectId,Entry-left,456e7472-792d-46c6-9566-742e6b696361,rev?*%
%TF.SameCoordinates,Original*%
%TF.FileFunction,Copper,L2,Bot*%
%TF.FilePolarity,Positive*%
%FSLAX46Y46*%
G04 Gerber Fmt 4.6, Leading zero omitted, Abs format (unit mm)*
G04 Created by KiCad (PCBNEW 7.0.5) date 2023-06-22 07:55:22*
%MOMM*%
%LPD*%
G01*
G04 APERTURE LIST*
%TA.AperFunction,SMDPad,CuDef*%
%ADD10R,2.550000X2.500000*%
%TD*%
%TA.AperFunction,ComponentPad*%
%ADD11C,2.000000*%
%TD*%
%TA.AperFunction,ComponentPad*%
%ADD12O,2.000000X1.600000*%
%TD*%
%TA.AperFunction,ComponentPad*%
%ADD13R,1.600000X1.600000*%
%TD*%
%TA.AperFunction,ComponentPad*%
%ADD14C,1.600000*%
%TD*%
%TA.AperFunction,ComponentPad*%
%ADD15O,1.600000X1.600000*%
%TD*%
%TA.AperFunction,ViaPad*%
%ADD16C,0.600000*%
%TD*%
%TA.AperFunction,Conductor*%
%ADD17C,0.200000*%
%TD*%
G04 APERTURE END LIST*
D10*
%TO.P,MX6,1,COL*%
%TO.N,col3*%
X67409250Y-78258750D03*
%TO.P,MX6,2,ROW*%
%TO.N,Net-(D6-A)*%
X80336250Y-75718750D03*
%TD*%
%TO.P,MX2,1,COL*%
%TO.N,col2*%
X48359250Y-59208750D03*
%TO.P,MX2,2,ROW*%
%TO.N,Net-(D2-A)*%
X61286250Y-56668750D03*
%TD*%
%TO.P,MX20,1,COL*%
%TO.N,col7*%
X153134250Y-35395750D03*
%TO.P,MX20,2,ROW*%
%TO.N,Net-(D20-A)*%
X166061250Y-32855750D03*
%TD*%
%TO.P,MX52,1,COL*%
%TO.N,col8*%
X165040500Y-135408750D03*
%TO.P,MX52,2,ROW*%
%TO.N,Net-(D52-A)*%
X177967500Y-132868750D03*
%TD*%
%TO.P,MX26,1,COL*%
%TO.N,col6*%
X134084250Y-59208750D03*
%TO.P,MX26,2,ROW*%
%TO.N,Net-(D26-A)*%
X147011250Y-56668750D03*
%TD*%
D11*
%TO.P,RESET1,1,1*%
%TO.N,RESET*%
X80769250Y-42829500D03*
X87269250Y-42829500D03*
%TO.P,RESET1,2,2*%
%TO.N,GND*%
X80769250Y-47329500D03*
X87269250Y-47329500D03*
%TD*%
D10*
%TO.P,MX1,1,COL*%
%TO.N,col1*%
X29309250Y-59208750D03*
%TO.P,MX1,2,ROW*%
%TO.N,Net-(D1-A)*%
X42236250Y-56668750D03*
%TD*%
%TO.P,MX38,1,COL*%
%TO.N,col5*%
X122178000Y-97308750D03*
%TO.P,MX38,2,ROW*%
%TO.N,Net-(D38-A)*%
X135105000Y-94768750D03*
%TD*%
%TO.P,MX53,1,COL*%
%TO.N,col9*%
X188853000Y-135408750D03*
%TO.P,MX53,2,ROW*%
%TO.N,Net-(D53-A)*%
X201780000Y-132868750D03*
%TD*%
%TO.P,MX27,1,COL*%
%TO.N,col7*%
X153134250Y-59208750D03*
%TO.P,MX27,2,ROW*%
%TO.N,Net-(D27-A)*%
X166061250Y-56668750D03*
%TD*%
%TO.P,MX10,1,COL*%
%TO.N,col3*%
X67409250Y-97308750D03*
%TO.P,MX10,2,ROW*%
%TO.N,Net-(D10-A)*%
X80336250Y-94768750D03*
%TD*%
%TO.P,MX17,1,COL*%
%TO.N,col3*%
X76934250Y-135408750D03*
%TO.P,MX17,2,ROW*%
%TO.N,Net-(D17-A)*%
X89861250Y-132868750D03*
%TD*%
%TO.P,MX50,1,COL*%
%TO.N,col5*%
X117415500Y-135408750D03*
%TO.P,MX50,2,ROW*%
%TO.N,Net-(D50-A)*%
X130342500Y-132868750D03*
%TD*%
D12*
%TO.P,U2,1,SLEEVE*%
%TO.N,GND*%
X241906750Y-48210750D03*
%TO.P,U2,2,TIP*%
%TO.N,VCC*%
X243006750Y-52810750D03*
%TO.P,U2,3,RING1*%
%TO.N,SCL*%
X247006750Y-52810750D03*
%TO.P,U2,4,RING2*%
%TO.N,unconnected-(U2-RING2-Pad4)*%
X250006750Y-52810750D03*
%TD*%
D10*
%TO.P,MX31,1,COL*%
%TO.N,col11*%
X229334250Y-59208750D03*
%TO.P,MX31,2,ROW*%
%TO.N,Net-(D31-A)*%
X242261250Y-56668750D03*
%TD*%
%TO.P,MX18,1,COL*%
%TO.N,col5*%
X115034250Y-35395750D03*
%TO.P,MX18,2,ROW*%
%TO.N,Net-(D18-A)*%
X127961250Y-32855750D03*
%TD*%
D13*
%TO.P,U1,1,TX*%
%TO.N,col1*%
X29780000Y-48320000D03*
D14*
%TO.P,U1,2,RX*%
%TO.N,col2*%
X32320000Y-48320000D03*
%TO.P,U1,3,GND*%
%TO.N,unconnected-(U1-GND-Pad3)*%
X34860000Y-48320000D03*
%TO.P,U1,4,GND*%
%TO.N,unconnected-(U1-GND-Pad4)*%
X37400000Y-48320000D03*
%TO.P,U1,5,SDA*%
%TO.N,col3*%
X39940000Y-48320000D03*
%TO.P,U1,6,SCL*%
%TO.N,SCL*%
X42480000Y-48320000D03*
%TO.P,U1,7,D4*%
%TO.N,col4*%
X45020000Y-48320000D03*
%TO.P,U1,8,C6*%
%TO.N,row2*%
X47560000Y-48320000D03*
%TO.P,U1,9,D7*%
%TO.N,row3*%
X50100000Y-48320000D03*
%TO.P,U1,10,E6*%
%TO.N,row4*%
X52640000Y-48320000D03*
%TO.P,U1,11,B4*%
%TO.N,row5*%
X55180000Y-48320000D03*
%TO.P,U1,12,B5*%
%TO.N,row6*%
X57720000Y-48320000D03*
%TO.P,U1,13,B6*%
%TO.N,row1*%
X57720000Y-33080000D03*
%TO.P,U1,14,B2*%
%TO.N,col5*%
X55180000Y-33080000D03*
%TO.P,U1,15,B3*%
%TO.N,col6*%
X52640000Y-33080000D03*
%TO.P,U1,16,B1*%
%TO.N,col7*%
X50100000Y-33080000D03*
%TO.P,U1,17,F7*%
%TO.N,col8*%
X47560000Y-33080000D03*
%TO.P,U1,18,F6*%
%TO.N,col9*%
X45020000Y-33080000D03*
%TO.P,U1,19,F5*%
%TO.N,col10*%
X42480000Y-33080000D03*
%TO.P,U1,20,F4*%
%TO.N,col11*%
X39940000Y-33080000D03*
%TO.P,U1,21,VCC*%
%TO.N,VCC*%
X37400000Y-33080000D03*
%TO.P,U1,22,RST*%
%TO.N,RESET*%
X34860000Y-33080000D03*
%TO.P,U1,23,GND*%
%TO.N,GND*%
X32320000Y-33080000D03*
%TO.P,U1,24,RAW*%
%TO.N,unconnected-(U1-RAW-Pad24)*%
X29780000Y-33080000D03*
%TD*%
D10*
%TO.P,MX42,1,COL*%
%TO.N,col9*%
X205521750Y-97308750D03*
%TO.P,MX42,2,ROW*%
%TO.N,Net-(D42-A)*%
X218448750Y-94768750D03*
%TD*%
%TO.P,MX22,1,COL*%
%TO.N,col9*%
X191234250Y-35395750D03*
%TO.P,MX22,2,ROW*%
%TO.N,Net-(D22-A)*%
X204161250Y-32855750D03*
%TD*%
%TO.P,MX16,1,COL*%
%TO.N,col2*%
X48359250Y-135408750D03*
%TO.P,MX16,2,ROW*%
%TO.N,Net-(D16-A)*%
X61286250Y-132868750D03*
%TD*%
%TO.P,MX8,1,COL*%
%TO.N,col1*%
X29309250Y-87783750D03*
%TO.P,MX8,2,ROW*%
%TO.N,Net-(D8-A)*%
X42236250Y-85243750D03*
%TD*%
%TO.P,MX33,1,COL*%
%TO.N,col6*%
X143609250Y-78258750D03*
%TO.P,MX33,2,ROW*%
%TO.N,Net-(D33-A)*%
X156536250Y-75718750D03*
%TD*%
%TO.P,MX40,1,COL*%
%TO.N,col7*%
X167421750Y-97308750D03*
%TO.P,MX40,2,ROW*%
%TO.N,Net-(D40-A)*%
X180348750Y-94768750D03*
%TD*%
%TO.P,MX34,1,COL*%
%TO.N,col7*%
X162659250Y-78258750D03*
%TO.P,MX34,2,ROW*%
%TO.N,Net-(D34-A)*%
X175586250Y-75718750D03*
%TD*%
%TO.P,MX11,1,COL*%
%TO.N,col4*%
X86459250Y-97308750D03*
%TO.P,MX11,2,ROW*%
%TO.N,Net-(D11-A)*%
X99386250Y-94768750D03*
%TD*%
%TO.P,MX3,1,COL*%
%TO.N,col3*%
X67409250Y-59208750D03*
%TO.P,MX3,2,ROW*%
%TO.N,Net-(D3-A)*%
X80336250Y-56668750D03*
%TD*%
%TO.P,MX37,1,COL*%
%TO.N,col10*%
X219809250Y-78258750D03*
%TO.P,MX37,2,ROW*%
%TO.N,Net-(D37-A)*%
X232736250Y-75718750D03*
%TD*%
%TO.P,MX29,1,COL*%
%TO.N,col9*%
X191234250Y-59208750D03*
%TO.P,MX29,2,ROW*%
%TO.N,Net-(D29-A)*%
X204161250Y-56668750D03*
%TD*%
%TO.P,MX24,1,COL*%
%TO.N,col11*%
X229334250Y-35395750D03*
%TO.P,MX24,2,ROW*%
%TO.N,Net-(D24-A)*%
X242261250Y-32855750D03*
%TD*%
%TO.P,MX14,1,COL*%
%TO.N,col4*%
X86459250Y-116358750D03*
%TO.P,MX14,2,ROW*%
%TO.N,Net-(D14-A)*%
X99386250Y-113818750D03*
%TD*%
%TO.P,MX44,1,COL*%
%TO.N,col5*%
X126940500Y-116358750D03*
%TO.P,MX44,2,ROW*%
%TO.N,Net-(D44-A)*%
X139867500Y-113818750D03*
%TD*%
%TO.P,MX54,1,COL*%
%TO.N,col10*%
X222190500Y-135408750D03*
%TO.P,MX54,2,ROW*%
%TO.N,Net-(D54-A)*%
X235117500Y-132868750D03*
%TD*%
%TO.P,MX5,1,COL*%
%TO.N,col2*%
X48359250Y-78258750D03*
%TO.P,MX5,2,ROW*%
%TO.N,Net-(D5-A)*%
X61286250Y-75718750D03*
%TD*%
%TO.P,MX7,1,COL*%
%TO.N,col4*%
X86459250Y-78258750D03*
%TO.P,MX7,2,ROW*%
%TO.N,Net-(D7-A)*%
X99386250Y-75718750D03*
%TD*%
%TO.P,MX49,1,COL*%
%TO.N,col11*%
X234096750Y-116358750D03*
%TO.P,MX49,2,ROW*%
%TO.N,Net-(D49-A)*%
X247023750Y-113818750D03*
%TD*%
%TO.P,MX41,1,COL*%
%TO.N,col8*%
X186471750Y-97308750D03*
%TO.P,MX41,2,ROW*%
%TO.N,Net-(D41-A)*%
X199398750Y-94768750D03*
%TD*%
%TO.P,MX51,1,COL*%
%TO.N,col6*%
X141228000Y-135408750D03*
%TO.P,MX51,2,ROW*%
%TO.N,Net-(D51-A)*%
X154155000Y-132868750D03*
%TD*%
%TO.P,MX9,1,COL*%
%TO.N,col2*%
X48359250Y-97308750D03*
%TO.P,MX9,2,ROW*%
%TO.N,Net-(D9-A)*%
X61286250Y-94768750D03*
%TD*%
%TO.P,MX47,1,COL*%
%TO.N,col9*%
X195996750Y-116358750D03*
%TO.P,MX47,2,ROW*%
%TO.N,Net-(D47-A)*%
X208923750Y-113818750D03*
%TD*%
%TO.P,MX21,1,COL*%
%TO.N,col8*%
X172184250Y-35395750D03*
%TO.P,MX21,2,ROW*%
%TO.N,Net-(D21-A)*%
X185111250Y-32855750D03*
%TD*%
%TO.P,MX46,1,COL*%
%TO.N,col8*%
X176946750Y-116358750D03*
%TO.P,MX46,2,ROW*%
%TO.N,Net-(D46-A)*%
X189873750Y-113818750D03*
%TD*%
%TO.P,MX13,1,COL*%
%TO.N,col3*%
X67409250Y-116358750D03*
%TO.P,MX13,2,ROW*%
%TO.N,Net-(D13-A)*%
X80336250Y-113818750D03*
%TD*%
%TO.P,MX45,1,COL*%
%TO.N,col6*%
X157896750Y-116358750D03*
%TO.P,MX45,2,ROW*%
%TO.N,Net-(D45-A)*%
X170823750Y-113818750D03*
%TD*%
%TO.P,MX32,1,COL*%
%TO.N,col5*%
X119796750Y-78258750D03*
%TO.P,MX32,2,ROW*%
%TO.N,Net-(D32-A)*%
X132723750Y-75718750D03*
%TD*%
%TO.P,MX35,1,COL*%
%TO.N,col8*%
X181709250Y-78258750D03*
%TO.P,MX35,2,ROW*%
%TO.N,Net-(D35-A)*%
X194636250Y-75718750D03*
%TD*%
%TO.P,MX43,1,COL*%
%TO.N,col10*%
X224571750Y-97308750D03*
%TO.P,MX43,2,ROW*%
%TO.N,Net-(D43-A)*%
X237498750Y-94768750D03*
%TD*%
%TO.P,MX36,1,COL*%
%TO.N,col9*%
X200759250Y-78258750D03*
%TO.P,MX36,2,ROW*%
%TO.N,Net-(D36-A)*%
X213686250Y-75718750D03*
%TD*%
%TO.P,MX23,1,COL*%
%TO.N,col10*%
X210284250Y-35395750D03*
%TO.P,MX23,2,ROW*%
%TO.N,Net-(D23-A)*%
X223211250Y-32855750D03*
%TD*%
%TO.P,MX25,1,COL*%
%TO.N,col5*%
X115034250Y-59208750D03*
%TO.P,MX25,2,ROW*%
%TO.N,Net-(D25-A)*%
X127961250Y-56668750D03*
%TD*%
%TO.P,MX15,1,COL*%
%TO.N,col1*%
X29309250Y-125883750D03*
%TO.P,MX15,2,ROW*%
%TO.N,Net-(D15-A)*%
X42236250Y-123343750D03*
%TD*%
%TO.P,MX12,1,COL*%
%TO.N,col2*%
X48359250Y-116358750D03*
%TO.P,MX12,2,ROW*%
%TO.N,Net-(D12-A)*%
X61286250Y-113818750D03*
%TD*%
%TO.P,MX30,1,COL*%
%TO.N,col10*%
X210284250Y-59208750D03*
%TO.P,MX30,2,ROW*%
%TO.N,Net-(D30-A)*%
X223211250Y-56668750D03*
%TD*%
%TO.P,MX19,1,COL*%
%TO.N,col6*%
X134084250Y-35395750D03*
%TO.P,MX19,2,ROW*%
%TO.N,Net-(D19-A)*%
X147011250Y-32855750D03*
%TD*%
%TO.P,MX28,1,COL*%
%TO.N,col8*%
X172184250Y-59208750D03*
%TO.P,MX28,2,ROW*%
%TO.N,Net-(D28-A)*%
X185111250Y-56668750D03*
%TD*%
%TO.P,MX48,1,COL*%
%TO.N,col10*%
X215046750Y-116358750D03*
%TO.P,MX48,2,ROW*%
%TO.N,Net-(D48-A)*%
X227973750Y-113818750D03*
%TD*%
%TO.P,MX4,1,COL*%
%TO.N,col4*%
X86459250Y-59208750D03*
%TO.P,MX4,2,ROW*%
%TO.N,Net-(D4-A)*%
X99386250Y-56668750D03*
%TD*%
%TO.P,MX39,1,COL*%
%TO.N,col6*%
X148371750Y-97308750D03*
%TO.P,MX39,2,ROW*%
%TO.N,Net-(D39-A)*%
X161298750Y-94768750D03*
%TD*%
D13*
%TO.P,D33,1,K*%
%TO.N,row3*%
X158628500Y-89187000D03*
D15*
%TO.P,D33,2,A*%
%TO.N,Net-(D33-A)*%
X158628500Y-81567000D03*
%TD*%
D13*
%TO.P,D38,1,K*%
%TO.N,row4*%
X137997500Y-108073500D03*
D15*
%TO.P,D38,2,A*%
%TO.N,Net-(D38-A)*%
X137997500Y-100453500D03*
%TD*%
D13*
%TO.P,D22,1,K*%
%TO.N,row1*%
X206238500Y-45702000D03*
D15*
%TO.P,D22,2,A*%
%TO.N,Net-(D22-A)*%
X206238500Y-38082000D03*
%TD*%
D13*
%TO.P,D30,1,K*%
%TO.N,row2*%
X225282500Y-69985500D03*
D15*
%TO.P,D30,2,A*%
%TO.N,Net-(D30-A)*%
X225282500Y-62365500D03*
%TD*%
D13*
%TO.P,D12,1,K*%
%TO.N,row5*%
X63408500Y-127117500D03*
D15*
%TO.P,D12,2,A*%
%TO.N,Net-(D12-A)*%
X63408500Y-119497500D03*
%TD*%
D13*
%TO.P,D48,1,K*%
%TO.N,row5*%
X230043500Y-127117500D03*
D15*
%TO.P,D48,2,A*%
%TO.N,Net-(D48-A)*%
X230043500Y-119497500D03*
%TD*%
D13*
%TO.P,D54,1,K*%
%TO.N,row6*%
X249087500Y-142250000D03*
D15*
%TO.P,D54,2,A*%
%TO.N,Net-(D54-A)*%
X249087500Y-134630000D03*
%TD*%
D13*
%TO.P,D52,1,K*%
%TO.N,row6*%
X180846500Y-146319000D03*
D15*
%TO.P,D52,2,A*%
%TO.N,Net-(D52-A)*%
X180846500Y-138699000D03*
%TD*%
D13*
%TO.P,D53,1,K*%
%TO.N,row6*%
X204651500Y-146319000D03*
D15*
%TO.P,D53,2,A*%
%TO.N,Net-(D53-A)*%
X204651500Y-138699000D03*
%TD*%
D13*
%TO.P,D23,1,K*%
%TO.N,row1*%
X225282500Y-45702000D03*
D15*
%TO.P,D23,2,A*%
%TO.N,Net-(D23-A)*%
X225282500Y-38082000D03*
%TD*%
D13*
%TO.P,D25,1,K*%
%TO.N,row2*%
X130062500Y-69985500D03*
D15*
%TO.P,D25,2,A*%
%TO.N,Net-(D25-A)*%
X130062500Y-62365500D03*
%TD*%
D13*
%TO.P,D50,1,K*%
%TO.N,row6*%
X133236500Y-146319000D03*
D15*
%TO.P,D50,2,A*%
%TO.N,Net-(D50-A)*%
X133236500Y-138699000D03*
%TD*%
D13*
%TO.P,D31,1,K*%
%TO.N,row2*%
X244326500Y-69985500D03*
D15*
%TO.P,D31,2,A*%
%TO.N,Net-(D31-A)*%
X244326500Y-62365500D03*
%TD*%
D13*
%TO.P,D26,1,K*%
%TO.N,row2*%
X149106500Y-69985500D03*
D15*
%TO.P,D26,2,A*%
%TO.N,Net-(D26-A)*%
X149106500Y-62365500D03*
%TD*%
D13*
%TO.P,D2,1,K*%
%TO.N,row2*%
X63408500Y-69985500D03*
D15*
%TO.P,D2,2,A*%
%TO.N,Net-(D2-A)*%
X63408500Y-62365500D03*
%TD*%
D13*
%TO.P,D46,1,K*%
%TO.N,row5*%
X191955500Y-127117500D03*
D15*
%TO.P,D46,2,A*%
%TO.N,Net-(D46-A)*%
X191955500Y-119497500D03*
%TD*%
D13*
%TO.P,D40,1,K*%
%TO.N,row4*%
X182433500Y-108073500D03*
D15*
%TO.P,D40,2,A*%
%TO.N,Net-(D40-A)*%
X182433500Y-100453500D03*
%TD*%
D13*
%TO.P,D13,1,K*%
%TO.N,row5*%
X82452500Y-127117500D03*
D15*
%TO.P,D13,2,A*%
%TO.N,Net-(D13-A)*%
X82452500Y-119497500D03*
%TD*%
D13*
%TO.P,D35,1,K*%
%TO.N,row3*%
X196716500Y-89187000D03*
D15*
%TO.P,D35,2,A*%
%TO.N,Net-(D35-A)*%
X196716500Y-81567000D03*
%TD*%
D13*
%TO.P,D36,1,K*%
%TO.N,row3*%
X215760500Y-89187000D03*
D15*
%TO.P,D36,2,A*%
%TO.N,Net-(D36-A)*%
X215760500Y-81567000D03*
%TD*%
D13*
%TO.P,D4,1,K*%
%TO.N,row2*%
X101496500Y-69985500D03*
D15*
%TO.P,D4,2,A*%
%TO.N,Net-(D4-A)*%
X101496500Y-62365500D03*
%TD*%
D13*
%TO.P,D45,1,K*%
%TO.N,row5*%
X172911500Y-127117500D03*
D15*
%TO.P,D45,2,A*%
%TO.N,Net-(D45-A)*%
X172911500Y-119497500D03*
%TD*%
D13*
%TO.P,D18,1,K*%
%TO.N,row1*%
X130062500Y-45702000D03*
D15*
%TO.P,D18,2,A*%
%TO.N,Net-(D18-A)*%
X130062500Y-38082000D03*
%TD*%
D13*
%TO.P,D51,1,K*%
%TO.N,row6*%
X157041500Y-146319000D03*
D15*
%TO.P,D51,2,A*%
%TO.N,Net-(D51-A)*%
X157041500Y-138699000D03*
%TD*%
D13*
%TO.P,D28,1,K*%
%TO.N,row2*%
X187194500Y-69985500D03*
D15*
%TO.P,D28,2,A*%
%TO.N,Net-(D28-A)*%
X187194500Y-62365500D03*
%TD*%
D13*
%TO.P,D42,1,K*%
%TO.N,row4*%
X220521500Y-108073500D03*
D15*
%TO.P,D42,2,A*%
%TO.N,Net-(D42-A)*%
X220521500Y-100453500D03*
%TD*%
D13*
%TO.P,D3,1,K*%
%TO.N,row2*%
X82452500Y-69985500D03*
D15*
%TO.P,D3,2,A*%
%TO.N,Net-(D3-A)*%
X82452500Y-62365500D03*
%TD*%
D13*
%TO.P,D24,1,K*%
%TO.N,row1*%
X234670000Y-43670000D03*
D15*
%TO.P,D24,2,A*%
%TO.N,Net-(D24-A)*%
X242290000Y-43670000D03*
%TD*%
D13*
%TO.P,D44,1,K*%
%TO.N,row5*%
X153867500Y-127117500D03*
D15*
%TO.P,D44,2,A*%
%TO.N,Net-(D44-A)*%
X153867500Y-119497500D03*
%TD*%
D13*
%TO.P,D8,1,K*%
%TO.N,row4*%
X44364500Y-95768750D03*
D15*
%TO.P,D8,2,A*%
%TO.N,Net-(D8-A)*%
X44364500Y-88148750D03*
%TD*%
D13*
%TO.P,D47,1,K*%
%TO.N,row5*%
X210999500Y-127117500D03*
D15*
%TO.P,D47,2,A*%
%TO.N,Net-(D47-A)*%
X210999500Y-119497500D03*
%TD*%
D13*
%TO.P,D37,1,K*%
%TO.N,row3*%
X234804500Y-89187000D03*
D15*
%TO.P,D37,2,A*%
%TO.N,Net-(D37-A)*%
X234804500Y-81567000D03*
%TD*%
D13*
%TO.P,D14,1,K*%
%TO.N,row5*%
X101496500Y-127117500D03*
D15*
%TO.P,D14,2,A*%
%TO.N,Net-(D14-A)*%
X101496500Y-119497500D03*
%TD*%
D13*
%TO.P,D20,1,K*%
%TO.N,row1*%
X168150500Y-45702000D03*
D15*
%TO.P,D20,2,A*%
%TO.N,Net-(D20-A)*%
X168150500Y-38082000D03*
%TD*%
D13*
%TO.P,D19,1,K*%
%TO.N,row1*%
X149106500Y-45702000D03*
D15*
%TO.P,D19,2,A*%
%TO.N,Net-(D19-A)*%
X149106500Y-38082000D03*
%TD*%
D13*
%TO.P,D21,1,K*%
%TO.N,row1*%
X187194500Y-45702000D03*
D15*
%TO.P,D21,2,A*%
%TO.N,Net-(D21-A)*%
X187194500Y-38082000D03*
%TD*%
D13*
%TO.P,D7,1,K*%
%TO.N,row3*%
X101496500Y-89187000D03*
D15*
%TO.P,D7,2,A*%
%TO.N,Net-(D7-A)*%
X101496500Y-81567000D03*
%TD*%
D13*
%TO.P,D39,1,K*%
%TO.N,row4*%
X163389500Y-108073500D03*
D15*
%TO.P,D39,2,A*%
%TO.N,Net-(D39-A)*%
X163389500Y-100453500D03*
%TD*%
D13*
%TO.P,D49,1,K*%
%TO.N,row5*%
X249087500Y-127117500D03*
D15*
%TO.P,D49,2,A*%
%TO.N,Net-(D49-A)*%
X249087500Y-119497500D03*
%TD*%
D13*
%TO.P,D10,1,K*%
%TO.N,row4*%
X82452500Y-108073500D03*
D15*
%TO.P,D10,2,A*%
%TO.N,Net-(D10-A)*%
X82452500Y-100453500D03*
%TD*%
D13*
%TO.P,D29,1,K*%
%TO.N,row2*%
X206238500Y-69985500D03*
D15*
%TO.P,D29,2,A*%
%TO.N,Net-(D29-A)*%
X206238500Y-62365500D03*
%TD*%
D13*
%TO.P,D32,1,K*%
%TO.N,row3*%
X135617000Y-89187000D03*
D15*
%TO.P,D32,2,A*%
%TO.N,Net-(D32-A)*%
X135617000Y-81567000D03*
%TD*%
D13*
%TO.P,D41,1,K*%
%TO.N,row4*%
X201477500Y-108073500D03*
D15*
%TO.P,D41,2,A*%
%TO.N,Net-(D41-A)*%
X201477500Y-100453500D03*
%TD*%
D13*
%TO.P,D17,1,K*%
%TO.N,row6*%
X101496500Y-141319000D03*
D15*
%TO.P,D17,2,A*%
%TO.N,Net-(D17-A)*%
X101496500Y-133699000D03*
%TD*%
D13*
%TO.P,D34,1,K*%
%TO.N,row3*%
X177672500Y-89187000D03*
D15*
%TO.P,D34,2,A*%
%TO.N,Net-(D34-A)*%
X177672500Y-81567000D03*
%TD*%
D13*
%TO.P,D5,1,K*%
%TO.N,row3*%
X63408500Y-89187000D03*
D15*
%TO.P,D5,2,A*%
%TO.N,Net-(D5-A)*%
X63408500Y-81567000D03*
%TD*%
D13*
%TO.P,D16,1,K*%
%TO.N,row6*%
X63408500Y-146319000D03*
D15*
%TO.P,D16,2,A*%
%TO.N,Net-(D16-A)*%
X63408500Y-138699000D03*
%TD*%
D13*
%TO.P,D15,1,K*%
%TO.N,row6*%
X39059250Y-146319000D03*
D15*
%TO.P,D15,2,A*%
%TO.N,Net-(D15-A)*%
X39059250Y-138699000D03*
%TD*%
D13*
%TO.P,D9,1,K*%
%TO.N,row4*%
X63408500Y-108073500D03*
D15*
%TO.P,D9,2,A*%
%TO.N,Net-(D9-A)*%
X63408500Y-100453500D03*
%TD*%
D13*
%TO.P,D27,1,K*%
%TO.N,row2*%
X168150500Y-69985500D03*
D15*
%TO.P,D27,2,A*%
%TO.N,Net-(D27-A)*%
X168150500Y-62365500D03*
%TD*%
D13*
%TO.P,D6,1,K*%
%TO.N,row3*%
X82452500Y-89187000D03*
D15*
%TO.P,D6,2,A*%
%TO.N,Net-(D6-A)*%
X82452500Y-81567000D03*
%TD*%
D13*
%TO.P,D43,1,K*%
%TO.N,row4*%
X239565500Y-108073500D03*
D15*
%TO.P,D43,2,A*%
%TO.N,Net-(D43-A)*%
X239565500Y-100453500D03*
%TD*%
D13*
%TO.P,D1,1,K*%
%TO.N,row2*%
X44364500Y-69985500D03*
D15*
%TO.P,D1,2,A*%
%TO.N,Net-(D1-A)*%
X44364500Y-62365500D03*
%TD*%
D13*
%TO.P,D11,1,K*%
%TO.N,row4*%
X101496500Y-108073500D03*
D15*
%TO.P,D11,2,A*%
%TO.N,Net-(D11-A)*%
X101496500Y-100453500D03*
%TD*%
D16*
%TO.N,row2*%
X109809250Y-67108750D03*
%TO.N,row3*%
X110109250Y-86048750D03*
%TO.N,row4*%
X110909250Y-104658750D03*
%TO.N,row5*%
X111479250Y-123488750D03*
%TO.N,row6*%
X111879250Y-142738750D03*
%TO.N,col5*%
X115034250Y-47500000D03*
%TO.N,col10*%
X210284250Y-47500000D03*
%TO.N,col11*%
X229334250Y-47500000D03*
%TO.N,col6*%
X134084250Y-47500000D03*
%TO.N,col7*%
X153134250Y-47500000D03*
%TO.N,col8*%
X172184250Y-47500000D03*
%TO.N,col9*%
X191234250Y-47500000D03*
%TO.N,GND*%
X64500000Y-46500000D03*
%TD*%
D17*
%TO.N,row2*%
X49100000Y-52100000D02*
X47560000Y-50560000D01*
X47560000Y-50560000D02*
X47560000Y-48320000D01*
X104348628Y-52100000D02*
X49100000Y-52100000D01*
X110559250Y-58310622D02*
X104348628Y-52100000D01*
X110559250Y-66358750D02*
X110559250Y-58310622D01*
X109809250Y-67108750D02*
X110559250Y-66358750D01*
%TO.N,row3*%
X110179250Y-86048750D02*
X113129250Y-83098750D01*
X50100000Y-50500000D02*
X50100000Y-48320000D01*
X51300000Y-51700000D02*
X50100000Y-50500000D01*
X110959250Y-58144936D02*
X104514313Y-51700000D01*
X113129250Y-83098750D02*
X113129250Y-66015808D01*
X113129250Y-66015808D02*
X110959250Y-63845808D01*
X110959250Y-63845808D02*
X110959250Y-58144936D01*
X110109250Y-86048750D02*
X110179250Y-86048750D01*
X104514313Y-51700000D02*
X51300000Y-51700000D01*
%TO.N,row4*%
X52640000Y-50040000D02*
X52640000Y-48320000D01*
X111359250Y-57979250D02*
X104679998Y-51300000D01*
X110909250Y-104658750D02*
X113529250Y-102038750D01*
X104679998Y-51300000D02*
X53900000Y-51300000D01*
X53900000Y-51300000D02*
X52640000Y-50040000D01*
X113529250Y-65850122D02*
X111359250Y-63680122D01*
X111359250Y-63680122D02*
X111359250Y-57979250D01*
X113529250Y-102038750D02*
X113529250Y-65850122D01*
%TO.N,row5*%
X113929250Y-65684436D02*
X111759250Y-63514436D01*
X111479250Y-123488750D02*
X112059250Y-123488750D01*
X113929250Y-121618750D02*
X113929250Y-65684436D01*
X111759250Y-57813564D02*
X104845683Y-50900000D01*
X56100000Y-50900000D02*
X55180000Y-49980000D01*
X112059250Y-123488750D02*
X113929250Y-121618750D01*
X55180000Y-49980000D02*
X55180000Y-48320000D01*
X104845683Y-50900000D02*
X56100000Y-50900000D01*
X111759250Y-63514436D02*
X111759250Y-57813564D01*
%TO.N,row6*%
X111879250Y-142738750D02*
X114329250Y-140288750D01*
X59300000Y-50500000D02*
X57720000Y-48920000D01*
X112159250Y-57647878D02*
X105011368Y-50500000D01*
X57720000Y-48920000D02*
X57720000Y-48320000D01*
X105011368Y-50500000D02*
X59300000Y-50500000D01*
X114329250Y-140288750D02*
X114329250Y-65518750D01*
X112159250Y-63348750D02*
X112159250Y-57647878D01*
X114329250Y-65518750D02*
X112159250Y-63348750D01*
%TO.N,col1*%
X34099250Y-80158750D02*
X29309250Y-84948750D01*
X29309250Y-68378750D02*
X34189250Y-73258750D01*
X28500000Y-58399500D02*
X29309250Y-59208750D01*
X29309250Y-59208750D02*
X29309250Y-68378750D01*
X29780000Y-48320000D02*
X29780000Y-49820000D01*
X29309250Y-123218750D02*
X29309250Y-125883750D01*
X34099250Y-73348750D02*
X34099250Y-80158750D01*
X29309250Y-94328750D02*
X34099250Y-99118750D01*
X29309250Y-84948750D02*
X29309250Y-87783750D01*
X34189250Y-73258750D02*
X34099250Y-73348750D01*
X34099250Y-99118750D02*
X34099250Y-118428750D01*
X29780000Y-49820000D02*
X28500000Y-51100000D01*
X29309250Y-87783750D02*
X29309250Y-94328750D01*
X34099250Y-118428750D02*
X29309250Y-123218750D01*
X28500000Y-51100000D02*
X28500000Y-58399500D01*
%TO.N,col2*%
X48359250Y-59208750D02*
X45170000Y-56019500D01*
X45170000Y-53340000D02*
X44330000Y-52500000D01*
X45170000Y-56019500D02*
X45170000Y-53340000D01*
X32320000Y-49120000D02*
X32320000Y-48320000D01*
X35700000Y-52500000D02*
X32320000Y-49120000D01*
X48359250Y-59208750D02*
X48359250Y-116358750D01*
X48359250Y-135408750D02*
X48359250Y-116358750D01*
X44330000Y-52500000D02*
X35700000Y-52500000D01*
%TO.N,col3*%
X67409250Y-54909250D02*
X67409250Y-59208750D01*
X65400000Y-52900000D02*
X67409250Y-54909250D01*
X44495686Y-52100000D02*
X45295686Y-52900000D01*
X67409250Y-116358750D02*
X67409250Y-133288750D01*
X69529250Y-135408750D02*
X76934250Y-135408750D01*
X45295686Y-52900000D02*
X65400000Y-52900000D01*
X39940000Y-50740000D02*
X41300000Y-52100000D01*
X41300000Y-52100000D02*
X44495686Y-52100000D01*
X67409250Y-133288750D02*
X69529250Y-135408750D01*
X39940000Y-48320000D02*
X39940000Y-50740000D01*
X67409250Y-116358750D02*
X67409250Y-59208750D01*
%TO.N,col4*%
X86459250Y-59208750D02*
X86459250Y-116358750D01*
X84000000Y-52500000D02*
X47000000Y-52500000D01*
X86459250Y-54959250D02*
X84000000Y-52500000D01*
X86459250Y-59208750D02*
X86459250Y-54959250D01*
X45020000Y-50520000D02*
X45020000Y-48320000D01*
X47000000Y-52500000D02*
X45020000Y-50520000D01*
%TO.N,col5*%
X119796750Y-78258750D02*
X119796750Y-94927500D01*
X126940500Y-116358750D02*
X126940500Y-107647000D01*
X117415500Y-121829000D02*
X117415500Y-135408750D01*
X115034250Y-73496250D02*
X119796750Y-78258750D01*
X115034250Y-59208750D02*
X115034250Y-73496250D01*
X126940500Y-116358750D02*
X123801750Y-119497500D01*
X119747000Y-119497500D02*
X117415500Y-121829000D01*
X123801750Y-119497500D02*
X119747000Y-119497500D01*
X119796750Y-94927500D02*
X122178000Y-97308750D01*
X122178000Y-102884500D02*
X122178000Y-97308750D01*
X115034250Y-35395750D02*
X115034250Y-59208750D01*
X126940500Y-107647000D02*
X122178000Y-102884500D01*
%TO.N,col10*%
X219809250Y-74349250D02*
X210284250Y-64824250D01*
X224571750Y-97308750D02*
X224571750Y-108305750D01*
X222190500Y-135408750D02*
X222190500Y-129101500D01*
X224571750Y-97308750D02*
X224571750Y-91807750D01*
X222190500Y-129101500D02*
X215046750Y-121957750D01*
X219809250Y-78258750D02*
X219809250Y-74349250D01*
X219809250Y-87045250D02*
X219809250Y-78258750D01*
X224571750Y-91807750D02*
X219809250Y-87045250D01*
X215046750Y-116358750D02*
X215046750Y-113069750D01*
X215046750Y-121957750D02*
X215046750Y-116358750D01*
X210284250Y-35395750D02*
X210284250Y-59208750D01*
X210284250Y-64824250D02*
X210284250Y-59208750D01*
X222108500Y-110769000D02*
X217347500Y-110769000D01*
X215046750Y-113069750D02*
X217347500Y-110769000D01*
X224571750Y-108305750D02*
X222108500Y-110769000D01*
%TO.N,col11*%
X241935000Y-110490000D02*
X236220000Y-110490000D01*
X229334250Y-59208750D02*
X229334250Y-66417250D01*
X229334250Y-66417250D02*
X241152500Y-78235500D01*
X236220000Y-110490000D02*
X234096750Y-112613250D01*
X234096750Y-112613250D02*
X234096750Y-116358750D01*
X241152500Y-88152500D02*
X243460750Y-90460750D01*
X243460750Y-108964250D02*
X241935000Y-110490000D01*
X243460750Y-90460750D02*
X243460750Y-108964250D01*
X241152500Y-78235500D02*
X241152500Y-88152500D01*
X229334250Y-35395750D02*
X229334250Y-59208750D01*
%TO.N,SCL*%
X110600000Y-30334314D02*
X110600000Y-33400000D01*
X247800000Y-52017500D02*
X247800000Y-32734314D01*
X243565686Y-28500000D02*
X112434314Y-28500000D01*
X112434314Y-28500000D02*
X110600000Y-30334314D01*
X46350000Y-42000000D02*
X42480000Y-45870000D01*
X110600000Y-33400000D02*
X109000000Y-35000000D01*
X66500000Y-35000000D02*
X59500000Y-42000000D01*
X42480000Y-45870000D02*
X42480000Y-48320000D01*
X59500000Y-42000000D02*
X46350000Y-42000000D01*
X109000000Y-35000000D02*
X66500000Y-35000000D01*
X247800000Y-32734314D02*
X243565686Y-28500000D01*
X247006750Y-52810750D02*
X247800000Y-52017500D01*
%TO.N,col6*%
X148313000Y-106775000D02*
X157896750Y-116358750D01*
X157896750Y-120838250D02*
X157896750Y-116358750D01*
X148371750Y-97308750D02*
X143609250Y-92546250D01*
X148371750Y-98014250D02*
X148313000Y-98073000D01*
X148313000Y-98073000D02*
X148313000Y-106775000D01*
X134084250Y-68733750D02*
X143609250Y-78258750D01*
X141228000Y-131442000D02*
X142510000Y-130160000D01*
X157835000Y-127090000D02*
X157835000Y-120900000D01*
X154765000Y-130160000D02*
X157835000Y-127090000D01*
X148371750Y-97308750D02*
X148371750Y-98014250D01*
X142510000Y-130160000D02*
X154765000Y-130160000D01*
X134084250Y-59208750D02*
X134084250Y-68733750D01*
X157835000Y-120900000D02*
X157896750Y-120838250D01*
X134084250Y-35395750D02*
X134084250Y-59208750D01*
X143609250Y-92546250D02*
X143609250Y-78258750D01*
X141228000Y-135408750D02*
X141228000Y-131442000D01*
%TO.N,col7*%
X162659250Y-78258750D02*
X162659250Y-88614250D01*
X162659250Y-88614250D02*
X167421750Y-93376750D01*
X153134250Y-64806250D02*
X153134250Y-59208750D01*
X162659250Y-74331250D02*
X153134250Y-64806250D01*
X162659250Y-78258750D02*
X162659250Y-74331250D01*
X167421750Y-93376750D02*
X167421750Y-97308750D01*
X153134250Y-59208750D02*
X153134250Y-35395750D01*
%TO.N,col8*%
X181709250Y-75130750D02*
X172118000Y-65539500D01*
X172184250Y-65473250D02*
X172184250Y-59208750D01*
X176946750Y-127364750D02*
X174498500Y-129813000D01*
X167357000Y-129813000D02*
X165040500Y-132129500D01*
X172118000Y-65539500D02*
X172184250Y-65473250D01*
X174498500Y-129813000D02*
X167357000Y-129813000D01*
X181709250Y-88620250D02*
X186471750Y-93382750D01*
X186471750Y-108317750D02*
X184020500Y-110769000D01*
X179259500Y-110769000D02*
X176946750Y-113081750D01*
X165040500Y-132129500D02*
X165040500Y-135408750D01*
X176946750Y-113081750D02*
X176946750Y-116358750D01*
X176946750Y-116358750D02*
X176946750Y-127364750D01*
X184020500Y-110769000D02*
X179259500Y-110769000D01*
X186471750Y-93382750D02*
X186471750Y-97308750D01*
X181709250Y-78258750D02*
X181709250Y-88620250D01*
X172184250Y-59208750D02*
X172184250Y-35395750D01*
X181709250Y-78258750D02*
X181709250Y-75130750D01*
X186471750Y-97308750D02*
X186471750Y-108317750D01*
%TO.N,col9*%
X195996750Y-113869250D02*
X199097000Y-110769000D01*
X195996750Y-116358750D02*
X195996750Y-113869250D01*
X200759250Y-87039250D02*
X200759250Y-78258750D01*
X195996750Y-127853250D02*
X194310000Y-129540000D01*
X200759250Y-78258750D02*
X200759250Y-75136750D01*
X191234250Y-59208750D02*
X191234250Y-35395750D01*
X195996750Y-116358750D02*
X195996750Y-127853250D01*
X203064500Y-110769000D02*
X199097000Y-110769000D01*
X191234250Y-65611750D02*
X200759250Y-75136750D01*
X190500000Y-129540000D02*
X188853000Y-131187000D01*
X205521750Y-97308750D02*
X205521750Y-108311750D01*
X205521750Y-97308750D02*
X205521750Y-91801750D01*
X194310000Y-129540000D02*
X190500000Y-129540000D01*
X188853000Y-131187000D02*
X188853000Y-135408750D01*
X191234250Y-59208750D02*
X191234250Y-65611750D01*
X205521750Y-108311750D02*
X203064500Y-110769000D01*
X205521750Y-91801750D02*
X200759250Y-87039250D01*
%TO.N,GND*%
X247400000Y-47165684D02*
X246354934Y-48210750D01*
X247400000Y-32900000D02*
X247400000Y-47165684D01*
X64500000Y-48000000D02*
X66600000Y-50100000D01*
X111000000Y-30500000D02*
X112600000Y-28900000D01*
X111000000Y-39500000D02*
X111000000Y-30500000D01*
X100400000Y-50100000D02*
X111000000Y-39500000D01*
X112600000Y-28900000D02*
X243400000Y-28900000D01*
X243400000Y-28900000D02*
X247400000Y-32900000D01*
X246354934Y-48210750D02*
X241906750Y-48210750D01*
X66600000Y-50100000D02*
X100400000Y-50100000D01*
X64500000Y-46500000D02*
X64500000Y-48000000D01*
%TO.N,Net-(D1-A)*%
X44364500Y-58398000D02*
X44364500Y-62365500D01*
X42635250Y-56668750D02*
X44364500Y-58398000D01*
X42236250Y-56668750D02*
X42635250Y-56668750D01*
%TO.N,Net-(D2-A)*%
X61286250Y-56668750D02*
X61679250Y-56668750D01*
X61679250Y-56668750D02*
X63408500Y-58398000D01*
X63408500Y-58398000D02*
X63408500Y-62365500D01*
%TO.N,Net-(D3-A)*%
X80336250Y-56668750D02*
X80723250Y-56668750D01*
X80723250Y-56668750D02*
X82452500Y-58398000D01*
X82452500Y-58398000D02*
X82452500Y-62365500D01*
%TO.N,Net-(D4-A)*%
X101496500Y-58398000D02*
X101496500Y-62365500D01*
X99767250Y-56668750D02*
X101496500Y-58398000D01*
X99386250Y-56668750D02*
X99767250Y-56668750D01*
%TO.N,Net-(D5-A)*%
X63408500Y-77841000D02*
X61286250Y-75718750D01*
X63408500Y-81567000D02*
X63408500Y-77841000D01*
%TO.N,Net-(D6-A)*%
X82452500Y-81567000D02*
X82452500Y-77835000D01*
X82452500Y-77835000D02*
X80336250Y-75718750D01*
%TO.N,Net-(D7-A)*%
X101496500Y-81567000D02*
X101496500Y-77829000D01*
X101496500Y-77829000D02*
X99386250Y-75718750D01*
%TO.N,Net-(D8-A)*%
X42236250Y-86020500D02*
X42236250Y-85243750D01*
X44364500Y-88148750D02*
X42236250Y-86020500D01*
%TO.N,Net-(D9-A)*%
X63408500Y-100453500D02*
X63408500Y-96891000D01*
X63408500Y-96891000D02*
X61286250Y-94768750D01*
%TO.N,Net-(D10-A)*%
X82452500Y-100453500D02*
X82452500Y-96885000D01*
X82452500Y-96885000D02*
X80336250Y-94768750D01*
%TO.N,Net-(D11-A)*%
X101496500Y-96879000D02*
X99386250Y-94768750D01*
X101496500Y-100453500D02*
X101496500Y-96879000D01*
%TO.N,Net-(D12-A)*%
X63408500Y-119497500D02*
X63408500Y-115941000D01*
X63408500Y-115941000D02*
X61286250Y-113818750D01*
%TO.N,Net-(D13-A)*%
X82452500Y-115935000D02*
X80336250Y-113818750D01*
X82452500Y-119497500D02*
X82452500Y-115935000D01*
%TO.N,Net-(D14-A)*%
X101496500Y-119497500D02*
X101496500Y-115929000D01*
X101496500Y-115929000D02*
X99386250Y-113818750D01*
%TO.N,Net-(D15-A)*%
X39059250Y-138699000D02*
X44649250Y-133109000D01*
X44649250Y-133109000D02*
X44649250Y-125756750D01*
X44649250Y-125756750D02*
X42236250Y-123343750D01*
%TO.N,Net-(D16-A)*%
X63408500Y-134991000D02*
X61286250Y-132868750D01*
X63408500Y-138699000D02*
X63408500Y-134991000D01*
%TO.N,Net-(D17-A)*%
X101496500Y-133699000D02*
X90691500Y-133699000D01*
X90691500Y-133699000D02*
X89861250Y-132868750D01*
%TO.N,Net-(D18-A)*%
X127961250Y-32855750D02*
X128325250Y-32855750D01*
X130062500Y-34593000D02*
X130062500Y-38082000D01*
X128325250Y-32855750D02*
X130062500Y-34593000D01*
%TO.N,Net-(D19-A)*%
X149106500Y-34593000D02*
X149106500Y-38082000D01*
X147011250Y-32855750D02*
X147369250Y-32855750D01*
X147369250Y-32855750D02*
X149106500Y-34593000D01*
%TO.N,Net-(D20-A)*%
X166413250Y-32855750D02*
X168150500Y-34593000D01*
X168150500Y-34593000D02*
X168150500Y-38082000D01*
X166061250Y-32855750D02*
X166413250Y-32855750D01*
%TO.N,Net-(D21-A)*%
X185457250Y-32855750D02*
X187194500Y-34593000D01*
X185111250Y-32855750D02*
X185457250Y-32855750D01*
X187194500Y-34593000D02*
X187194500Y-38082000D01*
%TO.N,Net-(D22-A)*%
X206238500Y-34593000D02*
X206238500Y-38082000D01*
X204501250Y-32855750D02*
X206238500Y-34593000D01*
X204161250Y-32855750D02*
X204501250Y-32855750D01*
%TO.N,Net-(D23-A)*%
X223545250Y-32855750D02*
X225282500Y-34593000D01*
X223211250Y-32855750D02*
X223545250Y-32855750D01*
X225282500Y-34593000D02*
X225282500Y-38082000D01*
%TO.N,Net-(D24-A)*%
X244326500Y-41633500D02*
X242290000Y-43670000D01*
X244326500Y-34921000D02*
X244326500Y-41633500D01*
X242261250Y-32855750D02*
X244326500Y-34921000D01*
%TO.N,Net-(D25-A)*%
X128333250Y-56668750D02*
X130062500Y-58398000D01*
X127961250Y-56668750D02*
X128333250Y-56668750D01*
X130062500Y-58398000D02*
X130062500Y-62365500D01*
%TO.N,Net-(D26-A)*%
X149106500Y-58398000D02*
X149106500Y-62365500D01*
X147011250Y-56668750D02*
X147377250Y-56668750D01*
X147377250Y-56668750D02*
X149106500Y-58398000D01*
%TO.N,Net-(D27-A)*%
X166061250Y-56668750D02*
X168150500Y-58758000D01*
X168150500Y-58758000D02*
X168150500Y-62365500D01*
%TO.N,Net-(D28-A)*%
X185465250Y-56668750D02*
X187194500Y-58398000D01*
X187194500Y-58398000D02*
X187194500Y-62365500D01*
X185111250Y-56668750D02*
X185465250Y-56668750D01*
%TO.N,Net-(D29-A)*%
X204509250Y-56668750D02*
X206238500Y-58398000D01*
X206238500Y-58398000D02*
X206238500Y-62365500D01*
X204161250Y-56668750D02*
X204509250Y-56668750D01*
%TO.N,Net-(D30-A)*%
X223553250Y-56668750D02*
X225282500Y-58398000D01*
X225282500Y-58398000D02*
X225282500Y-62365500D01*
X223211250Y-56668750D02*
X223553250Y-56668750D01*
%TO.N,Net-(D31-A)*%
X244326500Y-58734000D02*
X244326500Y-62365500D01*
X242261250Y-56668750D02*
X244326500Y-58734000D01*
%TO.N,Net-(D32-A)*%
X135617000Y-78235500D02*
X135617000Y-81409500D01*
X132723750Y-75718750D02*
X133100250Y-75718750D01*
X133100250Y-75718750D02*
X135617000Y-78235500D01*
%TO.N,Net-(D33-A)*%
X156536250Y-75718750D02*
X158628500Y-77811000D01*
X158628500Y-77811000D02*
X158628500Y-81567000D01*
%TO.N,Net-(D34-A)*%
X177672500Y-77805000D02*
X177672500Y-81409500D01*
X175586250Y-75718750D02*
X177672500Y-77805000D01*
%TO.N,Net-(D35-A)*%
X194636250Y-75718750D02*
X196716500Y-77799000D01*
X196716500Y-77799000D02*
X196716500Y-81567000D01*
%TO.N,Net-(D36-A)*%
X215760500Y-77442000D02*
X215760500Y-81567000D01*
X213686250Y-75718750D02*
X214037250Y-75718750D01*
X214037250Y-75718750D02*
X215760500Y-77442000D01*
%TO.N,Net-(D37-A)*%
X234804500Y-77442000D02*
X234804500Y-81567000D01*
X233081250Y-75718750D02*
X234804500Y-77442000D01*
X232736250Y-75718750D02*
X233081250Y-75718750D01*
%TO.N,Net-(D38-A)*%
X137997500Y-97661250D02*
X137997500Y-100453500D01*
X135105000Y-94768750D02*
X137997500Y-97661250D01*
%TO.N,Net-(D39-A)*%
X163389500Y-96859500D02*
X163389500Y-100453500D01*
X161298750Y-94768750D02*
X163389500Y-96859500D01*
%TO.N,Net-(D40-A)*%
X182433500Y-96853500D02*
X182433500Y-100453500D01*
X180348750Y-94768750D02*
X182433500Y-96853500D01*
%TO.N,Net-(D41-A)*%
X199398750Y-94768750D02*
X201477500Y-96847500D01*
X201477500Y-96847500D02*
X201477500Y-100453500D01*
%TO.N,Net-(D42-A)*%
X220521500Y-96841500D02*
X220521500Y-100453500D01*
X218448750Y-94768750D02*
X220521500Y-96841500D01*
%TO.N,Net-(D43-A)*%
X237498750Y-94768750D02*
X239565500Y-96835500D01*
X239565500Y-96835500D02*
X239565500Y-100453500D01*
%TO.N,Net-(D44-A)*%
X145932500Y-119497500D02*
X153867500Y-119497500D01*
X140253750Y-113818750D02*
X145932500Y-119497500D01*
X139867500Y-113818750D02*
X140253750Y-113818750D01*
%TO.N,Net-(D45-A)*%
X170823750Y-113818750D02*
X172911500Y-115906500D01*
X172911500Y-115906500D02*
X172911500Y-119497500D01*
%TO.N,Net-(D46-A)*%
X191955500Y-115530000D02*
X191955500Y-119497500D01*
X189873750Y-113818750D02*
X190244250Y-113818750D01*
X190244250Y-113818750D02*
X191955500Y-115530000D01*
%TO.N,Net-(D47-A)*%
X210999500Y-115894500D02*
X210999500Y-119497500D01*
X208923750Y-113818750D02*
X210999500Y-115894500D01*
%TO.N,Net-(D48-A)*%
X230043500Y-115530000D02*
X230043500Y-119497500D01*
X227973750Y-113818750D02*
X228332250Y-113818750D01*
X228332250Y-113818750D02*
X230043500Y-115530000D01*
%TO.N,Net-(D49-A)*%
X249087500Y-115882500D02*
X249087500Y-119497500D01*
X247023750Y-113818750D02*
X249087500Y-115882500D01*
%TO.N,Net-(D50-A)*%
X133236500Y-135762750D02*
X133236500Y-138699000D01*
X130342500Y-132868750D02*
X133236500Y-135762750D01*
%TO.N,Net-(D51-A)*%
X154155000Y-132868750D02*
X157041500Y-135755250D01*
X157041500Y-135755250D02*
X157041500Y-138699000D01*
%TO.N,Net-(D52-A)*%
X177967500Y-132868750D02*
X180846500Y-135747750D01*
X180846500Y-135747750D02*
X180846500Y-138699000D01*
%TO.N,Net-(D53-A)*%
X201780000Y-132868750D02*
X204651500Y-135740250D01*
X204651500Y-135740250D02*
X204651500Y-138699000D01*
%TO.N,Net-(D54-A)*%
X235479750Y-132868750D02*
X235117500Y-132868750D01*
X240611000Y-138000000D02*
X235479750Y-132868750D01*
X249250000Y-134630000D02*
X247120000Y-134630000D01*
X247120000Y-134630000D02*
X243750000Y-138000000D01*
X243750000Y-138000000D02*
X240611000Y-138000000D01*
%TD*%
M02*
