<svg style="background-color:#dddddd" width="447.625" height="238.07500000000002"><path stroke="black" fill="white" fill-opacity="1.0" d="M 0, 238.07500000000002 L 447.625, 238.07500000000002 L 447.625, 0 L 0, 0 Z"/><path stroke="black" fill="white" fill-opacity="0.0" d="M 204.5, 5.050000000000011 L 176.5, 5.050000000000011 L 176.5, 33.04999999999998 L 204.5, 33.04999999999998 Z"/><path stroke="black" fill="white" fill-opacity="0.0" d="M 242.6, 5.050000000000011 L 214.6, 5.050000000000011 L 214.6, 33.04999999999998 L 242.6, 33.04999999999998 Z"/><path stroke="black" fill="white" fill-opacity="0.0" d="M 280.7, 5.050000000000011 L 252.7, 5.050000000000011 L 252.7, 33.04999999999998 L 280.7, 33.04999999999998 Z"/><path stroke="black" fill="white" fill-opacity="0.0" d="M 318.8, 5.050000000000011 L 290.8, 5.050000000000011 L 290.8, 33.04999999999998 L 318.8, 33.04999999999998 Z"/><path stroke="black" fill="white" fill-opacity="0.0" d="M 356.9, 5.050000000000011 L 328.9, 5.050000000000011 L 328.9, 33.04999999999998 L 356.9, 33.04999999999998 Z"/><path stroke="black" fill="white" fill-opacity="0.0" d="M 395, 5.050000000000011 L 367, 5.050000000000011 L 367, 33.04999999999998 L 395, 33.04999999999998 Z"/><path stroke="black" fill="white" fill-opacity="0.0" d="M 433.1, 5.050000000000011 L 405.1, 5.050000000000011 L 405.1, 33.04999999999998 L 433.1, 33.04999999999998 Z"/><path stroke="black" fill="white" fill-opacity="0.0" d="M 33.05, 52.67400000000001 L 5.05, 52.67400000000001 L 5.05, 80.674 L 33.05, 80.674 Z"/><path stroke="black" fill="white" fill-opacity="0.0" d="M 71.15, 52.67400000000001 L 43.15, 52.67400000000001 L 43.15, 80.674 L 71.15, 80.674 Z"/><path stroke="black" fill="white" fill-opacity="0.0" d="M 109.25, 52.67400000000001 L 81.25, 52.67400000000001 L 81.25, 80.674 L 109.25, 80.674 Z"/><path stroke="black" fill="white" fill-opacity="0.0" d="M 147.35, 52.67400000000001 L 119.35, 52.67400000000001 L 119.35, 80.674 L 147.35, 80.674 Z"/><path stroke="black" fill="white" fill-opacity="0.0" d="M 204.5, 52.67400000000001 L 176.5, 52.67400000000001 L 176.5, 80.674 L 204.5, 80.674 Z"/><path stroke="black" fill="white" fill-opacity="0.0" d="M 242.6, 52.67400000000001 L 214.6, 52.67400000000001 L 214.6, 80.674 L 242.6, 80.674 Z"/><path stroke="black" fill="white" fill-opacity="0.0" d="M 280.7, 52.67400000000001 L 252.7, 52.67400000000001 L 252.7, 80.674 L 280.7, 80.674 Z"/><path stroke="black" fill="white" fill-opacity="0.0" d="M 318.8, 52.67400000000001 L 290.8, 52.67400000000001 L 290.8, 80.674 L 318.8, 80.674 Z"/><path stroke="black" fill="white" fill-opacity="0.0" d="M 356.9, 52.67400000000001 L 328.9, 52.67400000000001 L 328.9, 80.674 L 356.9, 80.674 Z"/><path stroke="black" fill="white" fill-opacity="0.0" d="M 395, 52.67400000000001 L 367, 52.67400000000001 L 367, 80.674 L 395, 80.674 Z"/><path stroke="black" fill="white" fill-opacity="0.0" d="M 433.1, 52.67400000000001 L 405.1, 52.67400000000001 L 405.1, 80.674 L 433.1, 80.674 Z"/><path stroke="black" fill="white" fill-opacity="0.0" d="M 5.511000000000012, 103.025 L 5.511000000000012, 106.67500000000001 L 18.049000000000024, 106.67500000000001 L 18.049000000000024, 109.82500000000002 L 5.049000000000024, 109.82500000000002 L 5.049000000000024, 137.82500000000002 L 18.049000000000024, 137.82500000000002 L 18.049000000000024, 140.97500000000002 L 5.511000000000015, 140.97500000000002 L 5.511000000000015, 144.62500000000003 L 3.1090000000000284, 144.62500000000003 L 3.1090000000000284, 150.62500000000003 L 5.511000000000015, 150.62500000000003 L 5.511000000000015, 154.275 L 18.049000000000028, 154.275 L 18.049000000000028, 156.02500000000003 L 23.649000000000022, 156.02500000000003 L 23.649000000000022, 154.275 L 30.109000000000016, 154.275 L 30.109000000000016, 140.97500000000002 L 23.64900000000002, 140.97500000000002 L 23.64900000000002, 137.82500000000002 L 33.04900000000002, 137.82500000000002 L 33.04900000000002, 109.82500000000002 L 23.64900000000002, 109.82500000000002 L 23.64900000000002, 106.67500000000001 L 30.10900000000001, 106.67500000000001 L 30.10900000000001, 93.37500000000003 L 23.649000000000015, 93.37500000000003 L 23.649000000000015, 91.62500000000003 L 18.04900000000002, 91.62500000000003 L 18.04900000000002, 93.37500000000003 L 5.511000000000012, 93.37500000000003 L 5.511000000000012, 97.025 L 3.109000000000025, 97.025 L 3.109000000000025, 103.025 Z"/><path stroke="black" fill="white" fill-opacity="0.0" d="M 71.15, 90.774 L 43.15, 90.774 L 43.15, 118.774 L 71.15, 118.774 Z"/><path stroke="black" fill="white" fill-opacity="0.0" d="M 109.25, 90.774 L 81.25, 90.774 L 81.25, 118.774 L 109.25, 118.774 Z"/><path stroke="black" fill="white" fill-opacity="0.0" d="M 147.35, 90.774 L 119.35, 90.774 L 119.35, 118.774 L 147.35, 118.774 Z"/><path stroke="black" fill="white" fill-opacity="0.0" d="M 214.026, 90.774 L 186.026, 90.774 L 186.026, 118.774 L 214.026, 118.774 Z"/><path stroke="black" fill="white" fill-opacity="0.0" d="M 261.65, 90.774 L 233.65, 90.774 L 233.65, 118.774 L 261.65, 118.774 Z"/><path stroke="black" fill="white" fill-opacity="0.0" d="M 299.75, 90.774 L 271.75, 90.774 L 271.75, 118.774 L 299.75, 118.774 Z"/><path stroke="black" fill="white" fill-opacity="0.0" d="M 337.85, 90.774 L 309.85, 90.774 L 309.85, 118.774 L 337.85, 118.774 Z"/><path stroke="black" fill="white" fill-opacity="0.0" d="M 375.95, 90.774 L 347.95, 90.774 L 347.95, 118.774 L 375.95, 118.774 Z"/><path stroke="black" fill="white" fill-opacity="0.0" d="M 414.05, 90.774 L 386.05, 90.774 L 386.05, 118.774 L 414.05, 118.774 Z"/><path stroke="black" fill="white" fill-opacity="0.0" d="M 71.15, 128.874 L 43.15, 128.874 L 43.15, 156.874 L 71.15, 156.874 Z"/><path stroke="black" fill="white" fill-opacity="0.0" d="M 109.25, 128.874 L 81.25, 128.874 L 81.25, 156.874 L 109.25, 156.874 Z"/><path stroke="black" fill="white" fill-opacity="0.0" d="M 147.35, 128.874 L 119.35, 128.874 L 119.35, 156.874 L 147.35, 156.874 Z"/><path stroke="black" fill="white" fill-opacity="0.0" d="M 218.788, 128.874 L 190.788, 128.874 L 190.788, 156.874 L 218.788, 156.874 Z"/><path stroke="black" fill="white" fill-opacity="0.0" d="M 271.176, 128.874 L 243.176, 128.874 L 243.176, 156.874 L 271.176, 156.874 Z"/><path stroke="black" fill="white" fill-opacity="0.0" d="M 309.276, 128.874 L 281.276, 128.874 L 281.276, 156.874 L 309.276, 156.874 Z"/><path stroke="black" fill="white" fill-opacity="0.0" d="M 347.376, 128.874 L 319.376, 128.874 L 319.376, 156.874 L 347.376, 156.874 Z"/><path stroke="black" fill="white" fill-opacity="0.0" d="M 385.476, 128.874 L 357.476, 128.874 L 357.476, 156.874 L 385.476, 156.874 Z"/><path stroke="black" fill="white" fill-opacity="0.0" d="M 423.576, 128.874 L 395.576, 128.874 L 395.576, 156.874 L 423.576, 156.874 Z"/><path stroke="black" fill="white" fill-opacity="0.0" d="M 5.509000000000002, 179.225 L 5.509000000000002, 182.875 L 18.051000000000005, 182.875 L 18.051000000000005, 186.025 L 5.0510000000000055, 186.025 L 5.0510000000000055, 214.025 L 18.051000000000005, 214.025 L 18.051000000000005, 217.175 L 5.509000000000006, 217.175 L 5.509000000000006, 220.82500000000002 L 3.1110000000000095, 220.82500000000002 L 3.1110000000000095, 226.82500000000002 L 5.509000000000006, 226.82500000000002 L 5.509000000000006, 230.475 L 18.05100000000001, 230.475 L 18.05100000000001, 232.22500000000002 L 23.651000000000003, 232.22500000000002 L 23.651000000000003, 230.475 L 30.11100000000001, 230.475 L 30.11100000000001, 217.175 L 23.651, 217.175 L 23.651, 214.025 L 33.051, 214.025 L 33.051, 186.025 L 23.651, 186.025 L 23.651, 182.875 L 30.111000000000004, 182.875 L 30.111000000000004, 169.575 L 23.650999999999996, 169.575 L 23.650999999999996, 167.825 L 18.051000000000002, 167.825 L 18.051000000000002, 169.575 L 5.509000000000002, 169.575 L 5.509000000000002, 173.225 L 3.111000000000006, 173.225 L 3.111000000000006, 179.225 Z"/><path stroke="black" fill="white" fill-opacity="0.0" d="M 71.15, 166.976 L 43.15, 166.976 L 43.15, 194.976 L 71.15, 194.976 Z"/><path stroke="black" fill="white" fill-opacity="0.0" d="M 109.25, 166.976 L 81.25, 166.976 L 81.25, 194.976 L 109.25, 194.976 Z"/><path stroke="black" fill="white" fill-opacity="0.0" d="M 147.35, 166.976 L 119.35, 166.976 L 119.35, 194.976 L 147.35, 194.976 Z"/><path stroke="black" fill="white" fill-opacity="0.0" d="M 193.512, 194.516 L 197.162, 194.516 L 197.162, 181.976 L 200.312, 181.976 L 200.312, 194.976 L 228.312, 194.976 L 228.312, 181.976 L 231.462, 181.976 L 231.462, 194.516 L 235.112, 194.516 L 235.112, 196.916 L 241.112, 196.916 L 241.112, 194.516 L 244.762, 194.516 L 244.762, 181.976 L 246.512, 181.976 L 246.512, 176.374 L 244.762, 176.374 L 244.762, 169.916 L 231.462, 169.916 L 231.462, 176.374 L 228.312, 176.374 L 228.312, 166.976 L 200.312, 166.976 L 200.312, 176.374 L 197.162, 176.374 L 197.162, 169.916 L 183.862, 169.916 L 183.862, 176.374 L 182.112, 176.374 L 182.112, 181.976 L 183.862, 181.976 L 183.862, 194.516 L 187.512, 194.516 L 187.512, 196.916 L 193.512, 196.916 Z"/><path stroke="black" fill="white" fill-opacity="0.0" d="M 290.226, 166.976 L 262.226, 166.976 L 262.226, 194.976 L 290.226, 194.976 Z"/><path stroke="black" fill="white" fill-opacity="0.0" d="M 328.326, 166.976 L 300.326, 166.976 L 300.326, 194.976 L 328.326, 194.976 Z"/><path stroke="black" fill="white" fill-opacity="0.0" d="M 366.426, 166.976 L 338.426, 166.976 L 338.426, 194.976 L 366.426, 194.976 Z"/><path stroke="black" fill="white" fill-opacity="0.0" d="M 404.526, 166.976 L 376.526, 166.976 L 376.526, 194.976 L 404.526, 194.976 Z"/><path stroke="black" fill="white" fill-opacity="0.0" d="M 442.626, 166.976 L 414.626, 166.976 L 414.626, 194.976 L 442.626, 194.976 Z"/><path stroke="black" fill="white" fill-opacity="0.0" d="M 71.15, 205.076 L 43.15, 205.076 L 43.15, 233.076 L 71.15, 233.076 Z"/><path stroke="black" fill="white" fill-opacity="0.0" d="M 93.5, 232.616 L 97.15, 232.616 L 97.15, 220.076 L 100.3, 220.076 L 100.3, 233.076 L 128.3, 233.076 L 128.3, 220.076 L 131.45, 220.076 L 131.45, 232.616 L 135.1, 232.616 L 135.1, 235.016 L 141.1, 235.016 L 141.1, 232.616 L 144.75, 232.616 L 144.75, 220.076 L 146.5, 220.076 L 146.5, 214.474 L 144.75, 214.474 L 144.75, 208.016 L 131.45, 208.016 L 131.45, 214.474 L 128.3, 214.474 L 128.3, 205.076 L 100.3, 205.076 L 100.3, 214.474 L 97.15, 214.474 L 97.15, 208.016 L 83.85, 208.016 L 83.85, 214.474 L 82.1, 214.474 L 82.1, 220.076 L 83.85, 220.076 L 83.85, 232.616 L 87.5, 232.616 L 87.5, 235.016 L 93.5, 235.016 Z"/><path stroke="black" fill="white" fill-opacity="0.0" d="M 209.262, 205.076 L 181.262, 205.076 L 181.262, 233.076 L 209.262, 233.076 Z"/><path stroke="black" fill="white" fill-opacity="0.0" d="M 256.888, 205.076 L 228.888, 205.076 L 228.888, 233.076 L 256.888, 233.076 Z"/><path stroke="black" fill="white" fill-opacity="0.0" d="M 304.512, 205.076 L 276.512, 205.076 L 276.512, 233.076 L 304.512, 233.076 Z"/><path stroke="black" fill="white" fill-opacity="0.0" d="M 352.138, 205.076 L 324.138, 205.076 L 324.138, 233.076 L 352.138, 233.076 Z"/><path stroke="black" fill="white" fill-opacity="0.0" d="M 384.012, 232.616 L 387.662, 232.616 L 387.662, 220.076 L 390.812, 220.076 L 390.812, 233.076 L 418.812, 233.076 L 418.812, 220.076 L 421.962, 220.076 L 421.962, 232.616 L 425.612, 232.616 L 425.612, 235.016 L 431.612, 235.016 L 431.612, 232.616 L 435.262, 232.616 L 435.262, 220.076 L 437.012, 220.076 L 437.012, 214.474 L 435.262, 214.474 L 435.262, 208.016 L 421.962, 208.016 L 421.962, 214.474 L 418.812, 214.474 L 418.812, 205.076 L 390.812, 205.076 L 390.812, 214.474 L 387.662, 214.474 L 387.662, 208.016 L 374.362, 208.016 L 374.362, 214.474 L 372.612, 214.474 L 372.612, 220.076 L 374.362, 220.076 L 374.362, 232.616 L 378.012, 232.616 L 378.012, 235.016 L 384.012, 235.016 Z"/></svg>